<svg width="271" height="53" viewBox="0 0 271 53" fill="none" xmlns="http://www.w3.org/2000/svg">
<g clip-path="url(#clip0_437_1972)">
<path d="M81.6015 36.6934V30.5077L84.557 30.4205C85.8978 30.4205 87.1953 30.1882 88.392 29.7526C92.7459 28.1699 95.8601 23.9734 95.8601 19.051C95.8601 12.7781 90.7996 7.68137 84.5714 7.68137H75.4309V52.9855H67.8042V15.4789L83.1008 0H84.5714C95.0094 0 103.487 8.5526 103.487 19.051C103.487 27.0953 98.5128 33.9781 91.5061 36.7805L104.626 52.9855H94.7644L81.6015 36.6934Z" fill="black"/>
<path d="M178.701 0L159.397 33.1649V52.9855H151.77V33.3537L132.264 0H141.13L155.547 24.6414L169.835 0H178.701Z" fill="black"/>
<path d="M262.393 52.9855L232.924 11.8633L232.881 53L225.254 52.9855L225.312 0H233.775L263.345 41.1367L263.373 0L271 0.0145205L270.957 53L262.393 52.9855Z" fill="black"/>
<path d="M142.485 52.9855L113.017 11.8633L112.973 53L105.347 52.9855L105.404 0H113.882L151.9 52.9855H142.485Z" fill="black"/>
<path d="M215.84 52.9855L186.371 11.8633L186.328 53L178.701 52.9855L178.759 0H187.222L225.254 52.9855H215.84Z" fill="black"/>
<path d="M34.0967 0.246849L26.5132 7.88466H44.4626V45.0427H7.58344V26.9501L0 34.5734V52.6515H52.0461V0.246849H34.0967Z" fill="black"/>
<path d="M23.3847 0.246849L15.8012 7.87014H7.58344V16.1614L0 23.7847V0.246849H23.3847Z" fill="black"/>
</g>
<defs>
<clipPath id="clip0_437_1972">
<rect width="271" height="53" fill="white"/>
</clipPath>
</defs>
</svg>
