<svg width="24" height="26" viewBox="0 0 24 26" fill="none" xmlns="http://www.w3.org/2000/svg">
<g clip-path="url(#clip0_503_442)">
<path d="M17.8747 3.93848H0.736084V25.2597H17.8747V3.93848Z" fill="white" stroke="#B5B5B5" stroke-miterlimit="10"/>
<path d="M12.9274 5.5375H6.03662V2.78351C6.03662 1.65823 6.9495 0.740234 8.06852 0.740234H10.8955C12.0145 0.740234 12.9274 1.65823 12.9274 2.78351V5.5375Z" fill="white" stroke="#B5B5B5" stroke-miterlimit="10"/>
<path d="M14.5176 9.50537H4.26978V10.986H14.5176V9.50537Z" fill="#B5B5B5"/>
<path d="M11.6906 14.3916H4.26978V15.8722H11.6906V14.3916Z" fill="#B5B5B5"/>
<path d="M10.2771 19.2778H4.26978V20.7585H10.2771V19.2778Z" fill="#B5B5B5"/>
<path d="M17.8748 24.016C20.851 24.016 23.2638 21.5898 23.2638 18.5969C23.2638 15.604 20.851 13.1777 17.8748 13.1777C14.8986 13.1777 12.4858 15.604 12.4858 18.5969C12.4858 21.5898 14.8986 24.016 17.8748 24.016Z" fill="white" stroke="#B5B5B5" stroke-miterlimit="10"/>
<path d="M17.8746 19.5297C18.3869 19.5297 18.8022 19.112 18.8022 18.5969C18.8022 18.0817 18.3869 17.6641 17.8746 17.6641C17.3623 17.6641 16.947 18.0817 16.947 18.5969C16.947 19.112 17.3623 19.5297 17.8746 19.5297Z" fill="white" stroke="#B5B5B5" stroke-miterlimit="10"/>
</g>
<defs>
<clipPath id="clip0_503_442">
<rect width="24" height="26" fill="white"/>
</clipPath>
</defs>
</svg>
