<svg width="25" height="25" viewBox="0 0 25 25" fill="none" xmlns="http://www.w3.org/2000/svg">
<g id="Group">
<path id="Vector" d="M12.5 24C18.8513 24 24 18.8513 24 12.5C24 6.14873 18.8513 1 12.5 1C6.14873 1 1 6.14873 1 12.5C1 18.8513 6.14873 24 12.5 24Z" stroke="#5B6271" stroke-width="1.1888" stroke-miterlimit="10"/>
<g id="Group_2">
<g id="Group_3">
<path id="Vector_2" d="M15.1441 6.44688C14.1804 6.32747 13.3268 6.32747 12.6017 6.32747C12.1152 6.32747 11.7572 6.44688 11.3901 6.56628C11.023 6.8051 10.7843 7.05311 10.5457 7.29192C10.307 7.53074 10.1785 7.89815 10.1785 8.25638C10.1785 8.61461 10.2978 8.86261 10.4172 9.22084C10.5365 9.57906 10.9036 9.82707 11.1423 10.1853C11.5094 10.5527 11.9867 11.0303 12.7118 11.6366C13.1983 12.004 13.4369 12.4816 13.6756 12.849C13.9142 13.2164 13.9142 13.6941 13.9142 14.3003C13.9142 14.7871 13.9142 15.2648 13.9142 15.5128C13.9142 15.7608 13.9142 16.119 13.9142 16.7252L12.464 16.8446L12.3447 14.9065C12.3447 14.5391 12.2253 14.3003 12.106 14.0615C11.9867 13.8227 11.8674 13.5747 11.5002 13.3359C10.6558 12.6102 10.05 12.004 9.68288 11.5172C9.31574 11.0303 8.95777 10.5527 8.83845 10.1853C8.73749 9.83625 8.61816 9.34943 8.61816 8.7432C8.61816 8.01756 8.85681 7.29192 9.22395 6.56628C9.59109 5.84064 10.0684 5.35382 10.7935 4.867C11.3993 4.49959 12.2437 4.26077 12.9688 4.26077C13.336 4.26077 13.9326 4.26077 14.419 4.38018C15.0248 4.49959 15.6306 4.49959 16.2364 4.619L15.6306 6.5571L15.1441 6.44688ZM14.419 19.0307C14.7862 19.3982 14.9055 19.7564 14.9055 20.2432C14.9055 20.73 14.7862 21.0883 14.419 21.4557C14.0519 21.8231 13.6939 21.9425 13.2075 21.9425C12.721 21.9425 12.363 21.8231 11.9959 21.4557C11.6287 21.0883 11.5094 20.73 11.5094 20.2432C11.5094 19.7564 11.6287 19.3982 11.9959 19.0307C12.363 18.6633 12.721 18.5439 13.2075 18.5439C13.6939 18.5439 14.0611 18.6725 14.419 19.0307Z" fill="#5B6271"/>
</g>
</g>
</g>
</svg>
