<svg width="125" height="25" viewBox="0 0 125 25" fill="none" xmlns="http://www.w3.org/2000/svg">
<g id="Frame" clip-path="url(#clip0_116_111)">
<g id="Group">
<g id="Group_2">
<g id="Group_3">
<path id="Vector" d="M37.6324 16.82V13.99L39.0014 13.95C39.621 13.95 40.2205 13.84 40.7701 13.64C42.7787 12.91 44.2076 10.99 44.2076 8.74C44.2076 5.87 41.8693 3.53 39.0014 3.53H34.7845V24.29H31.2671V7.09L38.3219 0H39.0014C43.8079 0 47.725 3.92 47.725 8.73C47.725 12.41 45.4367 15.57 42.1991 16.85L48.2446 24.28H43.698L37.6324 16.82Z" fill="black"/>
</g>
<g id="Group_4">
<path id="Vector_2" d="M82.4197 0L73.5162 15.2V24.28H69.9988V15.29L60.9954 0H65.0924L71.7375 11.29L78.3327 0H82.4197Z" fill="black"/>
</g>
<g id="Group_5">
<path id="Vector_3" d="M121.011 24.28L107.421 5.44L107.401 24.29L103.884 24.28L103.914 0H107.821L121.451 18.85L121.461 0H124.988L124.968 24.29L121.011 24.28Z" fill="black"/>
</g>
<g id="Group_6">
<path id="Vector_4" d="M65.7118 24.28L52.1218 5.44L52.1018 24.29L48.5844 24.28L48.6143 0H52.5215L70.0586 24.28H65.7118Z" fill="black"/>
</g>
<g id="Group_7">
<path id="Vector_5" d="M99.5471 24.28L85.9571 5.44L85.9371 24.29L82.4197 24.28L82.4397 0H86.3468L103.884 24.28H99.5471Z" fill="black"/>
</g>
</g>
<g id="Group_8">
<path id="Vector_6" d="M15.7285 0.109985L12.231 3.60999H20.505V20.64H3.49744V12.36L0 15.85V24.13H24.0024V0.109985H15.7285Z" fill="black"/>
<path id="Vector_7" d="M10.7821 0.109985L7.28466 3.60999H3.49744V7.39999L0 10.9V0.109985H10.7821Z" fill="#FFCB05"/>
</g>
</g>
</g>
<defs>
<clipPath id="clip0_116_111">
<rect width="124.988" height="24.29" fill="white"/>
</clipPath>
</defs>
</svg>
