<svg width="39" height="26" viewBox="0 0 39 26" fill="none" xmlns="http://www.w3.org/2000/svg">
<path d="M19.5 25.2082C29.8346 25.2082 38.2125 22.4751 38.2125 19.1036C38.2125 15.7321 29.8346 12.999 19.5 12.999C9.16544 12.999 0.787598 15.7321 0.787598 19.1036C0.787598 22.4751 9.16544 25.2082 19.5 25.2082Z" fill="#FFCB05"/>
<path d="M19.5 25.9998C10.0473 25.9998 0 23.5829 0 19.1034C0 14.6239 10.0473 12.207 19.5 12.207C28.9527 12.207 39 14.6239 39 19.1034C39 23.5829 28.9527 25.9998 19.5 25.9998ZM19.5 13.7906C14.5817 13.7906 9.96855 14.4121 6.51116 15.5404C3.41998 16.548 1.57512 17.8801 1.57512 19.1034C1.57512 20.3267 3.41998 21.6589 6.51116 22.6664C9.96855 23.7947 14.5817 24.4162 19.5 24.4162C24.4183 24.4162 29.0315 23.7947 32.4888 22.6664C35.58 21.6589 37.4249 20.3267 37.4249 19.1034C37.4249 17.8801 35.58 16.548 32.4888 15.5404C29.0315 14.4121 24.4183 13.7906 19.5 13.7906Z" fill="white"/>
<path d="M19.5 19.1037C29.8346 19.1037 38.2125 16.3706 38.2125 12.9991C38.2125 9.62766 29.8346 6.89453 19.5 6.89453C9.16544 6.89453 0.787598 9.62766 0.787598 12.9991C0.787598 16.3706 9.16544 19.1037 19.5 19.1037Z" fill="#FFCB05"/>
<path d="M19.5 19.8953C10.0473 19.8953 0 17.4784 0 12.9989C0 8.51944 10.0473 6.10254 19.5 6.10254C28.9527 6.10254 39 8.51944 39 12.9989C39 17.4784 28.9527 19.8953 19.5 19.8953ZM19.5 7.68807C14.5817 7.68807 9.96855 8.30962 6.51116 9.4379C3.41998 10.4454 1.57512 11.7776 1.57512 12.9989C1.57512 14.2202 3.41998 15.5544 6.51116 16.5619C9.96855 17.6902 14.5817 18.3118 19.5 18.3118C24.4183 18.3118 29.0315 17.6902 32.4888 16.5619C35.58 15.5544 37.4249 14.2222 37.4249 12.9989C37.4249 11.7756 35.58 10.4435 32.4888 9.43592C29.0315 8.30764 24.4183 7.68807 19.5 7.68807Z" fill="white"/>
<path d="M19.5 13.0012C29.8346 13.0012 38.2125 10.2681 38.2125 6.8966C38.2125 3.52512 29.8346 0.791992 19.5 0.791992C9.16544 0.791992 0.787598 3.52512 0.787598 6.8966C0.787598 10.2681 9.16544 13.0012 19.5 13.0012Z" fill="#FFCB05"/>
<path d="M19.5 13.7908C10.0473 13.7908 0 11.3739 0 6.89638C0 2.41888 10.0473 0 19.5 0C28.9527 0 39 2.4169 39 6.89638C39 11.3759 28.9527 13.7908 19.5 13.7908ZM19.5 1.58356C14.5817 1.58356 9.96855 2.2051 6.51116 3.33338C3.41998 4.34092 1.57512 5.67309 1.57512 6.89638C1.57512 8.11968 3.41998 9.45185 6.51116 10.4594C9.96855 11.5877 14.5817 12.2092 19.5 12.2092C24.4183 12.2092 29.0315 11.5877 32.4888 10.4594C35.58 9.45185 37.4249 8.11968 37.4249 6.89638C37.4249 5.67309 35.58 4.34092 32.4888 3.33338C29.0315 2.2051 24.4183 1.58356 19.5 1.58356Z" fill="white"/>
</svg>
