<svg width="26" height="26" viewBox="0 0 26 26" fill="none" xmlns="http://www.w3.org/2000/svg">
<path id="Vector" d="M1 15.5531V10.4469H4.70125C4.82721 9.93339 5.08882 9.42955 5.34074 8.91603L2.65684 6.23214L6.23214 2.65684L8.91603 5.34074C9.42955 5.08882 9.93339 4.82721 10.4469 4.70125V1H15.5531V4.70125C16.0666 4.82721 16.5704 5.08882 17.084 5.34074L19.7679 2.65684L23.3432 6.23214L20.6593 8.91603C20.9112 9.42955 21.1728 9.93339 21.2987 10.4469H25V15.5531H21.2987C21.1728 16.0666 20.9112 16.5704 20.6593 17.084L23.3432 19.7679L19.7679 23.3432L17.084 20.6593C16.5704 20.9112 16.0666 21.1728 15.5531 21.2987V25H10.4469V21.2987C9.93339 21.1728 9.42955 20.9112 8.91603 20.6593L6.23214 23.3432L2.65684 19.7679L5.34074 17.084C5.08882 16.5704 4.82721 16.0666 4.70125 15.5531H1ZM8.27655 13.0048C8.27655 13.3924 8.27655 13.7703 8.4025 14.0222C8.52846 14.5357 8.79007 15.0396 9.04199 15.5531C9.42955 16.1926 9.93339 16.7061 10.5729 17.084C10.9604 17.3359 11.5902 17.5975 12.1038 17.7235C12.4913 17.8494 12.7432 17.8494 13.1211 17.8494C13.499 17.8494 13.8866 17.8494 14.1385 17.7235C14.652 17.5975 15.1558 17.3359 15.6694 17.084C16.3088 16.6964 16.8224 16.1926 17.2002 15.5531C17.4522 15.0396 17.7138 14.5357 17.8397 14.0222C17.9657 13.6346 17.9657 13.3827 17.9657 13.0048C17.9657 12.627 17.9657 12.2394 17.8397 11.9875C17.7138 11.474 17.4522 10.9701 17.2002 10.4566C16.8127 9.81712 16.3088 9.30359 15.6694 8.92572C15.2818 8.6738 14.652 8.41219 14.1385 8.28623C13.7703 8.15059 13.5087 8.15059 13.1308 8.15059C12.7529 8.15059 12.3654 8.15059 12.1134 8.27655C11.5999 8.4025 11.0961 8.66411 10.5826 8.91603C9.94308 9.30359 9.42955 9.80743 9.05168 10.4469C8.79976 10.8345 8.53815 11.4643 8.41219 11.9778C8.27655 12.2394 8.27655 12.6173 8.27655 13.0048Z" stroke="#5B6271" stroke-width="1.2367" stroke-miterlimit="10"/>
</svg>
