<svg width="27" height="27" viewBox="0 0 27 27" fill="none" xmlns="http://www.w3.org/2000/svg">
<path id="Vector" d="M13.5 0C20.9305 0 27 6.0695 27 13.5C27 20.9305 20.9305 27 13.5 27C6.0695 27 0 20.9305 0 13.5C0 6.0695 6.0695 0 13.5 0ZM14.043 2.71512C11.2317 2.71512 9.05957 4.97658 9.05957 7.69857C9.05957 10.4206 11.321 12.682 14.043 12.682C16.765 12.682 19.0265 10.4206 19.0265 7.69857C19.1158 4.98345 16.8475 2.71512 14.043 2.71512ZM22.374 22.1059C22.374 17.3012 18.4766 13.5 13.7681 13.5H13.3144C8.50968 13.5 4.7085 17.3974 4.7085 22.1059H22.374Z" fill="black"/>
</svg>
