<svg width="30" height="31" viewBox="0 0 30 31" fill="none" xmlns="http://www.w3.org/2000/svg">
<circle cx="15" cy="15" r="14.5" fill="#D9D9D9" stroke="#636363"/>
<circle cx="15" cy="15" r="10.5" fill="#D9D9D9" stroke="#636363"/>
<path d="M11.3792 18.9823C11.3895 18.4374 11.3947 16.952 11.3947 14.5259C11.3947 12.1101 11.3895 10.6298 11.3792 10.0849L10.9475 9.79196V9.06722H14.6945C16.4833 9.06722 17.8711 9.52468 18.8579 10.4396C19.8448 11.3545 20.3383 12.6961 20.3383 14.4642C20.3383 16.2632 19.8397 17.6356 18.8425 18.5814C17.8556 19.5271 16.4987 20 14.7716 20H10.9475V19.2753L11.3792 18.9823ZM14.5403 18.4734C15.445 18.4734 16.1543 18.1445 16.6683 17.4865C17.1823 16.8286 17.4393 15.8315 17.4393 14.4951C17.4393 13.1689 17.1823 12.1872 16.6683 11.5498C16.1543 10.9022 15.4398 10.5784 14.5249 10.5784H14.2165C14.2062 11.8942 14.196 13.2101 14.1857 14.5259C14.196 15.8417 14.2062 17.1576 14.2165 18.4734H14.5403Z" fill="#636363"/>
</svg>
