<svg width="257" height="236" viewBox="0 0 257 236" fill="none" xmlns="http://www.w3.org/2000/svg">
<path d="M134.994 0.887923C141.564 0.592152 148.079 0.638161 154.447 1.01806C184.383 2.80583 230.102 8.79749 243.996 40.3727C250.476 55.0994 245.396 71.9032 247.862 87.3148C253.42 122.047 268.146 158.723 241.788 189.127C226.242 207.06 192.634 207.325 171.007 208.406C142.445 209.831 113.856 207.74 85.4183 205.176C63.6144 203.211 34.6336 202.187 16.7937 187.557C1.46689 174.988 -2.13471 153.348 6.52855 135.495C10.8667 126.555 19.2976 120.377 23.4664 111.427C27.9267 101.855 25.6395 92.4757 25.2337 82.4234C24.1899 56.6019 41.217 30.7713 63.2205 19.2257C84.6581 7.97985 110.221 2.00265 134.994 0.887923Z" fill="#B7DBBF"/>
<path d="M96.3341 229.888C96.3341 233.208 76.2226 235.899 51.4146 235.899C26.6065 235.899 6.49512 233.208 6.49512 229.888C6.49512 226.569 26.6065 223.878 51.4146 223.878C76.2226 223.878 96.3341 226.569 96.3341 229.888Z" fill="#75BE82"/>
<path d="M239.958 229.888C239.958 233.208 219.847 235.899 195.039 235.899C170.231 235.899 150.119 233.208 150.119 229.888C150.119 226.569 170.231 223.878 195.039 223.878C219.845 223.878 239.958 226.569 239.958 229.888Z" fill="#75BE82"/>
<path d="M230.511 22.0908H135.241V216.347H230.511V22.0908Z" fill="#B7DBBF"/>
<path d="M143.916 216.347V31.8491H221.835V216.347" stroke="#34944D" stroke-width="16" stroke-miterlimit="10"/>
<path d="M156.137 216.347V137.872H209.614V216.347" stroke="#34944D" stroke-width="16" stroke-miterlimit="10"/>
<path d="M210.12 43.1211H156.643V115.628H210.12V43.1211Z" fill="#75BE82"/>
<path d="M215.748 128.059C215.748 130.913 213.438 133.225 210.588 133.225C207.737 133.225 205.428 130.911 205.428 128.059C205.428 125.205 207.737 122.893 210.588 122.893C213.438 122.893 215.748 125.205 215.748 128.059Z" fill="#75BE82"/>
<path d="M71.2601 115.335C73.1233 114.742 70.9621 109.3 70.5734 107.759C67.4878 95.5626 66.0369 88.4286 63.7444 86.2859C63.4582 85.6944 55.1271 80.9568 55.3674 89.3251C55.3031 92.1527 63.7274 111.854 65.6706 115.935C65.6706 115.935 67.3788 116.873 71.2601 115.335Z" fill="#F7B6A0"/>
<path d="M65.6719 115.933C70.1886 123.22 76.7629 123.024 89.5648 127.003L90.3237 124.505C88.8098 122.708 72.447 114.822 71.6947 111.637C71.6934 111.637 65.727 109.597 65.6719 115.933Z" fill="#F7B6A0"/>
<path d="M93.6328 131.981C93.3873 132.26 92.9763 131.815 92.778 131.64C91.1998 130.239 87.5286 126.487 88.3099 124.74C89.4272 122.241 96.1275 122.924 97.1005 123.476C97.1399 124.342 94.7042 124.265 93.3978 124.576C95.1625 126.36 99.439 127.86 99.9589 128.942C99.8289 130.2 96.8064 127.858 94.6662 127.497C98.1338 129.757 100.002 131.045 99.6963 131.452C99.3825 132.355 95.2058 129.833 93.8324 128.691C95.3358 130.189 96.5924 131.228 97.1924 131.928C97.5443 132.338 97.2344 132.681 97.2344 132.681C96.4007 132.927 93.3426 130.042 92.3815 129.222C92.547 129.887 93.1746 130.451 93.4897 131.046C93.6013 131.257 93.8298 131.676 93.6696 131.93C93.6578 131.948 93.646 131.965 93.6328 131.981Z" fill="#F7B6A0"/>
<path d="M81.2642 118.912C85.1481 121.181 89.6465 123.703 90.3227 124.505L89.5638 127.003C85.5013 125.741 82.0691 124.899 79.1279 124.104C79.1266 124.103 79.317 122.114 81.2642 118.912Z" fill="white"/>
<path d="M93.6328 131.979C93.3873 132.258 92.9763 131.814 92.778 131.639C91.1998 130.238 87.5286 126.486 88.3099 124.739C89.4272 122.24 96.1275 122.922 97.1005 123.474C97.1399 124.341 94.7042 124.263 93.3978 124.575C95.1625 126.358 99.439 127.858 99.9589 128.94C99.8289 130.198 96.8064 127.857 94.6662 127.495C98.1338 129.755 100.002 131.043 99.6963 131.451C99.3825 132.354 95.2058 129.831 93.8324 128.689C95.3358 130.188 96.5924 131.226 97.1924 131.927C97.5443 132.337 97.2344 132.68 97.2344 132.68C96.4007 132.926 93.3426 130.04 92.3815 129.22C92.547 129.885 93.1746 130.449 93.4897 131.045C93.6013 131.255 93.8298 131.674 93.6696 131.928C93.6578 131.947 93.646 131.964 93.6328 131.979Z" fill="white"/>
<path d="M53.0898 88.6879L56.8122 110.743C60.1788 109.706 67.8061 108.735 71.2606 106.922C68.2039 96.1663 65.6921 88.5407 65.6921 88.5407C65.6921 88.5407 63.9878 83.2917 58.0123 84.1107C58.0123 84.112 53.2737 84.3696 53.0898 88.6879Z" fill="#226335"/>
<path d="M38.6478 147.395C38.5178 147.395 38.3879 147.392 38.2552 147.389C38.1266 147.384 38.0255 147.275 38.0294 147.146C38.0333 147.017 38.1436 146.91 38.271 146.92C43.2197 147.094 47.6052 143.885 48.9576 139.125C48.9917 139.003 49.1217 138.928 49.2465 138.964C49.3699 138.999 49.4434 139.13 49.4067 139.255C48.0319 144.096 43.6412 147.395 38.6478 147.395Z" fill="#3A4351"/>
<path d="M34.3255 141.752C34.076 140.206 34.4673 137.561 34.6026 136.885L35.9195 125.814H65.3638L68.4507 137.775L69.5051 146.438L34.3255 141.752Z" fill="#34944D"/>
<path d="M73.2347 173.65C73.2347 173.65 75.216 182.068 57.8724 171.962C57.8724 171.962 49.7751 153.389 47.9736 140.1L68.4606 138.215L68.4514 137.775C68.4514 137.775 73.6588 163.068 73.2347 173.65Z" fill="#34944D"/>
<path d="M66.083 227.898L70.7429 227.928L70.8112 217.308L66.1513 217.279L66.083 227.898Z" fill="#F7B6A0"/>
<path d="M64.9593 229.37L81.4954 229.48C81.2932 227.547 79.795 227.105 79.795 227.105L75.038 225.626L70.751 223.02L69.1203 223.791C69.1203 223.791 68.7933 223.729 69.1163 224.53C69.1163 224.53 67.0575 224.943 66.0951 224.51L64.958 229.554" fill="#282D3C"/>
<path d="M64.9541 230.139L81.4902 230.247L81.4954 229.481L64.9594 229.37L64.9541 230.139Z" fill="#151621"/>
<path d="M76.4094 226.046C75.8199 225.995 75.4693 226.834 75.3879 227.306C75.4391 227.281 75.4916 227.253 75.5428 227.228C75.5087 227.229 75.4758 227.232 75.4404 227.235C75.5021 227.259 75.5638 227.281 75.6242 227.304C75.6124 227.258 75.5888 227.246 75.552 227.217C75.5139 227.189 75.443 227.189 75.4063 227.217C75.3682 227.246 75.3445 227.258 75.334 227.304C75.3222 227.346 75.4154 227.369 75.4404 227.373C75.4758 227.376 75.5087 227.378 75.5428 227.378C75.5966 227.38 75.6846 227.366 75.6977 227.303C75.745 227.077 75.812 226.868 75.917 226.663C76.0168 226.469 76.2124 226.184 76.4317 226.12C76.4987 226.103 76.4672 226.048 76.4094 226.046Z" fill="white"/>
<path d="M74.688 225.481C74.491 225.902 73.9395 226.286 73.9317 226.778C73.929 226.871 74.1549 226.858 74.1903 226.796C74.3111 226.586 74.3965 226.362 74.5304 226.155C74.6617 225.951 74.8009 225.742 74.8744 225.508C74.8954 225.435 74.7142 225.425 74.688 225.481Z" fill="white"/>
<path d="M73.55 224.884C73.1285 225.273 72.8225 225.691 72.6742 226.253C72.7858 226.246 72.8948 226.24 73.0064 226.23C72.9683 226.17 72.9552 226.158 72.9066 226.107C72.8816 226.08 72.8068 226.08 72.7805 226.107C72.7293 226.158 72.7188 226.169 72.6807 226.23C72.6203 226.329 72.9749 226.393 73.0077 226.274C73.1429 225.787 73.3635 225.305 73.701 224.925C73.7535 224.865 73.588 224.851 73.55 224.884Z" fill="white"/>
<path d="M72.1125 223.919C71.9431 224.133 71.8066 224.373 71.649 224.597C71.5742 224.704 71.5098 224.813 71.4586 224.93C71.4455 224.964 71.435 224.996 71.4258 225.03C71.4192 225.056 71.4127 225.084 71.4048 225.111C71.3589 225.223 71.414 225.256 71.5716 225.205C71.5453 225.167 71.4521 225.164 71.4271 225.205C71.414 225.223 71.3996 225.24 71.3877 225.26C71.3812 225.272 71.3812 225.284 71.3877 225.295C71.3904 225.298 71.3917 225.301 71.3943 225.302C71.4521 225.372 71.7317 225.414 71.7396 225.28C71.7554 225.039 71.8525 224.841 71.9786 224.64C72.1191 224.416 72.2057 224.179 72.32 223.943C72.3567 223.869 72.1493 223.871 72.1125 223.919Z" fill="white"/>
<path d="M57.6768 171.51C60.3474 162.991 71.5002 158.189 71.5002 158.189C73.471 164.808 73.2346 173.651 73.2346 173.651C73.2346 173.651 74.2036 214.734 72.2157 223.932C72.2157 223.932 68.6575 225.089 64.9574 223.932C64.9587 223.932 59.0804 186.869 57.6768 171.51Z" fill="#34944D"/>
<path d="M36.4224 170.518C49.1888 179.688 51.9869 173.348 51.9869 173.348C56.1924 160.841 55.0252 135.297 55.0252 135.297C55.0252 135.297 36.1651 129.098 34.3242 141.75C34.3255 141.75 35.7094 150.302 36.4224 170.518Z" fill="#34944D"/>
<path d="M2.47461 202.037L3.85327 206.493L13.9871 203.35L12.6071 198.894L2.47461 202.037Z" fill="#F7B6A0"/>
<path d="M0.732248 201.409L5.62453 217.225C7.40235 216.449 7.36953 214.887 7.36953 214.887L7.34327 209.898L8.53023 205.023L7.30256 203.698C7.30256 203.698 7.26317 203.368 6.59748 203.914C6.59748 203.914 5.58252 202.075 5.70463 201.026L0.557617 201.465" fill="#282D3C"/>
<path d="M0 201.637L4.89097 217.453L5.62495 217.226L0.732661 201.409L0 201.637Z" fill="#151621"/>
<path d="M7.39873 211.325C7.37379 211.063 7.02321 210.95 6.80656 210.879C6.50457 210.781 6.16713 210.775 5.85463 210.815C5.91765 210.832 5.98068 210.85 6.04633 210.867C6.03976 210.845 6.02926 210.825 6.01613 210.807C6.00431 210.829 5.99118 210.853 5.97937 210.877C5.98068 210.874 5.98331 210.874 5.98593 210.873C6.00037 210.865 6.03189 210.845 6.02663 210.823C6.02532 210.816 6.02401 210.811 6.0227 210.806C6.01744 210.783 6.00037 210.777 5.98068 210.769C5.93341 210.756 5.88614 210.748 5.83625 210.756C5.80342 210.762 5.72595 210.778 5.72858 210.824C5.73121 210.855 5.73646 210.879 5.74565 210.907C5.76403 210.969 5.89271 210.966 5.93604 210.962C6.37064 210.912 6.92736 210.976 7.22804 211.337C7.25693 211.366 7.40661 211.389 7.39873 211.325Z" fill="white"/>
<path d="M7.41525 209.568C6.90186 209.514 6.44887 209.181 5.91579 209.254C5.80024 209.271 5.79499 209.367 5.91579 209.378C6.41473 209.428 6.89004 209.645 7.3903 209.66C7.47696 209.664 7.52554 209.58 7.41525 209.568Z" fill="white"/>
<path d="M7.66105 208.301C7.16211 208.023 6.65528 207.887 6.0815 207.91C6.13008 207.95 6.17866 207.994 6.22724 208.034C6.25481 208.004 6.26794 207.994 6.27714 207.954C6.28239 207.931 6.23643 207.923 6.2233 207.92C6.17341 207.911 6.1327 207.91 6.08281 207.91C5.88061 207.912 5.87929 208.084 6.08281 208.077C6.58701 208.059 7.0807 208.15 7.54025 208.363C7.5849 208.384 7.74902 208.351 7.66105 208.301Z" fill="white"/>
<path d="M8.15935 206.647C7.87837 206.554 7.58294 206.492 7.29802 206.41C7.04198 206.339 6.79119 206.339 6.53515 206.402C6.61525 206.412 6.69534 206.423 6.77544 206.431C6.72685 206.397 6.71372 206.388 6.73998 206.405C6.76493 206.373 6.6809 206.359 6.66646 206.359C6.57192 206.363 6.51021 206.371 6.45375 206.452C6.38153 206.561 6.67565 206.559 6.71241 206.55C6.9842 206.486 7.22843 206.592 7.48709 206.651C7.68141 206.693 7.88231 206.703 8.07794 206.741C8.14753 206.757 8.28277 206.688 8.15935 206.647Z" fill="white"/>
<path d="M10.5987 206.693C49.1277 183.423 52.0492 173.631 52.0492 173.631C52.0492 173.631 54.7238 167.344 48.655 163.906C48.655 163.906 41.6173 158.146 35.7101 165.371C35.7101 165.371 27.0586 180.625 5.625 198.895C5.625 198.894 7.54988 206.084 10.5987 206.693Z" fill="#34944D"/>
<path d="M48.1883 179.133C48.1266 179.133 48.0662 179.11 48.0203 179.063C47.9297 178.974 47.931 178.824 48.0229 178.733C49.7692 177.011 52.4097 174.404 53.2369 167.212C53.3629 166.112 53.4955 165.012 53.6268 163.913C54.286 158.406 54.9661 152.712 54.9727 147.064C54.9779 142.874 54.9267 139.261 54.6615 135.257C54.6536 135.13 54.7508 135.018 54.8794 135.009C55.0055 135.006 55.121 135.098 55.1289 135.228C55.3955 139.243 55.4467 142.865 55.4414 147.066C55.4348 152.741 54.7521 158.448 54.0916 163.969C53.9603 165.067 53.829 166.166 53.7017 167.266C52.8561 174.621 50.0357 177.404 48.3511 179.066C48.3065 179.112 48.2474 179.133 48.1883 179.133Z" fill="#3A4351"/>
<path d="M45.2292 75.8882C46.0604 76.5731 47.6215 73.3301 48.0706 72.4244C49.2628 70.0201 48.9083 69.0014 48.7113 66.371C48.5406 64.0968 49.1013 55.9546 44.0528 57.5504C39.8406 58.8821 39.6069 65.0472 40.9212 68.6359C40.9199 68.6359 42.7463 73.8467 45.2292 75.8882Z" fill="#34944D"/>
<path d="M53.1289 71.2025L44.4756 71.5806L44.9451 82.3503L53.5984 81.9722L53.1289 71.2025Z" fill="#F7B6A0"/>
<path d="M47.3826 77.4312C46.4333 75.6461 45.8358 73.8241 45.8792 71.5237L53.1322 71.2056L53.5406 80.569C51.2494 80.3192 48.3936 79.3347 47.3826 77.4312Z" fill="#F2937C"/>
<path d="M57.1107 83.3396L53.3292 80.7671L45.1912 81.1299L40.9199 84.06L57.1107 83.3396Z" fill="#F7B6A0"/>
<path d="M65.4694 110.485L65.4878 90.8669C65.3919 86.1845 61.7063 84.0589 61.7063 84.0589L53.6037 80.9526L51.2954 83.5975L44.9024 81.1945L34.5624 85.1381C34.5624 85.1381 31.2904 87.361 32.0808 91.0772L33.0629 107.199L31.9561 143.872C59.4138 149.493 69.4925 141.57 69.4925 141.57C69.7327 136.021 66.9544 127.381 66.7666 124.418C66.4489 119.388 65.7871 115.514 65.4694 110.485Z" fill="#226335"/>
<path d="M52.7208 58.9053C50.8905 58.4623 51.4774 59.9227 52.0013 61.6658L54.5578 62.7976C56.7111 63.7336 55.5071 65.0586 55.7867 66.9253C55.9023 67.6903 56.1951 68.437 56.3513 69.1823C56.8385 68.3976 57.6368 64.6669 57.6591 63.7717C57.6591 63.7717 58.2972 59.903 55.6554 59.1025C55.6554 59.1012 53.8527 58.7515 52.7208 58.9053Z" fill="#34944D"/>
<path d="M45.0698 72.2204C45.6528 74.1488 46.5364 75.7657 48.1987 76.9948C49.8268 78.1989 51.5561 78.8878 53.3299 77.66C54.7401 76.6806 55.7301 75.1624 56.3446 73.602C57.7627 70.0067 57.353 64.8301 55.2627 61.6594C52.9676 58.1759 47.9361 58.4809 45.7066 61.9605C43.892 64.792 44.127 69.1076 45.0698 72.2204Z" fill="#F7B6A0"/>
<path d="M45.8427 69.7972C45.9478 70.4465 46.0909 70.8935 46.5045 71.3996C47.5956 72.7338 49.4863 71.3233 50.6641 71.1616C51.448 71.0512 52.7938 71.0276 53.4687 71.464C53.7405 71.6362 54.1541 71.9753 54.4797 72.0398C55.0456 72.1541 55.5892 72.2422 56.1131 71.882C56.4558 71.6454 56.7499 71.3733 57.006 71.0762C56.8681 71.9661 56.6514 72.8219 56.3455 73.6027C55.731 75.1631 54.741 76.6801 53.3308 77.6607C51.5569 78.8898 49.8277 78.1997 48.1996 76.9956C46.536 75.7665 45.6536 74.1496 45.0707 72.2212C44.7424 71.134 44.5021 69.8997 44.4023 68.6338C45.1009 68.6759 45.6957 68.8809 45.8427 69.7972Z" fill="#34944D"/>
<path d="M48.0684 69.8796C48.0606 70.1741 48.591 70.4239 49.2528 70.4423C49.9159 70.4607 50.4594 70.2372 50.466 69.9454C50.4752 69.6522 49.9434 69.3985 49.2817 69.3814C48.6199 69.363 48.0763 69.5878 48.0684 69.8796Z" fill="#F2937C"/>
<path d="M53.9542 70.3754C53.945 70.6685 54.4768 70.9183 55.1386 70.938C55.8003 70.9551 56.3439 70.7329 56.3518 70.4385C56.3597 70.1467 55.8305 69.8943 55.1674 69.8772C54.5044 69.8575 53.9608 70.0823 53.9542 70.3754Z" fill="#F2937C"/>
<path d="M52.5541 71.4064C52.2692 71.4064 51.9895 71.3604 51.7834 71.2841C51.6613 71.2381 51.6009 71.104 51.6455 70.9831C51.6915 70.8622 51.8254 70.7991 51.9475 70.8438C52.3808 71.0068 53.0951 70.9529 53.2671 70.7465C53.2868 70.7228 53.3314 70.6663 53.2343 70.5046C51.6337 67.8427 52.0618 67.1933 52.6881 66.7122C52.7485 66.6662 52.8076 66.6228 52.8522 66.5715C52.9375 66.4769 53.0859 66.4664 53.1831 66.5518C53.2802 66.6386 53.2894 66.7871 53.2028 66.8831C53.1397 66.9541 53.0583 67.0198 52.9717 67.0855C52.6106 67.3602 52.1169 67.7375 53.6361 70.2614C53.8698 70.6518 53.7306 70.92 53.6269 71.0462C53.4128 71.3039 52.9782 71.4064 52.5541 71.4064Z" fill="#F2937C"/>
<path d="M48.3853 66.8246C48.2947 66.8246 48.2054 66.7852 48.1463 66.709C48.0413 66.5775 48.0636 66.3856 48.1962 66.2804C48.9 65.7244 50.1775 65.5929 50.9601 66.2817C51.0861 66.3922 51.0993 66.5828 50.9877 66.7103C50.8761 66.8365 50.6857 66.8509 50.5583 66.7379C50.0265 66.2725 49.0707 66.3646 48.5717 66.7589C48.5179 66.8049 48.4522 66.8246 48.3853 66.8246Z" fill="#34944D"/>
<path d="M53.5112 66.8246C53.4206 66.8246 53.3326 66.7852 53.2722 66.709C53.1685 66.5775 53.1908 66.3856 53.3234 66.2804C54.0272 65.7244 55.3047 65.5929 56.0873 66.2817C56.2147 66.3922 56.2265 66.5828 56.1162 66.7103C56.0059 66.8365 55.8129 66.8509 55.6855 66.7379C55.1551 66.2725 54.1992 66.3646 53.7002 66.7589C53.6438 66.8049 53.5768 66.8246 53.5112 66.8246Z" fill="#34944D"/>
<path d="M55.3626 57.3444C57.1102 58.8246 58.2368 60.782 57.1863 62.2306C56.2489 63.5267 54.6286 63.9171 53.1081 63.9395C51.8476 63.9605 50.5832 63.7752 49.3542 63.5044C48.8566 63.3939 48.1738 63.0509 47.667 63.0587C45.8419 63.0863 45.9535 67.9751 45.7671 69.6814C45.2392 69.6393 45.1014 69.8509 44.9071 69.2528C44.7613 68.8046 44.6366 67.1561 44.3004 66.7999C43.4956 65.9468 42.6579 66.9156 42.4517 67.473C42.629 66.9931 42.5646 66.2728 42.6277 65.7667C42.776 64.5862 43.5153 62.6854 43.0885 61.6772C42.7314 60.8306 41.6022 60.5493 41.4473 59.5673C41.4473 59.5673 41.4236 56.9106 45.9194 56.8331C45.9194 56.8331 54.4566 56.5768 55.3626 57.3444Z" fill="#34944D"/>
<path d="M54.2683 68.256C54.242 68.653 54.4127 68.9908 54.6517 69.0053C54.8907 69.0211 55.106 68.7108 55.1323 68.3112C55.1572 67.9155 54.9852 67.5777 54.7462 67.5619C54.5086 67.5488 54.2932 67.8577 54.2683 68.256Z" fill="#3A4351"/>
<path d="M49.0954 67.9162C49.0692 68.3145 49.2412 68.6498 49.4801 68.6642C49.7191 68.68 49.9344 68.3698 49.9594 67.9728C49.9856 67.5758 49.815 67.2393 49.5747 67.2248C49.3357 67.2077 49.1217 67.5179 49.0954 67.9162Z" fill="#3A4351"/>
<path d="M52.4044 73.2438C52.3926 73.2438 52.3808 73.2438 52.3689 73.2412C51.6481 73.1295 51.2253 72.8902 51.0756 72.509C51.027 72.3907 51.0861 72.2527 51.2056 72.2053C51.3251 72.1567 51.463 72.2172 51.5102 72.3368C51.5667 72.4801 51.7741 72.672 52.4398 72.7772C52.5685 72.7969 52.6552 72.9178 52.6368 73.0453C52.6197 73.161 52.5186 73.2438 52.4044 73.2438Z" fill="#F2937C"/>
<path d="M68.2336 132.276C68.1325 132.276 68.0392 132.211 68.009 132.11C67.082 129.072 66.6028 126.266 66.4072 122.72C66.2745 120.312 66.0421 117.713 65.8163 115.199C65.5734 112.488 65.3226 109.687 65.1913 107.077C65.0534 104.362 65.1677 101.64 65.2767 99.0088C65.3449 97.3564 65.4171 95.6462 65.425 93.9714C65.425 93.8439 65.5301 93.7388 65.6587 93.7388C65.6587 93.7388 65.6587 93.7388 65.66 93.7388C65.7887 93.7388 65.8938 93.8452 65.8925 93.9741C65.8859 95.6554 65.8137 97.3708 65.7454 99.0298C65.6351 101.65 65.5222 104.359 65.6587 107.054C65.7887 109.653 66.0395 112.45 66.2811 115.155C66.5069 117.675 66.7407 120.278 66.8733 122.695C67.0676 126.199 67.5403 128.974 68.4555 131.972C68.4935 132.096 68.4226 132.227 68.2992 132.265C68.2782 132.273 68.2559 132.276 68.2336 132.276Z" fill="#3A4351"/>
<path d="M45.3532 141.349C41.7332 141.349 38.1552 140.848 35.6014 139.511C35.4872 139.452 35.4439 139.312 35.5029 139.196C35.5633 139.081 35.7038 139.038 35.8194 139.099C40.1011 141.339 47.6181 141.115 52.752 140.245C52.878 140.222 53.0001 140.309 53.0225 140.435C53.0435 140.563 52.9581 140.685 52.8308 140.706C50.5553 141.094 47.9424 141.349 45.3532 141.349Z" fill="#3A4351"/>
<path d="M43.6647 128.061C43.6253 128.061 43.5846 128.051 43.5479 128.028C43.4363 127.964 43.3982 127.82 43.4638 127.707C44.077 126.656 44.7059 125.525 45.3716 124.325C46.1345 122.951 46.9223 121.53 47.7114 120.197C47.9714 119.757 48.2708 119.263 48.5951 118.729C50.4372 115.694 53.2182 111.107 53.4952 108.36C53.5084 108.231 53.6239 108.141 53.7513 108.148C53.8786 108.16 53.9719 108.277 53.9601 108.406C53.6738 111.263 50.969 115.718 48.9942 118.974C48.6726 119.505 48.3732 119.998 48.1145 120.437C47.328 121.764 46.5415 123.184 45.78 124.554C45.1143 125.755 44.484 126.888 43.8669 127.945C43.8236 128.02 43.7448 128.061 43.6647 128.061Z" fill="#3A4351"/>
<path d="M47.8772 128.996C47.8456 128.996 47.8128 128.99 47.7826 128.975C47.6644 128.923 47.6119 128.785 47.6631 128.668C47.8719 128.2 48.2908 127.541 48.7345 126.843C49.2427 126.043 50.0935 124.704 50.0134 124.424C49.9451 124.315 49.9806 124.176 50.0909 124.108C50.2012 124.039 50.3469 124.076 50.4152 124.188C50.6673 124.591 50.2169 125.384 49.1298 127.094C48.6952 127.777 48.2842 128.423 48.0912 128.858C48.0531 128.945 47.9664 128.996 47.8772 128.996Z" fill="#3A4351"/>
<path d="M46.2158 117.263C48.1157 116.804 47.0101 110.968 46.5834 109.438C42.9122 96.2435 42.9096 89.425 40.7773 87.1219C40.5344 86.5094 32.5617 82.0873 32.2033 90.4503C31.9394 93.2661 38.293 114.939 41.2171 118.05C41.2158 118.05 42.236 118.521 46.2158 117.263Z" fill="#F7B6A0"/>
<path d="M33.2284 110.743L31.0685 95.6769C31.0685 95.6769 29.7843 91.122 32.4708 87.4781C32.4708 87.4781 37.7202 80.2955 43.9386 90.1703L47.707 106.068C47.707 106.068 40.4421 111.206 33.2284 110.743Z" fill="#226335"/>
<path d="M47.7067 106.303C47.6016 106.303 47.5058 106.232 47.4795 106.125C47.1053 104.628 46.8401 103.258 46.5841 101.932C46.4396 101.189 46.3004 100.47 46.1494 99.7762C45.8803 98.5326 45.535 97.2299 45.2001 95.9719C44.713 94.1408 44.2101 92.2465 43.9029 90.3957C43.8806 90.2682 43.9685 90.1485 44.0946 90.1262C44.2219 90.1052 44.3427 90.1919 44.3637 90.3207C44.6684 92.1479 45.1686 94.0317 45.6518 95.8536C45.9879 97.1169 46.3359 98.4235 46.6064 99.6789C46.7587 100.378 46.8979 101.099 47.0423 101.847C47.2983 103.166 47.5636 104.53 47.9325 106.014C47.964 106.14 47.8892 106.267 47.7618 106.298C47.7448 106.3 47.7251 106.303 47.7067 106.303Z" fill="#3A4351"/>
<path d="M42.3884 68.8026C42.4212 69.9133 43.0922 71.1424 44.1084 71.5591C45.4858 72.1231 45.9519 70.8598 45.8981 69.6452C45.8547 68.6672 45.3505 66.999 44.2292 66.7019C43.1696 66.4193 42.3608 67.8929 42.3884 68.8026Z" fill="#F7B6A0"/>
<path d="M44.4508 71.1091C44.4232 71.1091 44.3957 71.1065 44.3694 71.096C44.2473 71.05 44.1856 70.9172 44.2315 70.7937C44.6596 69.6474 44.5388 68.4577 43.9584 68.0844C43.8495 68.0147 43.8179 67.8701 43.8875 67.761C43.9584 67.6493 44.1029 67.6177 44.2119 67.6887C44.997 68.1922 45.19 69.5685 44.6727 70.9593C44.6346 71.0513 44.5454 71.1091 44.4508 71.1091Z" fill="#F2937C"/>
<path d="M44.6508 69.2382C44.6009 69.2382 44.5523 69.2224 44.5103 69.1908C44.295 69.0305 43.8341 69.0778 43.498 69.1895C43.3732 69.2303 43.2419 69.1632 43.1999 69.041C43.1605 68.9187 43.2262 68.7847 43.3483 68.7439C43.7986 68.5927 44.4144 68.5323 44.79 68.8149C44.8937 68.8924 44.916 69.0384 44.8372 69.1422C44.7926 69.2053 44.7217 69.2382 44.6508 69.2382Z" fill="#F2937C"/>
<path d="M51.2937 83.5978L50.4678 83.1311V92.6747H52.2246V82.0361L51.2937 83.5978Z" fill="#34944D"/>
<path d="M51.294 83.5978L44.8458 79.9526L42.0215 82.1545L49.0422 87.2851L51.294 83.5978Z" fill="#75BE82"/>
<path d="M51.2939 83.5978L53.5116 79.875L56.0812 81.902L54.2758 86.5686L51.2939 83.5978Z" fill="#75BE82"/>
<path d="M51.9545 87.3507C51.9545 87.6859 51.6827 87.9606 51.3465 87.9606C51.0104 87.9606 50.7373 87.6872 50.7373 87.3507C50.7373 87.0141 51.0104 86.7407 51.3465 86.7407C51.6827 86.7407 51.9545 87.0128 51.9545 87.3507Z" fill="#3A4351"/>
<path d="M51.9545 90.5129C51.9545 90.8494 51.6827 91.1229 51.3465 91.1229C51.0104 91.1229 50.7373 90.8508 50.7373 90.5129C50.7373 90.1764 51.0104 89.9043 51.3465 89.9043C51.6827 89.9056 51.9545 90.1764 51.9545 90.5129Z" fill="#3A4351"/>
<path d="M55.5704 98.992C55.6452 100.789 56.7074 100.318 58.1439 100.259C58.9619 100.226 61.3306 100.61 61.9674 100.147C62.6528 99.6493 62.1853 96.6811 62.1184 95.87C62.0514 95.0694 62.1381 94.1111 61.8886 93.3697C61.5656 92.4036 60.9971 92.6638 59.9388 92.744C58.8529 92.8242 56.4173 92.5324 55.573 93.3224C54.6132 94.2189 55.5179 97.7498 55.5704 98.992Z" fill="#34944D"/>
<path d="M35.404 110.989C35.2845 110.989 35.1769 110.985 35.081 110.977C33.059 110.797 32.9303 110.253 32.7911 108.4C32.6493 106.472 32.1963 103.938 31.7578 101.487C31.4321 99.6627 31.1249 97.942 30.9568 96.5433C30.9411 96.4145 31.033 96.2988 31.1604 96.283C31.2917 96.2672 31.4059 96.3593 31.4203 96.4868C31.5871 97.871 31.893 99.5864 32.2186 101.404C32.6585 103.867 33.1128 106.412 33.2572 108.364C33.3859 110.092 33.4056 110.356 35.1204 110.509C36.1997 110.606 39.3076 110.038 40.1834 109.498C40.2937 109.431 40.4368 109.465 40.5051 109.577C40.5733 109.687 40.5392 109.831 40.4289 109.898C39.5334 110.45 36.7709 110.989 35.404 110.989Z" fill="#3A4351"/>
<path d="M41.0352 64.006C41.3555 63.9679 55.3601 66.1409 61.6455 64.4175C61.6455 64.4175 67.1969 62.89 57.4426 60.9116L41.0352 64.006Z" fill="#226335"/>
<path d="M57.7721 60.9161C56.5234 57.7927 55.5373 56.9199 54.651 56.1535C51.7624 53.6453 48.7714 53.6099 45.2144 54.5905C41.3174 55.6632 39.7418 60.41 39.9243 64.0052C39.9243 64.0065 57.0066 64.8005 57.7721 60.9161Z" fill="#226335"/>
<path d="M46.4382 53.936C45.6806 54.9482 47.4111 54.7155 47.8943 54.4342C49.2231 53.6626 47.0763 53.0842 46.4382 53.936Z" fill="#226335"/>
<path d="M96.4311 101.022H64.5801V133.678H96.4311V101.022Z" fill="#E7B88B"/>
<path d="M111.478 101.022H96.4189V133.678H111.478V101.022Z" fill="#D8A274"/>
<path d="M96.4311 101.022H64.5801V108.582H96.4311V101.022Z" fill="#E49F73"/>
<path d="M111.478 101.022H96.4189V108.582H111.478V101.022Z" fill="#BA7E60"/>
<path d="M96.4304 101.022H63.8047V107.181H96.4304V101.022Z" fill="#E7B88B"/>
<path d="M112.359 101.022H96.4189V107.181H112.359V101.022Z" fill="#D8A274"/>
<path d="M93.2616 125.165H83.1436V130.769H93.2616V125.165Z" fill="#D8A274"/>
<path d="M100.237 116.814H104.066L102.15 114.256L100.237 116.814Z" fill="#BA7E60"/>
<path d="M102.893 115.927H101.409V122.157H102.893V115.927Z" fill="#BA7E60"/>
<path d="M104.709 116.814H108.538L106.625 114.256L104.709 116.814Z" fill="#BA7E60"/>
<path d="M107.366 115.927H105.882V122.157H107.366V115.927Z" fill="#BA7E60"/>
<path d="M108.539 122.938H100.237V124.423H108.539V122.938Z" fill="#BA7E60"/>
<path d="M80.1184 133.779C80.4191 133.577 79.8979 133.007 79.8979 133.007C77.2836 132.336 75.5689 131.133 75.5689 131.133L74.3596 130.428L74.9058 129.375L76.6219 129.024C77.8693 128.906 77.9966 127.965 77.9966 127.965L73.7753 127.824L70.108 128.761L68.627 131.561L70.6936 132.697C73.3039 135.243 78.6111 134.209 78.6111 134.209L80.1184 133.779Z" fill="#F7B6A0"/>
<path d="M63.7771 127.072C57.3039 124.818 50.2504 119.166 46.7762 110.23C46.7762 110.23 41.3823 107.376 39.1318 114.257C39.1318 114.257 44.0661 129.272 62.2474 131.37C62.703 129.916 63.2177 128.486 63.7771 127.072Z" fill="#F7B6A0"/>
<path d="M79.5091 134.005C78.6201 134.005 77.1391 133.32 76.3408 132.95C76.1333 132.854 75.9692 132.777 75.8983 132.753C75.8681 132.742 75.851 132.709 75.8615 132.68C75.8733 132.649 75.9075 132.632 75.9364 132.643C76.0138 132.67 76.1714 132.742 76.3893 132.843C77.1233 133.185 78.6451 133.887 79.5104 133.887C79.5182 133.887 79.5261 133.888 79.5327 133.887C79.5642 133.887 79.5905 133.913 79.5905 133.945C79.5905 133.984 79.5511 134.005 79.5091 134.005Z" fill="#3A4351"/>
<path d="M77.6043 134.432C77.6004 134.432 77.5978 134.432 77.5951 134.432C76.1863 134.196 75.5416 133.87 74.784 133.435C74.7564 133.418 74.7472 133.382 74.7617 133.353C74.7787 133.324 74.8142 133.316 74.8418 133.332C75.5875 133.762 76.223 134.083 77.6122 134.314C77.645 134.321 77.666 134.348 77.6608 134.381C77.6568 134.411 77.6319 134.432 77.6043 134.432Z" fill="#3A4351"/>
<path d="M75.1981 134.433C75.1929 134.433 75.1903 134.433 75.185 134.43C74.4957 134.281 74.1805 134.122 73.847 133.952C73.7866 133.922 73.7249 133.89 73.6606 133.859C73.6304 133.844 73.6199 133.809 73.6343 133.78C73.6475 133.75 73.6829 133.739 73.7118 133.752C73.7775 133.785 73.8392 133.815 73.8996 133.845C74.2409 134.02 74.5351 134.169 75.2113 134.317C75.2428 134.323 75.2625 134.354 75.2546 134.387C75.2493 134.413 75.2244 134.433 75.1981 134.433Z" fill="#3A4351"/>
<path d="M80.1184 133.78C80.4191 133.577 79.8979 133.008 79.8979 133.008C77.2836 132.336 75.5689 131.133 75.5689 131.133L74.3596 130.429L74.9058 129.376L76.6219 129.025C77.8693 128.907 77.9966 127.965 77.9966 127.965L73.7753 127.825L70.108 128.762L68.627 131.562L70.6936 132.698C73.3039 135.244 78.6111 134.209 78.6111 134.209L80.1184 133.78Z" fill="#F7B6A0"/>
<path d="M61.4095 126.168C60.8724 127.526 60.3709 129.727 59.9297 131.122C61.6707 131.282 66.6444 131.658 68.6271 131.563L70.1082 128.763C70.1082 128.763 64.6342 127.228 61.4095 126.168Z" fill="#F7B6A0"/>
<path d="M185.706 117.11C183.843 116.517 186.004 111.077 186.391 109.535C189.477 97.3396 190.929 90.2056 193.222 88.0616C193.508 87.4688 201.838 82.7338 201.599 91.0982C201.662 93.9284 193.236 113.631 191.294 117.71C191.296 117.71 189.585 118.646 185.706 117.11Z" fill="#F7B6A0"/>
<path d="M191.295 117.709C186.778 124.995 181.245 124.918 170.549 130.993L169.104 129.269C170.617 127.472 184.52 116.599 185.272 113.413C185.272 113.412 191.24 111.374 191.295 117.709Z" fill="#F7B6A0"/>
<path d="M171.086 128.145C171.489 128.323 171.871 128.68 171.937 129.13C172.087 130.144 171.265 131.273 170.712 132.038C170.011 133.012 169.235 134.47 167.865 134.525C167.655 134.534 167.427 134.425 167.218 134.394C166.777 134.329 166.605 134.613 166.284 134.268C166.103 134.07 165.449 133.877 165.346 133.656C165.248 133.438 164.518 133.184 164.407 132.994C163.742 131.809 163.409 131.029 163.808 130.513C164.05 130.206 165.244 129.048 165.268 128.304C165.268 128.304 165.436 127.574 167.21 127.591L171.086 128.145Z" fill="#F7B6A0"/>
<path d="M203.876 90.462L200.153 112.517C196.786 111.48 189.158 110.509 185.705 108.697C188.762 97.9417 191.274 90.3174 191.274 90.3174C191.274 90.3174 192.978 85.0671 198.953 85.886C198.953 85.886 203.692 86.1424 203.876 90.462Z" fill="#226335"/>
<path d="M218.317 149.172C213.322 149.172 208.932 145.872 207.556 141.03C207.522 140.906 207.593 140.776 207.718 140.74C207.844 140.705 207.971 140.777 208.007 140.903C209.359 145.665 213.766 148.864 218.693 148.699C218.815 148.684 218.93 148.796 218.936 148.925C218.94 149.054 218.839 149.163 218.71 149.167C218.578 149.171 218.447 149.172 218.317 149.172Z" fill="#3A4351"/>
<path d="M222.425 148.432C223.067 145.929 222.496 139.334 222.362 138.658L221.045 127.587H191.602L188.515 139.548L186.578 148.43H222.425V148.432Z" fill="#34944D"/>
<path d="M182.959 175.413C182.959 175.413 181.75 183.844 199.093 173.737C199.093 173.737 207.191 155.164 208.992 141.876L188.505 139.991L188.514 139.55C188.516 139.55 182.535 164.833 182.959 175.413Z" fill="#34944D"/>
<path d="M178.564 228.387L174.011 227.401L180.2 195.831L190.166 198.331L178.564 228.387Z" fill="#F7B6A0"/>
<path d="M179.342 230.072L163.179 226.57C163.796 224.726 165.356 224.625 165.356 224.625L170.32 224.216L175.071 222.611L176.495 223.719C176.495 223.719 176.826 223.731 176.338 224.439C176.338 224.439 178.257 225.291 179.292 225.081L179.301 230.251" fill="#282D3C"/>
<path d="M163.183 226.566L163.021 227.316L179.184 230.818L179.346 230.067L163.183 226.566Z" fill="#151621"/>
<path d="M168.842 224.403C169.244 224.652 169.314 225.326 169.308 225.748C169.307 225.801 169.386 225.814 169.421 225.823C169.444 225.827 169.465 225.83 169.487 225.831C169.529 225.835 169.675 225.835 169.672 225.763C169.671 225.727 169.638 225.702 169.614 225.677C169.58 225.643 169.503 225.654 169.468 225.677C169.44 225.697 169.404 225.711 169.387 225.743C169.468 225.732 169.55 225.722 169.631 225.713C169.601 225.701 169.574 225.689 169.542 225.684C169.568 225.705 169.593 225.726 169.619 225.748C169.639 225.279 169.491 224.428 168.929 224.332C168.886 224.326 168.766 224.356 168.842 224.403Z" fill="white"/>
<path d="M170.504 224.145C170.522 224.371 170.597 224.59 170.673 224.801C170.765 225.056 170.815 225.315 170.893 225.571C170.916 225.65 171.138 225.635 171.151 225.553C171.235 225.065 170.801 224.601 170.697 224.143C170.681 224.08 170.499 224.08 170.504 224.145Z" fill="white"/>
<path d="M171.771 223.836C172.016 224.284 172.127 224.802 172.154 225.309C172.16 225.444 172.537 225.411 172.486 225.288C172.475 225.245 172.453 225.206 172.421 225.174C172.394 225.139 172.322 225.14 172.288 225.166C172.244 225.194 172.206 225.228 172.176 225.267C172.281 225.282 172.386 225.295 172.491 225.308C172.467 224.736 172.261 224.276 171.937 223.812C171.908 223.77 171.74 223.778 171.771 223.836Z" fill="white"/>
<path d="M173.335 223.181C173.385 223.398 173.414 223.621 173.475 223.836C173.554 224.113 173.654 224.342 173.612 224.639C173.593 224.756 173.861 224.72 173.911 224.699C173.916 224.698 173.922 224.695 173.928 224.694C173.953 224.684 173.979 224.657 173.964 224.628C173.954 224.611 173.944 224.595 173.936 224.578C173.915 224.542 173.842 224.547 173.811 224.561C173.831 224.568 173.849 224.573 173.869 224.581C173.899 224.597 173.932 224.613 173.964 224.628C173.932 224.57 173.973 224.322 173.958 224.237C173.941 224.138 173.899 224.039 173.864 223.946C173.763 223.686 173.668 223.416 173.547 223.168C173.521 223.113 173.32 223.114 173.335 223.181Z" fill="white"/>
<path d="M199.094 173.737C198.341 164.842 187.461 161.459 187.461 161.459C183.376 161.503 182.72 171.595 182.72 171.595C182.72 171.595 174.012 188.022 179.343 200.209C179.343 200.209 185.557 202.723 189.419 202.401C189.419 202.401 198.803 186.614 199.094 173.737Z" fill="#34944D"/>
<path d="M220.541 172.293C207.775 181.466 204.976 175.124 204.976 175.124C200.771 162.619 201.939 137.074 201.939 137.074C201.939 137.074 220.799 130.872 222.639 143.527C222.639 143.526 223.278 157.691 220.541 172.293Z" fill="#34944D"/>
<path d="M226.853 225.703L222.276 226.58L212.248 195.831L222.725 193.645L226.853 225.703Z" fill="#F7B6A0"/>
<path d="M228.225 226.946L211.984 230.068C211.833 228.131 213.225 227.423 213.225 227.423L217.634 225.101L221.373 221.758L223.118 222.221C223.118 222.221 223.428 222.1 223.258 222.946C223.258 222.946 225.356 222.976 226.224 222.374L228.26 227.128" fill="#282D3C"/>
<path d="M228.37 227.703L212.128 230.824L211.983 230.069L228.224 226.947L228.37 227.703Z" fill="#151621"/>
<path d="M216.369 225.844C216.593 225.862 216.818 226.101 216.954 226.26C217.105 226.439 217.208 226.652 217.295 226.868C217.319 226.926 217.438 226.931 217.485 226.922C217.517 226.915 217.55 226.907 217.581 226.898C217.614 226.886 217.669 226.861 217.648 226.817C217.63 226.781 217.586 226.76 217.554 226.74C217.521 226.719 217.453 226.721 217.422 226.747C217.395 226.774 217.365 226.794 217.363 226.834C217.412 226.81 217.459 226.786 217.509 226.764C217.474 226.765 217.438 226.767 217.403 226.773C217.467 226.793 217.53 226.809 217.593 226.827C217.475 226.508 217.278 226.222 217.023 226C216.842 225.841 216.593 225.694 216.348 225.765C216.28 225.786 216.312 225.839 216.369 225.844Z" fill="white"/>
<path d="M217.771 224.939C217.867 225.123 218.011 225.274 218.146 225.428C218.222 225.512 218.304 225.593 218.379 225.675C218.49 225.8 218.566 225.949 218.675 226.076C218.714 226.119 218.951 226.157 218.934 226.059C218.896 225.834 218.695 225.655 218.54 225.501C218.345 225.307 218.117 225.14 217.957 224.914C217.922 224.866 217.737 224.873 217.771 224.939Z" fill="white"/>
<path d="M218.818 224.16C219.22 224.468 219.521 224.891 219.743 225.343C219.798 225.459 220.13 225.384 220.068 225.3C220.03 225.247 219.997 225.216 219.943 225.179C219.908 225.151 219.84 225.151 219.81 225.186C219.775 225.226 219.758 225.25 219.743 225.3C219.85 225.3 219.959 225.3 220.068 225.3C219.824 224.777 219.434 224.415 218.953 224.11C218.917 224.087 218.758 224.114 218.818 224.16Z" fill="white"/>
<path d="M219.996 222.936C220.142 223.125 220.253 223.336 220.419 223.509C220.593 223.69 220.751 223.881 220.811 224.128C220.843 224.253 221.132 224.247 221.165 224.128C221.165 224.125 221.166 224.121 221.167 224.117C221.166 224.104 221.159 224.092 221.147 224.084C221.136 224.071 221.123 224.057 221.111 224.042C221.084 224.012 220.989 224 220.965 224.042C221.002 224.048 221.041 224.05 221.077 224.053C221.107 224.08 221.136 224.104 221.165 224.129C221.109 223.9 220.996 223.726 220.839 223.556C220.633 223.331 220.419 223.096 220.192 222.895C220.154 222.861 219.95 222.872 219.996 222.936Z" fill="white"/>
<path d="M213.652 202.953C205.671 198.954 204.232 172.568 204.232 172.568C204.232 172.568 206.161 165.176 211.772 165.557C211.772 165.557 219.869 166.646 221.72 175.796C221.72 175.796 225.989 184.932 227.724 199.424C227.724 199.424 216.633 203.842 213.652 202.953Z" fill="#34944D"/>
<path d="M205.597 184.542C205.488 184.542 205.391 184.467 205.368 184.356C204.032 178.023 203.997 173.009 203.997 172.594C202.731 166.985 201.53 155.454 201.522 148.841C201.517 144.639 201.569 141.02 201.834 137.004C201.844 136.875 201.956 136.781 202.082 136.786C202.211 136.794 202.31 136.905 202.3 137.034C202.035 141.036 201.984 144.647 201.989 148.841C201.997 155.436 203.199 166.941 204.46 172.515C204.464 172.533 204.466 172.55 204.466 172.568C204.466 172.62 204.447 177.73 205.826 184.26C205.852 184.387 205.772 184.509 205.646 184.538C205.63 184.54 205.614 184.542 205.597 184.542Z" fill="#3A4351"/>
<path d="M215.118 70.6882C215.23 70.3596 215.325 70.0743 215.403 69.8601C216.716 66.2714 217.126 60.6557 212.914 59.3241C207.864 57.7295 208.426 65.8705 208.255 68.1446C208.057 70.7763 207.705 71.7924 208.896 74.198C209.345 75.1038 209.835 75.9214 210.902 75.7781C212.084 75.6217 214.587 72.2552 215.118 70.6882Z" fill="#226335"/>
<path d="M212.483 73.3581L203.833 72.9795L203.363 83.7508L212.015 84.1307L212.483 73.3581Z" fill="#F7B6A0"/>
<path d="M209.583 79.2065C210.531 77.42 211.131 75.5994 211.087 73.2976L203.833 72.9795L203.424 82.3429C205.718 82.0932 208.572 81.1086 209.583 79.2065Z" fill="#F2937C"/>
<path d="M199.854 85.1149L203.636 82.541L211.774 82.9038L216.044 85.8339L199.854 85.1149Z" fill="#F7B6A0"/>
<path d="M191.495 112.259C191.179 117.29 190.517 121.163 190.199 126.192C190.014 129.155 187.234 137.795 187.475 143.345C187.475 143.345 197.553 151.269 225.011 145.647C224.829 144.479 223.816 137.465 223.745 136.289C223.541 132.817 223.333 129.344 223.128 125.87C222.855 121.278 223.261 115.997 222.273 111.494L224.886 92.851C225.677 89.1335 222.406 86.9119 222.406 86.9119L212.066 82.9683C207.69 86.202 203.363 82.7251 203.363 82.7251L195.26 85.8313C195.26 85.8313 191.574 87.9583 191.479 92.642L191.495 112.259Z" fill="#226335"/>
<path d="M204.246 60.68C206.075 60.2357 205.489 61.6988 204.964 63.4419L202.409 64.5737C200.254 65.507 201.46 66.8334 201.18 68.6987C201.063 69.4677 200.77 70.213 200.615 70.9571C200.128 70.1723 199.33 66.4403 199.309 65.5491C199.309 65.5491 198.671 61.6791 201.311 60.8772C201.31 60.8785 203.114 60.5302 204.246 60.68Z" fill="#226335"/>
<path d="M212.484 73.3587C211.902 75.2885 210.429 77.5442 208.765 78.7733C207.137 79.9748 205.408 80.6663 203.635 79.4359C202.224 78.4578 201.235 76.9409 200.62 75.3779C199.204 71.7839 199.612 66.606 201.702 63.4353C203.998 59.9531 209.029 60.2581 211.259 63.7363C213.073 66.5692 213.426 70.2446 212.484 73.3587Z" fill="#F7B6A0"/>
<path d="M208.897 71.6543C208.905 71.9488 208.374 72.2012 207.712 72.2196C207.051 72.2354 206.506 72.0119 206.499 71.7214C206.491 71.4296 207.022 71.1759 207.685 71.1575C208.345 71.1377 208.889 71.3625 208.897 71.6543Z" fill="#F2937C"/>
<path d="M203.011 72.1488C203.02 72.442 202.488 72.6957 201.827 72.7141C201.165 72.7312 200.621 72.509 200.613 72.2146C200.605 71.9227 201.136 71.6703 201.798 71.6519C202.461 71.6335 203.003 71.857 203.011 72.1488Z" fill="#F2937C"/>
<path d="M204.41 73.1838C203.987 73.1838 203.551 73.0813 203.337 72.8236C203.233 72.6987 203.095 72.4306 203.33 72.0388C204.848 69.5162 204.354 69.139 203.995 68.8629C203.907 68.7972 203.827 68.7328 203.762 68.6618C203.677 68.5645 203.685 68.416 203.783 68.3305C203.879 68.2438 204.027 68.2517 204.114 68.3503C204.16 68.4002 204.218 68.4436 204.28 68.4909C204.906 68.9681 205.335 69.6188 203.732 72.282C203.635 72.4464 203.681 72.5002 203.701 72.5239C203.87 72.7303 204.586 72.7842 205.019 72.6212C205.14 72.5752 205.275 72.637 205.321 72.7592C205.367 72.8802 205.304 73.0156 205.183 73.0616C204.975 73.1378 204.696 73.1838 204.41 73.1838Z" fill="#F2937C"/>
<path d="M201.226 68.6012C201.13 68.6012 201.035 68.5565 200.977 68.4698C200.88 68.3318 200.915 68.1425 201.054 68.0478C201.594 67.6732 202.622 67.4352 203.737 67.9913C203.888 68.0649 203.949 68.2489 203.876 68.3988C203.8 68.5487 203.617 68.6118 203.468 68.5368C202.307 67.9584 201.489 68.4856 201.4 68.5473C201.346 68.5841 201.285 68.6012 201.226 68.6012Z" fill="#49201D"/>
<path d="M208.58 68.5997C208.514 68.5997 208.449 68.5799 208.392 68.5353C207.892 68.1396 206.938 68.0476 206.407 68.5155C206.281 68.6246 206.088 68.6128 205.976 68.4879C205.866 68.3617 205.879 68.1685 206.004 68.0581C206.787 67.3706 208.065 67.5007 208.769 68.0568C208.903 68.1619 208.924 68.3525 208.82 68.484C208.759 68.5602 208.669 68.5997 208.58 68.5997Z" fill="#49201D"/>
<path d="M213.964 60.9721C213.811 61.9541 214.235 62.6061 213.878 63.4527C213.45 64.4609 214.189 66.363 214.337 67.5422C214.402 68.0483 214.337 68.7686 214.514 69.2484C214.307 68.6911 213.471 67.7223 212.666 68.5741C212.331 68.9303 212.206 70.5801 212.06 71.0283C211.865 71.6251 211.728 71.4109 211.2 71.4569C211.013 69.7506 211.124 64.8618 209.299 64.8329C208.792 64.825 208.111 65.1681 207.613 65.2799C206.384 65.5506 205.119 65.7334 203.858 65.715C200.553 65.665 198.932 64.0271 198.894 60.7447C198.894 60.7447 199.634 61.0208 200.159 60.9708C200.159 60.9708 198.148 59.162 199.856 57.4058C199.856 57.4058 201.741 58.2247 202.267 58.2826C202.267 58.2826 201.558 56.9352 202.701 55.5312C202.701 55.5312 204.996 57.8159 209.215 57.8356C209.214 57.8356 214.744 58.2799 213.964 60.9721Z" fill="#226335"/>
<path d="M202.698 70.0321C202.724 70.4291 202.553 70.7656 202.313 70.7801C202.075 70.7959 201.859 70.4869 201.834 70.0886C201.807 69.6917 201.979 69.3551 202.218 69.3394C202.459 69.3249 202.673 69.6351 202.698 70.0321Z" fill="#3A4351"/>
<path d="M207.869 69.6933C207.895 70.089 207.725 70.4255 207.486 70.4413C207.248 70.4584 207.031 70.1482 207.008 69.7485C206.98 69.3516 207.151 69.015 207.39 69.0006C207.63 68.9848 207.844 69.2937 207.869 69.6933Z" fill="#3A4351"/>
<path d="M228.758 119.099C226.951 119.847 224.421 114.475 223.868 112.984C219.1 100.147 215.1 94.6263 215.476 91.5096C215.314 90.8707 219.172 82.6049 224.367 89.1605C226.234 91.2835 233.807 112.561 233.266 116.799C233.264 116.799 232.715 117.778 228.758 119.099Z" fill="#F7B6A0"/>
<path d="M232.995 104.598L225.453 90.0576C225.453 90.0576 224.123 87.6086 222.407 86.9132C222.407 86.9132 213.944 84.1882 214.706 95.8336L220.983 110.917C220.983 110.918 227.429 109.214 232.995 104.598Z" fill="#226335"/>
<path d="M233.383 116.57C233.896 126.809 232.473 131.543 229.319 143.906L226.945 143.216C227.049 140.866 225.779 119.792 225.045 115.52C225.046 115.52 232.578 110.141 233.383 116.57Z" fill="#F7B6A0"/>
<path d="M227.144 142.737C227.501 142.476 228 142.327 228.422 142.498C229.374 142.878 229.932 144.158 230.315 145.021C230.801 146.12 231.669 147.522 231.028 148.735C230.931 148.921 230.721 149.063 230.588 149.228C230.31 149.579 230.471 149.87 230.01 149.971C229.749 150.029 229.252 150.5 229.009 150.476C228.771 150.45 228.188 150.954 227.965 150.953C226.608 150.932 225.767 150.829 225.521 150.223C225.378 149.859 224.979 148.242 224.35 147.845C224.35 147.845 223.804 147.335 224.714 145.807L227.144 142.737Z" fill="#F7B6A0"/>
<path d="M204.56 75.0176C204.447 75.0176 204.346 74.936 204.329 74.8217C204.308 74.6929 204.396 74.5719 204.525 74.5522C205.191 74.4484 205.397 74.2551 205.455 74.1118C205.502 73.9909 205.637 73.9304 205.759 73.9817C205.88 74.029 205.939 74.1657 205.89 74.2854C205.739 74.6639 205.318 74.9032 204.597 75.0176C204.584 75.0176 204.573 75.0176 204.56 75.0176Z" fill="#F2937C"/>
<path d="M221.21 111.329C221.156 111.329 221.104 111.312 221.06 111.275C220.175 110.539 219.457 108.596 218.82 106.883C218.576 106.223 218.344 105.597 218.123 105.098C217.607 103.925 217.121 102.662 216.651 101.441C215.975 99.6834 215.275 97.8654 214.448 96.2064C214.391 96.0907 214.437 95.9501 214.554 95.8922C214.67 95.8357 214.81 95.8817 214.868 95.9987C215.704 97.6761 216.408 99.5059 217.088 101.273C217.557 102.489 218.04 103.745 218.552 104.91C218.778 105.423 219.012 106.054 219.26 106.719C219.873 108.378 220.57 110.256 221.36 110.913C221.458 110.996 221.472 111.145 221.39 111.243C221.343 111.3 221.276 111.329 221.21 111.329Z" fill="#3A4351"/>
<path d="M188.731 134.052C188.708 134.052 188.685 134.049 188.662 134.043C188.54 134.005 188.469 133.875 188.507 133.751C189.423 130.751 189.897 127.978 190.09 124.472C190.222 122.054 190.455 119.452 190.68 116.933C190.923 114.228 191.173 111.43 191.304 108.831C191.439 106.138 191.326 103.429 191.217 100.81C191.148 99.1511 191.077 97.4357 191.072 95.7531C191.07 95.6229 191.175 95.5165 191.304 95.5151C191.305 95.5151 191.305 95.5151 191.305 95.5151C191.434 95.5151 191.539 95.6203 191.539 95.7491C191.546 97.4238 191.618 99.1341 191.686 100.789C191.796 103.419 191.911 106.139 191.772 108.855C191.64 111.462 191.391 114.264 191.147 116.975C190.922 119.488 190.688 122.091 190.556 124.498C190.36 128.042 189.881 130.85 188.954 133.885C188.924 133.988 188.832 134.052 188.731 134.052Z" fill="#3A4351"/>
<path d="M211.613 143.123C209.024 143.123 206.411 142.868 204.135 142.481C204.009 142.46 203.923 142.339 203.945 142.211C203.969 142.083 204.091 142 204.215 142.02C209.348 142.894 216.865 143.115 221.148 140.871C221.262 140.812 221.404 140.858 221.464 140.971C221.525 141.085 221.48 141.229 221.366 141.286C218.81 142.623 215.233 143.123 211.613 143.123Z" fill="#3A4351"/>
<path d="M213.299 129.835C213.219 129.835 213.142 129.794 213.097 129.719C212.48 128.663 211.851 127.528 211.183 126.326C210.423 124.956 209.635 123.538 208.85 122.21C208.591 121.774 208.294 121.284 207.973 120.755C205.997 117.496 203.29 113.04 203.004 110.181C202.991 110.054 203.084 109.938 203.213 109.926C203.332 109.913 203.456 110.005 203.469 110.135C203.746 112.886 206.53 117.477 208.373 120.513C208.696 121.044 208.994 121.535 209.253 121.974C210.042 123.307 210.83 124.726 211.591 126.101C212.258 127.3 212.886 128.432 213.5 129.484C213.566 129.595 213.528 129.74 213.416 129.803C213.381 129.824 213.342 129.835 213.299 129.835Z" fill="#3A4351"/>
<path d="M209.088 130.773C209 130.773 208.914 130.721 208.876 130.633C208.681 130.199 208.272 129.554 207.837 128.87C206.75 127.16 206.3 126.369 206.552 125.964C206.62 125.855 206.764 125.822 206.873 125.888C206.981 125.956 207.015 126.097 206.952 126.205C206.88 126.492 207.725 127.821 208.232 128.618C208.677 129.317 209.096 129.976 209.304 130.441C209.356 130.56 209.302 130.699 209.184 130.75C209.154 130.766 209.121 130.773 209.088 130.773Z" fill="#3A4351"/>
<path d="M215.113 69.8593C215.248 70.9583 214.769 72.2702 213.829 72.8341C212.555 73.5966 211.905 72.4201 211.777 71.2159C211.673 70.2445 211.918 68.5251 212.981 68.061C213.984 67.6233 215.003 68.9549 215.113 69.8593Z" fill="#F7B6A0"/>
<path d="M213.238 72.1701C213.142 72.1701 213.054 72.1122 213.019 72.0176C212.5 70.6255 212.694 69.2518 213.478 68.747C213.587 68.6773 213.732 68.7089 213.803 68.8167C213.872 68.9258 213.841 69.0717 213.732 69.1427C213.151 69.5147 213.031 70.707 213.459 71.8533C213.505 71.9755 213.441 72.1096 213.321 72.1543C213.293 72.1661 213.266 72.1701 213.238 72.1701Z" fill="#F2937C"/>
<path d="M213.038 70.2977C212.967 70.2977 212.896 70.2662 212.85 70.2044C212.773 70.1005 212.794 69.9533 212.899 69.8745C213.274 69.5931 213.89 69.6536 214.339 69.8035C214.463 69.8455 214.53 69.9783 214.489 70.1019C214.447 70.2241 214.314 70.2898 214.192 70.2504C213.856 70.1387 213.394 70.0913 213.18 70.2504C213.137 70.2833 213.087 70.2977 213.038 70.2977Z" fill="#F2937C"/>
<path d="M121.406 197.025C118.053 194.469 116.012 188.583 113.189 185.105C110.045 181.229 106.414 177.401 104.476 172.819C102.505 168.166 103.959 162.525 103.481 157.539C103.055 153.086 101.889 147.988 99.6074 143.996C100.159 144.959 107.014 146.763 108.389 147.43C110.629 148.516 112.978 149.527 115.03 150.95C119.552 154.079 122.601 158.508 123.779 163.871C126.2 174.866 122.04 186.067 121.406 197.025Z" fill="#82BF77"/>
<path d="M120.43 207.878C121.497 184.306 119.144 164.944 105.709 148.044C105.636 147.952 105.652 147.817 105.744 147.742C105.837 147.668 105.971 147.684 106.044 147.776C119.556 164.774 121.938 184.242 120.868 207.903L120.43 207.878Z" fill="#1A3873"/>
<path d="M149.176 174.466C144.752 180.168 136.748 181.347 132.026 187.033C132.296 179.462 129.549 173.38 133.447 166.322C137.318 159.316 144.008 156.989 150.536 153.281C153.393 151.657 155.938 149.821 158.224 147.43C157.269 151.965 154.966 156.253 153.744 160.76C152.474 165.445 152.264 170.484 149.176 174.466Z" fill="#226335"/>
<path d="M129.168 208.325L128.618 208.306C128.773 198.756 130.561 189.622 133.952 181.102C136.751 174.061 140.022 166.987 144.949 162.931C145.068 162.834 145.241 162.851 145.338 162.969C145.434 163.088 145.418 163.261 145.3 163.358C140.469 167.335 137.238 174.335 134.465 181.307C131.101 189.762 129.323 198.846 129.168 208.325Z" fill="#1A3873"/>
</svg>
