<svg width="102" height="87" viewBox="0 0 102 87" fill="none" xmlns="http://www.w3.org/2000/svg">
<g clip-path="url(#clip0_700_2892)">
<path d="M8.24735 43.7259C8.24735 47.6509 8.24735 51.5758 8.24735 55.5008C8.24735 57.3709 8.36052 57.5248 10.1241 58.1071C24.3361 62.8062 38.5458 67.51 52.7696 72.1759C53.2742 72.3416 54.0404 72.3085 54.4672 72.0291C65.9207 64.5675 77.3437 57.0513 88.7878 49.5731C89.6743 48.9931 90.002 48.3113 89.9973 47.2603C89.9619 39.5192 89.9997 31.7759 89.9525 24.0325C89.9454 23.0548 90.2095 22.5103 91.1125 22.1813C91.9235 21.8854 92.5412 21.3859 92.5389 20.3774C92.5318 16.3814 92.553 12.3831 92.5483 8.38711C92.5483 7.56093 92.1333 7.03776 91.2987 6.88862C90.5938 6.76552 89.8888 6.63295 89.1815 6.50985C77.5653 4.5095 65.9538 2.49494 54.3328 0.53483C52.7013 0.260225 51.0933 -0.319759 49.3557 0.219981C45.3218 1.47464 41.2548 2.62277 37.1972 3.80641C26.6773 6.87205 16.155 9.93294 5.63505 12.9938C4.76271 13.2471 4.35483 13.8034 4.36191 14.7362C4.38548 18.6256 4.40434 22.515 4.37841 26.4045C4.35483 29.7992 4.40199 29.4985 7.29485 30.1969C8.11296 30.3934 8.26621 30.7674 8.2615 31.5202C8.22849 35.5872 8.24499 39.6565 8.24735 43.7259Z" fill="white"/>
<path d="M8.24735 43.7259C8.24735 39.6565 8.23085 35.5872 8.2615 31.5178C8.26621 30.765 8.11532 30.3934 7.29485 30.1945C4.40199 29.4962 4.35483 29.7968 4.37841 26.4021C4.40434 22.5127 4.38548 18.6232 4.36191 14.7338C4.35483 13.8011 4.76271 13.2448 5.63505 12.9915C16.155 9.93057 26.6773 6.86968 37.1972 3.80641C41.2548 2.62514 45.3218 1.47464 49.3557 0.219981C51.0933 -0.319759 52.7013 0.260225 54.3328 0.53483C65.9537 2.49494 77.5676 4.51186 89.1815 6.50985C89.8888 6.63058 90.5914 6.76315 91.2987 6.88862C92.1357 7.03539 92.5483 7.56092 92.5483 8.38711C92.5507 12.3831 92.5318 16.3814 92.5389 20.3774C92.5412 21.3859 91.9235 21.8853 91.1125 22.1813C90.2095 22.5103 89.9454 23.0548 89.9525 24.0325C90.002 31.7735 89.9643 39.5169 89.9973 47.2603C90.002 48.3113 89.6743 48.9931 88.7878 49.5731C77.3437 57.0513 65.9207 64.5651 54.4672 72.0291C54.0404 72.3061 53.2742 72.3416 52.7696 72.1759C38.5458 67.51 24.3361 62.8062 10.1241 58.1071C8.36288 57.5248 8.24735 57.3685 8.24735 55.5008C8.24499 51.5758 8.24735 47.6509 8.24735 43.7259ZM11.1638 31.2385C11.1166 31.577 11.0789 31.719 11.0789 31.8587C11.0742 39.4553 11.086 47.0496 11.053 54.6462C11.0483 55.4463 11.5009 55.5789 12.0621 55.7635C23.9612 59.6885 35.8604 63.6205 47.7596 67.5502C49.1765 68.019 50.6006 68.4711 52.0883 68.954C52.0883 59.8282 52.0883 50.8348 52.0883 41.7019C38.4869 38.2243 24.8784 34.7444 11.1638 31.2385ZM87.1681 24.2952C86.6918 24.5012 86.3995 24.6101 86.1213 24.7498C76.0163 29.8323 65.916 34.9243 55.804 39.988C55.158 40.3123 54.9646 40.7005 54.967 41.4036C54.9906 50.0039 54.9811 58.6066 54.9859 67.207C54.9859 67.5029 55.0354 67.7988 55.0707 68.1989C55.3654 68.0355 55.5258 67.9598 55.6696 67.8651C65.9302 61.1467 76.1861 54.4213 86.4537 47.7148C87.0007 47.3573 87.1822 46.9478 87.1799 46.3039C87.1563 40.942 87.1657 35.5801 87.1657 30.2158C87.1681 28.3102 87.1681 26.4045 87.1681 24.2952ZM11.7485 14.2106C12.1257 14.3905 12.2106 14.4521 12.3049 14.4758C25.133 17.4538 37.9635 20.42 50.7868 23.4193C51.6332 23.6182 52.3476 23.5898 53.1539 23.2371C61.9316 19.3902 70.7233 15.5789 79.5104 11.7557C81.5993 10.8467 83.6882 9.93531 85.9798 8.93631C85.4423 8.80375 85.1405 8.70669 84.8293 8.65224C73.7482 6.74895 62.6695 4.84565 51.5837 2.9684C51.0438 2.87607 50.4379 2.89738 49.9145 3.04888C40.2881 5.83991 30.6688 8.65934 21.0495 11.474C18.0388 12.357 15.028 13.2471 11.7485 14.2106ZM50.6077 26.3761C36.1858 23.0193 21.7757 19.6648 7.21941 16.2749C7.21941 19.7335 7.25006 22.9696 7.19819 26.2056C7.18404 27.0673 7.49054 27.3538 8.29215 27.555C19.5453 30.3839 30.7891 33.253 42.0352 36.1127C44.8667 36.8324 47.6936 37.5591 50.6077 38.3048C50.6077 34.2875 50.6077 30.3768 50.6077 26.3761ZM53.6066 37.7911C53.9933 37.623 54.2526 37.526 54.5002 37.4029C65.9773 31.6409 77.4521 25.8719 88.9387 20.1241C89.4951 19.8448 89.7238 19.5204 89.7144 18.886C89.6814 16.4027 89.7049 13.9194 89.6955 11.4362C89.6955 11.1687 89.6319 10.9012 89.5965 10.6242C89.4362 10.6597 89.3607 10.6644 89.2994 10.6905C77.5983 15.773 65.8948 20.8508 54.2055 25.9642C53.9225 26.0873 53.6514 26.582 53.6349 26.9158C53.5713 28.2794 53.609 29.65 53.609 31.0183C53.6066 33.2388 53.6066 35.4546 53.6066 37.7911Z" fill="#32934D"/>
<path d="M11.164 31.2383C24.8785 34.7442 38.487 38.2218 52.0861 41.6993C52.0861 50.8323 52.0861 59.8256 52.0861 68.9515C50.5984 68.4685 49.1744 68.0164 47.7574 67.5477C35.8582 63.618 23.9591 59.6859 12.0599 55.761C11.4987 55.5763 11.0484 55.4437 11.0508 54.6436C11.0838 47.047 11.072 39.4528 11.0767 31.8561C11.0767 31.7188 11.1144 31.5768 11.164 31.2383Z" fill="#69D085"/>
<path d="M87.168 24.2954C87.168 26.4047 87.168 28.3103 87.168 30.216C87.168 35.5779 87.1586 40.9398 87.1821 46.304C87.1845 46.9479 87.003 47.3575 86.456 47.7149C76.1883 54.4214 65.9324 61.1469 55.6718 67.8652C55.5257 67.9599 55.3677 68.0357 55.073 68.199C55.0376 67.799 54.9881 67.503 54.9881 67.2071C54.9834 58.6068 54.9928 50.0041 54.9693 41.4038C54.9669 40.7007 55.1602 40.3124 55.8062 39.9881C65.9207 34.9245 76.0209 29.8325 86.1236 24.7499C86.3994 24.6103 86.6917 24.5014 87.168 24.2954Z" fill="#69D085"/>
<path d="M11.7485 14.2106C15.0281 13.2471 18.0388 12.357 21.0519 11.4764C30.6712 8.66167 40.2905 5.84224 49.9169 3.05121C50.4403 2.8997 51.0462 2.8784 51.5861 2.97072C62.6696 4.85035 73.7506 6.75364 84.8317 8.65457C85.1429 8.70665 85.4447 8.80371 85.9822 8.93864C83.6906 9.93763 81.6017 10.849 79.5128 11.7581C70.7257 15.5789 61.934 19.3902 53.1563 23.2394C52.35 23.5921 51.6356 23.6182 50.7892 23.4217C37.9659 20.42 25.1354 17.4514 12.3049 14.4757C12.2106 14.452 12.1258 14.3905 11.7485 14.2106Z" fill="#69D085"/>
<path d="M50.6077 26.3761C50.6077 30.3792 50.6077 34.2876 50.6077 38.3048C47.696 37.5591 44.8668 36.8324 42.0352 36.1127C30.7891 33.2531 19.5454 30.3863 8.29218 27.555C7.49057 27.3538 7.18407 27.0673 7.19822 26.2057C7.25009 22.9696 7.21944 19.7335 7.21944 16.2749C21.7757 19.6649 36.1858 23.0193 50.6077 26.3761Z" fill="#69D085"/>
<path d="M53.6068 37.791C53.6068 35.4545 53.6068 33.2387 53.6068 31.0206C53.6068 29.6523 53.5691 28.284 53.6327 26.9181C53.6492 26.5843 53.9204 26.0896 54.2033 25.9665C65.8926 20.8531 77.5961 15.7729 89.2973 10.6927C89.3609 10.6643 89.434 10.662 89.5943 10.6265C89.6297 10.9034 89.6933 11.1709 89.6933 11.4384C89.7004 13.9217 89.6792 16.405 89.7122 18.8883C89.7216 19.5203 89.4929 19.847 88.9365 20.1264C77.4523 25.8765 65.9775 31.6432 54.498 37.4052C54.2528 37.5259 53.9935 37.623 53.6068 37.791Z" fill="#69D085"/>
<path d="M87.6418 55.7734L61.415 75.1094" stroke="#226234" stroke-width="1.8255" stroke-miterlimit="10"/>
<path d="M85.7251 55.203L87.2128 56.0908L87.6112 57.7834L89.7143 54.249L85.7251 55.203Z" fill="#226234"/>
<path d="M61.4458 73.0996L61.8443 74.7922L63.332 75.68L59.3428 76.6363L61.4458 73.0996Z" fill="#226234"/>
<path d="M48.1764 76.1857L9.62842 62.936" stroke="#226234" stroke-width="1.8255" stroke-miterlimit="10"/>
<path d="M47.5469 74.2778L47.6719 76.013L46.5166 77.3056L50.6072 77.0215L47.5469 74.2778Z" fill="#226234"/>
<path d="M11.2883 61.8164L10.1331 63.1089L10.2557 64.8442L7.19775 62.1005L11.2883 61.8164Z" fill="#226234"/>
<path d="M87.9507 52.3774C88.0497 52.4413 88.2807 52.5407 88.5236 52.5407C88.9715 52.5407 89.1106 52.2543 89.1083 52.0388C89.1036 51.6767 88.7782 51.5204 88.4411 51.5204H88.2477V51.2576H88.4411C88.6957 51.2576 89.0163 51.1251 89.0163 50.8197C89.0163 50.6114 88.8843 50.4291 88.5637 50.4291C88.3562 50.4291 88.1581 50.5214 88.0473 50.5995L87.9554 50.3439C88.0898 50.2444 88.3515 50.145 88.6297 50.145C89.1389 50.145 89.3676 50.448 89.3676 50.7629C89.3676 51.0304 89.2097 51.2576 88.8914 51.3736V51.3807C89.2097 51.4447 89.4667 51.6838 89.4667 52.0459C89.4667 52.4602 89.146 52.8224 88.5259 52.8224C88.2359 52.8224 87.9813 52.7301 87.854 52.6472L87.9507 52.3774Z" fill="#69D085"/>
<path d="M91.6194 51.4565C91.6194 52.3371 91.2941 52.8248 90.7212 52.8248C90.2166 52.8248 89.8747 52.3513 89.8677 51.492C89.8677 50.6232 90.2402 50.145 90.7659 50.145C91.3106 50.145 91.6194 50.6303 91.6194 51.4565ZM90.2166 51.4967C90.2166 52.1714 90.4241 52.5525 90.74 52.5525C91.0984 52.5525 91.2681 52.1335 91.2681 51.4731C91.2681 50.8363 91.1055 50.4173 90.7447 50.4173C90.4406 50.4149 90.2166 50.7889 90.2166 51.4967Z" fill="#69D085"/>
<path d="M93.423 52.7086C93.331 52.756 93.1283 52.8199 92.8713 52.8199C92.2913 52.8199 91.9141 52.4245 91.9141 51.8351C91.9141 51.2409 92.3196 50.8101 92.9467 50.8101C93.1542 50.8101 93.3357 50.8621 93.43 50.9095L93.3499 51.1817C93.2674 51.1344 93.1353 51.0894 92.9444 51.0894C92.5035 51.0894 92.2654 51.4161 92.2654 51.8185C92.2654 52.2659 92.5506 52.5405 92.9326 52.5405C93.1306 52.5405 93.2626 52.4885 93.3617 52.4459L93.423 52.7086Z" fill="#69D085"/>
<path d="M93.8305 51.3714C93.8305 51.1725 93.8258 51.0092 93.814 50.8482H94.1205L94.137 51.1583H94.1488C94.2548 50.976 94.434 50.8032 94.7523 50.8032C95.014 50.8032 95.2121 50.9618 95.2969 51.1891H95.304C95.363 51.0826 95.4384 50.9973 95.5186 50.9382C95.6341 50.8506 95.7614 50.8032 95.9429 50.8032C96.1976 50.8032 96.5748 50.9713 96.5748 51.6412V52.7775H96.2329V51.6862C96.2329 51.3146 96.0985 51.092 95.8156 51.092C95.6176 51.092 95.462 51.2388 95.403 51.4116C95.3865 51.459 95.3747 51.5229 95.3747 51.5868V52.7799H95.0329V51.6247C95.0329 51.3169 94.8985 51.0944 94.6321 51.0944C94.4128 51.0944 94.2549 51.2696 94.1983 51.4448C94.1794 51.4968 94.17 51.556 94.17 51.6152V52.7799H93.8281V51.3714H93.8305Z" fill="#69D085"/>
<path d="M0.0941394 59.8217C0.193162 59.8856 0.424214 59.985 0.667054 59.985C1.11501 59.985 1.25411 59.6986 1.25176 59.4832C1.24704 59.121 0.921683 58.9647 0.584535 58.9647H0.388849V58.702H0.582178C0.836806 58.702 1.15745 58.5694 1.15745 58.264C1.15745 58.0557 1.02542 57.8734 0.704777 57.8734C0.497301 57.8734 0.299257 57.9658 0.188446 58.0439L0.0964971 57.7882C0.230884 57.6888 0.492586 57.5894 0.770791 57.5894C1.28005 57.5894 1.50874 57.8924 1.50874 58.2072C1.50874 58.4747 1.35078 58.702 1.03249 58.818V58.8251C1.35078 58.889 1.60777 59.1281 1.60777 59.4903C1.60777 59.9046 1.28712 60.2668 0.667054 60.2668C0.37706 60.2668 0.122432 60.1744 -0.00488281 60.0916L0.0941394 59.8217Z" fill="#69D085"/>
<path d="M3.76493 58.9008C3.76493 59.7815 3.43958 60.2691 2.86666 60.2691C2.36212 60.2691 2.02026 59.7957 2.01318 58.9363C2.01318 58.0675 2.3857 57.5894 2.91146 57.5894C3.45372 57.5894 3.76493 58.0747 3.76493 58.9008ZM2.36212 58.9411C2.36212 59.6157 2.56959 59.9969 2.88552 59.9969C3.24389 59.9969 3.41364 59.5779 3.41364 58.9174C3.41364 58.2806 3.25096 57.8616 2.89024 57.8616C2.5861 57.8592 2.36212 58.2356 2.36212 58.9411Z" fill="#69D085"/>
<path d="M5.56848 60.153C5.47653 60.2003 5.27377 60.2642 5.01679 60.2642C4.4368 60.2642 4.05957 59.8689 4.05957 59.2794C4.05957 58.6852 4.46509 58.2544 5.09223 58.2544C5.29971 58.2544 5.48125 58.3065 5.57555 58.3538L5.49539 58.6261C5.41287 58.5787 5.28084 58.5337 5.08987 58.5337C4.64899 58.5337 4.41086 58.8604 4.41086 59.2629C4.41086 59.7103 4.69614 59.9849 5.07809 59.9849C5.27613 59.9849 5.40816 59.9328 5.50718 59.8902L5.56848 60.153Z" fill="#69D085"/>
<path d="M5.97646 58.8181C5.97646 58.6193 5.97175 58.456 5.95996 58.295H6.26646L6.28296 58.6051H6.29475C6.40085 58.4228 6.58003 58.25 6.89831 58.25C7.16002 58.25 7.35806 58.4086 7.44294 58.6359H7.45001C7.50895 58.5293 7.5844 58.4441 7.66456 58.3849C7.78008 58.2973 7.9074 58.25 8.08894 58.25C8.34357 58.25 8.7208 58.4181 8.7208 59.088V60.2243H8.37893V59.133C8.37893 58.7613 8.24455 58.5388 7.96163 58.5388C7.76358 58.5388 7.60797 58.6856 7.54903 58.8584C7.53253 58.9057 7.52074 58.9697 7.52074 59.0336V60.2267H7.17888V59.0715C7.17888 58.7637 7.04449 58.5412 6.77807 58.5412C6.55881 58.5412 6.40085 58.7164 6.34426 58.8915C6.3254 58.9436 6.31597 59.0028 6.31597 59.062V60.2267H5.97411V58.8181H5.97646Z" fill="#69D085"/>
<path d="M94.3705 5.50624V4.80079H93.1704V4.56879L94.321 2.91406H94.6982V4.52381H95.0589V4.79842H94.6982V5.50387H94.3705V5.50624ZM94.3705 4.52618V3.66212C94.3705 3.52719 94.3752 3.38989 94.3823 3.25495H94.3705C94.2903 3.40646 94.2266 3.51772 94.1559 3.63845L93.5241 4.51908V4.52618H94.3705Z" fill="#69D085"/>
<path d="M96.8672 3.21005H95.8817L95.7827 3.87525C95.8416 3.86815 95.8982 3.85868 95.9925 3.85868C96.1905 3.85868 96.3886 3.90366 96.5489 3.99835C96.7517 4.11435 96.9191 4.33687 96.9191 4.66356C96.9191 5.17016 96.5182 5.54892 95.9571 5.54892C95.6742 5.54892 95.4361 5.46843 95.3135 5.39031L95.4007 5.12281C95.5068 5.18673 95.719 5.26722 95.9524 5.26722C96.2825 5.26722 96.563 5.05179 96.563 4.70617C96.5583 4.37238 96.3367 4.13092 95.8204 4.13092C95.6742 4.13092 95.5587 4.14749 95.462 4.15933L95.6294 2.9165H96.8648V3.21005H96.8672Z" fill="#69D085"/>
<path d="M98.8453 5.43518C98.7534 5.48253 98.5506 5.54644 98.2936 5.54644C97.7137 5.54644 97.3364 5.15111 97.3364 4.56165C97.3364 3.96747 97.7419 3.53662 98.3691 3.53662C98.5766 3.53662 98.7581 3.5887 98.8524 3.63605L98.7722 3.90828C98.6897 3.86094 98.5577 3.81596 98.3667 3.81596C97.9258 3.81596 97.6877 4.14265 97.6877 4.54508C97.6877 4.9925 97.973 5.2671 98.3549 5.2671C98.553 5.2671 98.685 5.21502 98.784 5.17241L98.8453 5.43518Z" fill="#69D085"/>
<path d="M99.2558 4.09989C99.2558 3.90103 99.251 3.73769 99.2393 3.57672H99.5458L99.5623 3.88683H99.574C99.6801 3.70455 99.8593 3.53174 100.178 3.53174C100.439 3.53174 100.637 3.69035 100.722 3.91761H100.729C100.788 3.81108 100.864 3.72586 100.944 3.66667C101.059 3.57908 101.187 3.53174 101.368 3.53174C101.623 3.53174 102 3.69982 102 4.36976V5.50605H101.658V4.41473C101.658 4.04307 101.524 3.82055 101.241 3.82055C101.043 3.82055 100.887 3.96732 100.828 4.14013C100.812 4.18748 100.8 4.25139 100.8 4.31531V5.50842H100.458V4.35319C100.458 4.04544 100.324 3.82291 100.057 3.82291C99.8381 3.82291 99.6801 3.99809 99.6236 4.17327C99.6047 4.22535 99.5953 4.28453 99.5953 4.34372V5.50842H99.2534V4.09989H99.2558Z" fill="#69D085"/>
<path d="M97.438 11.6733V44.2732" stroke="#226234" stroke-width="1.8255" stroke-miterlimit="10"/>
<path d="M95.8442 12.8875L97.438 12.2058L99.0318 12.8875L97.438 9.09277L95.8442 12.8875Z" fill="#226234"/>
<path d="M95.8442 43.0586L97.438 43.738L99.0318 43.0586L97.438 46.8533L95.8442 43.0586Z" fill="#226234"/>
<path d="M46.4256 83.33C46.395 82.7524 46.3572 82.0564 46.3643 81.5379H46.3455C46.204 82.0232 46.0319 82.5417 45.8244 83.1145L45.0959 85.1267H44.6904L44.0231 83.1501C43.8275 82.5653 43.6624 82.0303 43.5445 81.5379H43.5327C43.521 82.054 43.4903 82.75 43.4526 83.3726L43.3418 85.1504H42.8325L43.1202 81.0029H43.8015L44.5065 83.0104C44.6786 83.5217 44.82 83.9762 44.9238 84.4071H44.9426C45.0464 83.9881 45.1949 83.5336 45.3788 83.0104L46.1144 81.0029H46.7958L47.0528 85.1504H46.5317L46.4256 83.33Z" fill="#226234"/>
<path d="M48.4793 83.8456L48.0502 85.1499H47.4985L48.9013 81.0024H49.545L50.9549 85.1499H50.3843L49.9434 83.8456H48.4793ZM49.8326 83.4265L49.4271 82.2334C49.3352 81.9636 49.2739 81.7174 49.2126 81.4759H49.2008C49.1395 81.7221 49.0711 81.9754 48.9933 82.2263L48.5878 83.4265H49.8326Z" fill="#226234"/>
<path d="M53.739 85.1498L53.2109 84.2337C52.9964 83.8834 52.862 83.6561 52.7323 83.4146H52.7205C52.605 83.6537 52.4871 83.8762 52.2726 84.2384L51.7751 85.1498H51.1621L52.4258 83.0501L51.2116 81H51.8317L52.3763 81.9729C52.5296 82.2428 52.6451 82.4535 52.7559 82.6737H52.7748C52.8903 82.4275 52.9964 82.2357 53.1496 81.9729L53.7131 81H54.3261L53.0695 83.0193L54.3568 85.1498H53.739Z" fill="#226234"/>
<g clip-path="url(#clip1_700_2892)">
<path d="M58.7334 80.8748H57.0003L56.824 81.9652C56.9273 81.951 57.0277 81.9397 57.1949 81.9397C57.5445 81.9397 57.8942 82.0106 58.1739 82.1668C58.5296 82.3571 58.8246 82.7234 58.8246 83.2572C58.8246 84.0864 58.1192 84.7054 57.1341 84.7054C56.6385 84.7054 56.2189 84.5748 56 84.4441L56.1551 84.0069C56.3436 84.1119 56.7145 84.2425 57.128 84.2425C57.7087 84.2425 58.2043 83.8904 58.2043 83.3225C58.1982 82.7745 57.806 82.3826 56.8969 82.3826C56.6385 82.3826 56.4348 82.4082 56.2676 82.4281L56.5625 80.3921H58.7364V80.8748H58.7334Z" fill="#226234"/>
<path d="M60.4116 82.9248H60.4268C60.5119 82.814 60.6305 82.6777 60.7278 82.567L61.722 81.4766H62.4639L61.1565 82.7771L62.6463 84.637H61.8984L60.7308 83.1235L60.4177 83.4501V84.6398H59.8096V80H60.4177V82.9248H60.4116Z" fill="#226234"/>
<path d="M65.9998 81.4765C65.9846 81.7036 65.9725 81.9592 65.9725 82.3425V84.1769C65.9725 84.901 65.8174 85.3468 65.489 85.6194C65.1607 85.9062 64.6864 85.9971 64.2577 85.9971C63.8533 85.9971 63.4033 85.9062 63.1327 85.7358L63.2878 85.2985C63.5128 85.4292 63.8624 85.5456 64.282 85.5456C64.9114 85.5456 65.3735 85.2389 65.3735 84.441V84.0889H65.3583C65.1698 84.3814 64.8049 84.617 64.282 84.617C63.4428 84.617 62.8408 83.9497 62.8408 83.0752C62.8408 82.0046 63.5888 81.397 64.3641 81.397C64.9509 81.397 65.2732 81.6838 65.4191 81.945H65.4343L65.4617 81.468H65.9998V81.4765ZM65.3613 82.723C65.3613 82.6265 65.3553 82.5413 65.3279 82.4618C65.2154 82.1296 64.9144 81.8541 64.4675 81.8541C63.8807 81.8541 63.4611 82.317 63.4611 83.0496C63.4611 83.6686 63.7955 84.1854 64.4614 84.1854C64.8384 84.1854 65.182 83.9639 65.3157 83.5976C65.3492 83.5011 65.3644 83.3875 65.3644 83.291V82.723H65.3613Z" fill="#226234"/>
</g>
</g>
<defs>
<clipPath id="clip0_700_2892">
<rect width="102" height="87" fill="white"/>
</clipPath>
<clipPath id="clip1_700_2892">
<rect width="10" height="6" fill="white" transform="translate(56 80)"/>
</clipPath>
</defs>
</svg>
