<svg width="12" height="12" viewBox="0 0 12 12" fill="none" xmlns="http://www.w3.org/2000/svg">
<path d="M7.42648 0.545936C8.76258 0.545936 9.84648 1.61661 9.84648 2.9364V11.3481C9.84648 11.4064 9.79819 11.4541 9.73916 11.4541H1.30404C1.24502 11.4541 1.19673 11.4064 1.19673 11.3481V0.651944C1.19673 0.59364 1.24502 0.545936 1.30404 0.545936H7.42648ZM7.42648 0H1.30404C0.939165 0 0.644043 0.291519 0.644043 0.651944V11.3428C0.644043 11.7032 0.939165 11.9947 1.30404 11.9947H9.7338C10.0987 11.9947 10.3938 11.7032 10.3938 11.3428V2.9364C10.3992 1.31449 9.06843 0 7.42648 0Z" fill="#636363"/>
<path d="M10.6832 9.69443C10.6617 9.69443 10.6403 9.67853 10.6403 9.65203C10.6403 9.45591 10.5973 9.3234 10.5115 9.2386C10.4095 9.13789 10.2486 9.11669 9.95344 9.11669H1.04076C0.761735 9.11669 0.595394 9.13789 0.488077 9.2439C0.407589 9.3181 0.364662 9.45591 0.364662 9.64673C0.364662 9.66793 0.343199 9.68913 0.321735 9.68913C0.300272 9.68913 0.278809 9.66793 0.278809 9.64673V7.87111C0.278809 7.08666 0.810028 6.44531 1.4593 6.44531H9.54564C10.2003 6.44531 10.7261 7.08666 10.7261 7.87111V9.64673C10.7261 9.67853 10.7047 9.69443 10.6832 9.69443Z" fill="#F8FBFF"/>
<path d="M9.54049 6.7266C10.0341 6.7266 10.4473 7.25134 10.4473 7.87678V8.89975C10.2971 8.85204 10.1307 8.84674 9.94829 8.84674H9.85707H1.14293H1.03561C0.863902 8.84674 0.697561 8.85204 0.547317 8.89975V7.87678C0.547317 7.25134 0.960488 6.7266 1.45415 6.7266H9.54049ZM9.54049 6.18066H1.45951C0.654634 6.18066 0 6.94391 0 7.87678V9.6524C0 9.82731 0.144878 9.96512 0.321951 9.96512C0.499024 9.96512 0.643902 9.82201 0.643902 9.6524C0.643902 9.52519 0.665366 9.45628 0.686829 9.44038C0.729756 9.39798 0.890732 9.39268 1.04098 9.39268C1.07317 9.39268 1.11073 9.39268 1.14293 9.39268H9.8678C9.89463 9.39268 9.92683 9.39268 9.95902 9.39268C10.1146 9.39268 10.2863 9.39798 10.3239 9.44038C10.3454 9.46158 10.3668 9.52519 10.3668 9.6524C10.3668 9.82731 10.5117 9.96512 10.6888 9.96512C10.8659 9.96512 11.0107 9.82201 11.0107 9.6524V7.87678C11 6.94391 10.3454 6.18066 9.54049 6.18066Z" fill="#636363"/>
</svg>
