<svg width="262" height="178" viewBox="0 0 262 178" fill="none" xmlns="http://www.w3.org/2000/svg">
<g clip-path="url(#clip0_783_623)">
<path d="M244.94 173.12H136.86L153.92 158.274H262L244.94 173.12Z" fill="#FCFCFD"/>
<path d="M262 158.274V163.154L244.94 178V173.12L262 158.274Z" fill="#DDE6F0"/>
<path d="M244.94 173.12H136.86V178H244.94V173.12Z" fill="#DDE6F0"/>
<path d="M165.657 158.274L149.56 173.12H234.593L252.101 158.274H165.657Z" fill="#69D085"/>
<path d="M251.437 163.781C251.138 163.482 250.18 163.959 249.301 164.846C248.415 165.733 247.939 166.693 248.238 166.987C248.537 167.286 249.494 166.809 250.374 165.922C251.259 165.035 251.735 164.075 251.437 163.781Z" fill="#226234"/>
<path d="M152.852 163.781C152.553 163.482 151.595 163.959 150.716 164.846C149.83 165.733 149.354 166.693 149.653 166.987C149.952 167.286 150.909 166.809 151.789 165.922C152.669 165.035 153.145 164.075 152.852 163.781Z" fill="#4271E9"/>
<path opacity="0.43" d="M182.871 168.772C188.72 168.772 193.462 168.045 193.462 167.147C193.462 166.25 188.72 165.522 182.871 165.522C177.022 165.522 172.28 166.25 172.28 167.147C172.28 168.045 177.022 168.772 182.871 168.772Z" fill="#4271E9"/>
<path opacity="0.43" d="M217.56 168.772C225.732 168.772 232.357 168.045 232.357 167.147C232.357 166.25 225.732 165.522 217.56 165.522C209.388 165.522 202.764 166.25 202.764 167.147C202.764 168.045 209.388 168.772 217.56 168.772Z" fill="#4271E9"/>
<path d="M200.086 111.548C200.086 111.548 207.656 121.042 208.906 123.476L202.808 126.083L196.395 119.7L200.086 111.548Z" fill="#32934D"/>
<path d="M172.274 161.863L194.707 146.64C194.707 146.64 199.793 125.955 200.7 121.791C201.608 117.626 201.696 113.406 199.77 111.143C197.845 108.881 196.395 108.082 196.395 108.082L185.782 104.6C185.782 104.6 180.713 103.374 177.238 105.354C173.763 107.328 171.699 111.659 171.04 118.53C170.382 125.401 170.006 137.49 170.1 140.03C170.194 142.57 170.542 146.097 170.083 147.888C169.629 149.674 169.159 154.382 169.347 156.167C169.541 157.953 170.786 161.447 172.274 161.863Z" fill="#226234"/>
<path d="M190.513 111.47C190.43 111.398 182.594 106.956 185.383 104.511L190.513 111.47Z" fill="#B4E7C2"/>
<path d="M193.921 112.563C193.921 112.563 197.496 111.359 196.826 108.359L193.921 112.563Z" fill="#B4E7C2"/>
<path d="M188.963 102.941C188.963 102.941 187.27 102.431 186.108 103.535L188.46 104.173L188.963 102.941Z" fill="#B4E7C2"/>
<path d="M196.4 104.073C196.4 104.073 196.361 104.089 196.295 104.128C196.112 104.267 195.686 104.688 195.288 105.908C195.177 106.247 195.067 106.646 194.967 107.123C194.386 109.857 194.386 109.857 194.386 109.857C194.386 109.857 193.822 111.526 191.636 111.06C189.456 110.594 187.021 107.933 188.117 104.45L192.604 93.0483L196.4 104.073Z" fill="#F8D4C4"/>
<path d="M196.295 104.134C196.112 104.273 195.686 104.694 195.288 105.914C194.569 105.31 192.217 103.086 192.35 99.9805L196.295 104.134Z" fill="#F2B098"/>
<path d="M207.417 97.8672C207.113 98.8044 206.725 99.6861 206.266 100.49C205.895 101.156 205.48 101.771 205.021 102.326C204.147 103.407 203.123 104.289 202 104.904C199.853 106.086 197.684 105.664 195.907 104.572C194.292 103.579 193.008 102.032 192.366 100.64C192.327 100.557 192.294 100.479 192.261 100.407C191.824 99.3534 191.58 97.4069 191.746 95.2442C192.051 91.3124 193.711 86.6875 198.06 85.4896C204.8 83.643 207.993 89.621 208.031 89.9038C208.153 90.7301 208.214 91.5509 208.225 92.3383C208.253 94.3181 207.959 96.1869 207.417 97.8672Z" fill="#F8D4C4"/>
<path d="M198.979 97.7286C198.813 98.5216 198.032 99.0262 197.241 98.8599C196.45 98.6935 195.946 97.9116 196.112 97.1186C196.278 96.3256 197.058 95.8209 197.85 95.9873C198.641 96.1592 199.145 96.9356 198.979 97.7286Z" fill="#F8CAB5"/>
<path d="M200.174 97.1072C199.93 97.5231 199.438 97.6895 199.073 97.4732C198.707 97.257 198.613 96.7468 198.857 96.3309C199.1 95.9149 199.2 96.658 199.565 96.8743C199.925 97.085 200.417 96.6913 200.174 97.1072Z" fill="#411F20"/>
<path d="M198.89 93.5749C199.183 93.4917 199.427 93.4473 199.703 93.4141C199.969 93.3808 200.24 93.3752 200.517 93.3808C201.064 93.3974 201.629 93.5194 202.16 93.7579C202.464 93.891 202.597 94.2514 202.464 94.5509C202.332 94.8559 201.972 94.989 201.673 94.8559C201.657 94.8503 201.64 94.8392 201.629 94.8337H201.623C201.275 94.6396 200.871 94.5065 200.439 94.4511C200.223 94.4233 200.002 94.4122 199.786 94.4178C199.57 94.4233 199.332 94.4455 199.144 94.4788L199.111 94.4843C198.857 94.5287 198.613 94.3623 198.563 94.1072C198.513 93.8688 198.663 93.6414 198.89 93.5749Z" fill="#39414C"/>
<path d="M206.266 100.491C205.896 101.156 205.481 101.772 205.021 102.326C204.866 102.343 204.711 102.337 204.545 102.304C203.754 102.138 203.245 101.356 203.417 100.563C203.583 99.7697 204.363 99.265 205.154 99.4369C205.713 99.5589 206.122 99.9804 206.266 100.491Z" fill="#F8CAB5"/>
<path d="M205.392 99.47C205.148 99.8859 204.656 100.052 204.291 99.836C203.926 99.6197 203.831 99.1096 204.075 98.6936C204.318 98.2777 204.418 99.0208 204.783 99.2371C205.143 99.4478 205.635 99.0541 205.392 99.47Z" fill="#411F20"/>
<path d="M205.713 95.4716C205.885 95.6103 206.023 95.7323 206.172 95.8709C206.316 96.0096 206.455 96.1537 206.587 96.3035C206.847 96.614 207.102 96.9523 207.257 97.3959C207.34 97.6233 207.218 97.8784 206.991 97.9616C206.775 98.0392 206.543 97.9394 206.449 97.7398L206.438 97.712C206.322 97.4736 206.111 97.224 205.868 96.9967C205.746 96.8857 205.619 96.7748 205.486 96.675C205.353 96.5752 205.209 96.4698 205.082 96.3922C204.817 96.2314 204.734 95.8875 204.9 95.6214C205.06 95.3552 205.403 95.272 205.669 95.4384C205.68 95.4439 205.696 95.455 205.713 95.4716Z" fill="#39414C"/>
<path d="M199.195 102.209C199.51 102.315 199.814 102.437 200.102 102.592C200.423 102.764 200.788 102.964 200.921 103.036C201.164 103.174 201.48 103.252 201.624 102.947C201.768 102.642 201.425 102.038 200.589 101.677C200.091 101.461 198.641 101.084 198.442 101.55C198.315 101.855 198.818 102.082 199.195 102.209Z" fill="#F2B098"/>
<path d="M200.18 88.4897C200.18 88.4897 204.501 89.7596 204.789 91.5563L206.289 88.107L202.935 85.7446L200.395 86.277L200.18 88.4897Z" fill="#3D4652"/>
<path d="M190.413 98.6326C190.413 98.6326 192.488 97.9284 193.927 95.7822C193.927 95.7822 192.045 94.4458 193.147 92.5603C194.248 90.6748 196.594 91.6176 195.886 93.4365C195.886 93.4365 198.365 92.832 200.18 88.4843C200.18 88.4843 202.703 86.7264 203.793 88.2293C204.883 89.7321 205.481 96.9801 205.481 96.9801C205.481 96.9801 206.864 94.4846 207.152 93.5197C207.152 93.5197 207.545 97.8341 208.718 99.5643C208.718 99.5643 208.956 96.8747 209.26 95.8821C209.565 94.8894 209.908 91.7007 209.205 90.7192C209.205 90.7192 211.584 91.5843 213.056 90.8356C213.056 90.8356 210.118 89.8042 209.238 88.7117C208.358 87.6192 204.208 83.754 201.646 83.5322C199.084 83.3104 197.618 85.2069 197.618 85.2069C197.618 85.2069 195.399 84.3973 193.883 86.0831C192.372 87.769 191.736 91.0131 191.442 92.2387C191.149 93.4698 190.413 98.6326 190.413 98.6326Z" fill="#4C5765"/>
<path d="M195.288 105.914C195.288 105.914 196.378 106.019 196.732 107.228C197.081 108.443 196.616 111.532 192.593 113.251L192.936 109.84C192.936 109.846 195.022 107.478 195.288 105.914Z" fill="#226234"/>
<path d="M192.936 109.846C192.936 109.846 193.805 111.337 192.593 113.256L192.936 109.846Z" fill="#B4E7C2"/>
<path d="M192.593 113.251C192.593 113.251 194.071 110.239 191.691 107.189C189.312 104.139 187.868 102.692 186.423 103.357C184.979 104.023 184.747 106.175 186.423 107.816C188.106 109.458 192.593 113.251 192.593 113.251Z" fill="#226234"/>
<path d="M184.011 167.835C184.011 167.835 190.297 167.935 196.788 160.631C203.278 153.328 210.798 140.656 210.798 140.656L214.213 167.885H227.537C227.537 167.885 226.287 162.744 221.5 161.857C221.5 161.857 218.424 126.077 216.487 123.953C214.55 121.824 210.904 121.286 208.402 123.953L184.011 167.835Z" fill="#48455A"/>
<path d="M172.274 161.862C172.274 161.862 176.923 168.534 184.011 167.835C191.099 167.136 198.769 153.278 203.301 143.141L208.231 167.885H223.061C223.061 167.885 220.737 163.177 215.159 162.361C215.159 162.361 211.324 129.515 210.162 125.905C209 122.295 206.328 121.092 203.887 121.519C201.447 121.946 172.274 161.862 172.274 161.862Z" fill="#525464"/>
<path d="M204.009 130.386C204.009 130.386 207.39 127.48 208.176 126.981C208.967 126.482 209.089 126.565 209.758 126.981C210.422 127.397 212.503 129.271 212.088 130.652C212.088 130.652 212.796 133.697 212.547 134.573C212.298 135.449 211.922 135.865 211.922 135.865C211.922 135.865 210.588 134.49 209.924 134.695C209.26 134.906 207.251 136.031 204.822 134.861L199.482 135.571V130.735L204.009 130.386Z" fill="#F8D4C4"/>
<path d="M189.893 130.569C189.893 130.569 183.806 108.692 182.511 107.067C181.211 105.442 179.213 104.488 176.806 105.614C174.399 106.74 171.151 109.995 172.451 114.465C173.752 118.94 182.19 135.771 183.812 137.479C185.433 139.187 204.828 135.283 204.828 135.283L203.942 130.159L189.893 130.569Z" fill="#32934D"/>
<path d="M218.047 132.077C218.047 132.077 215.054 133.946 215.264 134.473C215.474 135 219.646 133.774 220.067 132.582C220.482 131.39 219.862 127.286 218.269 126.881C216.68 126.476 214.379 126.593 214.478 127.059C214.578 127.525 217.759 128.329 217.759 128.329C217.759 128.329 213.919 129.881 214.046 130.258C214.174 130.636 217.942 130.319 217.942 130.319C217.942 130.319 213.626 132.288 213.814 132.637C214.002 132.992 218.047 132.077 218.047 132.077Z" fill="#F8D4C4"/>
<path d="M163.946 113.994C147.462 152.602 103.958 169.188 69.8659 166.36C60.5586 165.589 41.8332 164.036 27.2082 150.178C-0.874315 123.56 3.45288 67.9326 30.3346 35.1808C33.7986 30.9606 57.7586 2.70623 95.0987 3.08333C122.44 3.36061 141.624 18.8381 143.959 20.7624C146.909 23.1969 153.411 28.9864 159.265 38.1698C173.032 59.7474 174.244 89.8651 163.946 113.994Z" fill="url(#paint0_linear_783_623)"/>
<path d="M52.9834 10.4535C48.9827 10.8028 45.9172 14.1579 45.9061 18.1839C45.8342 42.7894 45.7235 127.669 47.3227 157.704C47.4942 160.881 50.095 163.382 53.2712 163.415C68.9974 163.587 114.245 163.898 139.926 162.251C145.271 161.907 149.432 157.465 149.427 152.097C149.394 125.645 148.962 50.0928 145.194 18.1007C144.884 15.4832 142.77 13.4425 140.147 13.2373C125.179 12.0395 76.2352 8.42934 52.9834 10.4535Z" fill="#226234"/>
<path d="M52.2196 24.6333C51.9098 45.6785 51.0299 115.696 52.5682 141.538C52.7951 145.315 55.7223 148.298 59.3357 148.426C74.2208 148.947 112.385 149.951 134.138 147.555C138.055 147.123 141.049 143.723 141.148 139.603C141.691 118.125 143.163 52.9099 141.669 27.3561C141.431 23.2802 138.321 20.025 134.425 19.7643C118.312 18.6774 76.9267 16.1653 58.4337 17.7125C54.9642 18.0009 52.275 20.9899 52.2196 24.6333Z" fill="#B4E7C2"/>
<path d="M88.1819 14.1135C88.193 14.6958 88.6578 15.1672 89.2388 15.1838C92.1052 15.2725 100.173 15.5165 103.775 15.6496C104.484 15.6773 105.031 15.023 104.882 14.3242C104.871 14.3021 104.777 13.4092 103.869 13.3427C101.429 13.1708 94.0696 12.716 89.2056 12.9933C88.2041 13.0599 88.1487 14.1967 88.1819 14.1135Z" fill="#69D085"/>
<path d="M87.3796 63.2469L84.5797 59.8918C83.8216 58.9824 83.5671 57.7679 83.8769 56.6255C84.6516 53.7529 85.0777 50.8304 85.1773 47.919C85.216 46.7379 85.8192 45.6454 86.8097 44.9966L90.4729 42.612C92.0167 41.6082 92.7527 39.7339 92.31 37.9427L90.9819 32.5968C90.5393 30.8056 89.012 29.4968 87.1749 29.3305L82.8256 28.9423C81.6469 28.8369 80.6066 28.1548 80.0201 27.1289C78.5703 24.6002 76.8273 22.2211 74.802 20.0417C73.9996 19.1766 73.651 17.9788 73.9 16.8253L74.8075 12.5497C75.1893 10.7475 74.387 8.89525 72.8099 7.94697L68.1009 5.10766C66.5239 4.15383 64.5208 4.31465 63.1042 5.49585L59.762 8.30188C58.86 9.06161 57.6426 9.31671 56.5027 9.00616C53.6364 8.22979 50.7202 7.80278 47.8151 7.70296C46.6365 7.66414 45.5464 7.05968 44.899 6.06704L42.5196 2.3959C41.518 0.848705 39.6477 0.111151 37.8604 0.554792L32.5261 1.88572C30.7388 2.32936 29.4329 3.85992 29.2669 5.70103L28.8795 10.0598C28.7744 11.241 28.0938 12.2836 27.0701 12.8714C24.5468 14.3243 22.1729 16.0711 19.9982 18.1008C19.135 18.9049 17.9398 19.2543 16.7888 19.0047L12.5225 18.0953C10.7241 17.7126 8.87592 18.5167 7.92969 20.0972L5.09654 24.8164C4.14478 26.3969 4.30525 28.4044 5.48388 29.824L8.28383 33.1791C9.04192 34.083 9.29646 35.303 8.98659 36.4454C8.2119 39.318 7.78582 42.2404 7.68622 45.1518C7.64748 46.333 7.04433 47.4255 6.05383 48.0743L2.39066 50.4589C0.846814 51.4571 0.110859 53.3315 0.553539 55.1227L1.88158 60.4686C2.32426 62.2598 3.8515 63.5685 5.68862 63.7349L10.038 64.123C11.2166 64.2284 12.2569 64.9105 12.8434 65.9364C14.2932 68.4652 16.0363 70.8442 18.0615 73.0236C18.8639 73.8887 19.2125 75.0865 18.969 76.24L18.0615 80.5156C17.6797 82.3179 18.4821 84.1701 20.0591 85.1184L24.7681 87.9577C26.3452 88.9115 28.3483 88.7507 29.7649 87.5695L33.1126 84.7635C34.0201 84.0037 35.232 83.7486 36.3719 84.0592C39.2382 84.8356 42.1544 85.2626 45.0595 85.3624C46.2381 85.4012 47.3282 86.0057 47.9756 86.9983L50.355 90.6694C51.3566 92.2166 53.2269 92.9542 55.0142 92.5106L60.3485 91.1796C62.1358 90.736 63.4417 89.2054 63.6077 87.3643L63.9951 83.0055C64.1002 81.8243 64.7808 80.7818 65.8045 80.194C68.3278 78.741 70.7017 76.9942 72.8763 74.9645C73.7396 74.1604 74.9348 73.8111 76.0858 74.0606L80.3521 74.9701C82.1505 75.3527 83.9987 74.5486 84.9449 72.9681L87.778 68.2489C88.7132 66.6684 88.5583 64.661 87.3796 63.2469ZM32.7862 75.5135C16.811 67.9605 9.97155 48.8618 17.5082 32.8519C25.0448 16.842 44.1022 9.98771 60.0774 17.5407C76.0526 25.0937 82.892 44.1925 75.3553 60.2024C67.8187 76.2123 48.7614 83.0665 32.7862 75.5135Z" fill="#226234"/>
<path d="M53.9628 93.0649C52.3803 93.0649 50.8751 92.2719 49.9843 90.9022L47.6048 87.231C47.046 86.3659 46.0831 85.828 45.0318 85.7892C42.0603 85.6838 39.1054 85.2402 36.2446 84.4694C35.2319 84.1976 34.1585 84.4305 33.3672 85.0905L30.0194 87.8965C28.47 89.1997 26.2622 89.3661 24.5302 88.3235L19.8212 85.4842C18.0892 84.4416 17.2094 82.4064 17.6299 80.4211L18.5374 76.1455C18.7532 75.1363 18.4544 74.0771 17.7406 73.3062C15.7208 71.1324 13.9446 68.7256 12.4616 66.1414C11.9359 65.2264 11.0118 64.6275 9.98814 64.5388L5.63881 64.1506C3.62462 63.9731 1.94243 62.5313 1.45549 60.5627L0.127447 55.2168C-0.359501 53.2481 0.453923 51.1852 2.14717 50.0816L5.81035 47.6971C6.67357 47.137 7.21032 46.172 7.24906 45.1184C7.35419 42.1404 7.79687 39.1791 8.56603 36.3121C8.83717 35.2973 8.60476 34.2214 7.94628 33.4284L5.14633 30.0734C3.84596 28.5207 3.67995 26.308 4.72025 24.5722L7.5534 19.853C8.5937 18.1173 10.6245 17.2355 12.5999 17.657L16.8663 18.5665C17.8734 18.7827 18.9303 18.4833 19.6994 17.7679C21.8686 15.7438 24.2701 13.9637 26.8487 12.4775C27.7617 11.9507 28.3593 11.0246 28.4479 9.99863L28.8352 5.63985C29.0123 3.62129 30.451 1.93545 32.4154 1.44744L37.7497 0.11652C39.7141 -0.371486 41.7725 0.443705 42.8682 2.14063L45.2476 5.81176C45.8065 6.67687 46.7693 7.21478 47.8207 7.2536C50.7921 7.35896 53.747 7.80261 56.6078 8.57343C57.6205 8.84516 58.694 8.61225 59.4853 7.95233L62.833 5.1463C64.3824 3.84865 66.5903 3.6712 68.3223 4.7193L73.0313 7.5586C74.7633 8.60116 75.6431 10.6364 75.2225 12.6161L74.315 16.8917C74.0992 17.901 74.398 18.9602 75.1119 19.731C77.1316 21.9049 78.9078 24.3116 80.3908 26.8958C80.9165 27.8108 81.8406 28.4097 82.8643 28.4985L87.2136 28.8867C89.2278 29.0641 90.91 30.506 91.3969 32.4746L92.725 37.8205C93.2119 39.7891 92.3985 41.8465 90.7053 42.9501L87.0421 45.3347C86.1789 45.8948 85.6421 46.8597 85.6034 47.9133C85.4982 50.8913 85.0556 53.8526 84.2864 56.7196C84.0153 57.7344 84.2477 58.8103 84.9062 59.6033L87.7061 62.9583C89.0065 64.5111 89.178 66.7237 88.1322 68.4595L85.299 73.1787C84.2587 74.9145 82.2279 75.8017 80.2469 75.3747L75.9806 74.4653C74.9735 74.249 73.9166 74.5484 73.1475 75.2638C70.9783 77.2879 68.5768 79.068 65.9982 80.5542C65.0852 81.0811 64.4875 82.0072 64.399 83.0331L64.0117 87.3919C63.8346 89.4104 62.3959 91.0963 60.4315 91.5843L55.0972 92.9152C54.7265 93.015 54.3391 93.0649 53.9628 93.0649ZM35.4035 83.4989C35.7576 83.4989 36.1173 83.5433 36.4715 83.6431C39.2714 84.3973 42.1599 84.8298 45.065 84.9352C46.393 84.9796 47.6104 85.6672 48.3242 86.7652L50.7036 90.4363C51.6056 91.8283 53.2933 92.4993 54.9035 92.0945L60.2378 90.7635C61.8481 90.3643 63.0267 88.9834 63.1706 87.3253L63.5579 82.9665C63.6741 81.6633 64.4322 80.4877 65.5832 79.8222C68.1009 78.3693 70.4527 76.628 72.572 74.6483C73.5403 73.7443 74.885 73.3617 76.1632 73.6334L80.4296 74.5429C82.0509 74.8867 83.7165 74.1658 84.5686 72.7406L87.4018 68.0214C88.2539 66.5962 88.1156 64.7828 87.0532 63.5129L84.2532 60.1578C83.4121 59.1541 83.1188 57.7899 83.4674 56.5033C84.22 53.6973 84.6516 50.8025 84.7567 47.8911C84.801 46.5602 85.4872 45.3402 86.5828 44.6248L90.246 42.2403C91.6349 41.3363 92.3044 39.645 91.9005 38.0312L90.5724 32.6853C90.174 31.0716 88.7962 29.8904 87.1417 29.7462L82.7924 29.358C81.492 29.2416 80.3189 28.4818 79.6549 27.3284C78.2051 24.8052 76.4676 22.4483 74.4921 20.3244C73.5901 19.3539 73.2083 18.0064 73.4795 16.7253L74.387 12.4497C74.73 10.8249 74.0107 9.15571 72.5886 8.3017L67.8796 5.4624C66.4575 4.60839 64.648 4.74703 63.3808 5.81176L60.0331 8.6178C59.0315 9.46072 57.6703 9.75463 56.3865 9.40526C53.5866 8.65107 50.6981 8.21852 47.793 8.11315C46.465 8.06879 45.2476 7.38115 44.5338 6.28313L42.1544 2.612C41.2524 1.22008 39.5647 0.54907 37.9544 0.953893L32.6201 2.28482C31.0099 2.68409 29.8313 4.06493 29.6874 5.72304L29.3 10.0818C29.1838 11.385 28.4257 12.5607 27.2748 13.2261C24.757 14.679 22.4053 16.4203 20.286 18.4001C19.3176 19.3096 17.973 19.6866 16.6947 19.4149L12.4284 18.5055C10.8071 18.1616 9.14151 18.8825 8.28935 20.3077L5.4562 25.027C4.60405 26.4522 4.74238 28.26 5.80481 29.5355L8.60476 32.8905C9.44586 33.8943 9.73913 35.2585 9.39052 36.545C8.63796 39.3511 8.20635 42.2458 8.10122 45.1572C8.05695 46.4881 7.37079 47.7081 6.27516 48.4235L2.61199 50.8081C1.22308 51.712 0.553526 53.4034 0.957471 55.0171L2.28551 60.363C2.68392 61.9768 4.06176 63.158 5.71628 63.3021L10.0656 63.6903C11.366 63.8068 12.5391 64.5665 13.2031 65.72C14.6529 68.2432 16.3904 70.6 18.3659 72.724C19.2678 73.6944 19.6496 75.042 19.3785 76.323L18.471 80.5986C18.1279 82.2234 18.8473 83.8926 20.2694 84.7467L24.9784 87.586C26.4005 88.44 28.2044 88.3013 29.4771 87.2366L32.8249 84.4305C33.5498 83.8205 34.4683 83.4989 35.4035 83.4989ZM46.3819 79.007C41.7559 79.007 37.058 78.0088 32.6035 75.9015C16.4457 68.2598 9.50119 48.8672 17.1263 32.6742C24.7515 16.4813 44.1021 9.52172 60.26 17.1579C68.0899 20.8568 74.0107 27.3949 76.9324 35.5579C79.8541 43.7209 79.4335 52.5383 75.7371 60.3852C70.2147 72.1195 58.539 79.007 46.3819 79.007ZM32.9688 75.1307C48.7005 82.5728 67.542 75.7962 74.968 60.0247C78.5648 52.3886 78.9742 43.8041 76.13 35.8518C73.2858 27.8996 67.5199 21.5388 59.8947 17.9343C44.163 10.4922 25.3215 17.2688 17.8955 33.0403C10.4751 48.8062 17.2315 67.6886 32.9688 75.1307Z" fill="white"/>
<path d="M27.3687 37.6317C27.3687 37.6317 41.0862 34.1824 55.584 36.2619C59.6622 36.8498 63.2756 39.2233 65.4779 42.7169C69.4454 49.0055 75.0508 60.213 73.8667 71.903L67.6415 73.4446C67.6415 73.4446 63.342 59.5698 58.5001 53.9244C58.5001 53.9244 52.7674 67.0229 53.0552 74.2155C53.0607 74.4207 53.0773 74.6147 53.0939 74.8088C53.7524 81.8461 25.5703 76.1231 25.5703 76.1231L27.3687 37.6317Z" fill="#69D085"/>
<path d="M42.2039 25.8863L39.2822 35.2138C39.011 36.0789 39.2822 37.0106 39.9573 37.5319C41.5232 38.7408 44.6109 40.6595 48.3848 40.6041C49.0765 40.593 49.6575 40.0052 49.7073 39.2787L50.7476 23.6958L42.2039 25.8863Z" fill="url(#paint1_linear_783_623)"/>
<path d="M53.5144 15.6657C53.5144 15.6657 54.6487 23.008 53.9349 26.5183C53.2211 30.0286 53.376 32.4686 49.2038 32.1137C45.0315 31.7588 42.1928 28.8807 41.2743 24.9545C41.2743 24.9545 39.8134 18.8932 41.0253 16.8913C42.2316 14.8893 53.5144 15.6657 53.5144 15.6657Z" fill="url(#paint2_linear_783_623)"/>
<path d="M43.2829 22.8418L43.7865 22.9749C43.7865 22.9749 42.8292 18.1558 44.8489 17.8841C46.8742 17.6123 54.4938 18.0393 56.7293 15.8766C58.8819 13.7915 58.3838 10.2368 56.6076 8.8116C56.4969 8.72287 56.3309 8.73951 56.2313 8.85042L55.9823 9.12215C55.8108 9.3107 55.5009 9.19424 55.4954 8.93915C55.4898 8.70069 55.2021 8.57314 55.0305 8.73951C54.3499 9.38279 52.7286 10.2923 49.0931 10.0205C43.9303 9.63234 40.151 10.7747 39.1771 14.163C39.1162 14.3793 38.8561 14.4348 38.7012 14.2739C38.3969 13.9578 37.8435 13.6972 36.8917 14.1519C35.2428 14.9339 35.0214 18.0338 37.3455 21.2502C37.4562 21.4055 37.3953 21.6217 37.2182 21.6827C36.5874 21.8935 35.5692 22.5146 37.351 24.1727C39.1771 25.8696 40.4664 26.0748 40.9699 26.0803C41.1083 26.0803 41.2245 25.9861 41.2466 25.853L41.8553 22.7808C41.8885 22.6199 42.0434 22.5201 42.2039 22.5645L43.2829 22.8418Z" fill="#226234"/>
<path d="M43.2443 23.5073C43.2443 23.5073 43.2554 19.0099 41.0641 19.692C38.8729 20.3741 40.8041 24.6663 42.276 25.2209L43.2443 23.5073Z" fill="url(#paint3_linear_783_623)"/>
<path d="M27.4573 65.6701C26.8486 61.3668 31.292 55.0449 33.1346 52.6493C33.6603 51.9616 33.9536 51.1243 33.9647 50.2592C34.02 44.1702 31.4635 40.255 27.3798 37.6265C27.3798 37.6265 12.539 54.9562 16.3184 68.2821C16.7278 69.7184 17.3587 70.955 18.161 72.0198C18.742 67.0011 24.5356 65.9031 27.4573 65.6701Z" fill="#69D085"/>
<path d="M27.7339 64.0064L27.1694 63.9398C27.6508 59.7197 31.3417 54.5124 32.9077 52.4717L33.3614 52.821C31.8176 54.8285 28.1931 59.9304 27.7339 64.0064Z" fill="#226234"/>
<path d="M27.5734 66.2692C27.5236 66.0751 27.4849 65.8754 27.4572 65.6758C24.5411 65.9087 18.7475 67.0012 18.1499 72.0254C24.7735 80.804 43.0285 77.6375 43.0285 77.6375V74.2214C43.0285 74.2159 29.0066 71.6095 27.5734 66.2692Z" fill="url(#paint4_linear_783_623)"/>
<path d="M41.2744 76.689C41.2744 76.689 43.9692 70.3172 48.717 72.5742C53.4647 74.8367 53.094 76.3119 53.094 76.3119L41.2744 76.689Z" fill="url(#paint5_linear_783_623)"/>
<path d="M40.6656 78.0143C40.7043 78.4967 41.1138 78.8627 41.5952 78.8461L66.2082 77.9865C66.59 77.9755 66.922 77.7204 67.0382 77.3544L67.7521 75.0641C67.9291 74.504 67.5252 73.9217 66.9386 73.894L57.9633 73.417C57.8803 73.4115 57.8028 73.417 57.7198 73.4392L41.3684 77.066C40.9312 77.1547 40.6324 77.5651 40.6656 78.0143Z" fill="#32934D"/>
<path d="M57.1665 77.1106L57.8416 73.9497L67.0604 74.3933L66.4517 77.0164L57.1665 77.1106Z" fill="#32934D"/>
<path d="M52.4352 43.0719C51.915 47.3419 49.5688 64.7049 48.8938 69.6626C48.7997 70.3614 49.353 70.9714 50.0558 70.9547L89.8748 69.8123C90.395 69.7957 90.8376 69.4297 90.9538 68.9195L97.1458 40.9646C97.3118 40.227 96.7253 39.5338 95.9672 39.5782L53.4976 42.0737C52.9498 42.1069 52.5071 42.5284 52.4352 43.0719Z" fill="#32934D"/>
<path d="M68.4436 60.6014L62.5615 77.3378L76.2459 77.6262L77.3858 60.6957C77.4411 59.9027 76.7826 59.2428 75.9913 59.2927L69.6001 59.7197C69.0689 59.7641 68.6152 60.1079 68.4436 60.6014Z" fill="#32934D"/>
<path d="M57.0114 77.5815C56.862 78.0418 57.2051 78.5132 57.6865 78.5132H79.1177C79.5106 78.5132 79.826 78.1916 79.826 77.8034V76.8828C79.826 76.478 79.4885 76.1563 79.0845 76.173L57.6533 77.0935C57.36 77.1046 57.1055 77.2987 57.0114 77.5815Z" fill="#32934D"/>
<path d="M51.8379 60.7346L51.5557 60.7014L53.5145 45.2405C53.6363 44.2811 54.422 43.5435 55.3848 43.4825L92.083 41.2588L92.0996 41.5416L55.4014 43.7654C54.577 43.8153 53.9019 44.4475 53.7967 45.2737L51.8379 60.7346Z" fill="#B4E7C2"/>
<path d="M50.9996 65.1024L50.5791 68.4478L50.8591 68.4831L51.2797 65.1377L50.9996 65.1024Z" fill="#B4E7C2"/>
<path d="M49.6078 28.2489C45.1865 28.5817 42.6134 24.0011 42.5913 23.9567L42.8901 23.7959C42.9123 23.8403 45.3802 28.2323 49.5856 27.9162L49.6078 28.2489Z" fill="#32934D"/>
<path d="M51.4059 28.077C51.4059 28.3377 51.1957 28.5539 50.9301 28.5539H49.6629C49.4028 28.5539 49.187 28.3432 49.187 28.077C49.187 27.8164 49.3973 27.6001 49.6629 27.6001H50.9301C51.1957 27.6001 51.4059 27.8108 51.4059 28.077Z" fill="#32934D"/>
<path d="M42.896 18.8714C42.896 18.8714 44.4841 10.7139 49.1599 9.94308C49.1599 9.94308 47.8374 9.27761 46.454 9.99853C45.0762 10.725 41.5846 14.6956 41.7284 19.071C42.6747 19.4148 42.896 18.8714 42.896 18.8714Z" fill="#32934D"/>
<path d="M42.0824 18.4831C39.6532 18.9766 39.952 22.0599 39.952 22.0599C39.775 24.2948 40.4279 25.4039 41.2635 25.9307C41.8334 26.2911 42.5528 26.3244 43.1504 26.0194C43.7535 25.7144 44.1519 25.1155 44.2017 24.4445C44.246 23.8345 44.2958 23.2577 44.3456 23.0526C44.4508 22.5535 44.5116 17.9895 42.0824 18.4831Z" fill="#32934D"/>
<path d="M42.3037 19.2652C41.8001 19.1765 41.3021 19.4482 41.0974 19.9196C39.642 23.2913 41.4294 25.4873 42.3037 25.5317C43.2277 25.5816 43.2056 21.1285 43.0119 19.9917C42.9289 19.5092 42.6301 19.3207 42.3037 19.2652Z" fill="#32934D"/>
<path d="M138.874 142.88C140.114 143.13 147.169 147.333 147.169 142.525C147.169 142.071 147.169 137.152 147.169 137.152C147.169 137.152 138.515 142.808 138.874 142.88Z" fill="#226234"/>
<path d="M143.351 133.847C143.351 133.847 140.252 128.601 139.865 123.454C139.478 118.308 140.108 116.057 139.527 114.559C138.946 113.062 136.119 107.383 135.991 109.091C135.864 110.8 136.893 112.58 136.893 112.58C136.893 112.58 135.101 114.01 135.405 115.657C135.709 117.304 136.34 117.471 136.34 117.471C136.34 117.471 136.44 121.031 136.6 121.031C136.761 121.031 133.756 138.899 137.115 139.287C140.479 139.675 143.191 142.071 143.351 133.847Z" fill="url(#paint6_linear_783_623)"/>
<path d="M134.492 114.387C134.458 114.149 132.289 109.418 132.677 108.875C133.064 108.337 133.457 107.855 134.066 109.452C134.674 111.049 135.405 115.391 135.167 115.419C134.934 115.446 134.602 115.236 134.492 114.387Z" fill="url(#paint7_linear_783_623)"/>
<path d="M114.167 165.972C114.167 165.972 112.529 164.607 110.349 164.807C108.827 165.073 107.045 166.421 105.894 167.419C105.695 167.591 105.629 167.868 105.723 168.112C105.822 168.356 106.066 168.511 106.331 168.506C109.181 168.445 114.759 168.279 114.759 167.857C114.764 167.291 114.167 165.972 114.167 165.972Z" fill="#226234"/>
<path d="M115.296 163.565L113.99 166.044C113.99 166.044 111.035 166.288 111.129 165.123C111.223 163.959 111.954 162.55 111.954 162.55L115.296 163.565Z" fill="url(#paint8_linear_783_623)"/>
<path d="M148.702 165.251C146.654 154.038 145.16 146.834 145.16 146.834C145.16 146.834 122.445 132.15 120.115 135.743C117.791 139.337 111.124 163.859 111.124 163.859L115.567 165.073C115.567 165.073 124.061 153.539 124.836 143.695C127.021 150.877 129.063 168.035 145.89 168.528C146.726 168.55 147.528 168.195 148.071 167.563C148.624 166.925 148.851 166.077 148.702 165.251Z" fill="#32934D"/>
<path d="M99.5973 164.973L96.8859 167.546L94.75 165.411L97.561 162.156L99.5973 164.973Z" fill="url(#paint9_linear_783_623)"/>
<path d="M159.31 109.119L161.573 117.487C161.678 117.87 161.551 118.286 161.252 118.513C160.162 119.34 157.312 120.987 153.4 119.389C152.952 119.206 152.647 118.746 152.609 118.219L152.072 110.933L159.31 109.119Z" fill="url(#paint10_linear_783_623)"/>
<path d="M146.046 102.37C146.046 102.37 146.489 110.289 149.283 112.951C152.077 115.613 158.07 114.298 160.549 108.575L157.478 98.1553L146.046 102.37Z" fill="url(#paint11_linear_783_623)"/>
<path d="M156.587 105.248C156.355 105.304 156.128 105.137 156.111 104.893C156.067 104.161 155.918 102.708 155.453 101.688C155.453 101.688 155.823 100.684 152.819 101.993C149.814 103.296 145.304 105.204 142.875 103.634C140.512 102.098 138.564 95.233 145.011 97.0242C145.254 97.0907 145.503 96.9132 145.503 96.6582C145.515 95.5601 145.841 93.0536 148.447 92.4602C150.893 91.9056 152.099 93.0979 152.581 93.7911C152.725 93.9963 153.018 94.0185 153.184 93.8355C153.975 92.9648 156.078 91.1459 158.823 92.6487C161.08 93.8854 161.324 95.366 161.208 96.2644C161.169 96.5583 161.451 96.7802 161.728 96.6803C162.475 96.4086 163.648 96.3365 164.633 97.8227C166 99.8745 163.67 101.355 162.978 101.738C162.862 101.799 162.79 101.915 162.774 102.043C162.679 103.041 162.331 107.494 159.94 109.768C159.736 109.962 159.21 109.768 159.127 109.496L157.788 105.342C157.727 105.148 157.528 105.037 157.329 105.082L156.587 105.248Z" fill="#32934D"/>
<path d="M156.261 105.814C156.261 105.814 157.644 101.715 159.083 103.207C160.527 104.699 158.308 107.522 156.471 107.938L156.261 105.814Z" fill="url(#paint12_linear_783_623)"/>
<path d="M146.046 131.617C146.046 131.617 135.692 135.987 133.756 133.752C131.819 131.517 132.881 118.99 132.881 118.99L128.521 117.82C128.521 117.82 123.159 139.93 132.267 143.235C138.88 145.631 151.485 137.828 151.485 137.828L146.046 131.617Z" fill="url(#paint13_linear_783_623)"/>
<path d="M155.785 116.495C154.113 116.861 152.287 118.458 150.854 119.994C149.222 121.746 148.126 123.937 147.717 126.299C147.706 126.377 147.689 126.455 147.678 126.532C144.076 130.492 140.899 133.054 138.769 133.997C142.515 139.331 144.546 141.355 144.546 141.355C144.546 141.355 144.978 141.261 145.703 141.073C145 147.439 144.618 152.363 144.618 152.363C144.618 152.363 151.939 159.645 160.803 161.719C168.877 155.763 170.111 138.721 170.111 138.721C170.736 118.513 161.423 115.253 155.785 116.495Z" fill="#69D085"/>
<path d="M160.792 161.724C160.792 161.724 157.157 172.554 139.223 166.482C130.524 163.537 118.35 146.474 118.35 146.474C118.35 146.474 115.346 154.731 99.6472 165.8L96.1611 162.661C96.1611 162.661 112.053 135.211 120.193 138.055C128.333 140.906 163.282 154.698 160.792 161.724Z" fill="#32934D"/>
<path d="M98.2087 166.293C97.5447 166.299 94.7558 165.073 94.7558 165.073L92.155 165.772C89.8863 165.423 87.9441 166.193 86.6326 166.981C86.3449 167.153 86.2065 167.497 86.2951 167.818C86.3836 168.14 86.6714 168.367 87.0034 168.373C89.5709 168.417 93.7819 168.456 95.9178 168.328C99.1107 168.134 99.5976 168.229 98.2087 166.293Z" fill="#226234"/>
<path d="M149.277 140.263C149.299 140.263 149.316 140.263 149.338 140.257C149.449 140.23 160.527 137.407 162.535 129.028C162.568 128.895 162.485 128.756 162.353 128.723C162.22 128.689 162.082 128.773 162.048 128.906C160.112 136.985 149.327 139.736 149.222 139.764C149.089 139.797 149.006 139.936 149.039 140.069C149.061 140.185 149.161 140.263 149.277 140.263Z" fill="#226234"/>
<path d="M126.219 107.705C126.142 107.511 126.158 107.294 126.258 107.117C126.357 106.934 126.534 106.812 126.734 106.773L131.786 105.808C131.979 105.769 132.173 105.886 132.234 106.08L136.118 118.635C136.135 118.69 136.13 118.746 136.102 118.796C136.074 118.846 136.03 118.885 135.975 118.901L131.753 120.171C131.404 120.276 131.039 120.093 130.906 119.761L126.219 107.705Z" fill="#226234"/>
<path d="M127.813 107.827C127.774 107.716 127.779 107.594 127.84 107.494C127.901 107.394 128.001 107.322 128.117 107.306L131.47 106.74C131.664 106.707 131.852 106.823 131.913 107.012L135.211 117.709C135.228 117.765 135.222 117.826 135.194 117.875C135.167 117.925 135.117 117.964 135.062 117.975L132.057 118.702C131.952 118.729 131.847 118.668 131.808 118.569L127.813 107.827Z" fill="#32934D"/>
<path d="M129.434 106.79C129.44 106.829 129.512 106.851 129.584 106.834L130.685 106.601C130.762 106.585 130.812 106.54 130.806 106.501L130.801 106.463C130.795 106.424 130.723 106.402 130.652 106.418L129.55 106.651C129.473 106.668 129.423 106.712 129.429 106.751L129.434 106.79Z" fill="url(#paint14_linear_783_623)"/>
<path d="M128.471 118.064C128.405 117.509 126.54 113.96 127.265 112.602C127.99 111.243 128.283 108.914 128.986 109.568C129.688 110.222 128.814 112.507 129.13 113.184C129.445 113.866 130.657 115.591 130.812 116.938C130.972 118.286 131.869 120.204 129.976 120.471C128.089 120.737 128.471 118.064 128.471 118.064Z" fill="url(#paint15_linear_783_623)"/>
<path d="M148.441 126.232C148.519 126.232 148.602 126.194 148.646 126.122C150.057 124.064 154.191 118.923 156.388 119.85C156.515 119.905 156.664 119.844 156.714 119.717C156.769 119.589 156.708 119.439 156.581 119.389C153.571 118.108 148.453 125.523 148.231 125.839C148.154 125.955 148.181 126.11 148.298 126.188C148.342 126.221 148.392 126.232 148.441 126.232Z" fill="#226234"/>
<path d="M136.871 119.284C135.941 117.992 136.545 116.489 136.766 115.924C136.788 115.874 136.805 115.818 136.821 115.785C136.677 115.43 136.307 114.254 136.428 113.5C136.473 113.223 136.655 113.156 136.733 113.14C136.866 113.112 137.27 113.034 138.492 115.009C138.564 115.125 138.531 115.28 138.409 115.352C138.293 115.424 138.138 115.391 138.066 115.269C137.685 114.648 137.187 113.966 136.91 113.716C136.866 114.415 137.242 115.508 137.297 115.63C137.369 115.757 137.325 115.868 137.231 116.112C137.015 116.656 136.506 117.925 137.275 118.99C137.358 119.101 137.33 119.262 137.22 119.34C137.175 119.373 137.126 119.389 137.076 119.389C136.998 119.384 136.921 119.351 136.871 119.284Z" fill="#69D085"/>
<g opacity="0.8">
<path d="M119.042 95C118.787 94.6895 118.389 94.5564 117.969 94.5675L79.5992 95.3715L78.6309 92.2882C78.4981 91.8557 78.0941 91.584 77.6349 91.5951L72.367 91.7337C71.8025 91.7503 71.3433 92.1441 71.3433 92.7097C71.3433 93.2753 71.8025 93.6469 72.367 93.6303L76.8712 93.5249L85.0165 119.611C85.1549 120.049 85.5644 120.354 86.0292 120.36L112.961 120.72C113.592 120.731 114.106 120.332 114.106 119.733C114.106 119.134 113.592 118.724 112.961 118.718L86.8149 118.435L84.7177 111.664L113.453 111.709C114.04 111.709 114.56 111.326 114.726 110.788L119.263 96.0925C119.374 95.7098 119.297 95.3105 119.042 95Z" fill="white"/>
<path d="M89.9691 121.968C87.7557 121.934 85.9629 123.659 85.9629 125.822C85.9629 127.985 87.7557 129.787 89.9691 129.842C92.1991 129.903 94.0197 128.173 94.0197 125.988C94.0252 123.809 92.1991 122.001 89.9691 121.968ZM89.9691 127.741C88.9344 127.718 88.0933 126.876 88.0933 125.866C88.0933 124.857 88.9344 124.047 89.9691 124.07C91.0094 124.086 91.8561 124.929 91.8561 125.944C91.8561 126.959 91.0094 127.768 89.9691 127.741Z" fill="white"/>
<path d="M107.925 122.245C105.601 122.206 103.72 123.981 103.72 126.188C103.72 128.401 105.601 130.247 107.925 130.308C110.266 130.369 112.18 128.6 112.18 126.366C112.18 124.136 110.266 122.284 107.925 122.245ZM107.925 128.162C106.841 128.135 105.955 127.275 105.955 126.238C105.955 125.201 106.835 124.375 107.925 124.397C109.015 124.419 109.906 125.279 109.906 126.321C109.901 127.364 109.015 128.19 107.925 128.162Z" fill="white"/>
</g>
<path opacity="0.83" d="M133.712 33.312L105.092 33.8777C103.598 33.9054 102.403 35.1309 102.403 36.6282V48.6287C102.403 49.699 101.828 50.6861 100.892 51.2074L96.3163 53.7694C96.0783 53.9025 96.1724 54.263 96.4435 54.263H102.608H133.673C134.968 54.263 136.014 53.2093 136.014 51.9172V35.6189C136.014 34.3435 134.984 33.312 133.712 33.312Z" fill="white"/>
<path d="M118.472 51.8397C117.675 51.8896 116.928 51.518 116.519 50.8526L109.574 39.6784C108.921 38.6303 109.276 37.1995 110.355 36.4731C111.439 35.7521 112.839 36.0128 113.492 37.0609L118.306 44.8191L124.659 31.8481C125.229 30.6835 126.601 30.1512 127.719 30.6558C128.837 31.1604 129.285 32.5136 128.715 33.6781L120.503 50.4533C120.127 51.2186 119.38 51.751 118.55 51.8341C118.528 51.8341 118.5 51.8397 118.472 51.8397Z" fill="#226234"/>
</g>
<defs>
<linearGradient id="paint0_linear_783_623" x1="180.661" y1="187.933" x2="60.4296" y2="58.441" gradientUnits="userSpaceOnUse">
<stop stop-color="#DAE3FE"/>
<stop offset="1" stop-color="#E9EFFD"/>
</linearGradient>
<linearGradient id="paint1_linear_783_623" x1="39.8424" y1="49.2591" x2="46.5753" y2="31.0673" gradientUnits="userSpaceOnUse">
<stop stop-color="#FEBBBA"/>
<stop offset="1" stop-color="#FF928E"/>
</linearGradient>
<linearGradient id="paint2_linear_783_623" x1="52.5926" y1="21.6253" x2="32.9273" y2="29.8346" gradientUnits="userSpaceOnUse">
<stop stop-color="#FEBBBA"/>
<stop offset="1" stop-color="#FF928E"/>
</linearGradient>
<linearGradient id="paint3_linear_783_623" x1="51.2603" y1="18.4326" x2="31.5943" y2="26.6417" gradientUnits="userSpaceOnUse">
<stop stop-color="#FEBBBA"/>
<stop offset="1" stop-color="#FF928E"/>
</linearGradient>
<linearGradient id="paint4_linear_783_623" x1="25.895" y1="60.7421" x2="36.7542" y2="89.257" gradientUnits="userSpaceOnUse">
<stop stop-color="#FEBBBA"/>
<stop offset="1" stop-color="#FF928E"/>
</linearGradient>
<linearGradient id="paint5_linear_783_623" x1="39.3173" y1="55.6304" x2="50.1765" y2="84.1452" gradientUnits="userSpaceOnUse">
<stop stop-color="#FEBBBA"/>
<stop offset="1" stop-color="#FF928E"/>
</linearGradient>
<linearGradient id="paint6_linear_783_623" x1="139.011" y1="122.758" x2="139.498" y2="135.675" gradientUnits="userSpaceOnUse">
<stop stop-color="#FEBBBA"/>
<stop offset="1" stop-color="#FF928E"/>
</linearGradient>
<linearGradient id="paint7_linear_783_623" x1="135.672" y1="109.172" x2="129.705" y2="119.316" gradientUnits="userSpaceOnUse">
<stop stop-color="#FEBBBA"/>
<stop offset="1" stop-color="#FF928E"/>
</linearGradient>
<linearGradient id="paint8_linear_783_623" x1="114.732" y1="162.076" x2="110.862" y2="166.932" gradientUnits="userSpaceOnUse">
<stop stop-color="#FEBBBA"/>
<stop offset="1" stop-color="#FF928E"/>
</linearGradient>
<linearGradient id="paint9_linear_783_623" x1="96.0911" y1="161.383" x2="98.5269" y2="169.91" gradientUnits="userSpaceOnUse">
<stop stop-color="#FEBBBA"/>
<stop offset="1" stop-color="#FF928E"/>
</linearGradient>
<linearGradient id="paint10_linear_783_623" x1="157.416" y1="120.731" x2="156.242" y2="110.187" gradientUnits="userSpaceOnUse">
<stop stop-color="#FEBBBA"/>
<stop offset="1" stop-color="#FF928E"/>
</linearGradient>
<linearGradient id="paint11_linear_783_623" x1="151.033" y1="111.163" x2="156.997" y2="96.2392" gradientUnits="userSpaceOnUse">
<stop stop-color="#FEBBBA"/>
<stop offset="1" stop-color="#FF928E"/>
</linearGradient>
<linearGradient id="paint12_linear_783_623" x1="154.711" y1="113.324" x2="160.675" y2="98.4008" gradientUnits="userSpaceOnUse">
<stop stop-color="#FEBBBA"/>
<stop offset="1" stop-color="#FF928E"/>
</linearGradient>
<linearGradient id="paint13_linear_783_623" x1="131.841" y1="110.339" x2="145.158" y2="156.958" gradientUnits="userSpaceOnUse">
<stop stop-color="#FEBBBA"/>
<stop offset="1" stop-color="#FF928E"/>
</linearGradient>
<linearGradient id="paint14_linear_783_623" x1="129.731" y1="106.451" x2="130.451" y2="107.586" gradientUnits="userSpaceOnUse">
<stop stop-color="#8D55D1"/>
<stop offset="0.9964" stop-color="#1C2873"/>
</linearGradient>
<linearGradient id="paint15_linear_783_623" x1="129.377" y1="118.758" x2="131.907" y2="144.008" gradientUnits="userSpaceOnUse">
<stop stop-color="#FEBBBA"/>
<stop offset="1" stop-color="#FF928E"/>
</linearGradient>
<clipPath id="clip0_783_623">
<rect width="262" height="178" fill="white"/>
</clipPath>
</defs>
</svg>
