<svg width="237" height="183" viewBox="0 0 237 183" fill="none" xmlns="http://www.w3.org/2000/svg">
<g clip-path="url(#clip0_783_65)">
<path d="M163.861 113.636C147.384 152.126 103.905 168.656 69.8344 165.835C60.5301 165.065 41.8115 163.514 27.1983 149.701C-0.873394 123.175 3.45192 67.7213 30.3201 35.0698C33.7779 30.8624 57.7321 2.69305 95.0531 3.07165C122.38 3.34645 141.556 18.7776 143.89 20.7012C146.835 23.1316 153.335 28.9022 159.187 38.0559C172.945 59.5569 174.155 89.5826 163.861 113.636Z" fill="url(#paint0_linear_783_65)"/>
<path d="M52.9543 10.4237C48.9589 10.7718 45.8921 14.1181 45.8798 18.1301C45.8126 42.66 45.6966 127.272 47.2972 157.212C47.4682 160.381 50.0707 162.873 53.2475 162.903C68.9665 163.074 114.187 163.386 139.858 161.743C145.203 161.401 149.363 156.974 149.357 151.625C149.327 125.257 148.893 49.939 145.124 18.0507C144.812 15.4372 142.704 13.4098 140.084 13.2022C125.11 11.9992 76.1937 8.40245 52.9543 10.4237Z" fill="#226234"/>
<path d="M52.1905 24.5544C51.8851 45.5363 51.0053 115.334 52.5387 141.097C52.7648 144.865 55.6911 147.833 59.3016 147.961C74.1775 148.48 112.323 149.481 134.06 147.094C137.976 146.666 140.963 143.271 141.067 139.167C141.611 117.758 143.077 52.7481 141.586 27.2717C141.348 23.2109 138.245 19.9684 134.347 19.7058C118.237 18.6188 76.8778 16.1213 58.3914 17.6601C54.9335 17.941 52.2455 20.921 52.1905 24.5544Z" fill="#B4E7C2"/>
<path d="M88.1372 14.0694C88.1494 14.6495 88.6137 15.1197 89.1941 15.1319C92.0593 15.2174 100.117 15.4678 103.722 15.596C104.43 15.6204 104.974 14.9731 104.827 14.277C104.815 14.2526 104.724 13.3671 103.813 13.2999C101.376 13.129 94.0203 12.671 89.1574 12.9519C88.1555 13.019 88.1005 14.1487 88.1372 14.0694Z" fill="#69D085"/>
<path d="M87.3308 63.0438L84.5328 59.7035C83.7753 58.7998 83.5248 57.5846 83.8303 56.4487C84.6 53.5848 85.0338 50.672 85.1315 47.7653C85.1743 46.5867 85.773 45.4937 86.7627 44.8525L90.4221 42.477C91.9677 41.4756 92.7008 39.607 92.261 37.8239L90.9353 32.499C90.4893 30.7159 88.962 29.4091 87.1292 29.2442L82.7795 28.8595C81.6004 28.7557 80.5619 28.0718 79.9754 27.052C78.5275 24.53 76.7803 22.1607 74.7581 19.9868C73.9517 19.1257 73.6096 17.935 73.854 16.7808L74.7642 12.5185C75.1491 10.7171 74.3488 8.87901 72.7727 7.92639L68.0686 5.09297C66.4924 4.14646 64.4886 4.29912 63.0774 5.48378L59.7356 8.28057C58.8315 9.03778 57.6157 9.28814 56.4794 8.98282C53.6142 8.2134 50.7001 7.77983 47.7922 7.68213C46.6131 7.63938 45.5195 7.04095 44.8781 6.05169L42.5016 2.39389C41.4997 0.848941 39.6303 0.116159 37.8464 0.555828L32.5192 1.88094C30.7231 2.32061 29.4157 3.84724 29.2569 5.67919L28.872 10.027C28.7681 11.2056 28.0839 12.2437 27.0637 12.8299C24.5406 14.2772 22.1702 16.0236 19.9953 18.0449C19.1339 18.8509 17.9426 19.1929 16.788 18.9486L12.5238 18.0388C10.7216 17.6541 8.88271 18.454 7.92968 20.0295L5.09501 24.7315C4.14809 26.307 4.30082 28.3099 5.486 29.7205L8.28401 33.0608C9.04155 33.9646 9.29203 35.1798 8.98657 36.3156C8.21681 39.1795 7.78306 42.0923 7.68531 44.999C7.64255 46.1776 7.04385 47.2707 6.05416 47.9118L2.39475 50.2873C0.849125 51.2887 0.116022 53.1573 0.555884 54.9404L1.88158 60.2653C2.32755 62.0484 3.85485 63.3552 5.68761 63.5201L10.0374 63.9048C11.2164 64.0086 12.255 64.6925 12.8415 65.7123C14.2893 68.2343 16.0366 70.6036 18.0587 72.7776C18.8651 73.6386 19.2072 74.8294 18.9629 75.9835L18.0526 80.2458C17.6677 82.0473 18.468 83.8853 20.0442 84.8379L24.7483 87.6714C26.3245 88.6179 28.3283 88.4652 29.7395 87.2805L33.0812 84.4838C33.9854 83.7265 35.2011 83.4762 36.3374 83.7815C39.2026 84.5509 42.1167 84.9845 45.0247 85.0822C46.2038 85.1249 47.2973 85.7234 47.9388 86.7126L50.3153 90.3704C51.3172 91.9154 53.1866 92.6482 54.9705 92.2085L60.2977 90.8834C62.0816 90.4376 63.3889 88.911 63.5539 87.079L63.9388 82.7312C64.0426 81.5526 64.7268 80.5145 65.7471 79.9283C68.2702 78.481 70.6405 76.7346 72.8154 74.7133C73.6768 73.9073 74.8681 73.5653 76.0227 73.8096L80.287 74.7194C82.0892 75.1041 83.928 74.3042 84.8811 72.7287L87.7157 68.0267C88.6688 66.4634 88.5099 64.4544 87.3308 63.0438ZM32.7697 75.2812C16.8063 67.7519 9.97015 48.7118 17.5028 32.7555C25.0354 16.7992 44.0839 9.96597 60.0472 17.4953C76.0105 25.0246 82.8467 44.0647 75.3141 60.0211C67.7814 75.9774 48.733 82.8106 32.7697 75.2812Z" fill="#226234"/>
<path d="M53.932 92.7704C52.3497 92.7704 50.8407 91.9766 49.9549 90.6148L47.5784 86.957C47.0164 86.096 46.0572 85.5586 45.0065 85.522C42.0374 85.4182 39.0867 84.9785 36.2276 84.2091C35.2134 83.9343 34.1443 84.1664 33.3562 84.8259L30.0145 87.6227C28.4628 88.9172 26.2574 89.0882 24.5285 88.0501L19.8244 85.2167C18.0955 84.1725 17.2096 82.1451 17.6312 80.1727L18.5414 75.9104C18.7553 74.9028 18.4559 73.8464 17.7411 73.083C15.719 70.9213 13.9473 68.5154 12.4689 65.9445C11.9435 65.0347 11.021 64.4362 9.99468 64.3446L5.64494 63.9599C3.6289 63.7828 1.94888 62.3417 1.46625 60.3815L0.140555 55.0566C-0.34818 53.0964 0.464342 51.0385 2.1627 49.9394L5.8221 47.5639C6.6835 47.0021 7.22111 46.0434 7.25776 44.9931C7.36162 42.0253 7.80148 39.0759 8.57124 36.218C8.84615 35.2043 8.614 34.1357 7.95421 33.348L5.1562 30.0077C3.86105 28.4566 3.69 26.2583 4.72856 24.524L7.56322 19.822C8.60789 18.0939 10.6361 17.2084 12.6094 17.6298L16.8736 18.5397C17.8755 18.7534 18.9385 18.4542 19.7022 17.7397C21.8648 15.7246 24.2719 13.9476 26.8438 12.4698C27.7541 11.9446 28.3528 11.0225 28.4444 9.99665L28.8293 5.64881C29.0065 3.63977 30.4483 1.96048 32.4093 1.47195L37.7365 0.146841C39.6976 -0.34168 41.7564 0.470486 42.856 2.1681L45.2325 5.8259C45.7945 6.68692 46.7537 7.22429 47.8045 7.26093C50.7735 7.36474 53.7243 7.80441 56.5834 8.57383C57.5975 8.84862 58.6666 8.61658 59.4547 7.95707L62.7964 5.16029C64.3482 3.86571 66.5475 3.69473 68.2825 4.73283L72.9866 7.56626C74.7155 8.61047 75.6013 10.6378 75.1798 12.6102L74.2695 16.8726C74.0557 17.8802 74.355 18.9366 75.0698 19.6999C77.0858 21.8616 78.8636 24.2676 80.342 26.8384C80.8674 27.7483 81.7899 28.3467 82.8162 28.4383L87.166 28.823C89.182 29.0001 90.8621 30.4413 91.3447 32.4014L92.6704 37.7324C93.1591 39.6926 92.3466 41.7505 90.6482 42.8497L86.9888 45.2251C86.1274 45.7869 85.5898 46.7456 85.5532 47.796C85.4493 50.7637 85.0095 53.7132 84.2397 56.571C83.9648 57.5847 84.1969 58.6533 84.8567 59.4411L87.6547 62.7814C88.9499 64.3324 89.1209 66.5308 88.0824 68.265L85.2477 72.967C84.203 74.6952 82.1748 75.5806 80.2015 75.1593L75.9373 74.2494C74.9354 74.0357 73.8724 74.3349 73.1087 75.0493C70.9461 77.0645 68.5391 78.8415 65.9671 80.3193C65.0568 80.8444 64.4581 81.7665 64.3665 82.7924L63.9816 87.1402C63.8044 89.1493 62.3627 90.8347 60.4016 91.3171L55.0744 92.6422C54.6956 92.7277 54.3108 92.7704 53.932 92.7704ZM35.3845 83.2382C35.7388 83.2382 36.0993 83.287 36.4536 83.3786C39.2516 84.1297 42.1413 84.5633 45.0431 84.6671C46.3688 84.7159 47.5906 85.3938 48.2993 86.4929L50.6758 90.1507C51.5799 91.5369 53.2661 92.2086 54.8728 91.8056L60.2 90.4805C61.8067 90.0836 62.9858 88.7035 63.1324 87.0547L63.5173 82.7069C63.6334 81.4062 64.3909 80.2338 65.5395 79.5743C68.0564 78.127 70.4085 76.3928 72.5284 74.4204C73.4997 73.5166 74.8376 73.138 76.1145 73.4128L80.3787 74.3227C81.9976 74.6646 83.6593 73.9441 84.5146 72.5274L87.3493 67.8253C88.2046 66.4086 88.064 64.6011 87.001 63.3309L84.203 59.9907C83.3661 58.9892 83.0728 57.6275 83.4149 56.3512C84.1664 53.5544 84.6001 50.666 84.704 47.7654C84.7529 46.4403 85.431 45.219 86.5306 44.5107L90.19 42.1352C91.5829 41.2315 92.2427 39.5461 91.8456 37.9401L90.5199 32.6091C90.1228 31.0031 88.7422 29.8245 87.0927 29.6779L82.7429 29.2932C81.4417 29.1772 80.2687 28.42 79.6089 27.272C78.161 24.7561 76.426 22.4051 74.4528 20.2861C73.5486 19.3152 73.1698 17.9779 73.4447 16.7016L74.355 12.4393C74.6971 10.821 73.9762 9.16006 72.5589 8.30514L67.8548 5.47172C66.4375 4.61681 64.6292 4.75726 63.3585 5.81979L60.0167 8.61658C59.0148 9.45317 57.6525 9.75239 56.3757 9.40432C53.5777 8.65321 50.688 8.21965 47.7861 8.11584C46.4604 8.06699 45.2386 7.38917 44.5299 6.28999L42.1535 2.63219C41.2493 1.23991 39.5632 0.574297 37.9565 0.977327L32.6292 2.30244C31.0225 2.69936 29.8434 4.07944 29.6968 5.72819L29.3119 10.076C29.1959 11.3767 28.4383 12.5492 27.2898 13.2087C24.7728 14.6559 22.4208 16.3902 20.3009 18.3626C19.3295 19.2663 17.9916 19.6449 16.7148 19.3701L12.4506 18.4603C10.8316 18.1183 9.16994 18.8389 8.31465 20.2556L5.47999 24.9576C4.6247 26.3743 4.76521 28.1818 5.82821 29.452L8.62622 32.7923C9.46318 33.7937 9.75642 35.1555 9.41431 36.4317C8.66288 39.2285 8.22913 42.1169 8.12527 45.0175C8.0764 46.3426 7.39828 47.5639 6.29862 48.2723L2.627 50.6538C1.24021 51.5576 0.574308 53.243 0.971405 54.849L2.2971 60.1739C2.6942 61.7799 4.07487 62.9584 5.72436 63.105L10.0741 63.4897C11.3754 63.6057 12.5483 64.3629 13.2081 65.511C14.656 68.0268 16.391 70.3779 18.3643 72.4968C19.2684 73.4678 19.6472 74.8051 19.3723 76.0813L18.462 80.3437C18.1199 81.9619 18.8408 83.6229 20.2581 84.4778L24.9622 87.3112C26.3795 88.1661 28.1879 88.0257 29.4586 86.9631L32.8003 84.1664C33.5334 83.5618 34.4498 83.2382 35.3845 83.2382ZM46.3566 78.756C41.7319 78.756 37.0401 77.7606 32.5865 75.66C16.4338 68.0452 9.49373 48.7119 17.1119 32.5663C24.7301 16.4207 44.0718 9.4837 60.2245 17.0985C68.0503 20.7869 73.964 27.3025 76.8903 35.4425C79.8105 43.5825 79.389 52.3697 75.699 60.1922C70.1763 71.8923 58.5078 78.756 46.3566 78.756ZM32.953 74.8967C48.6781 82.31 67.5127 75.5562 74.9293 59.838C78.5215 52.2232 78.9369 43.668 76.09 35.7417C73.2431 27.8155 67.4822 21.4769 59.864 17.8802C44.139 10.4668 25.3104 17.2207 17.8878 32.9388C10.4651 48.657 17.2219 67.4773 32.953 74.8967Z" fill="white"/>
<path d="M27.3571 37.5124C27.3571 37.5124 41.0723 34.0744 55.5572 36.1446C59.632 36.7308 63.2425 39.1001 65.4419 42.5808C69.4067 48.8522 75.0088 60.021 73.8237 71.6784L67.6045 73.2172C67.6045 73.2172 63.3036 59.3859 58.4652 53.7618C58.4652 53.7618 52.7347 66.8176 53.0219 73.9927C53.028 74.1942 53.0402 74.3958 53.0585 74.5851C53.7183 81.6014 25.5488 75.8919 25.5488 75.8919L27.3571 37.5124Z" fill="#69D085"/>
<path d="M42.1837 25.806L39.2635 35.1001C38.9947 35.9672 39.2635 36.8893 39.9417 37.4145C41.5056 38.6175 44.5908 40.5349 48.3662 40.48C49.0566 40.4677 49.637 39.8815 49.6858 39.1609L50.7244 23.626L42.1837 25.806Z" fill="url(#paint1_linear_783_65)"/>
<path d="M53.486 15.6204C53.486 15.6204 54.6223 22.9421 53.9076 26.4412C53.1928 29.9402 53.3516 32.3706 49.179 32.0164C45.0065 31.6622 42.1718 28.7922 41.2554 24.884C41.2554 24.884 39.7953 18.8446 41.0049 16.8417C42.2085 14.8388 53.486 15.6204 53.486 15.6204Z" fill="url(#paint2_linear_783_65)"/>
<path d="M43.2593 22.7714L43.7664 22.9057C43.7664 22.9057 42.8072 18.0999 44.8294 17.8312C46.8515 17.5625 54.4697 17.99 56.7056 15.8344C58.8622 13.7582 58.3551 10.2103 56.5834 8.78746C56.4735 8.69587 56.3085 8.72029 56.2108 8.8241L55.9603 9.09279C55.7892 9.27598 55.4777 9.15996 55.4716 8.90959C55.4655 8.67144 55.1783 8.5432 55.0073 8.70808C54.3292 9.34926 52.7102 10.2591 49.0691 9.98434C43.9069 9.59963 40.1314 10.7354 39.16 14.1123C39.0989 14.3261 38.8362 14.3871 38.6835 14.2223C38.3781 13.9047 37.8221 13.6482 36.8752 14.1001C35.2257 14.8818 35.0058 17.9717 37.3273 21.1715C37.4372 21.3241 37.3761 21.544 37.199 21.605C36.5697 21.8127 35.5495 22.4355 37.3334 24.0904C39.16 25.7819 40.443 25.9895 40.95 25.9895C41.0844 25.9895 41.2005 25.8979 41.231 25.7636L41.8359 22.7042C41.8664 22.5454 42.0252 22.4477 42.1841 22.4905L43.2593 22.7714Z" fill="#226234"/>
<path d="M43.2226 23.4308C43.2226 23.4308 43.2349 18.9486 41.0417 19.6325C38.8485 20.3165 40.7851 24.591 42.2574 25.1467L43.2226 23.4308Z" fill="url(#paint3_linear_783_65)"/>
<path d="M27.4423 65.4678C26.8375 61.1811 31.2789 54.8791 33.1116 52.4854C33.637 51.8014 33.9303 50.9649 33.9364 50.1038C33.9914 44.034 31.4377 40.1319 27.3507 37.5122C27.3507 37.5122 12.5176 54.7875 16.293 68.0753C16.7024 69.5103 17.3316 70.7439 18.1319 71.8003C18.7367 66.7929 24.5221 65.6999 27.4423 65.4678Z" fill="#69D085"/>
<path d="M27.7171 63.8067L27.1489 63.7395C27.6254 59.5321 31.3215 54.3416 32.8855 52.3081L33.3375 52.6562C31.8041 54.6591 28.1814 59.7458 27.7171 63.8067Z" fill="#226234"/>
<path d="M27.5586 66.0601C27.5097 65.8647 27.473 65.6693 27.4425 65.4678C24.5223 65.6998 18.7369 66.7929 18.1382 71.7941C24.7605 80.5448 43.0026 77.3877 43.0026 77.3877V73.9803C43.0026 73.9864 28.9942 71.385 27.5586 66.0601Z" fill="url(#paint4_linear_783_65)"/>
<path d="M41.249 76.4474C41.249 76.4474 43.9432 70.0905 48.69 72.3499C53.4369 74.6032 53.0642 76.081 53.0642 76.081L41.249 76.4474Z" fill="url(#paint5_linear_783_65)"/>
<path d="M40.6446 77.7663C40.6812 78.2487 41.0906 78.6151 41.5732 78.5967L66.1688 77.7418C66.5537 77.7296 66.8836 77.4731 66.9996 77.1129L67.7144 74.829C67.8916 74.2672 67.4884 73.6932 66.9019 73.6627L57.9336 73.1864C57.8542 73.1803 57.7686 73.1864 57.6892 73.2047L41.3471 76.8198C40.9134 76.9175 40.6079 77.3205 40.6446 77.7663Z" fill="#32934D"/>
<path d="M57.1333 76.8687L57.8114 73.7178L67.0241 74.1574L66.4193 76.771L57.1333 76.8687Z" fill="#32934D"/>
<path d="M52.411 42.9409C51.8917 47.1971 49.5458 64.503 48.8738 69.4492C48.7821 70.1454 49.332 70.756 50.0345 70.7377L89.8298 69.6019C90.3491 69.5897 90.7951 69.2233 90.905 68.7104L97.0936 40.8463C97.2586 40.1074 96.6721 39.4235 95.9146 39.4663L53.4679 41.9516C52.9242 41.976 52.4782 42.3913 52.411 42.9409Z" fill="#32934D"/>
<path d="M68.4046 60.4117L62.5215 77.1008L76.2 77.3878L77.3363 60.5094C77.3913 59.7155 76.7315 59.0621 75.9373 59.111L69.5532 59.5323C69.0339 59.5751 68.5818 59.917 68.4046 60.4117Z" fill="#32934D"/>
<path d="M56.9806 77.3391C56.8279 77.7971 57.17 78.2734 57.6526 78.2734H79.0715C79.4625 78.2734 79.7801 77.9558 79.7801 77.565V76.649C79.7801 76.246 79.4441 75.9224 79.0409 75.9407L57.6221 76.8567C57.3289 76.8628 57.0723 77.0582 56.9806 77.3391Z" fill="#32934D"/>
<path d="M51.8123 60.5462L51.5312 60.5095L53.4862 45.0967C53.6084 44.138 54.3965 43.4052 55.3556 43.3441L92.0352 41.1274L92.0535 41.4083L55.3739 43.625C54.5492 43.6739 53.8711 44.3089 53.7672 45.1272L51.8123 60.5462Z" fill="#B4E7C2"/>
<path d="M50.9691 64.8959L50.5483 68.2344L50.8332 68.2703L51.254 64.9318L50.9691 64.8959Z" fill="#B4E7C2"/>
<path d="M49.5822 28.1575C45.1653 28.4933 42.5933 23.9256 42.5688 23.8768L42.8621 23.7119C42.8865 23.7547 45.3546 28.133 49.5517 27.8155L49.5822 28.1575Z" fill="#32934D"/>
<path d="M51.3783 27.9866C51.3783 28.2491 51.1645 28.4629 50.9018 28.4629H49.6372C49.3745 28.4629 49.1606 28.2491 49.1606 27.9866C49.1606 27.724 49.3745 27.5103 49.6372 27.5103H50.9018C51.1706 27.5164 51.3783 27.724 51.3783 27.9866Z" fill="#32934D"/>
<path d="M42.8679 18.8082C42.8679 18.8082 44.4563 10.6744 49.1298 9.91105C49.1298 9.91105 47.8041 9.24544 46.4295 9.96601C45.0489 10.6866 41.5605 14.6436 41.7071 19.0098C42.6479 19.3517 42.8679 18.8082 42.8679 18.8082Z" fill="#32934D"/>
<path d="M42.0617 18.4234C39.6302 18.918 39.9296 21.9896 39.9296 21.9896C39.7524 24.2184 40.4061 25.3237 41.2369 25.8489C41.8051 26.2092 42.526 26.2397 43.1247 25.9405C43.7234 25.6351 44.1266 25.0428 44.1755 24.3711C44.2182 23.7666 44.2732 23.1864 44.316 22.9849C44.4259 22.4842 44.487 17.9348 42.0617 18.4234Z" fill="#32934D"/>
<path d="M42.2816 19.2052C41.7746 19.1197 41.2797 19.3884 41.0781 19.8525C39.6241 23.2172 41.408 25.4033 42.2816 25.4461C43.2041 25.4949 43.1858 21.0555 42.9903 19.9197C42.9109 19.4434 42.6054 19.2602 42.2816 19.2052Z" fill="#32934D"/>
<path d="M138.801 142.434C140.041 142.678 147.091 146.874 147.091 142.08C147.091 141.628 147.091 136.725 147.091 136.725C147.091 136.725 138.447 142.361 138.801 142.434Z" fill="#226234"/>
<path d="M143.279 133.427C143.279 133.427 140.181 128.2 139.79 123.071C139.406 117.941 140.035 115.694 139.454 114.204C138.874 112.714 136.045 107.047 135.917 108.751C135.789 110.454 136.821 112.225 136.821 112.225C136.821 112.225 135.031 113.648 135.337 115.291C135.642 116.933 136.272 117.098 136.272 117.098C136.272 117.098 136.369 120.646 136.528 120.646C136.687 120.646 133.687 138.459 137.047 138.85C140.401 139.241 143.114 141.628 143.279 133.427Z" fill="url(#paint6_linear_783_65)"/>
<path d="M134.42 114.033C134.39 113.795 132.221 109.075 132.606 108.544C132.997 108.006 133.388 107.53 133.999 109.118C134.61 110.711 135.337 115.035 135.099 115.065C134.866 115.09 134.53 114.876 134.42 114.033Z" fill="url(#paint7_linear_783_65)"/>
<path d="M114.108 165.45C114.108 165.45 112.47 164.088 110.289 164.29C108.768 164.559 106.99 165.896 105.842 166.897C105.64 167.068 105.573 167.349 105.671 167.587C105.768 167.826 106.013 167.984 106.282 167.984C109.129 167.923 114.706 167.758 114.706 167.337C114.706 166.769 114.108 165.45 114.108 165.45Z" fill="#226234"/>
<path d="M115.238 163.056L113.93 165.523C113.93 165.523 110.973 165.767 111.071 164.601C111.169 163.435 111.896 162.036 111.896 162.036L115.238 163.056Z" fill="url(#paint8_linear_783_65)"/>
<path d="M148.624 164.735C146.578 153.554 145.081 146.373 145.081 146.373C145.081 146.373 122.379 131.73 120.052 135.314C117.724 138.899 111.065 163.343 111.065 163.343L115.507 164.552C115.507 164.552 123.998 153.053 124.774 143.24C126.961 150.397 128.996 167.508 145.814 167.996C146.651 168.021 147.452 167.666 147.995 167.031C148.545 166.402 148.777 165.56 148.624 164.735Z" fill="#32934D"/>
<path d="M99.5431 164.461L96.8306 167.026L94.7046 164.894L97.5087 161.652L99.5431 164.461Z" fill="url(#paint9_linear_783_65)"/>
<path d="M159.224 108.775L161.49 117.117C161.594 117.502 161.466 117.911 161.166 118.137C160.079 118.961 157.226 120.604 153.316 119.01C152.87 118.827 152.565 118.369 152.522 117.844L151.984 110.577L159.224 108.775Z" fill="url(#paint10_linear_783_65)"/>
<path d="M145.973 102.046C145.973 102.046 146.419 109.935 149.211 112.592C152.003 115.248 157.996 113.935 160.47 108.226L157.397 97.8384L145.973 102.046Z" fill="url(#paint11_linear_783_65)"/>
<path d="M156.505 104.916C156.273 104.971 156.047 104.806 156.029 104.562C155.98 103.835 155.833 102.388 155.369 101.368C155.369 101.368 155.742 100.367 152.736 101.667C149.73 102.968 145.221 104.867 142.796 103.304C140.432 101.777 138.489 94.9257 144.928 96.7149C145.173 96.7821 145.417 96.605 145.423 96.3485C145.435 95.2494 145.759 92.7518 148.368 92.1656C150.811 91.616 152.021 92.8006 152.504 93.4907C152.644 93.6922 152.937 93.7166 153.108 93.5334C153.903 92.6663 156.004 90.8527 158.741 92.3488C161.002 93.5823 161.24 95.0601 161.124 95.9516C161.087 96.2447 161.368 96.4645 161.643 96.3668C162.388 96.0982 163.561 96.0249 164.551 97.5027C165.919 99.5483 163.592 101.026 162.895 101.405C162.779 101.466 162.706 101.582 162.694 101.71C162.602 102.705 162.254 107.145 159.865 109.41C159.657 109.606 159.138 109.41 159.053 109.136L157.715 104.995C157.654 104.806 157.452 104.69 157.257 104.733L156.505 104.916Z" fill="#32934D"/>
<path d="M156.175 105.484C156.175 105.484 157.556 101.399 158.998 102.889C160.44 104.379 158.222 107.187 156.389 107.609L156.175 105.484Z" fill="url(#paint12_linear_783_65)"/>
<path d="M145.973 131.205C145.973 131.205 135.624 135.558 133.687 133.336C131.751 131.107 132.814 118.619 132.814 118.619L128.458 117.453C128.458 117.453 123.1 139.497 132.203 142.789C138.813 145.176 151.41 137.397 151.41 137.397L145.973 131.205Z" fill="url(#paint13_linear_783_65)"/>
<path d="M155.699 116.134C154.031 116.5 152.204 118.094 150.775 119.621C149.144 121.367 148.05 123.553 147.641 125.904C147.629 125.984 147.616 126.057 147.604 126.136C144.006 130.081 140.829 132.634 138.697 133.58C142.442 138.899 144.47 140.914 144.47 140.914C144.47 140.914 144.904 140.822 145.625 140.633C144.922 146.978 144.537 151.887 144.537 151.887C144.537 151.887 151.85 159.148 160.715 161.212C168.785 155.277 170.019 138.288 170.019 138.288C170.648 118.143 161.338 114.894 155.699 116.134Z" fill="#69D085"/>
<path d="M160.708 161.218C160.708 161.218 157.074 172.014 139.149 165.963C130.456 163.032 118.286 146.019 118.286 146.019C118.286 146.019 115.287 154.25 99.5921 165.285L96.1038 162.152C96.1038 162.152 111.988 134.789 120.125 137.629C128.263 140.468 163.195 154.214 160.708 161.218Z" fill="#32934D"/>
<path d="M98.1564 165.773C97.4905 165.779 94.7047 164.558 94.7047 164.558L92.1083 165.254C89.8418 164.906 87.8991 165.676 86.5856 166.463C86.2985 166.634 86.1641 166.976 86.2496 167.3C86.3351 167.624 86.6284 167.85 86.9583 167.856C89.5241 167.898 93.7333 167.941 95.8716 167.813C99.0606 167.611 99.5432 167.703 98.1564 165.773Z" fill="#226234"/>
<path d="M149.199 139.821C149.217 139.821 149.241 139.821 149.26 139.815C149.37 139.79 160.446 136.975 162.449 128.622C162.48 128.487 162.401 128.353 162.266 128.322C162.132 128.292 161.997 128.371 161.967 128.506C160.03 136.56 149.254 139.302 149.144 139.332C149.009 139.363 148.93 139.503 148.96 139.638C148.985 139.748 149.083 139.821 149.199 139.821Z" fill="#226234"/>
<path d="M126.155 107.365C126.081 107.176 126.094 106.956 126.191 106.779C126.289 106.602 126.466 106.473 126.668 106.431L131.72 105.466C131.916 105.429 132.111 105.545 132.166 105.734L136.052 118.247C136.07 118.302 136.064 118.357 136.033 118.412C136.009 118.46 135.96 118.497 135.905 118.515L131.684 119.779C131.335 119.883 130.969 119.706 130.841 119.37L126.155 107.365Z" fill="#226234"/>
<path d="M127.749 107.487C127.706 107.377 127.719 107.255 127.78 107.157C127.841 107.053 127.939 106.986 128.055 106.968L131.409 106.4C131.604 106.369 131.793 106.485 131.848 106.669L135.147 117.331C135.166 117.385 135.16 117.447 135.129 117.495C135.099 117.544 135.05 117.581 134.995 117.599L131.989 118.32C131.885 118.344 131.781 118.289 131.738 118.185L127.749 107.487Z" fill="#32934D"/>
<path d="M129.362 106.455C129.368 106.492 129.435 106.516 129.515 106.498L130.614 106.266C130.688 106.248 130.743 106.205 130.737 106.168L130.731 106.131C130.724 106.095 130.657 106.07 130.578 106.089L129.478 106.321C129.405 106.339 129.35 106.382 129.356 106.419L129.362 106.455Z" fill="url(#paint14_linear_783_65)"/>
<path d="M128.403 117.697C128.336 117.141 126.473 113.606 127.2 112.25C127.927 110.894 128.214 108.574 128.916 109.227C129.619 109.881 128.745 112.158 129.063 112.836C129.381 113.514 130.584 115.236 130.743 116.58C130.902 117.923 131.8 119.834 129.906 120.097C128.024 120.36 128.403 117.697 128.403 117.697Z" fill="url(#paint15_linear_783_65)"/>
<path d="M148.362 125.837C148.441 125.837 148.521 125.8 148.57 125.727C149.981 123.675 154.111 118.552 156.304 119.474C156.432 119.529 156.579 119.468 156.634 119.34C156.689 119.211 156.628 119.065 156.499 119.01C153.487 117.734 148.374 125.122 148.154 125.44C148.075 125.556 148.105 125.709 148.221 125.788C148.264 125.825 148.313 125.837 148.362 125.837Z" fill="#226234"/>
<path d="M136.803 118.912C135.875 117.624 136.473 116.128 136.699 115.56C136.718 115.511 136.742 115.456 136.754 115.419C136.614 115.065 136.241 113.893 136.363 113.141C136.412 112.861 136.589 112.799 136.663 112.781C136.797 112.757 137.2 112.677 138.416 114.644C138.489 114.76 138.453 114.918 138.337 114.986C138.221 115.059 138.062 115.022 137.995 114.906C137.61 114.289 137.115 113.606 136.84 113.361C136.797 114.057 137.17 115.15 137.231 115.267C137.304 115.395 137.261 115.505 137.164 115.743C136.95 116.286 136.443 117.55 137.206 118.613C137.286 118.723 137.261 118.882 137.151 118.961C137.109 118.991 137.054 119.01 137.005 119.01C136.925 119.016 136.852 118.979 136.803 118.912ZM136.797 115.511C136.797 115.505 136.791 115.499 136.785 115.492C136.791 115.499 136.791 115.505 136.797 115.511Z" fill="#69D085"/>
<g opacity="0.8">
<path d="M118.976 94.7062C118.726 94.3947 118.329 94.2665 117.907 94.2726L79.5538 95.0787L78.5825 92.001C78.4481 91.5735 78.0448 91.2987 77.5867 91.3109L72.3205 91.4514C71.7585 91.4636 71.3003 91.8605 71.3003 92.4223C71.3003 92.9841 71.7585 93.3566 72.3205 93.3444L76.823 93.2406L84.9666 119.248C85.101 119.688 85.5164 119.987 85.9807 119.993L112.898 120.354C113.527 120.36 114.04 119.963 114.04 119.37C114.04 118.772 113.527 118.363 112.898 118.357L86.7627 118.076L84.6672 111.322L113.387 111.365C113.973 111.365 114.492 110.98 114.657 110.449L119.19 95.7992C119.312 95.4084 119.233 95.0176 118.976 94.7062Z" fill="white"/>
<path d="M89.9212 121.587C87.7036 121.55 85.9136 123.278 85.9136 125.428C85.9136 127.577 87.7036 129.379 89.9212 129.434C92.1511 129.495 93.9716 127.773 93.9716 125.593C93.9716 123.419 92.1511 121.624 89.9212 121.587ZM89.9212 127.345C88.8887 127.321 88.0457 126.484 88.0457 125.477C88.0457 124.469 88.8887 123.663 89.9212 123.682C90.9598 123.7 91.8089 124.543 91.8089 125.55C91.8089 126.564 90.9598 127.37 89.9212 127.345Z" fill="white"/>
<path d="M107.864 121.868C105.536 121.831 103.661 123.596 103.661 125.8C103.661 128.005 105.542 129.849 107.864 129.91C110.204 129.971 112.116 128.206 112.116 125.977C112.122 123.749 110.204 121.904 107.864 121.868ZM107.864 127.761C106.776 127.736 105.897 126.875 105.897 125.843C105.897 124.811 106.776 123.987 107.864 124.005C108.951 124.023 109.843 124.884 109.843 125.922C109.843 126.967 108.957 127.791 107.864 127.761Z" fill="white"/>
</g>
<path opacity="0.83" d="M133.645 33.207L105.041 33.7688C103.551 33.7994 102.353 35.0146 102.353 36.5107V48.4733C102.353 49.542 101.773 50.5251 100.844 51.0442L96.2685 53.5967C96.0303 53.731 96.128 54.0913 96.3968 54.0913H102.555H133.602C134.897 54.0913 135.942 53.041 135.942 51.7525V35.5092C135.942 34.239 134.915 33.207 133.645 33.207Z" fill="white"/>
<path d="M118.408 51.6793C117.608 51.7342 116.869 51.3617 116.453 50.6961L109.513 39.5578C108.866 38.5136 109.214 37.0847 110.295 36.3641C111.377 35.6436 112.782 35.9061 113.429 36.9504L118.243 44.6812L124.597 31.7537C125.165 30.5935 126.533 30.0622 127.651 30.5629C128.769 31.0637 129.215 32.4132 128.647 33.5735L120.443 50.2931C120.064 51.0564 119.319 51.5877 118.494 51.6671C118.463 51.6732 118.439 51.6732 118.408 51.6793Z" fill="#226234"/>
<path d="M194.92 137.445C193.686 142.923 197.73 149.469 193.93 151.057C188.964 142.349 189.147 136.792 189.147 136.792L187.925 137.299L186.935 133.934C186.935 133.934 189.471 131.357 192.336 131.119L194.92 137.445Z" fill="#69D085"/>
<path d="M230.567 104.947C212.612 94.6267 198.048 88.1782 198.048 88.1782L186.44 93.8329L181.455 102.559C189.116 106.254 213.223 111.383 220.902 115.309C199.001 126.924 192.336 131.119 192.336 131.119C191.914 133.788 192.745 135.913 194.92 137.446C204.212 134.429 215.911 129.458 227.366 124.628C232.272 122.558 236.151 117.16 236.151 114.088C236.475 111.01 234.068 106.956 230.567 104.947Z" fill="#FFAE9C"/>
<path d="M192.427 106.638L218.624 115.932L197.712 126.472L203.509 136.64C203.509 136.64 237 124.39 237 115.016C237 101.167 201.316 89.6743 201.316 89.6743L186.526 95.3045L192.427 106.638Z" fill="#69D085"/>
<path d="M193.802 104.647C203.338 107.383 213.993 111.004 222.992 115.169L202.618 126.527" stroke="#4B2E85" stroke-width="0.8801" stroke-miterlimit="10" stroke-linecap="round" stroke-linejoin="round"/>
<path d="M174.741 171.575C177.081 176.68 184.266 179.44 182.207 183C172.976 179.086 169.756 174.549 169.756 174.549L169.09 175.691L166.262 173.615C166.262 173.615 166.714 170.03 168.852 168.106L174.741 171.575Z" fill="#69D085"/>
<path d="M185.243 132.438C183.82 126.985 177.716 115.932 173.006 106.65C173.11 106.101 173.22 105.545 173.318 104.996C173.568 103.628 173.77 102.254 174.051 100.886C174.332 99.518 174.644 98.1501 174.937 96.7823C175.395 94.645 175.823 92.4894 176.043 90.3154L176.116 90.2788L189.232 91.0055C189.232 91.0055 193.325 104.635 197.4 129.415C197.987 132.994 197.29 136.664 195.409 139.766C189.715 149.146 182.647 160.174 174.741 171.575C172.084 171.673 170.135 170.488 168.852 168.112C168.852 168.112 174.863 154.941 185.243 132.438Z" fill="#FFAE9C"/>
<path d="M189.965 92.4524C189.965 92.4524 199.752 127.571 199.716 131.381C199.679 135.192 181.883 164.961 181.883 164.961L170.257 158.128L183.636 132.047L174.668 112.109C171.894 105.942 171.204 99.0352 172.719 92.4402L173.183 90.4067L189.965 92.4524Z" fill="#69D085"/>
<path d="M173.806 102.473C178.077 112.647 182.347 122.814 186.617 132.987C182.762 140.517 178.822 148.223 174.967 155.752" stroke="#4B2E85" stroke-width="0.8801" stroke-miterlimit="10" stroke-linecap="round" stroke-linejoin="round"/>
<path d="M225.331 66.7316C203.155 64.3745 189.941 56.6559 189.941 56.6559L206.081 51.5814C211.934 54.2255 217.683 56.3994 224.22 57.3704C223.432 45.713 221.446 34.5503 221.446 34.5503L226.816 33.0054C228.759 40.1256 231.355 50.7326 232.485 57.407C232.485 57.407 233.365 64.6066 232.601 65.7729C231.38 67.6232 225.331 66.7316 225.331 66.7316Z" fill="#FFAE9C"/>
<path d="M228.979 32.7308C230.176 31.9003 231.276 30.9232 232.229 29.818C232.345 29.6836 232.467 29.5371 232.528 29.3722C232.589 29.2012 232.583 28.9997 232.473 28.8592C232.265 28.6028 231.856 28.6944 231.544 28.8226C230.708 29.1646 229.834 29.5187 229.064 29.9828C229.981 28.9691 230.903 27.9494 231.777 26.899C231.917 26.7281 232.064 26.551 232.131 26.3433C232.198 26.1357 232.18 25.8793 232.027 25.7205C231.88 25.5678 231.636 25.5434 231.428 25.5922C231.221 25.6472 231.044 25.7693 230.866 25.8915C229.816 26.6242 228.783 27.3815 227.732 28.1142C228.679 26.7952 229.632 25.4701 230.365 24.0168C230.451 23.8458 230.536 23.6687 230.555 23.4794C230.573 23.2901 230.512 23.0825 230.353 22.9726C230.207 22.8687 229.999 22.8748 229.828 22.942C229.657 23.0092 229.516 23.1374 229.382 23.2596C228.093 24.4381 226.926 25.7266 225.893 27.1311C226.541 25.7999 227.06 24.4015 227.433 22.9664C227.506 22.6855 227.555 22.3436 227.341 22.1421C227.17 21.9833 226.883 22.0016 226.682 22.1299C226.48 22.252 226.346 22.4596 226.217 22.655C224.782 24.9083 223.596 27.3204 222.686 29.8302C222.179 28.8409 221.58 27.8456 220.652 27.241C220.365 27.0517 219.931 26.9296 219.711 27.1983C219.552 27.3876 219.595 27.6624 219.65 27.9005C219.87 28.9142 220.084 29.9279 220.304 30.9354C220.511 31.9003 220.719 32.8651 221.104 33.775C221.489 34.6848 222.063 35.5337 222.876 36.0955C223.841 36.7611 225.13 36.9565 226.217 36.529C226.95 36.242 227.561 35.6924 228.019 35.0512C228.478 34.4101 228.728 33.4758 228.979 32.7308Z" fill="#FFAE9C"/>
<path d="M208.238 51.2456L220.518 56.2774L217.561 66.1577C217.561 66.1577 210.15 65.2112 203.51 67.2141C203.546 60.9611 204.279 55.1232 208.238 51.2456Z" fill="#226234"/>
<path d="M188.744 46.3543C182.598 44.4858 176.293 41.0905 170.74 37.5182C172.939 26.0441 176.446 15.5226 176.446 15.5226L171.302 13.3364C168.51 20.1696 164.643 30.3858 162.712 36.8709C162.034 39.1487 162.682 42.3607 164.625 43.7285C182.854 56.5705 195.959 62.4328 195.959 62.4328L188.744 46.3543Z" fill="#FFAE9C"/>
<path d="M170.398 12.2007C169.555 11.01 168.864 9.70929 168.351 8.34754C168.29 8.17656 168.223 8.00558 168.223 7.82238C168.223 7.63918 168.296 7.44988 168.455 7.35828C168.742 7.1873 169.09 7.41324 169.341 7.63918C170.007 8.24984 170.703 8.87881 171.271 9.58106C170.758 8.3109 170.245 7.04075 169.787 5.74616C169.714 5.53854 169.64 5.32482 169.646 5.09887C169.652 4.87904 169.756 4.64699 169.958 4.54929C170.153 4.45769 170.386 4.51265 170.563 4.63478C170.74 4.75691 170.862 4.934 170.984 5.11109C171.717 6.16141 172.426 7.22394 173.159 8.27426C172.725 6.71099 172.286 5.13551 172.096 3.52339C172.072 3.33409 172.053 3.13868 172.102 2.95549C172.151 2.77229 172.279 2.5952 172.463 2.54635C172.64 2.4975 172.829 2.57688 172.964 2.69901C173.098 2.82114 173.19 2.98602 173.269 3.1509C174.076 4.70195 174.723 6.30796 175.206 7.98726C175.059 6.51559 175.053 5.0256 175.2 3.54782C175.23 3.26081 175.297 2.91885 175.566 2.80893C175.786 2.71733 176.043 2.83946 176.189 3.02266C176.336 3.20585 176.391 3.45012 176.44 3.67606C177.014 6.28354 177.295 8.95819 177.283 11.6328C178.101 10.8817 179.006 10.149 180.087 9.89859C180.423 9.81921 180.869 9.85585 180.985 10.1795C181.071 10.4115 180.93 10.6558 180.802 10.8573C180.246 11.7305 179.696 12.6099 179.14 13.4831C178.615 14.3136 178.083 15.1563 177.411 15.8708C176.739 16.5913 175.908 17.1898 174.949 17.4401C173.819 17.7333 172.536 17.4768 171.662 16.6951C171.076 16.17 170.691 15.4494 170.483 14.6922C170.276 13.9472 170.373 12.9885 170.398 12.2007Z" fill="#FFAE9C"/>
<path d="M183.759 43.5028C183.759 43.5028 177.79 41.7136 174.754 39.79L170.392 48.8765C170.392 48.8765 179.201 54.5067 180.881 58.9706L183.759 43.5028Z" fill="#226234"/>
<path d="M199.27 47.7589L208.244 51.2457C208.244 51.2457 201.09 68.8447 202.74 90.1626C199.722 97.93 177.075 105.411 171.937 99.3834C168.858 70.7927 183.759 43.5088 183.759 43.5088L192.806 45.7987L199.27 47.7589Z" fill="#226234"/>
<path d="M198.589 74.2764C199.457 69.5394 197.708 65.2497 194.681 64.6951C191.655 64.1406 188.497 67.5311 187.628 72.2681C186.76 77.0051 188.509 81.2948 191.536 81.8493C194.562 82.4039 197.72 79.0134 198.589 74.2764Z" fill="#69D085"/>
<path d="M185.047 33.8241C186.379 36.4011 188.053 38.807 190.039 40.9199C190.741 41.6649 191.609 42.5625 192.733 42.416C193.955 42.2572 194.511 41.1092 194.938 40.1016C196.899 35.4729 202.135 33.3356 204.157 28.7191C206.155 24.1575 203.167 19.2601 198.518 18.0754C194.761 17.1228 189.202 18.3991 187.558 22.2584C185.579 22.1363 183.746 23.7484 183.215 25.7025C182.451 28.5237 183.777 31.3754 185.047 33.8241Z" fill="#69D085"/>
<path d="M188.322 25.8243C190.509 19.846 201.396 20.1453 202.88 24.4137C205.929 33.1949 205.202 37.0969 203.009 39.6067C200.473 42.5134 198.524 42.4829 199.306 47.6734C199.331 51.2457 196.447 53.3891 192.159 45.6338C191.328 39.2037 188.536 36.926 188.536 36.926C188.536 36.926 187.418 28.2913 188.322 25.8243Z" fill="#FFAE9C"/>
<path d="M189.635 26.881C191.853 29.232 195.421 28.0778 195.421 28.0778L193.032 26.5756C193.032 26.5756 198.732 28.89 203.974 27.0031C203.974 27.0031 204.469 24.9024 201.542 21.9591C199.673 20.0783 195.073 20.231 191.328 21.5194C187.583 22.8079 186.159 24.7315 186.446 27.516C186.734 30.3006 186.972 33.7874 186.972 33.7874L188.64 34.7034C190.753 32.7921 189.635 26.881 189.635 26.881Z" fill="#69D085"/>
<path d="M196.075 33.3719C196.13 33.7444 196.484 34.007 196.857 33.952C197.229 33.8971 197.492 33.5429 197.437 33.1704C197.382 32.7979 197.028 32.5353 196.655 32.5903C196.276 32.6452 196.02 32.9933 196.075 33.3719Z" fill="#141424"/>
<path d="M196.728 33.0847C196.746 33.2252 196.875 33.3168 197.015 33.2985C197.156 33.2802 197.247 33.1519 197.229 33.0115C197.211 32.871 197.082 32.7794 196.942 32.7977C196.801 32.8161 196.71 32.9443 196.728 33.0847Z" fill="white"/>
<path d="M201.335 32.5843C201.39 32.9568 201.744 33.2194 202.117 33.1644C202.489 33.1095 202.752 32.7553 202.697 32.3828C202.642 32.0103 202.288 31.7477 201.915 31.8027C201.536 31.8576 201.28 32.2057 201.335 32.5843Z" fill="#141424"/>
<path d="M201.988 32.2971C202.006 32.4376 202.135 32.5292 202.275 32.5109C202.416 32.4926 202.507 32.3643 202.489 32.2239C202.471 32.0834 202.343 31.9918 202.202 32.0101C202.061 32.0285 201.97 32.1567 201.988 32.2971Z" fill="white"/>
<path d="M200.485 29.9889C201.249 29.2684 202.367 29.134 203.277 29.708C203.448 29.8179 203.516 30.0744 203.424 30.2576C203.332 30.4469 203.112 30.508 202.941 30.4042C202.569 30.166 202.129 30.105 201.719 30.1965C201.512 30.2454 201.316 30.3309 201.139 30.453C200.98 30.5629 200.84 30.7339 200.632 30.6545C200.583 30.6362 200.54 30.6057 200.498 30.5629C200.375 30.4225 200.339 30.1294 200.485 29.9889Z" fill="#69D085"/>
<path d="M197.834 30.386C196.765 29.9402 195.5 30.1662 194.682 30.9967C194.529 31.1554 194.535 31.418 194.694 31.5707C194.853 31.7233 195.115 31.7172 195.268 31.5585C195.604 31.2165 196.068 31.0211 196.545 30.9783C196.783 30.96 197.028 30.9783 197.26 31.0394C197.467 31.0944 197.675 31.2104 197.877 31.0638C197.926 31.0272 197.962 30.9845 197.993 30.9356C198.084 30.7646 198.036 30.4715 197.834 30.386Z" fill="#69D085"/>
<path d="M200.766 34.5507C200.803 34.5445 200.834 34.514 200.84 34.4713C200.919 33.8667 200.693 33.7018 200.491 33.6652C200.284 33.6347 200.058 33.7202 199.807 33.9217C199.771 33.9522 199.764 34.0133 199.795 34.0499C199.825 34.0866 199.887 34.0927 199.923 34.0621C200.125 33.8911 200.308 33.8179 200.461 33.8423C200.644 33.8728 200.711 34.0743 200.662 34.4468C200.656 34.4957 200.693 34.5384 200.742 34.5507C200.754 34.5568 200.76 34.5568 200.766 34.5507Z" fill="#D96B5A"/>
<path d="M197.706 35.5029C197.999 35.0877 198.714 35.5579 199.581 35.6617C200.449 35.7594 201.255 35.4602 201.445 35.9365C201.683 36.5349 200.773 37.8478 199.349 37.683C197.926 37.5181 197.339 36.0342 197.706 35.5029Z" fill="#A23F32"/>
<path d="M197.724 36.4493C197.999 36.4431 198.292 36.4554 198.598 36.492C199.612 36.608 200.455 36.9133 200.821 37.2614C200.449 37.5545 199.948 37.7499 199.349 37.6828C198.494 37.5851 197.95 37.0111 197.724 36.4493Z" fill="#D96B5A"/>
<path d="M199.526 36.1504C198.75 36.0588 198.109 35.8024 197.919 35.3566C198.28 35.2589 198.879 35.5825 199.581 35.6619C200.284 35.7413 200.943 35.5642 201.273 35.7413C200.986 36.1321 200.302 36.242 199.526 36.1504Z" fill="white"/>
<path d="M186.239 37.4757C187.308 38.4222 188.786 38.5016 189.544 37.6528C190.295 36.804 190.039 35.3445 188.963 34.398C187.894 33.4515 186.416 33.3721 185.658 34.2209C184.907 35.0697 185.17 36.5292 186.239 37.4757Z" fill="#FFAE9C"/>
<path d="M186.336 34.6605C186.691 34.3979 187.21 34.3307 187.717 34.4834C187.974 34.5567 188.163 34.6666 188.303 34.8131C188.493 35.0086 188.578 35.2772 188.523 35.5154C188.475 35.7291 188.334 35.8818 188.212 36.0161C188.12 36.1138 188.035 36.2054 187.998 36.3092C187.937 36.468 187.986 36.6634 188.12 36.7733C188.249 36.8772 188.456 36.8894 188.597 36.7978C188.682 36.7428 188.792 36.7672 188.847 36.8466C188.902 36.9321 188.878 37.042 188.798 37.097C188.707 37.158 188.603 37.1947 188.499 37.2069C188.285 37.2374 188.065 37.1825 187.894 37.0481C187.644 36.8405 187.546 36.4741 187.668 36.1749C187.735 36.01 187.851 35.8818 187.949 35.7719C188.053 35.662 188.151 35.552 188.175 35.436C188.2 35.3139 188.151 35.1673 188.047 35.0635C188.004 35.0208 187.949 34.9841 187.894 34.9475C187.717 34.9719 187.503 35.0574 187.412 35.1979C187.308 35.3566 187.277 35.5642 187.332 35.7413C187.363 35.8329 187.308 35.9367 187.216 35.9673C187.204 35.9734 187.198 35.9734 187.186 35.9734C187.1 35.9856 187.014 35.9367 186.99 35.8513C186.898 35.5642 186.941 35.2467 187.112 34.9963C187.173 34.9047 187.259 34.8315 187.35 34.7765C187.045 34.7399 186.758 34.8009 186.55 34.9536C186.294 35.1429 186.141 35.552 186.33 35.839C186.385 35.9245 186.361 36.0345 186.281 36.0894C186.196 36.1444 186.086 36.1199 186.031 36.0406C185.75 35.6192 185.89 34.9902 186.336 34.6605Z" fill="#D96B5A"/>
</g>
<defs>
<linearGradient id="paint0_linear_783_65" x1="180.566" y1="187.345" x2="60.7348" y2="57.9466" gradientUnits="userSpaceOnUse">
<stop stop-color="#DAE3FE"/>
<stop offset="1" stop-color="#E9EFFD"/>
</linearGradient>
<linearGradient id="paint1_linear_783_65" x1="39.8214" y1="49.1052" x2="46.52" y2="30.9589" gradientUnits="userSpaceOnUse">
<stop stop-color="#FEBBBA"/>
<stop offset="1" stop-color="#FF928E"/>
</linearGradient>
<linearGradient id="paint2_linear_783_65" x1="52.5659" y1="21.5581" x2="32.9254" y2="29.7779" gradientUnits="userSpaceOnUse">
<stop stop-color="#FEBBBA"/>
<stop offset="1" stop-color="#FF928E"/>
</linearGradient>
<linearGradient id="paint3_linear_783_65" x1="51.2337" y1="18.3751" x2="31.5937" y2="26.5951" gradientUnits="userSpaceOnUse">
<stop stop-color="#FEBBBA"/>
<stop offset="1" stop-color="#FF928E"/>
</linearGradient>
<linearGradient id="paint4_linear_783_65" x1="25.8813" y1="60.5517" x2="36.6855" y2="88.9962" gradientUnits="userSpaceOnUse">
<stop stop-color="#FEBBBA"/>
<stop offset="1" stop-color="#FF928E"/>
</linearGradient>
<linearGradient id="paint5_linear_783_65" x1="39.2964" y1="55.4563" x2="50.1005" y2="83.9007" gradientUnits="userSpaceOnUse">
<stop stop-color="#FEBBBA"/>
<stop offset="1" stop-color="#FF928E"/>
</linearGradient>
<linearGradient id="paint6_linear_783_65" x1="138.938" y1="122.374" x2="139.422" y2="135.251" gradientUnits="userSpaceOnUse">
<stop stop-color="#FEBBBA"/>
<stop offset="1" stop-color="#FF928E"/>
</linearGradient>
<linearGradient id="paint7_linear_783_65" x1="135.601" y1="108.831" x2="129.66" y2="118.957" gradientUnits="userSpaceOnUse">
<stop stop-color="#FEBBBA"/>
<stop offset="1" stop-color="#FF928E"/>
</linearGradient>
<linearGradient id="paint8_linear_783_65" x1="114.672" y1="161.569" x2="110.816" y2="166.419" gradientUnits="userSpaceOnUse">
<stop stop-color="#FEBBBA"/>
<stop offset="1" stop-color="#FF928E"/>
</linearGradient>
<linearGradient id="paint9_linear_783_65" x1="96.0407" y1="160.879" x2="98.4634" y2="169.382" gradientUnits="userSpaceOnUse">
<stop stop-color="#FEBBBA"/>
<stop offset="1" stop-color="#FF928E"/>
</linearGradient>
<linearGradient id="paint10_linear_783_65" x1="157.333" y1="120.353" x2="156.166" y2="109.842" gradientUnits="userSpaceOnUse">
<stop stop-color="#FEBBBA"/>
<stop offset="1" stop-color="#FF928E"/>
</linearGradient>
<linearGradient id="paint11_linear_783_65" x1="150.953" y1="110.815" x2="156.888" y2="95.9277" gradientUnits="userSpaceOnUse">
<stop stop-color="#FEBBBA"/>
<stop offset="1" stop-color="#FF928E"/>
</linearGradient>
<linearGradient id="paint12_linear_783_65" x1="154.629" y1="112.97" x2="160.564" y2="98.0826" gradientUnits="userSpaceOnUse">
<stop stop-color="#FEBBBA"/>
<stop offset="1" stop-color="#FF928E"/>
</linearGradient>
<linearGradient id="paint13_linear_783_65" x1="131.772" y1="109.994" x2="145.018" y2="156.485" gradientUnits="userSpaceOnUse">
<stop stop-color="#FEBBBA"/>
<stop offset="1" stop-color="#FF928E"/>
</linearGradient>
<linearGradient id="paint14_linear_783_65" x1="129.663" y1="106.119" x2="130.38" y2="107.252" gradientUnits="userSpaceOnUse">
<stop stop-color="#8D55D1"/>
<stop offset="0.9964" stop-color="#1C2873"/>
</linearGradient>
<linearGradient id="paint15_linear_783_65" x1="129.309" y1="118.387" x2="131.825" y2="143.559" gradientUnits="userSpaceOnUse">
<stop stop-color="#FEBBBA"/>
<stop offset="1" stop-color="#FF928E"/>
</linearGradient>
<clipPath id="clip0_783_65">
<rect width="237" height="183" fill="white"/>
</clipPath>
</defs>
</svg>
