<svg width="313" height="60" viewBox="0 0 313 60" fill="none" xmlns="http://www.w3.org/2000/svg">
<g clip-path="url(#clip0_783_473)">
<path d="M94.2578 41.5471V34.5542L97.6799 34.4617C99.2297 34.4617 100.717 34.1948 102.1 33.7019C107.124 31.9151 110.723 27.1607 110.723 21.5848C110.723 14.4891 104.878 8.70784 97.6799 8.70784H87.112V60H78.302V17.5287L95.9844 0.0102539H97.6799C109.725 0.0102539 119.533 9.68337 119.533 21.5848C119.533 30.6829 113.792 38.4871 105.699 41.6498L120.844 60H109.454L94.2578 41.5471Z" fill="white"/>
<path d="M206.396 0L184.105 37.5526V59.9897H175.285V37.7683L152.766 0H163.001L179.654 27.8898L196.161 0H206.396Z" fill="white"/>
<path d="M303.056 59.9897L269.023 13.4315L268.971 60L260.161 59.9897L260.233 0H270.011L304.159 46.5685L304.19 0L313 0.0102687L312.958 60L303.056 59.9897Z" fill="white"/>
<path d="M164.572 59.9897L130.538 13.4315L130.496 60L121.676 59.9897L121.738 0H131.526L175.441 59.9897H164.572Z" fill="white"/>
<path d="M249.291 59.9897L215.258 13.4315L215.216 60L206.396 59.9897L206.458 0H216.246L260.161 59.9897H249.291Z" fill="white"/>
<path d="M39.3798 0.26709L30.6322 8.90306H51.3623V50.9637H8.74761V30.5084L0 39.1444V59.6099H60.1099V0.26709H39.3798Z" fill="white"/>
<path d="M27.0021 0.26709L18.2545 8.91333H8.74761V18.2887L0 26.9349V0.26709H27.0021Z" fill="#FFCB05"/>
</g>
<defs>
<clipPath id="clip0_783_473">
<rect width="313" height="60" fill="white"/>
</clipPath>
</defs>
</svg>
