<svg width="84" height="73" viewBox="0 0 84 73" fill="none" xmlns="http://www.w3.org/2000/svg">
<g clip-path="url(#clip0_700_2693)">
<path d="M76.0117 11.7464V11.5471L76.2626 11.2996C76.8681 10.7171 77.1405 10.4062 77.1449 10.0449C77.1449 9.80179 77.0281 9.57624 76.6756 9.57624C76.4615 9.57624 76.282 9.68792 76.1739 9.77989L76.0723 9.55215C76.2366 9.412 76.4702 9.30908 76.7426 9.30908C77.253 9.30908 77.4671 9.66383 77.4671 10.0054C77.4671 10.4478 77.1492 10.8047 76.6518 11.2931L76.4615 11.4704V11.477H77.5255V11.7464H76.0117Z" fill="#69D085"/>
<path d="M79.4524 10.5222C79.4524 11.3369 79.154 11.788 78.6285 11.788C78.1658 11.788 77.8522 11.35 77.8457 10.5551C77.8457 9.75143 78.1874 9.30908 78.6696 9.30908C79.1692 9.30908 79.4524 9.76019 79.4524 10.5222ZM78.1679 10.5595C78.1679 11.1836 78.3582 11.5361 78.648 11.5361C78.9767 11.5361 79.1324 11.1485 79.1324 10.5376C79.1324 9.94851 78.9832 9.56091 78.6523 9.56091C78.3712 9.56091 78.1679 9.9069 78.1679 10.5595Z" fill="#69D085"/>
<path d="M81.1067 11.6806C81.0223 11.7244 80.8363 11.7835 80.6006 11.7835C80.0687 11.7835 79.7227 11.4178 79.7227 10.8725C79.7227 10.3229 80.0946 9.92432 80.6698 9.92432C80.8601 9.92432 81.0266 9.97249 81.1131 10.0163L81.0396 10.2681C80.9639 10.2243 80.8428 10.1827 80.6677 10.1827C80.2633 10.1827 80.0449 10.4849 80.0449 10.8572C80.0449 11.2711 80.3065 11.5251 80.6569 11.5251C80.8385 11.5251 80.9596 11.4769 81.0504 11.4375L81.1067 11.6806Z" fill="#69D085"/>
<path d="M81.4829 10.4455C81.4829 10.2615 81.4786 10.1104 81.4678 9.96153H81.7489L81.764 10.2484H81.7748C81.8722 10.0798 82.0365 9.91992 82.3284 9.91992C82.5685 9.91992 82.7501 10.0666 82.828 10.2769H82.8345C82.8885 10.1783 82.9577 10.0995 83.0313 10.0447C83.1372 9.96372 83.254 9.91992 83.4205 9.91992C83.6541 9.91992 84.0001 10.0754 84.0001 10.6951V11.7462H83.6865V10.7367C83.6865 10.3929 83.5632 10.1871 83.3037 10.1871C83.1221 10.1871 82.9794 10.3228 82.9253 10.4827C82.9102 10.5265 82.8993 10.5856 82.8993 10.6448V11.7484H82.5858V10.6798C82.5858 10.3951 82.4625 10.1893 82.2182 10.1893C82.017 10.1893 81.8722 10.3513 81.8203 10.5134C81.803 10.5615 81.7943 10.6163 81.7943 10.671V11.7484H81.4807V10.4455H81.4829Z" fill="#69D085"/>
<path d="M5.49474 36.3621C5.49474 39.6271 5.49474 42.8899 5.49474 46.155C5.49474 47.7097 5.58989 47.8389 7.04093 48.3229C18.7595 52.2295 30.4781 56.1427 42.2053 60.0231C42.6226 60.1611 43.2541 60.1326 43.6044 59.9005C53.0502 53.6945 62.4679 47.447 71.9028 41.2278C72.6338 40.7461 72.9041 40.1789 72.8997 39.303C72.8716 32.8649 72.9019 26.4268 72.863 19.9887C72.8587 19.1741 73.0749 18.723 73.821 18.4493C74.4892 18.204 74.9974 17.788 74.9974 16.9493C74.9909 13.6251 75.0082 10.3009 75.006 6.97679C75.006 6.28919 74.6643 5.85341 73.9745 5.73078C73.3928 5.62786 72.8111 5.51837 72.2294 5.41764C62.6517 3.75556 53.0761 2.07815 43.4941 0.448924C42.1491 0.218992 40.8234 -0.262769 39.3897 0.186145C36.0638 1.2285 32.7098 2.18546 29.3644 3.16869C20.6928 5.71545 12.0168 8.26003 3.3409 10.8046C2.62078 11.0148 2.2856 11.4769 2.29208 12.2543C2.31155 15.4886 2.32668 18.723 2.30722 21.9574C2.28776 24.7801 2.32668 24.5304 4.71192 25.1107C5.38662 25.275 5.5142 25.5837 5.50772 26.21C5.48177 29.5933 5.49474 32.9766 5.49474 36.3621Z" fill="white"/>
<path d="M5.49469 36.3618C5.49469 32.9785 5.48171 29.5931 5.50766 26.2098C5.51199 25.5835 5.38657 25.2747 4.71187 25.1105C2.32663 24.5302 2.28771 24.7798 2.30717 21.9571C2.3288 18.7228 2.31366 15.4884 2.29203 12.254C2.28771 11.4766 2.6229 11.0168 3.34084 10.8044C12.0168 8.25978 20.6927 5.7152 29.3665 3.16625C32.7119 2.18301 36.0659 1.22606 39.3918 0.183704C40.8234 -0.265211 42.1512 0.216551 43.4962 0.446483C53.0783 2.0779 62.6538 3.75312 72.2315 5.4152C72.8132 5.51593 73.3949 5.62542 73.9766 5.72834C74.6665 5.85097 75.0081 6.28675 75.0081 6.97435C75.0103 10.2985 74.993 13.6227 74.9995 16.9468C75.0016 17.7855 74.4913 18.2016 73.8231 18.4468C73.0792 18.7206 72.8608 19.1739 72.8651 19.9863C72.9062 26.4244 72.8737 32.8625 72.9019 39.3005C72.9062 40.1743 72.6359 40.7415 71.9049 41.2254C62.4678 47.4445 53.0501 53.6921 43.6065 59.898C43.254 60.1302 42.6226 60.1586 42.2074 60.0207C30.4802 56.1425 18.7616 52.2293 7.04304 48.3204C5.58984 47.8365 5.49685 47.7073 5.49685 46.1525C5.49469 42.8897 5.49469 39.6246 5.49469 36.3618ZM7.89939 25.9777C7.86046 26.2601 7.82802 26.3762 7.82802 26.4923C7.8237 32.8077 7.83451 39.1254 7.8064 45.4408C7.80424 46.1065 8.17619 46.216 8.63896 46.3693C18.4524 49.6343 28.2614 52.9037 38.0727 56.171C39.2426 56.5608 40.4147 56.9374 41.6408 57.3381C41.6408 49.7482 41.6408 42.27 41.6408 34.6756C30.4304 31.7851 19.2092 28.8923 7.89939 25.9777ZM70.5707 20.2031C70.1771 20.3739 69.9371 20.4659 69.7078 20.5819C61.3758 24.8083 53.048 29.0412 44.7094 33.2523C44.1774 33.5216 44.0174 33.8457 44.0196 34.4282C44.039 41.5802 44.0304 48.7343 44.0347 55.8863C44.0347 56.1315 44.0758 56.379 44.1061 56.7118C44.3483 56.5761 44.4802 56.5126 44.6013 56.4337C53.061 50.8475 61.5185 45.2547 69.9846 39.6772C70.4366 39.3794 70.5858 39.04 70.5837 38.5035C70.5642 34.045 70.5728 29.5843 70.5728 25.1258C70.5707 23.5426 70.5707 21.9593 70.5707 20.2031ZM8.38379 11.8182C8.69518 11.9693 8.76438 12.0197 8.84223 12.0372C19.419 14.5139 30.0001 16.9797 40.5725 19.4761C41.271 19.6403 41.8592 19.6184 42.5253 19.325C49.7631 16.1256 57.0118 12.957 64.2584 9.77733C65.9819 9.02184 67.7032 8.26416 69.5932 7.43202C69.1499 7.32034 68.9012 7.24151 68.6461 7.19552C59.5095 5.61447 50.373 4.03123 41.2343 2.46769C40.7888 2.39105 40.2893 2.40857 39.8568 2.53558C31.9204 4.85679 23.9884 7.1999 16.0563 9.54083C13.5695 10.2766 11.0869 11.0146 8.38379 11.8182ZM40.4233 21.933C28.5339 19.141 16.651 16.3512 4.64915 13.5351C4.64915 16.4125 4.6751 19.1038 4.63185 21.7929C4.62104 22.509 4.87405 22.7477 5.53362 22.9141C14.8129 25.2682 24.0835 27.6507 33.3563 30.031C35.6896 30.6288 38.023 31.2354 40.4233 31.8551C40.4233 28.5135 40.4233 25.2616 40.4233 21.933ZM42.8972 31.4259C43.2173 31.288 43.4314 31.207 43.6346 31.104C53.0999 26.3127 62.5608 21.517 72.0304 16.7344C72.4888 16.5023 72.677 16.2329 72.6705 15.7052C72.6445 13.6402 72.6618 11.5752 72.6553 9.51017C72.6553 9.28681 72.6034 9.06563 72.5732 8.8357C72.4391 8.86417 72.3785 8.86855 72.3266 8.89045C62.6776 13.1168 53.0285 17.341 43.3903 21.5914C43.1567 21.6944 42.9318 22.106 42.9188 22.382C42.8648 23.5163 42.8972 24.655 42.8972 25.7915C42.8972 27.6397 42.8972 29.4836 42.8972 31.4259Z" fill="#32934D"/>
<path d="M7.89943 25.9775C19.2093 28.8922 30.4305 31.785 41.643 34.6755C41.643 42.2698 41.643 49.7503 41.643 57.338C40.4169 56.9373 39.2426 56.5606 38.0749 56.1708C28.2637 52.9036 18.4524 49.6342 8.64116 46.3692C8.17839 46.2159 7.80644 46.1064 7.8086 45.4407C7.83672 39.1252 7.8259 32.8076 7.83023 26.4921C7.83023 26.3761 7.8605 26.26 7.89943 25.9775Z" fill="#69D085"/>
<path d="M70.5709 20.2031C70.5709 21.9572 70.5709 23.5426 70.5709 25.1259C70.5709 29.5843 70.5622 34.045 70.5817 38.5035C70.5839 39.04 70.4347 39.3794 69.9827 39.6772C61.5165 45.2547 53.059 50.8453 44.5993 56.4338C44.4782 56.5126 44.3485 56.5761 44.1041 56.7119C44.0738 56.379 44.0327 56.1338 44.0327 55.8863C44.0284 48.7344 44.0371 41.5802 44.0176 34.4282C44.0154 33.8435 44.1755 33.5216 44.7074 33.2523C53.046 29.0413 61.3738 24.8061 69.7059 20.582C69.9373 20.4659 70.1773 20.3739 70.5709 20.2031Z" fill="#69D085"/>
<path d="M8.38379 11.8185C11.0891 11.017 13.5695 10.2768 16.0542 9.54325C23.9862 7.20233 31.9161 4.85922 39.8546 2.538C40.2849 2.41099 40.7866 2.39348 41.2321 2.47012C50.3708 4.03146 59.5074 5.61471 68.6439 7.19795C68.8991 7.24175 69.1499 7.32277 69.5911 7.43445C67.7011 8.2644 65.9797 9.02427 64.2562 9.77976C57.0097 12.9572 49.761 16.1281 42.5231 19.3274C41.8592 19.6208 41.2689 19.6427 40.5704 19.4785C30.0001 16.9799 19.4212 14.5142 8.84224 12.0375C8.76439 12.0199 8.69519 11.9674 8.38379 11.8185Z" fill="#69D085"/>
<path d="M40.4231 21.9329C40.4231 25.2614 40.4231 28.5133 40.4231 31.8528C38.0228 31.2331 35.6894 30.6287 33.3561 30.0287C24.0833 27.6505 14.8127 25.2658 5.53344 22.9117C4.87388 22.7453 4.62087 22.5066 4.63168 21.7905C4.67493 19.1014 4.64898 16.4101 4.64898 13.5327C16.6508 16.351 28.5337 19.1409 40.4231 21.9329Z" fill="#69D085"/>
<path d="M42.8974 31.4257C42.8974 29.4833 42.8974 27.6395 42.8974 25.7957C42.8974 24.6591 42.8672 23.5204 42.9191 22.3861C42.9321 22.108 43.1569 21.6985 43.3905 21.5956C53.0287 17.3429 62.6778 13.1188 72.3269 8.89459C72.3788 8.87269 72.4393 8.86831 72.5734 8.83984C72.6015 9.06978 72.6534 9.29095 72.6556 9.51431C72.6621 11.5793 72.6426 13.6443 72.6707 15.7093C72.6772 16.2349 72.4912 16.5064 72.0306 16.7385C62.561 21.5189 53.1001 26.3168 43.6349 31.1082C43.4316 31.2067 43.2175 31.2877 42.8974 31.4257Z" fill="#69D085"/>
<path d="M80.291 39.1212V15.4536" stroke="#226234" stroke-width="1.4649" stroke-miterlimit="10"/>
<path d="M81.4633 38.2212L80.2912 38.7249L79.1191 38.2212L80.2912 41.0373L81.4633 38.2212Z" fill="#226234"/>
<path d="M81.4633 16.3537L80.2912 15.8501L79.1191 16.3537L80.2912 13.5376L81.4633 16.3537Z" fill="#226234"/>
<path d="M70.9621 47.0449L49.335 63.1226" stroke="#226234" stroke-width="1.6411" stroke-miterlimit="10"/>
<path d="M69.3813 46.5698L70.6075 47.3078L70.9362 48.7136L72.6683 45.7749L69.3813 46.5698Z" fill="#226234"/>
<path d="M49.3611 61.4517L49.6898 62.8597L50.9159 63.5977L47.6289 64.3926L49.3611 61.4517Z" fill="#226234"/>
<path d="M38.4184 64.8481L6.63623 53.8311" stroke="#226234" stroke-width="1.6411" stroke-miterlimit="10"/>
<path d="M37.9018 63.2622L38.0056 64.7053L37.0498 65.7805L40.4233 65.544L37.9018 63.2622Z" fill="#226234"/>
<path d="M8.00533 52.8979L7.05167 53.9753L7.15331 55.4162L4.63184 53.1366L8.00533 52.8979Z" fill="#226234"/>
<path d="M73.3279 44.1373C73.4187 44.1964 73.6307 44.2884 73.8534 44.2884C74.2643 44.2884 74.3919 44.0234 74.3897 43.8241C74.3854 43.4891 74.087 43.3446 73.7777 43.3446H73.6004V43.1015H73.7777C74.0113 43.1015 74.3054 42.9789 74.3054 42.6964C74.3054 42.5037 74.1843 42.335 73.8902 42.335C73.6999 42.335 73.5182 42.4204 73.4166 42.4927L73.3322 42.2562C73.4555 42.1642 73.6955 42.0723 73.9507 42.0723C74.4178 42.0723 74.6276 42.3526 74.6276 42.6438C74.6276 42.8913 74.4827 43.1015 74.1908 43.2088V43.2154C74.4827 43.2745 74.7184 43.4957 74.7184 43.8307C74.7184 44.2139 74.4243 44.549 73.8556 44.549C73.5896 44.549 73.356 44.4636 73.2393 44.3869L73.3279 44.1373Z" fill="#69D085"/>
<path d="M76.6927 43.2854C76.6927 44.1 76.3942 44.5511 75.8688 44.5511C75.406 44.5511 75.0924 44.1132 75.0859 43.3183C75.0859 42.5146 75.4276 42.0723 75.9098 42.0723C76.4094 42.0723 76.6927 42.5212 76.6927 43.2854ZM75.4081 43.3205C75.4081 43.9446 75.5984 44.2971 75.8882 44.2971C76.2169 44.2971 76.3726 43.9095 76.3726 43.2986C76.3726 42.7095 76.2234 42.3219 75.8926 42.3219C75.6114 42.3219 75.4081 42.6679 75.4081 43.3205Z" fill="#69D085"/>
<path d="M78.3469 44.4418C78.2625 44.4856 78.0766 44.5447 77.8409 44.5447C77.3089 44.5447 76.9629 44.179 76.9629 43.6337C76.9629 43.0841 77.3348 42.6855 77.9101 42.6855C78.1004 42.6855 78.2669 42.7337 78.3534 42.7775L78.2799 43.0293C78.2042 42.9856 78.0831 42.9439 77.9079 42.9439C77.5035 42.9439 77.2851 43.2461 77.2851 43.6184C77.2851 44.0323 77.5468 44.2863 77.8971 44.2863C78.0787 44.2863 78.1998 44.2381 78.2907 44.1987L78.3469 44.4418Z" fill="#69D085"/>
<path d="M78.7231 43.2067C78.7231 43.0228 78.7188 42.8717 78.708 42.7228H78.9891L79.0043 43.0096H79.0151C79.1124 42.841 79.2767 42.6812 79.5687 42.6812C79.8087 42.6812 79.9904 42.8279 80.0682 43.0381H80.0747C80.1288 42.9396 80.198 42.8607 80.2715 42.806C80.3775 42.725 80.4942 42.6812 80.6607 42.6812C80.8943 42.6812 81.2403 42.8366 81.2403 43.4564V44.5075H80.9267V43.498C80.9267 43.1542 80.8035 42.9483 80.544 42.9483C80.3623 42.9483 80.2196 43.0841 80.1655 43.2439C80.1504 43.2877 80.1396 43.3469 80.1396 43.406V44.5097H79.826V43.441C79.826 43.1563 79.7028 42.9505 79.4584 42.9505C79.2573 42.9505 79.1124 43.1125 79.0605 43.2746C79.0432 43.3228 79.0345 43.3775 79.0345 43.4323V44.5097H78.721V43.2067H78.7231Z" fill="#69D085"/>
<path d="M1.10071 51.0961V50.4435H0V50.2289L1.0553 48.6982H1.4013V50.1873H1.73216V50.4413H1.4013V51.0939H1.10071V51.0961ZM1.10071 50.1873V49.388C1.10071 49.2632 1.10504 49.1362 1.11152 49.0114H1.10071C1.02719 49.1515 0.968798 49.2545 0.903923 49.3661L0.324374 50.1808V50.1873H1.10071Z" fill="#69D085"/>
<path d="M3.55058 49.8719C3.55058 50.6865 3.25216 51.1376 2.72667 51.1376C2.2639 51.1376 1.95034 50.6996 1.94385 49.9047C1.94385 49.101 2.28552 48.6587 2.76776 48.6587C3.2673 48.6565 3.55058 49.1076 3.55058 49.8719ZM2.26606 49.9069C2.26606 50.531 2.45636 50.8836 2.74613 50.8836C3.07483 50.8836 3.23053 50.496 3.23053 49.885C3.23053 49.2959 3.08132 48.9083 2.75046 48.9083C2.46933 48.9083 2.26606 49.2543 2.26606 49.9069Z" fill="#69D085"/>
<path d="M5.20529 51.0282C5.12095 51.072 4.93497 51.1311 4.69926 51.1311C4.16729 51.1311 3.82129 50.7654 3.82129 50.2202C3.82129 49.6705 4.19324 49.272 4.76846 49.272C4.95876 49.272 5.12527 49.3201 5.21177 49.3639L5.13825 49.6158C5.06256 49.572 4.94146 49.5304 4.7663 49.5304C4.36191 49.5304 4.1435 49.8326 4.1435 50.2048C4.1435 50.6187 4.40516 50.8727 4.75549 50.8727C4.93714 50.8727 5.05824 50.8246 5.14906 50.7851L5.20529 51.0282Z" fill="#69D085"/>
<path d="M5.58154 49.7931C5.58154 49.6092 5.57722 49.4581 5.56641 49.3092H5.84753L5.86267 49.5961H5.87348C5.97079 49.4274 6.13514 49.2676 6.42708 49.2676C6.66712 49.2676 6.84877 49.4143 6.92662 49.6245H6.9331C6.98717 49.526 7.05637 49.4471 7.12989 49.3924C7.23585 49.3114 7.35263 49.2676 7.51914 49.2676C7.75269 49.2676 8.09869 49.4231 8.09869 50.0428V51.0939H7.78513V50.0844C7.78513 49.7406 7.66186 49.5347 7.40237 49.5347C7.22072 49.5347 7.07799 49.6705 7.02393 49.8304C7.00879 49.8742 6.99798 49.9333 6.99798 49.9924V51.0961H6.68442V50.0274C6.68442 49.7428 6.56115 49.5369 6.31679 49.5369C6.11568 49.5369 5.97079 49.699 5.91889 49.861C5.90159 49.9092 5.89294 49.9639 5.89294 50.0187V51.0961H5.57938V49.7931H5.58154Z" fill="#69D085"/>
<path d="M35.8992 70.155C35.871 69.6207 35.8364 68.9769 35.8429 68.4973H35.8256C35.6959 68.9463 35.538 69.4258 35.3477 69.9558L34.6795 71.8171H34.3076L33.6956 69.9886C33.5161 69.4477 33.3647 68.9528 33.2566 68.4973H33.2458C33.235 68.9747 33.2069 69.6185 33.1723 70.1945L33.0706 71.839H32.6035L32.8673 68.0024H33.4923L34.1389 69.8594C34.2968 70.3324 34.4265 70.7529 34.5216 71.1514H34.5389C34.6341 70.7638 34.7703 70.3434 34.939 69.8594L35.6137 68.0024H36.2387L36.4744 71.839H35.9965L35.8992 70.155Z" fill="#226234"/>
<path d="M37.7805 70.6319L37.3869 71.8385H36.8809L38.1675 68.002H38.7579L40.0511 71.8385H39.5278L39.1234 70.6319H37.7805ZM39.0239 70.2443L38.6519 69.1407C38.5676 68.891 38.5114 68.6633 38.4552 68.4399H38.4443C38.3881 68.6677 38.3254 68.902 38.254 69.1341L37.8821 70.2443H39.0239Z" fill="#226234"/>
<path d="M42.6048 71.8388L42.1204 70.9913C41.9236 70.6672 41.8004 70.457 41.6814 70.2336H41.6706C41.5647 70.4548 41.4565 70.6606 41.2597 70.9957L40.8035 71.8388H40.2412L41.4003 69.8964L40.2866 68H40.8554L41.3549 68.9C41.4955 69.1497 41.6014 69.3446 41.7031 69.5482H41.7204C41.8263 69.3205 41.9236 69.1431 42.0642 68.9L42.581 68H43.1433L41.9907 69.8679L43.1714 71.8388H42.6048Z" fill="#226234"/>
<g clip-path="url(#clip1_700_2693)">
<path d="M45.1505 70.9753C45.3092 71.0804 45.6732 71.2422 46.0562 71.2422C46.7677 71.2422 46.9866 70.7709 46.9811 70.4188C46.9757 69.8281 46.4585 69.5726 45.9249 69.5726H45.6157V69.141H45.9249C46.3272 69.141 46.8361 68.9252 46.8361 68.4226C46.8361 68.0818 46.6282 67.7836 46.1192 67.7836C45.7908 67.7836 45.4761 67.9341 45.301 68.0648L45.156 67.6474C45.3694 67.4827 45.7853 67.3208 46.2259 67.3208C47.0304 67.3208 47.3971 67.8177 47.3971 68.3317C47.3971 68.769 47.1453 69.141 46.6418 69.3312V69.3454C47.1453 69.4476 47.5558 69.8395 47.5558 70.433C47.5558 71.1116 47.0468 71.7051 46.0645 71.7051C45.6047 71.7051 45.2025 71.5546 45 71.4183L45.1505 70.9753Z" fill="#226234"/>
<path d="M48.9705 69.9248H48.9842C49.0608 69.814 49.1675 69.6777 49.2551 69.567L50.1499 68.4766H50.8176L49.6409 69.7771L50.9818 71.637H50.3086L49.2578 70.1235L48.976 70.4501V71.6398H48.4287V67H48.976V69.9248H48.9705Z" fill="#226234"/>
<path d="M53.9999 68.4765C53.9862 68.7036 53.9752 68.9592 53.9752 69.3425V71.1769C53.9752 71.901 53.8357 72.3468 53.5401 72.6194C53.2446 72.9062 52.8177 72.9971 52.4319 72.9971C52.068 72.9971 51.663 72.9062 51.4194 72.7358L51.559 72.2985C51.7615 72.4292 52.0762 72.5456 52.4538 72.5456C53.0202 72.5456 53.4362 72.2389 53.4362 71.441V71.0889H53.4225C53.2528 71.3814 52.9244 71.617 52.4538 71.617C51.6985 71.617 51.1567 70.9497 51.1567 70.0752C51.1567 69.0046 51.8299 68.397 52.5277 68.397C53.0558 68.397 53.3459 68.6838 53.4772 68.945H53.4909L53.5155 68.468H53.9999V68.4765ZM53.4252 69.723C53.4252 69.6265 53.4197 69.5413 53.3951 69.4618C53.2939 69.1296 53.023 68.8541 52.6207 68.8541C52.0926 68.8541 51.715 69.317 51.715 70.0496C51.715 70.6686 52.016 71.1854 52.6152 71.1854C52.9545 71.1854 53.2638 70.9639 53.3842 70.5976C53.4143 70.5011 53.4279 70.3875 53.4279 70.291V69.723H53.4252Z" fill="#226234"/>
</g>
</g>
<defs>
<clipPath id="clip0_700_2693">
<rect width="84" height="73" fill="white"/>
</clipPath>
<clipPath id="clip1_700_2693">
<rect width="9" height="6" fill="white" transform="translate(45 67)"/>
</clipPath>
</defs>
</svg>
