<svg width="31" height="22" viewBox="0 0 31 22" fill="none" xmlns="http://www.w3.org/2000/svg">
<g clip-path="url(#clip0_723_25)">
<path d="M2.13434 22L28.8657 22C30.0369 22 31 21.0513 31 19.8974L31 2.10256C31 0.948718 30.0369 8.41931e-08 28.8657 1.8659e-07L2.13434 2.52352e-06C0.963053 2.62591e-06 -1.82441e-06 0.94872 -1.72354e-06 2.10257L-1.6786e-07 19.8974C-6.47458e-08 21.0769 0.963055 22 2.13434 22Z" fill="#69D085"/>
<path d="M14.7582 10.0002L17.4132 10.0002L29.1807 0.0258789L1.8637 0.0258813L14.7582 10.0002Z" fill="#32934D"/>
<path d="M4.94546 19.4614L10.4375 19.4614C10.9581 19.4614 11.3745 19.0511 11.3745 18.5383C11.3745 18.0255 10.9581 17.6152 10.4375 17.6152L4.94546 17.6152C4.42489 17.6152 4.00843 18.0255 4.00843 18.5383C4.00843 19.0255 4.42489 19.4614 4.94546 19.4614Z" fill="#32934D"/>
</g>
<defs>
<clipPath id="clip0_723_25">
<rect width="31" height="22" fill="white" transform="matrix(-1 8.74228e-08 8.74228e-08 1 31 0)"/>
</clipPath>
</defs>
</svg>
