<svg width="348" height="226" viewBox="0 0 348 226" fill="none" xmlns="http://www.w3.org/2000/svg">
<g clip-path="url(#clip0_783_741)">
<path d="M173.188 226C254.089 226 319.672 222.855 319.672 218.976C319.672 215.097 254.089 211.952 173.188 211.952C92.2866 211.952 26.7034 215.097 26.7034 218.976C26.7034 222.855 92.2866 226 173.188 226Z" fill="#636363"/>
<g filter="url(#filter0_ddd_783_741)">
<path d="M76.5119 195.25C51.0924 187.319 16.6817 147.647 30.6629 108.974C38.6195 86.9701 63.5986 85.3312 83.2304 81.6771C110.515 76.5974 122.793 60.4426 140.867 40.5585C161.06 18.3414 206.921 -7.6091 247.481 26.9707C258.404 36.2815 260.145 54.2926 274.238 66.9313C288.415 79.6452 306.9 79.7038 315.218 104.872C321.7 124.485 293.795 165.286 274.887 177.444C239.923 199.937 133.837 213.136 76.5119 195.25Z" fill="#B4E7C2"/>
</g>
<path d="M330.986 114.191C330.982 114.338 330.978 114.48 330.973 114.626C330.566 132.407 328.036 146.154 324.413 156.778L315.023 161.987L322.564 161.218L322.78 161.197C318.106 172.836 312.098 180.199 306.543 184.844C303.086 187.741 299.803 189.585 297.128 190.751C296.953 190.831 296.779 190.906 296.604 190.977C296.172 191.157 295.757 191.32 295.362 191.462H290.347C290.289 191.224 290.239 190.989 290.189 190.751C290.152 190.601 290.123 190.454 290.094 190.304C290.048 190.107 290.01 189.911 289.969 189.714C285.249 166.481 293.65 148.596 304.058 136.074C304.087 136.032 304.12 135.99 304.162 135.949C307.785 131.605 311.649 127.909 315.28 124.865L317.196 130.647L317.927 122.729C324.234 117.804 329.411 115.007 330.683 114.35C330.882 114.237 330.986 114.191 330.986 114.191Z" fill="#32934D"/>
<path d="M331.156 114.283L330.973 114.622L319.576 135.723L319.373 136.095L316.265 141.848L316.161 142.04L306.252 160.381L306.239 160.406L290.093 190.295L289.852 190.743L289.466 191.453H289.03L289.408 190.743L289.969 189.706L305.903 160.21L306.198 159.662L330.682 114.342L330.82 114.095L331.156 114.283Z" fill="white"/>
<path d="M329.281 133.806L316.089 141.948L316.265 142.237L329.457 134.095L329.281 133.806Z" fill="white"/>
<path d="M329.587 129.532L319.245 135.914L319.421 136.203L329.763 129.82L329.587 129.532Z" fill="white"/>
<path d="M304.401 135.921L304.066 135.947L305.935 160.43L306.271 160.404L304.401 135.921Z" fill="white"/>
<path d="M288.132 195.279C288.132 195.279 299.695 201.542 317.088 192.307L311.753 189.405L320.661 190.237C327.483 185.947 335.078 179.266 343.13 169.032L341.095 167.928L343.795 168.179C345.154 166.427 346.525 164.575 347.909 162.614C347.909 162.614 342.977 161.912 335.855 162.363L331.962 167.125L333.234 162.581C318.646 164.031 297.169 170.554 288.132 195.279Z" fill="#69D085"/>
<path d="M347.811 162.44L287.191 193.938L287.364 194.276L347.984 162.778L347.811 162.44Z" fill="white"/>
<path d="M332.156 170.789L332.101 171.14L340.475 172.457L340.53 172.105L332.156 170.789Z" fill="white"/>
<path d="M328.002 172.852L327.922 173.198L337.651 175.475L337.731 175.129L328.002 172.852Z" fill="white"/>
<path d="M303.123 174.254L302.845 173.902C308.013 169.747 314.2 166.619 321.243 164.608L321.363 165.039C314.383 167.037 308.242 170.135 303.123 174.254Z" fill="#226234"/>
<path d="M299.941 61.5419V214.666C299.941 216.802 298.221 218.537 296.093 218.537H221.293C219.17 218.537 217.446 216.802 217.446 214.666V61.5419C217.446 59.4013 219.17 57.6704 221.293 57.6704H296.093C298.221 57.6704 299.941 59.4013 299.941 61.5419Z" fill="#226234"/>
<path d="M296.376 61.5419V214.666C296.376 216.802 294.656 218.537 292.528 218.537H217.728C215.605 218.537 213.881 216.802 213.881 214.666V61.5419C213.881 59.4013 215.605 57.6704 217.728 57.6704H292.528C294.656 57.6704 296.376 59.4013 296.376 61.5419Z" fill="#B4E7C2"/>
<path d="M290.708 77.4208V198.791C290.708 201.262 288.843 203.264 286.545 203.264H223.707C221.409 203.264 219.544 201.262 219.544 198.791V77.4208C219.544 74.9499 221.409 72.9473 223.707 72.9473H286.545C288.847 72.9473 290.708 74.9499 290.708 77.4208Z" fill="#69D085"/>
<path d="M265.522 65.0499H244.735C244.531 65.0499 244.365 64.8826 244.365 64.6778C244.365 64.4729 244.531 64.3057 244.735 64.3057H265.522C265.725 64.3057 265.891 64.4729 265.891 64.6778C265.891 64.8868 265.725 65.0499 265.522 65.0499Z" fill="#226234"/>
<path d="M273.544 162.957H236.707C234.43 162.957 232.565 161.08 232.565 158.789V157.192C232.565 154.901 234.43 153.023 236.707 153.023H273.544C275.821 153.023 277.687 154.901 277.687 157.192V158.789C277.687 161.08 275.826 162.957 273.544 162.957Z" fill="#B4E7C2"/>
<path d="M287.351 204.159H222.905C220.059 204.159 217.745 201.751 217.745 198.787V77.4168C217.745 74.4568 220.059 72.0444 222.905 72.0444H287.351C290.197 72.0444 292.512 74.4526 292.512 77.4168V198.787C292.512 201.751 290.197 204.159 287.351 204.159ZM222.905 73.8422C221.044 73.8422 219.527 75.4476 219.527 77.421V198.791C219.527 200.764 221.044 202.37 222.905 202.37H287.351C289.213 202.37 290.729 200.764 290.729 198.791V77.421C290.729 75.4476 289.213 73.8422 287.351 73.8422H222.905Z" fill="white"/>
<path d="M225.377 137.295H284.937C286.163 137.295 287.168 136.287 287.168 135.05V96.477C287.168 95.2437 286.167 94.2319 284.937 94.2319H225.377C224.151 94.2319 223.146 95.2395 223.146 96.477V135.05C223.146 136.283 224.147 137.295 225.377 137.295Z" fill="#226234"/>
<path d="M239.259 123.841H228.535C228.202 123.841 227.932 123.569 227.932 123.235V121.161C227.932 120.826 228.202 120.555 228.535 120.555H239.259C239.591 120.555 239.861 120.826 239.861 121.161V123.235C239.861 123.569 239.591 123.841 239.259 123.841Z" fill="white"/>
<path d="M253.431 123.841H242.707C242.375 123.841 242.105 123.569 242.105 123.235V121.161C242.105 120.826 242.375 120.555 242.707 120.555H253.431C253.763 120.555 254.033 120.826 254.033 121.161V123.235C254.033 123.569 253.763 123.841 253.431 123.841Z" fill="white"/>
<path d="M267.603 123.841H256.879C256.547 123.841 256.277 123.569 256.277 123.235V121.161C256.277 120.826 256.547 120.555 256.879 120.555H267.603C267.935 120.555 268.206 120.826 268.206 121.161V123.235C268.206 123.569 267.935 123.841 267.603 123.841Z" fill="white"/>
<path d="M281.775 123.841H271.052C270.719 123.841 270.449 123.569 270.449 123.235V121.161C270.449 120.826 270.719 120.555 271.052 120.555H281.775C282.108 120.555 282.378 120.826 282.378 121.161V123.235C282.378 123.569 282.108 123.841 281.775 123.841Z" fill="white"/>
<path d="M281.642 130.275H267.537C267.134 130.275 266.801 129.941 266.801 129.535V127.725C266.801 127.319 267.134 126.985 267.537 126.985H281.642C282.045 126.985 282.378 127.319 282.378 127.725V129.535C282.378 129.945 282.05 130.275 281.642 130.275Z" fill="white"/>
<path d="M230.654 106.942V102.623C230.654 101.678 231.418 100.913 232.353 100.913H240.692C241.631 100.913 242.391 101.682 242.391 102.623V106.942C242.391 107.887 241.627 108.652 240.692 108.652H232.353C231.418 108.656 230.654 107.887 230.654 106.942ZM232.353 101.373C231.668 101.373 231.107 101.933 231.107 102.627V106.946C231.107 107.636 231.663 108.2 232.353 108.2H240.692C241.378 108.2 241.938 107.64 241.938 106.946V102.627C241.938 101.937 241.382 101.373 240.692 101.373H232.353Z" fill="white"/>
<path d="M280.4 104.182C280.4 104.128 280.421 104.078 280.462 104.036C282.336 102.151 282.336 99.0776 280.462 97.1921C280.384 97.1126 280.384 96.9789 280.462 96.8994C280.541 96.82 280.674 96.82 280.753 96.8994C282.789 98.948 282.789 102.284 280.753 104.333C280.674 104.412 280.541 104.412 280.462 104.333C280.421 104.291 280.4 104.237 280.4 104.182Z" fill="white"/>
<path d="M279.365 98.2372C279.365 98.1828 279.386 98.1326 279.428 98.0908C279.507 98.0114 279.64 98.0114 279.719 98.0908C281.102 99.483 281.102 101.749 279.719 103.141C279.64 103.221 279.507 103.221 279.428 103.141C279.349 103.062 279.349 102.928 279.428 102.849C280.649 101.619 280.649 99.6168 279.428 98.3835C279.386 98.3417 279.365 98.2915 279.365 98.2372Z" fill="white"/>
<path d="M278.373 101.891C278.373 101.837 278.393 101.787 278.435 101.745C279.054 101.122 279.054 100.11 278.435 99.4914C278.356 99.412 278.356 99.2782 278.435 99.1987C278.514 99.1193 278.647 99.1193 278.726 99.1987C279.507 99.9847 279.507 101.26 278.726 102.042C278.647 102.121 278.514 102.121 278.435 102.042C278.393 101.996 278.373 101.946 278.373 101.891Z" fill="white"/>
<path d="M296.708 184.371H296.039V61.5421C296.039 59.5939 294.464 58.0051 292.524 58.0051H217.728C215.792 58.0051 214.213 59.5897 214.213 61.5421V166.745H213.544V61.5421C213.544 59.2218 215.422 57.332 217.728 57.332H292.528C294.834 57.332 296.712 59.2218 296.712 61.5421V184.371H296.708Z" fill="#226234"/>
<path d="M226.328 218.876H217.728C215.422 218.876 213.544 216.986 213.544 214.666V196.96H214.213V214.67C214.213 216.618 215.788 218.207 217.728 218.207H226.328V218.876Z" fill="#226234"/>
<path d="M260.457 218.203H252.496V218.876H260.457V218.203Z" fill="#226234"/>
<path d="M301.64 217.864C301.64 219.022 293.197 219.963 282.789 219.963C272.381 219.963 263.938 219.022 263.938 217.864C263.938 217.843 263.943 217.822 263.947 217.802V212.132H301.627V217.789C301.636 217.814 301.64 217.839 301.64 217.864Z" fill="#32934D"/>
<path d="M282.785 214.281C293.196 214.281 301.636 213.341 301.636 212.182C301.636 211.023 293.196 210.083 282.785 210.083C272.374 210.083 263.934 211.023 263.934 212.182C263.934 213.341 272.374 214.281 282.785 214.281Z" fill="#226234"/>
<path d="M306.094 211.024C306.094 212.183 297.651 213.123 287.243 213.123C276.835 213.123 268.393 212.183 268.393 211.024C268.393 211.004 268.397 210.983 268.401 210.962V205.292H306.081V210.949C306.09 210.974 306.094 210.995 306.094 211.024Z" fill="#32934D"/>
<path d="M287.239 207.441C297.65 207.441 306.09 206.502 306.09 205.342C306.09 204.183 297.65 203.244 287.239 203.244C276.828 203.244 268.388 204.183 268.388 205.342C268.388 206.502 276.828 207.441 287.239 207.441Z" fill="#226234"/>
<path d="M301.64 204.18C301.64 205.338 293.197 206.279 282.789 206.279C272.381 206.279 263.938 205.338 263.938 204.18C263.938 204.159 263.943 204.138 263.947 204.117V198.448H301.627V204.105C301.636 204.134 301.64 204.155 301.64 204.18Z" fill="#32934D"/>
<path d="M282.785 200.601C293.196 200.601 301.636 199.662 301.636 198.503C301.636 197.343 293.196 196.404 282.785 196.404C272.374 196.404 263.934 197.343 263.934 198.503C263.934 199.662 272.374 200.601 282.785 200.601Z" fill="#226234"/>
<path d="M282.789 220.184C275.123 220.184 263.714 219.565 263.714 217.864H264.159C264.159 218.516 270.557 219.737 282.789 219.737C283.234 219.737 283.674 219.737 284.11 219.733L284.115 220.18C283.678 220.184 283.234 220.184 282.789 220.184Z" fill="#226234"/>
<path d="M290.264 220.013L290.243 219.565C292.15 219.473 293.903 219.348 295.445 219.189L295.491 219.636C293.937 219.795 292.179 219.921 290.264 220.013Z" fill="#226234"/>
<path d="M275.348 212.838C268.264 212.19 268.264 211.291 268.264 210.995H268.708C268.708 211.212 269.909 211.889 275.385 212.391L275.348 212.838Z" fill="#226234"/>
<path d="M287.339 213.319C285.22 213.319 283.138 213.282 281.152 213.202L281.169 212.755C284.713 212.893 288.635 212.91 292.287 212.797L292.3 213.244C290.688 213.294 289.017 213.319 287.339 213.319Z" fill="#226234"/>
<path d="M296.982 213.022L296.953 212.575C298.964 212.441 300.717 212.27 302.163 212.065L302.226 212.508C300.767 212.717 299.006 212.889 296.982 213.022Z" fill="#226234"/>
<path d="M270.112 200.288C263.83 199.644 263.83 198.829 263.83 198.523H264.275C264.275 198.532 264.437 199.255 270.158 199.845L270.112 200.288Z" fill="#226234"/>
<path d="M282.901 200.844C280.732 200.844 278.613 200.802 276.602 200.722L276.619 200.275C278.626 200.354 280.741 200.396 282.901 200.396C286.769 200.396 290.484 200.267 293.646 200.02L293.679 200.467C290.509 200.714 286.782 200.844 282.901 200.844Z" fill="#226234"/>
<path d="M308.321 197.34C308.321 198.498 299.878 199.439 289.47 199.439C279.062 199.439 270.62 198.498 270.62 197.34C270.62 197.319 270.624 197.299 270.628 197.278V191.608H308.308V197.265C308.317 197.29 308.321 197.315 308.321 197.34Z" fill="#32934D"/>
<path d="M289.47 193.757C299.881 193.757 308.321 192.817 308.321 191.658C308.321 190.499 299.881 189.56 289.47 189.56C279.059 189.56 270.62 190.499 270.62 191.658C270.62 192.817 279.059 193.757 289.47 193.757Z" fill="#226234"/>
<path d="M304.822 191.658C304.822 192.436 297.946 193.067 289.47 193.067C280.99 193.067 274.118 192.436 274.118 191.658C274.118 190.881 280.994 190.25 289.47 190.25C297.946 190.25 304.822 190.881 304.822 191.658Z" fill="#32934D"/>
<path d="M240.555 181.558C230.043 181.269 221.293 189.61 221.002 200.192C220.715 210.769 229.004 219.578 239.52 219.867C250.032 220.155 258.787 211.814 259.073 201.233C259.36 190.655 251.071 181.846 240.555 181.558ZM255.363 201.132C255.251 205.25 253.551 209.076 250.577 211.911C247.606 214.745 243.717 216.246 239.624 216.133C231.177 215.899 224.492 208.8 224.721 200.296C224.833 196.178 226.528 192.353 229.503 189.518C232.37 186.784 236.093 185.291 240.031 185.291C240.177 185.291 240.314 185.295 240.459 185.299C248.769 185.525 255.367 192.403 255.367 200.71C255.367 200.852 255.367 200.99 255.363 201.132Z" fill="#226234"/>
<path d="M255.367 200.71C255.367 200.852 255.367 200.99 255.363 201.132C255.251 205.25 253.551 209.076 250.576 211.91C247.606 214.745 243.717 216.246 239.624 216.133C231.177 215.899 224.492 208.8 224.721 200.296C224.833 196.178 226.528 192.352 229.503 189.518C232.37 186.784 236.092 185.291 240.031 185.291C240.177 185.291 240.314 185.295 240.459 185.299C248.765 185.521 255.367 192.398 255.367 200.71Z" fill="#32934D"/>
<path d="M254.735 196.851C254.702 196.725 254.669 196.6 254.632 196.475C253.414 192.248 250.456 188.765 246.496 186.9L246.671 186.52C250.734 188.435 253.78 192.009 255.022 196.328C255.068 196.483 255.101 196.608 255.134 196.738L254.735 196.851Z" fill="#226234"/>
<path d="M246.501 186.905C243.318 185.404 239.699 185.07 236.3 185.96L236.197 185.555C239.687 184.639 243.409 184.986 246.679 186.525L246.501 186.905Z" fill="#226234"/>
<path d="M253.497 208.595L253.14 208.382C254.158 206.638 254.814 204.753 255.089 202.775L255.5 202.834C255.217 204.866 254.544 206.806 253.497 208.595Z" fill="#226234"/>
<path d="M252.434 186.462C250.963 185.166 249.309 184.112 247.523 183.33L247.701 182.92C249.534 183.719 251.225 184.798 252.729 186.127L252.434 186.462Z" fill="#226234"/>
<path d="M250.788 216.802L250.539 216.43C255.579 213.014 258.687 207.332 258.853 201.228C258.957 197.436 257.943 193.745 255.924 190.559L256.298 190.316C258.363 193.582 259.397 197.357 259.293 201.241C259.127 207.487 255.949 213.307 250.788 216.802Z" fill="#226234"/>
<path d="M287.384 104.777H286.94V96.2436C286.94 95.1314 286.038 94.2242 284.933 94.2242H246.999V93.7769H284.933C286.283 93.7769 287.384 94.8848 287.384 96.2436V104.777Z" fill="#226234"/>
<path d="M287.384 109.258H286.94V114.196H287.384V109.258Z" fill="#226234"/>
<path d="M242.1 93.7725H234.368V94.2198H242.1V93.7725Z" fill="#226234"/>
<path d="M103.839 47.5904C106.922 45.0735 109.755 42.0424 111.093 38.2838C112.427 34.5252 111.97 29.9221 109.157 27.1042C106.863 24.8089 103.382 24.0313 100.166 24.395C96.9499 24.7588 93.9376 26.1343 91.0708 27.6352C85.5822 30.5116 53.6478 50.4334 64.7496 56.9973C75.436 63.3146 95.583 54.3299 103.839 47.5904Z" fill="#B4E7C2"/>
<path d="M30.4096 100.73L30.0273 100.5C34.5312 92.9407 41.7856 87.8108 52.8625 84.3574L52.9955 84.7839C42.0308 88.2038 34.8512 93.271 30.4096 100.73Z" fill="#226234"/>
<path d="M24.6384 103.673L24.2188 103.518C30.0314 87.4383 44.9557 82.2791 58.7873 79.3525L58.8787 79.7915C45.1718 82.693 30.3804 87.7979 24.6384 103.673Z" fill="#226234"/>
<path d="M225.984 10.0136C215.763 4.75826 207.112 3.34095 198.753 5.5568L198.64 5.12199C207.112 2.87687 215.862 4.30254 226.187 9.61222L225.984 10.0136Z" fill="#226234"/>
<path d="M233.662 10.5778C221.837 3.0188 207.706 -3.72073 192.583 3.6083L192.392 3.20276C207.715 -4.22243 221.974 2.57145 233.907 10.1973L233.662 10.5778Z" fill="#226234"/>
<path d="M177.941 30.9799C167.429 30.6914 158.679 39.0322 158.388 49.614C158.101 60.1915 166.39 69.0006 176.906 69.289C187.418 69.5775 196.173 61.2367 196.459 50.655C196.746 40.0775 188.457 31.2684 177.941 30.9799ZM192.749 50.5547C192.637 54.6728 190.937 58.4983 187.962 61.3329C184.992 64.1675 181.103 65.6684 177.01 65.5555C168.563 65.3214 161.878 58.2223 162.107 49.7185C162.219 45.6004 163.914 41.7749 166.889 38.9403C169.756 36.206 173.479 34.7134 177.417 34.7134C177.563 34.7134 177.7 34.7176 177.845 34.7218C186.155 34.9475 192.753 41.825 192.753 50.1324C192.749 50.2745 192.749 50.4125 192.749 50.5547Z" fill="#226234"/>
<path d="M192.753 50.1324C192.753 50.2745 192.753 50.4125 192.749 50.5546C192.637 54.6728 190.937 58.4982 187.963 61.3328C184.992 64.1675 181.103 65.6684 177.01 65.5555C168.563 65.3214 161.878 58.2223 162.107 49.7184C162.219 45.6003 163.914 41.7748 166.889 38.9402C169.756 36.2059 173.479 34.7134 177.417 34.7134C177.563 34.7134 177.7 34.7176 177.845 34.7217C186.151 34.9475 192.753 41.825 192.753 50.1324Z" fill="#32934D"/>
<path d="M192.146 46.3067C192.113 46.1729 192.076 46.0433 192.038 45.9137C190.829 41.7036 187.867 38.2251 183.911 36.3604L184.086 35.98C188.149 37.8948 191.195 41.4694 192.437 45.7883C192.479 45.9304 192.516 46.0642 192.549 46.198L192.146 46.3067Z" fill="#226234"/>
<path d="M183.912 36.3606C180.729 34.8597 177.106 34.5252 173.711 35.4157L173.607 35.0102C177.098 34.0946 180.82 34.4416 184.09 35.9802L183.912 36.3606Z" fill="#226234"/>
<path d="M162.481 54.0663C161.438 50.0234 162.019 45.8133 164.118 42.2178L164.475 42.431C162.431 45.9304 161.862 50.0276 162.879 53.9618L162.481 54.0663Z" fill="#226234"/>
<path d="M189.82 36.2355C188.349 34.9395 186.695 33.8859 184.909 33.1041L185.087 32.6943C186.92 33.4929 188.611 34.5715 190.115 35.901L189.82 36.2355Z" fill="#226234"/>
<path d="M188.17 66.576L187.921 66.2039C192.961 62.7882 196.069 57.1064 196.235 51.0023C196.339 47.2103 195.325 43.5186 193.306 40.3328L193.68 40.0903C195.745 43.3556 196.779 47.1309 196.675 51.0149C196.513 57.2611 193.331 63.0766 188.17 66.576Z" fill="#226234"/>
<path d="M174.779 91.41L176.466 84.1353L183.355 81.2505L184.58 91.41C184.58 91.41 183.558 98.0115 177.222 100.374C170.89 102.74 174.779 91.41 174.779 91.41Z" fill="#FCB47E"/>
<path d="M172.07 72.2826C172.07 72.2826 169.619 85.9582 173.603 86.0627C177.588 86.1672 180.858 84.6245 181.676 83.6963C182.495 82.7724 183.105 78.2487 183.105 78.2487C183.105 78.2487 183.616 72.3871 181.165 71.2583C178.714 70.1253 173.4 68.1728 172.07 72.2826Z" fill="#FCB47E"/>
<path d="M185.183 80.9832C184.402 82.4381 183.625 83.8638 183.625 83.8638C182.461 83.6798 181.173 82.2165 180.945 80.9539C180.945 80.9539 177.28 80.6111 177.151 76.0456C177.151 76.0456 170.79 76.0874 170.641 70.531C170.487 64.9789 176.848 66.4087 178.955 68.1062C181.061 69.7994 182.337 70.6648 185.619 71.731C189.072 72.8514 186.188 79.1185 185.183 80.9832Z" fill="#226234"/>
<path d="M182.208 213.077L181.423 204.996H172.934L174.779 212.843C174.779 212.843 175.764 215.473 178.618 215.377C181.36 215.285 182.208 213.077 182.208 213.077Z" fill="#FCB47E"/>
<path d="M224.01 187.795L217.491 183.008L211.845 189.388L220.2 193.649C220.2 193.649 221.235 193.853 223.329 192.018C225.398 190.208 224.01 187.795 224.01 187.795Z" fill="#FCB47E"/>
<path d="M189.354 207.512C184.439 209.381 178.161 208.871 171.393 207.512C171.198 207.036 171.002 206.563 170.815 206.082C157.919 173.284 167.051 125.647 167.051 125.647H187.331L186.874 141.392C185.985 145.552 185.374 149.766 184.979 153.943C182.403 181.411 189.354 207.512 189.354 207.512Z" fill="#32934D"/>
<path d="M189.35 207.499C189.035 206.86 177.484 183.242 180.924 156.598L184.585 159.566C183.342 184.509 189.184 206.872 189.35 207.499Z" fill="#226234"/>
<path d="M222.124 179.254C220.262 184.513 218.28 188.594 216.124 190.981C215.123 192.089 214.084 192.833 213 193.155C209.892 191.55 207.046 189.81 204.441 187.967C204.083 187.72 203.738 187.469 203.389 187.214C202.928 186.875 202.471 186.528 202.031 186.181C201.827 186.023 201.624 185.868 201.428 185.705C201.029 185.391 200.635 185.069 200.252 184.752C199.908 184.463 199.571 184.175 199.243 183.886C197.494 182.36 195.882 180.792 194.39 179.183C194.249 179.032 194.103 178.873 193.966 178.723C193.862 178.61 193.763 178.493 193.659 178.384L193.655 178.38C173.2 155.502 176.956 125.655 176.956 125.655H194.747C196.276 154.269 222.124 179.254 222.124 179.254Z" fill="#32934D"/>
<path d="M198.74 63.6869C197.224 62.5706 196.164 61.956 195.907 61.772C195.582 61.5379 195.508 60.961 195.13 60.3756C194.261 59.0336 192.454 56.663 190.588 56.0067C190.347 55.9189 190.164 56.1781 190.422 56.454C190.879 56.9599 191.743 57.6874 191.61 57.8086C191.324 58.0511 189.3 55.6011 188.731 56.1697C188.303 56.6003 191.232 58.7827 191.116 58.9207C190.887 59.1966 188.681 56.6923 188.145 57.2609C187.634 57.7961 190.281 59.2008 190.169 59.435C190.048 59.6774 188.216 58.1514 187.854 58.4984C187.306 59.0252 190.613 61.0864 190.522 61.3916C190.405 61.8849 188.694 60.8523 188.44 61.4376C188.191 61.9853 190.584 63.0179 191.037 63.2479C192.084 63.7747 192.844 63.5447 193.68 64.8575C194.141 65.5766 194.594 66.2957 195.042 67.019L198.74 63.6869Z" fill="#FCB47E"/>
<path d="M156.838 65.3217C158.23 64.0507 159.215 63.3232 159.452 63.1142C159.747 62.8466 159.763 62.2655 160.075 61.6425C160.798 60.2168 162.339 57.6665 164.13 56.8095C164.359 56.6966 164.571 56.9307 164.342 57.2359C163.943 57.7878 163.162 58.603 163.308 58.7117C163.619 58.9208 165.368 56.2701 165.996 56.7718C166.469 57.1523 163.789 59.6399 163.918 59.7611C164.176 60.012 166.1 57.2861 166.694 57.7919C167.259 58.2727 164.774 59.9493 164.915 60.1709C165.061 60.4008 166.723 58.6825 167.118 58.9919C167.716 59.4559 164.65 61.8641 164.77 62.1568C164.94 62.6376 166.528 61.4251 166.843 61.977C167.151 62.4954 164.878 63.7789 164.454 64.0549C163.47 64.6904 162.688 64.5482 161.999 65.9404C161.616 66.7055 161.243 67.4664 160.873 68.2357L156.838 65.3217Z" fill="#FCB47E"/>
<path d="M194.934 127.984C193.347 129 190.568 130.647 187.144 132.073C184.074 133.344 180.484 134.448 176.765 134.774C173.155 135.092 169.415 134.674 165.908 132.976C166.133 131.304 166.345 129.882 166.523 128.749C169.739 130.464 173.229 131.183 176.69 131.283C180.342 131.392 183.966 130.802 187.206 129.953C190.169 129.18 192.815 128.185 194.868 127.294C194.885 127.524 194.909 127.754 194.934 127.984Z" fill="#226234"/>
<path d="M162.572 125.814V103.292C162.572 103.292 142.458 99.8553 146.41 80.2597C148.919 67.8091 157.752 63.3607 157.752 63.3607L162.651 67.3199C162.651 67.3199 152.235 83.3368 165.946 88.9015C165.946 88.9015 173.657 88.659 175.664 90.8414C175.664 90.8414 180.081 94.3993 184.742 88.4959C184.742 88.4959 189.483 86.6355 193.522 87.7308C196.846 88.6297 201.129 80.3349 193.177 66.2705L198.159 61.7427C198.159 61.7427 227.317 89.9509 198.719 103.936L197.124 126.437C197.124 126.441 174.987 139.072 162.572 125.814Z" fill="#69D085"/>
<path d="M180.064 81.7733C180.941 81.7733 181.651 81.0582 181.651 80.1762C181.651 79.2941 180.941 78.5791 180.064 78.5791C179.187 78.5791 178.477 79.2941 178.477 80.1762C178.477 81.0582 179.187 81.7733 180.064 81.7733Z" fill="#FCB47E"/>
<path d="M184.393 165.143C180.654 157.844 178.211 149.72 177.122 141.007L177.475 140.961C178.56 149.633 180.991 157.714 184.709 164.976L184.393 165.143Z" fill="white"/>
<path d="M178.473 93.7807C178.369 93.7807 178.261 93.7765 178.157 93.7639C175.627 93.5298 174.347 90.5572 174.297 90.4276L174.621 90.2896C174.634 90.3189 175.872 93.1953 178.19 93.4086C180.139 93.5883 182.291 91.9035 184.593 88.3999L184.888 88.5964C182.628 92.0414 180.471 93.7807 178.473 93.7807Z" fill="#226234"/>
<path d="M162.572 103.296C162.572 103.296 142.454 99.8595 146.405 80.2597C146.617 79.1894 146.883 78.1692 147.186 77.216C147.236 77.1617 147.29 77.1073 147.336 77.0571C147.004 81.4805 146.846 85.3561 148.794 89.5453C152.87 98.3084 162.85 103.271 162.572 103.296Z" fill="#B4E7C2"/>
<path d="M198.715 103.94L197.12 126.442C197.12 126.442 192.524 129.067 186.342 130.668C187.41 129.853 191.91 122.93 192.662 119.43C194.012 113.155 194.182 109.543 194.357 102.857C201.013 101.118 208.596 95.2189 211.205 85.373C211.799 92.0917 208.965 98.9274 198.715 103.94Z" fill="#B4E7C2"/>
<path d="M177.451 129.51C177.388 129.51 177.355 129.51 177.347 129.51L177.355 129.155C177.451 129.155 186.799 129.289 194.893 124.322L195.076 124.627C187.352 129.364 178.498 129.51 177.451 129.51Z" fill="#226234"/>
<path d="M216.124 190.977C215.123 192.085 214.084 192.829 213 193.151C209.892 191.545 207.046 189.806 204.441 187.962C204.083 187.716 203.738 187.465 203.389 187.21C202.928 186.871 202.471 186.524 202.031 186.177C201.827 186.018 201.624 185.864 201.428 185.701C201.029 185.387 200.635 185.065 200.252 184.747C199.908 184.459 199.571 184.17 199.243 183.882C197.494 182.356 195.882 180.788 194.39 179.178C194.249 179.028 194.103 178.869 193.966 178.719C193.862 178.606 193.763 178.489 193.659 178.38C205.828 188.493 213.61 190.563 216.124 190.977Z" fill="#226234"/>
<path d="M219.49 178.535C210.927 172.941 205.484 162.828 205.43 162.727L205.725 162.568C205.779 162.669 211.18 172.703 219.673 178.251L219.49 178.535Z" fill="white"/>
<path d="M183.28 219.511H164.022C163.353 219.511 162.817 218.938 162.867 218.265C162.867 218.257 162.867 218.249 162.867 218.24C162.879 218.094 162.9 217.939 162.921 217.789C162.987 217.274 163.125 216.756 163.366 216.434C164.28 215.213 166.05 214.657 169.211 213.399C171.193 212.604 172.876 211.551 173.616 211.057C173.857 210.894 174.168 210.936 174.376 211.137C178.186 214.883 180.525 214.084 181.223 212.542C181.759 211.363 182.515 211.609 182.723 211.956C183.363 213.035 183.716 216.2 183.857 217.789C183.874 217.96 183.891 218.115 183.899 218.24C183.92 218.537 183.936 218.717 183.936 218.717C184.011 219.131 183.695 219.511 183.28 219.511Z" fill="#226234"/>
<path d="M170.304 215.435C168.937 214.766 169.141 213.345 169.141 213.332L169.469 213.382C169.461 213.432 169.307 214.574 170.445 215.13L170.304 215.435Z" fill="white"/>
<path d="M168.613 216.008C167.354 215.293 167.491 214.059 167.496 214.009L167.828 214.051C167.824 214.093 167.72 215.117 168.779 215.719L168.613 216.008Z" fill="white"/>
<path d="M179.482 215.163C178.194 215.163 177.027 214.574 177.01 214.561L177.164 214.26C177.193 214.277 180.114 215.753 181.618 213.872L181.88 214.081C181.215 214.913 180.322 215.163 179.482 215.163Z" fill="white"/>
<path d="M181.56 218.002H170.337V218.336H181.56V218.002Z" fill="white"/>
<path d="M168.896 218.002H166.241V218.336H168.896V218.002Z" fill="white"/>
<path d="M229.752 188.962L220.346 205.869C220.017 206.459 219.261 206.651 218.7 206.275C218.696 206.271 218.688 206.266 218.684 206.262C218.559 206.179 218.439 206.087 218.314 205.995C217.903 205.681 217.52 205.309 217.363 204.941C216.752 203.545 217.134 201.718 217.587 198.327C217.869 196.199 217.774 194.213 217.711 193.314C217.691 193.026 217.878 192.771 218.152 192.687C223.262 191.174 223.711 188.732 222.714 187.361C221.954 186.315 222.535 185.768 222.938 185.755C224.189 185.718 227.102 186.951 228.547 187.607C228.709 187.674 228.851 187.737 228.967 187.791C229.233 187.917 229.395 187.992 229.395 187.992C229.781 188.13 229.952 188.594 229.752 188.962Z" fill="#226234"/>
<path d="M218.123 198.541C217.803 198.541 217.57 198.495 217.545 198.491L217.612 198.16C217.624 198.164 219 198.436 219.681 197.542L219.947 197.746C219.444 198.411 218.659 198.541 218.123 198.541Z" fill="white"/>
<path d="M217.969 200.372C217.649 200.372 217.417 200.326 217.392 200.322L217.458 199.991C217.471 199.996 218.846 200.267 219.527 199.373L219.793 199.577C219.29 200.242 218.505 200.372 217.969 200.372Z" fill="white"/>
<path d="M222.731 192.064L222.515 191.809C222.54 191.788 225.008 189.627 223.844 187.516L224.135 187.353C225.431 189.706 222.76 192.043 222.731 192.064Z" fill="white"/>
<path d="M227.358 190.112L221.98 200.023L222.272 200.183L227.65 190.272L227.358 190.112Z" fill="white"/>
<path d="M221.292 201.296L220.02 203.641L220.311 203.801L221.584 201.457L221.292 201.296Z" fill="white"/>
<path d="M165.883 89.1232C165.709 89.0731 161.6 87.8606 159.464 83.9097C157.993 81.1838 157.844 77.8433 159.024 73.9844L159.448 74.1182C158.305 77.8558 158.442 81.0751 159.851 83.6923C161.891 87.476 165.962 88.6801 166 88.6926L165.883 89.1232Z" fill="#226234"/>
<path d="M176.308 76.3089C174.758 76.3089 172.319 75.6441 171.044 74.0429C170.254 73.052 169.61 71.3002 171.031 68.5952L171.326 68.7499C170.254 70.7943 170.246 72.5043 171.306 73.8338C172.785 75.6901 175.905 76.2211 177.11 75.8908L177.197 76.2169C176.965 76.2754 176.657 76.3089 176.308 76.3089Z" fill="#226234"/>
<path d="M174.875 76.635C173.803 76.635 172.519 76.3381 171.123 75.41L171.306 75.1299C174.958 77.5548 177.758 75.4644 177.783 75.4434L177.987 75.711C177.974 75.7236 176.753 76.635 174.875 76.635Z" fill="#226234"/>
<path d="M14.6001 132.152C14.6043 132.278 14.6043 132.403 14.6084 132.529C14.9616 147.956 17.1553 159.88 20.3006 169.094L28.4441 173.614L21.9044 172.945L21.7174 172.928C25.7726 183.025 30.9828 189.413 35.8024 193.444C38.7981 195.956 41.6483 197.558 43.9668 198.569C44.1205 198.636 44.2701 198.703 44.4196 198.762C44.7936 198.921 45.1551 199.058 45.4958 199.184H49.8459C49.8958 198.979 49.9415 198.774 49.983 198.569C50.0121 198.44 50.0412 198.31 50.0661 198.181C50.1077 198.009 50.1409 197.838 50.1742 197.67C54.2667 177.519 46.979 161.999 37.9505 151.138C37.9256 151.1 37.8965 151.067 37.8633 151.029C34.7222 147.262 31.3692 144.055 28.2198 141.413L26.5578 146.43L25.9221 139.561C20.4502 135.288 15.9587 132.863 14.8577 132.294C14.6915 132.194 14.6001 132.152 14.6001 132.152Z" fill="#32934D"/>
<path d="M14.4504 132.232L14.6125 132.525L24.4969 150.832L24.6756 151.154L27.3721 156.146L27.4635 156.314L36.0558 172.222L36.0683 172.243L50.0743 198.176L50.2862 198.561L50.6186 199.18H51.0009L50.6685 198.561L50.1824 197.662L36.3591 172.075L36.1015 171.599L14.8618 132.282L14.7454 132.069L14.4504 132.232Z" fill="white"/>
<path d="M16.0588 149.165L15.9067 149.415L27.3532 156.479L27.5053 156.229L16.0588 149.165Z" fill="white"/>
<path d="M15.7937 145.453L15.6416 145.703L24.6125 151.239L24.7646 150.99L15.7937 145.453Z" fill="white"/>
<path d="M37.423 173.555L39.0766 152.434L38.7525 152.409L37.103 173.535L37.423 173.555Z" fill="white"/>
<path d="M51.9359 203.39C51.9359 203.39 41.906 208.821 26.8155 200.814L31.444 198.297L23.716 199.017C17.7953 195.296 11.2098 189.501 4.22127 180.621L5.9871 179.663L3.64375 179.881C2.46376 178.363 1.27547 176.754 0.074707 175.052C0.074707 175.052 4.35007 174.442 10.5325 174.835L13.9104 178.965L12.8094 175.023C25.4693 176.281 44.0956 181.942 51.9359 203.39Z" fill="#69D085"/>
<path d="M0.142294 174.914L-0.00830078 175.207L52.5823 202.533L52.7329 202.24L0.142294 174.914Z" fill="white"/>
<path d="M13.7529 182.14L6.48706 183.282L6.53453 183.588L13.8004 182.445L13.7529 182.14Z" fill="white"/>
<path d="M17.337 183.951L8.89526 185.928L8.96494 186.229L17.4067 184.253L17.337 183.951Z" fill="white"/>
<path d="M139.072 212.73H47.2659C45.0181 212.73 43.1941 210.894 43.1941 208.633V145.744C43.1941 143.482 45.0181 141.647 47.2659 141.647H139.072C141.32 141.647 143.144 143.482 143.144 145.744V208.633C143.144 210.899 141.32 212.73 139.072 212.73Z" fill="#69D085"/>
<path d="M140.115 149.027V205.359C140.115 207.742 138.195 209.678 135.823 209.678H129.345V148.358H48.7075C47.7062 148.358 46.896 147.542 46.896 146.535C46.896 145.527 47.7062 144.712 48.7075 144.712H135.823C138.191 144.708 140.115 146.639 140.115 149.027Z" fill="#226234"/>
<path d="M115.618 142.571C115.705 142.68 115.796 142.789 115.879 142.902C118.381 146.159 119.473 150.206 118.954 154.294C118.435 158.379 116.37 162.017 113.129 164.538C106.444 169.739 96.8002 168.497 91.6316 161.766C89.1303 158.509 88.0335 154.466 88.5528 150.377C89.0556 146.434 91 142.906 94.0456 140.402C94.1577 140.31 94.2658 140.226 94.3821 140.134C100.955 135.017 110.391 136.137 115.618 142.571Z" fill="#32934D"/>
<path d="M108.575 133.795C98.404 131.115 87.996 137.24 85.3328 147.479C82.6695 157.714 88.7564 168.187 98.9317 170.867C109.103 173.547 119.511 167.422 122.174 157.183C124.841 146.948 118.75 136.48 108.575 133.795ZM118.584 156.238C117.546 160.223 115.032 163.563 111.496 165.641C107.964 167.723 103.839 168.296 99.8748 167.251C91.7022 165.097 86.7911 156.652 88.9309 148.424C89.9696 144.44 92.4791 141.099 96.0149 139.017C99.4219 137.01 103.386 136.408 107.221 137.303C107.362 137.337 107.495 137.37 107.636 137.408C115.68 139.523 120.558 147.726 118.684 155.82C118.651 155.966 118.617 156.104 118.584 156.238Z" fill="#226234"/>
<path d="M75.8472 118.866C65.3353 118.577 56.5852 126.918 56.2943 137.5C56.0076 148.077 64.2966 156.886 74.8126 157.175C85.3244 157.463 94.0788 149.122 94.3655 138.541C94.6521 127.963 86.3632 119.154 75.8472 118.866ZM90.6552 138.436C90.543 142.554 88.8436 146.38 85.8687 149.214C82.898 152.049 79.009 153.55 74.9165 153.437C66.4696 153.203 59.7844 146.104 60.0129 137.6C60.1251 133.482 61.8203 129.656 64.7952 126.822C67.6621 124.088 71.3848 122.595 75.3237 122.595C75.4691 122.595 75.6062 122.599 75.7516 122.603C84.0614 122.829 90.6593 129.707 90.6593 138.014C90.6593 138.156 90.6593 138.298 90.6552 138.436Z" fill="#226234"/>
<path d="M87.1943 128.252C87.2816 128.36 87.373 128.469 87.4561 128.582C89.9573 131.839 91.0501 135.886 90.5307 139.975C90.0114 144.059 87.9464 147.697 84.7056 150.218C78.0204 155.419 68.3769 154.177 63.2082 147.446C60.707 144.189 59.6101 140.146 60.1295 136.057C60.6322 132.115 62.5767 128.586 65.6222 126.082C65.7344 125.99 65.8424 125.906 65.9588 125.814C72.5318 120.697 81.9675 121.817 87.1943 128.252Z" fill="#32934D"/>
<path d="M87.726 123.895C86.2552 122.599 84.6015 121.546 82.8149 120.764L82.9936 120.354C84.8259 121.153 86.5169 122.231 88.021 123.561L87.726 123.895Z" fill="#226234"/>
<path d="M86.0808 154.236L85.8315 153.864C90.8714 150.448 93.9793 144.766 94.1454 138.662C94.2493 134.87 93.2355 131.178 91.2204 127.992L91.5944 127.75C93.6593 131.015 94.6939 134.791 94.59 138.675C94.4197 144.921 91.2412 150.74 86.0808 154.236Z" fill="#226234"/>
<path d="M89.8866 134.088C89.8533 133.959 89.816 133.829 89.7786 133.7C88.5653 129.485 85.6071 126.007 81.6475 124.142L81.822 123.762C85.8854 125.677 88.931 129.251 90.1733 133.57C90.2148 133.716 90.2522 133.846 90.2855 133.98L89.8866 134.088Z" fill="#226234"/>
<path d="M81.6476 124.138C78.465 122.637 74.8461 122.303 71.4474 123.193L71.3435 122.788C74.8336 121.872 78.5564 122.219 81.8263 123.758L81.6476 124.138Z" fill="#226234"/>
<path d="M88.6442 145.832L88.2869 145.619C89.3048 143.876 89.9613 141.99 90.2355 140.013L90.6468 140.071C90.3643 142.103 89.6912 144.039 88.6442 145.832Z" fill="#226234"/>
<path d="M132.686 218.617H47.1412C44.9599 218.617 43.1941 216.84 43.1941 214.645V152.401C43.1941 150.206 44.9599 148.429 47.1412 148.429H132.686C134.867 148.429 136.633 150.206 136.633 152.401V214.641C136.633 216.836 134.867 218.617 132.686 218.617Z" fill="#69D085"/>
<path d="M78.868 215.858H50.7644C48.6496 215.858 46.9294 214.127 46.9294 211.999V206.555H47.374V211.999C47.374 213.88 48.8947 215.41 50.7644 215.41H78.868V215.858Z" fill="#226234"/>
<path d="M94.3573 215.406H85.6943V215.853H94.3573V215.406Z" fill="#226234"/>
<path d="M132.898 162.552H132.453V155.047C132.453 153.166 130.933 151.635 129.063 151.635H92.363V151.188H129.063C131.178 151.188 132.898 152.919 132.898 155.047V162.552Z" fill="#226234"/>
<path d="M85.765 151.188H77.4885V151.635H85.765V151.188Z" fill="#226234"/>
<path d="M47.374 190.007H46.9294V200.602H47.374V190.007Z" fill="#226234"/>
<path d="M143.032 169.107V188.941C143.032 191.433 141.029 193.452 138.549 193.452H121.497C116.046 193.452 111.625 189.004 111.625 183.518C111.625 180.776 112.73 178.292 114.517 176.494C116.303 174.697 118.771 173.585 121.497 173.585H138.549C138.673 173.585 138.798 173.589 138.923 173.601C141.228 173.413 143.032 171.469 143.032 169.107Z" fill="#32934D"/>
<path d="M123.853 186.8C125.652 184.99 125.652 182.054 123.853 180.243C122.053 178.433 119.136 178.433 117.336 180.243C115.537 182.054 115.537 184.99 117.336 186.8C119.136 188.611 122.053 188.611 123.853 186.8Z" fill="white"/>
<path d="M120.595 188.381V187.933C123.014 187.933 124.979 185.956 124.979 183.523C124.979 181.089 123.014 179.112 120.595 179.112V178.665C123.259 178.665 125.423 180.843 125.423 183.523C125.423 186.198 123.259 188.381 120.595 188.381Z" fill="#226234"/>
<path d="M116.212 183.523H115.768C115.768 182.227 116.27 181.006 117.18 180.086L117.496 180.404C116.669 181.236 116.212 182.344 116.212 183.523Z" fill="#226234"/>
<path d="M41.3742 187.327C38.9851 185.053 36.2679 183.054 33.2971 181.386L33.5132 180.993C36.513 182.678 39.2635 184.697 41.6775 186.997L41.3742 187.327Z" fill="#226234"/>
<path d="M28.4276 179.032C26.8072 178.363 25.0995 177.77 23.3503 177.26L23.475 176.829C25.2408 177.343 26.9651 177.945 28.598 178.619L28.4276 179.032Z" fill="#226234"/>
<path d="M139.238 54.6562C132.017 52.6703 124.314 52.3317 116.972 53.8786C113.299 54.6312 109.71 55.8018 106.323 57.4114C102.937 59.0169 99.7005 60.9735 96.7796 63.3357C93.8504 65.6853 91.1705 68.3611 88.8604 71.3295C86.5545 74.3062 84.5934 77.5464 83.027 80.9747C82.6364 81.8318 82.2916 82.7097 81.9301 83.5794C81.6226 84.4699 81.2736 85.3437 80.9994 86.2467C80.4343 88.0445 79.9399 89.8632 79.5826 91.7153C79.4081 92.6393 79.2419 93.5674 79.1172 94.5039C79.084 94.738 79.0508 94.9722 79.0258 95.2063L78.9968 95.4572L78.9801 95.6119C78.9594 95.8209 78.9303 96.0257 78.9137 96.2348L75.4443 95.8836C76.9027 99.6046 78.7641 102.983 80.9122 105.943C82.3913 102.59 84.2319 99.5878 86.3218 96.9915L82.8525 96.6403C82.8691 96.448 82.894 96.2599 82.9148 96.0717L82.9314 95.9296L82.9564 95.6996C82.9771 95.4864 83.0104 95.269 83.0394 95.0558C83.1516 94.1987 83.3012 93.3458 83.4632 92.4971C83.7873 90.7955 84.2444 89.1273 84.7637 87.4759C85.0172 86.6481 85.3371 85.8454 85.6196 85.0259C85.952 84.2274 86.2678 83.4247 86.6251 82.6387C88.0627 79.4947 89.8618 76.5263 91.9724 73.7962C94.0914 71.0744 96.5511 68.6203 99.2352 66.463C101.915 64.2931 104.886 62.4995 107.994 61.0279C111.101 59.5478 114.396 58.4775 117.766 57.7877C124.501 56.3662 131.552 56.684 138.187 58.5026L139.238 54.6562Z" fill="#226234"/>
<path d="M102.688 59.3639L102.472 59.0044C103.627 58.302 104.828 57.6456 106.041 57.0561C109.07 55.5844 112.356 54.4514 115.817 53.6822C119.025 52.9589 122.49 52.6244 126.109 52.6871C129.483 52.7373 132.927 53.2223 136.347 54.1211L136.243 54.5267C132.857 53.6362 129.445 53.1596 126.101 53.1094C122.511 53.0467 119.083 53.3811 115.905 54.0961C112.473 54.857 109.215 55.9816 106.215 57.4366C105.023 58.0177 103.835 58.6699 102.688 59.3639Z" fill="#226234"/>
<path d="M93.8214 66.4631L93.5181 66.1788C93.8962 65.7733 94.2992 65.3845 94.6939 65.0082C94.9183 64.7908 95.1426 64.5734 95.367 64.356C95.5623 64.1845 95.7492 64.0173 95.9362 63.8543C96.3891 63.4529 96.8586 63.039 97.3322 62.646L97.594 62.9679C97.1245 63.3526 96.6592 63.7665 96.2104 64.1678C96.0235 64.3351 95.8365 64.4981 95.6495 64.6612C95.4376 64.8744 95.2091 65.0918 94.9847 65.3092C94.5942 65.6813 94.1912 66.0659 93.8214 66.4631Z" fill="#226234"/>
<path d="M80.9493 106.348L80.7333 106.055C78.847 103.493 77.2099 100.662 75.8638 97.6436L76.2419 97.4722C77.5216 100.349 79.0713 103.054 80.8538 105.516C81.826 103.317 82.9769 101.222 84.2774 99.2825L84.6223 99.5166C83.2678 101.532 82.0795 103.723 81.0906 106.018L80.9493 106.348Z" fill="#226234"/>
<path d="M79.1171 96.243L78.7017 96.2137C78.7058 96.1719 79.0008 91.9116 80.1974 88.1948L80.5921 88.3244C79.408 91.991 79.1171 96.2012 79.1171 96.243Z" fill="#226234"/>
<path d="M50.1909 180.679C40.0156 183.343 33.908 193.803 36.5546 204.046C39.2013 214.285 49.5968 220.435 59.7762 217.768C69.9515 215.105 76.0634 204.644 73.4125 194.401C70.7659 184.162 60.3704 178.02 50.1909 180.679ZM69.8186 195.342C70.849 199.326 70.2715 203.478 68.1982 207.031C66.1249 210.585 62.8051 213.11 58.8414 214.147C50.6646 216.284 42.28 211.333 40.1528 203.101C39.1223 199.117 39.6957 194.965 41.769 191.412C43.7675 187.983 46.9335 185.508 50.7144 184.409C50.8516 184.367 50.9887 184.333 51.1258 184.296C59.1696 182.189 67.4087 186.951 69.7022 194.932C69.7438 195.074 69.7812 195.208 69.8186 195.342Z" fill="#226234"/>
<path d="M69.7065 194.936C69.7439 195.07 69.7854 195.208 69.8187 195.342C70.8491 199.326 70.2716 203.482 68.1983 207.031C66.125 210.585 62.8052 213.11 58.8415 214.147C50.6647 216.284 42.2801 211.334 40.1528 203.101C39.1224 199.117 39.6958 194.965 41.7691 191.412C43.7676 187.983 46.9336 185.508 50.7145 184.409C50.8517 184.367 50.9888 184.334 51.1259 184.296C59.1739 182.193 67.413 186.955 69.7065 194.936Z" fill="#32934D"/>
<path d="M68.3186 213.198L68.032 212.897C72.9389 208.148 74.9249 201.082 73.2089 194.456C72.6106 192.135 71.601 189.982 70.2091 188.063L70.5456 187.817C71.9666 189.782 73.0012 191.981 73.6119 194.351C75.3653 201.12 73.3377 208.344 68.3186 213.198ZM65.8174 183.719C64.0183 182.448 62.0365 181.512 59.9216 180.931L60.0297 180.529C62.1902 181.123 64.2178 182.08 66.0584 183.381L65.8174 183.719Z" fill="#226234"/>
<path d="M41.4116 188.515C42.8201 189.234 43.7882 190.337 44.4488 191.721C45.1095 190.337 46.0817 189.23 47.4902 188.51C46.0817 187.791 45.1095 186.688 44.4488 185.304C43.7882 186.683 42.8201 187.795 41.4116 188.515Z" fill="#B4E7C2"/>
<path d="M47.6357 193.494C48.4543 193.912 49.0152 194.552 49.4016 195.359C49.788 194.556 50.3489 193.912 51.1674 193.494C50.3489 193.076 49.7838 192.436 49.4016 191.629C49.0152 192.432 48.4543 193.076 47.6357 193.494Z" fill="#B4E7C2"/>
<path d="M69.619 195.396C69.5858 195.263 69.5442 195.129 69.5068 194.995C68.2978 190.793 65.3353 187.311 61.3799 185.446L61.5544 185.065C65.6179 186.98 68.6634 190.559 69.9057 194.878C69.9431 195.016 69.9846 195.15 70.0179 195.288L69.619 195.396Z" fill="#226234"/>
<path d="M61.38 185.45C58.1974 183.949 54.5743 183.615 51.1798 184.505L51.0759 184.1C54.566 183.184 58.2888 183.531 61.5587 185.07L61.38 185.45Z" fill="#226234"/>
<path d="M39.9491 203.156C38.9062 199.113 39.4879 194.903 41.5861 191.307L41.9434 191.52C39.8992 195.02 39.33 199.117 40.348 203.051L39.9491 203.156Z" fill="#226234"/>
<path d="M68.3769 207.14L68.0195 206.927C69.0375 205.183 69.6939 203.298 69.9682 201.32L70.3795 201.379C70.097 203.411 69.4239 205.351 68.3769 207.14Z" fill="#226234"/>
<path d="M61.5752 127.307C62.9837 128.026 63.9518 129.13 64.6124 130.514C65.273 129.13 66.2453 128.022 67.6538 127.303C66.2453 126.584 65.273 125.48 64.6124 124.096C63.9518 125.476 62.9837 126.584 61.5752 127.307Z" fill="#B4E7C2"/>
<path d="M82.0837 144.879C82.9023 145.297 83.4632 145.937 83.8496 146.744C84.236 145.941 84.7969 145.297 85.6154 144.879C84.7969 144.461 84.2318 143.822 83.8496 143.015C83.4673 143.817 82.9023 144.465 82.0837 144.879Z" fill="#B4E7C2"/>
<path d="M166.399 37.8159C167.807 38.535 168.775 39.6387 169.436 41.0226C170.097 39.6387 171.069 38.5308 172.477 37.8117C171.069 37.0926 170.097 35.9888 169.436 34.605C168.771 35.9888 167.803 37.0968 166.399 37.8159Z" fill="#B4E7C2"/>
<path d="M247.165 205.493C248.574 206.212 249.542 207.316 250.202 208.7C250.863 207.316 251.835 206.208 253.244 205.489C251.835 204.77 250.863 203.666 250.202 202.282C249.542 203.666 248.574 204.774 247.165 205.493Z" fill="#B4E7C2"/>
<path d="M245.113 215.092C245.931 215.51 246.492 216.15 246.879 216.957C247.265 216.154 247.826 215.51 248.644 215.092C247.826 214.674 247.261 214.034 246.879 213.228C246.492 214.03 245.927 214.674 245.113 215.092Z" fill="#B4E7C2"/>
</g>
<defs>
<filter id="filter0_ddd_783_741" x="23.4333" y="10.1514" width="296.741" height="201.435" filterUnits="userSpaceOnUse" color-interpolation-filters="sRGB">
<feFlood flood-opacity="0" result="BackgroundImageFix"/>
<feColorMatrix in="SourceAlpha" type="matrix" values="0 0 0 0 0 0 0 0 0 0 0 0 0 0 0 0 0 0 127 0" result="hardAlpha"/>
<feOffset dy="4"/>
<feGaussianBlur stdDeviation="2"/>
<feComposite in2="hardAlpha" operator="out"/>
<feColorMatrix type="matrix" values="0 0 0 0 0 0 0 0 0 0 0 0 0 0 0 0 0 0 0.25 0"/>
<feBlend mode="normal" in2="BackgroundImageFix" result="effect1_dropShadow_783_741"/>
<feColorMatrix in="SourceAlpha" type="matrix" values="0 0 0 0 0 0 0 0 0 0 0 0 0 0 0 0 0 0 127 0" result="hardAlpha"/>
<feOffset dy="4"/>
<feGaussianBlur stdDeviation="2"/>
<feComposite in2="hardAlpha" operator="out"/>
<feColorMatrix type="matrix" values="0 0 0 0 0 0 0 0 0 0 0 0 0 0 0 0 0 0 0.25 0"/>
<feBlend mode="normal" in2="effect1_dropShadow_783_741" result="effect2_dropShadow_783_741"/>
<feColorMatrix in="SourceAlpha" type="matrix" values="0 0 0 0 0 0 0 0 0 0 0 0 0 0 0 0 0 0 127 0" result="hardAlpha"/>
<feOffset dy="4"/>
<feGaussianBlur stdDeviation="2"/>
<feComposite in2="hardAlpha" operator="out"/>
<feColorMatrix type="matrix" values="0 0 0 0 0 0 0 0 0 0 0 0 0 0 0 0 0 0 0.25 0"/>
<feBlend mode="normal" in2="effect2_dropShadow_783_741" result="effect3_dropShadow_783_741"/>
<feBlend mode="normal" in="SourceGraphic" in2="effect3_dropShadow_783_741" result="shape"/>
</filter>
<clipPath id="clip0_783_741">
<rect width="348" height="226" fill="white"/>
</clipPath>
</defs>
</svg>
