<svg width="390" height="200" viewBox="0 0 390 200" fill="none" xmlns="http://www.w3.org/2000/svg">
<g clip-path="url(#clip0_1030_1448)">
<path d="M384.555 167.807C389.86 177.373 391.041 187.558 389.152 198.228C388.906 199.608 388.342 200.112 386.94 199.971C385.591 199.836 384.213 199.942 382.849 199.942C259.974 199.942 137.094 199.932 14.2192 200C11.9401 200 10.5572 199.288 9.27063 197.511C1.33948 186.565 -1.53714 174.491 1.02628 161.158C1.83577 161.962 1.72013 163.076 1.93696 164.059C3.66196 171.885 6.5964 179.092 12.2822 184.928C11.9593 184.948 11.6317 184.928 11.3233 184.996C10.0319 185.272 7.72391 184.269 7.71909 186.091C7.71427 187.573 10.0175 186.856 11.2606 186.856C132.931 186.894 254.602 186.894 376.272 186.846C377.356 186.846 379.419 187.757 379.409 185.96C379.399 184.323 377.303 185.277 376.166 184.957C379.019 181.974 381.11 178.506 382.474 174.622C383.259 172.375 383.871 170.079 384.555 167.807Z" fill="#226234"/>
<path d="M340.167 125.701C344.007 125.735 347.853 125.846 351.693 125.773C353.553 125.739 354.266 126.384 354.242 128.287C354.194 132.709 354.309 137.131 354.357 141.552C354.314 150.333 354.276 159.114 354.223 167.89C354.189 173.527 354.121 179.17 354.068 184.807C353.596 184.889 353.124 185.044 352.652 185.04C341.222 185.025 329.798 184.991 318.369 184.962C318.788 171.014 310.601 161.134 299.196 155.423C297.895 154.77 297.567 155.264 297.322 156.474C296.637 159.821 296.695 163.197 296.816 166.577C296.016 166.597 295.442 166.175 294.946 165.604C294.941 164.122 294.936 162.635 294.932 161.153C294.97 160.029 295.042 158.906 295.042 157.787C295.052 148.052 295.067 138.322 295.028 128.587C295.023 126.776 295.423 125.638 297.562 125.764C299.716 125.89 301.885 125.807 304.043 125.822C308.019 125.836 311.994 125.875 315.974 125.846C317.333 125.836 318.653 125.933 319.949 126.35C319.954 130.602 319.944 134.854 319.988 139.107C319.992 139.625 319.631 140.656 320.628 140.511C323.298 140.114 325.958 140.874 328.613 140.439C328.752 140.676 328.868 141.102 329.037 141.121C329.567 141.184 329.523 140.71 329.562 140.351C329.504 135.518 329.769 130.679 329.143 125.865C331.398 125.851 333.648 125.836 335.903 125.827C337.319 125.778 338.741 125.739 340.167 125.701ZM339.218 169.919C339.213 169.919 339.213 169.919 339.208 169.919C339.208 172.331 339.281 174.753 339.184 177.16C339.117 178.763 339.743 179.281 341.28 179.218C343.521 179.126 345.766 179.15 348.007 179.213C349.308 179.252 349.886 178.835 349.872 177.436C349.819 172.447 349.828 167.459 349.867 162.465C349.876 161.226 349.423 160.756 348.171 160.79C345.771 160.857 343.367 160.857 340.967 160.785C339.56 160.741 339.175 161.381 339.208 162.674C339.261 165.09 339.218 167.507 339.218 169.919ZM347.395 150.638C347.395 150.314 347.395 149.994 347.395 149.67C347.4 143.175 347.4 143.199 340.827 143.693C339.753 143.776 339.194 144.047 339.203 145.214C339.232 148.837 339.232 152.464 339.218 156.087C339.213 157.186 339.685 157.617 340.774 157.758C347.053 158.557 347.39 158.291 347.39 152.082C347.395 151.607 347.39 151.123 347.395 150.638Z" fill="#F9C269"/>
<path d="M287.762 90.9845C287.256 89.0908 287.728 87.1777 287.661 85.2744C287.632 82.785 287.56 80.3004 287.574 77.811C287.584 76.1934 286.885 75.4475 285.261 75.5105C282.712 75.6025 280.168 74.6823 277.619 75.4863H271.823C272.974 74.5273 273.543 73.6216 273.846 72.5706C273.48 71.4664 272.974 70.3864 273.239 69.1659C273.109 68.3958 272.979 67.6209 272.854 66.846C272.29 65.0685 273.042 63.8432 274.487 62.9085C274.627 61.8236 274.767 60.7484 273.08 60.9954C272.661 61.0584 272.295 60.8356 272.141 60.4336C271.346 58.3801 269.091 58.0798 267.737 56.7043C266.58 56.7576 265.891 55.6146 264.783 55.5371C262.571 60.0703 261.646 64.7247 263.467 69.6405C264.527 70.3089 265.636 70.2072 266.778 69.5485C266.946 70.7593 266.556 71.5051 266.142 72.2462C266.373 73.549 267.086 74.5806 267.958 75.5202C269.197 75.4088 269.399 76.1304 269.394 77.1765C269.36 81.7727 269.38 86.3689 269.38 90.9167C266.156 91.1346 263.024 91.125 259.723 90.8489V75.588C258.731 75.5299 257.733 75.4717 256.741 75.4185C253.556 75.4524 250.371 75.4911 247.186 75.525C246.858 75.525 246.521 75.5444 246.261 75.462C245.895 75.9512 245.533 76.5372 245.186 77.2395C244.025 79.5981 242.565 87.4926 241.582 93.4691C241.794 95.5323 241.837 97.6148 241.808 99.7216C241.712 106.09 241.833 112.464 241.756 118.838C241.731 120.794 242.358 121.569 244.391 121.531C248.718 121.439 253.055 121.56 257.387 121.594H281.426C282.582 121.555 283.739 121.521 284.895 121.482C284.644 120.271 285.43 119.375 286.133 118.741C287.56 117.457 287.752 115.951 287.743 114.188C287.699 106.454 287.748 98.7191 287.762 90.9845ZM252.081 118.116C245.21 118.378 245.21 118.431 245.215 111.486C245.215 109.316 245.278 107.141 245.191 104.977C245.133 103.475 245.755 103.088 247.171 103.049C253.917 102.86 253.917 102.821 253.912 109.558V110.764C253.908 112.532 253.855 114.305 253.927 116.067C253.98 117.433 253.638 118.053 252.081 118.116Z" fill="#F5C97A"/>
<path d="M246.261 75.4619C245.895 75.951 245.534 76.5371 245.187 77.2393C244.026 79.598 242.566 87.4924 241.583 93.4689C241.371 91.4057 240.99 89.357 240.339 87.3229C239.27 83.9472 238.87 80.4213 239.356 76.8567C241.101 73.3696 241.592 73.1856 245.857 74.4496C245.746 75.0938 245.938 75.3553 246.261 75.4619Z" fill="#D6E8FE"/>
<path d="M61.5938 86.979C87.4688 86.9984 113.349 87.0226 139.224 87.0081C141.122 87.0081 142.76 87.1824 143.488 89.265C143.512 90.3353 143.541 91.4057 143.565 92.476C143.531 104.976 143.478 117.481 143.474 129.982C143.469 139.257 143.531 148.531 143.565 157.806C143.565 158.155 143.57 158.499 143.57 158.847C143.594 161.167 142.365 161.719 140.202 161.71C128.353 161.651 116.505 161.734 104.656 161.768C93.0823 161.758 81.5036 161.748 69.9297 161.734C64.4752 161.743 59.0207 161.753 53.5711 161.763C50.0151 161.758 46.459 161.758 42.903 161.753C42.585 161.729 42.267 161.685 41.949 161.681C37.0197 161.579 36.7499 161.288 36.7402 156.232C36.721 144.821 36.6921 133.411 36.668 122C36.6872 111.684 36.7017 101.368 36.721 91.0521C36.7258 87.8217 37.463 87.0759 40.6673 87.0613C47.6444 87.0323 54.6167 87.0081 61.5938 86.979ZM92.2921 158.789C107.215 158.789 122.138 158.794 137.065 158.784C140.019 158.784 140.25 158.537 140.25 155.651C140.255 135.087 140.255 114.527 140.25 93.9629C140.25 90.7615 139.508 90.0351 136.256 90.0351C105.524 90.0351 74.7963 90.0351 44.0643 90.0351C40.7251 90.0351 40.0457 90.7422 40.0457 94.1857C40.0457 109.912 40.0457 125.633 40.0457 141.358C40.0457 146.357 40.0794 151.36 40.0264 156.358C40.012 157.879 40.4649 158.46 42.0791 158.925C44.4112 159.593 46.5169 158.741 48.7237 158.75C63.2465 158.823 77.7693 158.789 92.2921 158.789Z" fill="#69D085"/>
<path d="M146.249 60.7531C146.986 68.4683 143.102 73.9654 137.725 78.765C136.94 79.4673 136.386 79.075 135.783 78.5422C131.88 75.1084 128.907 71.0643 127.659 65.9063C127.38 63.8286 127.211 61.7605 127.833 59.7022C129.124 55.4401 132.724 52.6262 136.93 52.6456C141.055 52.665 144.678 55.4837 145.936 59.6682C146.051 60.0315 146.148 60.3947 146.249 60.7531ZM132.247 63.7995C133.095 66.2937 135.706 67.6741 138.245 66.9718C140.698 66.2937 142.245 63.7317 141.705 61.2471C141.199 58.3945 138.429 56.588 135.653 57.3096C132.82 58.0506 131.273 60.9904 132.247 63.7995Z" fill="#69D085"/>
<path d="M36.6685 122C36.6926 133.411 36.7215 144.822 36.7408 156.232C36.7504 161.288 37.0203 161.579 41.9495 161.681C42.2676 161.686 42.5856 161.729 42.9036 161.753C43.0289 164.558 43.5252 164.979 46.3584 165.1C47.669 165.158 49.0808 164.601 50.2854 165.589C47.3173 174.975 49.5434 180.501 57.8745 184.429C57.2674 185.209 56.4049 184.918 55.6387 184.923C50.4348 184.943 45.2309 184.928 40.027 184.923C37.7189 182.923 35.9843 180.424 34.2063 177.988C28.1881 169.745 25.1669 160.208 22.6806 150.459C22.0927 147.016 21.5001 143.572 20.917 140.129C20.5075 137.726 20.705 135.227 19.7895 132.902C19.7702 128.485 19.7943 124.064 19.7076 119.647C19.6739 117.898 19.8425 117.109 22.0542 117.482C27.1521 118.339 31.932 120.058 36.6685 122Z" fill="#69D085"/>
<path d="M22.6803 150.459C25.1666 160.208 28.1877 169.74 34.206 177.988C35.984 180.424 37.7186 182.923 40.0267 184.923C30.7801 184.923 21.5287 184.928 12.2821 184.928C6.5963 179.092 3.66187 171.885 1.93686 164.059C1.72003 163.076 1.83568 161.962 1.02618 161.158C0.944265 156.024 -0.067608 150.958 0.00466869 145.795C0.0383978 143.422 0.997268 143.001 2.86682 143.407C4.77011 143.819 6.67339 143.809 8.59595 143.761C13.424 145.703 18.3726 147.408 22.6803 150.459Z" fill="#B4E7C2"/>
<path d="M229.474 21.77C229.479 27.2525 229.479 32.7398 229.484 38.2223C229.469 43.0607 229.455 47.9039 229.435 52.7422C229.416 79.438 229.272 106.129 229.484 132.82C229.527 138.288 226.014 142.651 219.832 142.395C211.983 142.075 204.11 142.317 196.246 142.317C196.106 141.668 195.967 141.019 195.827 140.37C203.772 140.361 211.718 140.341 219.664 140.346C225.287 140.346 227.421 138.263 227.421 132.703C227.421 92.0448 227.421 51.3861 227.421 10.7275C227.421 5.53072 225.267 3.32706 220.174 3.32222C202.756 3.31737 185.337 3.31737 167.918 3.32222C163.037 3.32222 160.864 5.48713 160.864 10.3884C160.859 40.4793 160.864 70.5701 160.869 100.661C160.233 100.671 159.592 100.675 158.956 100.685C158.956 69.708 158.961 38.7357 158.961 7.76343C160.455 3.18176 162.888 1.35588 167.62 1.35588C185.005 1.34619 202.389 1.38009 219.774 1.34135C227.065 1.32682 229.744 5.42417 229.431 11.1537C229.238 14.6795 229.445 18.2296 229.474 21.77Z" fill="#292E42"/>
<path d="M354.068 184.807C354.121 179.169 354.184 173.527 354.223 167.89C354.28 159.109 354.314 150.328 354.357 141.552C358.978 139.16 363.744 137.208 368.904 136.283C370.547 135.987 371.02 136.326 371.015 137.988C371.005 142.637 370.827 147.267 370.09 151.868C369.617 155.297 369.03 158.707 368.148 162.058C365.927 170.645 362.501 178.593 356.068 184.942C355.418 184.691 354.69 185.528 354.068 184.807Z" fill="#69D085"/>
<path d="M356.073 184.938C362.506 178.593 365.932 170.645 368.153 162.058C370.996 160.378 373.834 158.697 376.677 157.021C378.874 156.968 380.811 155.883 382.912 155.462C384.603 155.123 385.533 155.413 385.499 157.574C385.446 161.022 384.623 164.378 384.56 167.807C383.871 170.079 383.264 172.379 382.478 174.617C381.115 178.506 379.023 181.969 376.171 184.952C375.752 185.093 375.328 185.228 374.909 185.369C374.73 185.248 374.552 185.122 374.374 185.001C368.601 185.005 362.829 185.015 357.056 185.02C356.883 185.015 356.714 185.005 356.541 185.001C356.382 184.976 356.227 184.957 356.073 184.938Z" fill="#B4E7C2"/>
<path d="M69.5401 29.5387C69.516 34.3625 69.4148 39.1815 69.5015 44.0053C69.5401 46.1944 68.7788 46.9839 66.5719 46.9306C61.5367 46.8047 56.4966 46.9015 51.4565 46.8918C48.4498 46.887 48.2522 46.6594 48.2377 43.5355C48.2185 38.8763 48.1896 34.2123 48.1703 29.5532C48.1944 29.156 48.2859 28.7492 48.2281 28.3666C47.9149 26.2308 48.681 25.3348 50.9313 25.543C53.0514 25.7416 55.2004 25.6205 57.3398 25.6399C56.9977 27.1945 56.8242 28.7395 57.0796 30.3523C57.3783 32.2315 58.6938 31.9457 59.9466 31.9554C61.4451 31.9651 61.2283 30.8705 61.2427 29.9406C61.262 28.5071 61.2524 27.0735 61.2572 25.6399C62.6063 25.6205 63.9603 25.5866 65.3095 25.5866C69.3377 25.5818 69.3377 25.5866 69.5401 29.5387Z" fill="#F9C269"/>
<path d="M323.8 93.0236C323.882 92.8976 323.997 92.8444 324.147 92.8637C327.423 92.8928 330.7 92.9751 333.971 92.9267C335.716 92.9025 336.381 93.5708 336.366 95.3483C336.328 101.291 336.405 107.234 336.438 113.181C336.414 114.377 336.434 115.583 336.356 116.779C336.169 119.792 336.834 122.848 335.889 125.822C333.634 125.836 331.384 125.851 329.129 125.86C328.406 125.856 327.683 125.856 326.961 125.851C323.79 125.846 323.785 125.846 323.785 122.775C323.79 112.856 323.795 102.942 323.8 93.0236Z" fill="#F5C97A"/>
<path d="M274.483 62.9083C274.623 61.8234 274.762 60.7482 273.076 60.9952C272.657 61.0582 272.291 60.8306 272.136 60.4334C271.341 58.3799 269.086 58.0796 267.737 56.7042C267.978 56.5347 269.014 56.6945 268.094 56.0358C267.207 55.4013 266.171 54.9751 265.453 54.1034C265.737 53.7208 266.002 53.3236 266.311 52.9555C269.501 49.1294 271.076 48.8194 275.866 51.0618C278.029 52.0741 280.704 57.2466 279.933 59.7457C279.215 62.0704 277.225 63.5815 275.162 64.8359C274.936 64.1918 274.709 63.5476 274.483 62.9083Z" fill="#69D085"/>
<path d="M51.4805 9.71054C52.4779 9.69601 53.4753 9.68148 54.4727 9.66695C57.3782 9.66695 60.2838 9.66211 63.1845 9.66211C64.0662 9.69117 64.9528 9.71538 65.8346 9.74444C65.0926 11.6624 65.8732 13.6432 65.5744 15.5805C65.5792 16.2876 65.5841 16.9947 65.5889 17.7018C64.683 17.6679 64.0421 18.6414 63.0736 18.3557C60.3175 18.3799 57.5613 18.4041 54.81 18.4283C53.9716 18.4428 53.1814 18.3024 52.5646 17.6582C52.2418 16.985 51.9189 16.3167 51.5961 15.6435C52.2032 13.6529 52.5646 11.6672 51.4805 9.71054Z" fill="#D6E8FE"/>
<path d="M57.3394 25.63C55.2 25.6107 53.051 25.7317 50.9309 25.5332C48.6807 25.3249 47.9097 26.2161 48.2277 28.3567C48.2855 28.7394 48.194 29.151 48.1699 29.5433C45.8619 28.2066 45.2017 25.8141 44.4693 23.5135C44.2091 22.6902 44.7151 22.1526 45.6595 22.1817C46.9364 22.2156 48.2085 22.2204 49.4853 22.2349C50.3286 22.2349 51.1766 22.2398 52.0198 22.2398C56.5974 22.2398 61.1749 22.2398 65.7524 22.2398C66.4993 21.9686 67.4533 22.5982 68.0556 21.707C69.2217 22.5207 70.5419 22.1042 71.7947 22.1478C72.7488 22.1817 73.5486 22.4577 73.2306 23.499C72.5271 25.8044 71.9778 28.2696 69.5397 29.5288C69.3325 25.5768 69.3325 25.5719 65.3091 25.5719C63.9599 25.5719 62.606 25.6058 61.2568 25.6252C59.951 25.6349 58.6452 25.6349 57.3394 25.63Z" fill="#8489A3"/>
<path d="M65.569 15.5807C65.8678 13.6434 65.0872 11.6577 65.8292 9.74464C68.4986 9.29423 70.956 8.27231 73.3171 6.98402C75.0084 6.77576 76.4732 5.8943 78.0632 5.37608C78.8342 5.12423 79.8172 4.26698 80.3761 5.37608C80.9688 6.54329 80.3183 7.44412 79.1618 8.08343C76.2949 9.66715 73.505 11.3865 70.638 12.9702C68.9757 13.8807 67.4819 15.1497 65.569 15.5807Z" fill="#8489A3"/>
<path d="M51.48 9.71069C52.569 11.6673 52.2028 13.6531 51.5908 15.6436C47.9047 13.6676 44.474 11.2266 40.5855 9.6332C40.2675 8.91641 39.5784 8.64519 38.9472 8.36428C37.4246 7.69108 36.8127 6.60136 37.2174 4.96436C37.8293 4.97404 38.4413 4.98857 39.0532 4.99826C43.1152 6.7854 47.1771 8.5677 51.48 9.71069Z" fill="#8489A3"/>
<path d="M74.5273 0C78.2086 2.14069 81.4659 2.12132 85.1617 0.0145296C82.7958 3.92299 76.8595 3.91331 74.5273 0Z" fill="#292E42"/>
<path d="M265.453 54.0983C266.171 54.9701 267.207 55.3963 268.094 56.0308C269.009 56.6895 267.978 56.5345 267.737 56.6991C266.576 56.7524 265.887 55.6094 264.784 55.5319C264.017 54.5584 262.847 54.2 261.868 53.5462C260.919 52.9166 259.758 52.5582 258.674 51.1973C261.623 51.4636 263.208 53.585 265.453 54.0983Z" fill="#226234"/>
<path d="M52.0199 22.2447C51.1766 22.2447 50.3286 22.2398 49.4854 22.2398C50.29 20.5641 51.22 18.9707 52.5643 17.6533C53.1811 18.2975 53.9665 18.4379 54.8097 18.4234C54.1544 19.9054 52.5595 20.69 52.0199 22.2447Z" fill="#292E42"/>
<path d="M68.0555 21.7122C67.4531 22.6033 66.4991 21.9737 65.7522 22.2449C65.2463 20.6757 63.4442 20.0122 63.0684 18.351C64.0369 18.6367 64.6825 17.6633 65.5836 17.6972C66.4075 19.0387 67.2315 20.3754 68.0555 21.7122Z" fill="#292E42"/>
<path d="M274.483 62.9082C274.709 63.5475 274.936 64.1868 275.157 64.831C274.386 65.5042 273.616 66.1725 272.849 66.8457C272.29 65.0683 273.042 63.8429 274.483 62.9082Z" fill="#292E42"/>
<path d="M195.822 140.38C195.962 141.029 196.101 141.678 196.241 142.327C196.988 146.488 197.865 150.628 197.663 154.895C196.665 154.61 195.668 154.74 194.656 154.847C193.302 154.983 192.459 155.53 192.271 156.992C191.611 162.184 192.415 163.163 197.46 163.148C197.619 163.148 197.778 163.148 197.937 163.143C197.947 163.778 197.952 164.417 197.961 165.052C195.427 165.022 192.888 164.993 190.353 164.964C190.358 158.77 190.425 152.575 190.339 146.386C190.29 142.908 190.71 139.431 190.247 135.958C191.037 134.505 190.131 133.222 189.837 131.885C188.199 124.495 186.546 117.104 184.879 109.723C184.243 106.909 183.67 106.526 180.702 106.744C177.179 106.536 173.657 106.536 170.135 106.739C167.87 106.541 165.61 106.517 163.351 106.759C162.213 106.517 161.071 106.57 159.925 106.725C159.52 106.584 159.139 106.584 158.802 106.89C158.282 106.783 157.804 106.802 157.535 107.364C156.879 107.916 157.053 108.682 157.053 109.384C157.043 117.491 157.053 125.594 157.034 133.701C157.034 134.52 157.144 135.29 157.482 136.031C156.889 136.728 157.125 137.571 157.12 138.356C157.096 142.148 157.087 145.94 157.12 149.732C157.13 150.88 156.87 151.641 155.53 151.52C152.48 151.244 149.473 151.897 146.438 151.994C146.409 136.699 146.351 121.4 146.38 106.105C146.385 102.831 148.51 100.942 151.998 100.797C154.316 100.705 156.638 100.724 158.961 100.69C159.597 100.681 160.233 100.676 160.874 100.666C167.437 100.705 173.999 100.748 180.557 100.782C185.144 100.806 187.462 102.705 188.455 107.204C190.898 118.266 193.365 129.318 195.822 140.38Z" fill="#226234"/>
<path d="M104.661 161.768C116.51 161.734 128.358 161.651 140.207 161.709C142.37 161.719 143.594 161.167 143.575 158.847C143.753 158.823 143.931 158.799 144.11 158.774C144.789 158.799 145.473 158.823 146.153 158.842C146.071 160.285 146.316 160.818 147.984 160.092C153.11 157.864 157.837 158.828 162 162.499C164.814 164.979 165.817 168.345 166.265 171.933C165.638 178.67 161.952 182.884 155.645 184.933C153.742 184.918 151.838 184.908 149.93 184.894C149.444 184.298 148.702 184.196 148.056 183.896C143.387 181.731 140.539 178.104 140.332 172.912C140.24 170.631 139.45 170.34 137.513 170.35C123.092 170.417 108.67 170.384 94.2532 170.384C89.8009 170.384 89.2083 169.764 89.2468 165.167C93.2365 165.134 97.2213 165.109 101.211 165.071C104.102 165.046 104.478 164.678 104.661 161.768ZM159.109 171.987C159.129 168.398 156.691 165.957 153.115 165.976C149.815 165.996 147.102 168.606 147.049 171.822C146.991 175.266 149.858 178.147 153.279 178.089C156.483 178.026 159.095 175.295 159.109 171.987Z" fill="#292E42"/>
<path d="M166.261 171.933C165.813 168.345 164.81 164.979 161.996 162.499C157.833 158.828 153.106 157.864 147.98 160.092C146.308 160.818 146.067 160.281 146.149 158.842C146.245 156.561 146.341 154.28 146.438 151.994C149.469 151.897 152.475 151.238 155.53 151.519C156.87 151.64 157.13 150.88 157.12 149.732C157.086 145.94 157.096 142.148 157.12 138.356C157.125 137.571 156.889 136.728 157.482 136.031C157.843 136.699 158.546 136.287 159.043 136.525C158.566 137.319 158.561 138.196 158.561 139.087C158.575 142.7 158.652 146.313 158.532 149.921C158.474 151.694 159.202 152.473 160.792 153.026C164.232 154.217 167.07 156.319 169.407 159.167C172.443 162.862 173.354 167.274 173.97 171.817C171.402 171.856 168.834 171.895 166.261 171.933Z" fill="#69D085"/>
<path d="M137.986 81.6174C137.962 82.3197 137.596 82.7507 136.916 82.7701C136.232 82.7943 135.803 82.3632 135.769 81.6949C135.736 81.0071 136.174 80.581 136.844 80.5567C137.528 80.5325 137.928 80.92 137.986 81.6174Z" fill="#69D085"/>
<path d="M377.925 99.9348C378.662 107.65 374.778 113.147 369.401 117.947C368.615 118.649 368.061 118.257 367.459 117.724C363.556 114.29 360.583 110.246 359.335 105.088C359.056 103.01 358.887 100.942 359.509 98.8838C360.8 94.6218 364.399 91.8079 368.606 91.8272C372.73 91.8466 376.354 94.6654 377.612 98.8499C377.722 99.2131 377.824 99.5764 377.925 99.9348ZM363.922 102.981C364.77 105.475 367.382 106.856 369.921 106.153C372.374 105.475 373.921 102.913 373.381 100.429C372.875 97.5761 370.104 95.7696 367.329 96.4912C364.491 97.2323 362.949 100.172 363.922 102.981Z" fill="#69D085"/>
<path d="M369.662 120.799C369.638 121.501 369.271 121.932 368.592 121.952C367.908 121.976 367.479 121.545 367.445 120.876C367.411 120.189 367.85 119.763 368.52 119.738C369.199 119.709 369.604 120.102 369.662 120.799Z" fill="#69D085"/>
<path d="M143.565 92.4713C143.541 91.4009 143.512 90.3306 143.488 89.2603C144.64 90.3064 144.269 91.3864 143.565 92.4713Z" fill="#265499"/>
<path d="M144.105 158.77C143.927 158.794 143.749 158.818 143.57 158.843C143.57 158.499 143.565 158.15 143.565 157.801C143.98 157.995 144.091 158.358 144.105 158.77Z" fill="#265499"/>
<path d="M149.93 184.894C151.834 184.909 153.737 184.918 155.64 184.933C168.554 184.933 181.467 184.938 194.385 184.938C201.387 184.938 208.393 184.933 215.394 184.933C222.111 184.933 228.833 184.933 235.549 184.928C238.956 184.928 242.363 184.933 245.774 184.933C248.333 185.156 250.887 185.146 253.445 184.928C260.215 184.913 266.985 184.899 273.76 184.884C276.405 185.146 279.05 185.214 281.696 184.86C285.285 184.889 288.875 184.913 292.47 184.942C296.97 184.962 301.466 184.986 305.966 185.005C306.13 185.228 306.299 185.238 306.472 185.02C306.646 184.996 306.814 184.976 306.988 184.952C310.785 184.952 314.582 184.957 318.378 184.957C329.808 184.986 341.232 185.02 352.662 185.035C353.134 185.035 353.606 184.88 354.078 184.802C354.7 185.524 355.427 184.686 356.083 184.933C356.237 184.952 356.396 184.972 356.55 184.996C356.714 185.233 356.883 185.243 357.066 185.015C362.838 185.01 368.611 185.001 374.383 184.996C374.561 185.117 374.74 185.243 374.918 185.364C375.337 185.223 375.761 185.088 376.181 184.947C377.318 185.267 379.414 184.313 379.423 185.95C379.438 187.752 377.371 186.836 376.286 186.836C254.616 186.885 132.945 186.885 11.275 186.846C10.0318 186.846 7.72859 187.563 7.73341 186.081C7.73822 184.26 10.0463 185.267 11.3376 184.986C11.646 184.918 11.9785 184.938 12.2965 184.918C21.5479 184.918 30.7945 184.913 40.0411 184.913C45.245 184.918 50.4489 184.933 55.6528 184.913C56.4141 184.909 57.2766 185.204 57.8886 184.419C59.6618 184.603 61.435 184.788 63.213 184.972C63.5551 185.403 64.0514 185.49 64.5091 185.388C68.2627 184.555 72.0066 185.606 75.7554 185.393C76.5986 185.344 77.5334 185.669 78.2031 184.841C79.162 184.889 80.1209 184.976 81.0846 184.976C100.108 184.986 119.131 184.986 138.154 184.976C142.072 184.986 145.999 184.928 149.93 184.894Z" fill="#5A94DC"/>
<path d="M304.039 125.821C303.745 124.567 303.624 123.313 303.629 122.015C303.658 113.399 303.639 104.783 303.643 96.1665C303.643 93.1588 303.841 92.9506 306.727 92.9603C310.813 92.9748 314.895 93.0135 318.981 93.0474C318.976 102.797 319 112.546 318.932 122.296C318.923 123.787 319.144 125.109 319.939 126.349C318.643 125.938 317.323 125.836 315.964 125.846C311.994 125.875 308.014 125.836 304.039 125.821ZM307.961 117.506C307.961 118.552 308.048 119.603 307.942 120.634C307.787 122.116 308.587 123.027 309.806 122.63C311.127 122.199 313.439 123.874 313.753 120.959C313.994 118.731 313.483 116.493 313.984 114.265C314.153 113.515 313.714 112.968 312.813 112.769C309.011 111.941 307.961 112.73 307.961 116.537C307.961 116.861 307.961 117.181 307.961 117.506Z" fill="#F5C97A"/>
<path d="M318.369 184.967C314.572 184.967 310.776 184.962 306.979 184.962C306.405 180.07 305.152 175.528 301.808 171.629C300.242 169.803 298.238 168.495 296.807 166.587C296.686 163.206 296.629 159.831 297.313 156.484C297.559 155.273 297.886 154.784 299.187 155.433C310.602 161.138 318.789 171.018 318.369 184.967Z" fill="#69D085"/>
<path d="M296.811 166.582C298.242 168.49 300.247 169.798 301.813 171.624C305.152 175.522 306.41 180.065 306.983 184.957C306.814 184.981 306.641 185 306.467 185.02C306.299 185.015 306.13 185.01 305.961 185.005C301.461 184.986 296.965 184.962 292.465 184.942C291.795 183.649 290.566 182.836 289.805 181.576C286.649 176.36 286.047 170.65 286.206 164.732C286.249 163.196 287.03 162.891 288.196 163.259C290.465 163.971 292.696 164.814 294.942 165.603C295.438 166.18 296.011 166.601 296.811 166.582Z" fill="#B4E7C2"/>
<path d="M319.945 126.345C319.155 125.11 318.928 123.783 318.938 122.291C319.005 112.542 318.981 102.792 318.986 93.0428C320.591 93.038 322.195 93.0283 323.804 93.0234C323.8 102.937 323.795 112.856 323.79 122.77C323.79 125.841 323.795 125.841 326.965 125.846C327.688 125.846 328.411 125.851 329.134 125.855C329.76 130.67 329.495 135.513 329.553 140.342C329.235 140.371 328.922 140.4 328.604 140.429C325.949 140.865 323.289 140.104 320.619 140.501C319.622 140.651 319.983 139.62 319.979 139.097C319.94 134.849 319.95 130.597 319.945 126.345Z" fill="#FADFB0"/>
<path d="M294.941 165.608C292.696 164.819 290.465 163.976 288.196 163.264C287.025 162.896 286.244 163.201 286.206 164.737C286.047 170.655 286.649 176.36 289.805 181.581C290.566 182.84 291.8 183.654 292.465 184.947C288.875 184.918 285.285 184.894 281.691 184.865C282.375 182.913 281.069 181.765 279.961 180.535C280.11 179.513 280.395 178.486 280.39 177.464C280.366 169.783 281.219 162.121 280.954 154.435C286.051 155.748 290.634 158.15 294.927 161.157C294.932 162.639 294.937 164.121 294.941 165.608Z" fill="#69D085"/>
<path d="M339.218 169.919C339.218 167.502 339.262 165.09 339.199 162.678C339.165 161.385 339.551 160.746 340.958 160.789C343.357 160.867 345.762 160.867 348.161 160.794C349.414 160.755 349.867 161.225 349.857 162.47C349.819 167.458 349.809 172.447 349.862 177.44C349.877 178.84 349.298 179.256 347.997 179.218C345.757 179.155 343.511 179.13 341.271 179.222C339.734 179.285 339.107 178.767 339.175 177.164C339.276 174.752 339.199 172.335 339.199 169.923C339.209 169.919 339.213 169.919 339.218 169.919ZM341.666 174.65C340.726 175.343 340.717 175.474 341.117 175.508C342.21 175.6 343.381 176.002 344.47 175.135C343.666 174.428 342.818 174.825 342.076 174.641C344.894 174.113 344.668 172.04 344.427 169.957C344.441 169.434 344.456 168.916 344.465 168.393C344.345 166.461 345.049 164.451 343.738 162.625C343.034 161.646 342.018 162.397 341.179 161.952C340.741 161.719 340.707 162.789 340.693 163.308C340.654 164.988 340.669 166.669 340.664 168.354C340.683 168.897 340.702 169.434 340.722 169.977C340.837 171.575 339.893 173.391 341.666 174.65ZM348.913 168.989C348.359 168.069 349.814 166.243 347.491 166.141C344.918 166.03 345.95 168.165 345.824 169.236C345.723 170.108 345.188 171.982 347.438 171.861C349.78 171.735 348.388 169.967 348.913 168.989ZM342.591 178.123C343.121 177.769 344.408 178.665 344.48 177.203C344.557 175.711 343.295 176.234 342.572 176.239C341.849 176.244 340.606 175.701 340.635 177.183C340.664 178.433 341.733 177.987 342.591 178.123ZM347.347 175.212C348.253 175.232 349.39 175.159 349.192 174.001C348.855 171.992 347.284 174.253 346.436 173.406C346.099 173.067 345.53 173.057 345.559 173.851C345.607 175.028 346.383 175.246 347.347 175.212ZM348.826 163.642C349.014 162.533 348.518 162.16 347.366 162.14C346.099 162.121 345.983 162.751 345.945 163.773C345.897 165.008 346.292 165.511 347.569 165.477C348.918 165.448 348.898 164.63 348.826 163.642ZM348.797 177.203C348.865 176.317 348.32 176.128 347.612 176.176C346.966 176.22 346.109 175.919 346.027 177.038C345.959 177.92 346.509 178.113 347.212 178.084C347.872 178.055 348.701 178.278 348.797 177.203Z" fill="#FDFDFD"/>
<path d="M347.396 150.638C347.396 151.123 347.396 151.607 347.396 152.086C347.396 158.295 347.054 158.566 340.78 157.763C339.691 157.622 339.214 157.186 339.224 156.092C339.243 152.469 339.243 148.841 339.209 145.219C339.199 144.051 339.758 143.775 340.833 143.698C347.405 143.204 347.4 143.175 347.4 149.674C347.396 149.994 347.396 150.319 347.396 150.638ZM343.199 146.066C344.1 145.606 346.075 146.894 346.172 145.272C346.234 144.274 344.134 145.001 343.03 144.778C342.804 144.729 342.543 144.725 342.317 144.778C341.618 144.938 340.361 144.318 340.361 145.412C340.356 146.507 341.618 145.902 342.317 146.061C342.548 146.11 342.794 146.066 343.199 146.066ZM341.589 146.851C340.64 146.735 340.163 147.093 340.192 148.183C340.216 149.146 340.428 149.679 341.532 149.645C342.471 149.616 343.035 149.442 343.011 148.318C342.992 147.321 342.674 146.788 341.589 146.851ZM345.863 151.413C344.018 151.016 342.158 150.696 340.37 151.558C342.216 152.212 344.047 152.27 345.863 151.413ZM345.492 154.353C345.435 153.84 345.675 153.089 344.664 153.016C343.753 152.948 343.565 153.467 343.599 154.203C343.628 154.905 343.449 155.753 344.567 155.767C345.521 155.791 345.502 155.108 345.492 154.353Z" fill="#FDFDFD"/>
<path d="M328.604 140.433C328.922 140.404 329.235 140.375 329.553 140.346C329.514 140.705 329.558 141.179 329.028 141.116C328.859 141.097 328.743 140.671 328.604 140.433Z" fill="#69D085"/>
<path d="M63.1844 9.66194C60.2789 9.66194 57.3782 9.66679 54.4727 9.66679C54.5449 8.04431 54.8437 6.49933 55.9712 5.2401C56.5109 5.25463 57.0794 5.35149 57.4119 4.74609C58.2407 4.80906 59.0694 4.87202 59.8982 4.93014C60.4186 5.44836 61.0739 5.21104 61.681 5.26432C62.8808 6.48965 62.8857 8.12665 63.1844 9.66194Z" fill="#8489A3"/>
<path d="M37.4059 3.13358C35.8062 2.60083 33.5993 3.24982 32.9199 0.697451C34.4088 0.324525 35.4207 1.57407 36.6735 1.72905C38.2539 1.92278 39.8055 1.6225 41.2221 0.813688C41.6317 0.581214 42.1617 0.237347 42.5279 0.702294C43.0772 1.40456 42.1617 1.59829 41.9015 2.00512C40.933 3.53557 39.1357 2.35867 37.9407 3.19654C37.7625 3.17717 37.5842 3.15295 37.4059 3.13358Z" fill="#292E42"/>
<path d="M60.0572 3.07565C61.4593 2.49447 62.8663 1.91813 64.2685 1.33694C64.9238 1.06573 65.6803 0.552346 66.2103 1.34179C66.7211 2.10217 65.7429 2.35402 65.4249 2.82381C64.5383 4.146 63.2518 4.61095 61.7147 4.49955C61.151 4.44144 60.5872 4.37847 60.0234 4.32036C60.0331 3.90384 60.0475 3.49217 60.0572 3.07565Z" fill="#292E42"/>
<path d="M55.9374 4.46071C54.1786 4.7174 52.9162 3.89406 51.8995 2.56218C51.6393 2.21831 51.0033 1.99553 51.3309 1.42403C51.6634 0.85253 52.2368 0.828314 52.7909 1.10922C54.3377 1.88413 56.0627 2.27643 57.4552 3.36615C57.4263 3.70517 57.3974 4.0442 57.3636 4.38322C56.8914 4.40744 56.4144 4.43165 55.9374 4.46071Z" fill="#292E42"/>
<path d="M57.3682 4.37808C57.3971 4.03905 57.426 3.70003 57.4597 3.361C58.2307 2.39721 59.0594 1.95648 60.0569 3.07041C60.0472 3.48208 60.0376 3.8986 60.0231 4.31027C59.9798 4.51369 59.9412 4.72194 59.8978 4.92536C59.0691 4.8624 58.2403 4.79943 57.4067 4.74132C57.4549 4.61539 57.4404 4.49431 57.3682 4.37808Z" fill="#FDFDFD"/>
<path d="M37.4057 3.13379C37.584 3.15316 37.7623 3.17738 37.9454 3.19675C38.9621 3.39532 39.1837 4.0879 39.0585 4.99842C38.4465 4.98873 37.8346 4.97421 37.2226 4.96452C36.4372 4.2671 36.5866 3.66654 37.4057 3.13379Z" fill="#D6E8FE"/>
<path d="M59.8984 4.93052C59.9418 4.7271 59.9804 4.51884 60.0237 4.31543C60.5875 4.37839 61.1512 4.43651 61.715 4.49463C61.7054 4.75132 61.6957 5.00801 61.6813 5.25985C61.079 5.21627 60.4188 5.44874 59.8984 4.93052Z" fill="#69D085"/>
<path d="M57.3686 4.37842C57.4409 4.49465 57.4554 4.61573 57.412 4.74166C57.0795 5.34706 56.511 5.25019 55.9713 5.23566C55.9617 4.97413 55.952 4.71744 55.9424 4.45591C56.4146 4.43169 56.8916 4.40748 57.3686 4.37842Z" fill="#69D085"/>
<path d="M280.954 154.435C281.219 162.121 280.366 169.783 280.39 177.464C280.395 178.486 280.111 179.513 279.962 180.54C278.251 179.62 276.695 180.273 275.148 181.01C275.008 180.525 274.868 180.046 274.729 179.562C275.726 178.399 274.705 177.251 274.632 176.118C274.15 168.204 273.201 160.329 272.242 152.459C271.327 143.887 270.411 135.319 269.496 126.746C268.855 127.061 268.629 127.386 268.523 127.744C265.925 136.341 263.323 144.933 260.75 153.539C257.994 162.751 255.257 171.967 252.516 181.184C251.157 180.254 249.707 179.784 248.059 180.225C248.868 171.996 250.352 163.874 251.677 155.723C253.219 146.231 254.8 136.748 256.428 127.269C256.756 125.376 257.517 123.564 257.392 121.593C265.405 121.593 273.423 121.593 281.436 121.593C281.219 132.539 281.841 143.494 280.954 154.435Z" fill="#B4E7C2"/>
<path d="M235.554 184.933C228.837 184.933 222.115 184.933 215.399 184.938C215.35 183.741 215.317 182.56 215.153 181.358C214.632 177.508 213.163 173.968 211.973 170.33C217.471 154.639 229.059 146.424 244.806 143.33C245.822 143.131 246.68 143.117 246.723 144.623C247.046 155.917 246.15 166.979 240.96 177.29C239.539 180.119 237.612 182.569 235.554 184.933Z" fill="#B4E7C2"/>
<path d="M211.973 170.33C213.163 173.968 214.633 177.508 215.153 181.358C215.317 182.559 215.346 183.741 215.399 184.937C208.398 184.937 201.392 184.942 194.386 184.942C191.5 181.862 189.206 178.423 187.968 174.341C190.04 174.326 192.116 174.326 194.188 174.287C201.541 174.142 200.351 175.643 200.457 167.42C200.476 165.734 199.701 164.872 197.961 165.056C197.952 164.422 197.947 163.782 197.937 163.148C197.927 162.635 197.923 162.121 197.913 161.608C197.966 160.508 198.019 159.409 198.072 158.305C203.035 160.174 206.687 163.681 209.863 167.802C210.528 168.669 210.822 169.865 211.973 170.33Z" fill="#69D085"/>
<path d="M248.048 180.225C249.696 179.784 251.152 180.254 252.506 181.184C253.252 182.327 253.681 183.548 253.445 184.938C250.887 185.156 248.333 185.165 245.774 184.942C245.432 182.831 246.328 181.325 248.048 180.225Z" fill="#292E42"/>
<path d="M197.908 161.603C197.918 162.117 197.923 162.63 197.932 163.143C197.773 163.143 197.614 163.148 197.455 163.148C192.415 163.163 191.61 162.184 192.266 156.992C192.454 155.525 193.297 154.983 194.651 154.847C195.663 154.745 196.66 154.614 197.658 154.895C197.951 155.399 197.927 155.908 197.701 156.426C197.383 156.431 197.06 156.46 196.742 156.431C194.863 156.276 193.562 156.455 193.552 159.012C193.543 161.55 194.81 161.782 196.704 161.627C197.108 161.589 197.513 161.608 197.908 161.603Z" fill="#69D085"/>
<path d="M197.908 161.603C197.508 161.608 197.108 161.588 196.713 161.622C194.819 161.777 193.552 161.545 193.562 159.007C193.571 156.45 194.872 156.271 196.751 156.426C197.069 156.45 197.387 156.426 197.71 156.421C197.831 157.046 197.951 157.675 198.072 158.3C198.014 159.404 197.961 160.504 197.908 161.603Z" fill="#FDFDFD"/>
<path d="M267.958 75.52C269.197 75.4086 269.399 76.1302 269.389 77.1715C269.36 81.7677 269.375 86.3639 269.375 90.9117C266.147 91.1248 263.019 91.1199 259.719 90.8438C259.719 85.8747 259.719 80.7264 259.719 75.5829C260.042 75.5442 260.369 75.5054 260.692 75.4667C261.328 75.4618 261.964 75.457 262.6 75.4521C264.388 75.4764 266.171 75.5006 267.958 75.52Z" fill="#FADFB0"/>
<path d="M288.842 89.4878C290.548 93.9193 291.786 98.501 292.644 103.155C293.26 106.483 291.964 109.645 291.169 112.827C290.707 114.677 289.979 116.421 289.979 118.431C289.984 120.799 287.435 122.179 284.886 121.482C284.64 120.271 285.426 119.375 286.129 118.741C287.555 117.457 287.748 115.951 287.738 114.188C287.695 106.454 287.743 98.7189 287.758 90.9892C288.326 90.6405 288.644 90.1029 288.842 89.4878Z" fill="#D6E8FE"/>
<path d="M253.908 110.764C253.908 112.532 253.855 114.304 253.922 116.067C253.975 117.433 253.628 118.053 252.077 118.111C245.201 118.377 245.206 118.426 245.206 111.485C245.206 109.316 245.268 107.141 245.181 104.976C245.124 103.475 245.745 103.092 247.162 103.049C253.908 102.86 253.903 102.821 253.898 109.558C253.908 109.96 253.908 110.362 253.908 110.764ZM250.732 113.273C250.674 114.072 250.597 114.871 250.568 115.67C250.535 116.503 250.872 117.118 251.773 117.113C252.689 117.108 252.973 116.459 252.963 115.641C252.954 114.837 252.925 114.038 252.901 113.234C252.896 110.832 252.886 108.429 252.881 106.027C252.963 105.102 253.387 104.017 251.759 104.027C250.101 104.032 250.612 105.136 250.689 106.042C250.53 108.454 250.462 110.866 250.732 113.273ZM249.658 109.989C249.248 108.366 249.716 106.662 249.219 104.879C248.877 103.664 248.376 104.08 247.86 104.037C247.167 103.979 246.304 103.901 246.299 104.991C246.28 108.42 246.213 111.854 246.343 115.283C246.381 116.334 246.815 117.016 248.203 115.951C250.409 114.256 249.214 112.028 249.658 109.989Z" fill="#FDFDFD"/>
<path d="M267.958 75.5202C266.175 75.5008 264.388 75.4766 262.605 75.4572C262.566 74.6435 262.528 73.8347 262.489 73.0211C263.651 72.4835 264.85 72.1493 266.142 72.2462C266.368 73.549 267.081 74.5806 267.958 75.5202Z" fill="#B4E7C2"/>
<path d="M273.847 72.5703C274.401 72.6139 274.955 72.6527 275.509 72.7108C277.191 72.8851 278.116 73.6455 277.62 75.4908C275.847 75.4908 274.069 75.4908 271.823 75.4908C272.975 74.5221 273.543 73.6213 273.847 72.5703Z" fill="#B4E7C2"/>
<path d="M260.692 75.4716C260.369 75.5103 260.042 75.549 259.719 75.5878C258.726 75.5297 257.729 75.4764 256.736 75.4183C257.83 74.3818 259.146 73.8442 260.62 73.665C260.649 74.2656 260.673 74.8662 260.692 75.4716Z" fill="#B4E7C2"/>
<path d="M288.841 89.488C288.639 90.103 288.326 90.6406 287.757 90.9845C287.251 89.086 287.728 87.1729 287.661 85.2695C288.427 86.5724 288.533 88.0592 288.841 89.488Z" fill="#B4E7C2"/>
<path d="M92.2924 158.789C77.7696 158.789 63.2468 158.823 48.724 158.75C46.5171 158.741 44.4067 159.593 42.0794 158.925C40.4604 158.46 40.0122 157.879 40.0267 156.358C40.0749 151.36 40.046 146.357 40.046 141.359C40.046 125.633 40.046 109.912 40.046 94.1858C40.046 90.7423 40.7254 90.0352 44.0646 90.0352C74.7966 90.0352 105.524 90.0352 136.256 90.0352C139.508 90.0352 140.25 90.7616 140.25 93.963C140.255 114.527 140.255 135.087 140.25 155.651C140.25 158.537 140.019 158.78 137.065 158.784C122.138 158.794 107.215 158.789 92.2924 158.789Z" fill="#226234"/>
<path d="M63.1984 184.981C61.4252 184.797 59.652 184.613 57.874 184.429C49.5429 180.501 47.312 174.97 50.2849 165.589C51.3835 164.315 52.4773 163.037 53.5759 161.758C59.0304 161.748 64.4849 161.739 69.9345 161.729C70.8934 162.862 71.8523 163.996 72.8112 165.124C73.7893 166.805 74.2471 168.679 74.806 170.515C74.4302 179.039 71.3994 182.816 63.1984 184.981ZM55.8599 171.987C55.884 175.421 58.6449 178.162 61.9986 178.08C65.1643 178.002 67.9108 175.15 67.9204 171.924C67.9301 168.606 65.1161 165.928 61.6613 165.967C58.2209 166.01 55.831 168.49 55.8599 171.987Z" fill="#292E42"/>
<path d="M72.8112 165.129C71.8523 163.996 70.8934 162.862 69.9346 161.734C81.5133 161.744 93.0872 161.753 104.661 161.768C104.478 164.679 104.102 165.047 101.211 165.076C97.2214 165.114 93.2366 165.144 89.2469 165.173C83.7683 165.158 78.2898 165.144 72.8112 165.129Z" fill="#8489A3"/>
<path d="M53.5762 161.763C52.4776 163.042 51.3838 164.316 50.2852 165.594C49.0854 164.606 47.6688 165.158 46.3581 165.105C43.5249 164.984 43.0286 164.563 42.9033 161.758C46.4593 161.758 50.0202 161.758 53.5762 161.763Z" fill="#8489A3"/>
<path d="M195.821 140.38C193.364 129.323 190.897 118.266 188.454 107.204C187.461 102.71 185.144 100.806 180.556 100.782C173.994 100.748 167.431 100.705 160.873 100.666C160.868 70.5752 160.863 40.4844 160.868 10.3936C160.868 5.49227 163.041 3.32736 167.922 3.32736C185.341 3.32252 202.76 3.32252 220.178 3.32736C225.272 3.32736 227.425 5.53586 227.425 10.7326C227.425 51.3913 227.425 92.05 227.425 132.709C227.425 138.264 225.291 140.351 219.668 140.351C211.712 140.351 203.767 140.371 195.821 140.38ZM196.664 69.7809C197.508 73.7814 195.84 76.9828 193.455 79.9468C191.21 82.7462 190.897 85.8022 191.682 89.2748C192.569 93.2027 193.937 96.8254 196.501 99.9347C197.141 100.714 197.243 101.136 196.544 102.104C194.236 105.291 195.865 108.895 199.748 109.151C204.229 109.447 208.72 109.335 213.211 109.059C217.022 108.822 219.003 105.543 216.796 102.439C215.75 100.971 215.986 99.8572 216.367 98.4381C217.788 93.0767 219.422 87.7492 219.263 82.0923C219.2 79.8887 218.261 78.5132 216.03 78.4067C214.95 78.3534 214.454 77.8545 213.712 77.1523C211.712 75.2586 208.903 73.6797 206.615 73.3407C203.536 72.8903 203.709 71.6117 203.791 69.5872C203.825 68.7009 203.844 67.8146 203.868 66.9283C209.698 64.2064 213.433 55.9052 212.088 48.6549C210.069 37.7383 200.273 31.1612 189.364 33.9848C179.549 36.5275 173.82 46.0783 176.49 56.5251C178.957 66.1631 188.96 71.3259 196.664 69.7809ZM188.801 5.21621C188.81 5.4729 188.825 5.72959 188.834 5.98628C192.106 6.28172 195.368 6.25266 198.63 6.02503C198.63 5.75381 198.626 5.48743 198.626 5.21621C195.354 5.21621 192.077 5.21621 188.801 5.21621Z" fill="#FDFDFD"/>
<path d="M374.904 185.369C374.726 185.247 374.547 185.122 374.369 185C374.552 185.122 374.731 185.243 374.904 185.369Z" fill="#69D085"/>
<path d="M357.052 185.02C356.869 185.247 356.7 185.238 356.536 185C356.71 185.005 356.883 185.015 357.052 185.02Z" fill="#69D085"/>
<path d="M57.3398 25.6304C58.6456 25.6304 59.9514 25.6304 61.2524 25.6304C61.2475 27.064 61.2572 28.4975 61.2379 29.9311C61.2234 30.861 61.4451 31.9556 59.9417 31.9459C58.6938 31.9362 57.3735 32.222 57.0748 30.3428C56.8242 28.73 56.9977 27.1899 57.3398 25.6304Z" fill="#FADFB0"/>
<path d="M63.0682 18.356C63.4441 20.0172 65.2462 20.6807 65.7521 22.2499C61.1746 22.2499 56.5971 22.2499 52.0195 22.2499C52.5592 20.6904 54.1541 19.9058 54.8046 18.4286C57.5607 18.4044 60.3121 18.3802 63.0682 18.356Z" fill="#FDFDFD"/>
<path d="M260.692 75.4717C260.668 74.8711 260.644 74.2657 260.62 73.6651C261.063 72.929 261.825 73.1275 262.485 73.021C262.523 73.8347 262.562 74.6435 262.6 75.4571C261.964 75.462 261.328 75.4668 260.692 75.4717Z" fill="#B4E7C2"/>
<path d="M170.13 106.739C173.652 106.536 177.174 106.536 180.697 106.744C182.166 112.818 183.641 118.896 185.11 124.969C184.894 126.998 183.925 128.97 184.286 131.251C185.375 130.762 185.188 129.987 185.477 129.464C186.021 128.471 186.233 129.328 186.503 129.725C186.305 132.002 187.414 134.084 187.471 136.326C183.94 136.322 180.408 136.322 176.876 136.317C175.483 130.345 174.052 124.383 172.717 118.397C171.855 114.513 170.573 110.72 170.13 106.739Z" fill="#B4E7C2"/>
<path d="M197.956 165.052C199.695 164.872 200.476 165.73 200.452 167.415C200.346 175.639 201.541 174.137 194.183 174.283C192.111 174.321 190.039 174.321 187.962 174.336C184.623 174.321 181.279 174.234 177.94 174.317C176.138 174.36 175.203 173.75 175.328 171.861C175.333 170.582 175.449 169.294 175.323 168.025C175.087 165.628 176.234 164.964 178.417 165.018C181.91 165.105 185.413 164.993 188.911 164.964C189.388 164.964 189.865 164.964 190.347 164.964C192.882 164.993 195.421 165.022 197.956 165.052Z" fill="#8489A3"/>
<path d="M170.13 106.739C170.573 110.72 171.85 114.513 172.718 118.397C174.052 124.383 175.483 130.345 176.876 136.317C174.616 136.312 172.351 136.312 170.092 136.307C168.795 130.888 167.412 125.483 166.222 120.039C165.254 115.612 163.861 111.282 163.346 106.759C165.606 106.521 167.87 106.546 170.13 106.739Z" fill="#69D085"/>
<path d="M163.345 106.764C163.861 111.287 165.253 115.622 166.222 120.044C167.417 125.487 168.795 130.892 170.091 136.312C168.188 136.52 166.284 136.515 164.376 136.312C164.131 132.307 162.767 128.529 161.895 124.659C160.594 118.862 159.404 113.026 157.524 107.369C157.799 106.807 158.271 106.788 158.792 106.894C159.167 106.841 159.543 106.783 159.914 106.73C161.066 106.575 162.208 106.521 163.345 106.764Z" fill="#B4E7C2"/>
<path d="M157.529 107.369C159.413 113.021 160.598 118.862 161.899 124.659C162.767 128.534 164.13 132.307 164.376 136.312C162.593 136.385 160.815 136.453 159.037 136.525C158.541 136.288 157.837 136.7 157.476 136.031C157.144 135.29 157.028 134.52 157.028 133.702C157.047 125.594 157.033 117.491 157.047 109.384C157.047 108.686 156.874 107.921 157.529 107.369Z" fill="#69D085"/>
<path d="M187.476 136.327C187.418 134.089 186.31 132.002 186.507 129.725L186.744 129.749L186.98 129.74C186.989 130.05 187.153 130.214 187.462 130.224C187.486 130.733 187.712 131.091 188.228 131.212C188.261 131.222 188.377 131.096 188.372 131.047C188.29 130.539 188.04 130.2 187.471 130.219C187.49 129.88 187.375 129.672 186.994 129.73C186.57 128.359 185.418 127.192 186.103 125.512C186.358 124.877 185.597 124.911 185.12 124.974C183.65 118.901 182.176 112.822 180.706 106.749C183.669 106.531 184.243 106.914 184.884 109.728C186.556 117.114 188.204 124.499 189.842 131.89C190.141 133.227 191.046 134.515 190.251 135.963C189.803 136.152 189.355 136.336 188.912 136.525C188.425 136.457 187.953 136.39 187.476 136.327Z" fill="#69D085"/>
<path d="M188.902 136.52C189.35 136.331 189.794 136.147 190.242 135.958C190.704 139.431 190.285 142.908 190.333 146.386C190.42 152.58 190.353 158.775 190.348 164.964C189.871 164.964 189.394 164.964 188.912 164.964C188.912 155.486 188.907 146.003 188.902 136.52Z" fill="#69D085"/>
<path d="M159.92 106.725C159.544 106.778 159.173 106.836 158.797 106.89C159.134 106.589 159.52 106.584 159.92 106.725Z" fill="#69D085"/>
<path d="M159.109 171.987C159.095 175.295 156.483 178.026 153.279 178.085C149.858 178.148 146.986 175.261 147.049 171.817C147.107 168.602 149.819 165.986 153.115 165.972C156.691 165.957 159.129 168.398 159.109 171.987ZM155.717 171.74C155.573 170.195 154.686 169.367 153.072 169.396C151.41 169.43 150.557 170.524 150.523 171.997C150.489 173.542 151.54 174.617 153.072 174.588C154.672 174.564 155.703 173.585 155.717 171.74Z" fill="#8489A3"/>
<path d="M175.329 171.861C174.876 171.847 174.423 171.832 173.97 171.813C173.354 167.265 172.443 162.853 169.407 159.162C167.07 156.314 164.232 154.212 160.792 153.021C159.197 152.469 158.469 151.689 158.532 149.917C158.653 146.308 158.575 142.695 158.561 139.082C158.556 138.191 158.561 137.315 159.043 136.52C160.821 136.448 162.604 136.38 164.382 136.307C166.285 136.511 168.193 136.515 170.096 136.307C172.356 136.312 174.621 136.312 176.881 136.317C180.413 136.322 183.944 136.322 187.476 136.327C187.953 136.389 188.43 136.457 188.907 136.52C188.912 146.003 188.912 155.486 188.917 164.964C185.419 164.993 181.921 165.1 178.423 165.018C176.235 164.964 175.088 165.628 175.329 168.025C175.45 169.294 175.334 170.582 175.329 171.861Z" fill="#226234"/>
<path d="M74.8059 170.524C76.4587 175.179 77.5814 179.954 78.1933 184.855C77.5235 185.679 76.5839 185.359 75.7455 185.408C71.9968 185.621 68.2529 184.565 64.4993 185.403C64.0415 185.504 63.5404 185.417 63.2031 184.986C71.3993 182.816 74.4301 179.039 74.8059 170.524Z" fill="#69D085"/>
<path d="M273.76 184.889C273.413 183.3 274.699 182.303 275.148 181.005C276.699 180.273 278.255 179.615 279.961 180.535C281.069 181.765 282.375 182.913 281.691 184.865C279.05 185.218 276.405 185.151 273.76 184.889Z" fill="#292E42"/>
<path d="M305.962 185.01C306.131 185.015 306.299 185.02 306.468 185.025C306.294 185.243 306.126 185.233 305.962 185.01Z" fill="#69D085"/>
<path d="M307.961 117.506C307.961 117.186 307.961 116.862 307.961 116.542C307.961 112.73 309.012 111.941 312.813 112.774C313.714 112.973 314.153 113.515 313.984 114.271C313.483 116.498 313.994 118.736 313.753 120.964C313.435 123.879 311.127 122.204 309.807 122.635C308.583 123.032 307.788 122.121 307.942 120.639C308.043 119.598 307.961 118.547 307.961 117.506ZM310.809 117.404C310.799 117.404 310.79 117.404 310.78 117.404C310.78 116.363 310.794 115.321 310.775 114.28C310.766 113.747 310.539 113.365 309.942 113.326C309.233 113.278 308.896 113.651 308.886 114.314C308.867 116.314 308.857 118.319 308.872 120.325C308.877 120.935 309.094 121.424 309.845 121.405C310.582 121.385 310.79 120.906 310.799 120.291C310.823 119.327 310.809 118.363 310.809 117.404ZM313.17 117.138C313.064 116.605 313.401 115.728 312.394 115.782C311.599 115.82 311.763 116.561 311.782 117.07C311.806 117.632 311.522 118.499 312.529 118.45C313.319 118.411 313.112 117.675 313.17 117.138ZM312.389 119.225C311.517 119.438 311.792 120.184 311.777 120.756C311.763 121.283 311.71 121.991 312.553 121.889C313.498 121.773 313.175 120.949 313.218 120.383C313.257 119.835 313.233 119.235 312.389 119.225Z" fill="#FDFDFD"/>
<path d="M340.664 168.355C340.669 166.674 340.654 164.993 340.693 163.313C340.703 162.795 340.741 161.729 341.18 161.957C342.018 162.397 343.03 161.652 343.738 162.63C345.054 164.451 344.35 166.461 344.471 168.398C343.199 168.384 341.931 168.369 340.664 168.355Z" fill="#B4E7C2"/>
<path d="M344.423 169.958C344.668 172.04 344.89 174.113 342.071 174.641C341.936 174.709 341.802 174.714 341.662 174.651C339.889 173.391 340.833 171.575 340.713 169.977C341.951 169.972 343.189 169.962 344.423 169.958Z" fill="#B4E7C2"/>
<path d="M348.913 168.989C348.388 169.972 349.78 171.735 347.443 171.861C345.193 171.982 345.728 170.113 345.829 169.236C345.954 168.166 344.923 166.03 347.496 166.141C349.819 166.243 348.359 168.069 348.913 168.989ZM348.455 169.091C347.968 168.5 349.062 167.052 347.477 166.931C345.848 166.81 346.378 168.229 346.417 169.023C346.455 169.827 345.728 171.198 347.274 171.328C348.913 171.464 348.18 170.035 348.455 169.091Z" fill="#8489A3"/>
<path d="M342.592 178.123C341.734 177.987 340.664 178.433 340.64 177.188C340.611 175.706 341.85 176.249 342.577 176.244C343.3 176.239 344.562 175.716 344.485 177.208C344.408 178.665 343.122 177.774 342.592 178.123Z" fill="#8489A3"/>
<path d="M347.347 175.208C346.383 175.246 345.607 175.024 345.559 173.851C345.525 173.057 346.099 173.067 346.436 173.406C347.284 174.253 348.855 171.992 349.192 174.002C349.385 175.154 348.248 175.232 347.347 175.208Z" fill="#B4E7C2"/>
<path d="M348.827 163.642C348.899 164.63 348.918 165.449 347.569 165.483C346.287 165.517 345.897 165.013 345.945 163.778C345.984 162.751 346.099 162.121 347.367 162.146C348.518 162.16 349.019 162.533 348.827 163.642ZM347.314 164.693C347.998 164.751 348.359 164.461 348.379 163.754C348.398 163.114 348.229 162.669 347.487 162.645C346.817 162.62 346.432 162.848 346.432 163.579C346.427 164.209 346.567 164.688 347.314 164.693Z" fill="#8489A3"/>
<path d="M344.422 169.958C343.189 169.962 341.951 169.972 340.717 169.977C340.698 169.439 340.678 168.897 340.659 168.354C341.926 168.369 343.194 168.379 344.461 168.393C344.451 168.916 344.437 169.435 344.422 169.958Z" fill="#8489A3"/>
<path d="M348.802 177.203C348.701 178.274 347.872 178.056 347.212 178.08C346.508 178.109 345.964 177.915 346.026 177.034C346.113 175.915 346.966 176.215 347.612 176.172C348.32 176.128 348.869 176.317 348.802 177.203Z" fill="#8489A3"/>
<path d="M341.667 174.651C341.806 174.709 341.941 174.704 342.076 174.641C342.818 174.825 343.666 174.428 344.471 175.135C343.387 176.002 342.216 175.6 341.117 175.508C340.717 175.474 340.727 175.343 341.667 174.651Z" fill="#8489A3"/>
<path d="M343.198 146.066C342.794 146.066 342.543 146.109 342.317 146.056C341.618 145.896 340.356 146.502 340.36 145.407C340.365 144.313 341.623 144.933 342.317 144.773C342.543 144.719 342.798 144.724 343.03 144.773C344.133 145 346.229 144.274 346.171 145.267C346.075 146.894 344.099 145.606 343.198 146.066Z" fill="#8489A3"/>
<path d="M341.589 146.85C342.673 146.783 342.991 147.32 343.015 148.313C343.039 149.442 342.471 149.611 341.536 149.64C340.428 149.679 340.216 149.146 340.197 148.178C340.168 147.093 340.64 146.734 341.589 146.85Z" fill="#8489A3"/>
<path d="M345.863 151.413C344.047 152.275 342.216 152.217 340.37 151.559C342.158 150.696 344.013 151.011 345.863 151.413Z" fill="#8489A3"/>
<path d="M345.492 154.353C345.502 155.109 345.516 155.787 344.567 155.772C343.449 155.753 343.627 154.905 343.598 154.208C343.565 153.467 343.757 152.953 344.663 153.021C345.675 153.094 345.439 153.84 345.492 154.353Z" fill="#8489A3"/>
<path d="M274.728 179.557C269.052 171.968 267.259 163.202 266.975 153.951C266.922 152.188 267.736 151.902 269.158 152.091C270.184 152.227 271.215 152.333 272.242 152.455C273.201 160.325 274.15 168.195 274.632 176.114C274.699 177.247 275.725 178.395 274.728 179.557Z" fill="#69D085"/>
<path d="M249.658 109.989C249.219 112.028 250.414 114.256 248.203 115.956C246.82 117.017 246.386 116.339 246.343 115.288C246.213 111.863 246.28 108.43 246.299 104.996C246.304 103.901 247.167 103.979 247.861 104.042C248.376 104.085 248.877 103.669 249.219 104.884C249.716 106.662 249.248 108.367 249.658 109.989Z" fill="#B4E7C2"/>
<path d="M252.877 106.027C252.882 108.43 252.892 110.832 252.901 113.234C252.179 113.249 251.456 113.258 250.733 113.273C250.463 110.861 250.531 108.449 250.685 106.037C251.412 106.032 252.145 106.032 252.877 106.027ZM252.521 109.728C252.256 108.996 253.012 107.65 251.783 107.592C250.723 107.543 251.094 108.822 251.123 109.519C251.152 110.285 250.593 111.612 251.812 111.66C252.916 111.708 252.294 110.42 252.521 109.728Z" fill="#B4E7C2"/>
<path d="M250.733 113.273C251.455 113.258 252.178 113.248 252.901 113.234C252.92 114.033 252.954 114.837 252.963 115.641C252.973 116.459 252.689 117.108 251.773 117.113C250.867 117.118 250.535 116.503 250.569 115.67C250.598 114.871 250.675 114.072 250.733 113.273Z" fill="#8489A3"/>
<path d="M252.876 106.028C252.144 106.032 251.416 106.032 250.684 106.037C250.607 105.136 250.096 104.032 251.754 104.027C253.378 104.023 252.954 105.107 252.876 106.028Z" fill="#8489A3"/>
<path d="M55.8605 171.987C55.8364 168.485 58.2264 166.01 61.6619 165.972C65.1168 165.933 67.9307 168.611 67.9211 171.929C67.9115 175.154 65.1649 178.007 61.9992 178.084C58.6456 178.162 55.8846 175.421 55.8605 171.987ZM59.2383 172.147C59.3684 173.604 60.3176 174.549 61.8161 174.588C63.5315 174.631 64.4759 173.425 64.3988 171.813C64.3265 170.316 63.3677 169.338 61.7149 169.401C60.067 169.459 59.3105 170.398 59.2383 172.147Z" fill="#8489A3"/>
<path d="M203.868 66.928C203.844 67.8143 203.825 68.7006 203.791 69.5869C203.709 71.6113 203.536 72.8899 206.615 73.3404C208.903 73.6745 211.717 75.2583 213.712 77.152C214.454 77.8542 214.95 78.3531 216.03 78.4064C218.266 78.5129 219.205 79.8884 219.263 82.092C219.417 87.7489 217.788 93.0716 216.367 98.4378C215.991 99.8617 215.75 100.971 216.796 102.438C219.003 105.538 217.022 108.822 213.211 109.059C208.72 109.335 204.225 109.451 199.748 109.151C195.865 108.894 194.236 105.291 196.544 102.104C197.243 101.14 197.141 100.714 196.501 99.9344C193.942 96.8251 192.569 93.2072 191.682 89.2745C190.897 85.8019 191.21 82.7459 193.455 79.9465C195.836 76.9776 197.508 73.7811 196.664 69.7806C196.669 69.2479 196.674 68.7103 196.679 68.1775C196.698 66.3323 196.664 64.487 196.746 62.6466C196.848 60.3751 198.283 58.9415 200.317 58.9512C202.408 58.9658 203.699 60.3461 203.791 62.6853C203.82 63.407 203.839 64.1286 203.863 64.8454C203.863 65.538 203.868 66.2354 203.868 66.928Z" fill="#226234"/>
<path d="M203.868 66.928C203.868 66.2354 203.863 65.5428 203.863 64.8454C208.123 61.7845 210.335 57.5031 210.542 52.3596C210.951 42.0097 202.085 34.0669 191.779 35.3261C181.959 36.5272 175.449 46.9595 178.436 56.457C180.812 64.0172 187.808 69.0009 196.679 68.1727C196.674 68.7054 196.669 69.243 196.665 69.7758C188.96 71.3208 178.957 66.1579 176.495 56.52C173.825 46.0732 179.554 36.5272 189.37 33.9797C200.278 31.1513 210.074 37.7332 212.093 48.6497C213.428 55.9049 209.699 64.2061 203.868 66.928Z" fill="#B4E7C2"/>
<path d="M188.801 5.21631C192.077 5.21631 195.354 5.21631 198.626 5.21631C198.626 5.48753 198.63 5.7539 198.63 6.02512C195.368 6.25275 192.101 6.28181 188.835 5.98638C188.825 5.72969 188.815 5.473 188.801 5.21631Z" fill="#275498"/>
<path d="M186.975 129.74L186.739 129.75L186.502 129.725C186.233 129.323 186.021 128.471 185.476 129.464C185.187 129.987 185.375 130.762 184.286 131.251C183.92 128.97 184.888 126.999 185.11 124.969C185.587 124.906 186.348 124.877 186.093 125.507C185.413 127.187 186.56 128.355 186.984 129.725C186.984 129.73 186.975 129.74 186.975 129.74Z" fill="#292E42"/>
<path d="M187.467 130.214C188.03 130.2 188.286 130.534 188.368 131.043C188.377 131.091 188.262 131.217 188.223 131.207C187.712 131.086 187.481 130.733 187.457 130.219L187.467 130.214Z" fill="#292E42"/>
<path d="M187.456 130.224C187.148 130.214 186.984 130.055 186.975 129.74L186.984 129.73C187.365 129.672 187.485 129.875 187.461 130.219C187.466 130.214 187.456 130.224 187.456 130.224Z" fill="#292E42"/>
<path d="M155.718 171.74C155.703 173.585 154.672 174.563 153.072 174.592C151.54 174.617 150.49 173.541 150.523 172.001C150.557 170.529 151.41 169.434 153.072 169.4C154.686 169.367 155.573 170.195 155.718 171.74Z" fill="#292E42"/>
<path d="M310.808 117.404C310.808 118.363 310.823 119.327 310.804 120.286C310.789 120.901 310.582 121.38 309.85 121.4C309.098 121.419 308.881 120.93 308.876 120.32C308.862 118.314 308.867 116.314 308.891 114.309C308.896 113.646 309.233 113.273 309.946 113.321C310.548 113.365 310.775 113.742 310.78 114.275C310.799 115.316 310.784 116.358 310.784 117.399C310.789 117.404 310.799 117.404 310.808 117.404Z" fill="#B4E7C2"/>
<path d="M313.17 117.138C313.113 117.675 313.32 118.411 312.529 118.45C311.522 118.499 311.802 117.627 311.783 117.07C311.763 116.561 311.6 115.82 312.395 115.782C313.402 115.728 313.064 116.605 313.17 117.138Z" fill="#8489A3"/>
<path d="M312.389 119.225C313.232 119.235 313.257 119.83 313.213 120.383C313.17 120.949 313.497 121.773 312.548 121.889C311.705 121.991 311.758 121.283 311.772 120.756C311.792 120.184 311.517 119.438 312.389 119.225Z" fill="#8489A3"/>
<path d="M348.456 169.091C348.181 170.035 348.913 171.464 347.275 171.328C345.733 171.202 346.461 169.827 346.417 169.023C346.379 168.229 345.849 166.81 347.477 166.931C349.063 167.052 347.969 168.505 348.456 169.091Z" fill="#FDFDFD"/>
<path d="M347.318 164.693C346.567 164.688 346.427 164.204 346.432 163.579C346.437 162.848 346.822 162.62 347.487 162.644C348.229 162.673 348.403 163.114 348.378 163.753C348.359 164.46 347.998 164.756 347.318 164.693Z" fill="#FDFDFD"/>
<path d="M252.52 109.728C252.294 110.42 252.915 111.708 251.817 111.665C250.598 111.616 251.157 110.289 251.128 109.524C251.099 108.827 250.723 107.548 251.788 107.597C253.012 107.65 252.25 108.996 252.52 109.728Z" fill="#FDFDFD"/>
<path d="M59.2383 172.147C59.3106 170.403 60.0671 169.459 61.715 169.401C63.3629 169.343 64.3266 170.321 64.3988 171.813C64.4759 173.426 63.5315 174.632 61.8161 174.588C60.3176 174.549 59.3636 173.605 59.2383 172.147Z" fill="#292E42"/>
<path d="M196.68 68.1778C187.809 69.0011 180.812 64.0175 178.437 56.4621C175.45 46.9646 181.959 36.5275 191.779 35.3312C202.086 34.072 210.952 42.0148 210.542 52.3647C210.34 57.5082 208.123 61.7848 203.864 64.8505C203.84 64.1289 203.821 63.4072 203.792 62.6905C203.695 60.3512 202.409 58.9709 200.318 58.9563C198.284 58.9418 196.848 60.3754 196.747 62.6517C196.66 64.4873 196.699 66.3325 196.68 68.1778ZM204.779 46.4754C204.216 45.4196 203.469 44.6737 202.553 44.1991C201.71 43.7584 201.325 44.5139 200.876 45.1145C198.824 47.8751 196.66 50.5534 194.67 53.3576C193.509 54.9946 192.584 55.5758 191.042 53.7305C189.606 52.0112 187.905 50.5146 186.31 48.9261C185.178 47.7976 184.455 48.742 183.728 49.4927C183.14 50.0981 182.234 50.6212 183.217 51.6528C186.151 54.7185 189.052 57.8085 191.977 60.8791C192.661 61.5959 193.36 61.6492 193.996 60.8113C197.383 56.3507 200.766 51.8901 204.148 47.4247C204.379 47.1196 204.577 46.7805 204.779 46.4754Z" fill="#D6E8FE"/>
<path d="M204.779 46.4756C204.577 46.7807 204.38 47.1197 204.148 47.4249C200.766 51.8903 197.383 56.3509 193.996 60.8115C193.36 61.6493 192.661 61.5961 191.977 60.8793C189.052 57.8087 186.151 54.7139 183.217 51.653C182.234 50.6214 183.14 50.0983 183.728 49.4929C184.455 48.7471 185.178 47.7978 186.31 48.9263C187.905 50.51 189.601 52.0114 191.042 53.7307C192.584 55.5808 193.509 54.9948 194.67 53.3578C196.66 50.5536 198.824 47.8753 200.877 45.1147C201.325 44.5141 201.71 43.7586 202.553 44.1993C203.469 44.6788 204.216 45.4198 204.779 46.4756Z" fill="#B4E7C2"/>
</g>
<defs>
<clipPath id="clip0_1030_1448">
<rect width="390" height="200" fill="white"/>
</clipPath>
</defs>
</svg>
