<svg width="15" height="10" viewBox="0 0 15 10" fill="none" xmlns="http://www.w3.org/2000/svg">
<g clip-path="url(#clip0_700_1524)">
<path d="M4.75278 2.354C3.8802 2.354 3.17383 3.09677 3.17383 4.0143C3.17383 4.93183 4.75278 7.64619 4.75278 7.64619C4.75278 7.64619 6.33172 4.93183 6.33172 4.0143C6.33172 3.09677 5.62535 2.354 4.75278 2.354ZM4.75278 5.49436C4.13989 5.49436 3.64128 4.97006 3.64128 4.3256C3.64128 3.68115 4.13989 3.15684 4.75278 3.15684C5.36566 3.15684 5.86427 3.68115 5.86427 4.3256C5.86427 4.97006 5.37085 5.49436 4.75278 5.49436Z" fill="#636363"/>
<path d="M9.34914 6.28093C9.60364 5.28694 9.56728 4.2001 9.18293 3.16788C8.22206 0.600973 5.4589 -0.666094 3.01777 0.344283C0.576632 1.35466 -0.628354 4.26564 0.327325 6.82708C1.283 9.38852 4.05136 10.661 6.49249 9.65067C7.74942 9.13183 8.67393 8.11053 9.15177 6.89262L14.756 9.45952L15.0001 8.87514L9.34914 6.28093ZM6.26915 9.05537C4.13965 9.93467 1.72968 8.83145 0.898655 6.59224C0.0676297 4.35302 1.1116 1.82435 3.23591 0.945047C5.36022 0.0657464 7.77539 1.16897 8.6116 3.40818C9.44782 5.6474 8.39865 8.17607 6.26915 9.05537Z" fill="#636363"/>
</g>
<defs>
<clipPath id="clip0_700_1524">
<rect width="15" height="10" fill="white"/>
</clipPath>
</defs>
</svg>
