<svg width="74" height="61" viewBox="0 0 74 61" fill="none" xmlns="http://www.w3.org/2000/svg">
<g clip-path="url(#clip0_700_2742)">
<path d="M7.26457 30.0643C7.26457 32.764 7.26457 35.4616 7.26457 38.1614C7.26457 39.4473 7.3446 39.5528 8.57376 39.9544C18.4994 43.1855 28.425 46.4207 38.3589 49.6275C38.7118 49.7411 39.2474 49.7188 39.5449 49.5261C47.5458 44.3944 55.522 39.2283 63.5146 34.0864C64.1343 33.6889 64.3621 33.2183 64.36 32.4962C64.3354 27.1739 64.3621 21.8495 64.3272 16.5272C64.3231 15.8538 64.5078 15.4806 65.1377 15.2534C65.7041 15.0506 66.135 14.7078 66.133 14.0141C66.1268 11.2657 66.1412 8.51731 66.1391 5.76892C66.1391 5.20099 65.8498 4.83995 65.265 4.73853C64.7725 4.65334 64.28 4.56207 63.7875 4.47891C55.6779 3.1037 47.5663 1.71835 39.4505 0.36951C38.3117 0.180876 37.1872 -0.218705 35.9744 0.152479C33.157 1.01452 30.317 1.80557 27.4831 2.61893C20.1349 4.72636 12.7866 6.82974 5.44033 8.93312C4.83088 9.10756 4.5477 9.48888 4.5518 10.1319C4.56822 12.8052 4.58258 15.4806 4.56411 18.1539C4.5477 20.4885 4.58053 20.2816 6.60177 20.7603C7.17428 20.8962 7.28099 21.1518 7.27689 21.669C7.25226 24.4681 7.26457 27.2652 7.26457 30.0643Z" fill="white"/>
<path d="M7.26419 30.0642C7.26419 27.2671 7.25187 24.468 7.27445 21.6709C7.27855 21.1537 7.17184 20.8961 6.59933 20.7622C4.58014 20.2835 4.54731 20.4884 4.56167 18.1558C4.58014 15.4825 4.56578 12.8071 4.54936 10.1338C4.54526 9.4908 4.82844 9.1115 5.43789 8.93504C12.7862 6.82963 20.1345 4.72625 27.4828 2.61882C30.3166 1.80546 33.1566 1.01441 35.974 0.152369C37.1868 -0.218816 38.3113 0.178737 39.4501 0.3694C47.5659 1.71824 55.6775 3.10359 63.7892 4.4788C64.2816 4.56196 64.7741 4.65323 65.2666 4.73842C65.8514 4.83984 66.1387 5.20088 66.1408 5.76881C66.1428 8.5172 66.1285 11.2656 66.1346 14.014C66.1367 14.7077 65.7037 15.0505 65.1394 15.2533C64.5094 15.4805 64.3247 15.8537 64.3288 16.5271C64.3637 21.8494 64.3371 27.1738 64.3617 32.4961C64.3658 33.2182 64.136 33.6888 63.5162 34.0863C55.5236 39.2281 47.5454 44.3943 39.5466 49.526C39.249 49.7166 38.7135 49.741 38.3605 49.6274C28.4267 46.4206 18.5011 43.1854 8.57543 39.9543C7.34421 39.5547 7.26624 39.4472 7.26624 38.1612C7.26213 35.4615 7.26419 32.7618 7.26419 30.0642ZM9.29979 21.4782C9.26696 21.7115 9.24028 21.8088 9.24028 21.9042C9.23823 27.1271 9.24644 32.3481 9.22181 37.571C9.21976 38.1207 9.53577 38.212 9.92566 38.3397C18.2363 41.0394 26.547 43.7432 34.8577 46.4429C35.8488 46.7654 36.842 47.0758 37.8803 47.4084C37.8803 41.1348 37.8803 34.9504 37.8803 28.6707C28.3836 26.2813 18.8786 23.8899 9.29979 21.4782ZM62.3835 16.7056C62.0511 16.8476 61.8459 16.9226 61.653 17.0179C54.5961 20.5127 47.5413 24.0136 40.4782 27.4943C40.0268 27.7174 39.8913 27.9851 39.8934 28.4679C39.9098 34.3825 39.9036 40.2951 39.9057 46.2097C39.9057 46.4125 39.9406 46.6174 39.9652 46.8912C40.1704 46.7796 40.2812 46.7269 40.3838 46.662C47.5495 42.0435 54.7131 37.4189 61.8849 32.8085C62.2666 32.5631 62.3938 32.2811 62.3917 31.8389C62.3753 28.1514 62.3815 24.466 62.3815 20.7785C62.3835 19.4661 62.3835 18.1558 62.3835 16.7056ZM9.71019 9.77071C9.97285 9.89444 10.0324 9.93703 10.1001 9.95326C19.0592 11.9998 28.0204 14.0403 36.9775 16.1032C37.5684 16.2391 38.0671 16.2208 38.6314 15.9774C44.7608 13.3325 50.9025 10.7119 57.0401 8.08314C58.4991 7.45841 59.958 6.83166 61.5586 6.14406C61.1831 6.05278 60.9717 5.98585 60.7563 5.94934C53.0181 4.64106 45.2779 3.33279 37.5377 2.04074C37.1621 1.97787 36.7374 1.99206 36.3721 2.09754C29.6497 4.01634 22.9314 5.95339 16.2131 7.89045C14.1036 8.49692 12.0003 9.10745 9.71019 9.77071ZM36.8482 18.1335C26.7769 15.8273 16.7117 13.5211 6.54598 11.1905C6.54598 13.5698 6.5665 15.7949 6.53161 18.0179C6.52135 18.6102 6.73682 18.8069 7.29497 18.9448C15.1542 20.89 23.0073 22.8616 30.8604 24.829C32.8365 25.3239 34.8126 25.8249 36.8461 26.3361C36.8482 23.5735 36.8482 20.886 36.8482 18.1335ZM38.9433 25.9832C39.2142 25.8675 39.3947 25.8006 39.5671 25.7154C47.5844 21.7541 55.5975 17.7887 63.6188 13.8355C64.0087 13.6448 64.1667 13.4197 64.1606 12.9856C64.138 11.2778 64.1544 9.57193 64.1483 7.86408C64.1483 7.6795 64.1031 7.49695 64.0785 7.30629C63.9656 7.33063 63.9143 7.33266 63.8713 7.35294C55.698 10.8478 47.5248 14.3385 39.3619 17.8556C39.1649 17.9408 38.9741 18.2796 38.9638 18.5088C38.9187 19.4479 38.9453 20.389 38.9453 21.3281C38.9433 22.8534 38.9433 24.3767 38.9433 25.9832Z" fill="#32934D"/>
<path d="M9.2997 21.478C18.8785 23.8877 28.3835 26.2811 37.8803 28.6705C37.8803 34.9502 37.8803 41.1346 37.8803 47.4082C36.8419 47.0776 35.8467 46.7652 34.8576 46.4427C26.5469 43.741 18.2362 41.0372 9.92556 38.3395C9.53363 38.2118 9.21762 38.1225 9.22172 37.5708C9.24634 32.3478 9.23608 27.1269 9.24019 21.904C9.24019 21.8086 9.26686 21.7113 9.2997 21.478Z" fill="#69D085"/>
<path d="M62.3836 16.7056C62.3836 18.1558 62.3836 19.4661 62.3836 20.7764C62.3836 24.4639 62.3754 28.1494 62.3939 31.8369C62.3959 32.2811 62.2687 32.561 61.887 32.8065C54.7152 37.4189 47.5516 42.0414 40.386 46.6599C40.2834 46.7249 40.1726 46.7776 39.9674 46.8891C39.9427 46.6153 39.9078 46.4105 39.9078 46.2076C39.9058 40.293 39.9119 34.3804 39.8955 28.4658C39.8935 27.9831 40.0289 27.7153 40.4804 27.4922C47.5434 24.0096 54.5983 20.5107 61.6552 17.0159C61.846 16.9206 62.0512 16.8455 62.3836 16.7056Z" fill="#69D085"/>
<path d="M9.70996 9.77086C12 9.1076 14.1033 8.49707 16.2067 7.8906C22.925 5.95557 29.6433 4.01852 36.3657 2.09769C36.731 1.99425 37.1557 1.97802 37.5313 2.0409C45.2735 3.33294 53.0117 4.64122 60.7499 5.94949C60.9674 5.986 61.1788 6.05293 61.5522 6.14421C59.9517 6.83181 58.4927 7.45857 57.0337 8.08329C50.8961 10.712 44.7564 13.3306 38.625 15.9776C38.0627 16.221 37.5621 16.2392 36.9711 16.1033C28.0202 14.0405 19.059 12 10.0978 9.95341C10.0321 9.93719 9.97262 9.89459 9.70996 9.77086Z" fill="#69D085"/>
<path d="M36.8481 18.1334C36.8481 20.8858 36.8481 23.5734 36.8481 26.336C34.8145 25.8228 32.8384 25.3238 30.8623 24.8289C23.0072 22.8635 15.1561 20.8919 7.2969 18.9447C6.73875 18.8068 6.52329 18.6101 6.53355 18.0178C6.56844 15.7927 6.54792 13.5676 6.54792 11.1904C16.7116 13.521 26.7767 15.8272 36.8481 18.1334Z" fill="#69D085"/>
<path d="M38.9434 25.983C38.9434 24.3766 38.9434 22.8533 38.9434 21.328C38.9434 20.3869 38.9167 19.4457 38.9618 18.5086C38.9721 18.2794 39.1629 17.9387 39.3599 17.8555C47.5229 14.3404 55.6981 10.8476 63.8693 7.3528C63.9144 7.33455 63.9657 7.33049 64.0765 7.30615C64.1012 7.49682 64.1443 7.67937 64.1463 7.86394C64.1525 9.5718 64.136 11.2797 64.1586 12.9855C64.1648 13.4216 64.0068 13.6447 63.6169 13.8353C55.5955 17.7886 47.5824 21.7539 39.5651 25.7153C39.3948 25.8025 39.2142 25.8694 38.9434 25.983Z" fill="#69D085"/>
<path d="M70.21 29.618V7.6958" stroke="#226234" stroke-width="1.4649" stroke-miterlimit="10"/>
<path d="M71.3241 28.7842L70.2098 29.2507L69.0977 28.7842L70.2098 31.3926L71.3241 28.7842Z" fill="#226234"/>
<path d="M71.3241 8.52933L70.2098 8.06281L69.0977 8.52933L70.2098 5.9209L71.3241 8.52933Z" fill="#226234"/>
<path d="M62.7138 38.7231L44.3975 52.0168" stroke="#226234" stroke-width="1.4649" stroke-miterlimit="10"/>
<path d="M61.376 38.3295L62.4164 38.94L62.6934 40.1043L64.1606 37.6743L61.376 38.3295Z" fill="#226234"/>
<path d="M44.4179 50.6353L44.697 51.7995L45.7353 52.41L42.9507 53.0652L44.4179 50.6353Z" fill="#226234"/>
<path d="M35.1515 53.4447L8.229 44.3354" stroke="#226234" stroke-width="1.4649" stroke-miterlimit="10"/>
<path d="M34.712 52.1323L34.8002 53.325L33.9917 54.2154L36.8481 54.0187L34.712 52.1323Z" fill="#226234"/>
<path d="M9.38815 43.5645L8.58171 44.4529L8.66789 45.6455L6.53174 43.7592L9.38815 43.5645Z" fill="#226234"/>
<path d="M0 42.3879V42.2033L0.238034 41.9741C0.8126 41.4346 1.07116 41.1466 1.07526 40.8119C1.07526 40.5867 0.96445 40.3778 0.629971 40.3778C0.42682 40.3778 0.256503 40.4813 0.153902 40.5665L0.0574566 40.3555C0.21341 40.2257 0.435029 40.1304 0.693583 40.1304C1.17786 40.1304 1.38101 40.459 1.38101 40.7754C1.38101 41.1851 1.07936 41.5157 0.607398 41.968L0.42682 42.1323V42.1384H1.43641V42.3879H0Z" fill="#69D085"/>
<path d="M3.26684 41.2541C3.26684 42.0086 2.98366 42.4264 2.48502 42.4264C2.04589 42.4264 1.74834 42.0208 1.74219 41.2845C1.74219 40.5401 2.06641 40.1304 2.52401 40.1304C2.99597 40.1304 3.26684 40.5462 3.26684 41.2541ZM2.04589 41.2885C2.04589 41.8666 2.22646 42.1932 2.50144 42.1932C2.81334 42.1932 2.96109 41.8342 2.96109 41.2683C2.96109 40.7226 2.8195 40.3636 2.50554 40.3636C2.24083 40.3616 2.04589 40.6841 2.04589 41.2885Z" fill="#69D085"/>
<path d="M4.83673 42.3269C4.7567 42.3675 4.58023 42.4222 4.35656 42.4222C3.85176 42.4222 3.52344 42.0835 3.52344 41.5785C3.52344 41.0694 3.87638 40.7002 4.42222 40.7002C4.6028 40.7002 4.76081 40.7448 4.84289 40.7854L4.77312 41.0186C4.7013 40.9781 4.58638 40.9395 4.42017 40.9395C4.03644 40.9395 3.82919 41.2194 3.82919 41.5643C3.82919 41.9476 4.07748 42.1829 4.40991 42.1829C4.58228 42.1829 4.69719 42.1383 4.78338 42.1018L4.83673 42.3269Z" fill="#69D085"/>
<path d="M5.19161 41.1831C5.19161 41.0127 5.18751 40.8728 5.17725 40.7348H5.44401L5.45837 41.0005H5.46863C5.56097 40.8444 5.71693 40.6963 5.99395 40.6963C6.22172 40.6963 6.3941 40.8322 6.46797 41.0269H6.47412C6.52542 40.9356 6.59109 40.8626 6.66086 40.8119C6.76141 40.7369 6.87222 40.6963 7.03022 40.6963C7.25184 40.6963 7.58016 40.8403 7.58016 41.4143V42.3879H7.28262V41.4529C7.28262 41.1344 7.16566 40.9437 6.91941 40.9437C6.74704 40.9437 6.61161 41.0695 6.56031 41.2176C6.54594 41.2581 6.53568 41.3129 6.53568 41.3677V42.3899H6.23814V41.4001C6.23814 41.1364 6.12118 40.9458 5.8893 40.9458C5.69846 40.9458 5.56097 41.0959 5.51173 41.246C5.49531 41.2906 5.4871 41.3413 5.4871 41.392V42.3899H5.19161V41.1831Z" fill="#69D085"/>
<path d="M66.4199 4.26388V4.0793L66.658 3.8501C67.2325 3.31056 67.4911 3.02254 67.4952 2.68787C67.4952 2.46272 67.3844 2.2538 67.0499 2.2538C66.8467 2.2538 66.6764 2.35725 66.5738 2.44244L66.4774 2.23149C66.6333 2.10168 66.855 2.00635 67.1135 2.00635C67.5978 2.00635 67.8009 2.33494 67.8009 2.65136C67.8009 3.06108 67.4993 3.3917 67.0273 3.84401L66.8467 4.00831V4.01439H67.8563V4.26388H66.4199Z" fill="#69D085"/>
<path d="M69.6868 3.1276C69.6868 3.88214 69.4036 4.29998 68.9049 4.29998C68.4658 4.29998 68.1683 3.89431 68.1621 3.15803C68.1621 2.41363 68.4863 2.00391 68.9439 2.00391C69.4159 2.00391 69.6868 2.42174 69.6868 3.1276ZM68.4658 3.16208C68.4658 3.74016 68.6464 4.06672 68.9214 4.06672C69.2333 4.06672 69.381 3.7077 69.381 3.1418C69.381 2.59618 69.2394 2.23716 68.9255 2.23716C68.6608 2.23716 68.4658 2.55764 68.4658 3.16208Z" fill="#69D085"/>
<path d="M71.2567 4.20045C71.1766 4.24102 71.0001 4.29578 70.7765 4.29578C70.2717 4.29578 69.9434 3.95705 69.9434 3.452C69.9434 2.94289 70.2963 2.57373 70.8421 2.57373C71.0227 2.57373 71.1807 2.61835 71.2628 2.65892L71.193 2.89218C71.1212 2.85161 71.0063 2.81307 70.8401 2.81307C70.4564 2.81307 70.2491 3.09298 70.2491 3.4378C70.2491 3.82115 70.4974 4.05644 70.8298 4.05644C71.0022 4.05644 71.1171 4.01182 71.2033 3.97531L71.2567 4.20045Z" fill="#69D085"/>
<path d="M71.6115 3.05662C71.6115 2.88624 71.6074 2.74629 71.5972 2.60836H71.8639L71.8783 2.87407H71.8886C71.9809 2.71789 72.1369 2.56982 72.4139 2.56982C72.6416 2.56982 72.814 2.70572 72.8879 2.90044H72.894C72.9453 2.80917 73.011 2.73615 73.0808 2.68544C73.1813 2.61039 73.2921 2.56982 73.4501 2.56982C73.6718 2.56982 74.0001 2.71384 74.0001 3.28785V4.26145H73.7025V3.32639C73.7025 3.00794 73.5856 2.81728 73.3393 2.81728C73.167 2.81728 73.0315 2.94304 72.9802 3.0911C72.9659 3.13167 72.9556 3.18644 72.9556 3.2412V4.26348H72.6581V3.27365C72.6581 3.00997 72.5411 2.81931 72.3092 2.81931C72.1184 2.81931 71.9809 2.96941 71.9316 3.1195C71.9152 3.16412 71.907 3.21483 71.907 3.26554V4.26348H71.6095V3.05662H71.6115Z" fill="#69D085"/>
<path d="M62.7412 36.8322V36.6477L62.9792 36.4185C63.5538 35.8789 63.8124 35.5909 63.8165 35.2562C63.8165 35.0311 63.7057 34.8222 63.3712 34.8222C63.168 34.8222 62.9977 34.9256 62.8951 35.0108L62.7987 34.7999C62.9546 34.67 63.1762 34.5747 63.4348 34.5747C63.9191 34.5747 64.1222 34.9033 64.1222 35.2197C64.1222 35.6294 63.8206 35.9601 63.3486 36.4124L63.168 36.5767V36.5828H64.1776V36.8322H62.7412Z" fill="#69D085"/>
<path d="M66.008 35.6984C66.008 36.4529 65.7249 36.8708 65.2262 36.8708C64.7871 36.8708 64.4896 36.4651 64.4834 35.7288C64.4834 34.9844 64.8076 34.5747 65.2652 34.5747C65.7372 34.5747 66.008 34.9925 66.008 35.6984ZM64.7871 35.7329C64.7871 36.311 64.9677 36.6375 65.2426 36.6375C65.5546 36.6375 65.7023 36.2785 65.7023 35.7126C65.7023 35.167 65.5607 34.808 65.2468 34.808C64.982 34.808 64.7871 35.1284 64.7871 35.7329Z" fill="#69D085"/>
<path d="M67.5779 36.7713C67.4979 36.8118 67.3214 36.8666 67.0978 36.8666C66.593 36.8666 66.2646 36.5279 66.2646 36.0228C66.2646 35.5137 66.6176 35.1445 67.1634 35.1445C67.344 35.1445 67.502 35.1892 67.5841 35.2297L67.5143 35.463C67.4425 35.4224 67.3276 35.3839 67.1614 35.3839C66.7777 35.3839 66.5704 35.6638 66.5704 36.0086C66.5704 36.392 66.8187 36.6272 67.1511 36.6272C67.3235 36.6272 67.4384 36.5826 67.5246 36.5461L67.5779 36.7713Z" fill="#69D085"/>
<path d="M67.9328 35.6274C67.9328 35.457 67.9287 35.3171 67.9185 35.1792H68.1852L68.1996 35.4449H68.2098C68.3022 35.2887 68.4581 35.1406 68.7352 35.1406C68.9629 35.1406 69.1353 35.2765 69.2092 35.4712H69.2153C69.2666 35.38 69.3323 35.3069 69.4021 35.2562C69.5026 35.1812 69.6134 35.1406 69.7714 35.1406C69.9931 35.1406 70.3214 35.2846 70.3214 35.8587V36.8323H70.0238V35.8972C70.0238 35.5787 69.9069 35.3881 69.6606 35.3881C69.4883 35.3881 69.3528 35.5138 69.3015 35.6619C69.2872 35.7025 69.2769 35.7572 69.2769 35.812V36.8343H68.9794V35.8445C68.9794 35.5808 68.8624 35.3901 68.6305 35.3901C68.4397 35.3901 68.3022 35.5402 68.2529 35.6903C68.2365 35.7349 68.2283 35.7856 68.2283 35.8363V36.8343H67.9308V35.6274H67.9328Z" fill="#69D085"/>
<path d="M32.0472 58.4382C32.0205 57.9433 31.9877 57.3469 31.9938 56.9027H31.9774C31.8543 57.3185 31.7045 57.7628 31.5239 58.2536L30.8899 59.9777H30.5369L29.9562 58.284C29.7859 57.783 29.6422 57.3246 29.5396 56.9027H29.5294C29.5191 57.3449 29.4924 57.9412 29.4596 58.4747L29.3632 59.998H28.9199L29.1703 56.4443H29.7633L30.3769 58.1644C30.5267 58.6025 30.6498 58.9919 30.7401 59.3611H30.7565C30.8468 59.0021 30.976 58.6126 31.1361 58.1644L31.7763 56.4443H32.3694L32.593 59.998H32.1395L32.0472 58.4382Z" fill="#226234"/>
<path d="M33.8346 58.8804L33.4611 59.998H32.981L34.2019 56.4443H34.7621L35.9892 59.998H35.4926L35.1089 58.8804H33.8346ZM35.0145 58.5234L34.6616 57.5011C34.5815 57.2699 34.5282 57.0589 34.4748 56.852H34.4646C34.4112 57.063 34.3517 57.28 34.284 57.495L33.931 58.5234H35.0145Z" fill="#226234"/>
<path d="M38.4128 60L37.9531 59.215C37.7664 58.9148 37.6494 58.7201 37.5366 58.5132H37.5263C37.4258 58.7181 37.3232 58.9088 37.1364 59.2191L36.7034 60H36.1699L37.2698 58.2009L36.213 56.4443H36.7527L37.2267 57.278C37.3601 57.5092 37.4606 57.6897 37.5571 57.8784H37.5735C37.6741 57.6674 37.7664 57.5031 37.8998 57.278L38.3902 56.4443H38.9237L37.83 58.1745L38.9504 60H38.4128Z" fill="#226234"/>
<g clip-path="url(#clip1_700_2742)">
<path d="M41.6764 56.7715H41.6653L41.0868 57.1028L41 56.7408L41.7276 56.3267H42.1103V59.8643H41.6764V56.7715Z" fill="#226234"/>
<path d="M43.9127 58.4373H43.9239C43.9862 58.345 44.0729 58.2314 44.1441 58.1391L44.8717 57.2305H45.4146L44.4579 58.3142L45.5481 59.8642H45.0008L44.1464 58.6029L43.9172 58.8751V59.8665H43.4722V56H43.9172V58.4373H43.9127Z" fill="#226234"/>
<path d="M47.9998 57.2304C47.9887 57.4197 47.9798 57.6327 47.9798 57.9545V59.4831C47.9798 60.0865 47.8663 60.458 47.626 60.6852C47.3857 60.9242 47.0386 60.9999 46.7249 60.9999C46.4289 60.9999 46.0996 60.9242 45.9016 60.7822L46.0151 60.4178C46.1797 60.5267 46.4356 60.6237 46.7427 60.6237C47.2032 60.6237 47.5415 60.3681 47.5415 59.7032V59.4098H47.5303C47.3924 59.6535 47.1254 59.8499 46.7427 59.8499C46.1285 59.8499 45.688 59.2938 45.688 58.565C45.688 57.6729 46.2354 57.1665 46.8027 57.1665C47.2322 57.1665 47.468 57.4055 47.5748 57.6232H47.586L47.606 57.2257H47.9998V57.2304ZM47.5348 58.2692C47.5348 58.1887 47.5303 58.1178 47.5103 58.0515C47.428 57.7746 47.2077 57.5451 46.8806 57.5451C46.4512 57.5451 46.1441 57.9308 46.1441 58.5413C46.1441 59.0572 46.3889 59.4878 46.8762 59.4878C47.1521 59.4878 47.4035 59.3033 47.5014 58.998C47.5259 58.9176 47.537 58.8229 47.537 58.7425V58.2692H47.5348Z" fill="#226234"/>
</g>
</g>
<defs>
<clipPath id="clip0_700_2742">
<rect width="74" height="61" fill="white"/>
</clipPath>
<clipPath id="clip1_700_2742">
<rect width="7" height="5" fill="white" transform="translate(41 56)"/>
</clipPath>
</defs>
</svg>
