<svg width="183" height="36" viewBox="0 0 183 36" fill="none" xmlns="http://www.w3.org/2000/svg">
<g id="Frame" clip-path="url(#clip0_271_338)">
<g id="Group">
<g id="Group_2">
<g id="Group_3">
<g id="Group_4">
<g id="Group_5">
<path id="Vector" d="M55.105 24.9286V20.7305L57.1042 20.6743C58.0098 20.6743 58.8812 20.5141 59.6886 20.2155C62.6233 19.1422 64.7292 16.29 64.7292 12.9488C64.7292 8.69013 61.3076 5.22343 57.1042 5.22343H50.9359V35.9953H45.7842V10.5165L56.1174 0.00390625H57.1085C64.1525 0.00390625 69.8852 5.81203 69.8852 12.9488C69.8852 18.4107 66.5276 23.0936 61.7988 24.9892L70.6541 35.9953H63.9902L55.105 24.9286Z" fill="#283764"/>
</g>
</g>
</g>
<g id="Group_6">
<path id="Vector_2" d="M120.672 0.00390625L107.634 22.531V35.9953H102.483V22.6608L89.313 0.00390625H95.3019L105.033 16.7358L114.691 0.00390625H120.672Z" fill="#283764"/>
</g>
<g id="Group_7">
<path id="Vector_3" d="M177.182 35.9957L157.289 8.05867L157.259 36L152.107 35.9957L152.145 0L157.861 0.00432796L177.827 27.9413L177.848 0L183 0.00432796L182.97 36L177.182 35.9957Z" fill="#283764"/>
</g>
<g id="Group_8">
<g id="Group_9">
<g id="Group_10">
<path id="Vector_4" d="M96.216 35.9957L76.3227 8.05867L76.2928 36L71.1411 35.9957L71.1796 0L76.8951 0.00432796L102.572 35.9957H96.216Z" fill="#283764"/>
</g>
</g>
</g>
<g id="Group_11">
<path id="Vector_5" d="M145.746 35.9957L125.853 8.05867L125.823 36L120.671 35.9957L120.71 0L126.43 0.00432796L152.107 35.9957H145.746Z" fill="#283764"/>
</g>
</g>
<g id="Group_12">
<path id="Vector_6" d="M15.7882 0.164062L10.6707 5.34464H5.11751V10.9753L0 16.1602V0.164062H15.7882Z" fill="#FFCB05"/>
<path id="Vector_7" d="M23.0245 0.164062L17.907 5.34464H30.0258V30.581H5.11751V18.3069L0 23.4875V35.7659H35.1433V0.164062H23.0245Z" fill="#283764"/>
</g>
</g>
</g>
<defs>
<clipPath id="clip0_271_338">
<rect width="183" height="36" fill="white"/>
</clipPath>
</defs>
</svg>
