<svg width="198" height="39" viewBox="0 0 198 39" fill="none" xmlns="http://www.w3.org/2000/svg">
<g id="Frame" clip-path="url(#clip0_271_644)">
<g id="Group">
<g id="Group_2">
<g id="Group_3">
<g id="Group_4">
<g id="Group_5">
<path id="Vector" d="M60.0495 26.7808V22.3606L62.2005 22.3021C63.1747 22.3021 64.1096 22.1334 64.9792 21.8218C68.137 20.6924 70.3991 17.6872 70.3991 14.1626C70.3991 9.67746 66.7248 6.02312 62.2005 6.02312H55.5579V38.4448H50.0203V11.5987L61.1348 0.525391H62.2005C69.7715 0.525391 75.9368 6.63975 75.9368 14.1626C75.9368 19.9135 72.3278 24.8465 67.2413 26.8457L76.7606 38.4448H69.6015L60.0495 26.7808Z" fill="white"/>
</g>
</g>
<g id="Group_6">
<g id="Group_7">
<path id="Vector_2" d="M130.535 0.518555L116.525 24.2555V38.438H110.98V24.3918L96.8257 0.518555H103.259L113.726 18.1477L124.102 0.518555H130.535Z" fill="white"/>
</g>
</g>
<g id="Group_8">
<g id="Group_9">
<path id="Vector_3" d="M191.293 38.438L169.9 9.00856L169.868 38.4445L164.33 38.438L164.376 0.518555H170.522L191.986 29.9545L192.005 0.518555L197.543 0.525046L197.517 38.4445L191.293 38.438Z" fill="white"/>
</g>
</g>
<g id="Group_10">
<g id="Group_11">
<path id="Vector_4" d="M104.246 38.438L82.854 9.00856L82.8279 38.4445L77.2837 38.438L77.3229 0.518555H83.4751L111.078 38.438H104.246Z" fill="white"/>
</g>
</g>
<g id="Group_12">
<g id="Group_13">
<path id="Vector_5" d="M157.498 38.438L136.106 9.00856L136.08 38.4445L130.535 38.438L130.575 0.518555H136.727L164.33 38.438H157.498Z" fill="white"/>
</g>
</g>
</g>
</g>
<g id="Group_14">
<path id="Vector_6" d="M25.5553 0.6875L20.0568 6.14629H33.087V32.7327H6.30093V19.803L0.80249 25.2618V38.198H38.5854V0.6875H25.5553Z" fill="white"/>
</g>
</g>
</g>
<defs>
<clipPath id="clip0_271_644">
<rect width="196.741" height="37.9259" fill="white" transform="translate(0.80249 0.518555)"/>
</clipPath>
</defs>
</svg>
