<svg width="22" height="22" viewBox="0 0 22 22" fill="none" xmlns="http://www.w3.org/2000/svg">
<g id="Frame" clip-path="url(#clip0_271_199)">
<rect width="22" height="22" fill="transparent"/>
<g id="Group">
<path id="Vector" d="M20.1465 21.2958H2.14492C1.51081 21.2958 1 20.7915 1 20.1654V8.9654C1 8.33931 1.51081 7.83496 2.14492 7.83496H20.1465C20.7806 7.83496 21.2914 8.33931 21.2914 8.9654V20.1654C21.2914 20.7915 20.7806 21.2958 20.1465 21.2958Z" stroke="#D9D9D9" stroke-width="0.9666" stroke-miterlimit="10"/>
<path id="Vector_2" d="M16.5707 6.35652C16.5707 3.4 14.14 1 11.1456 1C8.1512 1 5.72046 3.4 5.72046 6.35652V7.83478H16.5707V6.35652Z" stroke="#D9D9D9" stroke-miterlimit="10"/>
<path id="Vector_3" d="M10.5292 15.4522C10.9767 15.4522 11.3395 14.8215 11.3395 14.0435C11.3395 13.2655 10.9767 12.6348 10.5292 12.6348C10.0818 12.6348 9.71899 13.2655 9.71899 14.0435C9.71899 14.8215 10.0818 15.4522 10.5292 15.4522Z" stroke="#D9D9D9" stroke-width="0.7515" stroke-miterlimit="10"/>
</g>
</g>
<defs>
<clipPath id="clip0_271_199">
<rect width="22" height="22" fill="white"/>
</clipPath>
</defs>
</svg>
