<svg width="39" height="54" viewBox="0 0 39 54" fill="none" xmlns="http://www.w3.org/2000/svg">
<g clip-path="url(#clip0_217_634)">
<path d="M19.4903 18.6357C21.9031 18.6357 23.8591 16.6769 23.8591 14.2606C23.8591 11.8444 21.9031 9.88556 19.4903 9.88556C17.0775 9.88556 15.1216 11.8444 15.1216 14.2606C15.1216 16.6769 17.0775 18.6357 19.4903 18.6357Z" fill="white"/>
<path d="M19.5014 18.7218C17.0287 18.7218 15.0245 16.7147 15.0245 14.2384C15.0245 11.7622 17.0287 9.75509 19.5014 9.75509C21.9741 9.75509 23.9783 11.7622 23.9783 14.2384C23.9755 16.7119 21.9741 18.719 19.5014 18.7218ZM19.5014 9.96607C17.1452 9.96607 15.2352 11.8788 15.2352 14.2384C15.2352 16.5981 17.1452 18.5108 19.5014 18.5108C21.8576 18.5108 23.7676 16.5981 23.7676 14.2384C23.7676 14.2384 23.7676 14.2384 23.7676 14.2357C23.7676 11.876 21.8576 9.96052 19.5014 9.96052V9.96607Z" fill="black"/>
<path d="M19.8507 10.0716C19.2963 10.9738 18.5644 12.0814 18.8111 13.1946C19.0052 14.0913 19.9505 14.6215 20.0863 15.5404C20.2443 16.6064 19.238 17.5558 18.6199 18.297" fill="white"/>
<path d="M19.8507 10.0716C19.5208 10.7739 19.1383 11.4651 18.9941 12.1897C18.9193 12.5395 18.9331 12.9031 19.0302 13.2474C19.1577 13.5861 19.3462 13.8998 19.5873 14.1718C19.8562 14.4827 20.0669 14.8408 20.211 15.2267C20.3358 15.6431 20.3053 16.0901 20.1223 16.487C19.956 16.8563 19.7287 17.1922 19.4515 17.4837C19.1826 17.7751 18.8999 18.0389 18.6199 18.3026C19.0496 17.6585 19.5818 17.0534 19.8202 16.3677C19.9422 16.0401 19.9449 15.682 19.834 15.3489C19.6927 15.013 19.4959 14.702 19.2547 14.43C18.9858 14.1163 18.7807 13.7498 18.6504 13.3584C18.5478 12.9476 18.5589 12.5173 18.6781 12.1092C18.8971 11.3236 19.3739 10.6851 19.8507 10.0716Z" fill="black"/>
<path d="M24.4662 6.15731C24.3969 6.16841 24.3303 6.18785 24.2583 6.20173C24.1862 6.21838 24.1197 6.23226 24.0504 6.25447C23.4156 6.42936 22.8112 6.70697 22.2651 7.07619C22.2069 6.50987 21.9575 5.97964 21.5555 5.57711L19.5208 3.53948L17.4861 5.57711C17.4168 5.64651 17.3503 5.72147 17.2921 5.79642C16.5187 6.7847 16.6018 8.19494 17.4861 9.08328L18.4037 10.0022L18.4231 10.0743C17.7633 10.2492 17.1535 10.5824 16.649 11.0432L16.6268 11.0626C16.5824 11.0987 16.5381 11.1403 16.4993 11.1848L16.4799 11.207C16.4355 11.2486 16.3967 11.2903 16.3579 11.3347L16.0059 10.9821L15.8617 10.835C15.5734 10.5379 15.3239 10.2048 15.1188 9.84392C15.0107 9.65793 14.9164 9.46638 14.836 9.2665C14.0543 7.37323 14.4868 5.19124 15.931 3.74213L16.3468 3.32572L16.491 3.18137L16.6351 3.03701L19.5153 0.149908L23.1106 3.75046C23.7731 4.41394 24.2444 5.24676 24.4662 6.15731Z" fill="white"/>
<path d="M16.3579 11.4957L15.7813 10.9183C15.4875 10.6129 15.2352 10.2742 15.0245 9.90777C14.9137 9.719 14.8194 9.5219 14.7363 9.31925V9.29981C13.9407 7.37045 14.387 5.15237 15.8617 3.67828L19.5291 0L23.1966 3.67551C23.8729 4.35009 24.3497 5.20234 24.5687 6.1351L24.5937 6.24337L24.4856 6.2628C24.419 6.2739 24.358 6.29056 24.2915 6.30722C24.2222 6.3211 24.1529 6.33775 24.0836 6.35996C23.4571 6.53208 22.8639 6.80413 22.3261 7.1678L22.182 7.26496L22.1626 7.09284C22.1071 6.55151 21.866 6.04349 21.4834 5.65762L19.5208 3.69494L17.5582 5.65762C17.4917 5.72424 17.4279 5.79365 17.3697 5.86582C16.6296 6.81246 16.71 8.16163 17.5582 9.01388L18.4979 9.95497L18.5506 10.1632L18.4508 10.1882C17.8105 10.3603 17.22 10.6795 16.7294 11.1237L16.6933 11.157C16.6517 11.1931 16.6074 11.232 16.5686 11.2708L16.5492 11.2958C16.5076 11.3347 16.4688 11.3735 16.43 11.418L16.3579 11.4957ZM14.9358 9.2554C15.0135 9.44417 15.1022 9.62461 15.2047 9.79951C15.4071 10.1521 15.651 10.4769 15.931 10.7684L16.3468 11.1848C16.3634 11.1653 16.3829 11.1487 16.4023 11.132L16.4217 11.1098L16.5409 10.9988C16.5519 10.9877 16.563 10.9793 16.5741 10.9682C17.0565 10.5296 17.6303 10.2048 18.254 10.016L17.403 9.16101C16.4771 8.23658 16.3884 6.76527 17.1951 5.73535C17.2588 5.65484 17.3281 5.57711 17.403 5.50493L19.5097 3.39513L21.6165 5.50493C21.9935 5.88526 22.2457 6.37384 22.3344 6.9013C22.8528 6.56817 23.4183 6.31832 24.0115 6.15731C24.0808 6.1351 24.1501 6.11844 24.2194 6.10179L24.3137 6.07958C24.0919 5.22455 23.6484 4.44725 23.0247 3.82264L19.5042 0.297039L15.9837 3.82264C14.5616 5.24121 14.1403 7.38155 14.9109 9.23596L14.9358 9.2554Z" fill="black"/>
<path d="M22.2762 7.07896C22.2097 7.12338 22.1459 7.1678 22.0822 7.21499C22.0184 7.26218 21.9436 7.31771 21.8743 7.376C21.6913 7.52036 21.5167 7.67582 21.3531 7.83961L19.2519 9.94664C19.1577 9.94664 19.0662 9.96052 18.9747 9.9744C18.8915 9.98273 18.8056 9.99661 18.7224 10.016C18.6421 10.0299 18.5589 10.0466 18.4813 10.0688L18.4175 10.0077L17.5 9.08884C16.6157 8.20049 16.5325 6.79025 17.3059 5.80197C17.3669 5.72424 17.4307 5.65207 17.5 5.58267L19.5347 3.54503L21.5693 5.58267C21.9713 5.98242 22.2208 6.51265 22.2762 7.07896Z" fill="white"/>
<path d="M18.4369 10.1826L18.3344 10.0827L17.414 9.16101C16.4882 8.23658 16.3995 6.76527 17.2061 5.73535C17.2699 5.65484 17.3392 5.57711 17.414 5.50494L19.5208 3.39513L21.6276 5.50494C22.0461 5.9269 22.3095 6.47656 22.3705 7.06786V7.12893L22.3178 7.16502C22.2541 7.20666 22.1903 7.25108 22.1293 7.29827C22.0656 7.34547 21.9907 7.40099 21.9214 7.45651C21.7412 7.59809 21.5694 7.75077 21.4058 7.91178L19.2741 10.0494H19.2297C19.141 10.0494 19.0523 10.0605 18.9664 10.0743C18.8832 10.0827 18.8028 10.0965 18.7197 10.116C18.6365 10.1326 18.5561 10.1465 18.4841 10.1659L18.4369 10.1826ZM19.5208 3.68939L17.5582 5.65207C17.4917 5.71869 17.4279 5.78809 17.3697 5.86027C16.6296 6.80691 16.7099 8.15608 17.5582 9.00833L18.4979 9.94941C18.5617 9.93276 18.6254 9.91888 18.6892 9.91055C18.7751 9.89112 18.8611 9.87724 18.947 9.86613C19.0302 9.85503 19.1105 9.8467 19.1937 9.84115L21.2727 7.7591C21.4391 7.59254 21.6165 7.4343 21.8022 7.28994C21.8715 7.23165 21.9408 7.1789 22.0101 7.12616C22.0794 7.07341 22.1044 7.05398 22.1543 7.02344C22.0877 6.50432 21.8493 6.02128 21.4806 5.64929L19.5208 3.68939Z" fill="black"/>
<path d="M19.8119 18.4969L17.7106 20.6012C17.5471 20.7677 17.3724 20.9204 17.1895 21.0648C17.1202 21.1203 17.0509 21.1758 16.9816 21.2258C16.9123 21.2758 16.8541 21.3202 16.7875 21.3618C16.2387 21.731 15.6371 22.0059 14.9996 22.1808C14.933 22.2002 14.8665 22.2168 14.7917 22.2363C14.7168 22.2529 14.6558 22.2668 14.5838 22.2807C12.5546 22.6943 10.4562 22.0642 8.98976 20.6039L8.5601 20.1737C6.15673 17.7613 6.15673 13.8581 8.5601 11.4457L11.7951 8.20605C11.7951 8.2921 11.8145 8.37816 11.8311 8.46422C11.845 8.55028 11.8561 8.63356 11.8727 8.71684C12.0058 9.44417 12.2497 10.1465 12.5934 10.7989L10.2677 13.128C8.75137 14.6493 8.75137 17.1117 10.2677 18.6357L10.5338 18.9022C11.6066 19.9738 13.2005 20.3263 14.6226 19.8072C14.703 19.7767 14.7861 19.7461 14.8637 19.7073C14.9524 19.6684 15.0412 19.6268 15.1243 19.5796C15.457 19.3991 15.7619 19.1715 16.028 18.9022L17.1368 17.7918C17.5415 18.0666 17.9906 18.2665 18.4619 18.3859C18.5395 18.4053 18.6226 18.4247 18.703 18.4414C18.7834 18.4553 18.8721 18.4719 18.9581 18.4803C19.0412 18.4941 19.1272 18.5025 19.2103 18.508C19.3046 18.508 19.3988 18.5191 19.4931 18.5191H19.5152C19.6234 18.5108 19.7176 18.508 19.8119 18.4969Z" fill="white"/>
<path d="M13.3502 22.5139C11.6897 22.5194 10.093 21.8587 8.92323 20.6789L8.49356 20.2486C6.04861 17.7973 6.04861 13.8248 8.49356 11.3735L11.881 7.98118L11.9032 8.18939C11.9032 8.27267 11.9226 8.35873 11.9365 8.43923C11.9503 8.51974 11.9614 8.60857 11.978 8.69186C12.1111 9.4053 12.3495 10.0938 12.6877 10.735L12.7237 10.8044L10.3425 13.1891C8.86779 14.6715 8.86779 17.0672 10.3425 18.5469L10.6086 18.8134C11.6509 19.8572 13.2033 20.2014 14.5893 19.6962C14.6669 19.6656 14.7445 19.6351 14.8222 19.599L14.8471 19.5879C14.922 19.5546 14.9996 19.5157 15.08 19.4713C15.4043 19.2964 15.7009 19.0743 15.9615 18.8134L17.1313 17.6391L17.2006 17.6863C17.5942 17.9556 18.0322 18.1527 18.4924 18.2665C18.57 18.2859 18.6476 18.3054 18.728 18.322C18.8084 18.3387 18.8915 18.3526 18.9747 18.3581C19.0551 18.372 19.1382 18.3803 19.2214 18.3859C19.3157 18.3859 19.4071 18.397 19.4986 18.397H19.5208C19.6123 18.397 19.701 18.397 19.7924 18.3859L20.078 18.3609L17.7716 20.6678C17.6053 20.8371 17.4279 20.9954 17.2422 21.1397C17.1729 21.1952 17.1036 21.2508 17.0343 21.3035C16.965 21.3563 16.904 21.3979 16.8264 21.4423C16.2692 21.8171 15.6565 22.0975 15.0107 22.2751C14.9469 22.2946 14.8776 22.3112 14.8028 22.3307L14.7473 22.3473C14.7002 22.3584 14.6503 22.3695 14.6004 22.3779C14.1901 22.4639 13.7715 22.5083 13.3502 22.5139ZM11.7258 8.43091L8.63771 11.5207C6.27592 13.8914 6.27592 17.7307 8.63771 20.1015L9.06738 20.5318C10.2011 21.67 11.7424 22.3084 13.3502 22.3057C13.7605 22.3057 14.168 22.264 14.5671 22.1835C14.6143 22.1835 14.6614 22.1641 14.7085 22.153L14.7695 22.1419C14.8332 22.128 14.897 22.1113 14.9635 22.0891C15.59 21.9198 16.186 21.6477 16.7238 21.2841C16.7903 21.2424 16.8513 21.198 16.9151 21.1508C16.9788 21.1036 17.0537 21.0481 17.123 20.9926C17.3031 20.851 17.475 20.6983 17.6386 20.5345L19.5513 18.6191H19.5097C19.4099 18.6191 19.3157 18.6191 19.2186 18.608C19.1299 18.6052 19.0412 18.5941 18.9553 18.5774C18.8749 18.5774 18.7862 18.5552 18.7003 18.5386C18.6143 18.5219 18.5312 18.5025 18.4508 18.483C17.9934 18.3664 17.5582 18.1777 17.1645 17.9223L16.125 18.9633C15.8506 19.2409 15.5401 19.4741 15.1992 19.6573C15.1105 19.7073 15.019 19.7517 14.9275 19.7906H14.9081C14.8332 19.8239 14.7584 19.8516 14.6808 19.8822C13.2199 20.418 11.5816 20.0543 10.4811 18.955L10.215 18.6885C8.65711 17.1255 8.65711 14.5965 10.215 13.0336L12.4881 10.7572C12.1582 10.1188 11.9226 9.43307 11.7923 8.72517C11.7757 8.63911 11.759 8.55305 11.748 8.46422L11.7258 8.43091Z" fill="black"/>
<path d="M15.7092 12.3007C15.7092 12.2952 15.7092 12.2896 15.7092 12.2869C15.7092 12.2924 15.7092 12.3007 15.7092 12.3063C15.7092 12.3063 15.7092 12.3063 15.7092 12.3174C15.7065 12.3118 15.7065 12.3063 15.7092 12.3007Z" fill="white"/>
<path d="M15.942 11.9065C15.9476 11.8982 15.9531 11.8927 15.9587 11.8843C15.9503 11.8982 15.942 11.9121 15.9337 11.9232L15.942 11.9065Z" fill="white"/>
<path d="M15.9587 11.8705C15.9698 11.851 15.9837 11.8316 15.9975 11.8149L15.9587 11.8705Z" fill="white"/>
<path d="M16.3579 11.3458L16.3384 11.368L16.1305 11.1598L15.9836 11.0154L15.8395 10.8683L15.8617 10.8461L16.0058 10.9932L16.3579 11.3458Z" fill="white"/>
<path d="M15.8645 10.8461L15.8423 10.8683L15.9864 11.0154L16.1334 11.1598L16.3413 11.368L16.3607 11.3458L16.0086 10.9932L15.8645 10.8461Z" fill="black"/>
<path d="M17.1479 17.7835L16.0391 18.8939C15.773 19.1632 15.4681 19.3908 15.1354 19.5713C15.0495 19.6184 14.9635 19.6629 14.8748 19.6989C14.7972 19.735 14.7141 19.7684 14.6337 19.7989C13.2116 20.318 11.6177 19.9655 10.5449 18.8939L10.2788 18.6274C8.76246 17.1061 8.76246 14.6437 10.2788 13.1197L12.6018 10.7933C12.635 10.8572 12.6711 10.921 12.7071 10.9821C12.7459 11.0432 12.7764 11.107 12.8152 11.1681C13.1257 11.6817 13.4971 12.1564 13.9213 12.5811L14.0266 12.6894L12.0473 14.6715C11.3848 15.335 11.3848 16.4093 12.0473 17.0728L12.1555 17.1783C12.818 17.8418 13.8908 17.8418 14.5505 17.1783L15.6649 16.0651C15.8451 16.4454 16.0807 16.7952 16.3607 17.1061C16.405 17.1589 16.4549 17.2088 16.5048 17.2588C16.5547 17.3088 16.6046 17.356 16.6573 17.4004C16.7099 17.4448 16.7598 17.4948 16.8097 17.5364L16.9761 17.6641C17.0343 17.703 17.0897 17.7446 17.1479 17.7835Z" fill="white"/>
<path d="M13.2892 20.1403C12.2303 20.1459 11.2129 19.7212 10.4673 18.9688L10.2011 18.7023C8.64324 17.1394 8.64324 14.6104 10.2011 13.0475L12.6267 10.6184L12.6904 10.7461C12.7237 10.8072 12.757 10.8683 12.793 10.9294C12.8263 10.9904 12.8595 11.0515 12.8983 11.1098C13.2033 11.6178 13.5692 12.087 13.9905 12.5062L14.1679 12.6894L12.1166 14.7437C11.4985 15.3683 11.4985 16.376 12.1166 16.9978L12.2247 17.1033C12.8457 17.7252 13.8519 17.7279 14.4729 17.1061L14.4756 17.1033L15.6926 15.8846L15.7563 16.0151C15.931 16.3843 16.161 16.7258 16.4355 17.0256C16.4798 17.0783 16.527 17.1255 16.5741 17.1727C16.6212 17.2199 16.6683 17.2671 16.7182 17.3088L16.8707 17.4448L17.0342 17.5697C17.0897 17.6086 17.1424 17.6474 17.1978 17.6863L17.3059 17.7557L16.1056 18.9577C15.8312 19.2353 15.5207 19.4685 15.1797 19.6518C15.091 19.7017 14.9996 19.7461 14.9081 19.785H14.8887C14.8138 19.8183 14.739 19.8461 14.6614 19.8766C14.2262 20.0515 13.7604 20.1376 13.2892 20.1403ZM12.574 10.9627L10.3453 13.1946C8.87055 14.677 8.87055 17.0728 10.3453 18.5524L10.6114 18.8189C11.6537 19.8627 13.206 20.207 14.5921 19.7017C14.6697 19.6712 14.7473 19.6407 14.8249 19.6046L14.8499 19.5935C14.9247 19.5601 15.0023 19.5213 15.0827 19.4769C15.407 19.302 15.7037 19.0799 15.9642 18.8189L16.9843 17.7946L16.915 17.7418L16.7459 17.6113C16.6905 17.5642 16.6351 17.517 16.5824 17.467C16.5297 17.417 16.4826 17.3754 16.4299 17.3226C16.3773 17.2699 16.3274 17.2199 16.2802 17.1672C16.0252 16.8868 15.809 16.5731 15.6344 16.2372L14.6226 17.2477C13.924 17.95 12.7875 17.9528 12.0861 17.2532C12.0834 17.2505 12.0834 17.2505 12.0806 17.2477L11.9725 17.145C11.2711 16.4399 11.2711 15.2989 11.9725 14.5938L13.8796 12.6838L13.8436 12.6505C13.4139 12.2202 13.0369 11.74 12.7237 11.2181C12.6849 11.157 12.6489 11.0932 12.6128 11.0265L12.574 10.9627Z" fill="black"/>
<path d="M15.5262 12.7033C15.5262 12.6811 15.5456 12.6589 15.5567 12.6339C15.5346 12.6894 15.5152 12.7421 15.493 12.7977L15.5262 12.7033Z" fill="white"/>
<path d="M15.6177 12.4923C15.6233 12.4812 15.6288 12.4701 15.6344 12.459C15.6344 12.4645 15.6344 12.4729 15.6344 12.4784C15.6205 12.5006 15.615 12.5228 15.6039 12.5478C15.5928 12.57 15.6039 12.5312 15.6039 12.5228L15.6177 12.4923Z" fill="white"/>
<path d="M15.7092 12.3007C15.7092 12.2952 15.7092 12.2896 15.7092 12.2869C15.7092 12.2924 15.7092 12.3007 15.7092 12.3063C15.7092 12.3063 15.7092 12.3063 15.7092 12.3174C15.7065 12.3118 15.7065 12.3063 15.7092 12.3007Z" fill="white"/>
<path d="M15.7813 12.1619C15.8062 12.1147 15.8367 12.0676 15.8645 12.0231C15.8201 12.0981 15.7785 12.1703 15.7369 12.2508C15.7314 12.2591 15.7259 12.2674 15.7231 12.2785L15.7508 12.2202C15.7591 12.198 15.7702 12.1786 15.7813 12.1619Z" fill="white"/>
<path d="M15.8728 12.0065V11.9898L15.8534 12.0204L15.8728 12.0065Z" fill="white"/>
<path d="M15.9421 11.9065C15.9476 11.8982 15.9532 11.8927 15.9587 11.8843C15.9504 11.8982 15.9421 11.9121 15.9338 11.9232V11.9371L15.9005 11.9898C15.9005 11.9621 15.9144 11.9343 15.9421 11.9065Z" fill="white"/>
<path d="M15.9587 11.8705C15.9698 11.851 15.9837 11.8316 15.9975 11.8149L15.9587 11.8705Z" fill="white"/>
<path d="M16.3579 11.3458L16.3384 11.368L16.1305 11.1598L15.9836 11.0154L15.8395 10.8683L15.8617 10.8461L16.0058 10.9932L16.3579 11.3458Z" fill="white"/>
<path d="M15.8645 10.8461L15.8423 10.8683L15.9864 11.0154L16.1334 11.1598L16.3413 11.368L16.3607 11.3458L16.0086 10.9932L15.8645 10.8461Z" fill="black"/>
<path d="M15.6648 16.0651L14.5505 17.1783C13.8879 17.8418 12.8152 17.8418 12.1554 17.1783L12.0473 17.0728C11.3848 16.4093 11.3848 15.335 12.0473 14.6715L14.0266 12.6894L14.1735 12.8337L14.3176 12.9809L15.2601 13.9247C15.2601 14.0219 15.2463 14.1329 15.2463 14.2246C15.2463 14.7104 15.3266 15.1906 15.4902 15.6487C15.5151 15.7208 15.5429 15.793 15.5734 15.8569C15.6066 15.9207 15.6343 15.9985 15.6648 16.0651Z" fill="white"/>
<path d="M13.3502 17.7807C12.8734 17.7835 12.4161 17.5919 12.0806 17.2532L11.9725 17.1505C11.2712 16.4454 11.2712 15.3044 11.9725 14.5993L14.0238 12.545L15.3683 13.8886V13.9358C15.3683 14.033 15.3544 14.1302 15.3544 14.2273C15.3544 14.6993 15.4348 15.1712 15.5901 15.6154C15.6122 15.6875 15.64 15.7569 15.6704 15.8236C15.6982 15.8957 15.7287 15.9596 15.7592 16.0318L15.7896 16.0956L14.6226 17.2616C14.29 17.5975 13.8298 17.7862 13.3502 17.7807ZM14.0238 12.8337L12.1167 14.7437C11.4985 15.3683 11.4985 16.376 12.1167 16.9978L12.2248 17.1033C12.8457 17.7252 13.852 17.7279 14.4729 17.1061L14.4757 17.1033L15.5374 16.0401C15.518 15.9929 15.4958 15.9429 15.4764 15.8957C15.4431 15.8291 15.4154 15.7597 15.3905 15.6875C15.2241 15.2184 15.141 14.727 15.141 14.2301C15.141 14.144 15.141 14.0552 15.141 13.9692L14.0238 12.8337Z" fill="black"/>
<path d="M15.5262 12.7033C15.5262 12.6811 15.5456 12.6589 15.5567 12.6339C15.5346 12.6894 15.5152 12.7421 15.493 12.7977L15.5262 12.7033Z" fill="white"/>
<path d="M15.6177 12.4923C15.6233 12.4812 15.6288 12.4701 15.6343 12.459C15.6343 12.4645 15.6343 12.4729 15.6343 12.4784C15.6205 12.5006 15.6149 12.5228 15.6039 12.5478L15.5734 12.6172V12.6311C15.5872 12.595 15.6039 12.5561 15.6177 12.52V12.4923Z" fill="white"/>
<path d="M15.7813 12.1619C15.8062 12.1147 15.8367 12.0676 15.8645 12.0231C15.8201 12.0981 15.7785 12.1703 15.7369 12.2508L15.7813 12.1619Z" fill="white"/>
<path d="M15.9421 11.9065C15.9476 11.8982 15.9532 11.8927 15.9587 11.8843C15.9504 11.8982 15.9421 11.9121 15.9338 11.9232V11.9371L15.9005 11.9898C15.9005 11.9621 15.9144 11.9343 15.9421 11.9065Z" fill="white"/>
<path d="M15.8728 12.0065V11.9898L15.8534 12.0204L15.8728 12.0065Z" fill="white"/>
<path d="M15.9587 11.8705C15.9698 11.851 15.9837 11.8316 15.9975 11.8149L15.9587 11.8705Z" fill="white"/>
<path d="M16.3579 11.3458L16.3385 11.368L16.1306 11.1598L15.9836 11.0154L16.0058 10.9932L16.3579 11.3458Z" fill="white"/>
<path d="M16.0114 11.0015L15.8672 10.8544L15.845 10.8766L15.9892 11.0238L16.1361 11.1681L16.344 11.3763L16.3634 11.3541L16.0114 11.0015Z" fill="black"/>
<path d="M16.0114 11.0015L15.8673 10.8544L15.8451 10.8766L15.9892 11.0238L16.1361 11.1681L16.344 11.3763L16.3635 11.3541L16.0114 11.0015ZM15.9587 11.8788L15.9393 11.9093C15.9199 11.9371 15.9061 11.9648 15.8894 11.9926L15.9227 11.9399V11.926C15.931 11.9121 15.9393 11.901 15.9476 11.8871V11.8732L15.9865 11.8177C16.0031 11.7927 16.0197 11.765 16.0391 11.74C16.0142 11.7733 15.9892 11.8094 15.9698 11.8427L15.9587 11.8788ZM15.8645 12.0287L15.8839 11.9981V12.0148L15.8645 12.0287ZM15.7508 12.2258L15.7092 12.3063C15.6732 12.3757 15.6399 12.4451 15.6095 12.5145V12.5256L15.5845 12.5867C15.5679 12.6255 15.5485 12.6644 15.5346 12.706L15.5013 12.8004C15.5207 12.7449 15.5402 12.6922 15.5651 12.6366V12.6228L15.5956 12.5534C15.6067 12.5312 15.615 12.5089 15.6261 12.484C15.6261 12.4784 15.6261 12.4701 15.6261 12.4645L15.6427 12.4284C15.6538 12.409 15.6621 12.3868 15.6732 12.3674C15.6788 12.3535 15.6843 12.3424 15.6898 12.3313C15.6898 12.3313 15.6898 12.3313 15.6898 12.3202C15.6898 12.3146 15.6898 12.3063 15.6898 12.3007C15.6926 12.2924 15.6982 12.2813 15.7037 12.273C15.7453 12.1952 15.7869 12.1203 15.8312 12.0453C15.8035 12.0898 15.773 12.137 15.7481 12.1841C15.7508 12.1952 15.7508 12.2036 15.7536 12.2147V12.2258H15.7508ZM16.0114 11.0015L15.8673 10.8544L15.8451 10.8766L15.9892 11.0238L16.1361 11.1681L16.344 11.3763L16.3635 11.3541L16.0114 11.0015ZM15.9587 11.8788L15.9393 11.9093C15.9199 11.9371 15.9061 11.9648 15.8894 11.9926L15.9227 11.9399V11.926C15.931 11.9121 15.9393 11.901 15.9476 11.8871V11.8732L15.9865 11.8177C16.0031 11.7927 16.0197 11.765 16.0391 11.74C16.0142 11.7733 15.9892 11.8094 15.9698 11.8427L15.9587 11.8788ZM15.8645 12.0287L15.8839 11.9981V12.0148L15.8645 12.0287ZM15.7508 12.2258L15.7092 12.3063C15.6732 12.3757 15.6399 12.4451 15.6095 12.5145V12.5256L15.5845 12.5867C15.5679 12.6255 15.5485 12.6644 15.5346 12.706L15.5013 12.8004C15.5207 12.7449 15.5402 12.6922 15.5651 12.6366V12.6228L15.5956 12.5534C15.6067 12.5312 15.615 12.5089 15.6261 12.484C15.6261 12.4784 15.6261 12.4701 15.6261 12.4645L15.6427 12.4284C15.6538 12.409 15.6621 12.3868 15.6732 12.3674C15.6788 12.3535 15.6843 12.3424 15.6898 12.3313C15.6898 12.3313 15.6898 12.3313 15.6898 12.3202C15.6898 12.3146 15.6898 12.3063 15.6898 12.3007C15.6926 12.2924 15.6982 12.2813 15.7037 12.273C15.7453 12.1952 15.7869 12.1203 15.8312 12.0453C15.8035 12.0898 15.773 12.137 15.7481 12.1841C15.7508 12.1952 15.7508 12.2036 15.7536 12.2147V12.2258H15.7508Z" fill="white"/>
<path d="M16.649 3.03424L16.5048 3.17859L16.3607 3.32295L15.9449 3.73936C14.4978 5.19124 14.0654 7.37045 14.8499 9.26372C14.9303 9.46083 15.0245 9.65515 15.1326 9.84115C15.3378 10.202 15.5873 10.5352 15.8755 10.8322L16.0197 10.9793L16.3717 11.3319L16.3523 11.3541C16.3052 11.4068 16.2609 11.4596 16.2165 11.5151C16.2054 11.5262 16.1971 11.5373 16.1888 11.5512C16.1444 11.6067 16.1001 11.6622 16.0613 11.7205C16.0419 11.7455 16.0252 11.7733 16.0086 11.7983L15.9698 11.8538V11.8677C15.9615 11.8816 15.9532 11.8954 15.9449 11.9065V11.9204L15.9116 11.9732L15.8922 12.0037C15.8478 12.0787 15.8035 12.1508 15.7647 12.2313C15.7591 12.2397 15.7536 12.248 15.7508 12.2591C15.7508 12.2647 15.7508 12.273 15.7508 12.2785C15.7508 12.2785 15.7508 12.2785 15.7508 12.2896C15.7425 12.3007 15.7369 12.3146 15.7342 12.3257C15.7342 12.3452 15.7148 12.3646 15.7037 12.3868L15.687 12.4229C15.687 12.4284 15.687 12.4368 15.687 12.4423C15.6732 12.4645 15.6676 12.4867 15.6566 12.5117L15.6261 12.5811V12.595C15.6261 12.6172 15.6067 12.6394 15.5956 12.6644L15.5623 12.7588C15.5429 12.8171 15.5235 12.8754 15.5041 12.9365C15.4847 12.9975 15.4708 13.0475 15.457 13.103L15.432 13.203C15.4182 13.2585 15.4071 13.3112 15.396 13.3667C15.3794 13.45 15.3655 13.5333 15.3572 13.6194C15.3433 13.7082 15.335 13.797 15.3295 13.8886L14.387 12.9448L14.2428 12.7977L14.0959 12.6533L13.9906 12.545C13.5664 12.1203 13.195 11.6456 12.8845 11.132C12.8457 11.0709 12.8097 11.0099 12.7764 10.946C12.7431 10.8849 12.7043 10.8211 12.6711 10.7572C12.3273 10.1049 12.0834 9.40253 11.9503 8.6752C11.9337 8.59192 11.9198 8.50586 11.9087 8.42258C11.8977 8.33652 11.881 8.25046 11.8727 8.1644C11.8367 7.87292 11.82 7.58143 11.82 7.28994C11.8145 5.32171 12.5962 3.43122 13.9906 2.04318L14.9164 1.11598L16.649 3.03424Z" fill="white"/>
<path d="M15.3544 14.1635L13.8436 12.6533C13.4139 12.223 13.0369 11.7428 12.7237 11.2209C12.6849 11.1598 12.6489 11.0959 12.6128 11.0293C12.5768 10.9627 12.5408 10.9072 12.5075 10.8405C12.1582 10.1826 11.9115 9.47193 11.7757 8.73905C11.759 8.65299 11.7424 8.56693 11.7313 8.4781C11.7202 8.39204 11.7036 8.30598 11.6953 8.21715C11.662 7.92289 11.6426 7.62862 11.6426 7.33159C11.6371 5.3356 12.4299 3.41734 13.8436 2.00987L14.8443 1.00771L16.7903 3.03424L16.0058 3.81986C14.5838 5.23843 14.1624 7.37878 14.933 9.23319V9.25262C15.0106 9.44139 15.0994 9.62184 15.2019 9.79673C15.4043 10.1493 15.6482 10.4741 15.9282 10.7656L16.4882 11.3263L16.4327 11.3985L16.405 11.4318C16.3606 11.479 16.3163 11.5318 16.2775 11.5817L16.2442 11.6262C16.2026 11.6789 16.1611 11.7316 16.125 11.7872C16.1112 11.8038 16.1001 11.8205 16.089 11.8399L16.0308 11.9371L16.0058 11.9732L15.9504 12.062C15.9005 12.1425 15.8589 12.2147 15.8229 12.2896V12.3174L15.7841 12.3646L15.7702 12.3868V12.4201H15.7563L15.7425 12.4506C15.7369 12.4618 15.7314 12.4729 15.7258 12.484C15.7258 12.484 15.7258 12.4978 15.712 12.5173L15.7009 12.545L15.6538 12.6561C15.6455 12.6783 15.6344 12.7033 15.6233 12.7255L15.5928 12.8115C15.5734 12.8698 15.554 12.9254 15.5373 12.9864C15.5179 13.0364 15.5041 13.0891 15.493 13.1419L15.468 13.2446C15.4542 13.3029 15.4431 13.3529 15.432 13.4001C15.4154 13.4806 15.4015 13.5611 15.3932 13.6444C15.3793 13.7304 15.371 13.8192 15.3655 13.9053L15.3544 14.1635ZM14.8443 1.30753L13.9933 2.15978C12.6184 3.52838 11.8505 5.39112 11.8533 7.33436C11.8533 7.62307 11.8699 7.90901 11.906 8.19494C11.906 8.281 11.9254 8.36428 11.9392 8.44756C11.9531 8.52807 11.9642 8.6169 11.9808 8.70019C12.1139 9.41363 12.3523 10.1021 12.6904 10.7434C12.7237 10.8072 12.757 10.8683 12.793 10.9294C12.8263 10.9904 12.8595 11.0515 12.8983 11.1098C13.2033 11.6178 13.5692 12.087 13.9905 12.5062L14.3925 12.9087L15.177 13.6943C15.177 13.6777 15.177 13.6582 15.177 13.6388C15.1853 13.5527 15.1991 13.4667 15.2158 13.3834C15.2158 13.3334 15.2352 13.2807 15.249 13.2307L15.2768 13.1197C15.2934 13.0558 15.31 12.9975 15.3294 12.942C15.3488 12.8865 15.3682 12.8254 15.3876 12.7643L15.4209 12.6727C15.4348 12.6394 15.4431 12.62 15.4514 12.6006V12.5811L15.4764 12.5423L15.5013 12.4867C15.5013 12.4673 15.5152 12.4506 15.5263 12.4312L15.5457 12.3868L15.5623 12.3535L15.5789 12.3202C15.5817 12.3063 15.5872 12.2952 15.5956 12.2841L15.615 12.248C15.615 12.2424 15.615 12.2369 15.615 12.2341C15.6205 12.2202 15.6288 12.2064 15.6371 12.1925C15.6676 12.1286 15.712 12.0509 15.7563 11.9732L15.8007 11.8982L15.9033 11.9343L15.8145 11.8788L15.8284 11.8593C15.8284 11.8593 15.8284 11.8427 15.8423 11.8371L15.9116 11.7344C15.9254 11.7122 15.9393 11.6928 15.9531 11.6733C15.992 11.6178 16.0335 11.5623 16.0779 11.5068C16.089 11.4874 16.1028 11.4707 16.1195 11.454L16.2082 11.3486L15.7785 10.9183C15.4847 10.6129 15.2324 10.2742 15.0217 9.90777C14.9109 9.719 14.8166 9.5219 14.7334 9.31925V9.29982C13.9379 7.37045 14.3842 5.15238 15.8589 3.67829L16.4992 3.03701L14.8443 1.30753Z" fill="black"/>
<path d="M14.6031 22.3529L14.8111 22.3057C14.8804 22.2918 14.9497 22.2724 15.019 22.2529C15.6538 22.0753 16.2553 21.7921 16.7986 21.4201C16.8596 21.9864 17.1146 22.5139 17.5193 22.9136L19.5679 24.9374L21.5887 22.8859C21.658 22.8165 21.7246 22.7415 21.7828 22.6638C22.5479 21.67 22.4536 20.2597 21.561 19.3797L20.6351 18.4664L20.6157 18.3942C21.2755 18.2138 21.8826 17.8779 22.3843 17.4115L22.4065 17.392C22.4508 17.3532 22.4924 17.3143 22.534 17.2699L22.5534 17.2477C22.5977 17.206 22.6366 17.1644 22.6754 17.12L23.0274 17.4698L23.1743 17.6169C23.6151 18.0666 23.9671 18.5969 24.2139 19.1771C25.0094 21.0676 24.5909 23.2495 23.1549 24.7097L22.7391 25.1262L22.595 25.2733L22.4508 25.4204L19.5901 28.3353L15.9615 24.7431C15.2962 24.0879 14.8249 23.2606 14.6031 22.3529Z" fill="white"/>
<path d="M19.5845 28.4769L15.8894 24.8263C15.2074 24.1545 14.7279 23.3051 14.5033 22.3751L14.4784 22.2696L14.5837 22.2502C14.6503 22.239 14.714 22.2196 14.7778 22.2057C14.8415 22.1919 14.9108 22.1752 14.9746 22.1558C15.5983 21.9781 16.1915 21.7005 16.7265 21.3341L16.8707 21.2369L16.8901 21.409C16.9511 21.9503 17.195 22.4556 17.5803 22.8387L19.5568 24.7903L21.5055 22.8137C21.5721 22.7471 21.6331 22.6777 21.6913 22.6055C22.4286 21.6561 22.3399 20.3014 21.4834 19.4574L20.5409 18.5219L20.4854 18.3137L20.5852 18.2859C21.2256 18.111 21.8132 17.7862 22.3011 17.3365L22.3372 17.3032L22.4591 17.1866L22.4813 17.1616C22.5229 17.1228 22.5589 17.0811 22.5977 17.0395L22.6698 16.959L23.2464 17.5308C23.6955 17.9917 24.0531 18.533 24.3053 19.1243V19.1437C25.1092 21.0648 24.6795 23.2828 23.2187 24.7653L19.5845 28.4769ZM14.7307 22.4389C14.9552 23.2912 15.407 24.0685 16.0363 24.6848L19.5707 28.1882L23.0662 24.6376C24.4744 23.2107 24.8847 21.0731 24.1057 19.2242V19.202C23.8646 18.6413 23.5236 18.1305 23.0995 17.6946L22.6837 17.2782L22.631 17.3337C22.631 17.3337 22.631 17.3337 22.6144 17.3532C22.5756 17.3948 22.534 17.4337 22.4952 17.4698C22.4841 17.4809 22.473 17.4892 22.4619 17.5003C21.9851 17.9417 21.4168 18.2721 20.7987 18.4636L21.658 19.3131C22.5866 20.232 22.6837 21.7005 21.8853 22.736C21.8216 22.8165 21.7523 22.8942 21.6774 22.9664L19.5845 25.0928L17.4611 22.9941C17.0814 22.6166 16.8263 22.1336 16.7348 21.6061C16.222 21.9392 15.6593 22.1946 15.0716 22.3612C15.0051 22.3834 14.933 22.4001 14.8637 22.4167L14.7307 22.4389Z" fill="black"/>
<path d="M16.7875 21.4118C16.8541 21.3674 16.9178 21.3229 16.9816 21.2758C17.0453 21.2286 17.1202 21.1703 17.1895 21.112C17.3724 20.9648 17.5443 20.8094 17.7079 20.6428L19.7869 18.5219C19.8811 18.5219 19.9726 18.5052 20.0641 18.4914C20.1473 18.483 20.2304 18.4664 20.3136 18.4469C20.394 18.4331 20.4744 18.4164 20.5548 18.3942L20.6185 18.4553L21.5444 19.3686C22.4342 20.2514 22.5312 21.6589 21.7661 22.6527C21.7052 22.7304 21.6414 22.8054 21.5721 22.8748L19.5513 24.9263L17.5027 22.9025C17.098 22.5056 16.8457 21.9753 16.7875 21.4118Z" fill="white"/>
<path d="M19.5624 25.0817L17.439 22.983C17.0176 22.5666 16.7543 22.017 16.6877 21.4284V21.3674L16.7404 21.3313C16.8069 21.2869 16.8679 21.2424 16.9317 21.1952C16.9954 21.1481 17.0703 21.0925 17.1396 21.0342C17.3198 20.8899 17.4889 20.7372 17.6496 20.5734L19.7675 18.422H19.8118C19.9006 18.422 19.9865 18.4081 20.0724 18.3942C20.1611 18.3831 20.2387 18.3692 20.3191 18.3526C20.3968 18.3359 20.4799 18.3192 20.5548 18.2998L20.6102 18.2859L20.7155 18.3859L21.6414 19.302C22.57 20.2209 22.6671 21.6894 21.8687 22.7249C21.805 22.8054 21.7357 22.8831 21.6608 22.9553L19.5624 25.0817ZM16.9012 21.4645C16.9733 21.9837 17.2117 22.4639 17.5831 22.8331L19.5596 24.7847L21.5083 22.8081C21.5749 22.7415 21.6359 22.6721 21.6941 22.5999C22.4314 21.6505 22.3427 20.2958 21.4862 19.4519L20.5437 18.5191C20.4799 18.533 20.4162 18.5497 20.3496 18.558C20.2665 18.5774 20.1805 18.5941 20.0946 18.6024C20.0114 18.6024 19.931 18.6218 19.8479 18.6302L17.7882 20.7122C17.6219 20.8816 17.4473 21.0398 17.2616 21.1897C17.1923 21.2452 17.123 21.3007 17.0537 21.3535L16.9012 21.4645Z" fill="black"/>
<path d="M19.1743 9.97717L21.2534 7.85904C21.4169 7.69247 21.5888 7.53701 21.7717 7.38988C21.841 7.33436 21.9103 7.27884 21.9796 7.22887C22.0489 7.1789 22.1071 7.13171 22.1737 7.09007C22.7198 6.71807 23.3213 6.43492 23.9561 6.25725C24.0226 6.23782 24.0892 6.21838 24.164 6.20173C24.2305 6.18785 24.2998 6.17119 24.3719 6.15731C24.7822 6.07125 25.2008 6.02406 25.6193 6.02128C27.2521 6.0074 28.8238 6.6459 29.9853 7.79519L30.4178 8.2116C32.8378 10.6073 32.8655 14.5105 30.4787 16.9395L27.2659 20.2014C27.2659 20.1154 27.2465 20.0293 27.2299 19.9432C27.2133 19.8572 27.2022 19.7739 27.1855 19.6906C27.0442 18.9688 26.7975 18.2721 26.451 17.6252L28.7601 15.2795C30.2653 13.7471 30.2459 11.2847 28.7213 9.77174L28.4551 9.50802C27.3768 8.44201 25.7801 8.10055 24.3608 8.63078C24.2804 8.66132 24.1973 8.69186 24.1197 8.73072C24.031 8.76959 23.945 8.814 23.8591 8.8612C23.5264 9.04442 23.2243 9.27205 22.9609 9.54411L21.8577 10.6629C21.4529 10.3908 21.0011 10.1937 20.5271 10.0771C20.4495 10.0577 20.3663 10.0382 20.2859 10.0216C20.2055 10.0077 20.1168 9.99105 20.0309 9.9855C19.9449 9.97995 19.8618 9.96607 19.7786 9.96052C19.6955 9.95497 19.5901 9.94941 19.4959 9.94941H19.4737C19.3656 9.95774 19.2686 9.96607 19.1743 9.97717Z" fill="white"/>
<path d="M27.1689 20.4429L27.1467 20.2236C27.1467 20.1431 27.1245 20.0571 27.1079 19.9738C27.0913 19.8905 27.0829 19.8044 27.0663 19.7212C26.9277 19.0105 26.6838 18.322 26.34 17.6835L26.3012 17.6169L28.6658 15.2156C30.1294 13.7249 30.1128 11.3263 28.627 9.8578L28.3581 9.59408C27.654 8.89173 26.7032 8.50031 25.7108 8.50308H25.6831C25.2395 8.50586 24.7988 8.58637 24.383 8.73905C24.3054 8.76959 24.2277 8.80012 24.1529 8.83621H24.1335C24.0531 8.86952 23.9727 8.91116 23.8979 8.95558C23.5735 9.13325 23.2797 9.35811 23.0219 9.61906L21.8604 10.8017L21.7911 10.7545C21.3947 10.488 20.9567 10.2964 20.4938 10.1826C20.4162 10.1632 20.3358 10.1465 20.2582 10.1326C20.1805 10.1188 20.0946 10.1021 20.0114 10.0965C19.9283 10.0827 19.8451 10.0743 19.762 10.0716C19.6677 10.0716 19.5762 10.0605 19.4848 10.0605H19.4626C19.3739 10.0605 19.2824 10.0605 19.1909 10.0716L18.9054 10.0993L21.1923 7.77576C21.3587 7.60642 21.5361 7.44818 21.719 7.29827C21.7883 7.24275 21.8576 7.18723 21.9269 7.13448C21.9962 7.08174 22.0544 7.03732 22.121 6.99291C22.6754 6.61814 23.288 6.33775 23.9339 6.16009C23.9977 6.14065 24.067 6.12122 24.1418 6.10456L24.2 6.09068L24.3525 6.05737C24.7627 5.97131 25.1813 5.9269 25.5999 5.92134H25.6443C27.2909 5.91579 28.8709 6.56539 30.0407 7.72301L30.4732 8.15052C32.9348 10.5851 32.9625 14.5549 30.5369 17.0228L27.1689 20.4429ZM26.5673 17.6641C26.9028 18.3026 27.1412 18.9855 27.277 19.6906C27.2936 19.7739 27.3103 19.8627 27.3213 19.9516C27.3213 19.9655 27.3213 19.9821 27.3213 19.9988L30.3845 16.8868C32.7296 14.4994 32.7019 10.6601 30.3235 8.30598L29.891 7.87847C28.76 6.75972 27.2299 6.13233 25.6387 6.1351H25.5944C25.1869 6.13788 24.7794 6.18229 24.3774 6.26558L24.2305 6.29889L24.1751 6.30999C24.1113 6.32665 24.0476 6.34331 23.9838 6.36551C23.3573 6.54041 22.7641 6.81524 22.2263 7.18168C22.1626 7.22609 22.0988 7.27051 22.0378 7.3177C21.9741 7.3649 21.8992 7.42042 21.8299 7.47594C21.6497 7.61752 21.4806 7.77298 21.3199 7.93677L19.4182 9.86613H19.4598C19.5596 9.86613 19.6677 9.86613 19.7536 9.87724C19.8424 9.88001 19.9283 9.88834 20.0142 9.905C20.1001 9.91332 20.1861 9.92443 20.272 9.94109C20.3552 9.95497 20.4383 9.9744 20.5215 9.99661C20.9789 10.1104 21.4141 10.2964 21.8105 10.549L22.85 9.48859C23.1217 9.21098 23.4322 8.97501 23.7731 8.78624C23.8618 8.73627 23.9505 8.69186 24.0448 8.65299H24.0586C24.1335 8.6169 24.2111 8.58637 24.2887 8.55583C24.7295 8.39204 25.1924 8.30598 25.6637 8.30321H25.6942C26.7448 8.30043 27.7538 8.71407 28.4995 9.45527L28.7684 9.719C30.3373 11.2653 30.3651 13.7887 28.8321 15.3683L26.5673 17.6641Z" fill="black"/>
<path d="M23.0967 16.5426C23.0912 16.5509 23.0856 16.5564 23.0801 16.5648C23.0884 16.5509 23.0967 16.537 23.105 16.5259L23.0967 16.5426Z" fill="white"/>
<path d="M23.0718 16.5814C23.0607 16.6009 23.0468 16.6203 23.033 16.637L23.0718 16.5814Z" fill="white"/>
<path d="M22.6726 17.1089L22.692 17.0867L22.8999 17.2949L23.0468 17.4392L23.1938 17.5864L23.1716 17.6086L23.0247 17.4614L22.6726 17.1089Z" fill="white"/>
<path d="M23.1744 17.6058L23.1966 17.5836L23.0496 17.4365L22.9027 17.2921L22.6948 17.0839L22.6754 17.1061L23.0275 17.4559L23.1744 17.6058Z" fill="black"/>
<path d="M21.841 10.6767L22.9443 9.55799C23.2076 9.28593 23.5098 9.0583 23.8424 8.87508C23.9284 8.82788 24.0171 8.78347 24.103 8.7446C24.1806 8.70851 24.2638 8.6752 24.3442 8.64466C25.7635 8.11444 27.3602 8.45589 28.4385 9.5219L28.7046 9.78563C30.232 11.2958 30.2486 13.7609 28.7434 15.2933L26.4343 17.6391C26.3983 17.5753 26.365 17.5114 26.3262 17.4503C26.2929 17.3865 26.2569 17.3254 26.2153 17.2643C25.9021 16.7535 25.5278 16.2816 25.1009 15.8597L24.9928 15.7542L26.9582 13.7582C27.6152 13.0891 27.6069 12.0148 26.9416 11.3569L26.8307 11.2514C26.1654 10.5935 25.0926 10.599 24.4356 11.268L23.3296 12.3896C23.1466 12.0093 22.911 11.6595 22.6283 11.3486L22.4841 11.1986C22.4342 11.1487 22.3843 11.1015 22.3317 11.0571L22.1764 10.921C22.1238 10.8766 22.0655 10.835 22.0101 10.7933C21.9574 10.7489 21.8992 10.7128 21.841 10.6767Z" fill="white"/>
<path d="M26.4148 17.8112L26.3483 17.6835C26.3178 17.6225 26.2818 17.5614 26.2458 17.5003C26.2069 17.4392 26.1765 17.3782 26.1404 17.3199C25.8299 16.8146 25.4585 16.3482 25.0399 15.9318L24.8597 15.7514L26.8972 13.6832C27.5126 13.0558 27.507 12.0481 26.8833 11.4291L26.7752 11.3236C26.4786 11.0265 26.0767 10.8627 25.6581 10.8627C25.2367 10.8655 24.832 11.0349 24.5354 11.3374L23.3268 12.5645L23.263 12.4312C23.0856 12.0648 22.8528 11.7233 22.5783 11.4235C22.534 11.3735 22.4841 11.3263 22.437 11.2764C22.3898 11.2264 22.3427 11.1848 22.2928 11.1431C22.2429 11.1015 22.1902 11.0487 22.1376 11.0071C22.0849 10.9627 22.0322 10.9238 21.974 10.8849C21.9186 10.8461 21.8659 10.8072 21.8105 10.7684L21.6996 10.699L22.8916 9.48859C23.1632 9.21098 23.4737 8.97502 23.8147 8.78624C23.9034 8.73627 23.9921 8.69186 24.0863 8.65299H24.1002C24.175 8.6169 24.2526 8.58637 24.3303 8.55583C24.771 8.39204 25.234 8.30598 25.7052 8.30321H25.7357C26.7863 8.30043 27.7953 8.71407 28.541 9.45528L28.8099 9.719C30.3789 11.2736 30.3927 13.8054 28.8459 15.3766L26.4148 17.8112ZM25.148 15.7486L25.1813 15.7847C25.6137 16.2122 25.9935 16.6897 26.3123 17.2088C26.3511 17.2699 26.3899 17.3337 26.4259 17.3976L26.4647 17.4642L28.6768 15.2184C30.1405 13.7276 30.1239 11.3291 28.638 9.86058L28.3691 9.59685C27.6623 8.89451 26.7087 8.50031 25.7135 8.50586H25.6858C25.2423 8.50864 24.8015 8.58914 24.3857 8.74183C24.3081 8.77236 24.2305 8.8029 24.1556 8.83899H24.1362C24.0558 8.8723 23.9754 8.91394 23.9006 8.95836C23.5763 9.13603 23.2824 9.36089 23.0246 9.62184L22.0101 10.6629L22.0794 10.7156C22.1376 10.7572 22.1958 10.8017 22.2485 10.8461C22.3011 10.8905 22.3593 10.9405 22.412 10.9877C22.4647 11.0349 22.5146 11.0765 22.5645 11.1292C22.6171 11.182 22.667 11.232 22.7142 11.2847C22.972 11.5623 23.1909 11.876 23.3656 12.2119L24.3718 11.1931C24.7073 10.8516 25.1619 10.6573 25.6387 10.6573H25.6525C26.1266 10.6573 26.5812 10.8433 26.9166 11.1764L27.0219 11.2791C27.7316 11.9787 27.7399 13.1197 27.0413 13.8276L25.148 15.7486Z" fill="black"/>
<path d="M23.4959 15.7431C23.4848 15.7653 23.4765 15.7875 23.4682 15.8125L23.5292 15.6487L23.4959 15.7431Z" fill="white"/>
<path d="M23.4099 15.9568C23.4044 15.9679 23.3989 15.979 23.3933 15.9901C23.3933 15.9846 23.3933 15.9762 23.3933 15.9707C23.4072 15.9485 23.4127 15.9263 23.4238 15.9013C23.4238 15.9013 23.4238 15.918 23.4238 15.9263L23.4099 15.9568Z" fill="white"/>
<path d="M23.2464 16.2872C23.2215 16.3371 23.1937 16.3816 23.166 16.426C23.2076 16.3538 23.2492 16.2788 23.2908 16.1983C23.2963 16.19 23.3018 16.1817 23.3046 16.1706L23.2769 16.2289C23.2686 16.2511 23.2603 16.2705 23.2464 16.2872Z" fill="white"/>
<path d="M23.1577 16.4426V16.4565L23.1771 16.426L23.1577 16.4426Z" fill="white"/>
<path d="M23.0967 16.5426C23.0912 16.5509 23.0856 16.5564 23.0801 16.5648C23.0884 16.5509 23.0967 16.537 23.105 16.5259V16.512L23.1383 16.4565C23.13 16.487 23.1161 16.5176 23.0967 16.5426Z" fill="white"/>
<path d="M23.0718 16.5814C23.0607 16.6009 23.0468 16.6203 23.033 16.637L23.0718 16.5814Z" fill="white"/>
<path d="M22.6726 17.1089L22.692 17.0867L22.8999 17.2949L23.0468 17.4392L23.1938 17.5864L23.1716 17.6086L23.0247 17.4614L22.6726 17.1089Z" fill="white"/>
<path d="M23.1744 17.6058L23.1966 17.5836L23.0496 17.4365L22.9027 17.2921L22.6948 17.0839L22.6754 17.1061L23.0275 17.4559L23.1744 17.6058Z" fill="black"/>
<path d="M23.3379 12.384L24.4439 11.2625C25.1009 10.5962 26.1737 10.5879 26.839 11.2458L26.9499 11.3513C27.6152 12.012 27.6235 13.0836 26.9665 13.7526L25.0011 15.7486L24.8542 15.6043L24.7073 15.4599L23.7565 14.5244C23.7648 14.4244 23.7676 14.3245 23.7676 14.2246C23.7648 13.7387 23.6816 13.2585 23.5153 12.8032C23.4904 12.731 23.4626 12.6589 23.4321 12.595C23.3961 12.5284 23.3684 12.459 23.3379 12.384Z" fill="white"/>
<path d="M23.4959 15.7431C23.4848 15.7653 23.4765 15.7875 23.4682 15.8125L23.5292 15.6487L23.4959 15.7431Z" fill="white"/>
<path d="M23.4099 15.9568C23.4044 15.9679 23.3989 15.979 23.3933 15.9901C23.3933 15.9846 23.3933 15.9762 23.3933 15.9707C23.4072 15.9485 23.4127 15.9263 23.4238 15.9013L23.4543 15.8319V15.818C23.4404 15.8541 23.4238 15.893 23.4099 15.9291V15.9568Z" fill="white"/>
<path d="M23.2464 16.2872C23.2215 16.3371 23.1937 16.3816 23.166 16.426C23.2076 16.3538 23.2492 16.2788 23.2908 16.1983L23.2464 16.2872Z" fill="white"/>
<path d="M23.0967 16.5426C23.0912 16.5509 23.0856 16.5564 23.0801 16.5648C23.0884 16.5509 23.0967 16.537 23.105 16.5259V16.512L23.1383 16.4565C23.13 16.487 23.1161 16.5176 23.0967 16.5426Z" fill="white"/>
<path d="M23.1577 16.4426V16.4565L23.1771 16.426L23.1577 16.4426Z" fill="white"/>
<path d="M23.0718 16.5814C23.0607 16.6009 23.0468 16.6203 23.033 16.637L23.0718 16.5814Z" fill="white"/>
<path d="M22.6726 17.1089L22.692 17.0867L22.8999 17.2949L23.0468 17.4392L23.0247 17.4614L22.6726 17.1089Z" fill="white"/>
<path d="M23.0275 17.4559L23.1744 17.603L23.1966 17.5808L23.0496 17.4337L22.9027 17.2893L22.6948 17.0811L22.6754 17.1033L23.0275 17.4559Z" fill="black"/>
<path d="M23.0275 17.4559L23.1744 17.603L23.1966 17.5808L23.0496 17.4337L22.9027 17.2893L22.6948 17.0811L22.6754 17.1033L23.0275 17.4559ZM23.0718 16.5787L23.0912 16.5481C23.1106 16.5204 23.1245 16.4926 23.1411 16.4621L23.1079 16.5176V16.5315C23.0995 16.5453 23.0912 16.5564 23.0829 16.5703V16.5842L23.0441 16.6397C23.0275 16.6647 23.0136 16.6925 22.9942 16.7175C23.0191 16.6841 23.0386 16.6481 23.0635 16.6147L23.0718 16.5787ZM23.1661 16.426L23.1467 16.4565V16.4426L23.1661 16.426ZM23.2797 16.2289C23.2936 16.2011 23.3074 16.1733 23.3185 16.1484C23.3546 16.079 23.3851 16.0096 23.4156 15.9402V15.9291L23.4405 15.868C23.4571 15.8291 23.4738 15.7903 23.4876 15.7486L23.5209 15.6542L23.4599 15.818V15.8319L23.4294 15.9013C23.4294 15.9235 23.41 15.9457 23.3989 15.9707C23.3989 15.9762 23.3989 15.9846 23.3989 15.9901L23.3823 16.0262C23.3823 16.0457 23.3629 16.0679 23.3518 16.0873C23.349 16.1012 23.3435 16.1123 23.3379 16.1234C23.3379 16.1234 23.3379 16.1234 23.3379 16.1345C23.3379 16.14 23.3379 16.1484 23.3379 16.1539C23.3352 16.1622 23.3296 16.1733 23.3241 16.1817C23.2825 16.2594 23.2409 16.3344 23.1993 16.4093C23.2271 16.3649 23.2548 16.3205 23.2797 16.2705C23.2825 16.2539 23.2797 16.2428 23.2797 16.2289ZM23.0275 17.4559L23.1744 17.603L23.1966 17.5808L23.0496 17.4337L22.9027 17.2893L22.6948 17.0811L22.6754 17.1033L23.0275 17.4559ZM23.0718 16.5787L23.0912 16.5481C23.1106 16.5204 23.1245 16.4926 23.1411 16.4621L23.1079 16.5176V16.5315C23.0995 16.5453 23.0912 16.5564 23.0829 16.5703V16.5842L23.0441 16.6397C23.0275 16.6647 23.0136 16.6925 22.9942 16.7175C23.0191 16.6841 23.0386 16.6481 23.0635 16.6147L23.0718 16.5787ZM23.1661 16.426L23.1467 16.4565V16.4426L23.1661 16.426ZM23.2797 16.2289C23.2936 16.2011 23.3074 16.1733 23.3185 16.1484C23.3546 16.079 23.3851 16.0096 23.4156 15.9402V15.9291L23.4405 15.868C23.4571 15.8291 23.4738 15.7903 23.4876 15.7486L23.5209 15.6542L23.4599 15.818V15.8319L23.4294 15.9013C23.4294 15.9235 23.41 15.9457 23.3989 15.9707C23.3989 15.9762 23.3989 15.9846 23.3989 15.9901L23.3823 16.0262C23.3823 16.0457 23.3629 16.0679 23.3518 16.0873C23.349 16.1012 23.3435 16.1123 23.3379 16.1234C23.3379 16.1234 23.3379 16.1234 23.3379 16.1345C23.3379 16.14 23.3379 16.1484 23.3379 16.1539C23.3352 16.1622 23.3296 16.1733 23.3241 16.1817C23.2825 16.2594 23.2409 16.3344 23.1993 16.4093C23.2271 16.3649 23.2548 16.3205 23.2797 16.2705C23.2825 16.2539 23.2797 16.2428 23.2797 16.2289Z" fill="white"/>
<path d="M22.4453 25.4204L22.5895 25.2733L22.7308 25.1262L23.1466 24.7097C24.5826 23.2495 25.0011 21.0648 24.2056 19.1771C23.9589 18.5969 23.6068 18.0666 23.166 17.6169L23.0191 17.4698L22.6671 17.12L22.6865 17.0978C22.7336 17.045 22.7752 16.9923 22.8195 16.9368C22.8306 16.9257 22.8389 16.9146 22.8473 16.9007C22.8916 16.8452 22.936 16.7869 22.9748 16.7286C22.9942 16.7036 23.008 16.6758 23.0247 16.6508L23.0635 16.5953V16.5814C23.0718 16.5676 23.0801 16.5537 23.0884 16.5426V16.5287L23.1217 16.4732L23.1411 16.4426C23.1855 16.3705 23.227 16.2955 23.2658 16.215C23.2714 16.2067 23.2769 16.1983 23.2797 16.1872C23.2797 16.1817 23.2797 16.1734 23.2797 16.1678C23.2797 16.1678 23.2797 16.1678 23.2797 16.1567C23.288 16.1456 23.2936 16.1317 23.2936 16.1206C23.3046 16.1012 23.313 16.0817 23.3241 16.0595L23.3407 16.0234C23.3407 16.0179 23.3407 16.0096 23.3407 16.004C23.3545 15.9818 23.3601 15.9596 23.3712 15.9346L23.4017 15.8652V15.8513C23.41 15.8291 23.4183 15.8041 23.4294 15.7819L23.4627 15.6875C23.4821 15.6265 23.5015 15.5682 23.5181 15.5099C23.5347 15.4488 23.5514 15.3988 23.5652 15.3433L23.5902 15.2434C23.6013 15.1878 23.6123 15.1351 23.6234 15.0796C23.6401 14.9963 23.6539 14.913 23.6622 14.827C23.6761 14.7381 23.6844 14.6493 23.6872 14.5577L24.638 15.4932L24.7849 15.6376L24.9318 15.7819L25.04 15.8874C25.4668 16.3094 25.8411 16.7813 26.1543 17.2921C26.1959 17.3504 26.2319 17.4143 26.2652 17.4781C26.304 17.5392 26.3373 17.603 26.3733 17.6669C26.7198 18.3137 26.9693 19.0105 27.1079 19.7323C27.1245 19.8155 27.1384 19.9016 27.1523 19.9849C27.1633 20.0709 27.18 20.157 27.1883 20.2431C27.2243 20.5318 27.2437 20.826 27.2465 21.1175C27.2659 23.0857 26.4981 24.9818 25.1148 26.3782L24.2638 27.2748L22.4453 25.4204Z" fill="white"/>
<path d="M24.2582 27.4331L22.2984 25.4204L23.0773 24.6292C24.4855 23.2023 24.8958 21.0648 24.1169 19.2159V19.1937C23.8757 18.6329 23.5347 18.1221 23.1106 17.6863L22.5479 17.1255L22.6283 17.0228C22.6726 16.9701 22.717 16.9201 22.7558 16.8674L22.7724 16.8479L22.9083 16.6647L22.9415 16.612L23.0053 16.5204C23.0108 16.5065 23.0191 16.4954 23.0247 16.4843L23.069 16.4121L23.1688 16.4482L23.0884 16.3843C23.13 16.3122 23.1716 16.24 23.2076 16.165V16.1428L23.2326 16.1123L23.2714 16.029V16.0151L23.2853 15.9874L23.3047 15.9513C23.3047 15.9513 23.3047 15.9402 23.3185 15.9207L23.3324 15.8902L23.3629 15.818L23.385 15.7736C23.3906 15.7514 23.3989 15.732 23.41 15.7125L23.4377 15.6292C23.4571 15.5709 23.4765 15.5126 23.4959 15.4543C23.5153 15.3961 23.5264 15.3461 23.5403 15.2906L23.5625 15.1851C23.5625 15.1351 23.5846 15.0824 23.5957 15.0296C23.6124 14.9491 23.6234 14.8686 23.6318 14.7853C23.6456 14.6993 23.6539 14.6104 23.6567 14.5244L23.6678 14.2884L25.1869 15.7903C25.6193 16.2178 25.9991 16.6952 26.3179 17.2144C26.3567 17.2754 26.3955 17.3393 26.4315 17.4031C26.4676 17.467 26.5036 17.5281 26.5396 17.5919C26.8917 18.2498 27.1439 18.955 27.2853 19.6878C27.302 19.7711 27.3186 19.86 27.3297 19.9488C27.3408 20.0376 27.3602 20.1209 27.3685 20.2097C27.4073 20.5012 27.4267 20.7983 27.4267 21.0925C27.4461 23.0885 26.6672 25.0096 25.2645 26.4281L24.2582 27.4331ZM22.595 25.4204L24.2582 27.136L25.1037 26.2782C26.6727 24.682 27.4295 22.4528 27.1523 20.2292C27.1523 20.1459 27.1301 20.0598 27.1135 19.9766C27.0968 19.8933 27.0885 19.8072 27.0719 19.7239C26.9333 19.0133 26.6893 18.3248 26.3456 17.6863C26.3123 17.6252 26.2763 17.5642 26.2403 17.5031C26.2015 17.442 26.171 17.3809 26.1349 17.3226C25.8245 16.8174 25.453 16.351 25.0344 15.9346L24.6325 15.5349L23.8452 14.752V14.8075C23.8452 14.888 23.823 14.9769 23.8064 15.0601C23.7898 15.1462 23.7842 15.1712 23.7704 15.2267L23.7482 15.3294C23.7316 15.3905 23.7177 15.4488 23.6983 15.5043C23.6789 15.5598 23.6595 15.6237 23.6401 15.682L23.6096 15.7736C23.5957 15.8041 23.5902 15.8208 23.5819 15.8402V15.8652L23.5514 15.9013L23.5292 15.9624C23.5292 15.9818 23.5126 15.9985 23.5015 16.0179L23.4821 16.0623L23.4682 16.0928C23.4627 16.1067 23.4571 16.1178 23.4516 16.1289C23.446 16.1428 23.4405 16.1539 23.4349 16.165L23.4155 16.2011V16.2178C23.4155 16.2289 23.4017 16.2455 23.3906 16.2594C23.3546 16.3344 23.3157 16.4065 23.2714 16.4787L23.2298 16.5481L23.13 16.512L23.2159 16.5731L23.2021 16.5925L23.1882 16.612L23.1189 16.7147C23.1078 16.7369 23.094 16.7563 23.0801 16.7758C23.0385 16.8341 22.9942 16.8896 22.9526 16.9479C22.9443 16.9645 22.9304 16.9812 22.9166 16.9923L22.8279 17.1006L23.2603 17.5281C23.7094 17.9889 24.067 18.5302 24.3192 19.1215V19.141C25.1231 21.062 24.6935 23.2801 23.2326 24.7625L22.595 25.4204Z" fill="black"/>
<path d="M23.6345 43.6064H21.8549V41.3994H15.4237C14.3759 41.3994 13.5248 40.5472 13.5248 39.4978V33.9152C13.5248 32.8658 14.3759 32.0136 15.4237 32.0136H21.7329C22.7807 32.0136 23.6317 32.8658 23.6317 33.9152V40.5139H24.9762V33.9485C24.9762 32.8991 25.8272 32.0469 26.875 32.0469H31.1828L34.3873 40.5139H36.1531C36.7075 40.5139 37.1566 40.0642 37.1621 39.5117L37.2148 33.9624C37.2203 33.4016 36.7685 32.9436 36.2113 32.9408C36.2085 32.9408 36.2058 32.9408 36.203 32.9408H32.0671V31.2168H32.9569V32.0497H37.0956C38.1462 32.0497 38.9972 32.9047 38.9972 33.9568C38.9972 33.9624 38.9972 33.9679 38.9972 33.9707L38.9446 39.52C38.9307 40.5638 38.0852 41.4022 37.0429 41.405H32.8849L29.6804 32.938H27.7676C27.2105 32.938 26.7586 33.3905 26.7586 33.9485V40.5139H31.6014V41.3994H23.6345V43.6064ZM16.3135 32.9019C15.7563 32.9019 15.3045 33.3544 15.3045 33.9124V39.5006C15.3045 40.0586 15.7563 40.5111 16.3135 40.5111H21.8549V33.9124C21.8549 33.3544 21.403 32.9019 20.8458 32.9019H16.3135Z" fill="black"/>
<path d="M1.77966 43.2844H0V41.1496C0 40.797 0.285521 40.5139 0.6348 40.5139H2.63345V33.9485C2.63345 32.8964 3.48447 32.0469 4.53231 32.0469H10.7694C11.82 32.0469 12.671 32.8991 12.671 33.9485V39.5006C12.671 40.5527 11.8173 41.4022 10.7694 41.4022H2.15111C1.95152 41.4022 1.79075 41.5605 1.79075 41.7603C1.79075 41.7603 1.79075 41.7603 1.79075 41.7631L1.77966 43.2844ZM4.41311 40.5139H9.87128C10.4285 40.5139 10.8831 40.0614 10.8831 39.5034V33.9513C10.8831 33.3933 10.4285 32.9408 9.87128 32.9408H5.42491C4.86772 32.9408 4.41311 33.3933 4.41311 33.9513V40.5139Z" fill="black"/>
<path d="M7.22674 46.4075H5.44708V53.9139H7.22674V46.4075Z" fill="#B89169"/>
<path d="M1.77966 46.4075H0V53.9139H1.77966V46.4075Z" fill="#B89169"/>
<path d="M6.7804 49.8109H2.37561V50.702H6.7804V49.8109Z" fill="#B89169"/>
<path d="M11.9919 54C9.62736 54 7.70355 52.1622 7.70355 49.9053C7.70355 47.6484 9.62736 45.8106 11.9919 45.8106C14.3565 45.8106 16.2831 47.6456 16.2831 49.9053C16.2831 52.1622 14.362 54 11.9919 54ZM11.9919 46.699C10.1208 46.699 8.59338 48.1342 8.59338 49.9025C8.59338 51.6709 10.118 53.1061 11.9919 53.1061C13.8658 53.1061 15.3932 51.6681 15.3932 49.9025C15.3932 48.137 13.8631 46.699 11.9919 46.699Z" fill="#B89169"/>
<path d="M21.3254 54C18.9609 54 17.037 52.1622 17.037 49.9053C17.037 47.6484 18.9609 45.8106 21.3254 45.8106C23.69 45.8106 25.6166 47.6456 25.6166 49.9053C25.6166 52.1622 23.69 54 21.3254 54ZM21.3254 46.699C19.4543 46.699 17.9269 48.1342 17.9269 49.9025C17.9269 51.6709 19.4515 53.1061 21.3254 53.1061C23.1993 53.1061 24.7267 51.6681 24.7267 49.9025C24.7267 48.137 23.1993 46.699 21.3254 46.699Z" fill="#B89169"/>
<path d="M26.9915 47.4485H26.1016V53.9556H26.9915V47.4485Z" fill="#B89169"/>
<path d="M38.9778 46.2548H37.1982V53.9556H38.9778V46.2548Z" fill="#B89169"/>
<path d="M32.616 54L26.1404 46.227H28.1724L32.932 52.1484L37.5308 46.2548L38.2543 46.7767L32.616 54Z" fill="#B89169"/>
</g>
<defs>
<clipPath id="clip0_217_634">
<rect width="39" height="54" fill="white"/>
</clipPath>
</defs>
</svg>
