<svg width="46" height="17" viewBox="0 0 46 17" fill="none" xmlns="http://www.w3.org/2000/svg">
<g clip-path="url(#clip0_217_623)">
<path d="M42.7895 0.0759902L42.7788 9.73483L40.6553 9.73212L40.6714 0.0705624L42.7895 0.0759902Z" fill="#283764"/>
<path d="M39.7926 3.6068V10.0062L37.8748 11.9657L37.6691 12.1774L35.8235 14.0771C33.4944 13.4855 31.857 11.3605 31.8517 8.92066V0H33.9511V8.70083V8.90437C33.9511 10.6549 35.3454 12.0715 37.0682 12.0715H37.0708C37.2658 12.0715 37.4608 12.0525 37.6504 12.0145V5.73451L39.7926 3.6068Z" fill="#283764"/>
<path d="M30.9436 3.59052V10.0904L28.975 12.1014L28.8174 12.2642L26.8836 14.2427H23.438C20.5454 14.2427 18.2002 11.8598 18.2002 8.92066C18.2002 5.98148 20.5454 3.59866 23.438 3.59866H24.6827V5.72909H23.6357H23.4354C21.7126 5.7318 20.3183 7.15118 20.3183 8.90166C20.321 10.6494 21.7152 12.0661 23.4354 12.0688H23.5021H28.8148V5.70195L30.9436 3.59052Z" fill="#283764"/>
<path d="M44.4642 11.0728L44.3253 11.2166L40.7408 14.837L39.2584 13.3199L42.8322 9.70498L42.9657 9.553C44.1784 8.3236 44.1864 6.32886 42.9818 5.0886L44.4775 3.56338C46.5102 5.64224 46.5048 9.00208 44.4642 11.0728Z" fill="#283764"/>
<path d="M24.5838 7.21308L23.1296 8.69072L24.5838 10.1684L26.0381 8.69072L24.5838 7.21308Z" fill="#283764"/>
<path d="M35.8252 14.0437L34.3709 15.5214L35.8252 16.999L37.2795 15.5214L35.8252 14.0437Z" fill="#283764"/>
<path d="M38.7238 14.0451L37.2695 15.5228L38.7238 17.0004L40.178 15.5228L38.7238 14.0451Z" fill="#283764"/>
<path d="M9.14017 0.0542784L7.10754 2.12229H11.9153V12.1801H2.0353V7.29502L0 9.36031V14.2454H13.9667V0.0542784H9.14017Z" fill="#283764"/>
<path d="M6.27685 0.0569925L4.24155 2.12229H2.0353V4.3667L0.00267029 6.43199V0.0569925H6.27685Z" fill="#FFCB05"/>
</g>
<defs>
<clipPath id="clip0_217_623">
<rect width="46" height="17" fill="white"/>
</clipPath>
</defs>
</svg>
