<svg width="66" height="15" viewBox="0 0 66 15" fill="none" xmlns="http://www.w3.org/2000/svg">
<g clip-path="url(#clip0_217_740)">
<path d="M61.3346 13.6744H56.7408C56.2616 13.6702 55.8745 13.2708 55.8786 12.7816C55.8786 12.6708 55.9011 12.562 55.9401 12.4596L59.7473 2.92724C59.8805 2.59688 60.1959 2.38152 60.5461 2.37943H65.1398C65.6191 2.38361 66.0041 2.78506 66 3.27432C65.998 3.38305 65.9775 3.49178 65.9386 3.59214L62.1333 13.1328C61.9981 13.4611 61.6827 13.6744 61.3346 13.6744Z" fill="#F5C40A"/>
<path d="M57.175 9.20825C59.0244 9.20825 60.5235 7.67769 60.5235 5.78966C60.5235 3.90162 59.0244 2.37106 57.175 2.37106C55.3257 2.37106 53.8265 3.90162 53.8265 5.78966C53.8265 7.67769 55.3257 9.20825 57.175 9.20825Z" fill="#0A33FF"/>
<path d="M60.4601 5.78966C60.4601 7.65263 58.9978 9.1748 57.173 9.20825L59.4954 3.38932C60.1139 4.02913 60.4601 4.89267 60.4601 5.78966Z" fill="#061E96"/>
<path d="M45.8944 13.8542C45.3066 13.8291 44.8479 13.3231 44.8725 12.723C44.895 12.1564 45.3394 11.7027 45.8944 11.6797C46.8816 11.6797 47.6824 10.8621 47.6844 9.85224V5.62657C47.6844 5.02439 48.1616 4.53722 48.7514 4.53722C49.3392 4.53722 49.8164 5.02439 49.8185 5.62657V9.85224C49.8144 12.0623 48.0592 13.8521 45.8944 13.8542Z" fill="black"/>
<path d="M41.5157 13.8542C40.9279 13.8793 40.4303 13.4109 40.4077 12.8108C40.3832 12.2108 40.8419 11.7027 41.4297 11.6797C41.4584 11.6776 41.4871 11.6776 41.5157 11.6797C42.5029 11.6776 43.3037 10.8601 43.3057 9.85224V5.62657C43.3303 5.02648 43.8259 4.55813 44.4137 4.58322C44.9687 4.60622 45.4131 5.05994 45.4357 5.62657V9.85224C45.4336 12.0602 43.6805 13.8521 41.5157 13.8542Z" fill="black"/>
<path d="M40.9279 5.78966V7.01491C40.9259 8.90926 39.4226 10.444 37.5671 10.4461H31.1404C30.6898 10.4461 30.2433 10.3561 29.8276 10.1784C29.5491 12.1585 27.7038 13.689 25.4735 13.689C23.0445 13.689 21.0804 11.8825 21.0804 9.66406V5.78966C21.0804 5.18748 21.5576 4.70031 22.1475 4.70031C22.7373 4.70031 23.2145 5.18748 23.2145 5.78966V9.66406C23.2145 10.6865 24.2262 11.5166 25.4735 11.5166C26.7207 11.5166 27.7325 10.6844 27.7325 9.66406V5.78966C27.7079 5.18957 28.1666 4.68149 28.7544 4.65849C29.3422 4.6334 29.8399 5.10176 29.8624 5.70184C29.8645 5.73111 29.8645 5.76038 29.8624 5.78966V6.96682C29.8624 7.68609 30.4338 8.26944 31.1383 8.26944H37.5651C38.243 8.26944 38.7939 7.707 38.7939 7.01491V5.78966C38.7693 5.18957 39.2281 4.68149 39.8159 4.65849C40.4036 4.6334 40.9013 5.10176 40.9239 5.70184C40.9259 5.73111 40.9259 5.76038 40.9239 5.78966H40.9279Z" fill="black"/>
<path d="M4.39295 13.6911C1.97012 13.6911 -8.68263e-05 11.8846 -8.68263e-05 9.66615V5.78966C-0.0246633 5.18957 0.434097 4.68149 1.02188 4.65849C1.60967 4.6334 2.10734 5.10176 2.12987 5.70184C2.13192 5.73111 2.13192 5.76038 2.12987 5.78966V9.66406C2.12987 10.6865 3.14365 11.5166 4.38885 11.5166C5.63406 11.5166 6.66013 10.6823 6.66013 9.66406V1.13953C6.6847 0.539447 7.18033 0.071089 7.76811 0.0961796C8.32313 0.119179 8.76755 0.572901 8.79008 1.13953V9.66615C8.78599 11.8846 6.81578 13.6911 4.39295 13.6911Z" fill="black"/>
<path d="M38.9782 13.528H35.1566C34.5688 13.5531 34.0711 13.0847 34.0486 12.4847C34.024 11.8846 34.4828 11.3765 35.0706 11.3535C35.0992 11.3514 35.1279 11.3514 35.1566 11.3535H38.9782C39.566 11.3284 40.0637 11.7968 40.0862 12.3968C40.1108 12.9969 39.652 13.505 39.0642 13.528C39.0356 13.528 39.0069 13.528 38.9782 13.528Z" fill="black"/>
<path d="M17.8589 15C17.269 15 16.7918 14.5128 16.7918 13.9106V13.528H14.0454C13.4576 13.5029 12.9989 12.9969 13.0235 12.3968C13.046 11.8302 13.4904 11.3765 14.0454 11.3535H18.9259V13.9127C18.9259 14.5128 18.4487 15 17.8589 15Z" fill="black"/>
<path d="M16.3085 10.2851H13.6665C11.7025 10.2851 10.0415 8.68971 10.0415 6.78283V1.04544C10.0661 0.445357 10.5617 -0.0230005 11.1495 0.00209012C11.7045 0.0250898 12.1489 0.478812 12.1715 1.04544V6.78283C12.1715 7.46445 12.8985 8.10845 13.6645 8.10845H16.3065C17.0888 8.10845 17.7217 7.46027 17.7217 6.66365V5.62657C17.7462 5.02648 18.2419 4.55813 18.8296 4.58322C19.3847 4.60622 19.8291 5.05994 19.8516 5.62657V6.66365C19.8537 8.66253 18.2664 10.283 16.3085 10.2851Z" fill="black"/>
<path d="M25.4653 1.13953C24.7935 1.13326 24.2446 1.68525 24.2385 2.37106C24.2324 3.05687 24.773 3.61723 25.4448 3.6235C26.1166 3.62977 26.6654 3.07778 26.6716 2.39197C26.6716 2.38779 26.6716 2.3857 26.6716 2.38152C26.6757 1.69989 26.1391 1.1458 25.4735 1.13953C25.4714 1.13953 25.4673 1.13953 25.4653 1.13953Z" fill="black"/>
<path d="M48.7514 1.13953C48.0797 1.13535 47.5308 1.68734 47.5267 2.37106C47.5226 3.05687 48.0633 3.61723 48.733 3.62141C49.4048 3.62559 49.9536 3.0736 49.9577 2.38988C49.9577 2.38779 49.9577 2.38361 49.9577 2.38152C49.9618 1.69989 49.4252 1.1458 48.7596 1.13953C48.7576 1.13953 48.7535 1.13953 48.7514 1.13953Z" fill="black"/>
</g>
<defs>
<clipPath id="clip0_217_740">
<rect width="66" height="15" fill="white"/>
</clipPath>
</defs>
</svg>
