<svg width="207" height="168" viewBox="0 0 207 168" fill="none" xmlns="http://www.w3.org/2000/svg">
<g clip-path="url(#clip0_283_383)">
<path d="M161.207 9.91065C161.074 9.7696 160.937 9.6327 160.805 9.49165C160.402 8.78641 159.862 8.21393 159.135 7.83227C159.01 7.73271 158.811 7.52114 158.77 7.55018C158.429 7.77004 158.728 7.91524 158.865 8.07703C159.422 8.64122 159.982 9.20541 160.539 9.76545C160.672 9.8982 160.805 10.031 160.942 10.1679C161.087 10.3089 161.232 10.4499 161.378 10.5868C162.063 11.4041 162.752 12.2213 163.442 13.0386C163.637 13.2709 163.832 13.4991 164.027 13.7314C164.301 14.2292 164.488 14.81 165.211 14.9759C165.215 14.2458 164.708 13.8849 164.322 13.4617C164.123 13.2419 163.919 13.0261 163.72 12.8063C163.197 11.8314 162.532 10.9768 161.614 10.3379C161.477 10.1969 161.344 10.0558 161.207 9.91065ZM158.479 11.3751C158.334 11.2506 158.184 11.1261 158.039 11.0017C157.482 10.1679 156.685 9.64515 155.788 9.24689C156.228 10.1637 157.021 10.6989 157.806 11.2464C157.943 11.3833 158.08 11.5244 158.217 11.6613C158.359 11.794 158.5 11.9309 158.645 12.0637C159.102 12.7109 159.563 13.358 160.294 13.7355C160.456 14.167 160.755 14.4408 161.403 14.6191C161.099 14.0964 160.962 13.6857 160.485 13.5157C160.136 12.7772 159.55 12.2587 158.907 11.7982C158.757 11.6571 158.616 11.5119 158.479 11.3751ZM18.3472 136.447L18.3347 136.443C19.2068 139.06 21.8812 140.143 23.3222 142.271C23.5839 142.541 23.8413 142.806 24.103 143.076C24.7093 143.765 25.1744 144.632 26.2375 144.727C26.3704 145.034 26.4161 145.445 26.6486 145.632C28.9451 147.482 31.1627 149.461 33.617 151.083C37.014 153.323 40.087 156.724 44.896 155.057C45.3777 155.364 45.3362 155.841 45.3071 156.31C44.8877 156.463 44.1692 156.339 44.4932 157.185C44.2606 157.314 44.028 157.546 43.7913 157.55C41.5114 157.596 39.2191 157.484 36.9475 157.637C29.6137 158.127 22.2799 158.683 14.9544 159.259C10.7102 159.591 6.49097 160.164 2.31741 160.985C1.46194 161.155 -0.0579831 161.184 0.000155931 162.213C0.058295 163.179 1.52423 163.391 2.49183 163.719C2.62057 163.764 2.76176 163.773 2.8988 163.793C13.2808 165.602 23.7998 165.996 34.2814 166.631C41.3578 167.058 48.4591 167.187 55.5479 167.49C62.2297 167.776 68.9365 167.834 75.6225 167.863C97.9437 167.95 120.265 168.249 142.59 167.61C149.829 167.403 157.071 167.05 164.322 167.021C167.258 167.008 170.24 166.88 173.192 166.677C180.46 166.183 187.723 165.669 194.978 165.021C198.25 164.727 201.548 164.387 204.716 163.441C205.567 163.184 207.075 163.279 207.004 162.151C206.934 160.952 205.443 161.105 204.479 160.91C195.293 159.043 185.933 158.753 176.631 158.069C169.01 157.509 161.353 157.446 153.712 157.272C152.507 157.243 153.014 156.583 152.902 156.09C153.047 155.999 153.192 155.907 153.338 155.816C154.114 155.891 154.854 155.849 155.393 155.165C155.53 155.111 155.668 155.057 155.8 155.007C156.544 154.016 156.814 150.601 156.212 149.838C155.933 149.485 155.547 149.32 155.123 149.349C153.018 149.49 152.794 148.021 152.769 146.515C152.74 144.673 154.226 145.067 155.323 144.951C157.707 144.706 158.242 144.167 158.234 141.96C158.221 137.936 158.221 137.936 154.106 137.72C153.695 137.7 153.284 137.642 152.873 137.6C152.395 136.563 152.702 135.924 153.849 135.762C155.09 135.588 156.56 135.389 157.478 134.958C161.249 133.178 165.418 132.448 168.994 130.112C175.439 125.901 181.411 121.276 185.734 114.775C189.92 108.478 191.452 101.616 190.156 94.1948C188.865 86.8064 185.252 80.4178 181.008 74.3776C177.283 69.0801 173.288 63.9526 171.394 57.6096C171.34 57.4271 170.954 57.3441 170.726 57.2113C170.887 56.9624 171.049 56.7177 171.211 56.4688C171.361 56.1742 171.548 55.8921 171.652 55.581C172.652 52.5651 173.558 49.5408 171.967 46.4295L171.988 46.4502C171.942 46.3175 171.897 46.1847 171.855 46.052C171.76 43.8118 170.883 41.9035 169.38 40.2607C169.75 39.4311 168.794 39.1863 168.645 38.5889C168.902 38.0745 169.015 37.6763 168.5 37.1328C167.839 36.44 167.32 35.5357 167.428 34.5193C167.831 30.7152 165.921 27.5084 164.359 24.4053C160.377 16.4942 153.45 11.4954 145.634 7.97332C135.46 3.39342 124.567 1.16985 113.467 0.485355C103.409 -0.132765 93.3798 0.618106 83.4546 2.56788C71.2579 4.96154 59.8543 9.51654 49.0238 15.453C42.1967 19.1949 35.9758 23.9407 30.3612 29.342C21.8688 37.5062 15.3655 46.9895 12.1844 58.4932C10.9926 62.7993 9.88795 67.1469 9.68862 71.6065C9.32317 79.6918 10.0665 87.5905 12.8115 95.3688C16.2002 104.964 21.5822 113.166 28.6876 120.28C30.0497 121.645 31.0838 123.682 33.372 123.968C34.2731 129.034 38.5837 130.311 42.6742 131.85C42.3918 132.145 42.3545 132.22 42.3171 132.22C41.4201 132.232 40.5189 132.244 39.6219 132.244C37.1967 132.244 37.1967 132.244 38.347 134.356C38.1228 134.659 37.7906 134.85 37.4542 134.754C35.3736 134.157 33.1976 134.559 31.1046 134.124C30.1619 133.929 29.1943 133.605 29.1071 135.248C29.0365 136.555 28.343 135.713 27.8944 135.385C27.2092 134.879 26.8147 133.784 25.7142 134.095C24.3521 134.48 22.9277 134.099 21.6154 134.431C20.3737 134.746 18.7666 134.124 17.9278 135.659C17.9278 135.762 17.9319 135.862 17.9361 135.966C17.5332 136.596 18.0689 136.405 18.3472 136.447ZM157.81 7.09384C157.935 7.19341 158.134 7.40083 158.172 7.37594C158.504 7.14778 158.201 7.01088 158.068 6.85323C157.781 6.49647 157.565 6.02354 156.934 6.15629C156.909 6.78271 157.424 6.87813 157.81 7.09384ZM152.403 7.10629C152.777 7.47965 153.105 7.96502 153.977 7.65389C153.413 7.30542 153.026 7.06895 152.64 6.83249C149.941 5.00302 146.972 3.95761 143.712 3.72945C146.772 4.45543 149.584 5.78293 152.403 7.10629ZM5.60642 73.4235C5.44446 75.7425 5.27005 78.0573 6.29994 80.285C6.16705 79.6711 6.03001 79.0613 5.89712 78.4473C5.77253 73.0335 6.84811 67.8231 8.58397 62.7163C6.81073 66.0807 5.96356 69.6857 5.60642 73.4235ZM140.19 0.0165799C145.061 0.680333 149.808 1.76723 154.177 4.14429C149.995 1.11177 145.302 -0.161804 140.19 0.0165799ZM8.44693 56.3899C6.04662 59.4722 3.10229 67.4746 3.50096 69.9429C4.68866 65.0104 6.54495 60.7085 8.44693 56.3899ZM3.53833 83.7573C3.42621 85.5453 3.99514 87.0761 5.27005 88.333C4.69281 86.8064 4.11557 85.2839 3.53833 83.7573ZM165.248 15.4986C166.095 16.7224 166.946 17.9421 167.794 19.1659C167.931 19.0663 168.064 18.9667 168.201 18.8672C167.407 17.606 166.693 16.2827 165.248 15.4986ZM155.597 9.15563C155.194 8.36742 154.75 8.06458 154.044 7.92354C154.264 8.67026 154.733 8.91087 155.597 9.15563Z" fill="#FEFEFE"/>
<path d="M33.3554 123.968C31.0672 123.682 30.0332 121.645 28.6711 120.28C21.5656 113.166 16.1836 104.964 12.795 95.3688C10.05 87.5946 9.30246 79.6918 9.67206 71.6065C9.87554 67.1469 10.9802 62.7993 12.1679 58.4932C15.3489 46.9854 21.8522 37.5062 30.3446 29.342C35.9592 23.9407 42.1801 19.1949 49.0073 15.453C59.8378 9.5207 71.2413 4.9657 83.4381 2.56789C93.3591 0.618116 103.392 -0.132755 113.45 0.485365C124.551 1.16986 135.443 3.39343 145.618 7.97333C153.438 11.4912 160.364 16.4943 164.343 24.4054C165.904 27.5084 167.814 30.7152 167.412 34.5193C167.304 35.5357 167.827 36.4442 168.483 37.1328C168.998 37.6763 168.886 38.0745 168.628 38.5889C167.52 37.8422 166.913 36.4981 165.564 36.0418C163.325 34.5691 160.946 33.5112 158.276 32.9927C151.984 31.7772 146.768 33.7684 142.524 38.2985C138.94 42.1276 137.844 46.8236 138.263 52.0299C138.728 57.7755 143.604 64.6246 149.031 66.1388C152.669 67.1552 156.428 67.7982 160.198 66.3048C164.783 64.4877 168.724 61.9862 170.713 57.2072C170.946 57.3358 171.328 57.4229 171.382 57.6054C173.275 63.9484 177.27 69.0759 180.995 74.3735C185.24 80.4178 188.853 86.8023 190.144 94.1907C191.44 101.612 189.907 108.478 185.721 114.771C181.398 121.272 175.427 125.897 168.981 130.108C165.41 132.444 161.236 133.174 157.466 134.953C156.544 135.389 155.078 135.584 153.836 135.758C152.69 135.92 152.383 136.559 152.86 137.596C149.962 137.26 147.055 137.077 144.135 136.936C139.443 136.708 134.829 137.567 130.165 137.646C130.174 136.439 130.182 135.231 130.194 134.024C130.377 132.037 130.377 130.05 130.194 128.063C130.169 126.843 130.149 125.628 130.124 124.408C130.826 123.753 131.693 124.001 132.499 123.997C140.024 123.981 147.545 124.001 155.07 123.981C157.366 123.977 158.251 123.209 158.255 121.156C158.267 114.195 158.234 107.229 158.217 100.268C158.869 98.5134 158.799 96.7544 158.255 94.9913C158.267 93.4896 158.276 91.9878 158.288 90.4861C158.952 87.3831 158.595 84.251 158.467 81.1355C158.429 80.1855 157.715 79.389 156.598 79.2396C150.406 79.2065 144.218 79.1691 138.027 79.1359C137.624 79.1359 137.179 79.0903 136.992 79.5923C135.601 79.6337 134.21 79.6711 132.819 79.7126C131.149 76.5348 129.675 73.3156 130.203 69.5654C130.277 69.0386 130.124 68.4827 130.074 67.9351C130.074 56.9044 130.078 45.8695 130.078 34.8387C130.157 32.1049 128.949 30.7691 126.216 30.7318C122.777 30.6861 119.339 30.7483 115.905 30.7027C115.261 30.6944 114.302 31.159 114.082 29.9767C116.922 26.5335 117.707 22.6049 117.209 18.2117C116.581 12.7109 113.749 8.95236 108.928 6.4467C104.572 4.18164 100.145 4.10282 95.6805 5.87836C91.8807 7.38839 89.1731 10.1139 87.541 13.8766C86.1457 17.0916 85.6307 20.3191 86.5194 23.8453C87.1507 26.3551 88.5169 28.4252 89.605 30.6695C81.8808 30.6861 74.1524 30.6986 66.4282 30.7235C65.6143 30.7276 64.7588 30.5575 64.0238 31.0927C63.8826 31.0678 63.7497 31.0844 63.6251 31.1507C62.4872 31.1756 61.312 30.8106 60.224 31.4328C59.4059 31.5241 58.8494 31.9348 58.6168 32.7396C58.1393 33.0424 58.214 33.5942 58.0355 34.0339C58.0438 41.2854 58.0271 48.5411 58.077 55.7926C58.0853 57.1865 57.5994 57.9954 56.3494 58.7131C52.8611 60.7209 50.8802 63.9111 50.3819 67.8314C49.5638 74.2615 52.2257 79.0073 57.9109 82.0855C57.9109 94.1367 57.9109 106.184 57.9109 118.745C55.2697 115.709 53.4965 112.792 50.7515 110.747C50.6103 110.598 50.4732 110.448 50.332 110.299C47.9982 107.532 45.0165 105.516 42.2382 103.255C40.8263 102.106 40.2657 102.595 40.004 104.143C39.9044 104.728 39.9708 105.404 39.269 105.835C38.9825 104.471 38.6253 103.16 38.4467 101.828C38.3139 100.82 37.7948 100.198 36.9642 99.7538C34.4684 98.4138 31.9933 97.0365 29.4601 95.7795C27.8862 94.9955 26.8978 95.6924 27.1428 97.3767C27.907 102.649 28.7251 107.922 30.1453 113.066C31.1461 116.721 32.2798 120.338 33.3554 123.968Z" fill="white"/>
<path d="M152.898 156.086C153.01 156.579 152.503 157.239 153.707 157.268C161.349 157.442 169.006 157.504 176.627 158.064C185.929 158.745 195.289 159.039 204.475 160.906C205.439 161.101 206.925 160.948 207 162.147C207.067 163.271 205.563 163.179 204.712 163.437C201.543 164.387 198.246 164.727 194.974 165.017C187.719 165.664 180.456 166.179 173.188 166.672C170.236 166.872 167.254 167.004 164.318 167.017C157.067 167.046 149.825 167.398 142.586 167.606C120.265 168.245 97.9396 167.946 75.6183 167.859C68.9365 167.834 62.2297 167.772 55.5437 167.486C48.4549 167.183 41.3536 167.054 34.2773 166.627C23.7956 165.992 13.2766 165.602 2.89464 163.789C2.7576 163.764 2.6164 163.756 2.48767 163.715C1.52007 163.387 0.0541316 163.175 -0.00400743 162.209C-0.0662993 161.184 1.45777 161.151 2.31325 160.981C6.4868 160.159 10.706 159.591 14.9502 159.255C22.2799 158.678 29.6095 158.123 36.9434 157.633C39.2149 157.484 41.5073 157.592 43.7872 157.546C44.0239 157.542 44.2564 157.305 44.4931 157.181C48.7622 158.857 53.1393 159.952 57.7779 159.674C57.9191 159.807 58.0562 159.944 58.1974 160.076C58.7954 161.279 59.6799 162.101 61.0877 162.213C62.0927 162.823 63.1558 162.487 64.1981 162.395C66.9348 162.512 69.6798 162.955 72.3916 162.167C75.0079 162.321 77.6573 161.781 80.2528 162.503C88.8242 162.524 97.3914 162.545 105.963 162.553C106.424 162.553 106.951 162.678 107.279 162.176C113.799 162.117 120.323 162.059 126.843 162.005C130.502 162.055 134.164 162.109 137.823 162.159C139.301 162.035 140.78 161.914 142.258 161.79C142.557 161.79 142.856 161.794 143.155 161.794C144.712 162.395 146.216 162.234 147.682 161.491C148.35 161.358 149.019 161.23 149.687 161.097C152.644 160.508 153.118 159.711 152.237 156.762C152.2 156.637 152.021 156.529 152.03 156.417C152.063 155.667 152.582 156.14 152.898 156.086Z" fill="#E8EBF3"/>
<path d="M58.1975 160.072C58.0563 159.94 57.9192 159.803 57.778 159.67C57.7656 157.16 57.7531 154.65 57.7448 152.14C57.749 151.892 57.749 151.643 57.7531 151.394C57.7656 149.349 57.7282 147.303 57.8029 145.262C57.8445 144.134 57.3669 143.495 56.5571 142.707C55.4981 141.682 53.9575 141.562 53.0438 140.429C52.7656 139.434 51.9849 139.313 51.1253 139.338L51.1502 139.355C51.0463 138.853 50.6768 138.878 50.2947 138.923L50.3196 138.94C50.2199 138.43 49.842 138.471 49.4641 138.509L49.4891 138.525C46.2914 136.173 42.5165 135.493 38.7375 134.833C38.6004 134.675 38.4592 134.518 38.3222 134.36C37.1719 132.249 37.1719 132.249 39.5971 132.249C40.4941 132.249 41.3953 132.236 42.2923 132.224C42.3296 132.224 42.367 132.149 42.6494 131.854C38.5589 130.315 34.2483 129.042 33.3472 123.972C32.2716 120.343 31.142 116.725 30.1329 113.074C28.7126 107.93 27.8945 102.658 27.1304 97.385C26.8854 95.7007 27.8738 95.0037 29.4477 95.7878C31.9809 97.0489 34.4601 98.4262 36.9518 99.762C37.7782 100.206 38.2973 100.828 38.4343 101.836C38.6129 103.168 38.9659 104.479 39.2566 105.844C39.9542 105.412 39.892 104.736 39.9916 104.151C40.2532 102.604 40.8139 102.114 42.2258 103.263C44.9999 105.524 47.9857 107.54 50.3196 110.307C50.3238 115.866 50.3238 121.429 50.3279 126.988C50.3279 127.756 50.6103 128.785 48.754 127.764C49.9625 129.287 50.4276 130.614 51.5198 131.502C51.5738 132.066 51.8603 132.473 52.3503 132.746C52.4043 133.306 52.6825 133.721 53.1809 133.983C53.7706 135.389 54.6011 136.633 55.6809 137.712C55.7265 138.28 56.0048 138.699 56.5197 138.952C56.6609 139.085 56.798 139.222 56.9392 139.355C56.9973 139.873 57.0845 140.38 57.7199 140.695C57.8071 139.977 57.5205 139.579 56.9765 139.322C56.8436 139.181 56.7108 139.04 56.5779 138.894C56.5654 138.305 56.2747 137.899 55.7515 137.65C55.3196 136.14 54.4599 134.912 53.2764 133.9C53.2224 133.34 52.9483 132.921 52.4417 132.668C52.4043 132.091 52.1136 131.689 51.607 131.427C51.0754 129.515 50.7847 127.557 50.764 125.582C50.71 120.641 50.739 115.7 50.7349 110.764C53.4799 112.809 55.2573 115.725 57.8943 118.762C57.8943 106.2 57.8943 94.1533 57.8943 82.1021L58.0812 82.0979L58.2639 82.1394C58.2473 95.1033 58.2307 108.067 58.2141 121.031C58.2141 134.041 58.2058 147.054 58.1975 160.072ZM32.4585 108.656C32.4792 108.706 32.4917 108.768 32.5249 108.81C32.5457 108.835 32.6038 108.831 32.6453 108.839C32.5872 108.777 32.5291 108.71 32.4668 108.648C32.309 108.544 32.1512 108.441 31.9933 108.341C31.956 108.395 31.9227 108.453 31.8854 108.507C32.0806 108.557 32.2674 108.607 32.4585 108.656ZM36.1877 108.669C36.3164 108.814 36.4451 108.959 36.578 109.1C36.5863 109.44 36.6902 109.735 37.0016 109.917C37.0348 110.469 36.7317 110.689 36.2209 110.702C36.0382 110.32 35.8056 109.992 35.3197 110.025C35.2741 110.029 35.1827 110.141 35.1951 110.175C35.3696 110.631 35.7724 110.706 36.1918 110.743C36.7275 111.357 37.4377 111.573 38.2225 111.614C38.48 112.643 38.9908 113.498 39.9003 114.082C40.0913 114.767 40.3031 115.464 39.132 115.269C38.9659 114.925 38.6544 114.858 38.318 114.842C37.9734 114.132 37.3504 113.995 36.6486 114.024C36.0714 113.103 35.1744 112.821 34.1569 112.78C33.9825 112.436 33.6628 112.382 33.3264 112.369C33.1561 112.025 32.8364 111.971 32.5 111.958C32.3422 111.855 32.1844 111.747 32.0224 111.652C32.0183 111.647 31.9477 111.751 31.9103 111.809C32.1013 111.871 32.2882 111.929 32.4792 111.988C32.6536 112.324 32.9609 112.394 33.3015 112.407C33.4842 112.734 33.7915 112.805 34.132 112.821C34.7259 113.717 35.6104 114.024 36.632 114.062C37.0556 114.593 37.6411 114.8 38.2848 114.9C38.4634 115.232 38.779 115.294 39.1154 115.31C39.7715 115.891 40.5066 116.302 41.9061 116.509C41.0797 115.456 40.8429 114.547 40.0082 114.004C39.7632 112.971 39.2483 112.12 38.3513 111.519C38.2391 110.735 37.7242 110.258 37.1054 109.855C36.9601 109.581 36.8147 109.308 36.6735 109.038C36.5323 108.905 36.3912 108.772 36.25 108.64C36.2043 108.47 36.1544 108.3 36.1088 108.129C36.0382 108.179 35.9634 108.225 35.8928 108.275C35.9717 108.399 36.0797 108.536 36.1877 108.669ZM30.3821 107.827C30.5399 107.93 30.6935 108.038 30.8555 108.134C30.8596 108.138 30.9261 108.03 30.9635 107.976C30.7766 107.922 30.5855 107.864 30.3987 107.81C30.2409 107.702 30.0872 107.594 29.9253 107.499C29.9211 107.495 29.8505 107.603 29.8131 107.657C30.0042 107.715 30.191 107.773 30.3821 107.827ZM32.0266 102.454C32.1636 102.591 32.3007 102.732 32.4335 102.869C32.4418 103.462 32.7242 103.873 33.2516 104.126C33.3928 104.4 33.5299 104.674 33.6711 104.948C33.7168 105.52 33.995 105.931 34.5058 106.188C34.5598 106.607 34.6511 107.005 35.1121 107.167C35.1453 107.179 35.2574 107.088 35.2616 107.043C35.299 106.545 34.9377 106.333 34.5805 106.117C34.5515 105.541 34.2566 105.134 33.7541 104.869C33.6129 104.599 33.4676 104.329 33.3264 104.056C33.2849 103.479 32.9983 103.068 32.4834 102.811C32.3463 102.67 32.2134 102.533 32.0764 102.392C32.01 101.973 32.0224 101.492 31.3953 101.438C31.2002 102.06 31.6736 102.222 32.0266 102.454Z" fill="#283764"/>
<path d="M152.898 156.086C152.582 156.14 152.063 155.667 152.026 156.413C152.022 156.525 152.2 156.633 152.233 156.758C153.11 159.711 152.64 160.504 149.684 161.093C149.015 161.226 148.346 161.354 147.678 161.487C146.149 161.296 144.617 161.064 143.151 161.79C142.852 161.79 142.553 161.786 142.258 161.786C140.792 161.798 139.322 161.806 137.852 161.819C134.214 161.611 130.556 161.981 126.93 161.433C121.428 160.981 121.428 160.981 121.802 155.957C122.346 156.227 122.757 156.704 123.446 156.745C127.549 156.998 131.648 157.268 135.747 157.575C138.853 157.811 141.901 157.002 144.999 157.164C146.274 157.231 147.528 157.131 149.073 156.351C147.478 156.351 146.274 156.351 145.066 156.351C141.972 155.716 138.878 155.65 135.784 156.364C134.248 156.301 132.69 156.463 131.191 155.94C129.248 155.567 127.354 154.866 125.323 155.119C124.721 155.107 124.115 155.098 123.513 155.086C123.654 154.63 124.069 154.58 124.43 154.381C125.813 153.621 124.896 152.294 125.078 151.236C125.232 150.323 124.613 150.037 123.778 150.162C122.45 149.938 121.386 149.444 121.428 147.834C121.893 146.996 121.602 146.067 121.735 145.192C123.284 146.287 125.045 145.972 126.764 145.938C128.55 145.947 130.336 145.955 132.121 145.968C132.391 146.698 133.023 146.739 133.654 146.743C137.171 146.764 140.684 146.781 144.202 146.797C144.937 146.801 145.593 146.689 145.767 145.81C147.329 146.03 148.874 146.113 150.518 145.229C144.09 144.881 137.831 145.482 131.594 144.777C127.852 144.354 127.391 144.084 127.533 140.326C127.541 140.127 127.611 139.927 127.616 139.902C137.665 140.803 147.649 141.06 157.682 139.807C157.727 140.575 157.79 141.454 157.835 142.333C157.898 143.491 157.325 143.985 156.191 143.889C156.133 143.86 156.075 143.831 156.012 143.802C156.066 143.835 156.12 143.873 156.17 143.906C155.938 144.03 155.713 144.238 155.464 144.271C152.47 144.665 152.316 144.665 152.478 147.834C152.582 149.846 151.266 149.913 150.045 150.079C144.164 150.879 138.247 151.132 132.325 150.879C130.614 150.805 128.92 150.394 127.192 150.763C128.807 151.066 130.427 151.282 132.055 151.423C138.932 152.008 145.809 152.174 152.644 151.062C155.958 150.523 156.685 151.157 155.913 154.393C155.863 154.592 155.834 154.795 155.792 154.999C155.655 155.053 155.518 155.107 155.385 155.161C154.642 155.185 153.948 155.385 153.33 155.812C153.188 155.903 153.043 155.994 152.898 156.086Z" fill="#B4E7C2"/>
<path d="M170.713 57.2113C168.724 61.9904 164.783 64.496 160.198 66.3089C156.432 67.8023 152.669 67.1552 149.031 66.143C143.608 64.6288 138.728 57.7838 138.263 52.0341C137.844 46.8278 138.944 42.1317 142.524 38.3027C146.764 33.7726 151.98 31.7813 158.275 32.9968C160.946 33.5112 163.325 34.5732 165.564 36.0459C166.199 38.0206 167.96 38.9872 169.368 40.2649C170.867 41.9077 171.747 43.816 171.843 46.0561C171.814 46.1101 171.743 46.1889 171.76 46.2138C171.818 46.3051 171.901 46.3756 171.98 46.4502L171.959 46.4295C172.183 49.8105 171.726 53.1417 171.199 56.4646C171.037 56.7135 170.875 56.9624 170.713 57.2113ZM166.573 41.8745C166.527 41.3725 166.407 40.9452 165.75 41.049L165.738 41.0407C164.471 37.9418 158.454 35.1623 154.991 36.075C153.163 36.0874 151.502 36.7843 149.791 37.2946C148.778 37.5974 148.682 38.0994 149.509 38.6636C150.344 39.2361 150.29 39.5804 149.492 40.1363C148.778 40.63 148.18 41.2896 147.536 41.8745C145.722 39.7837 145.659 39.8542 143.932 42.1607C142.827 43.6376 142.042 45.2928 141.756 46.9895C140.169 56.3858 147.05 64.2762 155.9 63.3428C157.69 63.1519 159.314 61.8244 161.448 61.9572C162.727 62.036 163.969 60.7043 164.941 59.6008C166.863 58.5803 167.823 56.9002 168.205 54.8301C168.591 53.1459 169.226 51.5031 169.073 49.7275C169.38 46.7531 168.857 44.04 166.581 41.8828L166.573 41.8745Z" fill="#32934D"/>
<path d="M53.0479 140.429C53.9574 141.562 55.5022 141.682 56.5612 142.707C57.3709 143.491 57.8485 144.13 57.807 145.262C57.7322 147.303 57.7655 149.353 57.7572 151.394C56.748 151.269 55.9632 150.398 54.8793 150.531L54.8959 150.543C54.4557 149.938 53.7995 150.166 53.2182 150.12L53.2348 150.133C53.0936 149.987 52.9482 149.846 52.807 149.705L52.8236 149.718C52.1592 148.93 51.258 148.842 50.3154 148.88L50.332 148.892C50.1534 148.544 49.8378 148.473 49.4848 148.469L49.5014 148.477C49.3228 148.125 48.9989 148.071 48.6542 148.054L48.6708 148.063C48.0064 147.27 47.1052 147.191 46.1626 147.225L46.1792 147.237C45.8594 146.482 45.2157 146.374 44.5015 146.399L44.5181 146.407C43.8536 145.611 42.9525 145.532 42.0098 145.569L42.0264 145.582C41.6028 144.623 40.7432 144.744 39.9334 144.744L39.95 144.756C38.5879 143.333 36.8354 142.848 34.9542 142.674L34.9708 142.682C34.4309 142.01 33.7 141.823 32.8861 141.844L32.8986 141.856C32.068 140.699 30.818 140.645 29.5639 140.604L29.5722 140.612C29.431 140.471 29.2856 140.326 29.1444 140.185L29.161 140.197C28.8579 139.712 28.3637 139.782 27.8986 139.774L27.9111 139.782C27.7325 139.434 27.4127 139.372 27.0639 139.359L27.0805 139.371C26.416 138.583 25.5149 138.496 24.5722 138.534L24.5888 138.542C24.4144 138.185 24.0905 138.127 23.7416 138.119L23.7583 138.127C22.8156 137.264 21.7234 136.791 20.4194 136.874L20.436 136.882C20.2616 136.526 19.9377 136.472 19.5889 136.459L19.6055 136.468C19.1653 135.941 18.613 135.646 17.9111 135.688C18.75 134.153 20.3571 134.775 21.5988 134.46C22.9111 134.128 24.3355 134.51 25.6976 134.124C26.7981 133.813 27.1885 134.908 27.8778 135.414C28.3263 135.746 29.0198 136.584 29.0904 135.277C29.1777 133.634 30.1453 133.958 31.0879 134.153C33.1851 134.584 35.357 134.186 37.4376 134.783C37.7739 134.879 38.1062 134.688 38.3304 134.385C38.4674 134.543 38.6086 134.7 38.7457 134.858C38.837 135.036 38.9035 135.348 39.0239 135.368C42.6327 136.04 46.0255 137.422 49.4973 138.55L49.4723 138.534C49.6426 138.903 49.9665 138.969 50.3278 138.965L50.3029 138.948C50.4815 139.301 50.7929 139.392 51.1584 139.38L51.1335 139.363C51.5944 140.01 52.2838 140.288 53.0479 140.429Z" fill="#D9D9D9"/>
<path d="M57.7445 152.14C57.757 154.65 57.7694 157.16 57.7778 159.67C53.1432 159.948 48.762 158.853 44.493 157.177C44.1691 156.33 44.8916 156.459 45.3069 156.301C46.0793 155.721 47.1258 155.476 47.8484 154.331C46.6358 154.447 45.7181 154.513 44.8958 155.044C40.0869 156.716 37.0096 153.31 33.6168 151.07C31.1625 149.452 28.9449 147.473 26.6484 145.619C26.42 145.432 26.3702 145.022 26.2373 144.715L26.229 144.723C27.7406 144.711 29.1069 144.217 30.3943 143.47L30.3776 143.483C31.9474 143.433 33.3261 142.338 34.9582 142.653L34.9416 142.645C36.4283 143.769 38.1309 144.375 39.9374 144.727L39.9208 144.715C40.4689 145.362 41.1957 145.569 42.0138 145.553L41.9971 145.54C42.6616 146.324 43.5628 146.416 44.5054 146.378L44.4888 146.37C44.8044 147.137 45.4564 147.233 46.1666 147.208L46.1499 147.195C46.8144 147.988 47.7197 148.067 48.6582 148.033L48.6416 148.025C48.8202 148.374 49.1399 148.444 49.4888 148.448L49.4722 148.44C49.6507 148.788 49.9747 148.847 50.3193 148.863L50.3027 148.851C50.9672 149.643 51.8725 149.722 52.811 149.689L52.7944 149.676C52.9356 149.821 53.0809 149.962 53.2221 150.104L53.2055 150.091C53.6499 150.684 54.2977 150.473 54.8833 150.514L54.8666 150.502C55.4813 151.688 56.7769 151.622 57.7445 152.14Z" fill="#D9D9D9"/>
<path d="M132.125 145.963C130.34 145.955 128.554 145.947 126.768 145.934C125.252 145.042 123.363 145.304 121.864 144.358C122.582 142.898 124.036 143.86 125.053 143.395C126.228 143.611 126.884 143.283 126.793 141.931C126.718 140.844 126.785 139.749 126.789 138.658C127.715 138.347 128.924 138.803 129.526 137.637C129.742 137.957 129.958 137.841 130.173 137.642C134.837 137.563 139.447 136.704 144.143 136.932C147.063 137.073 149.97 137.256 152.868 137.592C153.28 137.633 153.691 137.691 154.102 137.712C158.217 137.928 158.217 137.928 158.23 141.952C158.238 144.159 157.702 144.698 155.319 144.943C154.222 145.055 152.731 144.661 152.765 146.507C152.79 148.013 153.014 149.481 155.119 149.34C155.543 149.311 155.929 149.473 156.207 149.83C156.809 150.593 156.54 154.007 155.796 154.999C155.838 154.795 155.867 154.592 155.917 154.393C156.689 151.157 155.962 150.523 152.648 151.062C145.813 152.174 138.932 152.008 132.059 151.423C130.431 151.286 128.811 151.066 127.196 150.763C128.924 150.394 130.618 150.805 132.329 150.879C138.251 151.132 144.168 150.879 150.049 150.079C151.274 149.913 152.586 149.85 152.482 147.834C152.32 144.665 152.474 144.665 155.468 144.271C155.713 144.238 155.937 144.03 156.174 143.906L156.191 143.889C157.324 143.989 157.898 143.491 157.835 142.333C157.79 141.454 157.727 140.575 157.682 139.807C147.648 141.06 137.669 140.803 127.615 139.902C127.611 139.932 127.536 140.127 127.532 140.326C127.391 144.08 127.852 144.354 131.594 144.777C137.831 145.482 144.09 144.881 150.518 145.229C148.874 146.113 147.329 146.03 145.767 145.81C141.22 145.86 136.673 145.914 132.125 145.963ZM154.708 139.002C146.577 137.21 138.442 137.604 130.302 138.961C138.433 140.604 146.569 140.525 154.708 139.002Z" fill="#32934D"/>
<path d="M23.3225 142.271C21.8773 140.143 19.207 139.06 18.335 136.443C18.7585 136.443 19.1821 136.439 19.6016 136.439L19.585 136.43C19.7594 136.787 20.0833 136.841 20.4321 136.853L20.4155 136.845C21.3623 137.7 22.4545 138.173 23.7544 138.098L23.7377 138.09C23.9122 138.442 24.2361 138.5 24.5849 138.513L24.5683 138.504C25.2327 139.297 26.1339 139.38 27.0766 139.342L27.06 139.33C27.2344 139.687 27.5542 139.749 27.9071 139.753L27.8947 139.745C28.1895 140.255 28.692 140.156 29.1571 140.168L29.1405 140.156C29.2817 140.297 29.4271 140.442 29.5683 140.583L29.56 140.575C29.56 140.716 29.56 140.857 29.56 140.998L29.5724 140.989C29.1115 141.002 28.609 140.906 28.3141 141.413L28.3307 141.404C27.6248 141.5 26.8274 141.143 26.2377 141.827L26.2543 141.819C25.6771 141.885 25.0168 141.637 24.5766 142.242L24.5932 142.23C24.1655 142.246 23.746 142.259 23.3225 142.271Z" fill="#D9D9D9"/>
<path d="M26.2415 144.723C25.1784 144.628 24.7091 143.761 24.1069 143.072C24.2689 142.794 24.4267 142.512 24.5845 142.234L24.5679 142.246C25.1493 142.184 25.8054 142.437 26.2456 141.823L26.229 141.832C26.935 141.732 27.7365 142.097 28.322 141.408L28.3054 141.417C28.7664 141.392 29.2647 141.491 29.5637 140.994L29.5512 141.002C30.6642 141.28 31.773 141.554 32.8859 141.832L32.8735 141.819C32.3295 142.806 30.822 142.354 30.3776 143.487L30.3943 143.474C28.8702 143.449 27.4292 143.682 26.229 144.727L26.2415 144.723Z" fill="#D9D9D9"/>
<path d="M140.19 0.0165868C145.302 -0.157648 149.995 1.11178 154.177 4.1443C149.808 1.76723 145.061 0.68034 140.19 0.0165868Z" fill="#283764"/>
<path d="M8.44686 56.3899C6.54488 60.7085 4.68858 65.0104 3.50088 69.9429C3.10221 67.4746 6.04654 59.4722 8.44686 56.3899Z" fill="#283764"/>
<path d="M5.60645 73.4235C5.96359 69.6857 6.81075 66.0807 8.57984 62.7163C6.84813 67.8272 5.77256 73.0377 5.89714 78.4514C5.67289 76.7838 6.18784 75.0746 5.60645 73.4235Z" fill="#283764"/>
<path d="M152.403 7.10631C149.584 5.7871 146.768 4.45544 143.716 3.73361C146.972 3.96178 149.945 5.00719 152.644 6.83666C152.561 6.91963 152.478 7.01089 152.403 7.10631Z" fill="#283764"/>
<path d="M171.199 56.4688C171.727 53.1458 172.183 49.8146 171.959 46.4336C173.546 49.5408 172.644 52.5651 171.644 55.5851C171.54 55.8921 171.349 56.1742 171.199 56.4688Z" fill="#283764"/>
<path d="M169.372 40.2649C167.964 38.983 166.203 38.0206 165.568 36.0459C166.918 36.5023 167.528 37.8464 168.637 38.5931C168.786 39.1905 169.741 39.4394 169.372 40.2649Z" fill="#283764"/>
<path d="M3.53837 83.7573C4.11561 85.2839 4.69284 86.8064 5.27008 88.333C3.99517 87.0761 3.4304 85.5453 3.53837 83.7573Z" fill="#283764"/>
<path d="M5.6062 73.4235C6.18759 75.0704 5.67265 76.7837 5.8969 78.4514C6.02979 79.0612 6.16683 79.6752 6.29972 80.2892C5.26983 78.0615 5.44425 75.7425 5.6062 73.4235Z" fill="#4D6198"/>
<path d="M165.248 15.4986C166.693 16.2827 167.403 17.606 168.201 18.8672C168.064 18.9667 167.931 19.0663 167.794 19.1659C166.947 17.9421 166.095 16.7224 165.248 15.4986Z" fill="#283764"/>
<path d="M44.9004 155.049C45.7226 154.518 46.6404 154.447 47.853 154.335C47.1304 155.476 46.0839 155.725 45.3115 156.305C45.3406 155.833 45.3821 155.355 44.9004 155.049Z" fill="#E1E9FD"/>
<path d="M163.437 13.0386C162.752 12.2214 162.063 11.4041 161.377 10.5869C161.46 10.508 161.535 10.4251 161.61 10.338C162.528 10.9768 163.192 11.8314 163.715 12.8063C163.62 12.8851 163.529 12.9598 163.437 13.0386Z" fill="#283764"/>
<path d="M157.802 11.2464C157.021 10.6988 156.224 10.1595 155.784 9.24689C156.685 9.64514 157.478 10.1678 158.034 11.0017C157.956 11.0805 157.877 11.1635 157.802 11.2464Z" fill="#283764"/>
<path d="M159.135 7.83228C159.862 8.21393 160.402 8.78642 160.804 9.49166C160.709 9.57463 160.622 9.67004 160.543 9.7696C159.986 9.20541 159.426 8.64122 158.869 8.08118C158.965 8.00651 159.052 7.92354 159.135 7.83228Z" fill="#283764"/>
<path d="M158.898 11.7982C159.542 12.2628 160.128 12.7814 160.476 13.5198C160.414 13.5945 160.352 13.6691 160.285 13.7397C159.554 13.3622 159.094 12.715 158.637 12.0678C158.732 11.9849 158.819 11.8936 158.898 11.7982Z" fill="#283764"/>
<path d="M164.318 13.4576C164.704 13.8849 165.211 14.2416 165.206 14.9718C164.484 14.8058 164.293 14.2292 164.023 13.7272C164.131 13.6484 164.226 13.5571 164.318 13.4576Z" fill="#283764"/>
<path d="M160.477 13.5198C160.954 13.6899 161.091 14.1006 161.394 14.6233C160.747 14.4449 160.448 14.1711 160.286 13.7397C160.352 13.665 160.414 13.5945 160.477 13.5198Z" fill="#283764"/>
<path d="M155.597 9.15561C154.733 8.91086 154.268 8.67024 154.044 7.92352C154.75 8.06457 155.194 8.36741 155.597 9.15561Z" fill="#283764"/>
<path d="M157.81 7.09385C157.424 6.87813 156.909 6.77857 156.934 6.15215C157.565 6.0194 157.777 6.49647 158.068 6.84909C157.972 6.92377 157.889 7.00674 157.81 7.09385Z" fill="#283764"/>
<path d="M153.333 155.812C153.952 155.385 154.642 155.19 155.389 155.161C154.849 155.841 154.11 155.886 153.333 155.812Z" fill="#32934D"/>
<path d="M19.6016 136.439C19.178 136.439 18.7544 136.443 18.335 136.443L18.3474 136.447C18.2021 136.285 18.0609 136.127 17.9155 135.966C17.9114 135.862 17.9114 135.762 17.9072 135.659C18.609 135.617 19.1614 135.912 19.6016 136.439Z" fill="#E1E9FD"/>
<path d="M152.64 6.83249C153.026 7.06895 153.412 7.30541 153.977 7.65388C153.105 7.96502 152.777 7.47965 152.403 7.10629C152.478 7.01087 152.561 6.91961 152.64 6.83249Z" fill="#283764"/>
<path d="M24.5845 142.234C24.4267 142.512 24.2647 142.794 24.1069 143.072C23.8453 142.802 23.5878 142.537 23.3262 142.271C23.7456 142.259 24.165 142.246 24.5845 142.234Z" fill="#E1E9FD"/>
<path d="M164.023 13.7314C163.828 13.4991 163.633 13.2709 163.438 13.0386C163.529 12.9598 163.62 12.8809 163.712 12.8063C163.911 13.0261 164.114 13.2419 164.314 13.4576C164.227 13.5571 164.131 13.6484 164.023 13.7314Z" fill="#283764"/>
<path d="M17.9156 135.966C18.0609 136.127 18.2021 136.285 18.3474 136.447C18.0692 136.405 17.5335 136.596 17.9156 135.966Z" fill="#D9D9D9"/>
<path d="M158.865 8.07702C158.728 7.91523 158.429 7.77003 158.77 7.55017C158.811 7.52113 159.011 7.7327 159.135 7.83226C159.052 7.92353 158.965 8.0065 158.865 8.07702Z" fill="#283764"/>
<path d="M158.068 6.85324C158.201 7.01503 158.504 7.15193 158.172 7.37595C158.134 7.40084 157.935 7.19341 157.811 7.09385C157.889 7.00673 157.973 6.92376 158.068 6.85324Z" fill="#283764"/>
<path d="M158.479 11.3709C158.62 11.512 158.757 11.6572 158.898 11.7982C158.819 11.8936 158.732 11.9849 158.637 12.0679C158.496 11.9351 158.354 11.7982 158.209 11.6655C158.309 11.5742 158.396 11.4746 158.479 11.3709Z" fill="#283764"/>
<path d="M158.209 11.6613C158.072 11.5244 157.935 11.3833 157.798 11.2464C157.873 11.1635 157.952 11.0805 158.03 11.0017C158.18 11.1261 158.325 11.2506 158.471 11.3709C158.396 11.4746 158.309 11.5742 158.209 11.6613Z" fill="#283764"/>
<path d="M161.207 9.91064C161.34 10.0517 161.477 10.1969 161.61 10.3379C161.539 10.4251 161.461 10.508 161.377 10.5868C161.232 10.4458 161.087 10.3089 160.941 10.1678C161.041 10.089 161.128 10.0019 161.207 9.91064Z" fill="#283764"/>
<path d="M160.804 9.49164C160.937 9.63269 161.074 9.76958 161.207 9.91063C161.128 10.0019 161.037 10.089 160.941 10.1678C160.804 10.0351 160.671 9.90234 160.539 9.76958C160.622 9.67002 160.709 9.57876 160.804 9.49164Z" fill="#283764"/>
<path d="M171.98 46.4544C171.905 46.3756 171.818 46.305 171.76 46.2179C171.743 46.193 171.814 46.1142 171.843 46.0603C171.889 46.1889 171.934 46.3216 171.98 46.4544Z" fill="#283764"/>
<path d="M158.221 100.268C158.238 107.229 158.275 114.195 158.259 121.156C158.254 123.209 157.37 123.977 155.073 123.981C147.549 124.001 140.028 123.981 132.503 123.997C131.702 123.997 130.829 123.753 130.128 124.408C129.953 124.267 129.779 124.122 129.604 123.981C128.633 123.993 127.661 124.006 126.693 124.018C116.332 124.006 105.975 124.001 95.6138 123.985C92.2417 123.981 91.814 123.545 91.8098 120.193C91.7932 107.362 91.7725 94.5308 91.7559 81.7038C92.1421 80.1025 93.2135 79.5674 94.7874 79.5923C97.6528 79.642 100.522 79.6047 103.388 79.6006C107.433 79.6006 111.482 79.5964 115.526 79.5964C116.897 79.6047 118.267 79.613 119.634 79.6213C121.506 84.027 120.95 85.2176 116.918 85.4789C116.83 85.4831 116.752 85.6449 116.59 85.8149C117.756 86.8894 119.131 87.6195 120.531 88.3123C120.572 88.7977 120.792 89.1254 121.307 89.1876L121.282 89.1669C122.428 90.1584 123.537 91.2079 125.036 91.6767L125.02 91.656C125.219 91.963 125.493 92.1289 125.871 92.0833L125.854 92.0667C126 92.2119 126.141 92.3571 126.286 92.5022H126.278C126.44 92.8673 126.735 92.9586 127.1 92.9088L127.104 92.9171C127.154 93.5269 127.557 93.7551 128.093 93.7468C128.587 93.7385 128.811 93.4066 128.795 92.9171L128.799 92.9046C129.065 92.9005 129.197 92.7595 129.206 92.4981L129.222 92.494C131.195 91.2536 133.018 89.8721 133.782 87.5241V87.52C134.164 87.5946 134.434 87.4453 134.609 87.1093L134.613 87.1051C134.949 86.9267 135.09 86.6571 135.024 86.2796L135.028 86.2671C135.19 86.1385 135.352 86.0099 135.518 85.8813C135.908 85.508 136.324 85.1553 136.689 84.7571C136.984 84.4335 137.578 84.139 137.221 83.5997C136.984 83.2387 136.481 83.4171 136.083 83.4794C133.209 83.9232 133.209 83.9232 132.844 80.787C132.835 80.4302 132.823 80.0776 132.814 79.7209C134.206 79.6794 135.597 79.642 136.992 79.6006C143.525 79.6171 150.053 79.6337 156.585 79.6503C157.856 80.8492 157.852 82.3925 157.914 83.9979C157.997 86.1634 157.374 88.3745 158.288 90.4902C158.275 91.992 158.267 93.4937 158.254 94.9955C157.64 96.7461 157.673 98.5051 158.221 100.268ZM111.386 93.3278L111.365 93.3319C112.051 91.3365 112.017 89.3411 111.369 87.3457C111.137 86.5285 110.427 86.3252 109.758 86.3169C106.731 86.2837 103.699 86.3335 100.668 86.3252C99.6586 86.321 99.3721 86.8645 99.3762 87.7523C99.3887 89.5403 99.3928 91.3282 99.3679 93.1162C99.3555 94.0496 99.75 94.5101 100.701 94.5143C103.733 94.5184 106.76 94.5516 109.791 94.535C110.406 94.5308 111.025 94.3649 111.369 93.7385C111.374 93.5974 111.382 93.4647 111.386 93.3278ZM144.928 116.862C144.928 116.858 144.928 116.854 144.928 116.85C147.275 116.85 149.621 116.825 151.963 116.858C153.309 116.874 153.304 116.007 153.309 115.053C153.313 114.091 153.296 113.249 151.955 113.257C147.403 113.286 142.852 113.257 138.296 113.29C136.843 113.298 136.797 114.497 136.702 115.493C136.598 116.588 137.337 116.874 138.3 116.866C140.514 116.85 142.723 116.862 144.928 116.862ZM103.043 106.64C101.457 106.64 99.8704 106.603 98.2882 106.657C97.4659 106.686 96.299 106.458 96.4734 107.901C96.6022 108.997 96.4236 110.316 98.2882 110.253C101.386 110.15 104.492 110.154 107.59 110.237C109.11 110.278 109.214 109.494 109.231 108.312C109.252 107.088 108.894 106.541 107.59 106.619C106.083 106.707 104.563 106.64 103.043 106.64ZM146.93 110.224C148.383 110.224 149.837 110.183 151.286 110.237C152.59 110.283 153.346 110.005 153.35 108.428C153.354 106.902 152.735 106.566 151.365 106.603C148.533 106.682 145.696 106.669 142.86 106.611C141.535 106.582 140.825 106.864 140.804 108.42C140.784 109.959 141.411 110.328 142.781 110.241C144.16 110.154 145.547 110.224 146.93 110.224ZM117.495 110.224C119.015 110.224 120.535 110.175 122.05 110.241C123.371 110.299 123.874 109.83 123.844 108.449C123.815 107.184 123.575 106.557 122.125 106.603C119.231 106.694 116.328 106.657 113.429 106.611C112.15 106.59 111.336 106.802 111.336 108.391C111.336 109.909 112.001 110.303 113.355 110.237C114.733 110.171 116.116 110.224 117.495 110.224ZM132.324 110.22C133.836 110.22 135.352 110.166 136.863 110.237C138.188 110.299 138.703 109.793 138.703 108.445C138.699 107.13 138.267 106.582 136.905 106.611C134.019 106.673 131.128 106.657 128.242 106.611C126.959 106.59 126.182 106.819 126.187 108.403C126.191 109.938 126.872 110.291 128.205 110.229C129.571 110.166 130.946 110.216 132.324 110.22ZM151.51 82.1394C151.216 83.0687 151.859 83.442 152.067 83.9813C152.603 85.3586 152.852 86.7359 151.992 88.0883C151.793 88.3994 150.817 88.5031 151.598 89.0715C152.034 89.3909 152.457 88.9595 152.756 88.5197C153.853 86.9143 153.317 83.8361 151.51 82.1394Z" fill="#283764"/>
<path d="M89.601 30.6778C88.5129 28.4335 87.1508 26.3634 86.5154 23.8536C85.6267 20.3316 86.1375 17.0999 87.537 13.8849C89.1691 10.1264 91.8767 7.40084 95.6765 5.88665C100.141 4.11112 104.572 4.18579 108.924 6.45499C113.745 8.96481 116.577 12.7192 117.205 18.22C117.703 22.6132 116.918 26.5377 114.078 29.9809C112.852 30.7152 111.872 31.6983 111.125 32.918C109.883 34.7516 107.578 34.5815 105.942 35.6601C103.459 35.6767 100.975 35.6933 98.4921 35.7099C95.4273 35.0876 92.8817 33.4988 90.5686 31.4743C90.527 30.8728 90.1159 30.7152 89.601 30.6778ZM110.365 10.6698C106.681 7.71197 102.682 6.36788 98.0519 8.26372C97.0801 8.76153 96.0461 9.17223 95.1408 9.77791C90.8053 12.6694 88.7953 16.7432 89.3726 21.9246C89.875 26.4464 92.5536 29.4955 96.4614 31.5988C99.6341 33.3038 102.898 33.0756 106.158 31.997C106.964 31.7315 108.671 31.6942 107.317 29.9518C106.864 29.3669 107.62 28.8484 108.044 28.4169C108.318 28.1348 108.571 27.8195 109.094 28.0394C111.229 28.9396 111.781 28.6617 112.67 26.3302C114.173 24.9571 115.024 23.3724 114.323 21.2774C115.199 16.9257 111.939 14.1089 110.365 10.6698Z" fill="#32934D"/>
<path d="M58.268 82.1311L58.0853 82.0896L57.8984 82.0938C52.2133 79.0156 49.5555 74.2698 50.3694 67.8397C50.8678 63.9194 52.8486 60.7292 56.337 58.7214C57.5828 58.0037 58.0729 57.1947 58.0646 55.8008C58.0147 48.5493 58.0313 41.2937 58.0272 34.0339C58.0313 41.1775 58.0147 48.3295 58.077 55.4773C58.0812 56.0705 57.4832 57.1035 58.7622 57.2943C59.9125 57.2818 61.0089 57.0329 62.0263 56.4812C62.1384 56.4646 62.2506 56.4439 62.3627 56.419C63.3344 56.4273 64.302 56.4314 65.2738 56.4397C65.8303 56.6264 66.1459 57.4893 66.9308 57.0329C67.5994 57.3026 68.2597 57.6096 68.9407 57.8419C72.8277 59.1445 74.6466 62.2766 76.0337 65.7945C76.1126 67.7691 75.9714 69.7562 76.4324 71.7019C76.7397 72.3864 76.5528 73.0128 76.3119 73.6848C74.6757 78.2772 71.4033 81.1935 66.9308 82.8944C66.366 82.9317 65.8012 82.9691 65.2364 83.0106C64.273 83.023 63.3095 83.0355 62.3461 83.0479C62.1966 83.0396 62.0471 83.0313 61.8976 83.023C61.4034 82.9857 60.9092 82.9483 60.415 82.9151C59.7797 82.4547 59.1111 82.0481 58.268 82.1311ZM69.2771 61.3224C66.2206 58.3521 61.773 58.0327 58.268 60.5301C57.6825 61.0072 57.1219 61.5174 56.5073 61.953C55.3819 62.7537 54.4101 63.4672 55.3943 65.1183C55.8719 65.9231 54.9084 66.6574 54.2481 66.5619C53.2307 66.4167 53.2847 66.9477 53.1435 67.5617C51.9184 72.8676 54.8295 78.0407 59.925 79.8951C63.6584 81.2516 67.4831 80.6708 70.5271 77.825C74.2397 74.3527 74.601 70.0715 73.1267 65.4294C72.7945 64.3799 71.3327 63.5958 71.3576 63.3013C71.5238 61.5423 70.199 61.7124 69.2771 61.3224Z" fill="#32934D"/>
<path d="M89.6007 30.6778C90.1157 30.7152 90.5309 30.8728 90.5683 31.4826C81.9887 31.4702 73.409 31.4577 64.8335 31.4453C64.5635 31.3333 64.2936 31.2171 64.0195 31.1051C64.7587 30.57 65.61 30.7401 66.424 30.7359C74.1482 30.7069 81.8724 30.6944 89.6007 30.6778Z" fill="#4D6198"/>
<path d="M111.125 32.918C111.868 31.6983 112.848 30.7151 114.073 29.9809C114.297 31.1632 115.252 30.6985 115.896 30.7068C119.335 30.7525 122.773 30.6903 126.207 30.7359C128.944 30.7732 130.153 32.109 130.07 34.8429C129.916 34.8387 129.766 34.8346 129.613 34.8346C129.015 31.9348 128.525 31.5116 125.676 31.4992C123.346 31.4909 121.012 31.4868 118.683 31.4992C116.083 31.5158 113.375 31.0138 111.125 32.918Z" fill="#4D6198"/>
<path d="M129.621 34.8387C129.775 34.8429 129.924 34.847 130.078 34.847C130.078 45.8778 130.074 56.9126 130.074 67.9434C129.742 69.0469 130.389 70.2748 129.634 71.3244C129.625 59.1611 129.625 46.9978 129.621 34.8387Z" fill="#314B81"/>
<path d="M129.629 71.3244C130.385 70.2748 129.737 69.0469 130.07 67.9434C130.119 68.4868 130.273 69.0469 130.198 69.5696C129.675 73.3198 131.145 76.539 132.815 79.7167C132.823 80.0735 132.831 80.4261 132.844 80.7829C132.619 80.6626 132.279 80.5962 132.192 80.4095C130.95 77.7462 129.592 75.1327 128.799 72.2827C129.991 72.7556 129.38 71.6646 129.629 71.3244Z" fill="#4D6198"/>
<path d="M50.7392 110.755C50.7433 115.696 50.7143 120.637 50.7682 125.574C50.789 127.548 51.0797 129.506 51.6113 131.419L51.5241 131.498C50.4319 130.61 49.9668 129.282 48.7583 127.76C50.6146 128.785 50.3322 127.756 50.3322 126.984C50.3281 121.425 50.3239 115.862 50.3239 110.303C50.4568 110.457 50.598 110.606 50.7392 110.755Z" fill="#C6D3EB"/>
<path d="M58.7622 57.2943C57.479 57.1035 58.0812 56.0705 58.077 55.4773C58.0147 48.3295 58.0313 41.1776 58.0272 34.0339C58.2057 33.6025 58.131 33.0507 58.6086 32.7479L58.6418 32.7811C58.6335 33.3992 58.6086 34.0173 58.6127 34.6354C58.6584 42.1856 58.7124 49.74 58.7622 57.2943Z" fill="#4D6198"/>
<path d="M158.288 90.4861C157.374 88.3704 157.993 86.1551 157.914 83.9938C157.852 82.3883 157.86 80.8451 156.585 79.6462C156.602 79.5134 156.606 79.3765 156.598 79.2438C157.715 79.389 158.429 80.1896 158.467 81.1396C158.595 84.251 158.957 87.383 158.288 90.4861Z" fill="#4D6198"/>
<path d="M156.598 79.2396C156.606 79.3765 156.602 79.5093 156.586 79.642C150.053 79.6254 143.525 79.6088 136.993 79.5922C137.18 79.0861 137.624 79.1318 138.027 79.1359C144.219 79.1691 150.41 79.2064 156.598 79.2396Z" fill="#314B81"/>
<path d="M129.609 123.981C129.783 124.126 129.958 124.267 130.132 124.408C130.157 125.624 130.178 126.843 130.203 128.059C130.203 130.046 130.203 132.033 130.203 134.024C130.194 135.231 130.186 136.439 130.174 137.646C129.958 137.845 129.738 137.961 129.526 137.642C129.555 133.087 129.58 128.536 129.609 123.981Z" fill="#314B81"/>
<path d="M158.222 100.268C157.673 98.5051 157.64 96.7461 158.259 94.9913C158.807 96.7544 158.874 98.5134 158.222 100.268Z" fill="#4D6198"/>
<path d="M130.198 134.024C130.198 132.033 130.198 130.046 130.198 128.059C130.381 130.05 130.381 132.037 130.198 134.024Z" fill="#32934D"/>
<path d="M60.2158 31.4411C61.308 30.823 62.4791 31.1839 63.617 31.159C63.6377 31.3208 63.6543 31.4785 63.6751 31.6403L63.6336 31.5448C62.7283 31.4619 62.6784 32.5114 62.0223 32.7645C62.0514 31.5075 61.2374 31.4245 60.2906 31.5324L60.2158 31.4411Z" fill="#4D6198"/>
<path d="M58.6045 32.7479C58.837 31.9431 59.3935 31.5324 60.2116 31.4411L60.2905 31.5324C60.141 32.4824 59.3686 32.6027 58.6377 32.7811L58.6045 32.7479Z" fill="#4D6198"/>
<path d="M63.6748 31.6402C63.6541 31.4785 63.6375 31.3208 63.6167 31.159C63.7454 31.0927 63.8783 31.0761 64.0154 31.101C64.2853 31.213 64.5552 31.3291 64.8293 31.4411C64.4431 31.5075 64.061 31.5739 63.6748 31.6402Z" fill="#314B81"/>
<path d="M62.3545 83.0521C63.3179 83.0396 64.2814 83.0272 65.2448 83.0147C65.2531 103.678 65.2573 124.346 65.2656 145.009C65.2656 149.021 66.7606 150.527 70.739 150.527C87.7613 150.531 104.784 150.535 121.806 150.527C122.479 150.527 123.201 150.709 123.783 150.166C124.617 150.041 125.236 150.328 125.082 151.24C124.904 152.298 125.822 153.626 124.435 154.385C124.073 154.584 123.658 154.63 123.517 155.09C122.852 155.198 121.881 154.7 121.802 155.961C121.428 160.989 121.428 160.989 126.93 161.437C126.897 161.628 126.872 161.815 126.843 162.005C120.323 162.064 113.799 162.122 107.279 162.176C107.047 162.051 106.818 161.823 106.586 161.823C98.1391 161.798 89.6882 161.794 81.2414 161.786C80.7306 161.786 80.2572 161.819 80.2572 162.507C77.6617 161.786 75.0163 162.325 72.3959 162.171C69.7382 161.362 67.0181 161.968 64.3312 161.852C64.298 161.852 64.2482 162.209 64.2066 162.4C63.1601 162.487 62.1012 162.823 61.0962 162.217C61.69 162.18 62.3337 162.271 62.8736 162.08C63.9159 161.711 63.7083 161.255 62.8071 160.91C62.8071 160.554 62.7199 160.238 62.3711 160.056L62.3877 160.089C62.3503 154.995 62.3088 149.9 62.2714 144.806C62.1842 143.989 62.0181 143.171 62.014 142.354C61.9932 135.659 61.9932 128.963 62.014 122.267C62.0181 121.45 62.1884 120.633 62.2839 119.82C62.3088 107.557 62.3296 95.3025 62.3545 83.0521Z" fill="#7C85A0"/>
<path d="M62.2836 119.807C62.1881 120.625 62.0178 121.438 62.0137 122.255C61.9929 128.951 61.9929 135.646 62.0137 142.342C62.0178 143.159 62.1798 143.976 62.2711 144.794C61.6565 149.842 61.7604 154.895 62.2296 159.948C62.2338 159.993 62.3334 160.031 62.3874 160.076L62.3708 160.043C62.3708 160.4 62.375 160.757 62.8069 160.898C63.708 161.242 63.9115 161.698 62.8733 162.068C62.3334 162.259 61.6898 162.167 61.0959 162.205C59.6881 162.093 58.8036 161.275 58.2056 160.068C58.2139 147.05 58.218 134.032 58.2263 121.019C58.9115 120.326 58.5918 119.451 58.5918 118.662C58.6167 107.445 58.6292 96.2317 58.5835 85.0143C58.5793 83.6245 58.7745 82.7077 60.4273 82.911C60.9215 82.9484 61.4157 82.9857 61.9099 83.0189C61.914 94.4852 61.914 105.952 61.9431 117.418C61.9389 118.223 61.6441 119.094 62.2836 119.807Z" fill="#515E83"/>
<path d="M80.2529 162.503C80.2529 161.819 80.7263 161.781 81.2371 161.781C89.6839 161.79 98.1348 161.794 106.582 161.819C106.814 161.819 107.043 162.051 107.275 162.171C106.947 162.673 106.424 162.553 105.959 162.549C97.3956 162.541 88.8243 162.52 80.2529 162.503Z" fill="#4D6198"/>
<path d="M64.2021 162.391C64.2437 162.2 64.2935 161.844 64.3267 161.844C67.0136 161.956 69.7337 161.354 72.3915 162.163C69.6838 162.951 66.9388 162.507 64.2021 162.391Z" fill="#4D6198"/>
<path d="M126.843 162.001C126.872 161.811 126.901 161.624 126.93 161.433C130.56 161.981 134.219 161.611 137.856 161.819C137.865 161.931 137.852 162.047 137.823 162.155C134.16 162.105 130.502 162.055 126.843 162.001Z" fill="#4D6198"/>
<path d="M143.151 161.79C144.617 161.06 146.149 161.296 147.677 161.487C146.211 162.229 144.708 162.391 143.151 161.79Z" fill="#283764"/>
<path d="M137.823 162.155C137.852 162.043 137.865 161.931 137.856 161.819C139.327 161.806 140.797 161.798 142.263 161.786C140.78 161.91 139.302 162.035 137.823 162.155Z" fill="#283764"/>
<path d="M60.4231 82.9152C58.7703 82.7119 58.5752 83.6287 58.5793 85.0184C58.625 96.2359 58.6125 107.449 58.5876 118.667C58.5876 119.451 58.9074 120.326 58.2222 121.023C58.2388 108.059 58.2554 95.095 58.272 82.1311C59.1109 82.0481 59.7795 82.4547 60.4231 82.9152Z" fill="#4D6198"/>
<path d="M49.4933 138.525C46.0257 137.397 42.6329 136.011 39.0199 135.343C38.8995 135.323 38.8331 135.007 38.7417 134.833C42.5207 135.493 46.2956 136.169 49.4933 138.525Z" fill="#4D6198"/>
<path d="M39.9834 113.995C40.814 114.539 41.0507 115.447 41.8771 116.501C40.4776 116.289 39.7467 115.883 39.0864 115.302L39.1155 115.265C40.2866 115.46 40.0748 114.763 39.8879 114.078C39.8921 114.078 39.9834 113.995 39.9834 113.995Z" fill="#C6D3EB"/>
<path d="M53.2762 133.896C54.4597 134.912 55.3194 136.14 55.7512 137.646L55.6806 137.708C54.6009 136.629 53.7704 135.385 53.1807 133.978L53.2762 133.896Z" fill="#C6D3EB"/>
<path d="M57.7446 152.14C56.777 151.622 55.4813 151.688 54.875 150.527C55.9589 150.398 56.7438 151.265 57.7529 151.39C57.7529 151.643 57.7487 151.892 57.7446 152.14Z" fill="#E1E9FD"/>
<path d="M37.0806 109.847C37.6994 110.249 38.2143 110.726 38.3264 111.51L38.2143 111.61C37.4294 111.569 36.7235 111.353 36.1836 110.739L36.2168 110.702C36.7276 110.689 37.0308 110.473 36.9975 109.917L37.0806 109.847Z" fill="#C6D3EB"/>
<path d="M38.3265 111.51C39.2193 112.112 39.7384 112.962 39.9834 113.995L39.8921 114.078C38.9826 113.493 38.4718 112.639 38.2144 111.61L38.3265 111.51Z" fill="#C6D3EB"/>
<path d="M36.6069 114.058C35.5853 114.02 34.7008 113.713 34.1069 112.817L34.1402 112.776C35.1576 112.821 36.0546 113.103 36.6318 114.024L36.6069 114.058Z" fill="#C6D3EB"/>
<path d="M53.048 140.429C52.2839 140.288 51.5945 140.014 51.1294 139.338C51.989 139.313 52.7697 139.434 53.048 140.429Z" fill="#4D6198"/>
<path d="M56.9763 139.318C57.5204 139.579 57.8069 139.977 57.7197 140.695C57.0843 140.38 56.9971 139.878 56.939 139.355L56.9763 139.318Z" fill="#C6D3EB"/>
<path d="M38.2597 114.891C37.6161 114.792 37.0305 114.584 36.6069 114.053L36.636 114.02C37.342 113.991 37.9649 114.132 38.3054 114.838L38.2597 114.891Z" fill="#C6D3EB"/>
<path d="M34.5847 106.122C34.9377 106.337 35.3031 106.549 35.2616 107.047C35.2574 107.092 35.1453 107.184 35.1121 107.171C34.6553 107.005 34.5598 106.607 34.5099 106.188C34.5058 106.188 34.5847 106.122 34.5847 106.122Z" fill="#C6D3EB"/>
<path d="M33.758 104.873C34.2605 105.138 34.5512 105.545 34.5844 106.122L34.5097 106.188C33.9989 105.931 33.7206 105.516 33.6749 104.948C33.6708 104.948 33.758 104.873 33.758 104.873Z" fill="#C6D3EB"/>
<path d="M55.7513 137.646C56.2745 137.899 56.5652 138.301 56.5777 138.89L56.5195 138.948C56.0046 138.691 55.7305 138.276 55.6807 137.708L55.7513 137.646Z" fill="#C6D3EB"/>
<path d="M32.4873 102.819C32.9981 103.077 33.2888 103.487 33.3303 104.064L33.2556 104.13C32.7282 103.873 32.4458 103.462 32.4417 102.869C32.4375 102.869 32.4873 102.819 32.4873 102.819Z" fill="#C6D3EB"/>
<path d="M51.607 131.419C52.1095 131.68 52.4043 132.087 52.4375 132.659L52.3462 132.742C51.8562 132.468 51.5696 132.062 51.5156 131.498C51.5198 131.498 51.607 131.419 51.607 131.419Z" fill="#C6D3EB"/>
<path d="M53.1807 133.979C52.6823 133.717 52.4041 133.302 52.3501 132.742L52.4415 132.663C52.9523 132.921 53.2222 133.336 53.2762 133.896L53.1807 133.979Z" fill="#C6D3EB"/>
<path d="M36.1834 110.739C35.7639 110.702 35.3611 110.627 35.1867 110.171C35.1742 110.137 35.2656 110.025 35.3113 110.021C35.8013 109.992 36.0297 110.316 36.2166 110.697C36.2166 110.702 36.1834 110.739 36.1834 110.739Z" fill="#C6D3EB"/>
<path d="M32.0264 102.454C31.6734 102.222 31.2 102.06 31.3952 101.446C32.0223 101.5 32.0098 101.981 32.0762 102.4L32.0264 102.454Z" fill="#C6D3EB"/>
<path d="M51.1543 139.355C50.7889 139.367 50.4816 139.276 50.2988 138.923C50.6809 138.878 51.0505 138.853 51.1543 139.355Z" fill="#4D6198"/>
<path d="M33.3096 112.361C33.6501 112.373 33.9657 112.431 34.1401 112.772L34.1069 112.813C33.7705 112.796 33.4591 112.726 33.2764 112.398L33.3096 112.361Z" fill="#C6D3EB"/>
<path d="M37.0017 109.917C36.6902 109.731 36.5864 109.44 36.5781 109.1L36.6487 109.03C36.7941 109.303 36.9394 109.577 37.0806 109.847L37.0017 109.917Z" fill="#C6D3EB"/>
<path d="M32.4542 111.979C32.2632 111.917 32.0763 111.859 31.8853 111.797C31.9226 111.743 31.9932 111.639 31.9974 111.639C32.1593 111.734 32.3171 111.842 32.4749 111.946L32.4542 111.979Z" fill="#C6D3EB"/>
<path d="M32.4793 111.95C32.8156 111.963 33.1354 112.017 33.3057 112.361L33.2724 112.398C32.9319 112.386 32.6246 112.315 32.4502 111.979C32.4543 111.979 32.4793 111.95 32.4793 111.95Z" fill="#C6D3EB"/>
<path d="M38.3055 114.842C38.6418 114.858 38.9533 114.925 39.1236 115.265L39.0945 115.302C38.7581 115.286 38.4467 115.223 38.2639 114.891C38.2598 114.891 38.3055 114.842 38.3055 114.842Z" fill="#C6D3EB"/>
<path d="M33.3262 104.064C33.4674 104.334 33.6128 104.603 33.754 104.873L33.6709 104.948C33.5297 104.674 33.3927 104.4 33.2515 104.13L33.3262 104.064Z" fill="#C6D3EB"/>
<path d="M30.3822 107.827C30.1911 107.769 30.0001 107.71 29.8091 107.652C29.8465 107.598 29.9171 107.491 29.9212 107.495C30.0832 107.594 30.241 107.702 30.3946 107.806L30.3822 107.827Z" fill="#C6D3EB"/>
<path d="M30.3984 107.81C30.5853 107.864 30.7763 107.922 30.9632 107.976C30.9258 108.03 30.8594 108.134 30.8553 108.134C30.6933 108.038 30.5396 107.93 30.3818 107.827L30.3984 107.81Z" fill="#C6D3EB"/>
<path d="M36.1874 108.669C36.0795 108.536 35.9756 108.403 35.8677 108.271C35.9383 108.221 36.013 108.175 36.0836 108.125C36.1293 108.295 36.1791 108.466 36.2248 108.636C36.2207 108.631 36.1874 108.669 36.1874 108.669Z" fill="#C6D3EB"/>
<path d="M32.4586 108.656C32.2676 108.607 32.0765 108.557 31.8896 108.503C31.927 108.449 31.9602 108.391 31.9976 108.337C32.1554 108.441 32.3132 108.544 32.471 108.644L32.4586 108.656Z" fill="#C6D3EB"/>
<path d="M50.3237 138.94C49.9624 138.944 49.6385 138.878 49.4683 138.509C49.8462 138.467 50.2241 138.426 50.3237 138.94Z" fill="#4D6198"/>
<path d="M36.574 109.1C36.4452 108.955 36.3165 108.81 36.1836 108.669L36.2168 108.636C36.358 108.768 36.4992 108.901 36.6404 109.034C36.6487 109.03 36.574 109.1 36.574 109.1Z" fill="#C6D3EB"/>
<path d="M32.0804 102.405C32.2174 102.542 32.3503 102.683 32.4873 102.819L32.4375 102.869C32.3005 102.732 32.1634 102.595 32.0264 102.454L32.0804 102.405Z" fill="#C6D3EB"/>
<path d="M56.939 139.355C56.7978 139.222 56.6607 139.085 56.5195 138.953L56.5777 138.894C56.7106 139.035 56.8434 139.177 56.9763 139.318L56.939 139.355Z" fill="#C6D3EB"/>
<path d="M32.4711 108.644C32.5292 108.706 32.5873 108.772 32.6496 108.835C32.6081 108.826 32.55 108.831 32.5292 108.806C32.496 108.764 32.4835 108.706 32.4628 108.652C32.4586 108.656 32.4711 108.644 32.4711 108.644Z" fill="#C6D3EB"/>
<path d="M66.9349 82.8986C71.4074 81.1936 74.6798 78.2813 76.316 73.689C76.5527 73.0211 76.7438 72.3905 76.4365 71.706C76.885 69.6982 77.2587 67.6945 76.0378 65.7986C74.6508 62.2766 72.8318 59.1487 68.9448 57.846C68.2596 57.6179 67.6035 57.3109 66.9349 57.0371C66.9307 53.9258 66.9639 50.8186 66.9141 47.7072C66.885 45.9068 67.6408 44.8282 69.4515 44.5793C70.199 44.4756 70.9548 44.3885 71.7064 44.3885C87.894 44.3802 104.077 44.3802 120.265 44.3843C120.751 44.3843 121.237 44.3511 121.718 44.4009C124.293 44.6789 125.053 45.521 125.053 48.1138C125.057 53.71 125.066 59.3063 125.037 64.9026C125.032 65.5871 125.41 66.4997 124.302 66.7901C124.102 66.5785 123.915 66.4624 123.791 66.8523C123.658 66.8109 123.525 66.7652 123.392 66.7237C117.246 60.36 109.646 59.157 101.324 60.5218C94.6714 61.3349 89.4596 64.6786 85.2694 69.7397C82.8193 72.6975 81.2786 76.0993 80.7637 79.9449C81.9597 78.0449 83.1557 76.1449 84.3517 74.2449C86.8267 72.013 89.4679 69.9886 92.1548 68.0222C92.948 67.8936 93.7038 67.6737 94.3391 67.151C95.3026 67.1925 96.2411 67.0473 97.1963 66.8897C103.496 65.8401 109.165 67.0847 114.135 71.341C116.224 73.129 117.404 75.5517 119.219 77.5014C119.36 78.2108 119.497 78.9202 119.638 79.6296C118.268 79.6213 116.897 79.613 115.531 79.6047C115.211 78.9368 114.584 79.165 114.082 79.1608C111 79.1359 107.919 79.1401 104.837 79.1567C104.327 79.1608 103.712 78.9534 103.388 79.6088C100.518 79.6088 97.6531 79.6503 94.7876 79.6005C93.2137 79.5715 92.1423 80.1108 91.7561 81.7121C91.3533 82.2141 91.2578 82.8903 90.4106 83.106C88.9114 83.4835 88.4962 84.6949 88.5003 86.1468C88.5169 98.9075 88.5003 111.668 88.5169 124.429C88.5211 126.686 89.2063 127.32 91.5028 127.32C102.69 127.333 113.878 127.341 125.066 127.349C125.061 132.705 125.057 138.056 125.057 143.412C124.036 143.877 122.582 142.914 121.864 144.379C121.486 144.607 121.515 144.893 121.739 145.208C121.606 146.088 121.897 147.013 121.432 147.851C121.349 147.374 121.262 146.897 121.166 146.337C120.473 147.15 121.606 148.564 120.074 148.892C119.464 148.212 118.65 148.49 117.923 148.49C101.478 148.477 85.0286 148.481 68.5835 148.481C67.2712 148.058 66.8933 147.171 66.8975 145.802C66.939 124.823 66.9307 103.861 66.9349 82.8986Z" fill="#E1E9FD"/>
<path d="M66.9348 82.8986C66.9307 103.861 66.939 124.823 66.8933 145.785C66.8891 147.154 67.267 148.038 68.5793 148.465C69.2645 149.174 70.1491 148.863 70.9381 148.863C87.3126 148.88 103.691 148.876 120.066 148.876C121.602 148.548 120.464 147.133 121.158 146.32C121.257 146.88 121.341 147.357 121.424 147.834C121.382 149.444 122.445 149.938 123.774 150.162C123.193 150.705 122.47 150.523 121.797 150.523C104.775 150.527 87.7528 150.527 70.7305 150.523C66.7521 150.523 65.2571 149.017 65.2571 145.005C65.2488 124.342 65.2446 103.674 65.2363 83.0106C65.8094 82.9732 66.37 82.9359 66.9348 82.8986Z" fill="#F4F9FB"/>
<path d="M121.802 155.957C121.877 154.696 122.848 155.194 123.517 155.086C124.123 155.098 124.725 155.107 125.332 155.119C127.221 155.878 129.098 156.687 131.195 155.94C132.69 156.459 134.248 156.297 135.788 156.364C138.882 156.994 141.976 157.015 145.07 156.351C146.274 156.351 147.483 156.351 149.077 156.351C147.532 157.131 146.278 157.231 145.003 157.164C141.905 157.002 138.853 157.811 135.751 157.575C131.652 157.264 127.553 156.994 123.45 156.745C122.757 156.704 122.346 156.227 121.802 155.957Z" fill="#32934D"/>
<path d="M132.125 145.963C136.673 145.914 141.22 145.86 145.772 145.806C145.601 146.685 144.941 146.797 144.206 146.793C140.689 146.776 137.175 146.76 133.658 146.739C133.022 146.739 132.395 146.694 132.125 145.963Z" fill="#283764"/>
<path d="M145.07 156.351C141.976 157.015 138.882 156.994 135.788 156.364C138.878 155.654 141.972 155.716 145.07 156.351Z" fill="#283764"/>
<path d="M131.195 155.945C129.098 156.691 127.217 155.878 125.332 155.123C127.358 154.87 129.252 155.571 131.195 155.945Z" fill="#283764"/>
<path d="M121.735 145.192C121.511 144.876 121.482 144.59 121.86 144.362C123.359 145.308 125.249 145.047 126.764 145.938C125.049 145.972 123.288 146.287 121.735 145.192Z" fill="#283764"/>
<path d="M156.178 143.906C156.124 143.873 156.07 143.835 156.021 143.802C156.079 143.831 156.137 143.86 156.199 143.889C156.195 143.889 156.178 143.906 156.178 143.906Z" fill="#32934D"/>
<path d="M164.941 59.6008C163.969 60.7002 162.732 62.036 161.448 61.9572C159.314 61.8244 157.69 63.1519 155.9 63.3428C147.051 64.2762 140.17 56.3858 141.756 46.9895C142.042 45.2887 142.827 43.6376 143.932 42.1607C145.66 39.85 145.722 39.7837 147.537 41.8745C148.18 41.2937 148.778 40.63 149.493 40.1363C150.29 39.5845 150.344 39.2361 149.509 38.6636C148.687 38.0994 148.778 37.5974 149.792 37.2946C151.502 36.7843 153.164 36.0874 154.991 36.075C157.2 36.7594 159.492 37.1536 161.627 38.1077C163.209 38.8171 164.023 40.5511 165.738 41.0365L165.751 41.0448C165.859 41.4845 166.116 41.7749 166.573 41.8703L166.577 41.8786C167.541 44.4507 168.475 47.0352 169.069 49.7234C169.227 51.4989 168.591 53.1417 168.201 54.826C166.897 56.2696 165.767 57.8336 164.941 59.6008Z" fill="#B4E7C2"/>
<path d="M165.742 41.0407C164.027 40.5553 163.213 38.8212 161.631 38.1118C159.496 37.1536 157.204 36.7595 154.995 36.0791C158.458 35.1623 164.475 37.9376 165.742 41.0407Z" fill="#283764"/>
<path d="M169.073 49.7234C168.479 47.0352 167.545 44.4507 166.581 41.8787C168.857 44.0359 169.38 46.749 169.073 49.7234Z" fill="#283764"/>
<path d="M164.941 59.6008C165.767 57.8336 166.897 56.2696 168.205 54.8301C167.823 56.9002 166.868 58.5803 164.941 59.6008Z" fill="#283764"/>
<path d="M166.573 41.8745C166.116 41.7791 165.858 41.4887 165.75 41.0489C166.407 40.9452 166.527 41.3725 166.573 41.8745Z" fill="#283764"/>
<path d="M39.946 144.731C38.1395 144.375 36.4327 143.773 34.9502 142.649C36.8314 142.827 38.5839 143.308 39.946 144.731Z" fill="#E1E9FD"/>
<path d="M30.3818 143.491C30.8262 142.358 32.3336 142.806 32.8777 141.823C33.6958 141.802 34.4267 141.993 34.9624 142.661C33.3303 142.346 31.9516 143.437 30.3818 143.491Z" fill="#E1E9FD"/>
<path d="M32.8904 141.832C31.7774 141.554 30.6686 141.28 29.5557 141.002C29.5557 140.861 29.5557 140.72 29.5557 140.579C30.8098 140.616 32.0556 140.674 32.8904 141.832Z" fill="#E1E9FD"/>
<path d="M23.7544 138.098C22.4545 138.173 21.3665 137.7 20.4155 136.845C21.7195 136.762 22.8117 137.231 23.7544 138.098Z" fill="#E1E9FD"/>
<path d="M44.5141 146.391C43.5715 146.428 42.6745 146.337 42.0059 145.553C42.9485 145.515 43.8497 145.594 44.5141 146.391Z" fill="#E1E9FD"/>
<path d="M27.0762 139.342C26.1335 139.376 25.2323 139.293 24.5679 138.504C25.5106 138.467 26.4117 138.554 27.0762 139.342Z" fill="#E1E9FD"/>
<path d="M48.667 148.05C47.7284 148.079 46.8231 148.004 46.1587 147.212C47.0972 147.179 48.0025 147.258 48.667 148.05Z" fill="#E1E9FD"/>
<path d="M52.8154 149.709C51.8769 149.738 50.9716 149.664 50.3071 148.871C51.2498 148.834 52.151 148.921 52.8154 149.709Z" fill="#E1E9FD"/>
<path d="M42.0222 145.561C41.2041 145.578 40.4815 145.37 39.9292 144.723C40.739 144.727 41.5986 144.607 42.0222 145.561Z" fill="#E1E9FD"/>
<path d="M46.1753 147.22C45.4652 147.241 44.8132 147.146 44.4976 146.382C45.2077 146.357 45.8514 146.465 46.1753 147.22Z" fill="#E1E9FD"/>
<path d="M54.8916 150.539C54.306 150.494 53.6582 150.709 53.2139 150.116C53.7994 150.162 54.4514 149.933 54.8916 150.539Z" fill="#E1E9FD"/>
<path d="M29.1526 140.172C28.6875 140.16 28.1891 140.259 27.8901 139.749C28.3552 139.757 28.8494 139.687 29.1526 140.172Z" fill="#E1E9FD"/>
<path d="M24.5845 138.513C24.2398 138.496 23.9117 138.442 23.7373 138.09C24.0861 138.098 24.4101 138.156 24.5845 138.513Z" fill="#E1E9FD"/>
<path d="M27.9067 139.757C27.5579 139.753 27.234 139.687 27.0596 139.334C27.4043 139.347 27.7282 139.409 27.9067 139.757Z" fill="#E1E9FD"/>
<path d="M49.4932 148.465C49.1443 148.457 48.8246 148.39 48.646 148.042C48.9948 148.058 49.3187 148.112 49.4932 148.465Z" fill="#E1E9FD"/>
<path d="M50.3237 148.88C49.9791 148.863 49.6551 148.805 49.4766 148.457C49.8295 148.461 50.1493 148.531 50.3237 148.88Z" fill="#E1E9FD"/>
<path d="M20.4321 136.853C20.0874 136.841 19.7594 136.783 19.585 136.43C19.9338 136.443 20.2577 136.497 20.4321 136.853Z" fill="#E1E9FD"/>
<path d="M29.564 140.587C29.4228 140.446 29.2774 140.301 29.1362 140.16C29.2774 140.301 29.4228 140.442 29.564 140.587Z" fill="#E1E9FD"/>
<path d="M26.2334 144.731C27.4336 143.686 28.8787 143.454 30.3986 143.478C29.1071 144.225 27.7409 144.719 26.2334 144.731Z" fill="#E1E9FD"/>
<path d="M154.708 139.002C146.569 140.521 138.433 140.604 130.302 138.961C138.438 137.604 146.577 137.214 154.708 139.002Z" fill="#B4E7C2"/>
<path d="M129.609 123.981C129.58 128.536 129.551 133.091 129.521 137.642C128.915 138.807 127.707 138.351 126.785 138.662C126.735 134.887 126.685 131.108 126.635 127.333C126.648 126.37 126.66 125.404 126.668 124.441C126.677 124.3 126.685 124.159 126.693 124.018C127.669 124.006 128.637 123.993 129.609 123.981Z" fill="#7C85A0"/>
<path d="M126.635 127.333C126.685 131.108 126.735 134.883 126.785 138.662C126.781 139.753 126.714 140.848 126.789 141.935C126.88 143.288 126.224 143.615 125.049 143.4C125.053 138.044 125.057 132.692 125.057 127.337C125.19 127.324 125.327 127.316 125.46 127.312C125.854 127.316 126.245 127.324 126.635 127.333Z" fill="#F4F9FB"/>
<path d="M28.322 141.404C27.7365 142.093 26.935 141.728 26.229 141.827C26.8145 141.147 27.616 141.504 28.322 141.404Z" fill="#E1E9FD"/>
<path d="M26.2456 141.819C25.8054 142.433 25.1493 142.184 24.5679 142.242C25.0081 141.637 25.6684 141.89 26.2456 141.819Z" fill="#E1E9FD"/>
<path d="M29.564 140.989C29.265 141.487 28.7625 141.388 28.3057 141.413C28.6005 140.906 29.103 141.006 29.564 140.989Z" fill="#E1E9FD"/>
<path d="M94.3391 67.1427C93.7038 67.6654 92.948 67.8853 92.1548 68.0139C88.6498 68.9556 86.0502 71.034 84.3517 74.2366C83.1557 76.1366 81.9597 78.0366 80.7637 79.9366C81.2786 76.091 82.8193 72.6892 85.2695 69.7314C89.4638 64.6703 94.6714 61.3225 101.324 60.5135C104.779 60.7997 108.226 60.2314 111.714 61.2436C115.008 62.1978 117.993 63.5917 120.959 65.2179C121.802 65.6825 122.071 67.0971 123.392 66.7154C123.525 66.7569 123.658 66.8026 123.791 66.8441C123.932 66.9561 124.077 67.0681 124.218 67.1759C124.376 67.3004 124.53 67.4248 124.688 67.5493C124.9 68.1508 125.273 68.603 125.888 68.8229L125.892 68.827C126.86 69.9761 127.831 71.1253 128.799 72.2744C129.592 75.1244 130.954 77.7379 132.192 80.4012C132.279 80.5879 132.624 80.6543 132.844 80.7746C133.209 83.9066 133.209 83.9108 136.083 83.4628C136.486 83.4005 136.984 83.2221 137.221 83.5831C137.578 84.1224 136.984 84.4128 136.689 84.7405C136.324 85.1387 135.913 85.4914 135.518 85.8647C135.356 85.9933 135.194 86.1219 135.032 86.2547L135.028 86.2671C134.663 86.4289 134.6 86.74 134.617 87.0927L134.613 87.0968C134.26 87.0761 133.953 87.1507 133.787 87.5075V87.5117C132.1 89.0134 130.186 90.3119 129.227 92.4815L129.21 92.4857C129.073 92.6226 128.94 92.7553 128.803 92.8922L128.799 92.9046C128.234 92.9046 127.674 92.9046 127.109 92.9046L127.105 92.8963C126.947 92.5271 126.631 92.4732 126.282 92.4898H126.291C126.145 92.3446 126.004 92.1994 125.859 92.0542L125.875 92.0708C125.705 91.6974 125.373 91.6601 125.024 91.6435L125.041 91.6643C124.326 90.0215 122.923 89.4158 121.287 89.1544L121.312 89.1752C121.104 88.8392 121.129 88.2957 120.535 88.2999C119.135 87.6071 117.765 86.8769 116.594 85.8025C116.756 85.6283 116.835 85.4706 116.922 85.4665C120.954 85.2051 121.511 84.0145 119.638 79.6088C119.497 78.8995 119.36 78.1901 119.219 77.4807C119.032 75.7881 118.205 74.2573 117.159 73.1082C111.129 66.4831 103.616 64.4504 94.9455 66.396C94.5426 66.4956 94.4139 66.7901 94.3391 67.1427Z" fill="#515E83"/>
<path d="M125.464 127.312C125.331 127.316 125.194 127.324 125.061 127.337C113.874 127.329 102.686 127.32 91.4986 127.308C89.2021 127.304 88.5169 126.673 88.5127 124.416C88.4961 111.656 88.5127 98.895 88.4961 86.1344C88.4961 84.6824 88.9114 83.4711 90.4064 83.0936C91.2535 82.8778 91.3491 82.2016 91.7519 81.6997C91.7685 94.5308 91.7893 107.362 91.8059 120.189C91.81 123.541 92.2378 123.977 95.6098 123.981C105.971 123.997 116.328 124.006 126.689 124.014C126.681 124.155 126.673 124.296 126.664 124.437C124.476 124.644 125.88 126.358 125.464 127.312Z" fill="#C6D3EB"/>
<path d="M144.929 116.862C142.719 116.862 140.514 116.85 138.305 116.866C137.341 116.874 136.602 116.588 136.706 115.493C136.802 114.497 136.847 113.298 138.301 113.29C142.852 113.261 147.404 113.29 151.959 113.257C153.301 113.249 153.317 114.091 153.313 115.053C153.309 116.007 153.309 116.879 151.968 116.858C149.621 116.825 147.279 116.85 144.933 116.85C144.929 116.858 144.929 116.862 144.929 116.862Z" fill="#EEF3F7"/>
<path d="M103.044 106.64C104.559 106.64 106.079 106.707 107.591 106.619C108.895 106.545 109.252 107.092 109.231 108.312C109.21 109.494 109.111 110.278 107.591 110.237C104.493 110.154 101.387 110.15 98.2886 110.253C96.424 110.316 96.6025 108.997 96.4738 107.901C96.3035 106.454 97.4663 106.682 98.2886 106.657C99.8708 106.603 101.461 106.64 103.044 106.64Z" fill="#EEF3F7"/>
<path d="M146.93 110.224C145.547 110.224 144.16 110.158 142.781 110.241C141.411 110.328 140.784 109.959 140.805 108.42C140.825 106.864 141.536 106.582 142.86 106.611C145.693 106.669 148.533 106.682 151.365 106.603C152.736 106.565 153.354 106.902 153.35 108.428C153.346 110.005 152.59 110.283 151.286 110.237C149.837 110.183 148.384 110.224 146.93 110.224Z" fill="#EEF3F7"/>
<path d="M117.495 110.224C116.116 110.224 114.733 110.171 113.355 110.241C112.001 110.307 111.336 109.913 111.336 108.395C111.336 106.806 112.15 106.599 113.429 106.615C116.328 106.661 119.227 106.698 122.125 106.607C123.571 106.561 123.811 107.188 123.845 108.453C123.878 109.834 123.375 110.303 122.051 110.245C120.535 110.171 119.015 110.224 117.495 110.224Z" fill="#EEF3F7"/>
<path d="M132.325 110.22C130.95 110.216 129.571 110.171 128.201 110.233C126.868 110.295 126.191 109.942 126.183 108.407C126.178 106.823 126.959 106.599 128.238 106.615C131.124 106.657 134.015 106.678 136.901 106.615C138.263 106.586 138.695 107.134 138.699 108.449C138.703 109.797 138.188 110.303 136.859 110.241C135.352 110.166 133.836 110.22 132.325 110.22Z" fill="#EEF3F7"/>
<path d="M111.366 93.7343C111.025 94.3608 110.402 94.5267 109.788 94.5308C106.756 94.5474 103.729 94.5142 100.697 94.5101C99.742 94.5101 99.3516 94.0455 99.3641 93.1121C99.389 91.3241 99.3848 89.5361 99.3724 87.7481C99.3682 86.8603 99.6547 86.321 100.664 86.321C103.695 86.3293 106.723 86.2754 109.754 86.3128C110.423 86.321 111.133 86.5243 111.37 87.3416C111.37 89.337 111.37 91.3324 111.366 93.3278L111.386 93.3236C111.262 93.3236 111.137 93.3278 111.017 93.3319C111.008 91.8177 110.971 90.3036 111.008 88.7935C111.038 87.5739 110.527 87.0346 109.285 87.0761C107.773 87.1258 106.254 87.0678 104.738 87.0885C99.5385 87.1632 100.215 86.2464 100.132 91.9173C100.112 93.2324 100.622 93.7924 101.955 93.7675C104.916 93.7094 107.877 93.7136 110.838 93.6929C111.013 93.7094 111.191 93.7219 111.366 93.7343Z" fill="#C6D3EB"/>
<path d="M151.51 82.1394C153.317 83.8361 153.853 86.9143 152.76 88.5197C152.461 88.9636 152.034 89.3909 151.602 89.0715C150.821 88.5031 151.801 88.3994 151.996 88.0883C152.856 86.7317 152.607 85.3586 152.071 83.9813C151.863 83.442 151.216 83.0687 151.51 82.1394Z" fill="#C6D3EB"/>
<path d="M129.227 92.4898C130.186 90.3202 132.1 89.0217 133.786 87.52C133.018 89.868 131.199 91.2494 129.227 92.4898Z" fill="#4D6198"/>
<path d="M103.392 79.5964C103.716 78.9409 104.331 79.1484 104.841 79.1442C107.923 79.1276 111.004 79.1235 114.086 79.1484C114.588 79.1525 115.215 78.9244 115.535 79.5923C111.486 79.5923 107.437 79.5964 103.392 79.5964Z" fill="#314B81"/>
<path d="M121.287 89.1669C122.923 89.4283 124.326 90.0339 125.041 91.6767C123.546 91.2079 122.433 90.1584 121.287 89.1669Z" fill="#314B81"/>
<path d="M111.366 93.332C111.366 91.3365 111.366 89.3453 111.37 87.3457C112.018 89.3411 112.051 91.3365 111.366 93.332Z" fill="#E1E9FD"/>
<path d="M127.113 92.9171C127.678 92.9171 128.238 92.9171 128.803 92.9171C128.82 93.4066 128.595 93.7343 128.101 93.7468C127.565 93.7551 127.158 93.5269 127.113 92.9171Z" fill="#4D6198"/>
<path d="M120.535 88.3082C121.129 88.304 121.104 88.8475 121.312 89.1835C120.797 89.1213 120.577 88.7977 120.535 88.3082Z" fill="#314B81"/>
<path d="M133.787 87.5158C133.953 87.159 134.26 87.0844 134.613 87.1051C134.439 87.4453 134.169 87.5946 133.787 87.5158Z" fill="#4D6198"/>
<path d="M126.282 92.5022C126.631 92.4898 126.947 92.5396 127.104 92.9088C126.739 92.9586 126.444 92.8673 126.282 92.5022Z" fill="#4D6198"/>
<path d="M125.024 91.6518C125.373 91.6684 125.709 91.7057 125.875 92.0791C125.497 92.1289 125.227 91.9588 125.024 91.6518Z" fill="#314B81"/>
<path d="M134.617 87.101C134.596 86.7483 134.663 86.4372 135.028 86.2754C135.099 86.6529 134.954 86.9267 134.617 87.101Z" fill="#4D6198"/>
<path d="M125.863 92.0667C126.008 92.2118 126.149 92.357 126.295 92.5022C126.149 92.3529 126.004 92.2118 125.863 92.0667Z" fill="#314B81"/>
<path d="M128.807 92.9047C128.944 92.7678 129.077 92.635 129.214 92.4981C129.202 92.7595 129.069 92.8964 128.807 92.9047Z" fill="#4D6198"/>
<path d="M111.017 93.3361C111.142 93.3278 111.262 93.3236 111.387 93.3278C111.378 93.4647 111.37 93.5974 111.366 93.7343C111.191 93.7219 111.013 93.7094 110.838 93.697C110.888 93.5725 110.951 93.4522 111.017 93.3361Z" fill="#E1E9FD"/>
<path d="M135.032 86.2671C135.194 86.1385 135.356 86.0099 135.518 85.8772C135.36 86.0058 135.198 86.1344 135.032 86.2671Z" fill="#4D6198"/>
<path d="M128.799 72.2827C127.831 71.1336 126.86 69.9844 125.892 68.8353C127.188 68.5864 126.693 67.5493 126.698 66.8358C126.735 60.7666 126.66 54.7015 126.752 48.6323C126.781 46.6743 126.478 44.9527 125.053 43.538C125.111 41.9077 123.89 42.3184 123.014 42.3142C114.459 42.2976 105.9 42.3018 97.3457 42.3018C87.894 42.3018 78.438 42.2935 68.9863 42.3142C68.1184 42.3142 66.8891 41.8828 66.9224 43.5131C65.7097 44.6706 65.1948 46.0603 65.2446 47.757C65.3235 50.6485 65.2737 53.5441 65.282 56.4397C64.3103 56.4314 63.3427 56.4273 62.3709 56.419C62.3751 49.6653 62.4166 42.9075 62.3543 36.1538C62.3377 34.4446 62.5827 32.9014 63.6417 31.5407L63.6832 31.6361C64.0694 31.5697 64.4515 31.5075 64.8377 31.4411C73.4173 31.4536 81.997 31.466 90.5725 31.4785C92.8856 33.5029 95.4313 35.0918 98.496 35.714C98.4877 35.9422 98.4794 36.1745 98.467 36.4027C94.7876 36.4027 91.1082 36.4027 87.3915 36.4027C87.487 37.2241 87.8649 37.2324 88.193 37.2324C93.305 37.2448 98.4171 37.2448 103.525 37.2448C104.073 37.2448 104.684 37.2988 104.738 36.4898C105.332 36.4939 105.925 36.494 105.946 35.6643C107.586 34.5815 109.887 34.7557 111.129 32.9221C113.38 31.0138 116.087 31.5158 118.691 31.4992C121.021 31.4868 123.355 31.4909 125.684 31.4992C128.533 31.5117 129.023 31.9348 129.621 34.8346C129.625 46.9978 129.63 59.1611 129.634 71.3202C129.38 71.6646 129.991 72.7556 128.799 72.2827Z" fill="#7C85A0"/>
<path d="M112.669 26.3302C111.777 28.6617 111.224 28.9396 109.094 28.0394C108.571 27.8195 108.317 28.1348 108.043 28.4169C107.62 28.8483 106.864 29.3669 107.316 29.9518C108.67 31.6942 106.963 31.7315 106.158 31.997C102.898 33.0756 99.6338 33.3038 96.461 31.5988C92.5532 29.4955 89.8747 26.4464 89.3722 21.9246C88.795 16.7431 90.8091 12.6694 95.1404 9.77789C96.0457 9.17636 97.0798 8.76567 98.0515 8.2637C100.618 8.45453 103.168 8.13095 105.767 8.86523C107.404 9.32571 108.562 10.8192 110.365 10.674C111.943 14.113 115.198 16.9298 114.322 21.2816C113.633 22.916 112.595 24.4427 112.669 26.3302Z" fill="#B4E7C2"/>
<path d="M110.365 10.6698C108.562 10.815 107.4 9.32156 105.768 8.86109C103.168 8.12681 100.618 8.45039 98.0518 8.25956C102.682 6.36786 106.681 7.71196 110.365 10.6698Z" fill="#283764"/>
<path d="M98.4629 36.4068C98.4712 36.1787 98.4795 35.9463 98.492 35.7182C100.975 35.7016 103.459 35.685 105.942 35.6684C105.917 36.4981 105.327 36.4981 104.734 36.4939C102.641 36.4608 100.552 36.4359 98.4629 36.4068Z" fill="#283764"/>
<path d="M112.669 26.3302C112.599 24.4427 113.633 22.916 114.322 21.2774C115.024 23.3724 114.169 24.9571 112.669 26.3302Z" fill="#283764"/>
<path d="M69.2772 61.3225C70.1991 61.7083 71.5238 61.5423 71.366 63.3054C71.3411 63.6 72.8029 64.384 73.1351 65.4336C74.6093 70.0715 74.2481 74.3528 70.5355 77.8292C67.4915 80.675 63.6667 81.2558 59.9334 79.8992C54.8379 78.0449 51.9268 72.8718 53.1519 67.5659C53.2931 66.9519 53.2391 66.4209 54.2565 66.5661C54.9168 66.6615 55.8803 65.9272 55.4027 65.1224C54.4185 63.4672 55.3902 62.7578 56.5156 61.9572C57.1303 61.5216 57.6909 61.0113 58.2723 60.5342C59.7963 61.1067 60.9093 59.8207 62.3005 59.6257C64.925 59.2524 67.0388 60.4305 69.2772 61.3225Z" fill="#B4E7C2"/>
<path d="M125.049 43.538C126.473 44.9527 126.776 46.6743 126.747 48.6323C126.66 54.6974 126.731 60.7666 126.693 66.8358C126.689 67.5493 127.183 68.5864 125.888 68.8353L125.884 68.8312C125.867 68.0471 125.427 67.6572 124.683 67.5576C124.526 67.4331 124.372 67.3087 124.214 67.1842C124.247 67.0515 124.272 66.9229 124.297 66.786C125.402 66.4956 125.028 65.5829 125.032 64.8984C125.057 59.3022 125.053 53.7059 125.049 48.1096C125.045 45.5168 124.289 44.6747 121.714 44.3968C121.237 44.347 120.747 44.3802 120.261 44.3802C104.073 44.3802 87.8897 44.376 71.7021 44.3843C70.9504 44.3843 70.1946 44.4714 69.4471 44.5751C67.6406 44.8282 66.8848 45.9026 66.9098 47.7031C66.9596 50.8103 66.9305 53.9216 66.9305 57.033C66.1415 57.4893 65.83 56.6264 65.2736 56.4439C65.2694 53.5483 65.3192 50.6526 65.2362 47.7612C65.1905 46.0644 65.7054 44.6747 66.9139 43.5173C68.0227 42.8826 69.2104 42.7 70.4895 42.7C87.4868 42.7249 104.484 42.7291 121.482 42.7042C122.765 42.7 123.952 42.866 125.049 43.538Z" fill="#F4F9FB"/>
<path d="M58.6375 32.7769C59.3684 32.5985 60.1449 32.4782 60.2903 31.5282C61.2371 31.4162 62.0469 31.5033 62.022 32.7603C62.022 40.6673 62.022 48.5742 62.022 56.4812C61.0046 57.0329 59.9082 57.2819 58.7579 57.2943C58.7081 49.74 58.6582 42.1856 58.6084 34.6313C58.6084 34.0132 58.6292 33.395 58.6375 32.7769Z" fill="#515E83"/>
<path d="M62.2839 119.807C61.6444 119.094 61.9351 118.223 61.9351 117.426C61.9101 105.96 61.9101 94.4935 61.9018 83.0272C62.0513 83.0355 62.2008 83.0438 62.3503 83.0521C62.3296 95.3024 62.3088 107.557 62.2839 119.807Z" fill="#314B81"/>
<path d="M62.022 56.4812C62.022 48.5743 62.022 40.6673 62.022 32.7603C62.674 32.5073 62.7238 31.4577 63.6333 31.5407C62.5701 32.9055 62.3293 34.4446 62.3459 36.1538C62.4082 42.9075 62.3667 49.6653 62.3625 56.419C62.2504 56.4439 62.1383 56.4646 62.022 56.4812Z" fill="#314B81"/>
<path d="M69.2769 61.3225C67.0344 60.4305 64.9247 59.2524 62.3002 59.6174C60.909 59.8124 59.796 61.0984 58.272 60.5259C61.7769 58.0327 66.2204 58.3522 69.2769 61.3225Z" fill="#283764"/>
<path d="M76.0376 65.7945C77.2585 67.6903 76.8848 69.694 76.4363 71.7019C75.9753 69.7563 76.1165 67.7692 76.0376 65.7945Z" fill="#283764"/>
<path d="M62.3876 160.076C62.3336 160.035 62.2339 159.998 62.2298 159.948C61.7605 154.895 61.6567 149.842 62.2713 144.794C62.3087 149.888 62.3461 154.982 62.3876 160.076Z" fill="#314B81"/>
<path d="M62.8027 160.902C62.375 160.761 62.3667 160.404 62.3667 160.047C62.7155 160.226 62.8027 160.541 62.8027 160.902Z" fill="#314B81"/>
<path d="M94.3394 67.1427C94.4141 66.7901 94.5428 66.4956 94.9457 66.4043C103.617 64.4587 111.129 66.4956 117.159 73.1165C118.205 74.2656 119.032 75.7964 119.219 77.489C117.404 75.5392 116.22 73.1165 114.136 71.3285C109.165 67.0722 103.496 65.8318 97.1965 66.8772C96.2413 67.039 95.307 67.1842 94.3394 67.1427Z" fill="#4D6198"/>
<path d="M120.07 148.876C103.695 148.876 87.3167 148.88 70.9423 148.863C70.1533 148.863 69.2687 149.174 68.5835 148.465C85.0285 148.465 101.478 148.461 117.923 148.473C118.645 148.473 119.455 148.195 120.07 148.876Z" fill="#E8EBF3"/>
<path d="M123.392 66.7155C122.067 67.093 121.802 65.6825 120.959 65.2179C117.994 63.5917 115.012 62.1978 111.715 61.2436C108.226 60.2314 104.775 60.7998 101.324 60.5135C109.646 59.1487 117.246 60.3559 123.392 66.7155Z" fill="#4D6198"/>
<path d="M84.3516 74.2366C86.0501 71.034 88.6497 68.9556 92.1547 68.0139C89.4678 69.9803 86.8266 72.0047 84.3516 74.2366Z" fill="#314B81"/>
<path d="M124.301 66.7818C124.276 66.9146 124.251 67.0473 124.218 67.1801C124.077 67.0681 123.932 66.9561 123.791 66.8482C123.915 66.4582 124.102 66.5702 124.301 66.7818Z" fill="#7C85A0"/>
<path d="M125.464 127.312C125.875 126.358 124.476 124.644 126.673 124.437C126.66 125.404 126.648 126.366 126.635 127.329C126.245 127.324 125.855 127.316 125.464 127.312Z" fill="#E1E9FD"/>
<path d="M124.688 67.5534C125.431 67.653 125.871 68.043 125.888 68.827C125.269 68.6071 124.899 68.155 124.688 67.5534Z" fill="#7C85A0"/>
<path d="M111.017 93.3361C110.946 93.4522 110.888 93.5726 110.838 93.697C107.877 93.7177 104.916 93.7094 101.955 93.7717C100.626 93.8007 100.116 93.2407 100.132 91.9215C100.215 86.2505 99.5384 87.1673 104.738 87.0927C106.253 87.0719 107.769 87.13 109.285 87.0802C110.527 87.0387 111.037 87.578 111.008 88.7977C110.971 90.3119 111.013 91.8261 111.017 93.3361Z" fill="#283764"/>
<path d="M125.049 43.538C123.953 42.866 122.765 42.7 121.486 42.7042C104.488 42.7291 87.4911 42.7249 70.4937 42.7C69.2146 42.7 68.0269 42.8826 66.9181 43.5173C66.8849 41.887 68.1141 42.3225 68.9821 42.3184C78.4338 42.2976 87.8897 42.3059 97.3415 42.3059C105.896 42.3059 114.455 42.2976 123.01 42.3184C123.89 42.3184 125.111 41.9077 125.049 43.538Z" fill="#283764"/>
<path d="M98.4629 36.4068C100.552 36.4359 102.641 36.4649 104.734 36.4939C104.68 37.3029 104.073 37.249 103.525 37.249C98.4131 37.2531 93.301 37.249 88.1931 37.2365C87.8692 37.2365 87.4871 37.2241 87.3916 36.4068C91.1042 36.4068 94.7836 36.4068 98.4629 36.4068Z" fill="#4D6198"/>
</g>
<defs>
<clipPath id="clip0_283_383">
<rect width="207" height="168" fill="white"/>
</clipPath>
</defs>
</svg>
