<svg width="146" height="74" viewBox="0 0 146 74" fill="none" xmlns="http://www.w3.org/2000/svg">
<g clip-path="url(#clip0_241_67)">
<path d="M10.7 40.5C13.2957 40.5 15.4 38.3957 15.4 35.8C15.4 33.2043 13.2957 31.1 10.7 31.1C8.10426 31.1 6 33.2043 6 35.8C6 38.3957 8.10426 40.5 10.7 40.5Z" fill="#69D085"/>
<path d="M8.40002 35.2L9.80002 37.3L13.1 34.3" stroke="white" stroke-miterlimit="10" stroke-linecap="round"/>
<path d="M140.3 25.6H129.7C127 25.6 124.8 27.8 124.8 30.5V41.1C124.8 43.8 127 46 129.7 46H140.3C143 46 145.2 43.8 145.2 41.1V30.5C145.2 27.8 143.1 25.6 140.3 25.6Z" fill="white" stroke="#AAAAAA" stroke-miterlimit="10"/>
<path d="M61.1 25.6H50.5C47.8 25.6 45.6 27.8 45.6 30.5V41.1C45.6 43.8 47.8 46 50.5 46H61.1C63.8 46 66 43.8 66 41.1V30.5C66 27.8 63.9 25.6 61.1 25.6Z" fill="white" stroke="#AAAAAA" stroke-miterlimit="10"/>
<path d="M61.1 52.5H50.5C47.8 52.5 45.6 54.7 45.6 57.4V68C45.6 70.7 47.8 72.9 50.5 72.9H61.1C63.8 72.9 66 70.7 66 68V57.4C66 54.7 63.9 52.5 61.1 52.5Z" fill="white" stroke="#AAAAAA" stroke-miterlimit="10"/>
<path d="M106.5 25.6H95.9C93.2 25.6 91 27.8 91 30.5V41.1C91 43.8 93.2 46 95.9 46H106.5C109.2 46 111.4 43.8 111.4 41.1V30.5C111.4 27.8 109.3 25.6 106.5 25.6Z" fill="#515E83" stroke="#515E83" stroke-miterlimit="10"/>
<path d="M61.2 0.5H50.5999C47.8999 0.5 45.7 2.7 45.7 5.4V16C45.7 18.7 47.8999 20.9 50.5999 20.9H61.2C63.9 20.9 66.0999 18.7 66.0999 16V5.3C65.9999 2.7 63.8 0.5 61.2 0.5Z" fill="white" stroke="#283764" stroke-miterlimit="10"/>
<path d="M16 25.6H5.4C2.7 25.6 0.5 27.8 0.5 30.5V41.1C0.5 43.8 2.7 46 5.4 46H16C18.7 46 20.9 43.8 20.9 41.1V30.5C20.9 27.8 18.7 25.6 16 25.6Z" stroke="#69D085" stroke-miterlimit="10"/>
<path d="M68.9 11.4H69.4" stroke="#283764" stroke-miterlimit="10"/>
<path d="M70.5 11.4H78.2" stroke="#283764" stroke-miterlimit="10" stroke-dasharray="1.04 1.04"/>
<path d="M78.7 11.4H79.2V11.9" stroke="#283764" stroke-miterlimit="10"/>
<path d="M79.2 12.9V34.8" stroke="#283764" stroke-miterlimit="10" stroke-dasharray="1.02 1.02"/>
<path d="M79.2 35.3V35.8" stroke="#283764" stroke-miterlimit="10"/>
<path d="M88.5 36.6H88" stroke="#283764" stroke-miterlimit="10"/>
<path d="M86.9 36.6H81.1" stroke="#283764" stroke-miterlimit="10" stroke-dasharray="1.06 1.06"/>
<path d="M80.6 36.6H80.1" stroke="#283764" stroke-miterlimit="10"/>
<path d="M43.2 11.4H42.7" stroke="#00D989" stroke-miterlimit="10"/>
<path d="M41.7 11.4H37.8H33.9" stroke="#69D085" stroke-miterlimit="10" stroke-dasharray="1.04 1.04"/>
<path d="M33.4 11.4H32.9V11.9" stroke="#00D989" stroke-miterlimit="10"/>
<path d="M32.9 12.9V34.8" stroke="#69D085" stroke-miterlimit="10" stroke-dasharray="1.02 1.02"/>
<path d="M32.9 35.3V35.8" stroke="#00D989" stroke-miterlimit="10"/>
<path d="M43.2 61.7H42.7" stroke="#AAAAAA" stroke-miterlimit="10"/>
<path d="M41.7 61.7H33.9" stroke="#AAAAAA" stroke-miterlimit="10" stroke-dasharray="1.04 1.04"/>
<path d="M33.4 61.7H32.9V61.2" stroke="#AAAAAA" stroke-miterlimit="10"/>
<path d="M32.9 60.2V38.3" stroke="#AAAAAA" stroke-miterlimit="10" stroke-dasharray="1.02 1.02"/>
<path d="M32.9 37.8V37.3" stroke="#AAAAAA" stroke-miterlimit="10"/>
<path d="M68.9 61.7H69.4" stroke="#AAAAAA" stroke-miterlimit="10"/>
<path d="M70.5 61.7H78.2" stroke="#AAAAAA" stroke-miterlimit="10" stroke-dasharray="1.04 1.04"/>
<path d="M78.7 61.7H79.2V61.2" stroke="#AAAAAA" stroke-miterlimit="10"/>
<path d="M79.2 60.2V38.3" stroke="#AAAAAA" stroke-miterlimit="10" stroke-dasharray="1.02 1.02"/>
<path d="M79.2 37.8V37.3" stroke="#AAAAAA" stroke-miterlimit="10"/>
<path d="M23.7 36.6H24.2" stroke="#00D989" stroke-miterlimit="10"/>
<path d="M25.2 36.6H31" stroke="#69D085" stroke-miterlimit="10" stroke-dasharray="1.06 1.06"/>
<path d="M31.6 36.6H32.1" stroke="#00D989" stroke-miterlimit="10"/>
<path d="M35.3 36.6H35.8" stroke="#AAAAAA" stroke-miterlimit="10"/>
<path d="M36.9 36.6H42.7" stroke="#AAAAAA" stroke-miterlimit="10" stroke-dasharray="1.06 1.06"/>
<path d="M43.2 36.6H43.7" stroke="#AAAAAA" stroke-miterlimit="10"/>
<path d="M68.7 36.6H69.2" stroke="#AAAAAA" stroke-miterlimit="10"/>
<path d="M70.2 36.6H76.1" stroke="#AAAAAA" stroke-miterlimit="10" stroke-dasharray="1.06 1.06"/>
<path d="M76.6 36.6H77.1" stroke="#AAAAAA" stroke-miterlimit="10"/>
<path d="M113.9 36.6H114.4" stroke="#AAAAAA" stroke-miterlimit="10"/>
<path d="M115.5 36.6H121.3" stroke="#AAAAAA" stroke-miterlimit="10" stroke-dasharray="1.06 1.06"/>
<path d="M121.8 36.6H122.3" stroke="#AAAAAA" stroke-miterlimit="10"/>
<path d="M135 31.3H129.8V36.5H135V31.3Z" fill="#515E83"/>
<path d="M140.1 32.6H136.2V36.5H140.1V32.6Z" fill="#515E83"/>
<path d="M129.2 37.9H140.9" stroke="#515E83" stroke-width="0.9953" stroke-miterlimit="10"/>
<path d="M129.2 40.4H140.9" stroke="#515E83" stroke-width="0.9953" stroke-miterlimit="10"/>
<path d="M135 37.9V40.4" stroke="#515E83" stroke-width="0.9953" stroke-miterlimit="10"/>
<path d="M138.6 38V40.4" stroke="#515E83" stroke-width="0.9953" stroke-miterlimit="10"/>
<path d="M131.4 38V40.4" stroke="#515E83" stroke-width="0.9953" stroke-miterlimit="10"/>
<path d="M58.7 61.3L59.1 60.9C59.4 60.6 59.4 60.2 59.1 60C58.8 59.7 58.4 59.7 58.2 60L57.7 60.5C57.3 60.3 56.9 60.2 56.5 60.1V59.2H57C57.4 59.2 57.7 58.9 57.7 58.5V58.3C57.7 57.9 57.4 57.6 57 57.6H54.8C54.4 57.6 54.1 57.9 54.1 58.3V58.5C54.1 58.9 54.4 59.2 54.8 59.2H55.3V60.1C53.2 60.5 51.7 62.5 52.1 64.6C52.5 66.7 54.5 68.2 56.6 67.8C58.7 67.4 60.2 65.4 59.8 63.3C59.6 62.6 59.2 61.9 58.7 61.3ZM56.3 64.9H55.4V61.6H56.3V64.9Z" fill="#D9D9D9"/>
<path d="M54.2 7.9C54.2 6.8 55.1 5.9 56.2 5.9C57.3 5.9 58.2 6.8 58.2 7.9C58.2 7.9 57.6 7.5 56.2 7.5C54.9 7.5 54.2 7.9 54.2 7.9Z" fill="#515E83"/>
<path d="M61 10.2C61 10.1 60.9 10.1 60.8 10.1C60.7 10.1 60.7 10.2 60.7 10.3C60.7 10.4 60.7 10.4 60.7 10.5C60.6 10.6 60.4 10.7 60.1 10.7C59.9 9.8 59.3 8.9 58 8.4C56.1 7.6 53.6 8.6 53.6 8.6L51.9 8.1C51.8 8.7 51.9 9.3 52.4 9.8C52 10.4 51.3 10.9 50.6 11V12.5C51.3 13.3 52.2 13.9 53.3 14.1V15.4H55.1V14.5H56.8V15.4H58.6V14.5C59.4 13.9 60 12 60 12C60.1 11.6 60.2 11.2 60.1 10.8C60.5 10.8 60.8 10.7 60.9 10.5C61 10.5 61.1 10.4 61 10.2ZM53.7 11.3C53.6 11.3 53.5 11.2 53.5 11.1C53.5 11 53.6 10.9 53.7 10.9C53.8 10.9 53.9 11 53.9 11.1C53.9 11.2 53.9 11.3 53.7 11.3Z" fill="#515E83"/>
<path d="M100.4 33.8C101.4 33.8 102.3 34.6 102.3 35.7C102.3 36.7 101.5 37.6 100.4 37.6C99.4 37.6 98.5 36.8 98.5 35.7C98.6 34.6 99.4 33.8 100.4 33.8ZM100.4 33.1C99 33.1 97.9 34.2 97.9 35.6C97.9 37 99 38.1 100.4 38.1C101.8 38.1 102.9 37 102.9 35.6C102.9 34.2 101.8 33.1 100.4 33.1Z" fill="white"/>
<path d="M102.4 37.2L104.5 39.4" stroke="white" stroke-width="0.6228" stroke-miterlimit="10"/>
<path d="M57.8 31.2L52.3 36.7H55.1L53.6 41.9L59.4001 36.1H56.7001L57.8 31.2Z" fill="#D9D9D9" stroke="#D9D9D9" stroke-miterlimit="10" stroke-linejoin="round"/>
</g>
<defs>
<clipPath id="clip0_241_67">
<rect width="145.7" height="73.4" fill="white"/>
</clipPath>
</defs>
</svg>
