<svg width="605" height="289" viewBox="0 0 605 289" fill="none" xmlns="http://www.w3.org/2000/svg">
<g clip-path="url(#clip0_1030_1813)">
<path d="M595.911 152.071C600.891 152.071 604.928 151.162 604.928 150.04C604.928 148.918 600.891 148.009 595.911 148.009C590.931 148.009 586.894 148.918 586.894 150.04C586.894 151.162 590.931 152.071 595.911 152.071Z" fill="#E8E8E8"/>
<path d="M590.056 120.387C584.681 120.387 580.297 124.771 580.297 130.146C580.297 135.521 590.056 151.068 590.056 151.068C590.056 151.068 599.814 135.581 599.814 130.146C599.875 124.771 595.491 120.387 590.056 120.387ZM590.056 134.706C587.952 134.706 586.255 133.01 586.255 130.906C586.255 128.802 587.952 127.106 590.056 127.106C592.159 127.106 593.856 128.802 593.856 130.906C593.856 133.01 592.159 134.706 590.056 134.706Z" fill="#32934D"/>
</g>
<g clip-path="url(#clip1_1030_1813)">
<path d="M291.601 155.652C295.902 155.652 299.389 154.867 299.389 153.898C299.389 152.93 295.902 152.145 291.601 152.145C287.299 152.145 283.812 152.93 283.812 153.898C283.812 154.867 287.299 155.652 291.601 155.652Z" fill="#E8E8E8"/>
<path d="M286.543 128.291C281.9 128.291 278.114 132.077 278.114 136.718C278.114 141.36 286.543 154.785 286.543 154.785C286.543 154.785 294.972 141.412 294.972 136.718C295.025 132.077 291.238 128.291 286.543 128.291ZM286.543 140.656C284.726 140.656 283.261 139.191 283.261 137.374C283.261 135.558 284.726 134.093 286.543 134.093C288.36 134.093 289.825 135.558 289.825 137.374C289.825 139.191 288.36 140.656 286.543 140.656Z" fill="#32934D"/>
</g>
<g clip-path="url(#clip2_1030_1813)">
<path d="M50.5222 114.981C55.5021 114.981 59.5391 114.072 59.5391 112.951C59.5391 111.829 55.5021 110.92 50.5222 110.92C45.5424 110.92 41.5054 111.829 41.5054 112.951C41.5054 114.072 45.5424 114.981 50.5222 114.981Z" fill="#E8E8E8"/>
<path d="M44.6668 83.2979C39.292 83.2979 34.9082 87.6816 34.9082 93.0565C34.9082 98.4313 44.6668 113.978 44.6668 113.978C44.6668 113.978 54.4255 98.4921 54.4255 93.0565C54.4863 87.6816 50.1025 83.2979 44.6668 83.2979ZM44.6668 97.6166C42.5631 97.6166 40.8667 95.9202 40.8667 93.8165C40.8667 91.7128 42.5631 90.0164 44.6668 90.0164C46.7706 90.0164 48.4669 91.7128 48.4669 93.8165C48.4669 95.9202 46.7706 97.6166 44.6668 97.6166Z" fill="#32934D"/>
</g>
<g clip-path="url(#clip3_1030_1813)">
<path d="M180.096 23.007L171.043 26.418C170.599 26.5822 170.107 26.3633 169.943 25.9194C169.778 25.4756 169.997 24.9831 170.441 24.8189L179.495 21.408C179.938 21.2438 180.431 21.4627 180.595 21.9065C180.765 22.3443 180.54 22.8368 180.096 23.007Z" fill="#226234"/>
<path d="M193.144 18.0944L183.933 21.5601C183.489 21.7243 182.996 21.5054 182.832 21.0615C182.668 20.6177 182.887 20.1252 183.331 19.961L192.542 16.4954C192.986 16.3312 193.479 16.5501 193.643 16.9939C193.807 17.4317 193.588 17.9242 193.144 18.0944Z" fill="#226234"/>
<path d="M185.137 27.0686L179.92 29.0324C179.476 29.1966 178.984 28.9777 178.82 28.5339C178.655 28.09 178.874 27.5975 179.318 27.4334L184.535 25.4695C184.979 25.3053 185.471 25.5242 185.635 25.968C185.8 26.4119 185.575 26.9044 185.137 27.0686Z" fill="#226234"/>
<path d="M194.342 23.5969L188.815 25.6763C188.371 25.8404 187.879 25.6216 187.715 25.1777C187.55 24.7339 187.769 24.2414 188.213 24.0772L193.74 21.9978C194.184 21.8336 194.676 22.0525 194.841 22.4964C195.005 22.9402 194.786 23.4327 194.342 23.5969Z" fill="#226234"/>
<path d="M196.251 28.6618L190.724 30.7412C190.28 30.9054 189.788 30.6865 189.624 30.2427C189.46 29.7988 189.678 29.3063 190.122 29.1421L195.649 27.0627C196.093 26.8986 196.586 27.1175 196.75 27.5613C196.914 28.0052 196.689 28.4977 196.251 28.6618Z" fill="#226234"/>
<path d="M246.935 35.9822L226.518 43.2054L201.14 32.8692L221.557 25.646L246.935 35.9822Z" fill="#69D085"/>
<path d="M221.557 25.646L201.14 32.8693L200.939 7.22321L221.356 0L221.557 25.646Z" fill="#32934D"/>
<path d="M246.734 10.3362L246.935 35.9823L221.557 25.646L221.356 0L246.734 10.3362Z" fill="#B4E7C2"/>
<path d="M233.492 4.94336V30.5043L211.245 36.9857L217.343 39.4664L239.286 32.8695V7.30245L233.492 4.94336Z" fill="#32934D"/>
<path d="M195.151 10.4457L210.382 1.37416C212.443 0.145976 215.051 1.69033 214.954 4.08591C214.79 8.11704 214.267 13.346 212.741 16.0455C212.272 16.8724 211.367 17.3893 210.424 17.2677C209.719 17.1765 209.147 16.7144 209.701 15.2369C209.701 15.2369 207.39 17.821 204.058 15.9726C204.058 15.9726 201.523 16.8968 198.635 14.0026C198.635 14.0026 197.115 14.3431 195.637 13.954C193.99 13.5223 193.692 11.3152 195.151 10.4457Z" fill="#E8E8E8"/>
<path d="M246.777 11.5947V19.4685C246.777 19.4624 250.286 15.0969 246.777 11.5947Z" fill="#E8E8E8"/>
</g>
<g opacity="0.14">
<path d="M597.978 153.703H580.991L575.059 164.885V222.929H604.934V164.885L597.978 153.703ZM584.961 198.858H580.991V188.999H584.961V198.858ZM584.961 186.694H580.991V176.835H584.961V186.694ZM584.961 174.573H580.991V164.714H584.961V174.573ZM591.96 198.858H587.991V188.999H591.96V198.858ZM591.96 186.694H587.991V176.835H591.96V186.694ZM591.96 174.573H587.991V164.714H591.96V174.573ZM598.959 198.858H594.99V188.999H598.959V198.858ZM598.959 186.694H594.99V176.835H598.959V186.694ZM598.959 174.573H594.99V164.714H598.959V174.573Z" fill="#AEB3C3"/>
<path d="M544.928 88.105V222.928H575.06V88.105H544.928ZM570.536 213.88H549.025V212.173H570.536V213.88ZM570.536 209.228H549.025V207.521H570.536V209.228ZM570.536 204.534H549.025V202.826H570.536V204.534ZM570.536 199.882H549.025V198.174H570.536V199.882ZM570.536 195.187H549.025V193.48H570.536V195.187ZM570.536 190.492H549.025V188.785H570.536V190.492ZM570.536 185.84H549.025V184.133H570.536V185.84ZM570.536 181.145H549.025V179.438H570.536V181.145ZM570.536 176.493H549.025V174.786H570.536V176.493ZM570.536 171.799H549.025V170.092H570.536V171.799ZM570.536 167.104H549.025V165.397H570.536V167.104ZM570.536 162.452H549.025V160.745H570.536V162.452ZM570.536 157.757H549.025V156.05H570.536V157.757ZM570.536 153.105H549.025V151.398H570.536V153.105ZM570.536 148.411H549.025V146.703H570.536V148.411ZM570.536 143.716H549.025V142.009H570.536V143.716ZM570.536 139.064H549.025V137.357H570.536V139.064ZM570.536 134.369H549.025V132.662H570.536V134.369ZM570.536 129.717H549.025V128.01H570.536V129.717ZM570.536 125.022H549.025V123.315H570.536V125.022ZM570.536 120.328H549.025V118.621H570.536V120.328ZM570.536 115.676H549.025V113.969H570.536V115.676ZM570.536 110.981H549.025V109.274H570.536V110.981ZM570.536 106.329H549.025V104.622H570.536V106.329ZM570.536 101.634H549.025V99.9271H570.536V101.634ZM570.536 96.9396H549.025V95.2324H570.536V96.9396Z" fill="#7C85A0"/>
<path d="M537.16 132.363V126.644L528.88 119.687L520.6 126.644V132.363H513.43V222.928H544.97V132.363H537.16ZM522.734 214.221H519.448V207.094H522.734V214.221ZM522.734 205.301H519.448V198.174H522.734V205.301ZM522.734 196.381H519.448V189.254H522.734V196.381ZM522.734 187.461H519.448V180.334H522.734V187.461ZM522.734 178.542H519.448V171.414H522.734V178.542ZM522.734 169.664H519.448V162.537H522.734V169.664ZM522.734 160.744H519.448V153.617H522.734V160.744ZM522.734 151.824H519.448V144.697H522.734V151.824ZM522.734 142.904H519.448V135.777H522.734V142.904ZM527.941 214.221H524.655V207.094H527.941V214.221ZM527.941 205.301H524.655V198.174H527.941V205.301ZM527.941 196.381H524.655V189.254H527.941V196.381ZM527.941 187.461H524.655V180.334H527.941V187.461ZM527.941 178.542H524.655V171.414H527.941V178.542ZM527.941 169.664H524.655V162.537H527.941V169.664ZM527.941 160.744H524.655V153.617H527.941V160.744ZM527.941 151.824H524.655V144.697H527.941V151.824ZM527.941 142.904H524.655V135.777H527.941V142.904ZM527.941 133.985H524.655V126.857H527.941V133.985ZM533.148 214.221H529.862V207.094H533.148V214.221ZM533.148 205.301H529.862V198.174H533.148V205.301ZM533.148 196.381H529.862V189.254H533.148V196.381ZM533.148 187.461H529.862V180.334H533.148V187.461ZM533.148 178.542H529.862V171.414H533.148V178.542ZM533.148 169.664H529.862V162.537H533.148V169.664ZM533.148 160.744H529.862V153.617H533.148V160.744ZM533.148 151.824H529.862V144.697H533.148V151.824ZM533.148 142.904H529.862V135.777H533.148V142.904ZM533.148 133.985H529.862V126.857H533.148V133.985ZM538.312 214.221H535.026V207.094H538.312V214.221ZM538.312 205.301H535.026V198.174H538.312V205.301ZM538.312 196.381H535.026V189.254H538.312V196.381ZM538.312 187.461H535.026V180.334H538.312V187.461ZM538.312 178.542H535.026V171.414H538.312V178.542ZM538.312 169.664H535.026V162.537H538.312V169.664ZM538.312 160.744H535.026V153.617H538.312V160.744ZM538.312 151.824H535.026V144.697H538.312V151.824ZM538.312 142.904H535.026V135.777H538.312V142.904Z" fill="#AEB3C3"/>
<path d="M513.388 169.664V145.892H509.206V135.905H505.919V145.892H498.45V157.373H492.305V160.574H499.859V164.458H492.305V169.664H499.859V173.548H492.305V179.395H499.859V183.279H492.305V189.169H499.859V193.053H492.305V198.9H499.859V202.826H492.305V208.673H499.859V212.557H492.305V222.928H513.388V212.557H505.791V208.673H513.388V202.826H505.791V198.9H513.388V193.053H505.791V189.169H513.388V183.279H505.791V179.395H513.388V173.548H505.791V169.664H513.388Z" fill="#7C85A0"/>
<path d="M487.738 177.774V172.141H483.171V168.47H465.972V172.141H461.405V177.774H456.881V222.929H492.305V177.774H487.738ZM467.764 209.314H464.691V200.608H467.764V209.314ZM467.764 198.815H464.691V190.109H467.764V198.815ZM467.764 188.316H464.691V179.609H467.764V188.316ZM473.142 209.314H470.069V200.608H473.142V209.314ZM473.142 198.815H470.069V190.109H473.142V198.815ZM473.142 188.316H470.069V179.609H473.142V188.316ZM478.519 209.314H475.446V200.608H478.519V209.314ZM478.519 198.815H475.446V190.109H478.519V198.815ZM478.519 188.316H475.446V179.609H478.519V188.316ZM483.897 209.314H480.824V200.608H483.897V209.314ZM483.897 198.815H480.824V190.109H483.897V198.815ZM483.897 188.316H480.824V179.609H483.897V188.316Z" fill="#AEB3C3"/>
<path d="M493.67 202.87H492.305V222.886H493.67V202.87Z" fill="#7C85A0"/>
<path d="M427.347 110.555V222.929H456.838V110.555H427.347ZM450.564 209.528H433.663V206.114H450.564V209.528ZM450.564 197.279H433.663V193.865H450.564V197.279ZM450.564 184.988H433.663V181.573H450.564V184.988ZM450.564 172.739H433.663V169.324H450.564V172.739ZM450.564 160.447H433.663V157.033H450.564V160.447ZM450.564 148.155H433.663V144.741H450.564V148.155ZM450.564 135.907H433.663V132.492H450.564V135.907ZM450.564 123.615H433.663V120.201H450.564V123.615Z" fill="#515E83"/>
<path d="M402.721 152.851V222.93H427.603V152.851H402.721ZM413.647 212.729C413.647 213.924 412.665 214.863 411.513 214.863C410.36 214.863 409.379 213.882 409.379 212.729V208.163C409.379 206.968 410.36 206.029 411.513 206.029C412.665 206.029 413.647 207.01 413.647 208.163V212.729ZM413.647 200.907C413.647 202.102 412.665 203.041 411.513 203.041C410.36 203.041 409.379 202.06 409.379 200.907V196.341C409.379 195.146 410.36 194.207 411.513 194.207C412.665 194.207 413.647 195.188 413.647 196.341V200.907ZM413.647 189.085C413.647 190.28 412.665 191.219 411.513 191.219C410.36 191.219 409.379 190.238 409.379 189.085V184.518C409.379 183.323 410.36 182.385 411.513 182.385C412.665 182.385 413.647 183.366 413.647 184.518V189.085ZM413.647 177.263C413.647 178.458 412.665 179.397 411.513 179.397C410.36 179.397 409.379 178.415 409.379 177.263V172.696C409.379 171.501 410.36 170.562 411.513 170.562C412.665 170.562 413.647 171.544 413.647 172.696V177.263ZM413.647 165.441C413.647 166.636 412.665 167.575 411.513 167.575C410.36 167.575 409.379 166.593 409.379 165.441V160.874C409.379 159.679 410.36 158.74 411.513 158.74C412.665 158.74 413.647 159.722 413.647 160.874V165.441ZM420.987 212.729C420.987 213.924 420.006 214.863 418.853 214.863C417.658 214.863 416.719 213.882 416.719 212.729V208.163C416.719 206.968 417.701 206.029 418.853 206.029C420.048 206.029 420.987 207.01 420.987 208.163V212.729ZM420.987 200.907C420.987 202.102 420.006 203.041 418.853 203.041C417.658 203.041 416.719 202.06 416.719 200.907V196.341C416.719 195.146 417.701 194.207 418.853 194.207C420.048 194.207 420.987 195.188 420.987 196.341V200.907ZM420.987 189.085C420.987 190.28 420.006 191.219 418.853 191.219C417.658 191.219 416.719 190.238 416.719 189.085V184.518C416.719 183.323 417.701 182.385 418.853 182.385C420.048 182.385 420.987 183.366 420.987 184.518V189.085ZM420.987 177.263C420.987 178.458 420.006 179.397 418.853 179.397C417.658 179.397 416.719 178.415 416.719 177.263V172.696C416.719 171.501 417.701 170.562 418.853 170.562C420.048 170.562 420.987 171.544 420.987 172.696V177.263ZM420.987 165.441C420.987 166.636 420.006 167.575 418.853 167.575C417.658 167.575 416.719 166.593 416.719 165.441V160.874C416.719 159.679 417.701 158.74 418.853 158.74C420.048 158.74 420.987 159.722 420.987 160.874V165.441Z" fill="#7C85A0"/>
<path d="M385.649 168.47L369.517 188.743V222.929H402.721V188.743L385.649 168.47ZM380.869 217.679C378.778 217.679 377.113 216.015 377.113 213.923C377.113 211.832 378.778 210.168 380.869 210.168C382.961 210.168 384.625 211.832 384.625 213.923C384.625 216.015 382.918 217.679 380.869 217.679ZM380.869 207.692C378.778 207.692 377.113 206.028 377.113 203.937C377.113 201.845 378.778 200.181 380.869 200.181C382.961 200.181 384.625 201.845 384.625 203.937C384.625 206.028 382.918 207.692 380.869 207.692ZM380.869 197.663C378.778 197.663 377.113 195.998 377.113 193.907C377.113 191.816 378.778 190.151 380.869 190.151C382.961 190.151 384.625 191.816 384.625 193.907C384.625 195.998 382.918 197.663 380.869 197.663ZM391.368 217.679C389.277 217.679 387.613 216.015 387.613 213.923C387.613 211.832 389.277 210.168 391.368 210.168C393.46 210.168 395.124 211.832 395.124 213.923C395.124 216.015 393.46 217.679 391.368 217.679ZM391.368 207.692C389.277 207.692 387.613 206.028 387.613 203.937C387.613 201.845 389.277 200.181 391.368 200.181C393.46 200.181 395.124 201.845 395.124 203.937C395.124 206.028 393.46 207.692 391.368 207.692ZM391.368 197.663C389.277 197.663 387.613 195.998 387.613 193.907C387.613 191.816 389.277 190.151 391.368 190.151C393.46 190.151 395.124 191.816 395.124 193.907C395.124 195.998 393.46 197.663 391.368 197.663Z" fill="#AEB3C3"/>
<path d="M363.84 131.169V123.999H360.938V115.079H341.562V123.999H338.019V131.169H334.007V222.929H369.047V131.169H363.84ZM343.055 203.041H339.171V188.359H343.055V203.041ZM343.055 185.841H339.171V171.159H343.055V185.841ZM343.055 168.641H339.171V153.96H343.055V168.641ZM343.055 151.442H339.171V136.76H343.055V151.442ZM349.201 203.041H345.317V188.359H349.201V203.041ZM349.201 185.841H345.317V171.159H349.201V185.841ZM349.201 168.641H345.317V153.96H349.201V168.641ZM349.201 151.442H345.317V136.76H349.201V151.442ZM355.347 203.041H351.463V188.359H355.347V203.041ZM355.347 185.841H351.463V171.159H355.347V185.841ZM355.347 168.641H351.463V153.96H355.347V168.641ZM355.347 151.442H351.463V136.76H355.347V151.442ZM361.493 203.041H357.609V188.359H361.493V203.041ZM361.493 185.841H357.609V171.159H361.493V185.841ZM361.493 168.641H357.609V153.96H361.493V168.641ZM361.493 151.442H357.609V136.76H361.493V151.442Z" fill="#7C85A0"/>
<path d="M302.638 168.47V222.929H334.434V168.47H302.638ZM313.777 212.387H306.522V210.723H313.777V212.387ZM313.777 208.119H306.522V206.455H313.777V208.119ZM313.777 203.894H306.522V202.229H313.777V203.894ZM313.777 199.669H306.522V198.004H313.777V199.669ZM313.777 195.443H306.522V193.779H313.777V195.443ZM313.777 191.218H306.522V189.554H313.777V191.218ZM313.777 186.95H306.522V185.286H313.777V186.95ZM313.777 182.725H306.522V181.103H313.777V182.725ZM313.777 178.5H306.522V176.835H313.777V178.5ZM322.185 212.387H314.93V210.723H322.185V212.387ZM322.185 208.119H314.93V206.455H322.185V208.119ZM322.185 203.894H314.93V202.229H322.185V203.894ZM322.185 199.669H314.93V198.004H322.185V199.669ZM322.185 195.443H314.93V193.779H322.185V195.443ZM322.185 191.218H314.93V189.554H322.185V191.218ZM322.185 186.95H314.93V185.286H322.185V186.95ZM322.185 182.725H314.93V181.103H322.185V182.725ZM322.185 178.5H314.93V176.835H322.185V178.5ZM330.593 212.387H323.338V210.723H330.593V212.387ZM330.593 208.119H323.338V206.455H330.593V208.119ZM330.593 203.894H323.338V202.229H330.593V203.894ZM330.593 199.669H323.338V198.004H330.593V199.669ZM330.593 195.443H323.338V193.779H330.593V195.443ZM330.593 191.218H323.338V189.554H330.593V191.218ZM330.593 186.95H323.338V185.286H330.593V186.95ZM330.593 182.725H323.338V181.103H330.593V182.725ZM330.593 178.5H323.338V176.835H330.593V178.5Z" fill="#515E83"/>
<path d="M468.437 132.491L460.632 134.706C460.632 134.706 460.421 160.07 458.259 168.191C458.207 168.191 470.019 162.813 468.437 132.491Z" fill="#283764"/>
<path d="M491.692 132.491L499.497 134.706C499.497 134.706 499.708 160.07 501.87 168.191C501.923 168.191 490.163 162.813 491.692 132.491Z" fill="#283764"/>
<path d="M404.947 221.819H456.52C456.52 221.819 460.58 196.191 468.543 173.358C468.543 173.358 468.543 163.655 468.543 160.228C468.543 160.228 458.998 172.409 434.636 193.396C410.273 214.331 403.365 221.872 403.365 221.872H404.947V221.819Z" fill="#283764"/>
<path d="M555.183 221.819H503.61C503.61 221.819 499.55 196.191 491.587 173.358C491.587 173.358 491.587 163.655 491.587 160.228C491.587 160.228 501.132 172.409 525.495 193.396C549.857 214.331 556.765 221.872 556.765 221.872H555.183V221.819Z" fill="#283764"/>
<path d="M480.513 160.916C494.593 170.302 502.556 221.769 502.556 221.769H496.386C496.386 221.769 495.753 219.502 494.119 202.364C492.431 185.278 480.513 185.911 480.513 185.911H480.144C480.144 185.911 468.174 185.278 466.539 202.364C464.852 219.449 464.272 221.769 464.272 221.769H458.102C458.102 221.769 466.065 170.302 480.144 160.916H480.513Z" fill="#283764"/>
<path d="M489.268 131.332H470.284V168.192C472.024 165.239 480.408 158.437 480.408 158.437C487.369 162.603 489.795 168.245 489.795 168.245L489.268 131.332ZM474.239 139.453H471.866V133.494H474.239V139.453ZM478.194 139.453H475.821V133.494H478.194V139.453ZM483.309 139.453H480.936V133.494H483.309V139.453ZM487.264 139.453H484.891V133.494H487.264V139.453Z" fill="#283764"/>
</g>
<g opacity="0.14">
<path d="M91.59 107.094H78.6582C79.085 103.936 81.8165 101.503 85.1027 101.503C88.389 101.503 91.1205 103.936 91.59 107.094Z" fill="#283764"/>
<path d="M95.2168 107.096H93.4243C92.9975 103.126 89.7966 99.9682 85.7847 99.6694V65.9956C85.7847 65.4834 85.3579 65.0566 84.8458 65.0566C84.3336 65.0566 83.9069 65.4834 83.9069 65.9956V99.7121C80.1511 100.224 77.1636 103.254 76.7794 107.053H74.6455C74.1333 107.053 73.7065 107.48 73.7065 107.992C73.7065 108.504 74.1333 108.931 74.6455 108.931H95.1741C95.6863 108.931 96.1131 108.504 96.1131 107.992C96.1558 107.522 95.729 107.096 95.2168 107.096ZM78.6573 107.096C79.0841 103.937 81.8156 101.505 85.1019 101.505C88.3882 101.505 91.1196 103.937 91.5464 107.096H78.6573Z" fill="#283764"/>
<path d="M98.4602 111.364C98.4602 111.876 98.0335 112.303 97.5213 112.303H72.1699C71.6578 112.303 71.231 111.876 71.231 111.364C71.231 110.852 71.6578 110.425 72.1699 110.425H97.5213C98.0335 110.425 98.4602 110.852 98.4602 111.364Z" fill="#283764"/>
<path d="M68.2871 116.697C68.1163 116.697 67.9456 116.74 67.7749 116.868V116.697H68.2871Z" fill="#283764"/>
<path d="M75.8844 118.575H75.7559L75.8415 118.49L75.8844 118.575Z" fill="#283764"/>
<path d="M77.1215 116.697L76.9935 116.911L76.8228 116.697H77.1215Z" fill="#283764"/>
<path d="M78.1896 118.575H78.061L78.1039 118.49L78.1896 118.575Z" fill="#283764"/>
<path d="M84.0362 118.575H83.9077L83.9934 118.49L84.0362 118.575Z" fill="#283764"/>
<path d="M85.2736 116.697L85.1028 116.953L84.9321 116.697H85.2736Z" fill="#283764"/>
<path d="M86.2981 118.575H86.2124L86.2552 118.49L86.2981 118.575Z" fill="#283764"/>
<path d="M92.1453 118.575H92.0596L92.1024 118.49L92.1453 118.575Z" fill="#283764"/>
<path d="M93.4254 116.697L93.2547 116.911L93.084 116.697H93.4254Z" fill="#283764"/>
<path d="M94.4498 118.575H94.3213L94.407 118.49L94.4498 118.575Z" fill="#283764"/>
<path d="M102.26 116.697V117.252C102.26 117.209 102.26 117.167 102.217 117.167C102.046 116.868 101.748 116.697 101.406 116.697H102.26Z" fill="#283764"/>
<path d="M86.2548 118.49L86.2121 118.575H86.3401L86.2548 118.49ZM78.1031 118.49L78.0604 118.575H78.1884L78.1031 118.49ZM83.9928 118.49L83.9501 118.575H84.0781L83.9928 118.49ZM84.9317 116.697L85.1024 116.911L85.2731 116.697H84.9317ZM76.8227 116.697L76.9934 116.911L77.1641 116.697H76.8227ZM76.8227 116.697L76.9934 116.911L77.1641 116.697H76.8227ZM76.8227 116.697L76.9934 116.911L77.1641 116.697H76.8227ZM78.1031 118.49L78.0604 118.575H78.1884L78.1031 118.49ZM83.9928 118.49L83.9501 118.575H84.0781L83.9928 118.49ZM84.9317 116.697L85.1024 116.911L85.2731 116.697H84.9317ZM76.8227 116.697L76.9934 116.911L77.1641 116.697H76.8227ZM78.1031 118.49L78.0604 118.575H78.1884L78.1031 118.49ZM83.9928 118.49L83.9501 118.575H84.0781L83.9928 118.49ZM84.9317 116.697L85.1024 116.911L85.2731 116.697H84.9317ZM86.2548 118.49L86.2121 118.575H86.3401L86.2548 118.49ZM93.0834 116.697L93.2541 116.911L93.4249 116.697H93.0834ZM75.8411 118.49L75.7984 118.575H75.9264L75.8411 118.49ZM101.406 116.697C101.747 116.697 102.046 116.868 102.217 117.167C102.217 117.209 102.259 117.209 102.259 117.252V116.697H101.406ZM67.8174 116.868C67.9454 116.783 68.1588 116.697 68.3295 116.697H67.8174V116.868ZM94.4065 118.49L94.3638 118.575H94.4918L94.4065 118.49ZM93.0834 116.697L93.2541 116.911L93.4249 116.697H93.0834ZM86.2548 118.49L86.2121 118.575H86.3401L86.2548 118.49ZM84.9317 116.697L85.1024 116.911L85.2731 116.697H84.9317ZM78.1031 118.49L78.0604 118.575H78.1884L78.1031 118.49ZM83.9928 118.49L83.9501 118.575H84.0781L83.9928 118.49ZM76.8227 116.697L76.9934 116.911L77.1641 116.697H76.8227ZM86.2548 118.49L86.2121 118.575H86.3401L86.2548 118.49ZM92.1018 118.49L92.0591 118.575H92.1872L92.1018 118.49ZM93.0834 116.697L93.2541 116.911L93.4249 116.697H93.0834ZM84.9317 116.697L85.1024 116.911L85.2731 116.697H84.9317ZM78.1031 118.49L78.0604 118.575H78.1884L78.1031 118.49ZM83.9928 118.49L83.9501 118.575H84.0781L83.9928 118.49ZM76.8227 116.697L76.9934 116.911L77.1641 116.697H76.8227ZM78.1031 118.49L78.0604 118.575H78.1884L78.1031 118.49ZM83.9928 118.49L83.9501 118.575H84.0781L83.9928 118.49ZM84.9317 116.697L85.1024 116.911L85.2731 116.697H84.9317ZM76.8227 116.697L76.9934 116.911L77.1641 116.697H76.8227Z" fill="#283764"/>
<path d="M94.4059 118.49L94.3633 118.575H94.4913L94.4059 118.49ZM86.2542 118.49L86.2116 118.575H86.3396L86.2542 118.49ZM92.1013 118.49L92.0586 118.575H92.1866L92.1013 118.49ZM93.0829 116.697L93.2536 116.911L93.4243 116.697H93.0829ZM78.1025 118.49L78.0598 118.575H78.1879L78.1025 118.49ZM83.9922 118.49L83.9496 118.575H84.0776L83.9922 118.49ZM84.9312 116.697L85.1019 116.911L85.2726 116.697H84.9312ZM75.8405 118.49L75.7979 118.575H75.9259L75.8405 118.49ZM76.8221 116.697L76.9929 116.911L77.1636 116.697H76.8221Z" fill="#283764"/>
<path d="M75.8844 118.578H75.7559L75.8415 118.492L75.8844 118.578Z" fill="#283764"/>
<path d="M84.0358 118.578H83.9072L83.9929 118.492L84.0358 118.578Z" fill="#283764"/>
<path d="M85.1017 130.484C85.0591 130.484 85.0591 130.484 85.0164 130.484C84.803 130.484 84.6323 130.399 84.4615 130.314C84.2481 130.143 84.1201 129.929 84.1201 129.673L84.4615 130.1C84.6323 130.356 84.8457 130.484 85.1017 130.484Z" fill="#283764"/>
<path d="M92.1438 118.578H92.0581L92.101 118.492L92.1438 118.578Z" fill="#283764"/>
<path d="M105.503 116.699H102.302V117.254C102.302 117.211 102.302 117.169 102.259 117.169C102.088 116.87 101.79 116.699 101.448 116.699H102.302V114.949C102.302 114.437 101.875 114.01 101.363 114.01H68.7559C68.2437 114.01 67.8169 114.437 67.8169 114.949V116.699H68.3291C68.1584 116.699 67.9877 116.742 67.8169 116.87V116.699H64.4453C63.9331 116.699 63.5063 117.126 63.5063 117.638C63.5063 118.15 63.9331 118.577 64.4453 118.577H67.7743L73.8774 129.247C73.792 129.375 73.792 129.503 73.792 129.631C73.792 130.1 74.1761 130.484 74.6029 130.527L78.2306 136.886V141.112C78.2306 141.624 78.6574 142.05 79.1696 142.05H90.949C91.4612 142.05 91.888 141.624 91.888 141.112V136.63C91.888 136.459 91.8453 136.289 91.7599 136.161L95.0462 130.527H95.1743C95.6864 130.527 96.1132 130.1 96.1132 129.588C96.1132 129.375 96.0278 129.204 95.9425 129.033L97.9484 125.576C98.1618 125.576 98.3325 125.534 98.5032 125.406C98.8873 125.107 98.9727 124.595 98.7593 124.211L102.046 118.534H105.588C106.1 118.534 106.527 118.107 106.527 117.595C106.399 117.126 105.972 116.699 105.503 116.699ZM69.9082 118.577H75.7979L75.8406 118.492L75.8833 118.577H75.7553L72.4263 123.058L69.9082 118.577ZM76.3954 128.692H75.6699L73.4506 124.808L76.9929 120.028L79.9378 123.954L76.4808 128.607C76.4381 128.649 76.4381 128.692 76.3954 128.692ZM86.297 118.577H86.169L86.2116 118.492L86.297 118.577H92.0587L92.1014 118.492L92.144 118.577H92.016L89.1565 122.461L86.297 118.577ZM91.5465 128.692H86.8518L89.1992 125.534L91.5465 128.692ZM88.0468 123.997L85.102 127.924L82.1571 123.997L85.102 120.028L88.0468 123.997ZM86.0836 129.673C86.0836 129.93 85.9556 130.143 85.7422 130.314C85.5715 130.442 85.4007 130.484 85.1873 130.484C85.1447 130.484 85.1447 130.484 85.102 130.484C85.0593 130.484 85.0593 130.484 85.0166 130.484C84.8032 130.484 84.6325 130.399 84.4618 130.314C84.2484 130.143 84.1204 129.93 84.1204 129.673L84.4618 130.1C84.6325 130.314 84.8459 130.442 85.1447 130.484C85.4007 130.484 85.6568 130.356 85.8275 130.1L86.0836 129.673ZM83.3948 128.692H78.7001L81.0475 125.534L83.3948 128.692ZM83.907 118.577L81.0475 122.461L78.188 118.577H78.0599L78.1026 118.492L78.1453 118.577H83.907L83.9496 118.492L83.9923 118.577H83.907ZM90.0101 140.173H80.0659V137.569H90.0101V140.173ZM89.8394 135.691H79.6391L76.6942 130.527H92.8269L89.8394 135.691ZM93.9366 128.692L93.8939 128.777C93.8939 128.735 93.8512 128.692 93.8512 128.692C93.8512 128.692 93.8085 128.649 93.8085 128.607L90.3515 123.954L93.2964 120.028L96.4973 124.339L93.9366 128.692ZM97.4789 122.631L94.4914 118.577H94.3634L94.406 118.492L94.4487 118.577H99.8263L97.4789 122.631ZM94.9182 116.699C94.8755 116.614 94.7901 116.528 94.7048 116.486C94.3207 116.187 93.7232 116.272 93.4244 116.699V116.742L93.2537 116.955L93.083 116.742V116.699C92.7842 116.272 92.2294 116.187 91.8026 116.486C91.7173 116.571 91.6746 116.614 91.5892 116.699H86.8091C86.7665 116.614 86.6811 116.528 86.5958 116.486C86.169 116.187 85.6141 116.272 85.3154 116.699V116.742L85.1447 116.955L84.974 116.742V116.699C84.6752 116.272 84.1204 116.187 83.6936 116.486C83.6082 116.571 83.5229 116.614 83.4802 116.699H78.7001C78.6574 116.614 78.5721 116.528 78.4867 116.486C78.0599 116.187 77.5051 116.272 77.2063 116.699V116.742L77.0356 116.955L76.8649 116.742V116.699C76.5662 116.272 75.9687 116.187 75.5845 116.486C75.4992 116.571 75.4138 116.614 75.3711 116.699H69.6948V115.888H100.466V116.699H94.9182Z" fill="#283764"/>
<path d="M94.4493 118.577H94.3208L94.4065 118.492L94.4493 118.577Z" fill="#283764"/>
<path d="M86.2971 118.578H86.2114L86.2543 118.493L86.2971 118.578Z" fill="#283764"/>
<path d="M78.1886 118.578H78.0601L78.1029 118.493L78.1886 118.578Z" fill="#283764"/>
<path d="M86.0842 129.674C86.0842 129.93 85.9561 130.143 85.7427 130.314C85.572 130.442 85.4013 130.485 85.1879 130.485C85.1452 130.485 85.1452 130.485 85.1025 130.485C85.3586 130.485 85.6147 130.357 85.7854 130.101L86.0842 129.674Z" fill="#283764"/>
<path d="M85.1017 130.484C85.0591 130.484 85.0591 130.484 85.0164 130.484C84.803 130.484 84.6323 130.399 84.4615 130.314C84.2481 130.143 84.1201 129.929 84.1201 129.673L84.4615 130.1C84.6323 130.356 84.8457 130.484 85.1017 130.484Z" fill="#283764"/>
<path d="M86.0832 129.673C86.0832 129.929 85.9551 130.143 85.7417 130.314C85.571 130.442 85.4003 130.484 85.1869 130.484C85.1442 130.484 85.1442 130.484 85.1016 130.484C85.3576 130.484 85.6137 130.356 85.7844 130.1L86.0832 129.673Z" fill="#283764"/>
<path d="M93.9358 128.691L93.8929 128.777C93.8929 128.734 93.8501 128.691 93.8501 128.691H93.9358Z" fill="#283764"/>
<path d="M111.264 207.136H91.8026V141.112C91.8026 140.6 91.3758 140.173 90.8636 140.173H79.0842C78.572 140.173 78.1452 140.6 78.1452 141.112V207.136H58.8969C58.3848 207.136 57.958 207.563 57.958 208.075C57.958 208.588 58.3848 209.014 58.8969 209.014H111.222C111.734 209.014 112.16 208.588 112.16 208.075C112.16 207.563 111.776 207.136 111.264 207.136ZM90.01 206.88H80.0658V142.008H90.01V206.88Z" fill="#283764"/>
<path d="M66.0242 221.262L65.7681 221.603C65.7254 221.646 65.6827 221.689 65.6827 221.731C65.5974 221.603 65.5547 221.475 65.5547 221.347V221.262H66.0242Z" fill="#283764"/>
<path d="M107.295 221.262H105.289L105.972 216.653C106.399 216.568 106.697 216.184 106.697 215.757C106.697 215.415 106.527 215.117 106.228 214.946L106.569 212.684H107.337C107.85 212.684 108.276 212.257 108.276 211.745C108.276 211.233 107.85 210.806 107.337 210.806H66.5362V210.721C66.4935 210.208 66.0667 209.824 65.5546 209.867C65.0851 209.91 64.701 210.336 64.701 210.806H62.7378C62.2256 210.806 61.7988 211.233 61.7988 211.745C61.7988 212.257 62.2256 212.684 62.7378 212.684H64.829L65.0424 215.031C64.829 215.202 64.701 215.458 64.701 215.757C64.701 216.098 64.9144 216.397 65.1705 216.568L65.5546 221.262H66.0667L65.8107 221.604C65.768 221.646 65.7253 221.689 65.7253 221.732C65.6399 221.604 65.5973 221.476 65.5973 221.348V221.262H63.6767C63.1646 221.262 62.7378 221.689 62.7378 222.201C62.7378 222.713 63.1646 223.14 63.6767 223.14H103.923C104.008 223.14 104.051 223.14 104.094 223.14H104.137C104.179 223.14 104.222 223.14 104.265 223.14H107.337C107.85 223.14 108.276 222.713 108.276 222.201C108.234 221.646 107.807 221.262 107.295 221.262ZM67.0057 216.696H69.8225L67.3044 219.769L67.0057 216.696ZM68.4141 221.262L71.5297 217.507L73.2368 221.262H68.4141ZM73.1515 216.696H77.078L74.7306 220.281L73.1515 216.696ZM76.3524 221.262L78.6998 217.635L80.4496 221.262H76.3524ZM80.2789 216.696H83.9493L81.9861 220.195L80.2789 216.696ZM83.4798 221.262L85.4431 217.805L87.0649 221.262H83.4798ZM86.9795 216.696H90.6926L88.644 220.195L86.9795 216.696ZM90.1378 221.262L92.2717 217.635L94.2776 221.262H90.1378ZM93.8508 216.696H97.9907L95.8568 220.323L93.8508 216.696ZM97.4359 221.262L99.6552 217.507L102.173 221.262H97.4359ZM103.582 220.11L101.277 216.653H104.094L103.582 220.11ZM104.35 214.86H66.835L66.6642 212.727H104.691L104.35 214.86Z" fill="#283764"/>
<path d="M66.0242 221.262L65.7681 221.604C65.7254 221.646 65.6827 221.689 65.6827 221.732C65.5974 221.604 65.5547 221.476 65.5547 221.348V221.262H66.0242Z" fill="#283764"/>
<path d="M295.34 153.702H278.353L272.421 164.884V222.927H302.296V164.884L295.34 153.702ZM282.322 198.856H278.353V188.997H282.322V198.856ZM282.322 186.693H278.353V176.834H282.322V186.693ZM282.322 174.572H278.353V164.713H282.322V174.572ZM289.322 198.856H285.353V188.997H289.322V198.856ZM289.322 186.693H285.353V176.834H289.322V186.693ZM289.322 174.572H285.353V164.713H289.322V174.572ZM296.321 198.856H292.352V188.997H296.321V198.856ZM296.321 186.693H292.352V176.834H296.321V186.693ZM296.321 174.572H292.352V164.713H296.321V174.572Z" fill="#AEB3C3"/>
<path d="M242.29 88.1035V222.927H272.421V88.1035H242.29ZM267.897 213.879H246.387V212.172H267.897V213.879ZM267.897 209.227H246.387V207.52H267.897V209.227ZM267.897 204.532H246.387V202.825H267.897V204.532ZM267.897 199.88H246.387V198.173H267.897V199.88ZM267.897 195.185H246.387V193.478H267.897V195.185ZM267.897 190.491H246.387V188.784H267.897V190.491ZM267.897 185.839H246.387V184.132H267.897V185.839ZM267.897 181.144H246.387V179.437H267.897V181.144ZM267.897 176.492H246.387V174.785H267.897V176.492ZM267.897 171.797H246.387V170.09H267.897V171.797ZM267.897 167.103H246.387V165.395H267.897V167.103ZM267.897 162.451H246.387V160.743H267.897V162.451ZM267.897 157.756H246.387V156.049H267.897V157.756ZM267.897 153.104H246.387V151.397H267.897V153.104ZM267.897 148.409H246.387V146.702H267.897V148.409ZM267.897 143.714H246.387V142.007H267.897V143.714ZM267.897 139.062H246.387V137.355H267.897V139.062ZM267.897 134.368H246.387V132.661H267.897V134.368ZM267.897 129.716H246.387V128.008H267.897V129.716ZM267.897 125.021H246.387V123.314H267.897V125.021ZM267.897 120.326H246.387V118.619H267.897V120.326ZM267.897 115.674H246.387V113.967H267.897V115.674ZM267.897 110.98H246.387V109.272H267.897V110.98ZM267.897 106.328H246.387V104.62H267.897V106.328ZM267.897 101.633H246.387V99.9256H267.897V101.633ZM267.897 96.9381H246.387V95.2309H267.897V96.9381Z" fill="#7C85A0"/>
<path d="M234.522 132.361V126.642L226.242 119.686L217.962 126.642V132.361H210.792V222.926H242.332V132.361H234.522ZM220.096 214.22H216.81V207.092H220.096V214.22ZM220.096 205.3H216.81V198.172H220.096V205.3ZM220.096 196.38H216.81V189.253H220.096V196.38ZM220.096 187.46H216.81V180.333H220.096V187.46ZM220.096 178.54H216.81V171.413H220.096V178.54ZM220.096 169.663H216.81V162.535H220.096V169.663ZM220.096 160.743H216.81V153.615H220.096V160.743ZM220.096 151.823H216.81V144.696H220.096V151.823ZM220.096 142.903H216.81V135.776H220.096V142.903ZM225.303 214.22H222.017V207.092H225.303V214.22ZM225.303 205.3H222.017V198.172H225.303V205.3ZM225.303 196.38H222.017V189.253H225.303V196.38ZM225.303 187.46H222.017V180.333H225.303V187.46ZM225.303 178.54H222.017V171.413H225.303V178.54ZM225.303 169.663H222.017V162.535H225.303V169.663ZM225.303 160.743H222.017V153.615H225.303V160.743ZM225.303 151.823H222.017V144.696H225.303V151.823ZM225.303 142.903H222.017V135.776H225.303V142.903ZM225.303 133.983H222.017V126.856H225.303V133.983ZM230.51 214.22H227.223V207.092H230.51V214.22ZM230.51 205.3H227.223V198.172H230.51V205.3ZM230.51 196.38H227.223V189.253H230.51V196.38ZM230.51 187.46H227.223V180.333H230.51V187.46ZM230.51 178.54H227.223V171.413H230.51V178.54ZM230.51 169.663H227.223V162.535H230.51V169.663ZM230.51 160.743H227.223V153.615H230.51V160.743ZM230.51 151.823H227.223V144.696H230.51V151.823ZM230.51 142.903H227.223V135.776H230.51V142.903ZM230.51 133.983H227.223V126.856H230.51V133.983ZM235.674 214.22H232.388V207.092H235.674V214.22ZM235.674 205.3H232.388V198.172H235.674V205.3ZM235.674 196.38H232.388V189.253H235.674V196.38ZM235.674 187.46H232.388V180.333H235.674V187.46ZM235.674 178.54H232.388V171.413H235.674V178.54ZM235.674 169.663H232.388V162.535H235.674V169.663ZM235.674 160.743H232.388V153.615H235.674V160.743ZM235.674 151.823H232.388V144.696H235.674V151.823ZM235.674 142.903H232.388V135.776H235.674V142.903Z" fill="#AEB3C3"/>
<path d="M210.75 169.663V145.891H206.567V135.904H203.281V145.891H195.812V157.372H189.667V160.573H197.221V164.457H189.667V169.663H197.221V173.547H189.667V179.394H197.221V183.278H189.667V189.168H197.221V193.052H189.667V198.899H197.221V202.825H189.667V208.672H197.221V212.556H189.667V222.927H210.75V212.556H203.153V208.672H210.75V202.825H203.153V198.899H210.75V193.052H203.153V189.168H210.75V183.278H203.153V179.394H210.75V173.547H203.153V169.663H210.75Z" fill="#7C85A0"/>
<path d="M185.1 177.773V172.14H180.533V168.469H163.333V172.14H158.767V177.773H154.243V222.928H189.666V177.773H185.1ZM165.126 209.313H162.053V200.607H165.126V209.313ZM165.126 198.814H162.053V190.108H165.126V198.814ZM165.126 188.315H162.053V179.608H165.126V188.315ZM170.503 209.313H167.431V200.607H170.503V209.313ZM170.503 198.814H167.431V190.108H170.503V198.814ZM170.503 188.315H167.431V179.608H170.503V188.315ZM175.881 209.313H172.808V200.607H175.881V209.313ZM175.881 198.814H172.808V190.108H175.881V198.814ZM175.881 188.315H172.808V179.608H175.881V188.315ZM181.259 209.313H178.186V200.607H181.259V209.313ZM181.259 198.814H178.186V190.108H181.259V198.814ZM181.259 188.315H178.186V179.608H181.259V188.315Z" fill="#AEB3C3"/>
<path d="M191.032 202.868H189.667V222.885H191.032V202.868Z" fill="#7C85A0"/>
<path d="M124.708 110.554V222.928H154.2V110.554H124.708ZM147.926 209.527H131.025V206.113H147.926V209.527ZM147.926 197.278H131.025V193.864H147.926V197.278ZM147.926 184.987H131.025V181.572H147.926V184.987ZM147.926 172.738H131.025V169.323H147.926V172.738ZM147.926 160.446H131.025V157.032H147.926V160.446ZM147.926 148.155H131.025V144.74H147.926V148.155ZM147.926 135.906H131.025V132.491H147.926V135.906ZM147.926 123.614H131.025V120.2H147.926V123.614Z" fill="#515E83"/>
<path d="M100.083 152.849V222.928H124.964V152.849H100.083ZM111.008 212.728C111.008 213.923 110.027 214.862 108.874 214.862C107.722 214.862 106.74 213.88 106.74 212.728V208.161C106.74 206.966 107.722 206.027 108.874 206.027C110.027 206.027 111.008 207.009 111.008 208.161V212.728ZM111.008 200.906C111.008 202.101 110.027 203.04 108.874 203.04C107.722 203.04 106.74 202.058 106.74 200.906V196.339C106.74 195.144 107.722 194.205 108.874 194.205C110.027 194.205 111.008 195.187 111.008 196.339V200.906ZM111.008 189.084C111.008 190.279 110.027 191.218 108.874 191.218C107.722 191.218 106.74 190.236 106.74 189.084V184.517C106.74 183.322 107.722 182.383 108.874 182.383C110.027 182.383 111.008 183.365 111.008 184.517V189.084ZM111.008 177.262C111.008 178.457 110.027 179.396 108.874 179.396C107.722 179.396 106.74 178.414 106.74 177.262V172.695C106.74 171.5 107.722 170.561 108.874 170.561C110.027 170.561 111.008 171.543 111.008 172.695V177.262ZM111.008 165.439C111.008 166.634 110.027 167.573 108.874 167.573C107.722 167.573 106.74 166.592 106.74 165.439V160.873C106.74 159.678 107.722 158.739 108.874 158.739C110.027 158.739 111.008 159.72 111.008 160.873V165.439ZM118.349 212.728C118.349 213.923 117.368 214.862 116.215 214.862C115.02 214.862 114.081 213.88 114.081 212.728V208.161C114.081 206.966 115.063 206.027 116.215 206.027C117.41 206.027 118.349 207.009 118.349 208.161V212.728ZM118.349 200.906C118.349 202.101 117.368 203.04 116.215 203.04C115.02 203.04 114.081 202.058 114.081 200.906V196.339C114.081 195.144 115.063 194.205 116.215 194.205C117.41 194.205 118.349 195.187 118.349 196.339V200.906ZM118.349 189.084C118.349 190.279 117.368 191.218 116.215 191.218C115.02 191.218 114.081 190.236 114.081 189.084V184.517C114.081 183.322 115.063 182.383 116.215 182.383C117.41 182.383 118.349 183.365 118.349 184.517V189.084ZM118.349 177.262C118.349 178.457 117.368 179.396 116.215 179.396C115.02 179.396 114.081 178.414 114.081 177.262V172.695C114.081 171.5 115.063 170.561 116.215 170.561C117.41 170.561 118.349 171.543 118.349 172.695V177.262ZM118.349 165.439C118.349 166.634 117.368 167.573 116.215 167.573C115.02 167.573 114.081 166.592 114.081 165.439V160.873C114.081 159.678 115.063 158.739 116.215 158.739C117.41 158.739 118.349 159.72 118.349 160.873V165.439Z" fill="#7C85A0"/>
<path d="M83.0111 168.469L66.8784 188.742V222.928H100.083V188.742L83.0111 168.469ZM78.2311 217.678C76.1398 217.678 74.4753 216.014 74.4753 213.923C74.4753 211.831 76.1398 210.167 78.2311 210.167C80.3223 210.167 81.9868 211.831 81.9868 213.923C81.9868 216.014 80.2797 217.678 78.2311 217.678ZM78.2311 207.691C76.1398 207.691 74.4753 206.027 74.4753 203.936C74.4753 201.844 76.1398 200.18 78.2311 200.18C80.3223 200.18 81.9868 201.844 81.9868 203.936C81.9868 206.027 80.2797 207.691 78.2311 207.691ZM78.2311 197.662C76.1398 197.662 74.4753 195.997 74.4753 193.906C74.4753 191.815 76.1398 190.15 78.2311 190.15C80.3223 190.15 81.9868 191.815 81.9868 193.906C81.9868 195.997 80.2797 197.662 78.2311 197.662ZM88.7301 217.678C86.6389 217.678 84.9744 216.014 84.9744 213.923C84.9744 211.831 86.6389 210.167 88.7301 210.167C90.8214 210.167 92.4859 211.831 92.4859 213.923C92.4859 216.014 90.8214 217.678 88.7301 217.678ZM88.7301 207.691C86.6389 207.691 84.9744 206.027 84.9744 203.936C84.9744 201.844 86.6389 200.18 88.7301 200.18C90.8214 200.18 92.4859 201.844 92.4859 203.936C92.4859 206.027 90.8214 207.691 88.7301 207.691ZM88.7301 197.662C86.6389 197.662 84.9744 195.997 84.9744 193.906C84.9744 191.815 86.6389 190.15 88.7301 190.15C90.8214 190.15 92.4859 191.815 92.4859 193.906C92.4859 195.997 90.8214 197.662 88.7301 197.662Z" fill="#AEB3C3"/>
<path d="M61.2018 131.167V123.997H58.2997V115.077H38.9233V123.997H35.381V131.167H31.3691V222.927H66.4087V131.167H61.2018ZM40.4171 203.038H36.5333V188.357H40.4171V203.038ZM40.4171 185.839H36.5333V171.157H40.4171V185.839ZM40.4171 168.639H36.5333V153.957H40.4171V168.639ZM40.4171 151.439H36.5333V136.758H40.4171V151.439ZM46.5629 203.038H42.6791V188.357H46.5629V203.038ZM46.5629 185.839H42.6791V171.157H46.5629V185.839ZM46.5629 168.639H42.6791V153.957H46.5629V168.639ZM46.5629 151.439H42.6791V136.758H46.5629V151.439ZM52.7087 203.038H48.8249V188.357H52.7087V203.038ZM52.7087 185.839H48.8249V171.157H52.7087V185.839ZM52.7087 168.639H48.8249V153.957H52.7087V168.639ZM52.7087 151.439H48.8249V136.758H52.7087V151.439ZM58.8545 203.038H54.9707V188.357H58.8545V203.038ZM58.8545 185.839H54.9707V171.157H58.8545V185.839ZM58.8545 168.639H54.9707V153.957H58.8545V168.639ZM58.8545 151.439H54.9707V136.758H58.8545V151.439Z" fill="#7C85A0"/>
<path d="M0 168.469V222.928H31.7959V168.469H0ZM11.1393 212.386H3.8838V210.722H11.1393V212.386ZM11.1393 208.118H3.8838V206.454H11.1393V208.118ZM11.1393 203.893H3.8838V202.228H11.1393V203.893ZM11.1393 199.668H3.8838V198.003H11.1393V199.668ZM11.1393 195.442H3.8838V193.778H11.1393V195.442ZM11.1393 191.217H3.8838V189.553H11.1393V191.217ZM11.1393 186.949H3.8838V185.285H11.1393V186.949ZM11.1393 182.724H3.8838V181.102H11.1393V182.724ZM11.1393 178.499H3.8838V176.834H11.1393V178.499ZM19.547 212.386H12.2916V210.722H19.547V212.386ZM19.547 208.118H12.2916V206.454H19.547V208.118ZM19.547 203.893H12.2916V202.228H19.547V203.893ZM19.547 199.668H12.2916V198.003H19.547V199.668ZM19.547 195.442H12.2916V193.778H19.547V195.442ZM19.547 191.217H12.2916V189.553H19.547V191.217ZM19.547 186.949H12.2916V185.285H19.547V186.949ZM19.547 182.724H12.2916V181.102H19.547V182.724ZM19.547 178.499H12.2916V176.834H19.547V178.499ZM27.9548 212.386H20.6994V210.722H27.9548V212.386ZM27.9548 208.118H20.6994V206.454H27.9548V208.118ZM27.9548 203.893H20.6994V202.228H27.9548V203.893ZM27.9548 199.668H20.6994V198.003H27.9548V199.668ZM27.9548 195.442H20.6994V193.778H27.9548V195.442ZM27.9548 191.217H20.6994V189.553H27.9548V191.217ZM27.9548 186.949H20.6994V185.285H27.9548V186.949ZM27.9548 182.724H20.6994V181.102H27.9548V182.724ZM27.9548 178.499H20.6994V176.834H27.9548V178.499Z" fill="#515E83"/>
</g>
<g clip-path="url(#clip4_1030_1813)">
<path d="M462.87 251.813H481.576C482.92 251.813 484.013 250.717 484.013 249.358C484.013 248.003 482.925 246.902 481.576 246.902H462.87C461.526 246.902 460.433 247.998 460.433 249.358C460.438 250.717 461.526 251.813 462.87 251.813Z" fill="#226234"/>
<path d="M494.239 251.813H472.522C470.56 251.813 468.974 253.417 468.974 255.389V259.27V263.918V264.497C468.974 267.01 466.95 269.049 464.456 269.049H450.025C447.532 269.049 445.508 267.01 445.508 264.497V263.918V259.27V242.327H440.126L435.899 245.232L427.139 263.918L426.071 268.273L424.175 276.018H472.517H486.06H494.235C496.196 276.018 497.783 274.419 497.783 272.442V255.393C497.788 253.417 496.196 251.813 494.239 251.813Z" fill="#69D085"/>
<path d="M489.622 288.807C495.354 288.807 500.001 284.125 500.001 278.349C500.001 272.573 495.354 267.891 489.622 267.891C483.89 267.891 479.243 272.573 479.243 278.349C479.243 284.125 483.89 288.807 489.622 288.807Z" fill="#B4E7C2"/>
<path d="M428.944 288.807C434.677 288.807 439.323 284.125 439.323 278.349C439.323 272.573 434.677 267.891 428.944 267.891C423.212 267.891 418.565 272.573 418.565 278.349C418.565 284.125 423.212 288.807 428.944 288.807Z" fill="#B4E7C2"/>
<path d="M442.701 243.609C446.311 243.609 449.237 240.661 449.237 237.023C449.237 233.386 446.311 230.438 442.701 230.438C439.091 230.438 436.165 233.386 436.165 237.023C436.165 240.661 439.091 243.609 442.701 243.609Z" fill="#B4E7C2"/>
<path d="M456.833 240.479C456.728 240.479 456.628 240.455 456.529 240.408L447.898 235.951C447.57 235.784 447.442 235.377 447.608 235.047C447.774 234.717 448.178 234.587 448.506 234.755L457.137 239.211C457.464 239.378 457.593 239.785 457.426 240.116C457.308 240.35 457.075 240.479 456.833 240.479Z" fill="#32934D"/>
<path d="M444.164 242.997C443.836 242.997 443.551 242.757 443.504 242.422L442.041 232.352C441.988 231.983 442.24 231.644 442.606 231.591C442.972 231.538 443.309 231.792 443.361 232.16L444.824 242.231C444.876 242.599 444.625 242.939 444.259 242.992C444.226 242.997 444.197 242.997 444.164 242.997Z" fill="#32934D"/>
<path d="M437.053 261.979C436.996 261.979 436.934 261.97 436.877 261.956C436.521 261.86 436.312 261.491 436.407 261.132L438.962 251.641C439.057 251.282 439.423 251.071 439.779 251.167C440.136 251.263 440.345 251.631 440.25 251.99L437.694 261.482C437.618 261.778 437.347 261.979 437.053 261.979Z" fill="#32934D"/>
<path d="M484.91 258.308H469.919C469.548 258.308 469.254 258.007 469.254 257.638C469.254 257.27 469.553 256.968 469.919 256.968H484.91C485.281 256.968 485.575 257.27 485.575 257.638C485.575 258.007 485.276 258.308 484.91 258.308Z" fill="#32934D"/>
<path d="M508.742 259.711H502.975C502.68 259.711 502.443 259.471 502.443 259.175C502.443 258.878 502.68 258.639 502.975 258.639H508.742C509.036 258.639 509.274 258.878 509.274 259.175C509.274 259.471 509.036 259.711 508.742 259.711Z" fill="#226234"/>
<path d="M518.351 259.711H512.584C512.29 259.711 512.052 259.471 512.052 259.175C512.052 258.878 512.29 258.639 512.584 258.639H518.351C518.645 258.639 518.883 258.878 518.883 259.175C518.883 259.471 518.645 259.711 518.351 259.711Z" fill="#226234"/>
<path d="M515.468 263.779H509.701C509.406 263.779 509.169 263.54 509.169 263.243C509.169 262.946 509.406 262.707 509.701 262.707H515.468C515.762 262.707 516 262.946 516 263.243C516.004 263.54 515.762 263.779 515.468 263.779Z" fill="#226234"/>
<path d="M507.012 263.779H502.975C502.68 263.779 502.443 263.54 502.443 263.243C502.443 262.946 502.68 262.707 502.975 262.707H507.012C507.307 262.707 507.544 262.946 507.544 263.243C507.544 263.54 507.307 263.779 507.012 263.779Z" fill="#226234"/>
<path d="M507.782 268.427H502.975C502.68 268.427 502.443 268.187 502.443 267.891C502.443 267.594 502.68 267.354 502.975 267.354H507.782C508.077 267.354 508.314 267.594 508.314 267.891C508.314 268.187 508.077 268.427 507.782 268.427Z" fill="#226234"/>
<path d="M489.907 283.384C492.667 283.384 494.904 281.13 494.904 278.349C494.904 275.568 492.667 273.313 489.907 273.313C487.147 273.313 484.91 275.568 484.91 278.349C484.91 281.13 487.147 283.384 489.907 283.384Z" fill="#226234"/>
<path d="M429.23 283.384C431.989 283.384 434.227 281.13 434.227 278.349C434.227 275.568 431.989 273.313 429.23 273.313C426.47 273.313 424.232 275.568 424.232 278.349C424.232 281.13 426.47 283.384 429.23 283.384Z" fill="#226234"/>
<g clip-path="url(#clip5_1030_1813)">
<path d="M497.637 251.976H480.466C479.703 251.976 479.085 251.1 479.085 250.022V233.184C479.085 232.104 479.705 231.23 480.466 231.23H497.635C498.399 231.23 499.016 232.106 499.016 233.184V250.02C499.018 251.1 498.399 251.976 497.637 251.976Z" fill="#B4E7C2"/>
<path d="M495.843 250.498H492.307C491.974 250.498 491.704 250.117 491.704 249.646C491.704 249.174 491.974 248.793 492.307 248.793H495.843C496.177 248.793 496.446 249.174 496.446 249.646C496.446 250.117 496.177 250.498 495.843 250.498Z" fill="#69D085"/>
<path d="M478.377 233.361L478.134 235.711L476.498 239.853C476.461 239.947 476.391 240.002 476.319 240.002C476.289 240.002 476.257 239.992 476.227 239.971C476.125 239.9 476.083 239.722 476.135 239.58L478.377 233.361Z" fill="#B4E7C2"/>
<path d="M479.145 231.23V233.148L478.134 235.711L478.377 233.361L479.145 231.23Z" fill="#32934D"/>
<path d="M499.426 233.362L499.669 235.711L501.305 239.853C501.341 239.948 501.412 240.002 501.484 240.002C501.514 240.002 501.546 239.993 501.576 239.972C501.678 239.901 501.72 239.723 501.668 239.581L499.426 233.362Z" fill="#B4E7C2"/>
<path d="M498.658 231.23V233.148L499.67 235.711L499.427 233.361L498.658 231.23Z" fill="#32934D"/>
<path d="M499.018 241.063H479.038V242.257H499.018V241.063Z" fill="#32934D"/>
<path d="M487.397 224.694H480.887C480.398 224.694 480.003 225.253 480.003 225.944V231.287H488.282V225.944C488.282 225.253 487.886 224.694 487.397 224.694Z" fill="#D9D9D9"/>
<path d="M488.281 231.287H497.524V228.616C497.524 227.894 497.111 227.309 496.6 227.309H488.281V231.287Z" fill="#D9D9D9"/>
<path d="M489.648 227.309H488.281V231.287H489.648V227.309Z" fill="#8A8A8A"/>
<path d="M499.428 240.883H478.501C478.129 240.883 477.848 240.412 477.909 239.895L478.968 231.251C478.986 231.102 479.077 230.993 479.184 230.993H498.481C498.584 230.993 498.673 231.095 498.695 231.237L500.013 239.86C500.095 240.386 499.81 240.883 499.428 240.883Z" fill="#69D085"/>
</g>
</g>
<g clip-path="url(#clip6_1030_1813)">
<path d="M126.2 224.608H67.7528C65.5363 224.608 63.7334 222.812 63.7334 220.586V174.823C63.7334 172.605 65.5281 170.801 67.7528 170.801H126.2C128.416 170.801 130.219 172.597 130.219 174.823V220.586C130.219 222.804 128.416 224.608 126.2 224.608Z" fill="#32934D"/>
<path d="M67.5295 224.608H126.423C128.515 224.608 130.219 226.304 130.219 228.406V231.981C130.219 234.075 128.524 235.78 126.423 235.78H67.5295C65.4371 235.78 63.7334 234.083 63.7334 231.981V228.406C63.7417 226.304 65.4371 224.608 67.5295 224.608Z" fill="#226234"/>
<path d="M171.712 213.461V231.857C171.712 234.017 169.967 235.763 167.808 235.763H134.123C131.964 235.763 130.219 234.017 130.219 231.857V188.552C130.219 186.392 131.964 184.646 134.123 184.646H157.288L160.754 191.564H147.025C144.601 191.564 142.641 193.534 142.641 195.95V204.805C142.641 207.23 144.61 209.191 147.025 209.191H163.532C165.65 209.191 167.419 207.685 167.833 205.69L171.712 213.461Z" fill="#69D085"/>
<path d="M167.833 205.707C167.419 207.701 165.649 209.207 163.532 209.207H147.024C144.601 209.207 142.641 207.238 142.641 204.821V195.967C142.641 193.542 144.609 191.581 147.024 191.581H160.753L167.833 205.707Z" fill="#B4E7C2"/>
<path d="M152.971 250.502C159.996 250.502 165.691 244.803 165.691 237.774C165.691 230.745 159.996 225.046 152.971 225.046C145.946 225.046 140.251 230.745 140.251 237.774C140.251 244.803 145.946 250.502 152.971 250.502Z" fill="#B4E7C2"/>
<path d="M152.971 242.044C155.328 242.044 157.238 240.132 157.238 237.774C157.238 235.416 155.328 233.504 152.971 233.504C150.614 233.504 148.703 235.416 148.703 237.774C148.703 240.132 150.614 242.044 152.971 242.044Z" fill="#226234"/>
<path d="M92.7374 250.502C99.7624 250.502 105.457 244.803 105.457 237.774C105.457 230.745 99.7624 225.046 92.7374 225.046C85.7125 225.046 80.0176 230.745 80.0176 237.774C80.0176 244.803 85.7125 250.502 92.7374 250.502Z" fill="#B4E7C2"/>
<path d="M92.7377 242.044C95.0946 242.044 97.0053 240.132 97.0053 237.774C97.0053 235.416 95.0946 233.504 92.7377 233.504C90.3809 233.504 88.4702 235.416 88.4702 237.774C88.4702 240.132 90.3809 242.044 92.7377 242.044Z" fill="#226234"/>
<path d="M89.8431 213.668C99.3301 213.668 107.021 205.972 107.021 196.48C107.021 186.987 99.3301 179.292 89.8431 179.292C80.3562 179.292 72.6655 186.987 72.6655 196.48C72.6655 205.972 80.3562 213.668 89.8431 213.668Z" fill="#B4E7C2"/>
<path d="M88.8669 206.063L78.9755 197.721C78.289 197.142 78.198 196.116 78.777 195.429C79.3559 194.742 80.3814 194.651 81.0679 195.23L88.1308 201.18L96.7237 187.783C97.2117 187.029 98.2124 186.806 98.9733 187.294C99.7259 187.783 99.9492 188.784 99.4612 189.545L88.8669 206.063Z" fill="#69D085"/>
<path d="M123.081 217.748C122.18 217.748 121.452 217.02 121.452 216.118V179.292C121.452 178.39 122.18 177.662 123.081 177.662C123.983 177.662 124.711 178.39 124.711 179.292V216.126C124.702 217.02 123.975 217.748 123.081 217.748Z" fill="#69D085"/>
<path d="M42.5445 165.273H29.3781C28.7412 165.273 28.2202 164.752 28.2202 164.106C28.2202 163.461 28.7412 162.948 29.3781 162.948H42.5445C43.1896 162.948 43.7024 163.469 43.7024 164.106C43.7024 164.744 43.1896 165.273 42.5445 165.273Z" fill="#226234"/>
<path d="M61.5086 172.862H48.1188C47.4737 172.862 46.9609 172.34 46.9609 171.703C46.9609 171.058 47.482 170.544 48.1188 170.544H61.5003C62.1454 170.544 62.6581 171.066 62.6581 171.703C62.6664 172.34 62.1454 172.862 61.5086 172.862Z" fill="#226234"/>
<path d="M47.0021 180.45H39.4181C38.773 180.45 38.2603 179.929 38.2603 179.292C38.2603 178.655 38.7813 178.133 39.4181 178.133H47.0021C47.6472 178.133 48.1599 178.655 48.1599 179.292C48.1599 179.929 47.6472 180.45 47.0021 180.45Z" fill="#226234"/>
<path d="M60.392 180.45H52.3615C51.7164 180.45 51.2036 179.929 51.2036 179.292C51.2036 178.655 51.7246 178.133 52.3615 178.133H60.392C61.0371 178.133 61.5499 178.655 61.5499 179.292C61.5499 179.929 61.0371 180.45 60.392 180.45Z" fill="#226234"/>
<path d="M60.392 187.816H52.3615C51.7164 187.816 51.2036 187.294 51.2036 186.657C51.2036 186.02 51.7246 185.499 52.3615 185.499H60.392C61.0371 185.499 61.5499 186.02 61.5499 186.657C61.5499 187.294 61.0371 187.816 60.392 187.816Z" fill="#226234"/>
</g>
<defs>
<clipPath id="clip0_1030_1813">
<rect width="24.6367" height="31.6836" fill="white" transform="translate(580.297 120.387)"/>
</clipPath>
<clipPath id="clip1_1030_1813">
<rect width="21.2805" height="27.3606" fill="white" transform="translate(278.114 128.291)"/>
</clipPath>
<clipPath id="clip2_1030_1813">
<rect width="24.6367" height="31.6836" fill="white" transform="translate(34.9082 83.2979)"/>
</clipPath>
<clipPath id="clip3_1030_1813">
<rect width="78.4521" height="43.2055" fill="white" transform="translate(169.888)"/>
</clipPath>
<clipPath id="clip4_1030_1813">
<rect width="100.322" height="58.3694" fill="white" transform="translate(418.565 230.438)"/>
</clipPath>
<clipPath id="clip5_1030_1813">
<rect width="39.4259" height="27.2821" fill="white" transform="translate(462.267 224.694)"/>
</clipPath>
<clipPath id="clip6_1030_1813">
<rect width="143.491" height="87.5541" fill="white" transform="translate(28.2202 162.948)"/>
</clipPath>
</defs>
</svg>
