<svg width="130" height="72" viewBox="0 0 130 72" fill="none" xmlns="http://www.w3.org/2000/svg">
<g clip-path="url(#clip0_700_1468)">
<path d="M16.79 37.8401L1.90002 43.4501C1.17002 43.7201 0.360019 43.3601 0.0900187 42.6301C-0.179981 41.9001 0.180019 41.0901 0.910019 40.8201L15.8 35.2101C16.53 34.9401 17.34 35.3001 17.61 36.0301C17.89 36.7501 17.52 37.5601 16.79 37.8401Z" fill="#226234"/>
<path d="M38.2502 29.7601L23.1002 35.4601C22.3702 35.7301 21.5602 35.3701 21.2902 34.6401C21.0202 33.9101 21.3802 33.1001 22.1102 32.8301L37.2602 27.1301C37.9902 26.8601 38.8002 27.2201 39.0702 27.9501C39.3402 28.6701 38.9802 29.4801 38.2502 29.7601Z" fill="#226234"/>
<path d="M25.0801 44.5198L16.5001 47.7498C15.7701 48.0198 14.9601 47.6598 14.6901 46.9298C14.4201 46.1998 14.7801 45.3898 15.5101 45.1198L24.0901 41.8898C24.8201 41.6198 25.6301 41.9798 25.9001 42.7098C26.1701 43.4398 25.8001 44.2498 25.0801 44.5198Z" fill="#226234"/>
<path d="M40.22 38.8099L31.13 42.2299C30.4 42.4999 29.59 42.1399 29.32 41.4099C29.05 40.6799 29.41 39.8699 30.14 39.5999L39.23 36.1799C39.96 35.9099 40.77 36.2699 41.04 36.9999C41.31 37.7299 40.95 38.5399 40.22 38.8099Z" fill="#226234"/>
<path d="M43.3601 47.1399L34.2701 50.5599C33.5401 50.8299 32.7301 50.4699 32.4601 49.7399C32.1901 49.0099 32.5501 48.1999 33.2801 47.9299L42.3701 44.5099C43.1001 44.2399 43.9101 44.5999 44.1801 45.3299C44.4501 46.0599 44.0801 46.8699 43.3601 47.1399Z" fill="#226234"/>
<path d="M126.72 59.1802L93.1399 71.0602L51.3999 54.0602L84.9799 42.1802L126.72 59.1802Z" fill="#69D085"/>
<path d="M84.9798 42.18L51.3998 54.06L51.0698 11.88L84.6498 0L84.9798 42.18Z" fill="#32934D"/>
<path d="M126.39 17L126.72 59.18L84.9799 42.18L84.6499 0L126.39 17Z" fill="#B4E7C2"/>
<path d="M104.61 8.12988V50.1699L68.02 60.8299L78.05 64.9099L114.14 54.0599V12.0099L104.61 8.12988Z" fill="#32934D"/>
<path d="M41.55 17.18L66.6 2.25996C69.99 0.239955 74.28 2.77995 74.12 6.71995C73.85 13.35 72.99 21.95 70.48 26.39C69.71 27.75 68.22 28.6 66.67 28.4C65.51 28.25 64.57 27.49 65.48 25.06C65.48 25.06 61.68 29.31 56.2 26.27C56.2 26.27 52.03 27.79 47.28 23.03C47.28 23.03 44.78 23.59 42.35 22.95C39.64 22.24 39.15 18.61 41.55 17.18Z" fill="#E8E8E8"/>
<path d="M126.46 19.0698V32.0198C126.46 32.0098 132.23 24.8298 126.46 19.0698Z" fill="#E8E8E8"/>
</g>
<defs>
<clipPath id="clip0_700_1468">
<rect width="129.03" height="71.06" fill="white"/>
</clipPath>
</defs>
</svg>
