<svg width="496" height="223" viewBox="0 0 496 223" fill="none" xmlns="http://www.w3.org/2000/svg">
<g opacity="0.14">
<path d="M486.079 108.793H458.142L448.385 127.184V222.648H497.521V127.184L486.079 108.793ZM464.67 183.059H458.142V166.844H464.67V183.059ZM464.67 163.053H458.142V146.838H464.67V163.053ZM464.67 143.118H458.142V126.903H464.67V143.118ZM476.182 183.059H469.654V166.844H476.182V183.059ZM476.182 163.053H469.654V146.838H476.182V163.053ZM476.182 143.118H469.654V126.903H476.182V143.118ZM487.694 183.059H481.166V166.844H487.694V183.059ZM487.694 163.053H481.166V146.838H487.694V163.053ZM487.694 143.118H481.166V126.903H487.694V143.118Z" fill="#AEB3C3"/>
<path d="M398.828 0.904297V222.648H448.385V0.904297H398.828ZM440.945 207.767H405.567V204.959H440.945V207.767ZM440.945 200.116H405.567V197.308H440.945V200.116ZM440.945 192.394H405.567V189.587H440.945V192.394ZM440.945 184.743H405.567V181.935H440.945V184.743ZM440.945 177.022H405.567V174.214H440.945V177.022ZM440.945 169.3H405.567V166.493H440.945V169.3ZM440.945 161.649H405.567V158.841H440.945V161.649ZM440.945 153.928H405.567V151.12H440.945V153.928ZM440.945 146.277H405.567V143.469H440.945V146.277ZM440.945 138.555H405.567V135.748H440.945V138.555ZM440.945 130.834H405.567V128.026H440.945V130.834ZM440.945 123.183H405.567V120.375H440.945V123.183ZM440.945 115.461H405.567V112.654H440.945V115.461ZM440.945 107.81H405.567V105.002H440.945V107.81ZM440.945 100.089H405.567V97.2811H440.945V100.089ZM440.945 92.3675H405.567V89.5597H440.945V92.3675ZM440.945 84.7163H405.567V81.9085H440.945V84.7163ZM440.945 76.9949H405.567V74.1871H440.945V76.9949ZM440.945 69.3437H405.567V66.536H440.945V69.3437ZM440.945 61.6224H405.567V58.8146H440.945V61.6224ZM440.945 53.901H405.567V51.0932H440.945V53.901ZM440.945 46.2498H405.567V43.442H440.945V46.2498ZM440.945 38.5284H405.567V35.7207H440.945V38.5284ZM440.945 30.8773H405.567V28.0695H440.945V30.8773ZM440.945 23.1559H405.567V20.3481H440.945V23.1559ZM440.945 15.4345H405.567V12.6267H440.945V15.4345Z" fill="#7C85A0"/>
<path d="M386.051 73.6954V64.2893L372.434 52.8477L358.816 64.2893V73.6954H347.023V222.648H398.897V73.6954H386.051ZM362.326 208.328H356.921V196.606H362.326V208.328ZM362.326 193.657H356.921V181.935H362.326V193.657ZM362.326 178.987H356.921V167.264H362.326V178.987ZM362.326 164.316H356.921V152.594H362.326V164.316ZM362.326 149.646H356.921V137.923H362.326V149.646ZM362.326 135.045H356.921V123.323H362.326V135.045ZM362.326 120.375H356.921V108.652H362.326V120.375ZM362.326 105.704H356.921V93.9815H362.326V105.704ZM362.326 91.0333H356.921V79.3109H362.326V91.0333ZM370.89 208.328H365.485V196.606H370.89V208.328ZM370.89 193.657H365.485V181.935H370.89V193.657ZM370.89 178.987H365.485V167.264H370.89V178.987ZM370.89 164.316H365.485V152.594H370.89V164.316ZM370.89 149.646H365.485V137.923H370.89V149.646ZM370.89 135.045H365.485V123.323H370.89V135.045ZM370.89 120.375H365.485V108.652H370.89V120.375ZM370.89 105.704H365.485V93.9815H370.89V105.704ZM370.89 91.0333H365.485V79.3109H370.89V91.0333ZM370.89 76.3627H365.485V64.6403H370.89V76.3627ZM379.453 208.328H374.048V196.606H379.453V208.328ZM379.453 193.657H374.048V181.935H379.453V193.657ZM379.453 178.987H374.048V167.264H379.453V178.987ZM379.453 164.316H374.048V152.594H379.453V164.316ZM379.453 149.646H374.048V137.923H379.453V149.646ZM379.453 135.045H374.048V123.323H379.453V135.045ZM379.453 120.375H374.048V108.652H379.453V120.375ZM379.453 105.704H374.048V93.9815H379.453V105.704ZM379.453 91.0333H374.048V79.3109H379.453V91.0333ZM379.453 76.3627H374.048V64.6403H379.453V76.3627ZM387.947 208.328H382.542V196.606H387.947V208.328ZM387.947 193.657H382.542V181.935H387.947V193.657ZM387.947 178.987H382.542V167.264H387.947V178.987ZM387.947 164.316H382.542V152.594H387.947V164.316ZM387.947 149.646H382.542V137.923H387.947V149.646ZM387.947 135.045H382.542V123.323H387.947V135.045ZM387.947 120.375H382.542V108.652H387.947V120.375ZM387.947 105.704H382.542V93.9815H387.947V105.704ZM387.947 91.0333H382.542V79.3109H387.947V91.0333Z" fill="#AEB3C3"/>
<path d="M346.954 135.045V95.9469H340.075V79.5215H334.67V95.9469H322.386V114.829H312.278V120.094H324.703V126.481H312.278V135.045H324.703V141.433H312.278V151.049H324.703V157.437H312.278V167.124H324.703V173.512H312.278V183.128H324.703V189.586H312.278V199.203H324.703V205.59H312.278V222.648H346.954V205.59H334.46V199.203H346.954V189.586H334.46V183.128H346.954V173.512H334.46V167.124H346.954V157.437H334.46V151.049H346.954V141.433H334.46V135.045H346.954Z" fill="#7C85A0"/>
<path d="M304.768 148.383V139.117H297.257V133.081H268.968V139.117H261.458V148.383H254.017V222.648H312.278V148.383H304.768ZM271.917 200.256H266.863V185.937H271.917V200.256ZM271.917 182.989H266.863V168.669H271.917V182.989ZM271.917 165.721H266.863V151.401H271.917V165.721ZM280.761 200.256H275.707V185.937H280.761V200.256ZM280.761 182.989H275.707V168.669H280.761V182.989ZM280.761 165.721H275.707V151.401H280.761V165.721ZM289.606 200.256H284.552V185.937H289.606V200.256ZM289.606 182.989H284.552V168.669H289.606V182.989ZM289.606 165.721H284.552V151.401H289.606V165.721ZM298.45 200.256H293.396V185.937H298.45V200.256ZM298.45 182.989H293.396V168.669H298.45V182.989ZM298.45 165.721H293.396V151.401H298.45V165.721Z" fill="#AEB3C3"/>
<path d="M314.525 189.657H312.278V222.578H314.525V189.657Z" fill="#7C85A0"/>
<path d="M205.442 37.8281V222.65H253.946V37.8281H205.442ZM243.628 200.609H215.831V194.993H243.628V200.609ZM243.628 180.463H215.831V174.847H243.628V180.463ZM243.628 160.247H215.831V154.631H243.628V160.247ZM243.628 140.101H215.831V134.486H243.628V140.101ZM243.628 119.885H215.831V114.27H243.628V119.885ZM243.628 99.6693H215.831V94.0537H243.628V99.6693ZM243.628 79.5235H215.831V73.908H243.628V79.5235ZM243.628 59.3076H215.831V53.692H243.628V59.3076Z" fill="#515E83"/>
<path d="M164.94 107.391V222.65H205.863V107.391H164.94ZM182.91 205.873C182.91 207.839 181.295 209.383 179.4 209.383C177.505 209.383 175.89 207.768 175.89 205.873V198.362C175.89 196.397 177.505 194.853 179.4 194.853C181.295 194.853 182.91 196.467 182.91 198.362V205.873ZM182.91 186.429C182.91 188.395 181.295 189.939 179.4 189.939C177.505 189.939 175.89 188.325 175.89 186.429V178.919C175.89 176.953 177.505 175.409 179.4 175.409C181.295 175.409 182.91 177.023 182.91 178.919V186.429ZM182.91 166.986C182.91 168.951 181.295 170.495 179.4 170.495C177.505 170.495 175.89 168.881 175.89 166.986V159.475C175.89 157.509 177.505 155.965 179.4 155.965C181.295 155.965 182.91 157.58 182.91 159.475V166.986ZM182.91 147.542C182.91 149.507 181.295 151.051 179.4 151.051C177.505 151.051 175.89 149.437 175.89 147.542V140.031C175.89 138.066 177.505 136.521 179.4 136.521C181.295 136.521 182.91 138.136 182.91 140.031V147.542ZM182.91 128.098C182.91 130.063 181.295 131.608 179.4 131.608C177.505 131.608 175.89 129.993 175.89 128.098V120.587C175.89 118.622 177.505 117.077 179.4 117.077C181.295 117.077 182.91 118.692 182.91 120.587V128.098ZM194.983 205.873C194.983 207.839 193.369 209.383 191.473 209.383C189.508 209.383 187.964 207.768 187.964 205.873V198.362C187.964 196.397 189.578 194.853 191.473 194.853C193.439 194.853 194.983 196.467 194.983 198.362V205.873ZM194.983 186.429C194.983 188.395 193.369 189.939 191.473 189.939C189.508 189.939 187.964 188.325 187.964 186.429V178.919C187.964 176.953 189.578 175.409 191.473 175.409C193.439 175.409 194.983 177.023 194.983 178.919V186.429ZM194.983 166.986C194.983 168.951 193.369 170.495 191.473 170.495C189.508 170.495 187.964 168.881 187.964 166.986V159.475C187.964 157.509 189.578 155.965 191.473 155.965C193.439 155.965 194.983 157.58 194.983 159.475V166.986ZM194.983 147.542C194.983 149.507 193.369 151.051 191.473 151.051C189.508 151.051 187.964 149.437 187.964 147.542V140.031C187.964 138.066 189.578 136.521 191.473 136.521C193.439 136.521 194.983 138.136 194.983 140.031V147.542ZM194.983 128.098C194.983 130.063 193.369 131.608 191.473 131.608C189.508 131.608 187.964 129.993 187.964 128.098V120.587C187.964 118.622 189.578 117.077 191.473 117.077C193.439 117.077 194.983 118.692 194.983 120.587V128.098Z" fill="#7C85A0"/>
<path d="M136.863 133.081L110.329 166.423V222.648H164.94V166.423L136.863 133.081ZM129.001 214.015C125.561 214.015 122.824 211.277 122.824 207.837C122.824 204.398 125.561 201.66 129.001 201.66C132.44 201.66 135.178 204.398 135.178 207.837C135.178 211.277 132.37 214.015 129.001 214.015ZM129.001 197.589C125.561 197.589 122.824 194.852 122.824 191.412C122.824 187.972 125.561 185.235 129.001 185.235C132.44 185.235 135.178 187.972 135.178 191.412C135.178 194.852 132.37 197.589 129.001 197.589ZM129.001 181.093C125.561 181.093 122.824 178.356 122.824 174.916C122.824 171.477 125.561 168.739 129.001 168.739C132.44 168.739 135.178 171.477 135.178 174.916C135.178 178.356 132.37 181.093 129.001 181.093ZM146.269 214.015C142.829 214.015 140.091 211.277 140.091 207.837C140.091 204.398 142.829 201.66 146.269 201.66C149.708 201.66 152.446 204.398 152.446 207.837C152.446 211.277 149.708 214.015 146.269 214.015ZM146.269 197.589C142.829 197.589 140.091 194.852 140.091 191.412C140.091 187.972 142.829 185.235 146.269 185.235C149.708 185.235 152.446 187.972 152.446 191.412C152.446 194.852 149.708 197.589 146.269 197.589ZM146.269 181.093C142.829 181.093 140.091 178.356 140.091 174.916C140.091 171.477 142.829 168.739 146.269 168.739C149.708 168.739 152.446 171.477 152.446 174.916C152.446 178.356 149.708 181.093 146.269 181.093Z" fill="#AEB3C3"/>
<path d="M100.993 71.7313V59.9387H96.2198V45.2681H64.3516V59.9387H58.5255V71.7313H51.9272V222.649H109.557V71.7313H100.993ZM66.8084 189.938H60.4208V165.792H66.8084V189.938ZM66.8084 161.65H60.4208V137.503H66.8084V161.65ZM66.8084 133.362H60.4208V109.215H66.8084V133.362ZM66.8084 105.074H60.4208V80.9268H66.8084V105.074ZM76.9164 189.938H70.5287V165.792H76.9164V189.938ZM76.9164 161.65H70.5287V137.503H76.9164V161.65ZM76.9164 133.362H70.5287V109.215H76.9164V133.362ZM76.9164 105.074H70.5287V80.9268H76.9164V105.074ZM87.0244 189.938H80.6367V165.792H87.0244V189.938ZM87.0244 161.65H80.6367V137.503H87.0244V161.65ZM87.0244 133.362H80.6367V109.215H87.0244V133.362ZM87.0244 105.074H80.6367V80.9268H87.0244V105.074ZM97.1324 189.938H90.7447V165.792H97.1324V189.938ZM97.1324 161.65H90.7447V137.503H97.1324V161.65ZM97.1324 133.362H90.7447V109.215H97.1324V133.362ZM97.1324 105.074H90.7447V80.9268H97.1324V105.074Z" fill="#7C85A0"/>
<path d="M0.334473 133.081V222.648H52.6292V133.081H0.334473ZM18.6552 205.31H6.72215V202.573H18.6552V205.31ZM18.6552 198.291H6.72215V195.553H18.6552V198.291ZM18.6552 191.342H6.72215V188.604H18.6552V191.342ZM18.6552 184.393H6.72215V181.655H18.6552V184.393ZM18.6552 177.443H6.72215V174.706H18.6552V177.443ZM18.6552 170.494H6.72215V167.757H18.6552V170.494ZM18.6552 163.475H6.72215V160.737H18.6552V163.475ZM18.6552 156.525H6.72215V153.858H18.6552V156.525ZM18.6552 149.576H6.72215V146.839H18.6552V149.576ZM32.4835 205.31H20.5504V202.573H32.4835V205.31ZM32.4835 198.291H20.5504V195.553H32.4835V198.291ZM32.4835 191.342H20.5504V188.604H32.4835V191.342ZM32.4835 184.393H20.5504V181.655H32.4835V184.393ZM32.4835 177.443H20.5504V174.706H32.4835V177.443ZM32.4835 170.494H20.5504V167.757H32.4835V170.494ZM32.4835 163.475H20.5504V160.737H32.4835V163.475ZM32.4835 156.525H20.5504V153.858H32.4835V156.525ZM32.4835 149.576H20.5504V146.839H32.4835V149.576ZM46.3117 205.31H34.3787V202.573H46.3117V205.31ZM46.3117 198.291H34.3787V195.553H46.3117V198.291ZM46.3117 191.342H34.3787V188.604H46.3117V191.342ZM46.3117 184.393H34.3787V181.655H46.3117V184.393ZM46.3117 177.443H34.3787V174.706H46.3117V177.443ZM46.3117 170.494H34.3787V167.757H46.3117V170.494ZM46.3117 163.475H34.3787V160.737H46.3117V163.475ZM46.3117 156.525H34.3787V153.858H46.3117V156.525ZM46.3117 149.576H34.3787V146.839H46.3117V149.576Z" fill="#515E83"/>
<path d="M273.023 73.9077L260.187 77.5504C260.187 77.5504 259.84 119.267 256.284 132.624C256.198 132.624 275.625 123.777 273.023 73.9077Z" fill="#283764"/>
<path d="M311.272 73.9077L324.108 77.5504C324.108 77.5504 324.454 119.267 328.01 132.624C328.097 132.624 308.756 123.777 311.272 73.9077Z" fill="#283764"/>
<path d="M168.602 220.826H253.423C253.423 220.826 260.102 178.675 273.198 141.122C273.198 141.122 273.198 125.163 273.198 119.526C273.198 119.526 257.5 139.56 217.431 174.079C177.362 208.51 166 220.913 166 220.913H168.602V220.826Z" fill="#283764"/>
<path d="M415.694 220.826H330.873C330.873 220.826 324.194 178.675 311.098 141.122C311.098 141.122 311.098 125.163 311.098 119.526C311.098 119.526 326.796 139.56 366.865 174.079C406.934 208.51 418.296 220.913 418.296 220.913H415.694V220.826Z" fill="#283764"/>
<path d="M292.885 120.656C316.042 136.094 329.138 220.742 329.138 220.742H318.991C318.991 220.742 317.95 217.013 315.261 188.826C312.486 160.725 292.885 161.766 292.885 161.766H292.278C292.278 161.766 272.59 160.725 269.902 188.826C267.126 216.926 266.172 220.742 266.172 220.742H256.025C256.025 220.742 269.121 136.094 292.278 120.656H292.885Z" fill="#283764"/>
<path d="M307.283 72H276.06V132.624C278.922 127.767 292.712 116.579 292.712 116.579C304.16 123.431 308.15 132.711 308.15 132.711L307.283 72ZM282.565 85.3563H278.662V75.5559H282.565V85.3563ZM289.069 85.3563H285.167V75.5559H289.069V85.3563ZM297.482 85.3563H293.579V75.5559H297.482V85.3563ZM303.987 85.3563H300.084V75.5559H303.987V85.3563Z" fill="#283764"/>
</g>
</svg>
