<svg width="498" height="260" viewBox="0 0 498 260" fill="none" xmlns="http://www.w3.org/2000/svg">
<g opacity="0.14">
<path d="M151.224 69.1393H129.956C130.658 63.9449 135.15 59.9438 140.555 59.9438C145.96 59.9438 150.452 63.9449 151.224 69.1393Z" fill="#283764"/>
<path d="M157.19 69.1414H154.242C153.54 62.6133 148.275 57.4189 141.677 56.9276V1.54427C141.677 0.701943 140.975 0 140.133 0C139.29 0 138.588 0.701943 138.588 1.54427V56.9978C132.411 57.8401 127.498 62.8239 126.866 69.0712H123.356C122.514 69.0712 121.812 69.7731 121.812 70.6154C121.812 71.4578 122.514 72.1597 123.356 72.1597H157.12C157.962 72.1597 158.664 71.4578 158.664 70.6154C158.734 69.8433 158.032 69.1414 157.19 69.1414ZM129.955 69.1414C130.656 63.947 135.149 59.9459 140.554 59.9459C145.959 59.9459 150.451 63.947 151.153 69.1414H129.955Z" fill="#283764"/>
<path d="M162.525 76.1605C162.525 77.0028 161.823 77.7048 160.98 77.7048H119.285C118.443 77.7048 117.741 77.0028 117.741 76.1605C117.741 75.3182 118.443 74.6162 119.285 74.6162H160.98C161.823 74.6162 162.525 75.3182 162.525 76.1605Z" fill="#283764"/>
<path d="M112.898 84.9326C112.618 84.9326 112.337 85.0028 112.056 85.2134V84.9326H112.898Z" fill="#283764"/>
<path d="M125.394 88.0213H125.182L125.323 87.8804L125.394 88.0213Z" fill="#283764"/>
<path d="M127.428 84.9326L127.217 85.2836L126.937 84.9326H127.428Z" fill="#283764"/>
<path d="M129.185 88.0213H128.973L129.044 87.8804L129.185 88.0213Z" fill="#283764"/>
<path d="M138.8 88.0213H138.589L138.73 87.8804L138.8 88.0213Z" fill="#283764"/>
<path d="M140.836 84.9326L140.555 85.3538L140.274 84.9326H140.836Z" fill="#283764"/>
<path d="M142.521 88.0213H142.38L142.45 87.8804L142.521 88.0213Z" fill="#283764"/>
<path d="M152.138 88.0213H151.997L152.067 87.8804L152.138 88.0213Z" fill="#283764"/>
<path d="M154.243 84.9326L153.962 85.2836L153.681 84.9326H154.243Z" fill="#283764"/>
<path d="M155.928 88.0213H155.716L155.857 87.8804L155.928 88.0213Z" fill="#283764"/>
<path d="M168.773 84.9326V85.8451C168.773 85.775 168.773 85.7048 168.703 85.7048C168.422 85.2134 167.931 84.9326 167.369 84.9326H168.773Z" fill="#283764"/>
<path d="M142.45 87.8808L142.38 88.0212H142.59L142.45 87.8808ZM129.043 87.8808L128.973 88.0212H129.183L129.043 87.8808ZM138.73 87.8808L138.659 88.0212H138.87L138.73 87.8808ZM140.274 84.9326L140.555 85.2836L140.835 84.9326H140.274ZM126.937 84.9326L127.218 85.2836L127.499 84.9326H126.937ZM126.937 84.9326L127.218 85.2836L127.499 84.9326H126.937ZM126.937 84.9326L127.218 85.2836L127.499 84.9326H126.937ZM129.043 87.8808L128.973 88.0212H129.183L129.043 87.8808ZM138.73 87.8808L138.659 88.0212H138.87L138.73 87.8808ZM140.274 84.9326L140.555 85.2836L140.835 84.9326H140.274ZM126.937 84.9326L127.218 85.2836L127.499 84.9326H126.937ZM129.043 87.8808L128.973 88.0212H129.183L129.043 87.8808ZM138.73 87.8808L138.659 88.0212H138.87L138.73 87.8808ZM140.274 84.9326L140.555 85.2836L140.835 84.9326H140.274ZM142.45 87.8808L142.38 88.0212H142.59L142.45 87.8808ZM153.681 84.9326L153.962 85.2836L154.243 84.9326H153.681ZM125.323 87.8808L125.252 88.0212H125.463L125.323 87.8808ZM167.369 84.9326C167.93 84.9326 168.422 85.2134 168.703 85.7048C168.703 85.7749 168.773 85.775 168.773 85.8451V84.9326H167.369ZM112.126 85.2134C112.337 85.073 112.688 84.9326 112.968 84.9326H112.126V85.2134ZM155.857 87.8808L155.787 88.0212H155.997L155.857 87.8808ZM153.681 84.9326L153.962 85.2836L154.243 84.9326H153.681ZM142.45 87.8808L142.38 88.0212H142.59L142.45 87.8808ZM140.274 84.9326L140.555 85.2836L140.835 84.9326H140.274ZM129.043 87.8808L128.973 88.0212H129.183L129.043 87.8808ZM138.73 87.8808L138.659 88.0212H138.87L138.73 87.8808ZM126.937 84.9326L127.218 85.2836L127.499 84.9326H126.937ZM142.45 87.8808L142.38 88.0212H142.59L142.45 87.8808ZM152.067 87.8808L151.996 88.0212H152.207L152.067 87.8808ZM153.681 84.9326L153.962 85.2836L154.243 84.9326H153.681ZM140.274 84.9326L140.555 85.2836L140.835 84.9326H140.274ZM129.043 87.8808L128.973 88.0212H129.183L129.043 87.8808ZM138.73 87.8808L138.659 88.0212H138.87L138.73 87.8808ZM126.937 84.9326L127.218 85.2836L127.499 84.9326H126.937ZM129.043 87.8808L128.973 88.0212H129.183L129.043 87.8808ZM138.73 87.8808L138.659 88.0212H138.87L138.73 87.8808ZM140.274 84.9326L140.555 85.2836L140.835 84.9326H140.274ZM126.937 84.9326L127.218 85.2836L127.499 84.9326H126.937Z" fill="#283764"/>
<path d="M155.856 87.8808L155.786 88.0212H155.997L155.856 87.8808ZM142.449 87.8808L142.379 88.0212H142.589L142.449 87.8808ZM152.066 87.8808L151.995 88.0212H152.206L152.066 87.8808ZM153.68 84.9326L153.961 85.2836L154.242 84.9326H153.68ZM129.042 87.8808L128.972 88.0212H129.182L129.042 87.8808ZM138.729 87.8808L138.659 88.0212H138.869L138.729 87.8808ZM140.273 84.9326L140.554 85.2836L140.835 84.9326H140.273ZM125.322 87.8808L125.251 88.0212H125.462L125.322 87.8808ZM126.936 84.9326L127.217 85.2836L127.498 84.9326H126.936Z" fill="#283764"/>
<path d="M125.394 88.0247H125.182L125.323 87.8838L125.394 88.0247Z" fill="#283764"/>
<path d="M138.8 88.0247H138.589L138.73 87.8838L138.8 88.0247Z" fill="#283764"/>
<path d="M140.553 107.608C140.483 107.608 140.483 107.608 140.413 107.608C140.062 107.608 139.781 107.468 139.5 107.327C139.149 107.047 138.938 106.696 138.938 106.274L139.5 106.976C139.781 107.398 140.132 107.608 140.553 107.608Z" fill="#283764"/>
<path d="M152.136 88.0247H151.995L152.065 87.8838L152.136 88.0247Z" fill="#283764"/>
<path d="M174.107 84.9344H168.843V85.847C168.843 85.7768 168.843 85.7066 168.773 85.7066C168.492 85.2152 168 84.9344 167.439 84.9344H168.843V82.0565C168.843 81.2142 168.141 80.5122 167.298 80.5122H113.67C112.828 80.5122 112.126 81.2142 112.126 82.0565V84.9344H112.968C112.687 84.9344 112.407 85.0046 112.126 85.2152V84.9344H106.58C105.738 84.9344 105.036 85.6364 105.036 86.4787C105.036 87.3211 105.738 88.023 106.58 88.023H112.056L122.093 105.572C121.953 105.782 121.953 105.993 121.953 106.203C121.953 106.975 122.585 107.607 123.287 107.677L129.253 118.136V125.086C129.253 125.928 129.955 126.63 130.797 126.63H150.171C151.013 126.63 151.715 125.928 151.715 125.086V117.715C151.715 117.434 151.645 117.154 151.505 116.943L156.91 107.677H157.12C157.963 107.677 158.665 106.975 158.665 106.133C158.665 105.782 158.524 105.501 158.384 105.221L161.683 99.5349C162.034 99.5349 162.315 99.4647 162.595 99.2541C163.227 98.7627 163.368 97.9204 163.017 97.2886L168.422 87.9528H174.248C175.09 87.9528 175.792 87.2509 175.792 86.4085C175.581 85.6364 174.879 84.9344 174.107 84.9344ZM115.565 88.023H125.252L125.322 87.8826L125.392 88.023H125.182L119.707 95.3934L115.565 88.023ZM126.235 104.659H125.042L121.391 98.2714L127.218 90.4096L132.061 96.8675L126.375 104.519C126.305 104.589 126.305 104.659 126.235 104.659ZM142.52 88.023H142.309L142.379 87.8826L142.52 88.023H151.996L152.066 87.8826L152.136 88.023H151.926L147.223 94.4107L142.52 88.023ZM151.154 104.659H143.432L147.293 99.4647L151.154 104.659ZM145.398 96.9377L140.554 103.396L135.711 96.9377L140.554 90.4096L145.398 96.9377ZM142.169 106.274C142.169 106.695 141.958 107.046 141.607 107.326C141.327 107.537 141.046 107.607 140.695 107.607C140.625 107.607 140.625 107.607 140.554 107.607C140.484 107.607 140.484 107.607 140.414 107.607C140.063 107.607 139.782 107.467 139.502 107.326C139.151 107.046 138.94 106.695 138.94 106.274L139.502 106.975C139.782 107.326 140.133 107.537 140.625 107.607C141.046 107.607 141.467 107.397 141.748 106.975L142.169 106.274ZM137.747 104.659H130.025L133.886 99.4647L137.747 104.659ZM138.589 88.023L133.886 94.4107L129.183 88.023H128.972L129.043 87.8826L129.113 88.023H138.589L138.659 87.8826L138.729 88.023H138.589ZM148.627 123.541H132.272V119.259H148.627V123.541ZM148.346 116.171H131.57L126.726 107.677H153.26L148.346 116.171ZM155.085 104.659L155.014 104.799C155.014 104.729 154.944 104.659 154.944 104.659C154.944 104.659 154.874 104.589 154.874 104.519L149.188 96.8675L154.032 90.4096L159.296 97.4992L155.085 104.659ZM160.911 94.6915L155.997 88.023H155.787L155.857 87.8826L155.927 88.023H164.771L160.911 94.6915ZM156.699 84.9344C156.629 84.7941 156.489 84.6537 156.348 84.5835C155.716 84.0921 154.734 84.2325 154.242 84.9344V85.0046L153.962 85.3556L153.681 85.0046V84.9344C153.189 84.2325 152.277 84.0921 151.575 84.5835C151.435 84.7239 151.364 84.7941 151.224 84.9344H143.362C143.292 84.7941 143.152 84.6537 143.011 84.5835C142.309 84.0921 141.397 84.2325 140.905 84.9344V85.0046L140.625 85.3556L140.344 85.0046V84.9344C139.853 84.2325 138.94 84.0921 138.238 84.5835C138.098 84.7239 137.957 84.7941 137.887 84.9344H130.025C129.955 84.7941 129.815 84.6537 129.674 84.5835C128.972 84.0921 128.06 84.2325 127.568 84.9344V85.0046L127.288 85.3556L127.007 85.0046V84.9344C126.516 84.2325 125.533 84.0921 124.901 84.5835C124.761 84.7239 124.62 84.7941 124.55 84.9344H115.214V83.6008H165.824V84.9344H156.699Z" fill="#283764"/>
<path d="M155.928 88.0233H155.716L155.857 87.8823L155.928 88.0233Z" fill="#283764"/>
<path d="M142.52 88.0252H142.379L142.45 87.8843L142.52 88.0252Z" fill="#283764"/>
<path d="M129.183 88.0252H128.972L129.042 87.8843L129.183 88.0252Z" fill="#283764"/>
<path d="M142.169 106.275C142.169 106.696 141.958 107.047 141.607 107.328C141.326 107.538 141.046 107.609 140.695 107.609C140.624 107.609 140.624 107.609 140.554 107.609C140.975 107.609 141.397 107.398 141.677 106.977L142.169 106.275Z" fill="#283764"/>
<path d="M140.554 107.608C140.484 107.608 140.484 107.608 140.414 107.608C140.063 107.608 139.782 107.467 139.501 107.327C139.15 107.046 138.939 106.695 138.939 106.274L139.501 106.976C139.782 107.397 140.133 107.608 140.554 107.608Z" fill="#283764"/>
<path d="M142.168 106.274C142.168 106.695 141.958 107.046 141.607 107.327C141.326 107.537 141.045 107.608 140.694 107.608C140.624 107.608 140.624 107.608 140.554 107.608C140.975 107.608 141.396 107.397 141.677 106.976L142.168 106.274Z" fill="#283764"/>
<path d="M155.084 104.659L155.013 104.8C155.013 104.73 154.943 104.659 154.943 104.659H155.084Z" fill="#283764"/>
<path d="M183.583 233.678H151.575V125.088C151.575 124.245 150.873 123.543 150.03 123.543H130.657C129.814 123.543 129.113 124.245 129.113 125.088V233.678H97.4549C96.6126 233.678 95.9106 234.38 95.9106 235.223C95.9106 236.065 96.6126 236.767 97.4549 236.767H183.513C184.355 236.767 185.057 236.065 185.057 235.223C185.057 234.38 184.426 233.678 183.583 233.678ZM148.627 233.257H132.271V126.562H148.627V233.257Z" fill="#283764"/>
<path d="M109.177 256.911L108.756 257.472C108.686 257.542 108.615 257.613 108.615 257.683C108.475 257.472 108.405 257.262 108.405 257.051V256.911H109.177Z" fill="#283764"/>
<path d="M177.055 256.911H173.756L174.879 249.33C175.581 249.19 176.072 248.558 176.072 247.856C176.072 247.295 175.791 246.803 175.3 246.523L175.861 242.802H177.125C177.967 242.802 178.669 242.1 178.669 241.258C178.669 240.416 177.967 239.714 177.125 239.714H110.019V239.573C109.949 238.731 109.247 238.099 108.405 238.169C107.633 238.24 107.001 238.942 107.001 239.714H103.772C102.929 239.714 102.228 240.416 102.228 241.258C102.228 242.1 102.929 242.802 103.772 242.802H107.211L107.562 246.663C107.211 246.944 107.001 247.365 107.001 247.856C107.001 248.418 107.352 248.909 107.773 249.19L108.405 256.911H109.247L108.826 257.473C108.756 257.543 108.685 257.613 108.685 257.683C108.545 257.473 108.475 257.262 108.475 257.052V256.911H105.316C104.474 256.911 103.772 257.613 103.772 258.456C103.772 259.298 104.474 260 105.316 260H171.509C171.65 260 171.72 260 171.79 260H171.86C171.93 260 172.001 260 172.071 260H177.125C177.967 260 178.669 259.298 178.669 258.456C178.599 257.543 177.897 256.911 177.055 256.911ZM110.791 249.4H115.424L111.283 254.454L110.791 249.4ZM113.108 256.911L118.232 250.734L121.04 256.911H113.108ZM120.899 249.4H127.357L123.496 255.297L120.899 249.4ZM126.164 256.911L130.024 250.945L132.902 256.911H126.164ZM132.622 249.4H138.658L135.429 255.156L132.622 249.4ZM137.886 256.911L141.115 251.226L143.783 256.911H137.886ZM143.642 249.4H149.749L146.38 255.156L143.642 249.4ZM148.837 256.911L152.346 250.945L155.645 256.911H148.837ZM154.943 249.4H161.752L158.243 255.367L154.943 249.4ZM160.84 256.911L164.49 250.734L168.631 256.911H160.84ZM170.948 255.016L167.157 249.33H171.79L170.948 255.016ZM172.211 246.382H110.51L110.23 242.872H172.773L172.211 246.382Z" fill="#283764"/>
<path d="M109.177 256.911L108.756 257.472C108.686 257.542 108.615 257.613 108.615 257.683C108.475 257.472 108.405 257.262 108.405 257.051V256.911H109.177Z" fill="#283764"/>
<path d="M486.331 145.792H458.394L448.637 164.183V259.648H497.773V164.183L486.331 145.792ZM464.922 220.058H458.394V203.843H464.922V220.058ZM464.922 200.053H458.394V183.838H464.922V200.053ZM464.922 180.117H458.394V163.903H464.922V180.117ZM476.434 220.058H469.906V203.843H476.434V220.058ZM476.434 200.053H469.906V183.838H476.434V200.053ZM476.434 180.117H469.906V163.903H476.434V180.117ZM487.946 220.058H481.417V203.843H487.946V220.058ZM487.946 200.053H481.417V183.838H487.946V200.053ZM487.946 180.117H481.417V163.903H487.946V180.117Z" fill="#AEB3C3"/>
<path d="M399.08 37.9043V259.648H448.637V37.9043H399.08ZM441.196 244.767H405.818V241.959H441.196V244.767ZM441.196 237.116H405.818V234.308H441.196V237.116ZM441.196 229.394H405.818V226.587H441.196V229.394ZM441.196 221.743H405.818V218.935H441.196V221.743ZM441.196 214.022H405.818V211.214H441.196V214.022ZM441.196 206.3H405.818V203.493H441.196V206.3ZM441.196 198.649H405.818V195.841H441.196V198.649ZM441.196 190.928H405.818V188.12H441.196V190.928ZM441.196 183.277H405.818V180.469H441.196V183.277ZM441.196 175.555H405.818V172.748H441.196V175.555ZM441.196 167.834H405.818V165.026H441.196V167.834ZM441.196 160.183H405.818V157.375H441.196V160.183ZM441.196 152.461H405.818V149.654H441.196V152.461ZM441.196 144.81H405.818V142.002H441.196V144.81ZM441.196 137.089H405.818V134.281H441.196V137.089ZM441.196 129.367H405.818V126.56H441.196V129.367ZM441.196 121.716H405.818V118.909H441.196V121.716ZM441.196 113.995H405.818V111.187H441.196V113.995ZM441.196 106.344H405.818V103.536H441.196V106.344ZM441.196 98.6224H405.818V95.8146H441.196V98.6224ZM441.196 90.901H405.818V88.0932H441.196V90.901ZM441.196 83.2498H405.818V80.442H441.196V83.2498ZM441.196 75.5284H405.818V72.7207H441.196V75.5284ZM441.196 67.8773H405.818V65.0695H441.196V67.8773ZM441.196 60.1559H405.818V57.3481H441.196V60.1559ZM441.196 52.4345H405.818V49.6267H441.196V52.4345Z" fill="#7C85A0"/>
<path d="M386.303 110.695V101.289L372.686 89.8472L359.068 101.289V110.695H347.275V259.647H399.149V110.695H386.303ZM362.578 245.327H357.173V233.605H362.578V245.327ZM362.578 230.657H357.173V218.934H362.578V230.657ZM362.578 215.986H357.173V204.264H362.578V215.986ZM362.578 201.316H357.173V189.593H362.578V201.316ZM362.578 186.645H357.173V174.923H362.578V186.645ZM362.578 172.045H357.173V160.322H362.578V172.045ZM362.578 157.374H357.173V145.652H362.578V157.374ZM362.578 142.703H357.173V130.981H362.578V142.703ZM362.578 128.033H357.173V116.31H362.578V128.033ZM371.141 245.327H365.737V233.605H371.141V245.327ZM371.141 230.657H365.737V218.934H371.141V230.657ZM371.141 215.986H365.737V204.264H371.141V215.986ZM371.141 201.316H365.737V189.593H371.141V201.316ZM371.141 186.645H365.737V174.923H371.141V186.645ZM371.141 172.045H365.737V160.322H371.141V172.045ZM371.141 157.374H365.737V145.652H371.141V157.374ZM371.141 142.703H365.737V130.981H371.141V142.703ZM371.141 128.033H365.737V116.31H371.141V128.033ZM371.141 113.362H365.737V101.64H371.141V113.362ZM379.705 245.327H374.3V233.605H379.705V245.327ZM379.705 230.657H374.3V218.934H379.705V230.657ZM379.705 215.986H374.3V204.264H379.705V215.986ZM379.705 201.316H374.3V189.593H379.705V201.316ZM379.705 186.645H374.3V174.923H379.705V186.645ZM379.705 172.045H374.3V160.322H379.705V172.045ZM379.705 157.374H374.3V145.652H379.705V157.374ZM379.705 142.703H374.3V130.981H379.705V142.703ZM379.705 128.033H374.3V116.31H379.705V128.033ZM379.705 113.362H374.3V101.64H379.705V113.362ZM388.199 245.327H382.794V233.605H388.199V245.327ZM388.199 230.657H382.794V218.934H388.199V230.657ZM388.199 215.986H382.794V204.264H388.199V215.986ZM388.199 201.316H382.794V189.593H388.199V201.316ZM388.199 186.645H382.794V174.923H388.199V186.645ZM388.199 172.045H382.794V160.322H388.199V172.045ZM388.199 157.374H382.794V145.652H388.199V157.374ZM388.199 142.703H382.794V130.981H388.199V142.703ZM388.199 128.033H382.794V116.31H388.199V128.033Z" fill="#AEB3C3"/>
<path d="M347.206 172.045V132.947H340.327V116.521H334.922V132.947H322.638V151.829H312.53V157.094H324.955V163.481H312.53V172.045H324.955V178.433H312.53V188.049H324.955V194.437H312.53V204.124H324.955V210.512H312.53V220.128H324.955V226.586H312.53V236.203H324.955V242.59H312.53V259.648H347.206V242.59H334.712V236.203H347.206V226.586H334.712V220.128H347.206V210.512H334.712V204.124H347.206V194.437H334.712V188.049H347.206V178.433H334.712V172.045H347.206Z" fill="#7C85A0"/>
<path d="M305.02 185.383V176.117H297.509V170.081H269.22V176.117H261.71V185.383H254.269V259.648H312.53V185.383H305.02ZM272.169 237.256H267.115V222.937H272.169V237.256ZM272.169 219.989H267.115V205.669H272.169V219.989ZM272.169 202.721H267.115V188.401H272.169V202.721ZM281.013 237.256H275.959V222.937H281.013V237.256ZM281.013 219.989H275.959V205.669H281.013V219.989ZM281.013 202.721H275.959V188.401H281.013V202.721ZM289.858 237.256H284.804V222.937H289.858V237.256ZM289.858 219.989H284.804V205.669H289.858V219.989ZM289.858 202.721H284.804V188.401H289.858V202.721ZM298.702 237.256H293.648V222.937H298.702V237.256ZM298.702 219.989H293.648V205.669H298.702V219.989ZM298.702 202.721H293.648V188.401H298.702V202.721Z" fill="#AEB3C3"/>
<path d="M314.776 226.657H312.53V259.578H314.776V226.657Z" fill="#7C85A0"/>
<path d="M205.694 74.8281V259.65H254.198V74.8281H205.694ZM243.88 237.609H216.083V231.993H243.88V237.609ZM243.88 217.463H216.083V211.847H243.88V217.463ZM243.88 197.247H216.083V191.631H243.88V197.247ZM243.88 177.101H216.083V171.486H243.88V177.101ZM243.88 156.885H216.083V151.27H243.88V156.885ZM243.88 136.669H216.083V131.054H243.88V136.669ZM243.88 116.524H216.083V110.908H243.88V116.524ZM243.88 96.3076H216.083V90.692H243.88V96.3076Z" fill="#515E83"/>
<path d="M165.192 144.39V259.649H206.115V144.39H165.192ZM183.162 242.873C183.162 244.838 181.547 246.382 179.652 246.382C177.757 246.382 176.142 244.768 176.142 242.873V235.362C176.142 233.396 177.757 231.852 179.652 231.852C181.547 231.852 183.162 233.467 183.162 235.362V242.873ZM183.162 223.429C183.162 225.394 181.547 226.939 179.652 226.939C177.757 226.939 176.142 225.324 176.142 223.429V215.918C176.142 213.953 177.757 212.408 179.652 212.408C181.547 212.408 183.162 214.023 183.162 215.918V223.429ZM183.162 203.985C183.162 205.951 181.547 207.495 179.652 207.495C177.757 207.495 176.142 205.88 176.142 203.985V196.474C176.142 194.509 177.757 192.965 179.652 192.965C181.547 192.965 183.162 194.579 183.162 196.474V203.985ZM183.162 184.541C183.162 186.507 181.547 188.051 179.652 188.051C177.757 188.051 176.142 186.437 176.142 184.541V177.03C176.142 175.065 177.757 173.521 179.652 173.521C181.547 173.521 183.162 175.135 183.162 177.03V184.541ZM183.162 165.097C183.162 167.063 181.547 168.607 179.652 168.607C177.757 168.607 176.142 166.993 176.142 165.097V157.587C176.142 155.621 177.757 154.077 179.652 154.077C181.547 154.077 183.162 155.691 183.162 157.587V165.097ZM195.235 242.873C195.235 244.838 193.621 246.382 191.725 246.382C189.76 246.382 188.216 244.768 188.216 242.873V235.362C188.216 233.396 189.83 231.852 191.725 231.852C193.691 231.852 195.235 233.467 195.235 235.362V242.873ZM195.235 223.429C195.235 225.394 193.621 226.939 191.725 226.939C189.76 226.939 188.216 225.324 188.216 223.429V215.918C188.216 213.953 189.83 212.408 191.725 212.408C193.691 212.408 195.235 214.023 195.235 215.918V223.429ZM195.235 203.985C195.235 205.951 193.621 207.495 191.725 207.495C189.76 207.495 188.216 205.88 188.216 203.985V196.474C188.216 194.509 189.83 192.965 191.725 192.965C193.691 192.965 195.235 194.579 195.235 196.474V203.985ZM195.235 184.541C195.235 186.507 193.621 188.051 191.725 188.051C189.76 188.051 188.216 186.437 188.216 184.541V177.03C188.216 175.065 189.83 173.521 191.725 173.521C193.691 173.521 195.235 175.135 195.235 177.03V184.541ZM195.235 165.097C195.235 167.063 193.621 168.607 191.725 168.607C189.76 168.607 188.216 166.993 188.216 165.097V157.587C188.216 155.621 189.83 154.077 191.725 154.077C193.691 154.077 195.235 155.691 195.235 157.587V165.097Z" fill="#7C85A0"/>
<path d="M137.114 170.081L110.581 203.423V259.648H165.192V203.423L137.114 170.081ZM129.253 251.015C125.813 251.015 123.076 248.277 123.076 244.837C123.076 241.398 125.813 238.66 129.253 238.66C132.692 238.66 135.43 241.398 135.43 244.837C135.43 248.277 132.622 251.015 129.253 251.015ZM129.253 234.589C125.813 234.589 123.076 231.852 123.076 228.412C123.076 224.972 125.813 222.235 129.253 222.235C132.692 222.235 135.43 224.972 135.43 228.412C135.43 231.852 132.622 234.589 129.253 234.589ZM129.253 218.093C125.813 218.093 123.076 215.356 123.076 211.916C123.076 208.477 125.813 205.739 129.253 205.739C132.692 205.739 135.43 208.477 135.43 211.916C135.43 215.356 132.622 218.093 129.253 218.093ZM146.521 251.015C143.081 251.015 140.343 248.277 140.343 244.837C140.343 241.398 143.081 238.66 146.521 238.66C149.96 238.66 152.698 241.398 152.698 244.837C152.698 248.277 149.96 251.015 146.521 251.015ZM146.521 234.589C143.081 234.589 140.343 231.852 140.343 228.412C140.343 224.972 143.081 222.235 146.521 222.235C149.96 222.235 152.698 224.972 152.698 228.412C152.698 231.852 149.96 234.589 146.521 234.589ZM146.521 218.093C143.081 218.093 140.343 215.356 140.343 211.916C140.343 208.477 143.081 205.739 146.521 205.739C149.96 205.739 152.698 208.477 152.698 211.916C152.698 215.356 149.96 218.093 146.521 218.093Z" fill="#AEB3C3"/>
<path d="M101.245 108.731V96.9387H96.4718V82.2681H64.6036V96.9387H58.7775V108.731H52.1792V259.649H109.809V108.731H101.245ZM67.0604 226.938H60.6727V202.792H67.0604V226.938ZM67.0604 198.65H60.6727V174.503H67.0604V198.65ZM67.0604 170.362H60.6727V146.215H67.0604V170.362ZM67.0604 142.074H60.6727V117.927H67.0604V142.074ZM77.1684 226.938H70.7807V202.792H77.1684V226.938ZM77.1684 198.65H70.7807V174.503H77.1684V198.65ZM77.1684 170.362H70.7807V146.215H77.1684V170.362ZM77.1684 142.074H70.7807V117.927H77.1684V142.074ZM87.2763 226.938H80.8887V202.792H87.2763V226.938ZM87.2763 198.65H80.8887V174.503H87.2763V198.65ZM87.2763 170.362H80.8887V146.215H87.2763V170.362ZM87.2763 142.074H80.8887V117.927H87.2763V142.074ZM97.3843 226.938H90.9966V202.792H97.3843V226.938ZM97.3843 198.65H90.9966V174.503H97.3843V198.65ZM97.3843 170.362H90.9966V146.215H97.3843V170.362ZM97.3843 142.074H90.9966V117.927H97.3843V142.074Z" fill="#7C85A0"/>
<path d="M0.586426 170.081V259.648H52.8812V170.081H0.586426ZM18.9071 242.31H6.97411V239.573H18.9071V242.31ZM18.9071 235.291H6.97411V232.553H18.9071V235.291ZM18.9071 228.342H6.97411V225.604H18.9071V228.342ZM18.9071 221.393H6.97411V218.655H18.9071V221.393ZM18.9071 214.443H6.97411V211.706H18.9071V214.443ZM18.9071 207.494H6.97411V204.757H18.9071V207.494ZM18.9071 200.475H6.97411V197.737H18.9071V200.475ZM18.9071 193.525H6.97411V190.858H18.9071V193.525ZM18.9071 186.576H6.97411V183.839H18.9071V186.576ZM32.7354 242.31H20.8024V239.573H32.7354V242.31ZM32.7354 235.291H20.8024V232.553H32.7354V235.291ZM32.7354 228.342H20.8024V225.604H32.7354V228.342ZM32.7354 221.393H20.8024V218.655H32.7354V221.393ZM32.7354 214.443H20.8024V211.706H32.7354V214.443ZM32.7354 207.494H20.8024V204.757H32.7354V207.494ZM32.7354 200.475H20.8024V197.737H32.7354V200.475ZM32.7354 193.525H20.8024V190.858H32.7354V193.525ZM32.7354 186.576H20.8024V183.839H32.7354V186.576ZM46.5637 242.31H34.6307V239.573H46.5637V242.31ZM46.5637 235.291H34.6307V232.553H46.5637V235.291ZM46.5637 228.342H34.6307V225.604H46.5637V228.342ZM46.5637 221.393H34.6307V218.655H46.5637V221.393ZM46.5637 214.443H34.6307V211.706H46.5637V214.443ZM46.5637 207.494H34.6307V204.757H46.5637V207.494ZM46.5637 200.475H34.6307V197.737H46.5637V200.475ZM46.5637 193.525H34.6307V190.858H46.5637V193.525ZM46.5637 186.576H34.6307V183.839H46.5637V186.576Z" fill="#515E83"/>
</g>
</svg>
