<svg width="236" height="144" viewBox="0 0 236 144" fill="none" xmlns="http://www.w3.org/2000/svg">
<g clip-path="url(#clip0_700_1787)">
<path d="M161.146 101.413H65.0189C61.3735 101.413 58.4082 98.459 58.4082 94.7978V19.5312C58.4082 15.8836 61.3599 12.9165 65.0189 12.9165H161.146C164.792 12.9165 167.757 15.87 167.757 19.5312V94.7978C167.757 98.4454 164.792 101.413 161.146 101.413Z" fill="#32934D"/>
<path d="M64.6517 101.413H161.514C164.955 101.413 167.757 104.203 167.757 107.66V113.54C167.757 116.983 164.969 119.787 161.514 119.787H64.6517C61.2103 119.787 58.4082 116.997 58.4082 113.54V107.66C58.4218 104.203 61.2103 101.413 64.6517 101.413Z" fill="#226234"/>
<path d="M236 83.0791V113.335C236 116.888 233.13 119.76 229.58 119.76H174.178C170.627 119.76 167.757 116.888 167.757 113.335V42.1112C167.757 38.5588 170.627 35.687 174.178 35.687H212.278L217.977 47.0655H195.397C191.412 47.0655 188.188 50.3048 188.188 54.2791V68.8424C188.188 72.8303 191.425 76.056 195.397 76.056H222.547C226.03 76.056 228.94 73.5789 229.621 70.2987L236 83.0791Z" fill="#69D085"/>
<path d="M229.621 70.326C228.94 73.6062 226.03 76.0833 222.547 76.0833H195.397C191.412 76.0833 188.188 72.844 188.188 68.8697V54.3064C188.188 50.3185 191.425 47.0928 195.397 47.0928H217.977L229.621 70.326Z" fill="#B4E7C2"/>
<path d="M205.177 144C216.731 144 226.098 134.628 226.098 123.067C226.098 111.506 216.731 102.134 205.177 102.134C193.623 102.134 184.257 111.506 184.257 123.067C184.257 134.628 193.623 144 205.177 144Z" fill="#B4E7C2"/>
<path d="M205.177 130.09C209.053 130.09 212.196 126.946 212.196 123.067C212.196 119.188 209.053 116.044 205.177 116.044C201.301 116.044 198.158 119.188 198.158 123.067C198.158 126.946 201.301 130.09 205.177 130.09Z" fill="#226234"/>
<path d="M106.112 144C117.666 144 127.032 134.628 127.032 123.067C127.032 111.506 117.666 102.134 106.112 102.134C94.5578 102.134 85.1914 111.506 85.1914 123.067C85.1914 134.628 94.5578 144 106.112 144Z" fill="#B4E7C2"/>
<path d="M106.112 130.09C109.988 130.09 113.13 126.946 113.13 123.067C113.13 119.188 109.988 116.044 106.112 116.044C102.235 116.044 99.0928 119.188 99.0928 123.067C99.0928 126.946 102.235 130.09 106.112 130.09Z" fill="#226234"/>
<path d="M101.351 83.4192C116.954 83.4192 129.603 70.7627 129.603 55.15C129.603 39.5374 116.954 26.8809 101.351 26.8809C85.7475 26.8809 73.0986 39.5374 73.0986 55.15C73.0986 70.7627 85.7475 83.4192 101.351 83.4192Z" fill="#B4E7C2"/>
<path d="M99.7456 70.9112L83.4773 57.1917C82.3483 56.239 82.1987 54.5512 83.1508 53.4216C84.103 52.2919 85.7897 52.1422 86.9187 53.0949L98.535 62.8809L112.668 40.8454C113.47 39.6068 115.116 39.2393 116.368 40.0424C117.605 40.8454 117.973 42.4923 117.17 43.7444L99.7456 70.9112Z" fill="#69D085"/>
<path d="M156.019 90.1294C154.536 90.1294 153.339 88.9317 153.339 87.4481V26.881C153.339 25.3974 154.536 24.1997 156.019 24.1997C157.501 24.1997 158.698 25.3974 158.698 26.881V87.4617C158.685 88.9317 157.488 90.1294 156.019 90.1294Z" fill="#69D085"/>
<path d="M23.5592 3.82457H1.90432C0.856945 3.82457 0 2.96711 0 1.90548C0 0.843856 0.856945 0 1.90432 0H23.5592C24.6202 0 25.4635 0.857467 25.4635 1.90548C25.4635 2.9535 24.6202 3.82457 23.5592 3.82457Z" fill="#226234"/>
<path d="M54.7492 16.3056H32.7271C31.6661 16.3056 30.8228 15.4481 30.8228 14.4001C30.8228 13.3385 31.6797 12.4946 32.7271 12.4946H54.7356C55.7966 12.4946 56.6399 13.3521 56.6399 14.4001C56.6535 15.4481 55.7966 16.3056 54.7492 16.3056Z" fill="#226234"/>
<path d="M30.8908 28.7865H18.4175C17.3565 28.7865 16.5132 27.9291 16.5132 26.8811C16.5132 25.8331 17.3701 24.9756 18.4175 24.9756H30.8908C31.9518 24.9756 32.7951 25.8331 32.7951 26.8811C32.7951 27.9291 31.9518 28.7865 30.8908 28.7865Z" fill="#226234"/>
<path d="M52.9129 28.7865H39.7051C38.6441 28.7865 37.8008 27.9291 37.8008 26.8811C37.8008 25.8331 38.6577 24.9756 39.7051 24.9756H52.9129C53.9739 24.9756 54.8173 25.8331 54.8173 26.8811C54.8173 27.9291 53.9739 28.7865 52.9129 28.7865Z" fill="#226234"/>
<path d="M52.9129 40.8998H39.7051C38.6441 40.8998 37.8008 40.0424 37.8008 38.9943C37.8008 37.9463 38.6577 37.0889 39.7051 37.0889H52.9129C53.9739 37.0889 54.8173 37.9463 54.8173 38.9943C54.8173 40.0424 53.9739 40.8998 52.9129 40.8998Z" fill="#226234"/>
</g>
<defs>
<clipPath id="clip0_700_1787">
<rect width="236" height="144" fill="white"/>
</clipPath>
</defs>
</svg>
