<svg width="165" height="96" viewBox="0 0 165 96" fill="none" xmlns="http://www.w3.org/2000/svg">
<g clip-path="url(#clip0_700_1744)">
<path d="M72.8672 35.1568H103.633C105.844 35.1568 107.641 33.3541 107.641 31.1185C107.641 28.8907 105.852 27.0801 103.633 27.0801H72.8672C70.6562 27.0801 68.8594 28.8828 68.8594 31.1185C68.8672 33.3541 70.6562 35.1568 72.8672 35.1568Z" fill="#226234"/>
<path d="M124.461 35.1567H88.7422C85.5156 35.1567 82.9063 37.7938 82.9063 41.0371V47.4214V55.0651V56.0177C82.9063 60.1505 79.5781 63.504 75.4766 63.504H51.7422C47.6406 63.504 44.3125 60.1505 44.3125 56.0177V55.0651V47.4214V19.5542H35.4609L28.5078 24.3326L14.1016 55.0651L12.3437 62.2287L9.22656 74.9658H88.7344H111.008H124.453C127.68 74.9658 130.289 72.3365 130.289 69.0853V41.045C130.297 37.7938 127.68 35.1567 124.461 35.1567Z" fill="#69D085"/>
<path d="M116.867 96.0001C126.295 96.0001 133.938 88.2992 133.938 78.7996C133.938 69.3 126.295 61.5991 116.867 61.5991C107.44 61.5991 99.7969 69.3 99.7969 78.7996C99.7969 88.2992 107.44 96.0001 116.867 96.0001Z" fill="#B4E7C2"/>
<path d="M17.0703 96.0001C26.498 96.0001 34.1406 88.2992 34.1406 78.7996C34.1406 69.3 26.498 61.5991 17.0703 61.5991C7.64264 61.5991 0 69.3 0 78.7996C0 88.2992 7.64264 96.0001 17.0703 96.0001Z" fill="#B4E7C2"/>
<path d="M39.6953 21.664C45.6324 21.664 50.4453 16.8143 50.4453 10.832C50.4453 4.84964 45.6324 0 39.6953 0C33.7583 0 28.9453 4.84964 28.9453 10.832C28.9453 16.8143 33.7583 21.664 39.6953 21.664Z" fill="#B4E7C2"/>
<path d="M62.9374 16.5154C62.7655 16.5154 62.6015 16.4761 62.4374 16.3974L48.2421 9.06846C47.703 8.79294 47.4921 8.12381 47.7655 7.58064C48.039 7.03746 48.703 6.82492 49.2421 7.10044L63.4374 14.4293C63.9765 14.7049 64.1874 15.374 63.914 15.9172C63.7187 16.3029 63.3359 16.5154 62.9374 16.5154Z" fill="#32934D"/>
<path d="M42.1016 20.6563C41.5626 20.6563 41.0938 20.2627 41.0157 19.7116L38.6094 3.14877C38.5235 2.54262 38.9376 1.98371 39.5391 1.89711C40.1407 1.81052 40.6954 2.22774 40.7813 2.83389L43.1876 19.3967C43.2735 20.0029 42.8594 20.5618 42.2579 20.6484C42.2032 20.6563 42.1563 20.6563 42.1016 20.6563Z" fill="#32934D"/>
<path d="M30.4063 51.8771C30.3126 51.8771 30.211 51.8614 30.1173 51.8378C29.5313 51.6803 29.1876 51.0742 29.3438 50.4838L33.5469 34.8734C33.7032 34.283 34.3048 33.9367 34.8907 34.0941C35.4766 34.2516 35.8204 34.8577 35.6641 35.4481L31.461 51.0584C31.336 51.5465 30.8907 51.8771 30.4063 51.8771Z" fill="#32934D"/>
<path d="M109.117 45.8389H84.4609C83.8516 45.8389 83.3672 45.343 83.3672 44.7369C83.3672 44.1307 83.8594 43.6348 84.4609 43.6348H109.117C109.727 43.6348 110.211 44.1307 110.211 44.7369C110.211 45.343 109.719 45.8389 109.117 45.8389Z" fill="#32934D"/>
<path d="M148.312 48.1457H138.828C138.344 48.1457 137.953 47.7521 137.953 47.264C137.953 46.7759 138.344 46.3823 138.828 46.3823H148.312C148.797 46.3823 149.188 46.7759 149.188 47.264C149.188 47.7521 148.797 48.1457 148.312 48.1457Z" fill="#226234"/>
<path d="M164.117 48.1457H154.633C154.148 48.1457 153.758 47.7521 153.758 47.264C153.758 46.7759 154.148 46.3823 154.633 46.3823H164.117C164.602 46.3823 164.992 46.7759 164.992 47.264C164.992 47.7521 164.602 48.1457 164.117 48.1457Z" fill="#226234"/>
<path d="M159.375 54.8371H149.891C149.406 54.8371 149.016 54.4435 149.016 53.9554C149.016 53.4673 149.406 53.0737 149.891 53.0737H159.375C159.859 53.0737 160.25 53.4673 160.25 53.9554C160.258 54.4435 159.859 54.8371 159.375 54.8371Z" fill="#226234"/>
<path d="M145.469 54.8371H138.828C138.344 54.8371 137.953 54.4435 137.953 53.9554C137.953 53.4673 138.344 53.0737 138.828 53.0737H145.469C145.953 53.0737 146.344 53.4673 146.344 53.9554C146.344 54.4435 145.953 54.8371 145.469 54.8371Z" fill="#226234"/>
<path d="M146.734 62.4806H138.828C138.344 62.4806 137.953 62.087 137.953 61.599C137.953 61.1109 138.344 60.7173 138.828 60.7173H146.734C147.219 60.7173 147.609 61.1109 147.609 61.599C147.609 62.087 147.219 62.4806 146.734 62.4806Z" fill="#226234"/>
<path d="M117.336 87.0809C121.875 87.0809 125.555 83.3732 125.555 78.7995C125.555 74.2258 121.875 70.5181 117.336 70.5181C112.797 70.5181 109.117 74.2258 109.117 78.7995C109.117 83.3732 112.797 87.0809 117.336 87.0809Z" fill="#226234"/>
<path d="M17.5391 87.0809C22.0782 87.0809 25.7578 83.3732 25.7578 78.7995C25.7578 74.2258 22.0782 70.5181 17.5391 70.5181C13 70.5181 9.32031 74.2258 9.32031 78.7995C9.32031 83.3732 13 87.0809 17.5391 87.0809Z" fill="#226234"/>
<g clip-path="url(#clip1_700_1744)">
<path d="M130.048 35.4243H101.808C100.552 35.4243 99.5361 33.9831 99.5361 32.2108V4.51712C99.5361 2.74098 100.555 1.30371 101.808 1.30371H130.045C131.301 1.30371 132.317 2.74487 132.317 4.51712V32.207C132.32 33.9831 131.301 35.4243 130.048 35.4243Z" fill="#B4E7C2"/>
<path d="M127.099 32.9934H121.282C120.734 32.9934 120.291 32.3663 120.291 31.5912C120.291 30.8161 120.734 30.189 121.282 30.189H127.099C127.647 30.189 128.09 30.8161 128.09 31.5912C128.09 32.3663 127.647 32.9934 127.099 32.9934Z" fill="#69D085"/>
<path d="M98.3713 4.80859L97.972 8.67247L95.2813 15.4849C95.2207 15.6407 95.105 15.7303 94.9866 15.7303C94.9371 15.7303 94.8847 15.7147 94.8352 15.6796C94.6672 15.5628 94.5983 15.2707 94.6837 15.037L98.3713 4.80859Z" fill="#B4E7C2"/>
<path d="M99.6351 1.30322V4.4582L97.9717 8.67264L98.371 4.80876L99.6351 1.30322Z" fill="#32934D"/>
<path d="M132.991 4.80957L133.39 8.67345L136.081 15.4859C136.141 15.6417 136.257 15.7313 136.375 15.7313C136.425 15.7313 136.477 15.7157 136.527 15.6806C136.695 15.5638 136.764 15.2716 136.678 15.0379L132.991 4.80957Z" fill="#B4E7C2"/>
<path d="M131.729 1.30371V4.45869L133.392 8.67312L132.993 4.80925L131.729 1.30371Z" fill="#32934D"/>
<path d="M132.32 17.4756H99.459V19.4387H132.32V17.4756Z" fill="#32934D"/>
<path d="M113.207 -9.44678H102.5C101.695 -9.44678 101.045 -8.52755 101.045 -7.3902V1.39701H114.661V-7.3902C114.661 -8.52755 114.011 -9.44678 113.207 -9.44678Z" fill="#D9D9D9"/>
<path d="M114.661 1.39718H129.863V-2.99642C129.863 -4.18441 129.183 -5.14648 128.343 -5.14648H114.661V1.39718Z" fill="#D9D9D9"/>
<path d="M116.908 -5.14648H114.661V1.39718H116.908V-5.14648Z" fill="#8A8A8A"/>
<path d="M132.995 17.1793H98.5752C97.9638 17.1793 97.5011 16.4041 97.603 15.555L99.3435 1.33813C99.3738 1.09275 99.5225 0.913574 99.6988 0.913574H131.436C131.607 0.913574 131.753 1.08106 131.789 1.31476L133.956 15.4966C134.091 16.3613 133.623 17.1793 132.995 17.1793Z" fill="#69D085"/>
</g>
</g>
<defs>
<clipPath id="clip0_700_1744">
<rect width="165" height="96" fill="white"/>
</clipPath>
<clipPath id="clip1_700_1744">
<rect width="64.8438" height="44.8708" fill="white" transform="translate(71.875 -9.44629)"/>
</clipPath>
</defs>
</svg>
