<svg width="35" height="45" viewBox="0 0 35 45" fill="none" xmlns="http://www.w3.org/2000/svg">
<g clip-path="url(#clip0_700_1460)">
<path d="M22.1818 45C29.2564 45 34.9915 43.7087 34.9915 42.1157C34.9915 40.5228 29.2564 39.2314 22.1818 39.2314C15.1072 39.2314 9.37207 40.5228 9.37207 42.1157C9.37207 43.7087 15.1072 45 22.1818 45Z" fill="#E8E8E8"/>
<path d="M13.8635 0C6.22779 0 0 6.22625 0 13.8601C0 21.494 13.8635 43.5751 13.8635 43.5751C13.8635 43.5751 27.727 21.5803 27.727 13.8601C27.8134 6.22625 21.5856 0 13.8635 0ZM13.8635 20.3368C10.8749 20.3368 8.46496 17.9275 8.46496 14.9395C8.46496 11.9516 10.8749 9.54231 13.8635 9.54231C16.8522 9.54231 19.2621 11.9516 19.2621 14.9395C19.2621 17.9275 16.8522 20.3368 13.8635 20.3368Z" fill="#32934D"/>
</g>
<defs>
<clipPath id="clip0_700_1460">
<rect width="35" height="45" fill="white"/>
</clipPath>
</defs>
</svg>
