<svg width="26" height="26" viewBox="0 0 26 26" fill="none" xmlns="http://www.w3.org/2000/svg">
<path fill-rule="evenodd" clip-rule="evenodd" d="M12.6151 10.3867C14.6003 10.3867 16.2087 11.9571 16.2087 13.8928C16.2087 15.8297 14.599 17.3989 12.6151 17.3989C10.6298 17.3989 9.02148 15.8285 9.02148 13.8928C9.02148 11.9571 10.6298 10.3867 12.6151 10.3867Z" fill="#FFCB05"/>
<path fill-rule="evenodd" clip-rule="evenodd" d="M5.66071 3.68831L12.0979 0.0875192C12.3651 -0.0379183 12.6626 -0.0428374 13.0118 0.167455L19.5914 3.84204C20.0729 4.13595 20.2834 4.5713 20.3439 5.23907V8.49552L12.5265 4.08799C12.224 4.01175 12.0614 4.14702 11.9933 4.42741L11.987 9.18666C9.58076 9.46582 7.70393 11.4728 7.70393 13.8943C7.70393 14.5952 7.86149 15.2605 8.14257 15.8594L4.88427 17.6795V4.98696C4.97628 4.48029 5.21199 4.0388 5.66071 3.68831ZM6.74976 24.8873L0.378098 21.1795C0.134828 21.0134 -0.0151669 20.7638 0.00121921 20.3629L0.0579398 12.967C0.0844096 12.4148 0.370536 12.0213 0.936485 11.6425L3.84564 10.045L3.74228 18.854C3.82295 19.1479 4.02337 19.2204 4.30697 19.1393L8.68709 16.7424C9.57572 17.8898 10.9849 18.6338 12.5655 18.6338C14.1184 18.6338 15.5062 17.9156 16.3961 16.8027L19.6279 18.6867L8.29005 24.9094C7.79342 25.0816 7.28293 25.0975 6.74976 24.8873ZM25.2169 13.0986L25.2824 20.3383C25.2647 20.6273 25.1223 20.8819 24.7631 21.0774L18.2591 24.875C17.7612 25.1406 17.2683 25.1062 16.6432 24.8319L13.7327 23.2369L21.4997 18.7445C21.7165 18.5244 21.6749 18.319 21.4569 18.1247L17.0541 15.7057C17.2923 15.1474 17.4246 14.535 17.4246 13.8943C17.4246 11.4679 15.539 9.45721 13.1252 9.18543L13.0949 5.58955L24.4379 11.8036C24.845 12.1283 25.1248 12.5452 25.2169 13.0986Z" fill="#D2232A"/>
</svg>
