<svg width="92" height="33" viewBox="0 0 92 33" fill="none" xmlns="http://www.w3.org/2000/svg">
<path fill-rule="evenodd" clip-rule="evenodd" d="M18.5293 5.0065C18.6344 7.23161 18.3822 9.30083 17.7718 11.2167C20.0855 10.2464 22.4094 9.74807 24.7433 9.72166C23.4124 12.4375 21.8982 14.4223 20.2015 15.6772C22.992 16.1653 24.9325 16.949 26.0246 18.0283C24.1875 19.4271 22.0251 20.4059 19.5374 20.9648C21.0507 22.4607 21.8906 23.9404 22.0588 25.4031C20.0132 25.6476 18.1114 25.5002 16.356 24.9618C16.6132 26.6272 16.4787 28.0465 15.9516 29.2178C14.4786 28.5508 13.2368 27.6768 12.2262 26.5957C11.8361 27.7756 11.1601 28.7672 10.1983 29.5713C9.39959 28.8191 8.81527 27.687 8.44534 26.1766C7.51883 26.9348 6.58223 27.3854 5.63303 27.5294C5.35474 26.5386 5.34969 25.4159 5.61789 24.1619C4.69643 24.3927 3.73545 24.3672 2.73496 24.0844C2.98046 22.9403 3.42942 21.9615 4.08184 21.1479C2.95103 20.7501 2.12374 20.216 1.60247 19.5473C2.20193 18.6766 2.99223 18.0028 3.97339 17.5266C3.33358 16.88 2.79381 15.8535 2.3541 14.4462C3.10825 13.924 4.15667 13.7068 5.49851 13.7945C5.23872 12.0805 5.21097 10.5957 5.41611 9.34002C6.4267 9.35109 7.53649 9.82729 8.74548 10.7695C9.33149 8.4268 10.0915 6.65489 11.0273 5.45374C12.1505 6.51603 12.8904 7.88671 13.2452 9.56577C15.1562 7.28528 16.9176 5.76553 18.5293 5.0065ZM15.9835 0C17.1101 1.1986 17.9584 2.86743 18.5293 5.0065C21.0221 3.6026 23.6621 2.6025 26.45 2.00618C26.3315 4.64786 25.7623 7.21969 24.7433 9.72081C27.4404 9.90652 29.9526 10.5335 32.2781 11.6026C29.8735 14.631 27.7893 16.7727 26.0237 18.0275C27.5136 19.376 28.6612 21.0764 29.4666 23.1277C26.7552 24.328 24.2859 25.0862 22.0579 25.4022C22.2732 27.1426 22.1201 28.7987 21.6006 30.3704C19.2027 30.068 17.3195 29.6829 15.9516 29.2169C15.1293 30.6881 14.3129 31.7036 13.4999 32.2641C12.2111 31.4966 11.1105 30.5987 10.1983 29.5705C8.95483 30.2741 7.91566 30.6754 7.08248 30.7742C6.36364 29.5875 5.88105 28.5056 5.63303 27.5285C4.35509 27.6052 3.37477 27.5021 2.69124 27.2193C2.61642 26.0258 2.63071 24.9805 2.73496 24.0844C1.53269 23.3799 0.737338 22.81 0.348911 22.3729C0.668397 21.2979 1.08625 20.3557 1.60163 19.5464C0.781898 18.4108 0.248021 17.432 0 16.6091C0.827298 15.6371 1.61172 14.9164 2.35326 14.4453C2.03293 12.8072 1.92027 11.3888 2.01528 10.1893C3.09901 9.67907 4.23234 9.39624 5.41443 9.33917C5.89702 7.16006 6.48891 5.36088 7.1901 3.9408C8.69924 4.12225 9.97718 4.62656 11.0256 5.45289C12.5448 3.42967 14.1969 1.61176 15.9835 0Z" fill="#8ED8F8"/>
<path fill-rule="evenodd" clip-rule="evenodd" d="M18.5299 5.00586C18.6349 7.23097 18.3827 9.30019 17.7723 11.2161C20.0861 10.2458 22.4099 9.74743 24.7438 9.72102C23.4129 12.4368 21.8987 14.4217 20.2021 15.6765C22.9926 16.1646 24.933 16.9484 26.0251 18.0277C24.1881 19.4265 22.0257 20.4053 19.5379 20.9641C21.0513 22.46 21.8912 23.9398 22.0593 25.4024C20.0138 25.6469 18.112 25.4996 16.3565 24.9612C16.6138 26.6266 16.4793 28.0458 15.9521 29.2172C14.4791 28.5501 13.2373 27.6761 12.2267 26.5951C11.8366 27.7749 11.1607 28.7665 10.1989 29.5707C9.40015 28.8185 8.81582 27.6863 8.44589 26.1759C7.51939 26.9341 6.58279 27.3848 5.63358 27.5287C5.3553 26.538 5.35025 25.4152 5.61845 24.1612C4.69699 24.3921 3.73601 24.3666 2.73552 24.0837C2.98102 22.9397 3.42998 21.9608 4.0824 21.1473C2.95159 20.7495 2.12429 20.2153 1.60303 19.5466C2.20248 18.676 2.99279 18.0022 3.97394 17.5259C3.33413 16.8794 2.79437 15.8529 2.35466 14.4455C3.10881 13.9233 4.15723 13.7061 5.49906 13.7939C5.23927 12.0799 5.21153 10.595 5.41667 9.33938C6.42725 9.35045 7.53704 9.82665 8.74604 10.7688C9.33205 8.42616 10.0921 6.65425 11.0278 5.4531C12.1511 6.51539 12.8909 7.88607 13.2457 9.56512C15.1568 7.28464 16.9181 5.76489 18.5299 5.00586ZM8.7452 10.7688C9.71291 11.648 10.3779 12.5833 10.7395 13.5732C11.0993 12.5791 11.9342 11.2433 13.2457 9.56598C13.5804 11.2314 13.667 12.6404 13.5072 13.7939C14.828 12.7563 16.2497 11.8967 17.7732 11.2161C17.1687 13.0144 16.4482 14.4847 15.6108 15.6263C17.5714 15.4542 19.1016 15.4704 20.2029 15.6757C18.8149 17.0003 17.4621 17.9723 16.1446 18.5899C17.6723 19.3788 18.8031 20.1693 19.5388 20.9633C18.3104 21.3799 16.8265 21.5494 15.0878 21.471C15.6881 22.3893 16.111 23.5522 16.3574 24.9595C14.9432 24.5471 13.7813 24.0028 12.8708 23.3256C12.8363 24.7363 12.6219 25.8258 12.2276 26.5934C11.4919 25.9306 10.8639 25.0361 10.3426 23.9108C9.83397 24.755 9.20173 25.5098 8.44674 26.1742C8.2004 25.3973 8.08858 24.3964 8.10875 23.1714C7.23521 23.7523 6.40539 24.082 5.61929 24.1595C5.81182 23.1066 6.1456 22.2309 6.62147 21.5323C5.48393 21.4923 4.63814 21.3628 4.0824 21.1456C4.69699 20.3746 5.36286 19.7289 6.0817 19.2084C5.3326 18.8924 4.62973 18.331 3.9731 17.5251C4.75332 17.0762 5.63779 16.8283 6.62651 16.7797C5.98166 15.7149 5.60584 14.7199 5.49906 13.7939C6.47097 13.8816 7.38403 14.1704 8.23907 14.6602C8.27186 12.8244 8.44085 11.527 8.7452 10.7688Z" fill="#009FE0"/>
<path fill-rule="evenodd" clip-rule="evenodd" d="M8.745 10.7688C9.7127 11.6479 10.3777 12.5833 10.7393 13.5732C11.0991 12.579 11.934 11.2433 13.2455 9.56592C13.5802 11.2313 13.6668 12.6404 13.507 13.7938C14.8278 12.7562 16.2495 11.8967 17.773 11.216C17.1685 13.0143 16.448 14.4847 15.6106 15.6262C17.5712 15.4541 19.1022 15.4703 20.2027 15.6756C18.8147 17.0003 17.4619 17.9723 16.1444 18.5899C17.6721 19.3787 18.8029 20.1693 19.5386 20.9632C18.3102 21.3798 16.8263 21.5493 15.0876 21.471C15.6879 22.3893 16.1108 23.5521 16.3572 24.9594C14.943 24.5471 13.7811 24.0027 12.8706 23.3255C12.8361 24.7362 12.6217 25.8258 12.2274 26.5933C11.4917 25.9305 10.8637 25.0361 10.3424 23.9107C9.83377 24.755 9.20153 25.5097 8.44653 26.1742C8.20019 25.3973 8.08837 24.3963 8.10855 23.1713C7.23501 23.7523 6.40435 24.082 5.61909 24.1595C5.81162 23.1066 6.1454 22.2308 6.62126 21.5323C5.48373 21.4922 4.63793 21.3628 4.0822 21.1455C4.69679 20.3746 5.36266 19.7289 6.0815 19.2084C5.33239 18.8923 4.62953 18.3309 3.9729 17.525C4.75312 17.0761 5.63759 16.8282 6.62631 16.7796C5.98145 15.7148 5.60564 14.7198 5.49886 13.7938C6.46993 13.8815 7.38382 14.1703 8.23887 14.6602C8.27166 12.8244 8.44065 11.5269 8.745 10.7688ZM10.7166 13.6924C11.0545 14.2887 11.2757 15.1517 11.3808 16.2813C11.8297 15.4524 12.5015 14.661 13.396 13.908C13.2539 15.0955 12.9597 16.0777 12.5132 16.8555C13.7382 16.1901 14.7185 15.8298 15.455 15.7736C14.7353 16.7984 13.9804 17.5642 13.1884 18.0702C14.3873 18.1435 15.3314 18.3207 16.0209 18.6001C14.922 19.2024 13.9341 19.504 13.0572 19.5057C14.0056 20.1497 14.6445 20.7647 14.975 21.3491C14.2427 21.4105 13.3523 21.1915 12.3056 20.6923C12.6486 21.5825 12.8319 22.4174 12.8554 23.1986C12.2476 22.8365 11.6658 22.2274 11.1126 21.3713C10.9478 22.5137 10.7023 23.3153 10.3769 23.7778C10.0599 23.1662 9.89515 22.3663 9.88085 21.3764C9.24777 22.2215 8.69455 22.7828 8.21953 23.0597C8.35321 22.138 8.57601 21.3747 8.88961 20.769C8.1901 21.1583 7.47967 21.39 6.75915 21.4641C7.20895 20.7681 7.72265 20.1965 8.30108 19.7476C7.47463 19.6667 6.77933 19.4869 6.21434 19.2067C6.8449 18.7875 7.54609 18.5405 8.31706 18.4672C7.52591 17.8735 6.99792 17.3291 6.7314 16.8333C7.40989 16.8282 8.14555 16.9832 8.93753 17.2967C8.54826 16.4687 8.34312 15.6313 8.3221 14.7854C8.98714 15.2062 9.5538 15.7676 10.0221 16.4687C10.2012 15.3792 10.4315 14.454 10.7166 13.6924Z" fill="#007DBD"/>
<path fill-rule="evenodd" clip-rule="evenodd" d="M87.9449 12.5189C87.9285 14.7244 87.9255 16.7458 87.9359 18.5846C88.2822 18.5846 88.8514 18.5846 89.6404 18.5846C90.3597 18.476 90.4712 17.8077 89.9778 16.5813C90.4489 16.4154 90.9616 16.2721 91.5188 16.1514C92.2143 17.8892 92.1578 19.1141 91.3465 19.8246C90.2988 20.7448 87.3162 20.3058 86.0828 20.0222C86.01 17.4351 85.9937 14.9371 86.0353 12.525C86.8169 12.5265 87.4545 12.525 87.9449 12.5189ZM78.2379 18.1894C78.1591 18.5575 77.8931 18.7189 77.5216 18.7083C75.5912 18.6495 73.6906 18.7536 71.7587 18.7536C71.2014 18.6691 71.0008 18.0808 71.1732 17.3235L69.5831 16.9962C68.9129 19.3841 69.9412 20.4174 72.0737 20.4401C72.9475 20.4491 76.6954 20.4205 77.3953 20.3888C78.4207 20.3435 78.6778 20.4567 79.4104 19.4776C80.3927 20.3164 81.745 20.4914 82.9071 20.3315C83.6472 20.2289 84.246 20.1323 84.6948 19.4595C85.1838 18.7249 85.1347 17.6222 84.5447 16.1514C83.989 16.2721 83.4748 16.4154 83.0037 16.5813C83.4971 17.8092 83.3856 18.476 82.6664 18.5846C82.2324 18.5846 81.8654 18.5846 81.5652 18.5846C80.7092 18.5846 80.7776 18.4488 80.2426 17.7519C79.6437 16.972 79.0419 16.0594 78.4341 15.011C78.703 14.7334 79.4639 14.0923 80.7167 13.0846C80.4566 12.8206 80.1163 12.4586 79.6957 12C78.067 13.4225 76.9569 14.4196 76.364 14.9914C77.0892 16.1092 77.6613 16.9947 78.0789 17.6493C78.226 17.8801 78.2973 17.9058 78.2379 18.1894ZM82.9041 13.0665H84.4838V14.6504H82.9041V13.0665ZM88.8068 21.4161H90.3865V23H88.8068V21.4161ZM56.7985 12.5189C56.7821 14.7244 56.7792 16.7458 56.7896 18.5846C57.1358 18.5846 57.3572 18.5846 58.1478 18.5846C58.7408 18.4956 58.9206 18.025 58.6888 17.1742L60.0946 16.8302C60.1748 17.0897 60.2343 17.3371 60.2744 17.5694C60.4943 18.2377 60.8109 18.559 61.2255 18.5363C61.8362 18.5243 62.1067 18.0265 62.022 16.8453L63.6284 16.9962C63.6106 17.1591 63.5868 17.5543 63.5749 18.1834C63.6151 18.5605 63.9999 18.7008 64.7311 18.6042C65.3285 18.3976 65.382 17.7459 64.8946 16.6492C65.4325 16.4561 65.9363 16.2841 66.4059 16.1318C66.605 16.619 66.7373 17.0776 66.8027 17.5091C67.03 19.0055 66.6065 19.6647 65.2408 20.2153C64.3135 20.5894 63.4947 20.4295 62.7858 19.7371C61.7055 20.6437 60.7276 20.6166 59.8494 19.6572C59.6933 19.8337 59.4987 19.983 59.2668 20.1082C57.9353 20.4868 56.8401 20.4582 54.9379 20.0207C54.8651 17.4336 54.8488 14.9355 54.8904 12.5235C55.6706 12.5265 56.3081 12.525 56.7985 12.5189ZM47.5017 12.5189C47.4853 14.7244 47.4824 16.7458 47.4928 18.5846C47.839 18.5846 47.6949 18.5846 48.484 18.5846C49.0457 18.3282 49.6 17.7036 50.1484 16.7126C51.1366 14.922 52.6553 14.5283 53.6198 16.5376C53.8932 17.1048 54.03 17.7655 54.0314 18.5167C54.0329 19.3947 53.9586 20.0358 53.2409 20.6256C52.9496 20.8655 52.6241 20.9786 52.2645 20.9665C51.569 20.9424 50.9479 20.5245 50.4604 20.0554C50.1796 19.7854 49.9299 19.5169 49.9507 19.5365C49.493 20.1022 49.1884 20.3646 48.591 20.3737C47.6978 20.3873 46.7141 20.2696 45.6397 20.0222C45.5668 17.4351 45.5505 14.9371 45.5921 12.525C46.3738 12.5265 47.0113 12.525 47.5017 12.5189ZM52.1531 19.2438C52.4488 19.3208 52.5959 19.2318 52.5914 18.9753C52.5766 18.3629 52.4607 17.8168 52.2407 17.3371C52.1991 17.2451 52.1531 17.1561 52.104 17.0701C51.9391 16.8378 51.7771 16.8287 51.6181 17.0459C51.575 17.1334 51.5274 17.2194 51.4769 17.3069C51.2882 17.6312 51.0504 17.9571 50.7606 18.2874C51.2674 18.8501 51.731 19.1684 52.1531 19.2438ZM38.6433 12.5778H40.223V14.1617H38.6433V12.5778ZM43.1356 12.7045C43.6186 14.9793 44.0733 16.8921 44.4984 18.4428C42.6081 19.4052 40.9838 20.0041 39.6285 20.2394C37.9597 20.5291 36.062 20.345 35.2892 18.5967C34.7171 17.2979 34.9965 15.4318 36.1289 12.9986C36.7381 13.2098 37.291 13.4014 37.7843 13.5749C37.0116 15.3172 36.6861 16.5074 36.9194 17.3718C37.2939 18.2844 38.0578 18.6389 39.211 18.4368C40.2586 18.1245 41.3999 17.8213 42.5219 17.2994C42.1875 16.0096 41.8294 14.6233 41.449 13.1404C42.0122 12.9911 42.5739 12.8463 43.1356 12.7045Z" fill="#00529C"/>
</svg>
