<svg width="83" height="18" viewBox="0 0 83 18" fill="none" xmlns="http://www.w3.org/2000/svg">
<g clip-path="url(#clip0_783_414)">
<path d="M77.0619 16.4462H71.2558C70.5961 16.4462 70.2002 15.9283 70.2002 15.4103C70.2002 15.2808 70.2002 15.1513 70.3321 15.0218L75.0825 3.4966C75.2145 3.10811 75.6104 2.84912 76.1382 2.84912H81.9442C82.604 2.84912 82.9999 3.36711 82.9999 3.88509C82.9999 4.01459 82.9999 4.14409 82.8679 4.27358L78.1175 15.7988C77.8536 16.1873 77.4577 16.4462 77.0619 16.4462Z" fill="#F5C40A"/>
<path d="M71.7839 11.1369C74.1159 11.1369 76.0064 9.28161 76.0064 6.99301C76.0064 4.7044 74.1159 2.84912 71.7839 2.84912C69.4518 2.84912 67.5613 4.7044 67.5613 6.99301C67.5613 9.28161 69.4518 11.1369 71.7839 11.1369Z" fill="#0A33FF"/>
<path d="M75.8743 6.99296C75.8743 9.1944 74.0269 11.1368 71.7837 11.1368L74.6867 4.14404C75.4784 4.79153 75.8743 5.8275 75.8743 6.99296Z" fill="#061E96"/>
<path d="M57.6645 16.7052C56.8728 16.7052 56.345 16.0577 56.345 15.2807C56.345 14.6332 56.8728 13.9857 57.6645 13.9857C58.8521 13.9857 59.9078 12.9498 59.9078 11.7843V6.73393C59.9078 5.95695 60.5675 5.43896 61.2273 5.43896C62.0191 5.43896 62.5469 5.95695 62.5469 6.73393V11.7843C62.5469 14.5037 60.3036 16.7052 57.6645 16.7052Z" fill="black"/>
<path d="M52.1224 16.7052C51.3307 16.7052 50.8029 16.1872 50.6709 15.4102C50.6709 14.6332 51.1987 14.1152 51.9905 13.9857C51.9905 13.9857 51.9905 13.9857 52.1224 13.9857C53.31 13.9857 54.3657 12.9498 54.3657 11.7843V6.73393C54.3657 5.95695 55.0254 5.43896 55.8172 5.43896C56.4769 5.43896 57.1367 5.95695 57.1367 6.73393V11.7843C57.0048 14.5037 54.8935 16.7052 52.1224 16.7052Z" fill="black"/>
<path d="M51.4625 6.99288V8.41734C51.4625 10.7483 49.6152 12.5612 47.24 12.5612H39.1907C38.6629 12.5612 38.0031 12.4317 37.4753 12.3022C37.0794 14.7627 34.8361 16.5756 32.0651 16.5756C29.0301 16.5756 26.5229 14.3742 26.5229 11.7842V7.12237C26.5229 6.3454 27.0508 5.82741 27.8425 5.82741C28.6342 5.82741 29.1621 6.3454 29.1621 7.12237V11.7842C29.1621 13.0792 30.4816 13.9857 31.9331 13.9857C33.3846 13.9857 34.7042 12.9497 34.7042 11.7842V7.12237C34.7042 6.3454 35.232 5.82741 36.0237 5.69791C36.8155 5.69791 37.3433 6.2159 37.4753 6.99288C37.4753 6.99288 37.4753 6.99288 37.4753 7.12237V8.54683C37.4753 9.45331 38.135 10.1008 39.0587 10.1008H47.108C47.8997 10.1008 48.6915 9.45331 48.6915 8.54683V7.12237C48.6915 6.3454 49.2193 5.82741 50.011 5.69791C50.8028 5.56842 51.3306 6.0864 51.4625 6.99288C51.4625 6.86338 51.4625 6.86338 51.4625 6.99288Z" fill="black"/>
<path d="M5.54213 16.4459C2.50715 16.4459 0 14.2445 0 11.6546V6.9927C0 6.21573 0.527822 5.69774 1.31955 5.56824C2.11129 5.56824 2.63911 6.08623 2.77106 6.86321C2.77106 6.86321 2.77106 6.86321 2.77106 6.9927V11.6546C2.77106 12.9495 4.09062 13.856 5.54213 13.856C7.1256 13.856 8.44515 12.82 8.44515 11.6546V1.42436C8.44515 0.64738 9.10493 0.129395 9.89666 0.129395C10.5564 0.129395 11.2162 0.64738 11.2162 1.42436V11.6546C11.0843 14.2445 8.57711 16.4459 5.54213 16.4459Z" fill="black"/>
<path d="M48.9554 16.3166H44.205C43.4132 16.3166 42.8854 15.7986 42.7535 15.0216C42.6215 14.2447 43.2813 13.7267 44.073 13.5972C44.073 13.5972 44.073 13.5972 44.205 13.5972H48.9554C49.7471 13.5972 50.2749 14.1152 50.4069 14.8921C50.4069 15.6691 49.7471 16.1871 48.9554 16.3166Z" fill="black"/>
<path d="M22.4325 18.0001C21.6408 18.0001 21.1129 17.4822 21.1129 16.7052V16.1872H17.6821C16.8904 16.1872 16.3625 15.5397 16.3625 14.7627C16.3625 14.1153 16.8904 13.4678 17.6821 13.4678H23.7521V16.5757C23.7521 17.4822 23.2242 18.0001 22.4325 18.0001Z" fill="black"/>
<path d="M20.4532 12.4317H17.1543C14.6472 12.4317 12.5359 10.4892 12.5359 8.15827V1.29496C12.5359 0.517986 13.1957 0 13.9874 0C14.6472 0 15.307 0.517986 15.307 1.29496V8.15827C15.307 8.93525 16.2306 9.71223 17.1543 9.71223H20.4532C21.3769 9.71223 22.1686 8.93525 22.1686 7.89928V6.60432C22.1686 5.82734 22.8284 5.30935 23.6201 5.30935C24.2799 5.30935 24.9397 5.82734 24.9397 6.60432V7.89928C24.9397 10.3597 22.9604 12.3022 20.4532 12.4317Z" fill="black"/>
<path d="M32.0652 1.29492C31.2734 1.29492 30.4817 1.9424 30.4817 2.71938C30.4817 3.49636 31.1415 4.27334 31.9332 4.27334C32.7249 4.27334 33.5167 3.62586 33.5167 2.84888C33.5167 2.0719 32.8569 1.29492 32.0652 1.29492Z" fill="black"/>
<path d="M61.2273 1.29492C60.4355 1.29492 59.6438 1.9424 59.6438 2.71938C59.6438 3.49636 60.3036 4.27334 61.0953 4.27334C61.887 4.27334 62.6788 3.62586 62.6788 2.84888C62.8107 2.0719 62.019 1.29492 61.2273 1.29492Z" fill="black"/>
</g>
<defs>
<clipPath id="clip0_783_414">
<rect width="83" height="18" fill="white"/>
</clipPath>
</defs>
</svg>
