<svg width="311" height="253" viewBox="0 0 311 253" fill="none" xmlns="http://www.w3.org/2000/svg">
<path d="M162.25 0.234086C170.26 -0.125374 178.204 -0.0694583 185.968 0.392249C222.465 2.56499 278.206 9.84686 295.146 48.2213C303.046 66.1192 296.852 86.5413 299.859 105.272C306.635 147.483 324.59 192.057 292.453 229.007C273.5 250.802 232.525 251.125 206.157 252.438C171.335 254.17 136.478 251.628 101.807 248.513C75.2241 246.124 39.8906 244.88 18.1401 227.1C-0.546388 211.824 -4.93746 185.524 5.62481 163.827C10.9139 152.962 21.1929 145.453 26.2755 134.576C31.7135 122.943 28.9249 111.544 28.4302 99.327C27.1576 67.9453 47.9171 36.5524 74.7438 22.5206C100.881 8.85315 132.047 1.58885 162.25 0.234086Z" fill="#B7DBBF"/>
</svg>
