<svg width="258" height="207" viewBox="0 0 258 207" fill="none" xmlns="http://www.w3.org/2000/svg">
<g clip-path="url(#clip0_700_235)">
<path d="M36.0688 33.0781V2.01562L64.8988 3.51502V37.3264L36.0688 33.0781Z" fill="#DEA961"/>
<path d="M64.8989 3.51509L87.2101 1.37012L87.5702 31.2039L64.8989 37.3265V3.51509Z" fill="#BC7B41"/>
<path d="M36.0688 2.01586L61.0595 0L87.21 1.37028L64.8988 3.51525L36.0688 2.01586Z" fill="#DEA961"/>
<path d="M74.5786 25.4314L79.272 24.4692L79.5483 33.3698L75.2569 34.5319L74.5786 25.4314Z" fill="#EEDFC4"/>
<path d="M36.0688 2.01562C36.0688 2.01562 60.2138 2.28635 64.8988 3.51502L36.0688 2.01562Z" fill="#9F673B"/>
<path d="M65.4684 0.229004L47.8003 2.62804V9.00047L48.3697 8.5215L48.7046 9.07961L49.6676 8.60896L50.2747 9.29619L50.8817 8.72558L51.5726 9.32951L52.3178 8.72558L53.0965 9.45862L53.1886 2.90709L70.3041 0.483068L65.4684 0.229004Z" fill="#DED0B9"/>
<path d="M81.0054 57.1895H138.008V138.736L81.0054 134.696V57.1895Z" fill="#DEA961"/>
<path d="M138.008 57.1895H157.69V135.116L138.008 138.736V57.1895Z" fill="#BC7B41"/>
<path d="M37.4128 34.9609V137.241L21.0342 134.95L16.3786 134.296L0 132.005V34.9609H37.4128Z" fill="#DEA961"/>
<path d="M102.446 29.4009H81.0054V57.1897H102.446V29.4009Z" fill="#DEA961"/>
<path d="M114.93 29.4009H102.445V57.1897H114.93V29.4009Z" fill="#BC7B41"/>
<path d="M81.005 29.4009L79.2173 20.5586H100.369L102.445 29.4009H81.005Z" fill="#BC7B41"/>
<path d="M102.445 29.4009L105.594 20.5586H118.556L114.93 29.4009H102.445Z" fill="#BC7B41"/>
<path d="M21.0341 34.9609V134.95L16.3784 134.296V34.9609H21.0341Z" fill="#F3DDC3"/>
<path opacity="0.29" d="M81.0054 34.9653L128.14 107.832L87.2185 106.645L81.0054 106.932V34.9653Z" fill="#BC7B41"/>
<path opacity="0.29" d="M128.14 107.832L138.008 138.736L128.14 138.037V107.832Z" fill="#BC7B41"/>
<path d="M37.4126 137.241L81.005 134.696V34.9653H37.4126V137.241Z" fill="#BC7B41"/>
<path d="M61.5537 107.832V142.976L90.0403 150.098V110.048L61.5537 107.832Z" fill="#DEA961"/>
<path d="M90.04 110.048L128.139 107.832V145.067L90.04 150.098V110.048Z" fill="#BC7B41"/>
<path d="M61.5537 107.832L87.2185 106.645L128.14 107.832L90.0403 110.047L61.5537 107.832Z" fill="#EDCA90"/>
<path opacity="0.29" d="M63.1738 117.724L73.9421 120.239L85.3217 148.919L71.4594 145.45V120.993L63.1738 117.724Z" fill="#BC7B41"/>
<path d="M71.4552 120.993H30.0063V148.915H71.4552V120.993Z" fill="#BC7B41"/>
<path d="M30.0063 120.993L37.4127 117.724H63.1738L71.4593 120.993H30.0063Z" fill="#DEA961"/>
<path d="M50.555 39.3427V45.9692C50.555 46.2649 50.3164 46.5023 50.0191 46.5023H41.1306C40.8376 46.5023 40.5947 46.2649 40.5947 45.9692V39.3427C40.5947 39.0511 40.8334 38.8096 41.1306 38.8096H50.0191C50.3164 38.8096 50.555 39.0511 50.555 39.3427Z" fill="#E8CBAE"/>
<path d="M42.5708 123.296V126.166C42.5708 126.353 42.4201 126.503 42.2317 126.503H31.8904C31.702 126.503 31.5513 126.353 31.5513 126.166V123.296C31.5513 123.109 31.702 122.959 31.8904 122.959H42.2317C42.4201 122.963 42.5708 123.113 42.5708 123.296Z" fill="#E8CBAE"/>
<path d="M42.5708 128.132V131.001C42.5708 131.189 42.4201 131.339 42.2317 131.339H31.8904C31.702 131.339 31.5513 131.189 31.5513 131.001V128.132C31.5513 127.944 31.702 127.794 31.8904 127.794H42.2317C42.4201 127.794 42.5708 127.944 42.5708 128.132Z" fill="#E8CBAE"/>
<path d="M73.5024 108.761V113.517L74.1472 112.568L74.6203 113.517L75.1688 113.017L76.0103 114.363L76.6969 112.434L77.438 113.517V109.065L73.5024 108.761Z" fill="#F3DDC3"/>
<path d="M77.438 109.065L109.09 107.278L101.432 107.057L73.5024 108.761L77.438 109.065Z" fill="#F3DDC3"/>
<path d="M102.446 57.1897H81.0054V56.5024L102.446 57.1897Z" fill="#BC7B41"/>
<path d="M58.7148 142.588V142.351C58.7148 142.322 58.6897 142.297 58.6604 142.297C58.6311 142.297 58.606 142.322 58.606 142.351V142.588C57.8607 142.618 57.2578 143.197 57.1992 143.93C57.2578 143.88 57.3332 143.846 57.4169 143.846C57.4965 143.846 57.5718 143.875 57.6263 143.925C57.6807 143.875 57.7561 143.846 57.8356 143.846C57.9235 143.846 58.0031 143.884 58.0617 143.938C58.1203 143.88 58.1999 143.846 58.2878 143.846C58.3673 143.846 58.4427 143.875 58.4971 143.925C58.5264 143.9 58.5641 143.88 58.6018 143.863V145.604C58.6018 145.791 58.7525 145.941 58.9409 145.941C59.1293 145.941 59.28 145.791 59.28 145.604V145.5C59.28 145.471 59.2549 145.446 59.2256 145.446C59.1963 145.446 59.1712 145.471 59.1712 145.5V145.604C59.1712 145.729 59.0707 145.829 58.9451 145.829C58.8195 145.829 58.719 145.729 58.719 145.604V143.846C58.7944 143.846 58.8655 143.875 58.92 143.921C58.9744 143.875 59.0498 143.846 59.1293 143.846C59.2089 143.846 59.2842 143.875 59.3386 143.925C59.3931 143.875 59.4684 143.846 59.548 143.846C59.6359 143.846 59.7155 143.884 59.7741 143.938C59.8327 143.88 59.9122 143.846 60.0002 143.846C60.0462 143.846 60.0881 143.855 60.1258 143.871C60.0378 143.163 59.4433 142.613 58.7148 142.588Z" fill="#6C492B"/>
<path d="M62.0224 143.059L61.5786 142.293L61.1348 143.059H61.3692V145.238H61.7921V143.059H62.0224Z" fill="#6C492B"/>
<path d="M63.2113 143.059L62.7675 142.293L62.3237 143.059H62.5582V145.238H62.981V143.059H63.2113Z" fill="#6C492B"/>
<path d="M63.2129 145.94V145.523H61.107V145.94H63.2129Z" fill="#6C492B"/>
<path d="M65.8572 144.38V145.825H66.2717C66.2927 145.825 66.3136 145.833 66.3262 145.85C66.3387 145.862 66.3513 145.883 66.3513 145.904C66.3513 145.946 66.3178 145.983 66.2717 145.983H65.2711C65.2502 145.983 65.2292 145.975 65.2167 145.958C65.2041 145.946 65.1916 145.925 65.1916 145.904C65.1916 145.862 65.225 145.825 65.2711 145.825H65.6981V144.38C64.8608 144.338 64.1909 143.651 64.1909 142.805H66.4308L66.2424 143.309L66.4978 143.405L66.1084 143.926L66.8537 143.384L66.4434 143.243L66.6192 142.805H67.3603C67.3645 143.651 66.6988 144.338 65.8572 144.38Z" fill="#6C492B"/>
<path d="M113.494 139.282V138.957C113.494 138.915 113.461 138.886 113.419 138.89C113.377 138.894 113.344 138.936 113.344 138.978V139.307C112.314 139.486 111.485 140.402 111.401 141.422C111.48 141.339 111.585 141.281 111.698 141.268C111.811 141.252 111.912 141.281 111.991 141.339C112.071 141.26 112.171 141.206 112.284 141.189C112.406 141.172 112.515 141.206 112.598 141.277C112.678 141.185 112.787 141.122 112.912 141.106C113.025 141.089 113.126 141.118 113.205 141.177C113.247 141.135 113.297 141.097 113.352 141.072V143.472C113.352 143.726 113.561 143.909 113.821 143.871C114.076 143.838 114.29 143.601 114.29 143.342V143.197C114.29 143.155 114.256 143.126 114.214 143.13C114.173 143.134 114.139 143.176 114.139 143.217V143.363C114.139 143.534 114.001 143.692 113.825 143.717C113.653 143.742 113.511 143.621 113.511 143.451V141.027C113.616 141.014 113.712 141.039 113.787 141.093C113.863 141.018 113.963 140.964 114.072 140.952C114.185 140.935 114.286 140.964 114.365 141.023C114.445 140.943 114.545 140.889 114.658 140.873C114.78 140.856 114.888 140.889 114.972 140.96C115.052 140.868 115.161 140.806 115.286 140.789C115.349 140.781 115.408 140.785 115.458 140.802C115.32 139.827 114.499 139.177 113.494 139.282Z" fill="#6C492B"/>
<path d="M118.058 139.311L117.447 138.34L116.835 139.477L117.158 139.432V142.439L117.736 142.36V139.352L118.058 139.311Z" fill="#6C492B"/>
<path d="M119.699 139.086L119.088 138.115L118.477 139.252L118.799 139.211V142.214L119.377 142.134V139.131L119.699 139.086Z" fill="#6C492B"/>
<path d="M116.793 143.459V142.88L119.699 142.484V143.063L116.793 143.459Z" fill="#6C492B"/>
<path d="M123.35 140.41V142.405L123.924 142.326C123.953 142.322 123.982 142.33 123.999 142.347C124.02 142.364 124.032 142.389 124.032 142.418C124.032 142.476 123.982 142.534 123.924 142.543L122.546 142.73C122.517 142.734 122.488 142.726 122.471 142.709C122.45 142.693 122.437 142.668 122.437 142.638C122.437 142.58 122.488 142.522 122.546 142.514L123.132 142.434V140.439C121.977 140.539 121.056 139.715 121.056 138.548L124.145 138.128L123.886 138.861L124.242 138.944L123.702 139.74L124.727 138.853L124.158 138.732L124.401 138.094L125.427 137.957C125.427 139.119 124.506 140.198 123.35 140.41Z" fill="#6C492B"/>
<path d="M146.896 57.1895V63.1995L150.916 62.1625V57.1895H146.896Z" fill="#F3DDC3"/>
<path d="M85.3218 83.9583C85.5395 84.7496 85.7237 85.5326 85.8744 86.2906C85.8912 86.3656 85.9037 86.4448 85.9163 86.5197C86.2429 88.2315 86.4103 89.7934 86.4983 90.9721H86.7369C86.7327 90.9138 86.7285 90.8555 86.7243 90.7972C86.6908 90.3182 86.6406 89.7809 86.5778 89.202C86.5401 88.8771 86.4983 88.5397 86.4522 88.1899C86.4271 88.0233 86.402 87.8525 86.3768 87.6818C86.3392 87.4485 86.3015 87.2069 86.2596 86.957C86.2345 86.8154 86.2094 86.6738 86.1843 86.5281C86.1717 86.4531 86.1549 86.3739 86.1424 86.299C85.9791 85.4493 85.7698 84.5372 85.5018 83.6084C85.4851 83.6459 85.4181 83.8125 85.3218 83.9583Z" fill="#539056"/>
<path d="M70.8564 73.5999C72.0204 73.6541 72.9121 74.233 73.5946 74.9994C75.0599 76.6487 75.5205 79.1727 75.5205 79.1727C76.923 78.7603 78.3172 79.1102 78.3172 79.1102C76.9063 79.5725 76.3076 80.5638 76.3076 80.5638C81.4698 83.6542 84.7983 83.9291 85.3217 83.9541L85.2714 83.7375C85.2505 83.6542 85.2254 83.5668 85.2002 83.4835L85.0621 82.9753C85.0495 82.9337 85.0411 82.8879 85.0286 82.8462L84.9867 82.7213L84.9072 82.4714C84.702 81.8008 84.4424 81.1511 84.1703 80.5055C83.8898 79.8641 83.559 79.2435 83.1906 78.6479C82.437 77.465 81.5033 76.3863 80.4106 75.495C79.8663 75.0452 79.2844 74.6453 78.6689 74.2913C78.3633 74.1206 78.0493 73.954 77.7227 73.8082L77.4799 73.6999C77.3961 73.6666 77.3166 73.6333 77.2329 73.5999C77.0696 73.5375 76.9021 73.475 76.7305 73.4292L76.7346 73.4167C76.7346 73.4208 74.1472 72.2338 70.8564 73.5999Z" fill="#61B776"/>
<path d="M66.0879 77.4277C66.0879 77.4277 70.0862 74.6788 73.5905 74.9995C72.9123 74.2332 72.0163 73.6542 70.8524 73.6001C69.3536 74.2248 67.704 75.3827 66.0879 77.4277Z" fill="#4E834F"/>
<path d="M76.7598 73.4125C77.4422 73.5999 78.087 73.8873 78.7108 74.2163C79.3388 74.5537 79.9375 74.9452 80.4985 75.3825C81.6248 76.2613 82.5919 77.3317 83.3832 78.5229C83.4795 78.6729 83.5716 78.827 83.6679 78.9769L83.7391 79.0894L83.7726 79.1477L83.8061 79.206L83.9359 79.4392L84.0656 79.6725L84.1284 79.7891L84.1871 79.9099L84.4257 80.3888C84.723 81.0386 84.9867 81.705 85.1793 82.3922L85.2547 82.6504L85.2924 82.7796C85.3049 82.8212 85.3133 82.867 85.3259 82.9087L85.4473 83.4293C85.4598 83.4918 85.4766 83.5501 85.4891 83.6126C85.8994 82.1007 87.2559 76.1156 83.6302 73.829C80.8042 72.0339 77.0863 73.2959 76.7598 73.4125Z" fill="#61B776"/>
<path d="M76.7305 73.4374C76.9021 73.4873 77.0696 73.5456 77.2329 73.6081C77.3166 73.6414 77.3962 73.6748 77.4799 73.7081L77.7227 73.8164C78.0451 73.9621 78.3591 74.1246 78.6689 74.2995C79.2844 74.6494 79.8663 75.0534 80.4106 75.5032C81.2522 76.1904 82.0016 76.9859 82.6422 77.8606C82.8347 78.1188 83.0148 78.3854 83.1906 78.6561C83.5591 79.2517 83.8898 79.8723 84.1703 80.5178C84.4425 81.1634 84.702 81.8132 84.9072 82.4837L84.9867 82.7336L85.0286 82.8586C85.0412 82.9002 85.0495 82.9419 85.0621 82.9877L85.1207 83.2043L85.2003 83.4958C85.2254 83.5791 85.2463 83.6666 85.2714 83.7499L85.3217 83.9665C85.3259 83.9581 85.3342 83.9498 85.3384 83.9415C85.4347 83.7957 85.4766 83.6707 85.4891 83.6291C85.4933 83.6249 85.4933 83.6208 85.4933 83.6166V83.6124C85.4808 83.55 85.464 83.4916 85.4515 83.4292L85.33 82.9085C85.3175 82.8669 85.3091 82.8211 85.2966 82.7794L85.2589 82.6503L85.1835 82.3921C84.9909 81.7049 84.7272 81.0385 84.4299 80.3887L84.1913 79.9098L84.1326 79.789L84.0698 79.6723L83.94 79.4391L83.8103 79.2059L83.7768 79.1476L83.7391 79.0892L83.6679 78.9768C83.5716 78.8269 83.4795 78.6727 83.3832 78.5228C82.5919 77.3358 81.6248 76.2612 80.4985 75.3824C79.9375 74.9451 79.3346 74.5536 78.7066 74.2162C78.0828 73.8872 77.4338 73.5998 76.7556 73.4124C76.7514 73.4124 76.743 73.4082 76.7347 73.4082L76.7305 73.4374Z" fill="#539056"/>
<path d="M80.4023 90.9722V105.462C80.4023 107.461 82.031 109.086 84.0448 109.086H86.6825C84.6728 109.086 83.04 107.466 83.04 105.462V90.9722H80.4023Z" fill="#D7D7D7"/>
<path d="M83.04 90.9722V105.462C83.04 107.461 84.6687 109.086 86.6825 109.086H91.9118C93.9214 109.086 95.5542 107.466 95.5542 105.462V90.9722H83.04Z" fill="#E3E3E3"/>
<path d="M86.4398 89.6599C86.5277 89.9931 86.6198 90.3221 86.7161 90.647C86.7496 90.7553 86.7789 90.8636 86.8124 90.9719H87.2604C86.9338 89.9348 86.6407 88.8227 86.4398 87.7024C86.3267 87.0776 86.2472 86.4529 86.2053 85.8406C86.1341 84.8119 86.176 83.8164 86.3812 82.9085C86.4105 82.771 86.4482 82.6377 86.4858 82.5086C86.7789 81.5049 87.2939 80.6344 88.1061 79.9805C90.7438 77.8688 93.1721 79.9555 93.1972 79.9763C93.2851 80.0513 93.4149 80.0429 93.4944 79.9596C93.5698 79.8722 93.5614 79.7431 93.4777 79.6639C93.4526 79.6389 90.7521 77.3274 87.8465 79.6598C87.0092 80.3303 86.4188 81.2591 86.0881 82.417C86.0504 82.5503 86.0127 82.6835 85.9834 82.821C85.929 83.0626 85.8829 83.3125 85.8494 83.5707C85.6234 85.2408 85.8201 87.2859 86.4398 89.6599Z" fill="#539056"/>
<path d="M87.03 96.5155C87.4528 98.9062 90.6599 101.393 90.6599 101.393L92.3555 99.9849L91.7903 102.188C94.1014 103.596 98.1081 103.313 98.1081 103.313C95.6086 94.6871 90.6599 90.8428 90.6599 90.8428C86.2764 91.2218 86.6071 94.1248 87.03 96.5155Z" fill="#61B776"/>
<path d="M90.6597 90.8472C90.6597 90.8472 95.6084 94.6915 98.1079 103.317C102.726 96.145 97.1659 89.6268 94.7627 88.9729C92.3553 88.3149 90.6597 90.8472 90.6597 90.8472Z" fill="#539056"/>
<path d="M80.8042 84.7622C80.888 84.8372 81.022 84.833 81.1015 84.7497C81.1224 84.7248 82.9186 82.8005 85.2255 82.7631C85.3845 82.7589 85.5436 82.7672 85.7069 82.7839C85.799 82.7922 85.8911 82.8047 85.9833 82.8214C86.0795 82.838 86.1717 82.8588 86.268 82.8797C86.3056 82.888 86.3433 82.9005 86.381 82.9088C88.7423 83.5586 90.731 86.27 92.3052 90.9722H92.7449C91.112 86.0409 89.0103 83.1962 86.4857 82.5048C86.4438 82.4923 86.4061 82.484 86.3642 82.4715C86.2721 82.4465 86.18 82.4298 86.0837 82.4132C85.9288 82.384 85.7739 82.3632 85.6232 82.3549C85.4599 82.3424 85.2966 82.3382 85.1417 82.3424C82.7008 82.409 80.8754 84.3707 80.7875 84.4665C80.7121 84.5498 80.7205 84.6831 80.8042 84.7622Z" fill="#4E834F"/>
<path d="M89.2073 87.6273C90.5094 91.7922 94.9306 93.125 94.9306 93.125C93.7835 91.6423 94.0347 86.7193 95.073 86.9359C96.1113 87.1483 95.4958 88.2353 96.4211 91.4465C97.3464 94.6536 101.378 94.437 101.378 94.437C100.432 93.8498 99.4984 89.9472 100.537 89.8347C101.575 89.7264 101.567 90.4345 102.551 92.8252C103.534 95.2117 107.52 94.8868 107.52 94.8868C107.52 94.8868 107.52 94.8827 107.524 94.8785C106.277 93.5874 103.677 90.8135 101.843 88.3561C99.5444 85.2824 95.9145 81.0049 92.5358 79.3931C92.3893 79.443 91.7236 79.6846 90.7732 80.2177C89.6804 80.8258 87.9053 83.4623 89.2073 87.6273ZM90.6936 83.1166C90.7062 83.0791 90.7188 83.0458 90.7313 83.0083C91.1793 81.9046 92.8624 82.5751 92.4563 83.6955C92.4311 83.7621 92.406 83.8288 92.3767 83.8996C91.9036 85.0408 93.1094 88.1271 91.6733 88.3686C90.2331 88.606 90.2498 84.4369 90.6936 83.1166Z" fill="#61B776"/>
<path d="M92.5273 79.3891C95.906 81.0009 99.536 85.2742 101.834 88.3521C103.668 90.8095 106.272 93.5834 107.516 94.8745C107.57 94.6954 108.399 92.0215 108.399 90.9927C108.395 89.9265 107.378 88.0731 105.933 87.7482C104.489 87.4192 102.789 87.4941 103.903 86.6028C105.012 85.7074 108.353 86.507 108.353 86.507C108.211 84.1538 107.516 83.4624 105.971 82.567C104.426 81.6715 100.909 83.0876 100.612 81.7298C100.315 80.372 106.641 80.6302 106.641 80.6302C106.641 80.6302 106.185 78.8851 104.016 77.3066C101.847 75.7322 98.2423 79.1017 97.3672 78.1646C96.622 77.369 99.0503 75.5864 99.7914 75.0741C99.8709 75.02 99.8416 74.8992 99.7495 74.8825C93.1888 73.5872 92.5608 79.3849 92.5608 79.3849C92.5608 79.3849 92.5483 79.3849 92.5273 79.3891ZM103.463 78.6102C104.016 78.8684 104.669 79.26 104.296 79.5557C103.995 79.7972 103.379 79.7931 102.961 79.5765C102.341 79.2558 102.827 78.3145 103.463 78.6102Z" fill="#539056"/>
<path d="M82.8178 84.4623C81.7795 84.4373 81.118 84.5289 80.9672 84.5539C78.8613 87.4028 77.7351 92.5965 77.1866 96.1909C76.7512 99.0606 75.8134 102.543 75.3486 104.175C75.3528 104.179 75.357 104.184 75.357 104.184C75.357 104.184 78.8404 102.688 78.5934 100.252C78.3463 97.8152 78.0198 97.2238 78.9409 96.8531C79.8578 96.4824 80.8291 100.168 80.3016 101.081C80.3016 101.081 83.7766 99.4729 83.1151 96.3742C82.4535 93.2754 81.4487 92.634 82.2233 91.9968C82.9978 91.3553 85.4094 95.3704 85.1163 97.1197C85.1163 97.1197 88.2229 94.0418 87.4441 89.9767C86.6696 85.9117 83.9985 84.4914 82.8178 84.4623ZM85.715 91.6927C84.4046 92.13 84.0278 89.0105 83.1234 88.2608C83.069 88.2149 83.0146 88.1691 82.9643 88.1233C82.1228 87.3653 83.2323 86.0575 84.0989 86.7822C84.1241 86.803 84.1534 86.828 84.1785 86.853C85.1414 87.7693 87.0255 91.2554 85.715 91.6927Z" fill="#539056"/>
<path d="M80.9423 84.558C80.9423 84.558 77.8148 79.9766 72.8996 83.9749C72.8326 84.0333 72.8619 84.1457 72.954 84.154C73.8039 84.254 76.6384 84.6705 76.3704 85.6659C76.0564 86.8405 71.5263 85.6159 70.4168 87.8984C69.3074 90.1808 69.7051 91.8468 69.7051 91.8468C69.7051 91.8468 74.8925 88.823 75.2484 90.0933C75.6042 91.3636 72.0246 91.7343 71.1328 93.1712C70.241 94.6082 69.9689 95.4953 70.9067 97.5278C70.9067 97.5278 73.3434 95.3787 74.6748 95.6328C76.0062 95.8868 74.5492 96.5782 73.4857 97.4945C72.4223 98.4108 72.3972 100.414 72.8745 101.31C73.335 102.176 75.2274 104.046 75.353 104.171C75.8177 102.538 76.7556 99.0564 77.191 96.1867C77.7395 92.5923 78.8615 87.3986 80.9716 84.5497C80.9507 84.558 80.9423 84.558 80.9423 84.558ZM72.3134 89.3395C72.058 89.706 71.5473 89.985 71.1872 89.9142C70.7434 89.8268 71.1118 89.2145 71.4635 88.7522C71.8613 88.2232 72.6944 88.7938 72.3134 89.3395Z" fill="#4E834F"/>
<path d="M37.4087 173.897V145.991L63.3121 147.337V177.72L37.4087 173.897Z" fill="#DEA961"/>
<path d="M63.312 147.337L83.3624 145.408L83.6889 172.214L63.312 177.72V147.337Z" fill="#BC7B41"/>
<path d="M37.4087 145.991L59.8622 144.175L83.3624 145.408L63.3121 147.337L37.4087 145.991Z" fill="#DEA961"/>
<path d="M72.0122 167.029L76.2283 166.167L76.4795 174.163L72.6235 175.205L72.0122 167.029Z" fill="#EEDFC4"/>
<path d="M37.4087 145.991C37.4087 145.991 59.1044 146.237 63.3163 147.337L37.4087 145.991Z" fill="#9F673B"/>
<path d="M63.8268 144.383L47.9507 146.537V152.263L48.4615 151.834L48.7629 152.334L49.6296 151.909L50.1738 152.53L50.7181 152.018L51.3419 152.559L52.0076 152.018L52.7068 152.676L52.7906 146.791L68.1685 144.612L63.8268 144.383Z" fill="#DED0B9"/>
<path d="M0.858398 34.4155V6.50586L26.766 7.85115V38.2348L0.858398 34.4155Z" fill="#DEA961"/>
<path d="M26.7661 7.85075L46.8123 5.92236L47.1388 32.7324L26.7661 38.2344V7.85075Z" fill="#BC7B41"/>
<path d="M0.858398 6.50562L23.3161 4.69385L46.8121 5.92252L26.766 7.85091L0.858398 6.50562Z" fill="#DEA961"/>
<path d="M35.4658 27.547L39.6819 26.6807L39.9289 34.6774L36.0729 35.7187L35.4658 27.547Z" fill="#EEDFC4"/>
<path d="M0.858398 6.50586C0.858398 6.50586 22.5541 6.75159 26.766 7.85115L0.858398 6.50586Z" fill="#9F673B"/>
<path d="M27.2768 4.89795L11.4048 7.05541V12.7823L11.9114 12.3491L12.2128 12.8531L13.0795 12.4283L13.6238 13.0447L14.1722 12.5324L14.7919 13.0738L15.4617 12.5324L16.1567 13.1946L16.2405 7.30531L31.6226 5.12702L27.2768 4.89795Z" fill="#DED0B9"/>
<path d="M68.3652 177.766V131.593L111.225 133.822V184.085L68.3652 177.766Z" fill="#DEA961"/>
<path d="M111.225 133.821L144.393 130.631L144.933 174.98L111.225 184.084V133.821Z" fill="#BC7B41"/>
<path d="M68.3652 131.593L105.518 128.594L144.392 130.631L111.225 133.821L68.3652 131.593Z" fill="#DEA961"/>
<path d="M125.615 166.4L132.59 164.971L133.004 178.203L126.624 179.928L125.615 166.4Z" fill="#EEDFC4"/>
<path d="M68.3652 131.593C68.3652 131.593 104.258 131.997 111.225 133.822L68.3652 131.593Z" fill="#9F673B"/>
<path d="M112.075 128.936L85.8115 132.501V141.976L86.6531 141.264L87.1513 142.093L88.5831 141.389L89.4875 142.413L90.3876 141.564L91.4176 142.463L92.5229 141.564L93.6784 142.655L93.8166 132.917L119.259 129.315L112.075 128.936Z" fill="#DED0B9"/>
<path d="M218.59 194.476C215.526 196.042 211.456 195.717 211.456 195.717C212.687 195.717 213.822 195.267 214.831 194.455C218.038 191.86 219.917 185.546 219.285 178.17C218.565 169.711 214.78 162.647 210.401 160.989C209.765 160.748 209.116 160.623 208.458 160.623C207.738 160.623 207.047 160.777 206.398 161.068C206.545 160.973 209.308 159.24 214.11 159.74C214.29 159.756 214.47 159.781 214.655 159.806C219.469 160.635 223.82 168.141 224.602 177.279C225.331 185.771 222.723 192.864 218.59 194.476Z" fill="#1C222B"/>
<path d="M214.83 194.451C213.821 195.267 212.687 195.713 211.456 195.713C206.302 195.713 201.458 187.857 200.629 178.166C199.917 169.836 202.408 162.859 206.394 161.064C206.394 161.064 206.394 161.064 206.398 161.06C207.047 160.768 207.738 160.614 208.458 160.614C209.115 160.614 209.764 160.739 210.401 160.981C214.776 162.638 218.565 169.702 219.285 178.161C219.917 185.542 218.037 191.856 214.83 194.451Z" fill="#3E4A5A"/>
<path d="M212.156 190.945C215.626 190.582 217.837 184.595 217.094 177.572C216.352 170.549 212.937 165.15 209.467 165.513C205.997 165.876 203.786 171.864 204.528 178.887C205.271 185.91 208.686 191.308 212.156 190.945Z" fill="#687589"/>
<path d="M211.262 182.495C212.425 182.374 213.167 180.365 212.918 178.009C212.669 175.652 211.523 173.841 210.36 173.963C209.196 174.084 208.455 176.093 208.704 178.449C208.953 180.806 210.098 182.617 211.262 182.495Z" fill="#3E4A5A"/>
<path d="M206.394 161.065C206.394 161.065 206.394 161.065 206.399 161.06" stroke="#1C222B" stroke-width="0.3412" stroke-miterlimit="10"/>
<path d="M217.229 178.224L212.934 178.824L186.021 89.443C183.769 81.9668 180.248 75.0113 175.546 68.7638L174.47 67.3352C171.125 62.8953 166.013 60.2214 160.436 60.0048L122.081 58.5221C121.382 58.4971 121.026 58.9552 120.909 59.1552C120.792 59.3509 120.557 59.8632 120.888 60.4505L129.224 73.1703C131.547 76.7148 133.298 80.5799 134.424 84.6616L165.226 196.346L161.901 198.099C161.818 198.145 161.797 198.232 161.83 198.303L161.952 199.032C161.608 198.761 161.345 198.382 161.223 197.933L130.291 85.7903C129.282 82.1376 127.717 78.6723 125.636 75.4986L117.266 62.7329C117.25 62.7079 117.233 62.6787 117.216 62.6537C116.174 60.9003 116.178 58.722 117.229 56.9727C118.28 55.2234 120.201 54.1863 122.249 54.2655L160.604 55.7482C167.474 56.0106 173.779 59.3051 177.899 64.7821L178.975 66.2107C183.978 72.858 187.729 80.2633 190.128 88.2185L217.229 178.224Z" fill="#32934D"/>
<path d="M217.229 178.224L212.934 178.824L186.021 89.4431C183.769 81.9669 180.248 75.0114 175.546 68.7639L174.47 67.3353C171.125 62.8954 166.013 60.2215 160.436 60.0049L122.081 58.5222C121.981 58.518 121.889 58.5264 121.805 58.5388C121.579 58.0099 121.784 57.5601 121.893 57.381C122.014 57.1811 122.366 56.7187 123.065 56.7479L161.42 58.2306C166.993 58.4472 172.109 61.117 175.454 65.561L176.53 66.9896C181.232 73.2371 184.757 80.1926 187.005 87.6688L213.918 177.049L216.752 176.654L217.229 178.224Z" fill="#226234"/>
<path d="M140.256 105.807L191.317 101.971L192.473 105.807L141.52 110.397L140.256 105.807Z" fill="#32934D"/>
<path d="M141.52 110.397L141.775 111.317L192.64 106.365L192.473 105.807L141.52 110.397Z" fill="#226234"/>
<path d="M158.795 173.034L210.095 164.33L209.878 163.613L158.477 171.872L158.795 173.034Z" fill="#226234"/>
<path d="M157.066 166.766L208.663 159.582L209.878 163.613L158.477 171.872L157.066 166.766Z" fill="#32934D"/>
<path d="M163.153 200.394C162.99 200.394 162.823 200.357 162.663 200.282L146.18 192.452C145.632 192.189 145.385 191.548 145.619 190.99L153.942 171.123C154.185 170.544 154.855 170.269 155.437 170.511C156.019 170.752 156.295 171.418 156.053 171.997L148.148 190.869L163.647 198.233C164.217 198.503 164.46 199.182 164.187 199.749C163.991 200.153 163.58 200.394 163.153 200.394Z" fill="#32934D"/>
<path d="M147.675 205.73C144.611 207.296 140.541 206.971 140.541 206.971C141.772 206.971 142.906 206.521 143.916 205.709C147.123 203.114 149.002 196.8 148.37 189.424C147.65 180.965 143.865 173.901 139.486 172.243C138.85 172.002 138.201 171.877 137.543 171.877C136.823 171.877 136.132 172.031 135.483 172.322C135.63 172.226 138.393 170.494 143.195 170.994C143.375 171.01 143.555 171.035 143.74 171.06C148.554 171.889 152.904 179.394 153.687 188.532C154.416 197.029 151.808 204.122 147.675 205.73Z" fill="#1C222B"/>
<path d="M143.915 205.709C142.906 206.521 141.772 206.971 140.541 206.971C135.387 206.971 130.543 199.116 129.714 189.424C129.002 181.094 131.493 174.117 135.479 172.322C135.479 172.322 135.479 172.322 135.483 172.318C136.132 172.027 136.823 171.873 137.543 171.873C138.2 171.873 138.849 171.998 139.486 172.239C143.861 173.897 147.65 180.961 148.37 189.42C149.002 196.8 147.122 203.114 143.915 205.709Z" fill="#3E4A5A"/>
<path d="M141.241 202.201C144.711 201.838 146.922 195.85 146.18 188.827C145.437 181.804 142.022 176.405 138.552 176.768C135.082 177.131 132.871 183.119 133.614 190.142C134.356 197.165 137.771 202.564 141.241 202.201Z" fill="#687589"/>
<path d="M140.347 193.751C141.511 193.629 142.252 191.621 142.003 189.264C141.754 186.908 140.609 185.097 139.445 185.219C138.282 185.34 137.54 187.349 137.789 189.705C138.039 192.062 139.184 193.873 140.347 193.751Z" fill="#226234"/>
<path d="M135.479 172.323C135.479 172.323 135.479 172.323 135.484 172.318" stroke="#1C222B" stroke-width="0.3412" stroke-miterlimit="10"/>
<path d="M158.557 162.817L167.671 195.058L208.664 175.612L197.008 138.335L158.557 162.817Z" fill="#BC7B41"/>
<path d="M246.55 134.937L197.008 138.336L208.664 175.612L258 168.719L246.55 134.937Z" fill="#DEA961"/>
<path d="M258 168.719L219.407 190.031L167.671 195.059L208.664 175.612L258 168.719Z" fill="#DEA961"/>
<path d="M172.097 154.204L173.319 159.423L174.002 157.328L175.107 158.436L175.848 155.962L177.795 157.328V154.475L179.537 155.22L178.394 150.189L172.097 154.204Z" fill="#F3DDC3"/>
<path d="M245.448 138.115C245.473 138.344 245.406 138.561 245.272 138.727C245.138 138.894 244.942 139.011 244.711 139.036L228.747 140.851C228.287 140.906 227.872 140.577 227.822 140.118C227.797 139.889 227.864 139.673 227.998 139.506C228.132 139.34 228.329 139.223 228.559 139.198L244.523 137.382C244.979 137.332 245.394 137.657 245.448 138.115Z" fill="#F3DDC3"/>
<path d="M245.746 140.722C245.771 140.951 245.704 141.168 245.57 141.335C245.436 141.501 245.239 141.618 245.009 141.643L236.514 142.609C236.058 142.663 235.643 142.334 235.589 141.876C235.564 141.647 235.631 141.43 235.765 141.264C235.899 141.097 236.095 140.981 236.326 140.956L244.82 139.989C245.281 139.935 245.696 140.264 245.746 140.722Z" fill="#F3DDC3"/>
<path d="M149.258 127.619L141.207 97.3315L172.172 69.0762L182.052 103.125L149.258 127.619Z" fill="#BC7B41"/>
<path d="M225.109 69.0762H172.172L182.053 103.125L235.446 100.43L225.109 69.0762Z" fill="#DEA961"/>
<path d="M149.258 127.619L231.837 103.454L235.446 100.43L182.053 103.125L149.258 127.619Z" fill="#DEA961"/>
<path d="M152.146 87.3523L153.126 91.5422L153.809 89.4472L154.914 90.5551L155.659 88.0811L157.606 89.4472V86.5984L159.344 87.3398L157.857 82.1377L152.146 87.3523Z" fill="#F3DDC3"/>
<path d="M223.351 71.7002C223.351 71.9293 223.254 72.1375 223.108 72.2875C222.957 72.4374 222.748 72.5332 222.517 72.5332H206.449C205.984 72.5332 205.611 72.1583 205.611 71.7002C205.611 71.4711 205.703 71.2629 205.854 71.1129C206.005 70.963 206.214 70.8672 206.449 70.8672H222.517C222.974 70.8672 223.351 71.2379 223.351 71.7002Z" fill="#F3DDC3"/>
<path d="M223.351 74.3242C223.351 74.5533 223.254 74.7615 223.108 74.9156C222.957 75.0656 222.748 75.1572 222.518 75.1572H213.968C213.508 75.1572 213.131 74.7865 213.131 74.3242C213.131 74.0951 213.223 73.8869 213.374 73.7369C213.524 73.587 213.734 73.4912 213.964 73.4912H222.513C222.974 73.4912 223.351 73.8619 223.351 74.3242Z" fill="#F3DDC3"/>
<path d="M155.659 161.66L160.763 161.414L197.007 138.336L244.46 135.083L197.61 137.47L155.659 161.66Z" fill="#DEA961"/>
<path d="M234.542 103.525L187.072 102.325L197.61 137.469L244.46 135.083L234.542 103.525Z" fill="#DEA961"/>
<path d="M146.737 129.306L187.072 102.325L197.61 137.469L155.659 161.66L146.737 129.306Z" fill="#BC7B41"/>
<path d="M161.575 119.381L162.798 124.599L163.48 122.504L164.585 123.612L165.327 121.138L167.273 122.504V119.651L169.015 120.393L167.834 115.195L161.575 119.381Z" fill="#F3DDC3"/>
<path d="M252.08 176.142L220.792 191.244C220.591 191.344 220.374 191.411 220.152 191.444L162.354 200.565C162.27 200.578 162.207 200.532 162.182 200.465L162.169 200.394V200.39C162.174 200.34 162.203 200.294 162.253 200.265L167.432 197.533L191.531 184.83C192.925 184.097 194.437 183.61 196.003 183.389L246.863 176.308L251.917 175.604C252.042 175.588 252.143 175.646 252.193 175.734C252.272 175.871 252.252 176.058 252.08 176.142Z" fill="#226234"/>
<path d="M252.197 175.742C252.147 175.654 252.046 175.596 251.921 175.613L246.867 176.316L217.874 180.352L213.578 180.952L196.007 183.397C194.445 183.614 192.929 184.101 191.535 184.838L167.436 197.541L164.665 199.003L163.865 199.424L162.257 200.274C162.203 200.303 162.178 200.348 162.173 200.398L161.952 199.041L161.83 198.312C161.797 198.241 161.818 198.154 161.901 198.108L165.226 196.354L191.179 182.672C192.573 181.939 194.085 181.452 195.651 181.231L212.938 178.824L217.233 178.224L251.565 173.447C251.72 173.426 251.829 173.518 251.87 173.634V173.638L251.887 173.734L252.197 175.742Z" fill="#32934D"/>
</g>
<defs>
<clipPath id="clip0_700_235">
<rect width="258" height="207" fill="white"/>
</clipPath>
</defs>
</svg>
