<svg width="37" height="12" viewBox="0 0 37 12" fill="none" xmlns="http://www.w3.org/2000/svg">
<path d="M4.63363 9.168C3.89763 9.168 3.24163 9 2.66563 8.664C2.09763 8.328 1.65363 7.844 1.33363 7.212C1.01363 6.572 0.853625 5.808 0.853625 4.92C0.853625 4.04 1.02163 3.276 1.35763 2.628C1.69363 1.98 2.14963 1.488 2.72563 1.152C3.30963 0.808 3.96163 0.636 4.68163 0.636C5.10563 0.636 5.50963 0.708 5.89363 0.852C6.28563 0.987999 6.63363 1.192 6.93763 1.464L6.63763 2.652H6.54163L6.33763 2.28C6.14563 1.912 6.02163 1.696 5.96563 1.632C5.62163 1.432 5.20963 1.332 4.72963 1.332C4.21763 1.332 3.76163 1.472 3.36163 1.752C2.96963 2.032 2.66163 2.44 2.43763 2.976C2.21363 3.512 2.10163 4.152 2.10163 4.896C2.10163 6.04 2.32963 6.924 2.78563 7.548C3.24963 8.172 3.89363 8.484 4.71763 8.484C4.95763 8.484 5.18963 8.456 5.41363 8.4C5.63763 8.336 5.82563 8.244 5.97763 8.124V7.5C5.97763 6.508 5.96963 5.852 5.95363 5.532L4.53763 5.484V4.86H7.33363V5.316L7.08163 5.424C7.07363 6.112 7.06563 6.804 7.05763 7.5V8.352C6.76163 8.6 6.40163 8.8 5.97763 8.952C5.55363 9.096 5.10563 9.168 4.63363 9.168ZM24.0993 11.916C23.3153 11.916 22.7073 11.776 22.2753 11.496C21.8433 11.224 21.6273 10.848 21.6273 10.368C21.6273 9.864 21.9833 9.416 22.6953 9.024V8.988C22.4713 8.908 22.2913 8.784 22.1553 8.616C22.0193 8.44 21.9513 8.224 21.9513 7.968C21.9513 7.504 22.2073 7.084 22.7193 6.708V6.672C22.4793 6.504 22.2833 6.28 22.1313 6C21.9793 5.712 21.9033 5.396 21.9033 5.052C21.9033 4.636 22.0033 4.272 22.2033 3.96C22.4113 3.64 22.6873 3.396 23.0313 3.228C23.3753 3.052 23.7513 2.964 24.1593 2.964C24.6553 2.964 25.0593 3.08 25.3713 3.312L26.9913 3.048L27.1833 3.084V3.924H25.9833V3.96C26.2473 4.248 26.3793 4.616 26.3793 5.064C26.3793 5.48 26.2793 5.844 26.0793 6.156C25.8873 6.468 25.6233 6.708 25.2873 6.876C24.9513 7.036 24.5753 7.116 24.1593 7.116C23.8313 7.116 23.5033 7.044 23.1753 6.9C22.9273 7.124 22.8033 7.368 22.8033 7.632C22.8033 8.048 23.1353 8.256 23.7993 8.256H25.1193C25.8233 8.256 26.3473 8.38 26.6913 8.628C27.0353 8.868 27.2073 9.244 27.2073 9.756C27.2073 10.14 27.0833 10.496 26.8353 10.824C26.5873 11.16 26.2273 11.424 25.7553 11.616C25.2833 11.816 24.7313 11.916 24.0993 11.916ZM24.1593 6.588C24.5033 6.588 24.7833 6.452 24.9993 6.18C25.2153 5.908 25.3233 5.528 25.3233 5.04C25.3233 4.568 25.2193 4.2 25.0113 3.936C24.8033 3.664 24.5193 3.528 24.1593 3.528C23.7993 3.528 23.5153 3.664 23.3073 3.936C23.0993 4.2 22.9953 4.572 22.9953 5.052C22.9953 5.532 23.1033 5.908 23.3193 6.18C23.5433 6.452 23.8233 6.588 24.1593 6.588ZM23.1753 9.18C22.9673 9.332 22.8113 9.492 22.7073 9.66C22.6113 9.828 22.5633 10.02 22.5633 10.236C22.5633 10.588 22.7113 10.864 23.0073 11.064C23.3033 11.272 23.7113 11.376 24.2313 11.376C24.6153 11.376 24.9553 11.316 25.2513 11.196C25.5473 11.076 25.7753 10.912 25.9353 10.704C26.0953 10.504 26.1753 10.284 26.1753 10.044C26.1753 9.764 26.0713 9.56 25.8633 9.432C25.6633 9.304 25.3593 9.24 24.9513 9.24H23.8113C23.6273 9.24 23.4153 9.22 23.1753 9.18Z" fill="#283764"/>
<path d="M11.2537 9.156C10.7337 9.156 10.2617 9.036 9.83769 8.796C9.42169 8.548 9.08969 8.192 8.84169 7.728C8.59369 7.256 8.46969 6.704 8.46969 6.072C8.46969 5.44 8.59369 4.888 8.84169 4.416C9.09769 3.944 9.43769 3.584 9.86169 3.336C10.2857 3.088 10.7497 2.964 11.2537 2.964C11.7657 2.964 12.2337 3.088 12.6577 3.336C13.0817 3.576 13.4177 3.932 13.6657 4.404C13.9137 4.868 14.0377 5.416 14.0377 6.048C14.0377 6.68 13.9097 7.232 13.6537 7.704C13.4057 8.168 13.0697 8.528 12.6457 8.784C12.2217 9.032 11.7577 9.156 11.2537 9.156ZM11.2537 8.508C11.7417 8.508 12.1257 8.296 12.4057 7.872C12.6937 7.44 12.8377 6.832 12.8377 6.048C12.8377 5.272 12.6937 4.672 12.4057 4.248C12.1257 3.824 11.7417 3.612 11.2537 3.612C10.7657 3.612 10.3777 3.828 10.0897 4.26C9.80969 4.684 9.66969 5.288 9.66969 6.072C9.66969 6.848 9.80969 7.448 10.0897 7.872C10.3777 8.296 10.7657 8.508 11.2537 8.508ZM34.0352 9.156C33.5072 9.156 33.0272 9.036 32.5952 8.796C32.1712 8.548 31.8352 8.192 31.5872 7.728C31.3472 7.264 31.2272 6.72 31.2272 6.096C31.2272 5.472 31.3512 4.924 31.5992 4.452C31.8552 3.972 32.1872 3.604 32.5952 3.348C33.0112 3.092 33.4512 2.964 33.9152 2.964C34.6352 2.964 35.2032 3.196 35.6192 3.66C36.0352 4.124 36.2432 4.744 36.2432 5.52C36.2432 5.816 36.2272 6.012 36.1952 6.108H32.3552C32.3952 6.836 32.5952 7.392 32.9552 7.776C33.3232 8.16 33.7752 8.352 34.3112 8.352C34.8712 8.352 35.3752 8.16 35.8232 7.776L36.1112 8.232C35.8632 8.528 35.5632 8.756 35.2112 8.916C34.8592 9.076 34.4672 9.156 34.0352 9.156ZM34.5992 5.544C34.9512 5.544 35.1632 5.448 35.2352 5.256C35.2352 4.712 35.1232 4.3 34.8992 4.02C34.6752 3.732 34.3552 3.588 33.9392 3.588C33.5472 3.588 33.1992 3.756 32.8952 4.092C32.5992 4.42 32.4232 4.904 32.3672 5.544H34.5992Z" fill="#8B0C1B"/>
<path d="M17.8865 9.156C17.3665 9.156 16.8945 9.036 16.4705 8.796C16.0545 8.548 15.7225 8.192 15.4745 7.728C15.2265 7.256 15.1025 6.704 15.1025 6.072C15.1025 5.44 15.2265 4.888 15.4745 4.416C15.7305 3.944 16.0705 3.584 16.4945 3.336C16.9185 3.088 17.3825 2.964 17.8865 2.964C18.3985 2.964 18.8665 3.088 19.2905 3.336C19.7145 3.576 20.0505 3.932 20.2985 4.404C20.5465 4.868 20.6705 5.416 20.6705 6.048C20.6705 6.68 20.5425 7.232 20.2865 7.704C20.0385 8.168 19.7025 8.528 19.2785 8.784C18.8545 9.032 18.3905 9.156 17.8865 9.156ZM17.8865 8.508C18.3745 8.508 18.7585 8.296 19.0385 7.872C19.3265 7.44 19.4705 6.832 19.4705 6.048C19.4705 5.272 19.3265 4.672 19.0385 4.248C18.7585 3.824 18.3745 3.612 17.8865 3.612C17.3985 3.612 17.0105 3.828 16.7225 4.26C16.4425 4.684 16.3025 5.288 16.3025 6.072C16.3025 6.848 16.4425 7.448 16.7225 7.872C17.0105 8.296 17.3985 8.508 17.8865 8.508Z" fill="#B19527"/>
<path d="M29.1111 9.072C28.8631 8.912 28.6911 8.672 28.5951 8.352C28.4991 8.032 28.4511 7.644 28.4511 7.188V0.756L28.1031 0.528V0.24L29.5551 0.0359995L29.6151 0.0839996L29.5911 2.148V7.236C29.5911 7.452 29.6071 7.668 29.6391 7.884C29.6791 8.092 29.7271 8.264 29.7831 8.4C29.9271 8.424 30.0671 8.436 30.2031 8.436L30.2871 9.012C30.2311 9.028 30.0671 9.04 29.7951 9.048C29.5231 9.064 29.2951 9.072 29.1111 9.072Z" fill="#32934D"/>
</svg>
