<svg width="125" height="24" viewBox="0 0 125 24" fill="none" xmlns="http://www.w3.org/2000/svg">
<g id="Frame" clip-path="url(#clip0_116_1458)">
<g id="Group">
<g id="Group_2">
<g id="Group_3">
<g id="Group_4">
<g id="Group_5">
<path id="Vector" d="M37.4924 16.619V13.8218L38.8536 13.7849C39.47 13.7849 40.0617 13.6781 40.6119 13.4809C42.6102 12.7662 44.0418 10.8644 44.0418 8.63409C44.0418 5.79582 41.7166 3.48331 38.8536 3.48331H34.6501V24.0002H31.1458V7.01163L38.1792 0.00427246H38.8536C43.6446 0.00427246 47.5461 3.87352 47.5461 8.63409C47.5461 12.2733 45.2623 15.395 42.0434 16.6601L48.0674 24.0002H43.537L37.4924 16.619Z" fill="white"/>
</g>
</g>
<g id="Group_6">
<g id="Group_7">
<path id="Vector_2" d="M82.0966 0L73.2304 15.0211V23.9959H69.7219V15.1073L60.7646 0H64.8358L71.4596 11.1559L78.0255 0H82.0966Z" fill="white"/>
</g>
</g>
<g id="Group_8">
<g id="Group_9">
<path id="Vector_3" d="M120.545 23.9959L107.007 5.37258L106.987 24L103.482 23.9959L103.511 0H107.4L120.983 18.6274L120.996 0L124.5 0.00410748L124.483 24L120.545 23.9959Z" fill="white"/>
</g>
</g>
<g id="Group_10">
<g id="Group_11">
<path id="Vector_4" d="M65.4607 23.9959L51.9234 5.37258L51.9069 24L48.3984 23.9959L48.4233 0H52.3165L69.7842 23.9959H65.4607Z" fill="white"/>
</g>
</g>
<g id="Group_12">
<g id="Group_13">
<path id="Vector_5" d="M99.159 23.9959L85.6217 5.37258L85.6051 24L82.0967 23.9959L82.1215 0H86.0147L103.482 23.9959H99.159Z" fill="white"/>
</g>
</g>
</g>
</g>
<g id="Group_14">
<path id="Vector_6" d="M15.6639 0.106812L12.1844 3.5612H20.43V20.3854H3.47948V12.2033L0 15.6577V23.8439H23.9095V0.106812H15.6639Z" fill="white"/>
<path id="Vector_7" d="M10.7405 0.106812L7.26098 3.56531H3.47948V7.31544L0 10.7739V0.106812H10.7405Z" fill="#FFCB05"/>
</g>
</g>
</g>
<defs>
<clipPath id="clip0_116_1458">
<rect width="124.5" height="24" fill="white"/>
</clipPath>
</defs>
</svg>
