<svg width="25" height="23" viewBox="0 0 25 23" fill="none" xmlns="http://www.w3.org/2000/svg">
<g id="Group">
<path id="Vector" d="M22.2542 12.114H6.65836L3.96753 2.81909H24.1625L22.2542 12.114Z" stroke="white" stroke-miterlimit="10"/>
<path id="Vector_2" d="M0 0.697754H3.26744L7.82537 16.3707H22.6798" stroke="white" stroke-miterlimit="10"/>
<path id="Vector_3" d="M9.18449 22.3021C10.2157 22.3021 11.0516 21.4523 11.0516 20.404C11.0516 19.3558 10.2157 18.506 9.18449 18.506C8.15331 18.506 7.31738 19.3558 7.31738 20.404C7.31738 21.4523 8.15331 22.3021 9.18449 22.3021Z" stroke="white" stroke-miterlimit="10"/>
<path id="Vector_4" d="M20.3322 22.3021C21.3634 22.3021 22.1993 21.4523 22.1993 20.404C22.1993 19.3558 21.3634 18.506 20.3322 18.506C19.301 18.506 18.4651 19.3558 18.4651 20.404C18.4651 21.4523 19.301 22.3021 20.3322 22.3021Z" stroke="white" stroke-miterlimit="10"/>
</g>
</svg>
